<svg xmlns="http://www.w3.org/2000/svg" viewBox="0 0 960 720" width="960" height="720">
<rect width="960" height="720" fill="#0f172a" />
<text x="480" y="28" fill="#e2e8f0" font-size="16" font-weight="700" text-anchor="middle">环境噪声均值趋势图</text>
<text x="70" y="70" fill="#e2e8f0" font-size="13" font-weight="600">本月分天指标明细</text>
<line x1="70" y1="323.00" x2="930" y2="323.00" stroke="#94a3b8" stroke-opacity="0.18" stroke-width="1" />
<text x="62" y="327.00" fill="#cbd5f5" font-size="10" text-anchor="end">53.5</text>
<line x1="70" y1="260.75" x2="930" y2="260.75" stroke="#94a3b8" stroke-opacity="0.18" stroke-width="1" />
<text x="62" y="264.75" fill="#cbd5f5" font-size="10" text-anchor="end">56.6</text>
<line x1="70" y1="198.50" x2="930" y2="198.50" stroke="#94a3b8" stroke-opacity="0.18" stroke-width="1" />
<text x="62" y="202.50" fill="#cbd5f5" font-size="10" text-anchor="end">59.7</text>
<line x1="70" y1="136.25" x2="930" y2="136.25" stroke="#94a3b8" stroke-opacity="0.18" stroke-width="1" />
<text x="62" y="140.25" fill="#cbd5f5" font-size="10" text-anchor="end">62.8</text>
<line x1="70" y1="74.00" x2="930" y2="74.00" stroke="#94a3b8" stroke-opacity="0.18" stroke-width="1" />
<text x="62" y="78.00" fill="#cbd5f5" font-size="10" text-anchor="end">65.9</text>
<line x1="70.00" y1="323" x2="70.00" y2="327" stroke="#94a3b8" stroke-opacity="0.5" stroke-width="1" />
<text x="70.00" y="341" fill="#cbd5f5" font-size="10" text-anchor="middle">11-19</text>
<line x1="242.00" y1="323" x2="242.00" y2="327" stroke="#94a3b8" stroke-opacity="0.5" stroke-width="1" />
<text x="242.00" y="341" fill="#cbd5f5" font-size="10" text-anchor="middle">11-24</text>
<line x1="414.00" y1="323" x2="414.00" y2="327" stroke="#94a3b8" stroke-opacity="0.5" stroke-width="1" />
<text x="414.00" y="341" fill="#cbd5f5" font-size="10" text-anchor="middle">11-30</text>
<line x1="586.00" y1="323" x2="586.00" y2="327" stroke="#94a3b8" stroke-opacity="0.5" stroke-width="1" />
<text x="586.00" y="341" fill="#cbd5f5" font-size="10" text-anchor="middle">12-06</text>
<line x1="758.00" y1="323" x2="758.00" y2="327" stroke="#94a3b8" stroke-opacity="0.5" stroke-width="1" />
<text x="758.00" y="341" fill="#cbd5f5" font-size="10" text-anchor="middle">12-12</text>
<line x1="930.00" y1="323" x2="930.00" y2="327" stroke="#94a3b8" stroke-opacity="0.5" stroke-width="1" />
<text x="930.00" y="341" fill="#cbd5f5" font-size="10" text-anchor="middle">12-18</text>
<line x1="70" y1="74" x2="70" y2="323" stroke="#94a3b8" stroke-width="1" />
<line x1="70" y1="323" x2="930" y2="323" stroke="#94a3b8" stroke-width="1" />
<path d="M70.00,253.14 L99.66,243.84 L129.31,204.93 L158.97,246.51 L188.62,246.67 L218.28,229.79 L247.93,235.39 L277.59,257.17 L307.24,225.77 L336.90,182.61 L366.55,130.98 L396.21,143.75 L425.86,110.43 L455.52,225.11 L485.17,239.24 L514.83,220.15 L544.48,201.67 L574.14,258.74 L603.79,216.60 L633.45,302.25 L663.10,260.65 L692.76,277.86 L722.41,207.25 L752.07,139.74 L781.72,94.75 L811.38,148.38 L841.03,110.37 L870.69,285.83 L900.34,261.50 L930.00,210.02" fill="none" stroke="#60a5fa" stroke-width="2.2" stroke-linecap="round" />
<circle cx="70.00" cy="253.14" r="3" fill="#60a5fa" stroke="#0f172a" stroke-width="1" />
<text x="70.00" y="243.14" fill="#e2e8f0" font-size="9" text-anchor="middle">56.9</text>
<circle cx="99.66" cy="243.84" r="3" fill="#60a5fa" stroke="#0f172a" stroke-width="1" />
<text x="99.66" y="223.84" fill="#e2e8f0" font-size="9" text-anchor="middle">57.4</text>
<circle cx="129.31" cy="204.93" r="3" fill="#60a5fa" stroke="#0f172a" stroke-width="1" />
<text x="129.31" y="194.93" fill="#e2e8f0" font-size="9" text-anchor="middle">59.3</text>
<circle cx="158.97" cy="246.51" r="3" fill="#60a5fa" stroke="#0f172a" stroke-width="1" />
<text x="158.97" y="226.51" fill="#e2e8f0" font-size="9" text-anchor="middle">57.3</text>
<circle cx="188.62" cy="246.67" r="3" fill="#60a5fa" stroke="#0f172a" stroke-width="1" />
<text x="188.62" y="236.67" fill="#e2e8f0" font-size="9" text-anchor="middle">57.3</text>
<circle cx="218.28" cy="229.79" r="3" fill="#60a5fa" stroke="#0f172a" stroke-width="1" />
<text x="218.28" y="209.79" fill="#e2e8f0" font-size="9" text-anchor="middle">58.1</text>
<circle cx="247.93" cy="235.39" r="3" fill="#60a5fa" stroke="#0f172a" stroke-width="1" />
<text x="247.93" y="225.39" fill="#e2e8f0" font-size="9" text-anchor="middle">57.8</text>
<circle cx="277.59" cy="257.17" r="3" fill="#60a5fa" stroke="#0f172a" stroke-width="1" />
<text x="277.59" y="237.17" fill="#e2e8f0" font-size="9" text-anchor="middle">56.7</text>
<circle cx="307.24" cy="225.77" r="3" fill="#60a5fa" stroke="#0f172a" stroke-width="1" />
<text x="307.24" y="215.77" fill="#e2e8f0" font-size="9" text-anchor="middle">58.3</text>
<circle cx="336.90" cy="182.61" r="3" fill="#60a5fa" stroke="#0f172a" stroke-width="1" />
<text x="336.90" y="162.61" fill="#e2e8f0" font-size="9" text-anchor="middle">60.5</text>
<circle cx="366.55" cy="130.98" r="3" fill="#60a5fa" stroke="#0f172a" stroke-width="1" />
<text x="366.55" y="120.98" fill="#e2e8f0" font-size="9" text-anchor="middle">63</text>
<circle cx="396.21" cy="143.75" r="3" fill="#60a5fa" stroke="#0f172a" stroke-width="1" />
<text x="396.21" y="123.75" fill="#e2e8f0" font-size="9" text-anchor="middle">62.4</text>
<circle cx="425.86" cy="110.43" r="3" fill="#60a5fa" stroke="#0f172a" stroke-width="1" />
<text x="425.86" y="100.43" fill="#e2e8f0" font-size="9" text-anchor="middle">64.1</text>
<circle cx="455.52" cy="225.11" r="3" fill="#60a5fa" stroke="#0f172a" stroke-width="1" />
<text x="455.52" y="205.11" fill="#e2e8f0" font-size="9" text-anchor="middle">58.3</text>
<circle cx="485.17" cy="239.24" r="3" fill="#60a5fa" stroke="#0f172a" stroke-width="1" />
<text x="485.17" y="229.24" fill="#e2e8f0" font-size="9" text-anchor="middle">57.6</text>
<circle cx="514.83" cy="220.15" r="3" fill="#60a5fa" stroke="#0f172a" stroke-width="1" />
<text x="514.83" y="200.15" fill="#e2e8f0" font-size="9" text-anchor="middle">58.6</text>
<circle cx="544.48" cy="201.67" r="3" fill="#60a5fa" stroke="#0f172a" stroke-width="1" />
<text x="544.48" y="191.67" fill="#e2e8f0" font-size="9" text-anchor="middle">59.5</text>
<circle cx="574.14" cy="258.74" r="3" fill="#60a5fa" stroke="#0f172a" stroke-width="1" />
<text x="574.14" y="238.74" fill="#e2e8f0" font-size="9" text-anchor="middle">56.7</text>
<circle cx="603.79" cy="216.60" r="3" fill="#60a5fa" stroke="#0f172a" stroke-width="1" />
<text x="603.79" y="206.60" fill="#e2e8f0" font-size="9" text-anchor="middle">58.8</text>
<circle cx="633.45" cy="302.25" r="3" fill="#60a5fa" stroke="#0f172a" stroke-width="1" />
<text x="633.45" y="282.25" fill="#e2e8f0" font-size="9" text-anchor="middle">54.5</text>
<circle cx="663.10" cy="260.65" r="3" fill="#60a5fa" stroke="#0f172a" stroke-width="1" />
<text x="663.10" y="250.65" fill="#e2e8f0" font-size="9" text-anchor="middle">56.6</text>
<circle cx="692.76" cy="277.86" r="3" fill="#60a5fa" stroke="#0f172a" stroke-width="1" />
<text x="692.76" y="257.86" fill="#e2e8f0" font-size="9" text-anchor="middle">55.7</text>
<circle cx="722.41" cy="207.25" r="3" fill="#60a5fa" stroke="#0f172a" stroke-width="1" />
<text x="722.41" y="197.25" fill="#e2e8f0" font-size="9" text-anchor="middle">59.2</text>
<circle cx="752.07" cy="139.74" r="3" fill="#60a5fa" stroke="#0f172a" stroke-width="1" />
<text x="752.07" y="119.74" fill="#e2e8f0" font-size="9" text-anchor="middle">62.6</text>
<circle cx="781.72" cy="94.75" r="3" fill="#60a5fa" stroke="#0f172a" stroke-width="1" />
<text x="781.72" y="84.75" fill="#e2e8f0" font-size="9" text-anchor="middle">64.8</text>
<circle cx="811.38" cy="148.38" r="3" fill="#60a5fa" stroke="#0f172a" stroke-width="1" />
<text x="811.38" y="128.38" fill="#e2e8f0" font-size="9" text-anchor="middle">62.2</text>
<circle cx="841.03" cy="110.37" r="3" fill="#60a5fa" stroke="#0f172a" stroke-width="1" />
<text x="841.03" y="100.37" fill="#e2e8f0" font-size="9" text-anchor="middle">64.1</text>
<circle cx="870.69" cy="285.83" r="3" fill="#60a5fa" stroke="#0f172a" stroke-width="1" />
<text x="870.69" y="265.83" fill="#e2e8f0" font-size="9" text-anchor="middle">55.3</text>
<circle cx="900.34" cy="261.50" r="3" fill="#60a5fa" stroke="#0f172a" stroke-width="1" />
<text x="900.34" y="251.50" fill="#e2e8f0" font-size="9" text-anchor="middle">56.5</text>
<circle cx="930.00" cy="210.02" r="3" fill="#60a5fa" stroke="#0f172a" stroke-width="1" />
<text x="930.00" y="190.02" fill="#e2e8f0" font-size="9" text-anchor="middle">59.1</text>
<text x="70" y="403" fill="#e2e8f0" font-size="13" font-weight="600">本年核心指标趋势（滑动7日窗口平均）</text>
<line x1="70" y1="656.00" x2="930" y2="656.00" stroke="#94a3b8" stroke-opacity="0.18" stroke-width="1" />
<text x="62" y="660.00" fill="#cbd5f5" font-size="10" text-anchor="end">55.6</text>
<line x1="70" y1="593.75" x2="930" y2="593.75" stroke="#94a3b8" stroke-opacity="0.18" stroke-width="1" />
<text x="62" y="597.75" fill="#cbd5f5" font-size="10" text-anchor="end">57.5</text>
<line x1="70" y1="531.50" x2="930" y2="531.50" stroke="#94a3b8" stroke-opacity="0.18" stroke-width="1" />
<text x="62" y="535.50" fill="#cbd5f5" font-size="10" text-anchor="end">59.4</text>
<line x1="70" y1="469.25" x2="930" y2="469.25" stroke="#94a3b8" stroke-opacity="0.18" stroke-width="1" />
<text x="62" y="473.25" fill="#cbd5f5" font-size="10" text-anchor="end">61.4</text>
<line x1="70" y1="407.00" x2="930" y2="407.00" stroke="#94a3b8" stroke-opacity="0.18" stroke-width="1" />
<text x="62" y="411.00" fill="#cbd5f5" font-size="10" text-anchor="end">63.3</text>
<line x1="70.00" y1="656" x2="70.00" y2="660" stroke="#94a3b8" stroke-opacity="0.5" stroke-width="1" />
<text x="70.00" y="674" fill="#cbd5f5" font-size="10" text-anchor="middle">2025-01</text>
<line x1="242.00" y1="656" x2="242.00" y2="660" stroke="#94a3b8" stroke-opacity="0.5" stroke-width="1" />
<text x="242.00" y="674" fill="#cbd5f5" font-size="10" text-anchor="middle">2025-03</text>
<line x1="414.00" y1="656" x2="414.00" y2="660" stroke="#94a3b8" stroke-opacity="0.5" stroke-width="1" />
<text x="414.00" y="674" fill="#cbd5f5" font-size="10" text-anchor="middle">2025-06</text>
<line x1="586.00" y1="656" x2="586.00" y2="660" stroke="#94a3b8" stroke-opacity="0.5" stroke-width="1" />
<text x="586.00" y="674" fill="#cbd5f5" font-size="10" text-anchor="middle">2025-08</text>
<line x1="758.00" y1="656" x2="758.00" y2="660" stroke="#94a3b8" stroke-opacity="0.5" stroke-width="1" />
<text x="758.00" y="674" fill="#cbd5f5" font-size="10" text-anchor="middle">2025-10</text>
<line x1="930.00" y1="656" x2="930.00" y2="660" stroke="#94a3b8" stroke-opacity="0.5" stroke-width="1" />
<text x="930.00" y="674" fill="#cbd5f5" font-size="10" text-anchor="middle">2025-12</text>
<line x1="70" y1="407" x2="70" y2="656" stroke="#94a3b8" stroke-width="1" />
<line x1="70" y1="656" x2="930" y2="656" stroke="#94a3b8" stroke-width="1" />
<path d="M70.00,656.00 L70.00,485.27 L72.61,530.06 L75.23,549.94 L77.84,542.76 L80.46,567.95 L83.07,553.63 L85.68,556.49 L88.30,570.40 L90.91,559.83 L93.53,502.83 L96.14,530.16 L98.75,482.25 L101.37,477.48 L103.98,459.64 L106.60,453.24 L109.21,441.23 L111.82,474.98 L114.44,460.79 L117.05,510.54 L119.67,536.11 L122.28,564.87 L124.89,579.35 L127.51,592.87 L130.12,618.78 L132.74,617.87 L135.35,617.11 L137.96,615.42 L140.58,616.27 L143.19,622.40 L145.81,635.25 L148.42,619.91 L151.03,628.05 L153.65,617.48 L156.26,616.72 L158.88,615.20 L161.49,612.41 L164.10,610.73 L166.72,621.03 L169.33,597.69 L171.95,608.65 L174.56,614.36 L177.17,609.69 L179.79,594.49 L182.40,567.87 L185.02,541.33 L187.63,548.14 L190.24,544.89 L192.86,538.47 L195.47,546.67 L198.09,543.84 L200.70,563.83 L203.31,580.59 L205.93,583.57 L208.54,586.44 L211.16,592.07 L213.77,581.09 L216.38,573.10 L219.00,567.78 L221.61,576.87 L224.22,576.24 L226.84,560.33 L229.45,552.44 L232.07,534.79 L234.68,556.54 L237.29,546.33 L239.91,535.13 L242.52,529.25 L245.14,533.58 L247.75,532.58 L250.36,556.28 L252.98,540.58 L255.59,533.65 L258.21,506.35 L260.82,510.08 L263.43,503.02 L266.05,502.70 L268.66,497.48 L271.28,510.60 L273.89,542.50 L276.50,583.48 L279.12,606.45 L281.73,621.56 L284.35,616.26 L286.96,626.48 L289.57,633.00 L292.19,630.91 L294.80,602.17 L297.42,584.76 L300.03,579.60 L302.64,590.05 L305.26,589.09 L307.87,573.23 L310.49,557.06 L313.10,580.88 L315.71,584.17 L318.33,591.23 L320.94,573.29 L323.56,551.38 L326.17,545.36 L328.78,553.33 L331.40,543.09 L334.01,539.61 L336.63,540.24 L339.24,560.17 L341.85,575.00 L344.47,581.02 L347.08,585.09 L349.70,593.69 L352.31,579.13 L354.92,574.97 L357.54,572.82 L360.15,576.16 L362.77,573.52 L365.38,544.84 L367.99,540.97 L370.61,557.53 L373.22,551.05 L375.84,558.22 L378.45,557.30 L381.06,556.05 L383.68,582.94 L386.29,546.13 L388.91,537.35 L391.52,516.75 L394.13,484.38 L396.75,462.08 L399.36,461.60 L401.98,445.59 L404.59,495.17 L407.20,501.46 L409.82,518.98 L412.43,545.88 L415.05,562.90 L417.66,587.93 L420.27,611.71 L422.89,605.77 L425.50,598.83 L428.12,595.36 L430.73,587.59 L433.34,578.51 L435.96,558.56 L438.57,537.29 L441.19,505.92 L443.80,446.63 L446.41,437.32 L449.03,440.37 L451.64,451.76 L454.26,448.31 L456.87,460.03 L459.48,495.32 L462.10,560.59 L464.71,598.92 L467.33,602.85 L469.94,599.67 L472.55,609.63 L475.17,610.19 L477.78,582.82 L480.40,603.33 L483.01,591.07 L485.62,589.50 L488.24,597.99 L490.85,597.14 L493.47,607.91 L496.08,630.87 L498.69,614.58 L501.31,610.58 L503.92,609.05 L506.53,596.13 L509.15,599.62 L511.76,580.37 L514.38,575.66 L516.99,548.63 L519.60,533.38 L522.22,526.28 L524.83,513.93 L527.45,487.15 L530.06,503.55 L532.67,508.93 L535.29,536.99 L537.90,541.40 L540.52,546.79 L543.13,562.33 L545.74,591.98 L548.36,590.72 L550.97,521.32 L553.59,528.38 L556.20,528.34 L558.81,521.92 L561.43,517.75 L564.04,503.39 L566.66,504.75 L569.27,559.38 L571.88,542.13 L574.50,549.34 L577.11,562.78 L579.73,573.01 L582.34,583.21 L584.95,585.65 L587.57,597.08 L590.18,611.48 L592.80,617.18 L595.41,626.78 L598.02,634.57 L600.64,624.50 L603.25,621.27 L605.87,616.18 L608.48,603.28 L611.09,594.34 L613.71,577.40 L616.32,570.38 L618.94,501.51 L621.55,460.47 L624.16,444.71 L647.69,446.36 L650.30,439.66 L652.92,438.97 L655.53,434.87 L658.15,479.17 L660.76,467.03 L663.37,493.65 L665.99,508.44 L668.60,513.77 L671.22,522.32 L673.83,528.11 L676.44,550.79 L679.06,590.86 L681.67,574.65 L684.29,566.13 L686.90,559.16 L689.51,552.06 L692.13,546.78 L694.74,553.76 L697.36,572.92 L699.97,604.75 L702.58,614.09 L705.20,615.25 L707.81,623.88 L710.43,627.12 L713.04,612.78 L715.65,601.61 L718.27,572.49 L720.88,572.49 L723.50,574.59 L726.11,553.81 L728.72,546.71 L731.34,561.03 L733.95,540.34 L736.57,567.75 L739.18,546.15 L741.79,520.52 L744.41,490.75 L747.02,463.84 L749.64,442.41 L752.25,458.58 L754.86,427.75 L757.48,436.96 L760.09,467.00 L762.71,513.14 L765.32,528.08 L767.93,545.20 L770.55,548.17 L773.16,570.63 L775.78,577.35 L778.39,576.19 L781.00,566.71 L783.62,580.59 L786.23,568.64 L788.84,565.83 L791.46,566.13 L794.07,556.70 L796.69,550.08 L799.30,555.89 L801.91,560.94 L804.53,569.42 L807.14,563.05 L809.76,564.70 L812.37,588.42 L814.98,597.92 L817.60,591.91 L820.21,593.11 L822.83,532.99 L825.44,528.10 L828.05,520.30 L830.67,500.83 L833.28,486.39 L835.90,495.03 L838.51,490.75 L841.12,553.93 L843.74,587.19 L846.35,593.15 L848.97,601.01 L851.58,606.81 L854.19,606.78 L856.81,606.17 L859.42,605.27 L862.04,593.70 L864.65,591.49 L867.26,580.37 L869.88,587.11 L872.49,588.05 L875.11,583.85 L877.72,578.67 L880.33,551.87 L882.95,527.99 L885.56,500.29 L888.18,497.90 L890.79,493.75 L893.40,492.44 L896.02,496.86 L898.63,526.51 L901.25,543.41 L903.86,587.92 L906.47,596.17 L909.09,605.13 L911.70,602.13 L914.32,587.76 L916.93,549.71 L919.54,533.88 L922.16,489.36 L924.77,495.20 L927.39,491.41 L930.00,492.05 L930.00,656.00 Z" fill="#60a5fa" fill-opacity="0.16" stroke="none" />
<path d="M70.00,485.27 L72.61,530.06 L75.23,549.94 L77.84,542.76 L80.46,567.95 L83.07,553.63 L85.68,556.49 L88.30,570.40 L90.91,559.83 L93.53,502.83 L96.14,530.16 L98.75,482.25 L101.37,477.48 L103.98,459.64 L106.60,453.24 L109.21,441.23 L111.82,474.98 L114.44,460.79 L117.05,510.54 L119.67,536.11 L122.28,564.87 L124.89,579.35 L127.51,592.87 L130.12,618.78 L132.74,617.87 L135.35,617.11 L137.96,615.42 L140.58,616.27 L143.19,622.40 L145.81,635.25 L148.42,619.91 L151.03,628.05 L153.65,617.48 L156.26,616.72 L158.88,615.20 L161.49,612.41 L164.10,610.73 L166.72,621.03 L169.33,597.69 L171.95,608.65 L174.56,614.36 L177.17,609.69 L179.79,594.49 L182.40,567.87 L185.02,541.33 L187.63,548.14 L190.24,544.89 L192.86,538.47 L195.47,546.67 L198.09,543.84 L200.70,563.83 L203.31,580.59 L205.93,583.57 L208.54,586.44 L211.16,592.07 L213.77,581.09 L216.38,573.10 L219.00,567.78 L221.61,576.87 L224.22,576.24 L226.84,560.33 L229.45,552.44 L232.07,534.79 L234.68,556.54 L237.29,546.33 L239.91,535.13 L242.52,529.25 L245.14,533.58 L247.75,532.58 L250.36,556.28 L252.98,540.58 L255.59,533.65 L258.21,506.35 L260.82,510.08 L263.43,503.02 L266.05,502.70 L268.66,497.48 L271.28,510.60 L273.89,542.50 L276.50,583.48 L279.12,606.45 L281.73,621.56 L284.35,616.26 L286.96,626.48 L289.57,633.00 L292.19,630.91 L294.80,602.17 L297.42,584.76 L300.03,579.60 L302.64,590.05 L305.26,589.09 L307.87,573.23 L310.49,557.06 L313.10,580.88 L315.71,584.17 L318.33,591.23 L320.94,573.29 L323.56,551.38 L326.17,545.36 L328.78,553.33 L331.40,543.09 L334.01,539.61 L336.63,540.24 L339.24,560.17 L341.85,575.00 L344.47,581.02 L347.08,585.09 L349.70,593.69 L352.31,579.13 L354.92,574.97 L357.54,572.82 L360.15,576.16 L362.77,573.52 L365.38,544.84 L367.99,540.97 L370.61,557.53 L373.22,551.05 L375.84,558.22 L378.45,557.30 L381.06,556.05 L383.68,582.94 L386.29,546.13 L388.91,537.35 L391.52,516.75 L394.13,484.38 L396.75,462.08 L399.36,461.60 L401.98,445.59 L404.59,495.17 L407.20,501.46 L409.82,518.98 L412.43,545.88 L415.05,562.90 L417.66,587.93 L420.27,611.71 L422.89,605.77 L425.50,598.83 L428.12,595.36 L430.73,587.59 L433.34,578.51 L435.96,558.56 L438.57,537.29 L441.19,505.92 L443.80,446.63 L446.41,437.32 L449.03,440.37 L451.64,451.76 L454.26,448.31 L456.87,460.03 L459.48,495.32 L462.10,560.59 L464.71,598.92 L467.33,602.85 L469.94,599.67 L472.55,609.63 L475.17,610.19 L477.78,582.82 L480.40,603.33 L483.01,591.07 L485.62,589.50 L488.24,597.99 L490.85,597.14 L493.47,607.91 L496.08,630.87 L498.69,614.58 L501.31,610.58 L503.92,609.05 L506.53,596.13 L509.15,599.62 L511.76,580.37 L514.38,575.66 L516.99,548.63 L519.60,533.38 L522.22,526.28 L524.83,513.93 L527.45,487.15 L530.06,503.55 L532.67,508.93 L535.29,536.99 L537.90,541.40 L540.52,546.79 L543.13,562.33 L545.74,591.98 L548.36,590.72 L550.97,521.32 L553.59,528.38 L556.20,528.34 L558.81,521.92 L561.43,517.75 L564.04,503.39 L566.66,504.75 L569.27,559.38 L571.88,542.13 L574.50,549.34 L577.11,562.78 L579.73,573.01 L582.34,583.21 L584.95,585.65 L587.57,597.08 L590.18,611.48 L592.80,617.18 L595.41,626.78 L598.02,634.57 L600.64,624.50 L603.25,621.27 L605.87,616.18 L608.48,603.28 L611.09,594.34 L613.71,577.40 L616.32,570.38 L618.94,501.51 L621.55,460.47 L624.16,444.71 L647.69,446.36 L650.30,439.66 L652.92,438.97 L655.53,434.87 L658.15,479.17 L660.76,467.03 L663.37,493.65 L665.99,508.44 L668.60,513.77 L671.22,522.32 L673.83,528.11 L676.44,550.79 L679.06,590.86 L681.67,574.65 L684.29,566.13 L686.90,559.16 L689.51,552.06 L692.13,546.78 L694.74,553.76 L697.36,572.92 L699.97,604.75 L702.58,614.09 L705.20,615.25 L707.81,623.88 L710.43,627.12 L713.04,612.78 L715.65,601.61 L718.27,572.49 L720.88,572.49 L723.50,574.59 L726.11,553.81 L728.72,546.71 L731.34,561.03 L733.95,540.34 L736.57,567.75 L739.18,546.15 L741.79,520.52 L744.41,490.75 L747.02,463.84 L749.64,442.41 L752.25,458.58 L754.86,427.75 L757.48,436.96 L760.09,467.00 L762.71,513.14 L765.32,528.08 L767.93,545.20 L770.55,548.17 L773.16,570.63 L775.78,577.35 L778.39,576.19 L781.00,566.71 L783.62,580.59 L786.23,568.64 L788.84,565.83 L791.46,566.13 L794.07,556.70 L796.69,550.08 L799.30,555.89 L801.91,560.94 L804.53,569.42 L807.14,563.05 L809.76,564.70 L812.37,588.42 L814.98,597.92 L817.60,591.91 L820.21,593.11 L822.83,532.99 L825.44,528.10 L828.05,520.30 L830.67,500.83 L833.28,486.39 L835.90,495.03 L838.51,490.75 L841.12,553.93 L843.74,587.19 L846.35,593.15 L848.97,601.01 L851.58,606.81 L854.19,606.78 L856.81,606.17 L859.42,605.27 L862.04,593.70 L864.65,591.49 L867.26,580.37 L869.88,587.11 L872.49,588.05 L875.11,583.85 L877.72,578.67 L880.33,551.87 L882.95,527.99 L885.56,500.29 L888.18,497.90 L890.79,493.75 L893.40,492.44 L896.02,496.86 L898.63,526.51 L901.25,543.41 L903.86,587.92 L906.47,596.17 L909.09,605.13 L911.70,602.13 L914.32,587.76 L916.93,549.71 L919.54,533.88 L922.16,489.36 L924.77,495.20 L927.39,491.41 L930.00,492.05" fill="none" stroke="#60a5fa" stroke-width="2.2" stroke-linecap="round" />
</svg>
