<svg xmlns="http://www.w3.org/2000/svg" viewBox="0 0 960 640" width="960" height="640">
  <rect width="960" height="640" fill="#0f172a" />
  <line x1="40" y1="40.00" x2="920.00" y2="40.00" stroke="#94a3b8" stroke-opacity="0.18" stroke-width="1" /><line x1="40" y1="128.00" x2="920.00" y2="128.00" stroke="#94a3b8" stroke-opacity="0.18" stroke-width="1" /><line x1="40" y1="216.00" x2="920.00" y2="216.00" stroke="#94a3b8" stroke-opacity="0.18" stroke-width="1" /><line x1="40" y1="304.00" x2="920.00" y2="304.00" stroke="#94a3b8" stroke-opacity="0.18" stroke-width="1" />
  <line x1="40" y1="336.00" x2="920.00" y2="336.00" stroke="#94a3b8" stroke-opacity="0.18" stroke-width="1" /><line x1="40" y1="424.00" x2="920.00" y2="424.00" stroke="#94a3b8" stroke-opacity="0.18" stroke-width="1" /><line x1="40" y1="512.00" x2="920.00" y2="512.00" stroke="#94a3b8" stroke-opacity="0.18" stroke-width="1" /><line x1="40" y1="600.00" x2="920.00" y2="600.00" stroke="#94a3b8" stroke-opacity="0.18" stroke-width="1" />
  <line x1="40" y1="320.00" x2="920.00" y2="320.00" stroke="#1f2937" stroke-width="1" />
  <polyline points="40.00,241.51 70.34,229.69 100.69,180.18 131.03,233.08 161.38,233.29 191.72,211.81 222.07,218.93 252.41,246.64 282.76,206.70 313.10,151.78 343.45,86.10 373.79,102.34 404.14,59.95 434.48,205.85 464.83,223.83 495.17,199.54 525.52,176.04 555.86,248.64 586.21,195.03 616.55,304.00 646.90,251.07 677.24,272.97 707.59,183.13 737.93,97.24 768.28,40.00 798.62,108.24 828.97,59.87 859.31,283.11 889.66,252.15 920.00,186.66" fill="none" stroke="#60a5fa" stroke-width="2" stroke-linecap="round" stroke-linejoin="round" />
  <polyline points="40.00,409.19 42.74,466.17 45.48,491.46 48.22,482.32 50.97,514.38 53.71,496.15 56.45,499.80 59.19,517.49 61.93,504.04 64.67,431.53 67.41,466.29 70.16,405.34 72.90,399.27 75.64,376.57 78.38,368.43 81.12,353.16 83.86,396.09 86.60,378.04 89.35,441.33 92.09,473.87 94.83,510.46 97.57,528.88 100.31,546.09 103.05,579.04 105.79,577.89 108.54,576.92 111.28,574.76 114.02,575.86 116.76,583.65 119.50,600.00 122.24,580.48 124.98,590.84 127.73,577.39 130.47,576.43 133.21,574.48 135.95,570.94 138.69,568.80 141.43,581.90 144.17,552.21 146.92,566.16 149.66,573.42 152.40,567.48 155.14,548.14 157.88,514.27 160.62,480.50 163.36,489.17 166.11,485.03 168.85,476.87 171.59,487.30 174.33,483.69 177.07,509.13 179.81,530.46 182.55,534.25 185.30,537.90 188.04,545.06 190.78,531.10 193.52,520.93 196.26,514.16 199.00,525.72 201.74,524.93 204.49,504.68 207.23,494.64 209.97,472.19 212.71,499.85 215.45,486.87 218.19,472.61 220.93,465.14 223.68,470.65 226.42,469.37 229.16,499.53 231.90,479.55 234.64,470.73 237.38,436.00 240.12,440.75 242.87,431.76 245.61,431.36 248.35,424.72 251.09,441.41 253.83,482.00 256.57,534.13 259.31,563.35 262.06,582.58 264.80,575.84 267.54,588.84 270.28,597.14 273.02,594.48 275.76,557.91 278.50,535.76 281.25,529.20 283.99,542.50 286.73,541.27 289.47,521.09 292.21,500.52 294.95,530.82 297.69,535.02 300.44,543.99 303.18,521.17 305.92,493.29 308.66,485.63 311.40,495.78 314.14,482.74 316.88,478.32 319.63,479.12 322.37,504.47 325.11,523.34 327.85,531.00 330.59,536.18 333.33,547.12 336.07,528.60 338.82,523.31 341.56,520.58 344.30,524.82 347.04,521.46 349.78,484.97 352.52,480.04 355.26,501.11 358.01,492.87 360.75,502.00 363.49,500.83 366.23,499.23 368.97,533.44 371.71,486.61 374.45,475.44 377.20,449.23 379.94,408.05 382.68,379.67 385.42,379.06 388.16,358.69 390.90,421.78 393.64,429.78 396.39,452.07 399.13,486.30 401.87,507.95 404.61,539.80 407.35,570.04 410.09,562.50 412.83,553.67 415.58,549.25 418.32,539.37 421.06,527.82 423.80,502.42 426.54,475.37 429.28,435.46 432.02,360.02 434.77,348.17 437.51,352.06 440.25,366.55 442.99,362.15 445.73,377.08 448.47,421.97 451.21,505.01 453.96,553.78 456.70,558.78 459.44,554.73 462.18,567.40 464.92,568.11 467.66,533.30 470.40,559.39 473.15,543.79 475.89,541.80 478.63,552.59 481.37,551.51 484.11,565.22 486.85,594.43 489.60,573.70 492.34,568.62 495.08,566.66 497.82,550.23 500.56,554.67 503.30,530.17 506.04,524.18 508.79,489.79 511.53,470.39 514.27,461.35 517.01,445.64 519.75,411.57 522.49,432.44 525.23,439.28 527.98,474.98 530.72,480.60 533.46,487.45 536.20,507.22 538.94,544.95 541.68,543.34 544.42,455.05 547.17,464.03 549.91,463.98 552.65,455.81 555.39,450.51 558.13,432.24 560.87,433.97 563.61,503.47 566.36,481.52 569.10,490.70 571.84,507.79 574.58,520.81 577.32,533.79 580.06,536.90 582.80,551.43 585.55,569.76 588.29,577.01 591.03,589.22 593.77,599.13 596.51,586.32 599.25,582.22 601.99,575.74 604.74,559.32 607.48,547.96 610.22,526.40 612.96,517.47 615.70,429.84 618.44,377.63 621.18,357.58 623.93,359.68 626.67,351.15 629.41,350.28 632.15,345.06 634.89,401.42 637.63,385.98 640.37,419.84 643.12,438.66 645.86,445.45 648.60,456.32 651.34,463.69 654.08,492.54 656.82,543.52 659.56,522.90 662.31,512.06 665.05,503.20 667.79,494.16 670.53,487.44 673.27,496.33 676.01,520.70 678.75,561.20 681.50,573.08 684.24,574.55 686.98,585.53 689.72,589.65 692.46,571.41 695.20,557.20 697.94,520.15 700.69,520.15 703.43,522.82 706.17,496.38 708.91,487.35 711.65,505.57 714.39,479.25 717.13,514.12 719.88,486.64 722.62,454.03 725.36,416.15 728.10,381.91 730.84,354.66 733.58,375.23 736.32,336.00 739.07,347.72 741.81,385.94 744.55,444.65 747.29,463.64 750.03,485.43 752.77,489.21 755.51,517.78 758.26,526.33 761.00,524.86 763.74,512.80 766.48,530.45 769.22,515.25 771.96,511.68 774.70,512.07 777.45,500.06 780.19,491.64 782.93,499.03 785.67,505.45 788.41,516.25 791.15,508.14 793.89,510.24 796.64,540.41 799.38,552.51 802.12,544.85 804.86,546.39 807.60,469.89 810.34,463.68 813.08,453.75 815.83,428.97 818.57,410.61 821.31,421.60 824.05,416.15 826.79,496.54 829.53,538.86 832.27,546.44 835.02,556.44 837.76,563.82 840.50,563.78 843.24,563.00 845.98,561.86 848.72,547.14 851.46,544.33 854.21,530.18 856.95,538.75 859.69,539.94 862.43,534.61 865.17,528.02 867.91,493.92 870.65,463.53 873.40,428.29 876.14,425.26 878.88,419.96 881.62,418.30 884.36,423.93 887.10,461.65 889.84,483.15 892.59,539.78 895.33,550.27 898.07,561.67 900.81,557.87 903.55,539.58 906.29,491.17 909.03,471.03 911.78,414.39 914.52,421.82 917.26,416.99 920.00,417.81" fill="none" stroke="#60a5fa" stroke-width="2" stroke-linecap="round" stroke-linejoin="round" />
  
  
  </svg>