<svg xmlns="http://www.w3.org/2000/svg" viewBox="0 0 960 720" width="960" height="720">
<rect width="960" height="720" fill="#0f172a" />
<text x="480" y="28" fill="#e2e8f0" font-size="16" font-weight="700" text-anchor="middle">环境噪声均值趋势图</text>
<text x="70" y="70" fill="#e2e8f0" font-size="13" font-weight="600">本月分天指标明细</text>
<line x1="70" y1="323.00" x2="930" y2="323.00" stroke="#94a3b8" stroke-opacity="0.18" stroke-width="1" />
<text x="62" y="327.00" fill="#cbd5f5" font-size="10" text-anchor="end">53.5</text>
<line x1="70" y1="260.75" x2="930" y2="260.75" stroke="#94a3b8" stroke-opacity="0.18" stroke-width="1" />
<text x="62" y="264.75" fill="#cbd5f5" font-size="10" text-anchor="end">56.6</text>
<line x1="70" y1="198.50" x2="930" y2="198.50" stroke="#94a3b8" stroke-opacity="0.18" stroke-width="1" />
<text x="62" y="202.50" fill="#cbd5f5" font-size="10" text-anchor="end">59.7</text>
<line x1="70" y1="136.25" x2="930" y2="136.25" stroke="#94a3b8" stroke-opacity="0.18" stroke-width="1" />
<text x="62" y="140.25" fill="#cbd5f5" font-size="10" text-anchor="end">62.8</text>
<line x1="70" y1="74.00" x2="930" y2="74.00" stroke="#94a3b8" stroke-opacity="0.18" stroke-width="1" />
<text x="62" y="78.00" fill="#cbd5f5" font-size="10" text-anchor="end">65.9</text>
<line x1="70.00" y1="323" x2="70.00" y2="327" stroke="#94a3b8" stroke-opacity="0.5" stroke-width="1" />
<text x="70.00" y="341" fill="#cbd5f5" font-size="10" text-anchor="middle">11-22</text>
<line x1="242.00" y1="323" x2="242.00" y2="327" stroke="#94a3b8" stroke-opacity="0.5" stroke-width="1" />
<text x="242.00" y="341" fill="#cbd5f5" font-size="10" text-anchor="middle">11-27</text>
<line x1="414.00" y1="323" x2="414.00" y2="327" stroke="#94a3b8" stroke-opacity="0.5" stroke-width="1" />
<text x="414.00" y="341" fill="#cbd5f5" font-size="10" text-anchor="middle">12-03</text>
<line x1="586.00" y1="323" x2="586.00" y2="327" stroke="#94a3b8" stroke-opacity="0.5" stroke-width="1" />
<text x="586.00" y="341" fill="#cbd5f5" font-size="10" text-anchor="middle">12-09</text>
<line x1="758.00" y1="323" x2="758.00" y2="327" stroke="#94a3b8" stroke-opacity="0.5" stroke-width="1" />
<text x="758.00" y="341" fill="#cbd5f5" font-size="10" text-anchor="middle">12-15</text>
<line x1="930.00" y1="323" x2="930.00" y2="327" stroke="#94a3b8" stroke-opacity="0.5" stroke-width="1" />
<text x="930.00" y="341" fill="#cbd5f5" font-size="10" text-anchor="middle">12-21</text>
<line x1="70" y1="74" x2="70" y2="323" stroke="#94a3b8" stroke-width="1" />
<line x1="70" y1="323" x2="930" y2="323" stroke="#94a3b8" stroke-width="1" />
<path d="M70.00,246.51 L99.66,246.67 L129.31,229.79 L158.97,235.39 L188.62,257.17 L218.28,225.77 L247.93,182.61 L277.59,130.98 L307.24,143.75 L336.90,110.43 L366.55,225.11 L396.21,239.24 L425.86,220.15 L455.52,201.67 L485.17,258.74 L514.83,216.60 L544.48,302.25 L574.14,260.65 L603.79,277.86 L633.45,207.25 L663.10,139.74 L692.76,94.75 L722.41,148.38 L752.07,110.37 L781.72,285.83 L811.38,261.50 L841.03,228.34 L870.69,281.10 L900.34,150.38 L930.00,254.28" fill="none" stroke="#60a5fa" stroke-width="2.2" stroke-linecap="round" />
<circle cx="70.00" cy="246.51" r="3" fill="#60a5fa" stroke="#0f172a" stroke-width="1" />
<text x="70.00" y="236.51" fill="#e2e8f0" font-size="9" text-anchor="middle">57.3</text>
<circle cx="99.66" cy="246.67" r="3" fill="#60a5fa" stroke="#0f172a" stroke-width="1" />
<text x="99.66" y="226.67" fill="#e2e8f0" font-size="9" text-anchor="middle">57.3</text>
<circle cx="129.31" cy="229.79" r="3" fill="#60a5fa" stroke="#0f172a" stroke-width="1" />
<text x="129.31" y="219.79" fill="#e2e8f0" font-size="9" text-anchor="middle">58.1</text>
<circle cx="158.97" cy="235.39" r="3" fill="#60a5fa" stroke="#0f172a" stroke-width="1" />
<text x="158.97" y="215.39" fill="#e2e8f0" font-size="9" text-anchor="middle">57.8</text>
<circle cx="188.62" cy="257.17" r="3" fill="#60a5fa" stroke="#0f172a" stroke-width="1" />
<text x="188.62" y="247.17" fill="#e2e8f0" font-size="9" text-anchor="middle">56.7</text>
<circle cx="218.28" cy="225.77" r="3" fill="#60a5fa" stroke="#0f172a" stroke-width="1" />
<text x="218.28" y="205.77" fill="#e2e8f0" font-size="9" text-anchor="middle">58.3</text>
<circle cx="247.93" cy="182.61" r="3" fill="#60a5fa" stroke="#0f172a" stroke-width="1" />
<text x="247.93" y="172.61" fill="#e2e8f0" font-size="9" text-anchor="middle">60.5</text>
<circle cx="277.59" cy="130.98" r="3" fill="#60a5fa" stroke="#0f172a" stroke-width="1" />
<text x="277.59" y="110.98" fill="#e2e8f0" font-size="9" text-anchor="middle">63</text>
<circle cx="307.24" cy="143.75" r="3" fill="#60a5fa" stroke="#0f172a" stroke-width="1" />
<text x="307.24" y="133.75" fill="#e2e8f0" font-size="9" text-anchor="middle">62.4</text>
<circle cx="336.90" cy="110.43" r="3" fill="#60a5fa" stroke="#0f172a" stroke-width="1" />
<text x="336.90" y="90.43" fill="#e2e8f0" font-size="9" text-anchor="middle">64.1</text>
<circle cx="366.55" cy="225.11" r="3" fill="#60a5fa" stroke="#0f172a" stroke-width="1" />
<text x="366.55" y="215.11" fill="#e2e8f0" font-size="9" text-anchor="middle">58.3</text>
<circle cx="396.21" cy="239.24" r="3" fill="#60a5fa" stroke="#0f172a" stroke-width="1" />
<text x="396.21" y="219.24" fill="#e2e8f0" font-size="9" text-anchor="middle">57.6</text>
<circle cx="425.86" cy="220.15" r="3" fill="#60a5fa" stroke="#0f172a" stroke-width="1" />
<text x="425.86" y="210.15" fill="#e2e8f0" font-size="9" text-anchor="middle">58.6</text>
<circle cx="455.52" cy="201.67" r="3" fill="#60a5fa" stroke="#0f172a" stroke-width="1" />
<text x="455.52" y="181.67" fill="#e2e8f0" font-size="9" text-anchor="middle">59.5</text>
<circle cx="485.17" cy="258.74" r="3" fill="#60a5fa" stroke="#0f172a" stroke-width="1" />
<text x="485.17" y="248.74" fill="#e2e8f0" font-size="9" text-anchor="middle">56.7</text>
<circle cx="514.83" cy="216.60" r="3" fill="#60a5fa" stroke="#0f172a" stroke-width="1" />
<text x="514.83" y="196.60" fill="#e2e8f0" font-size="9" text-anchor="middle">58.8</text>
<circle cx="544.48" cy="302.25" r="3" fill="#60a5fa" stroke="#0f172a" stroke-width="1" />
<text x="544.48" y="292.25" fill="#e2e8f0" font-size="9" text-anchor="middle">54.5</text>
<circle cx="574.14" cy="260.65" r="3" fill="#60a5fa" stroke="#0f172a" stroke-width="1" />
<text x="574.14" y="240.65" fill="#e2e8f0" font-size="9" text-anchor="middle">56.6</text>
<circle cx="603.79" cy="277.86" r="3" fill="#60a5fa" stroke="#0f172a" stroke-width="1" />
<text x="603.79" y="267.86" fill="#e2e8f0" font-size="9" text-anchor="middle">55.7</text>
<circle cx="633.45" cy="207.25" r="3" fill="#60a5fa" stroke="#0f172a" stroke-width="1" />
<text x="633.45" y="187.25" fill="#e2e8f0" font-size="9" text-anchor="middle">59.2</text>
<circle cx="663.10" cy="139.74" r="3" fill="#60a5fa" stroke="#0f172a" stroke-width="1" />
<text x="663.10" y="129.74" fill="#e2e8f0" font-size="9" text-anchor="middle">62.6</text>
<circle cx="692.76" cy="94.75" r="3" fill="#60a5fa" stroke="#0f172a" stroke-width="1" />
<text x="692.76" y="108.75" fill="#e2e8f0" font-size="9" text-anchor="middle">64.8</text>
<circle cx="722.41" cy="148.38" r="3" fill="#60a5fa" stroke="#0f172a" stroke-width="1" />
<text x="722.41" y="138.38" fill="#e2e8f0" font-size="9" text-anchor="middle">62.2</text>
<circle cx="752.07" cy="110.37" r="3" fill="#60a5fa" stroke="#0f172a" stroke-width="1" />
<text x="752.07" y="90.37" fill="#e2e8f0" font-size="9" text-anchor="middle">64.1</text>
<circle cx="781.72" cy="285.83" r="3" fill="#60a5fa" stroke="#0f172a" stroke-width="1" />
<text x="781.72" y="275.83" fill="#e2e8f0" font-size="9" text-anchor="middle">55.3</text>
<circle cx="811.38" cy="261.50" r="3" fill="#60a5fa" stroke="#0f172a" stroke-width="1" />
<text x="811.38" y="241.50" fill="#e2e8f0" font-size="9" text-anchor="middle">56.5</text>
<circle cx="841.03" cy="228.34" r="3" fill="#60a5fa" stroke="#0f172a" stroke-width="1" />
<text x="841.03" y="218.34" fill="#e2e8f0" font-size="9" text-anchor="middle">58.2</text>
<circle cx="870.69" cy="281.10" r="3" fill="#60a5fa" stroke="#0f172a" stroke-width="1" />
<text x="870.69" y="261.10" fill="#e2e8f0" font-size="9" text-anchor="middle">55.5</text>
<circle cx="900.34" cy="150.38" r="3" fill="#60a5fa" stroke="#0f172a" stroke-width="1" />
<text x="900.34" y="140.38" fill="#e2e8f0" font-size="9" text-anchor="middle">62.1</text>
<circle cx="930.00" cy="254.28" r="3" fill="#60a5fa" stroke="#0f172a" stroke-width="1" />
<text x="930.00" y="234.28" fill="#e2e8f0" font-size="9" text-anchor="middle">56.9</text>
<text x="70" y="403" fill="#e2e8f0" font-size="13" font-weight="600">本年核心指标趋势（滑动7日窗口平均）</text>
<line x1="70" y1="656.00" x2="930" y2="656.00" stroke="#94a3b8" stroke-opacity="0.18" stroke-width="1" />
<text x="62" y="660.00" fill="#cbd5f5" font-size="10" text-anchor="end">55.6</text>
<line x1="70" y1="593.75" x2="930" y2="593.75" stroke="#94a3b8" stroke-opacity="0.18" stroke-width="1" />
<text x="62" y="597.75" fill="#cbd5f5" font-size="10" text-anchor="end">57.5</text>
<line x1="70" y1="531.50" x2="930" y2="531.50" stroke="#94a3b8" stroke-opacity="0.18" stroke-width="1" />
<text x="62" y="535.50" fill="#cbd5f5" font-size="10" text-anchor="end">59.4</text>
<line x1="70" y1="469.25" x2="930" y2="469.25" stroke="#94a3b8" stroke-opacity="0.18" stroke-width="1" />
<text x="62" y="473.25" fill="#cbd5f5" font-size="10" text-anchor="end">61.4</text>
<line x1="70" y1="407.00" x2="930" y2="407.00" stroke="#94a3b8" stroke-opacity="0.18" stroke-width="1" />
<text x="62" y="411.00" fill="#cbd5f5" font-size="10" text-anchor="end">63.3</text>
<line x1="70.00" y1="656" x2="70.00" y2="660" stroke="#94a3b8" stroke-opacity="0.5" stroke-width="1" />
<text x="70.00" y="674" fill="#cbd5f5" font-size="10" text-anchor="middle">2025-01</text>
<line x1="242.00" y1="656" x2="242.00" y2="660" stroke="#94a3b8" stroke-opacity="0.5" stroke-width="1" />
<text x="242.00" y="674" fill="#cbd5f5" font-size="10" text-anchor="middle">2025-03</text>
<line x1="414.00" y1="656" x2="414.00" y2="660" stroke="#94a3b8" stroke-opacity="0.5" stroke-width="1" />
<text x="414.00" y="674" fill="#cbd5f5" font-size="10" text-anchor="middle">2025-06</text>
<line x1="586.00" y1="656" x2="586.00" y2="660" stroke="#94a3b8" stroke-opacity="0.5" stroke-width="1" />
<text x="586.00" y="674" fill="#cbd5f5" font-size="10" text-anchor="middle">2025-08</text>
<line x1="758.00" y1="656" x2="758.00" y2="660" stroke="#94a3b8" stroke-opacity="0.5" stroke-width="1" />
<text x="758.00" y="674" fill="#cbd5f5" font-size="10" text-anchor="middle">2025-10</text>
<line x1="930.00" y1="656" x2="930.00" y2="660" stroke="#94a3b8" stroke-opacity="0.5" stroke-width="1" />
<text x="930.00" y="674" fill="#cbd5f5" font-size="10" text-anchor="middle">2025-12</text>
<line x1="70" y1="407" x2="70" y2="656" stroke="#94a3b8" stroke-width="1" />
<line x1="70" y1="656" x2="930" y2="656" stroke="#94a3b8" stroke-width="1" />
<path d="M70.00,656.00 L70.00,485.27 L72.59,530.06 L75.18,549.94 L77.77,542.76 L80.36,567.95 L82.95,553.63 L85.54,556.49 L88.13,570.40 L90.72,559.83 L93.31,502.83 L95.90,530.16 L98.49,482.25 L101.08,477.48 L103.67,459.64 L106.27,453.24 L108.86,441.23 L111.45,474.98 L114.04,460.79 L116.63,510.54 L119.22,536.11 L121.81,564.87 L124.40,579.35 L126.99,592.87 L129.58,618.78 L132.17,617.87 L134.76,617.11 L137.35,615.42 L139.94,616.27 L142.53,622.40 L145.12,635.25 L147.71,619.91 L150.30,628.05 L152.89,617.48 L155.48,616.72 L158.07,615.20 L160.66,612.41 L163.25,610.73 L165.84,621.03 L168.43,597.69 L171.02,608.65 L173.61,614.36 L176.20,609.69 L178.80,594.49 L181.39,567.87 L183.98,541.33 L186.57,548.14 L189.16,544.89 L191.75,538.47 L194.34,546.67 L196.93,543.84 L199.52,563.83 L202.11,580.59 L204.70,583.57 L207.29,586.44 L209.88,592.07 L212.47,581.09 L215.06,573.10 L217.65,567.78 L220.24,576.87 L222.83,576.24 L225.42,560.33 L228.01,552.44 L230.60,534.79 L233.19,556.54 L235.78,546.33 L238.37,535.13 L240.96,529.25 L243.55,533.58 L246.14,532.58 L248.73,556.28 L251.33,540.58 L253.92,533.65 L256.51,506.35 L259.10,510.08 L261.69,503.02 L264.28,502.70 L266.87,497.48 L269.46,510.60 L272.05,542.50 L274.64,583.48 L277.23,606.45 L279.82,621.56 L282.41,616.26 L285.00,626.48 L287.59,633.00 L290.18,630.91 L292.77,602.17 L295.36,584.76 L297.95,579.60 L300.54,590.05 L303.13,589.09 L305.72,573.23 L308.31,557.06 L310.90,580.88 L313.49,584.17 L316.08,591.23 L318.67,573.29 L321.27,551.38 L323.86,545.36 L326.45,553.33 L329.04,543.09 L331.63,539.61 L334.22,540.24 L336.81,560.17 L339.40,575.00 L341.99,581.02 L344.58,585.09 L347.17,593.69 L349.76,579.13 L352.35,574.97 L354.94,572.82 L357.53,576.16 L360.12,573.52 L362.71,544.84 L365.30,540.97 L367.89,557.53 L370.48,551.05 L373.07,558.22 L375.66,557.30 L378.25,556.05 L380.84,582.94 L383.43,546.13 L386.02,537.35 L388.61,516.75 L391.20,484.38 L393.80,462.08 L396.39,461.60 L398.98,445.59 L401.57,495.17 L404.16,501.46 L406.75,518.98 L409.34,545.88 L411.93,562.90 L414.52,587.93 L417.11,611.71 L419.70,605.77 L422.29,598.83 L424.88,595.36 L427.47,587.59 L430.06,578.51 L432.65,558.56 L435.24,537.29 L437.83,505.92 L440.42,446.63 L443.01,437.32 L445.60,440.37 L448.19,451.76 L450.78,448.31 L453.37,460.03 L455.96,495.32 L458.55,560.59 L461.14,598.92 L463.73,602.85 L466.33,599.67 L468.92,609.63 L471.51,610.19 L474.10,582.82 L476.69,603.33 L479.28,591.07 L481.87,589.50 L484.46,597.99 L487.05,597.14 L489.64,607.91 L492.23,630.87 L494.82,614.58 L497.41,610.58 L500.00,609.05 L502.59,596.13 L505.18,599.62 L507.77,580.37 L510.36,575.66 L512.95,548.63 L515.54,533.38 L518.13,526.28 L520.72,513.93 L523.31,487.15 L525.90,503.55 L528.49,508.93 L531.08,536.99 L533.67,541.40 L536.27,546.79 L538.86,562.33 L541.45,591.98 L544.04,590.72 L546.63,521.32 L549.22,528.38 L551.81,528.34 L554.40,521.92 L556.99,517.75 L559.58,503.39 L562.17,504.75 L564.76,559.38 L567.35,542.13 L569.94,549.34 L572.53,562.78 L575.12,573.01 L577.71,583.21 L580.30,585.65 L582.89,597.08 L585.48,611.48 L588.07,617.18 L590.66,626.78 L593.25,634.57 L595.84,624.50 L598.43,621.27 L601.02,616.18 L603.61,603.28 L606.20,594.34 L608.80,577.40 L611.39,570.38 L613.98,501.51 L616.57,460.47 L619.16,444.71 L642.47,446.36 L645.06,439.66 L647.65,438.97 L650.24,434.87 L652.83,479.17 L655.42,467.03 L658.01,493.65 L660.60,508.44 L663.19,513.77 L665.78,522.32 L668.37,528.11 L670.96,550.79 L673.55,590.86 L676.14,574.65 L678.73,566.13 L681.33,559.16 L683.92,552.06 L686.51,546.78 L689.10,553.76 L691.69,572.92 L694.28,604.75 L696.87,614.09 L699.46,615.25 L702.05,623.88 L704.64,627.12 L707.23,612.78 L709.82,601.61 L712.41,572.49 L715.00,572.49 L717.59,574.59 L720.18,553.81 L722.77,546.71 L725.36,561.03 L727.95,540.34 L730.54,567.75 L733.13,546.15 L735.72,520.52 L738.31,490.75 L740.90,463.84 L743.49,442.41 L746.08,458.58 L748.67,427.75 L751.27,436.96 L753.86,467.00 L756.45,513.14 L759.04,528.08 L761.63,545.20 L764.22,548.17 L766.81,570.63 L769.40,577.35 L771.99,576.19 L774.58,566.71 L777.17,580.59 L779.76,568.64 L782.35,565.83 L784.94,566.13 L787.53,556.70 L790.12,550.08 L792.71,555.89 L795.30,560.94 L797.89,569.42 L800.48,563.05 L803.07,564.70 L805.66,588.42 L808.25,597.92 L810.84,591.91 L813.43,593.11 L816.02,532.99 L818.61,528.10 L821.20,520.30 L823.80,500.83 L826.39,486.39 L828.98,495.03 L831.57,490.75 L834.16,553.93 L836.75,587.19 L839.34,593.15 L841.93,601.01 L844.52,606.81 L847.11,606.78 L849.70,606.17 L852.29,605.27 L854.88,593.70 L857.47,591.49 L860.06,580.37 L862.65,587.11 L865.24,588.05 L867.83,583.85 L870.42,578.67 L873.01,551.87 L875.60,527.99 L878.19,500.29 L880.78,497.90 L883.37,493.75 L885.96,492.44 L888.55,496.86 L891.14,526.51 L893.73,543.41 L896.33,587.92 L898.92,596.17 L901.51,605.13 L904.10,602.13 L906.69,587.76 L909.28,549.71 L911.87,533.88 L914.46,489.36 L917.05,495.20 L919.64,491.41 L922.23,496.30 L924.82,529.10 L927.41,542.01 L930.00,566.58 L930.00,656.00 Z" fill="#60a5fa" fill-opacity="0.16" stroke="none" />
<path d="M70.00,485.27 L72.59,530.06 L75.18,549.94 L77.77,542.76 L80.36,567.95 L82.95,553.63 L85.54,556.49 L88.13,570.40 L90.72,559.83 L93.31,502.83 L95.90,530.16 L98.49,482.25 L101.08,477.48 L103.67,459.64 L106.27,453.24 L108.86,441.23 L111.45,474.98 L114.04,460.79 L116.63,510.54 L119.22,536.11 L121.81,564.87 L124.40,579.35 L126.99,592.87 L129.58,618.78 L132.17,617.87 L134.76,617.11 L137.35,615.42 L139.94,616.27 L142.53,622.40 L145.12,635.25 L147.71,619.91 L150.30,628.05 L152.89,617.48 L155.48,616.72 L158.07,615.20 L160.66,612.41 L163.25,610.73 L165.84,621.03 L168.43,597.69 L171.02,608.65 L173.61,614.36 L176.20,609.69 L178.80,594.49 L181.39,567.87 L183.98,541.33 L186.57,548.14 L189.16,544.89 L191.75,538.47 L194.34,546.67 L196.93,543.84 L199.52,563.83 L202.11,580.59 L204.70,583.57 L207.29,586.44 L209.88,592.07 L212.47,581.09 L215.06,573.10 L217.65,567.78 L220.24,576.87 L222.83,576.24 L225.42,560.33 L228.01,552.44 L230.60,534.79 L233.19,556.54 L235.78,546.33 L238.37,535.13 L240.96,529.25 L243.55,533.58 L246.14,532.58 L248.73,556.28 L251.33,540.58 L253.92,533.65 L256.51,506.35 L259.10,510.08 L261.69,503.02 L264.28,502.70 L266.87,497.48 L269.46,510.60 L272.05,542.50 L274.64,583.48 L277.23,606.45 L279.82,621.56 L282.41,616.26 L285.00,626.48 L287.59,633.00 L290.18,630.91 L292.77,602.17 L295.36,584.76 L297.95,579.60 L300.54,590.05 L303.13,589.09 L305.72,573.23 L308.31,557.06 L310.90,580.88 L313.49,584.17 L316.08,591.23 L318.67,573.29 L321.27,551.38 L323.86,545.36 L326.45,553.33 L329.04,543.09 L331.63,539.61 L334.22,540.24 L336.81,560.17 L339.40,575.00 L341.99,581.02 L344.58,585.09 L347.17,593.69 L349.76,579.13 L352.35,574.97 L354.94,572.82 L357.53,576.16 L360.12,573.52 L362.71,544.84 L365.30,540.97 L367.89,557.53 L370.48,551.05 L373.07,558.22 L375.66,557.30 L378.25,556.05 L380.84,582.94 L383.43,546.13 L386.02,537.35 L388.61,516.75 L391.20,484.38 L393.80,462.08 L396.39,461.60 L398.98,445.59 L401.57,495.17 L404.16,501.46 L406.75,518.98 L409.34,545.88 L411.93,562.90 L414.52,587.93 L417.11,611.71 L419.70,605.77 L422.29,598.83 L424.88,595.36 L427.47,587.59 L430.06,578.51 L432.65,558.56 L435.24,537.29 L437.83,505.92 L440.42,446.63 L443.01,437.32 L445.60,440.37 L448.19,451.76 L450.78,448.31 L453.37,460.03 L455.96,495.32 L458.55,560.59 L461.14,598.92 L463.73,602.85 L466.33,599.67 L468.92,609.63 L471.51,610.19 L474.10,582.82 L476.69,603.33 L479.28,591.07 L481.87,589.50 L484.46,597.99 L487.05,597.14 L489.64,607.91 L492.23,630.87 L494.82,614.58 L497.41,610.58 L500.00,609.05 L502.59,596.13 L505.18,599.62 L507.77,580.37 L510.36,575.66 L512.95,548.63 L515.54,533.38 L518.13,526.28 L520.72,513.93 L523.31,487.15 L525.90,503.55 L528.49,508.93 L531.08,536.99 L533.67,541.40 L536.27,546.79 L538.86,562.33 L541.45,591.98 L544.04,590.72 L546.63,521.32 L549.22,528.38 L551.81,528.34 L554.40,521.92 L556.99,517.75 L559.58,503.39 L562.17,504.75 L564.76,559.38 L567.35,542.13 L569.94,549.34 L572.53,562.78 L575.12,573.01 L577.71,583.21 L580.30,585.65 L582.89,597.08 L585.48,611.48 L588.07,617.18 L590.66,626.78 L593.25,634.57 L595.84,624.50 L598.43,621.27 L601.02,616.18 L603.61,603.28 L606.20,594.34 L608.80,577.40 L611.39,570.38 L613.98,501.51 L616.57,460.47 L619.16,444.71 L642.47,446.36 L645.06,439.66 L647.65,438.97 L650.24,434.87 L652.83,479.17 L655.42,467.03 L658.01,493.65 L660.60,508.44 L663.19,513.77 L665.78,522.32 L668.37,528.11 L670.96,550.79 L673.55,590.86 L676.14,574.65 L678.73,566.13 L681.33,559.16 L683.92,552.06 L686.51,546.78 L689.10,553.76 L691.69,572.92 L694.28,604.75 L696.87,614.09 L699.46,615.25 L702.05,623.88 L704.64,627.12 L707.23,612.78 L709.82,601.61 L712.41,572.49 L715.00,572.49 L717.59,574.59 L720.18,553.81 L722.77,546.71 L725.36,561.03 L727.95,540.34 L730.54,567.75 L733.13,546.15 L735.72,520.52 L738.31,490.75 L740.90,463.84 L743.49,442.41 L746.08,458.58 L748.67,427.75 L751.27,436.96 L753.86,467.00 L756.45,513.14 L759.04,528.08 L761.63,545.20 L764.22,548.17 L766.81,570.63 L769.40,577.35 L771.99,576.19 L774.58,566.71 L777.17,580.59 L779.76,568.64 L782.35,565.83 L784.94,566.13 L787.53,556.70 L790.12,550.08 L792.71,555.89 L795.30,560.94 L797.89,569.42 L800.48,563.05 L803.07,564.70 L805.66,588.42 L808.25,597.92 L810.84,591.91 L813.43,593.11 L816.02,532.99 L818.61,528.10 L821.20,520.30 L823.80,500.83 L826.39,486.39 L828.98,495.03 L831.57,490.75 L834.16,553.93 L836.75,587.19 L839.34,593.15 L841.93,601.01 L844.52,606.81 L847.11,606.78 L849.70,606.17 L852.29,605.27 L854.88,593.70 L857.47,591.49 L860.06,580.37 L862.65,587.11 L865.24,588.05 L867.83,583.85 L870.42,578.67 L873.01,551.87 L875.60,527.99 L878.19,500.29 L880.78,497.90 L883.37,493.75 L885.96,492.44 L888.55,496.86 L891.14,526.51 L893.73,543.41 L896.33,587.92 L898.92,596.17 L901.51,605.13 L904.10,602.13 L906.69,587.76 L909.28,549.71 L911.87,533.88 L914.46,489.36 L917.05,495.20 L919.64,491.41 L922.23,496.30 L924.82,529.10 L927.41,542.01 L930.00,566.58" fill="none" stroke="#60a5fa" stroke-width="2.2" stroke-linecap="round" />
</svg>
