<svg xmlns="http://www.w3.org/2000/svg" viewBox="0 0 960 720" width="960" height="720">
<rect width="960" height="720" fill="#0f172a" />
<text x="480" y="28" fill="#e2e8f0" font-size="16" font-weight="700" text-anchor="middle">去脂体重趋势图</text>
<text x="70" y="70" fill="#e2e8f0" font-size="13" font-weight="600">本月分天指标明细</text>
<line x1="70" y1="323.00" x2="930" y2="323.00" stroke="#94a3b8" stroke-opacity="0.18" stroke-width="1" />
<text x="62" y="327.00" fill="#cbd5f5" font-size="10" text-anchor="end">59.1</text>
<line x1="70" y1="260.75" x2="930" y2="260.75" stroke="#94a3b8" stroke-opacity="0.18" stroke-width="1" />
<text x="62" y="264.75" fill="#cbd5f5" font-size="10" text-anchor="end">59.4</text>
<line x1="70" y1="198.50" x2="930" y2="198.50" stroke="#94a3b8" stroke-opacity="0.18" stroke-width="1" />
<text x="62" y="202.50" fill="#cbd5f5" font-size="10" text-anchor="end">59.8</text>
<line x1="70" y1="136.25" x2="930" y2="136.25" stroke="#94a3b8" stroke-opacity="0.18" stroke-width="1" />
<text x="62" y="140.25" fill="#cbd5f5" font-size="10" text-anchor="end">60.1</text>
<line x1="70" y1="74.00" x2="930" y2="74.00" stroke="#94a3b8" stroke-opacity="0.18" stroke-width="1" />
<text x="62" y="78.00" fill="#cbd5f5" font-size="10" text-anchor="end">60.5</text>
<line x1="70.00" y1="323" x2="70.00" y2="327" stroke="#94a3b8" stroke-opacity="0.5" stroke-width="1" />
<text x="70.00" y="341" fill="#cbd5f5" font-size="10" text-anchor="middle">11-21</text>
<line x1="242.00" y1="323" x2="242.00" y2="327" stroke="#94a3b8" stroke-opacity="0.5" stroke-width="1" />
<text x="242.00" y="341" fill="#cbd5f5" font-size="10" text-anchor="middle">11-26</text>
<line x1="414.00" y1="323" x2="414.00" y2="327" stroke="#94a3b8" stroke-opacity="0.5" stroke-width="1" />
<text x="414.00" y="341" fill="#cbd5f5" font-size="10" text-anchor="middle">12-01</text>
<line x1="586.00" y1="323" x2="586.00" y2="327" stroke="#94a3b8" stroke-opacity="0.5" stroke-width="1" />
<text x="586.00" y="341" fill="#cbd5f5" font-size="10" text-anchor="middle">12-07</text>
<line x1="758.00" y1="323" x2="758.00" y2="327" stroke="#94a3b8" stroke-opacity="0.5" stroke-width="1" />
<text x="758.00" y="341" fill="#cbd5f5" font-size="10" text-anchor="middle">12-12</text>
<line x1="930.00" y1="323" x2="930.00" y2="327" stroke="#94a3b8" stroke-opacity="0.5" stroke-width="1" />
<text x="930.00" y="341" fill="#cbd5f5" font-size="10" text-anchor="middle">12-18</text>
<line x1="70" y1="74" x2="70" y2="323" stroke="#94a3b8" stroke-width="1" />
<line x1="70" y1="323" x2="930" y2="323" stroke="#94a3b8" stroke-width="1" />
<path d="M70.00,198.50 L133.70,287.43 L165.56,269.64 L197.41,198.50 L229.26,109.57 L261.11,180.71 L292.96,269.64 L420.37,180.71 L484.07,216.29 L515.93,234.07 L547.78,251.86 L579.63,287.43 L643.33,251.86 L675.19,180.71 L898.15,234.07 L930.00,269.64" fill="none" stroke="#fb7185" stroke-width="2.2" stroke-linecap="round" />
<circle cx="70.00" cy="198.50" r="3" fill="#fb7185" stroke="#0f172a" stroke-width="1" />
<text x="70.00" y="188.50" fill="#e2e8f0" font-size="9" text-anchor="middle">59.8</text>
<circle cx="133.70" cy="287.43" r="3" fill="#fb7185" stroke="#0f172a" stroke-width="1" />
<text x="133.70" y="267.43" fill="#e2e8f0" font-size="9" text-anchor="middle">59.3</text>
<circle cx="165.56" cy="269.64" r="3" fill="#fb7185" stroke="#0f172a" stroke-width="1" />
<text x="165.56" y="259.64" fill="#e2e8f0" font-size="9" text-anchor="middle">59.4</text>
<circle cx="197.41" cy="198.50" r="3" fill="#fb7185" stroke="#0f172a" stroke-width="1" />
<text x="197.41" y="178.50" fill="#e2e8f0" font-size="9" text-anchor="middle">59.8</text>
<circle cx="229.26" cy="109.57" r="3" fill="#fb7185" stroke="#0f172a" stroke-width="1" />
<text x="229.26" y="99.57" fill="#e2e8f0" font-size="9" text-anchor="middle">60.3</text>
<circle cx="261.11" cy="180.71" r="3" fill="#fb7185" stroke="#0f172a" stroke-width="1" />
<text x="261.11" y="160.71" fill="#e2e8f0" font-size="9" text-anchor="middle">59.9</text>
<circle cx="292.96" cy="269.64" r="3" fill="#fb7185" stroke="#0f172a" stroke-width="1" />
<text x="292.96" y="259.64" fill="#e2e8f0" font-size="9" text-anchor="middle">59.4</text>
<circle cx="420.37" cy="180.71" r="3" fill="#fb7185" stroke="#0f172a" stroke-width="1" />
<text x="420.37" y="160.71" fill="#e2e8f0" font-size="9" text-anchor="middle">59.9</text>
<circle cx="484.07" cy="216.29" r="3" fill="#fb7185" stroke="#0f172a" stroke-width="1" />
<text x="484.07" y="206.29" fill="#e2e8f0" font-size="9" text-anchor="middle">59.7</text>
<circle cx="515.93" cy="234.07" r="3" fill="#fb7185" stroke="#0f172a" stroke-width="1" />
<text x="515.93" y="214.07" fill="#e2e8f0" font-size="9" text-anchor="middle">59.6</text>
<circle cx="547.78" cy="251.86" r="3" fill="#fb7185" stroke="#0f172a" stroke-width="1" />
<text x="547.78" y="241.86" fill="#e2e8f0" font-size="9" text-anchor="middle">59.5</text>
<circle cx="579.63" cy="287.43" r="3" fill="#fb7185" stroke="#0f172a" stroke-width="1" />
<text x="579.63" y="267.43" fill="#e2e8f0" font-size="9" text-anchor="middle">59.3</text>
<circle cx="643.33" cy="251.86" r="3" fill="#fb7185" stroke="#0f172a" stroke-width="1" />
<text x="643.33" y="241.86" fill="#e2e8f0" font-size="9" text-anchor="middle">59.5</text>
<circle cx="675.19" cy="180.71" r="3" fill="#fb7185" stroke="#0f172a" stroke-width="1" />
<text x="675.19" y="160.71" fill="#e2e8f0" font-size="9" text-anchor="middle">59.9</text>
<circle cx="898.15" cy="234.07" r="3" fill="#fb7185" stroke="#0f172a" stroke-width="1" />
<text x="898.15" y="224.07" fill="#e2e8f0" font-size="9" text-anchor="middle">59.6</text>
<circle cx="930.00" cy="269.64" r="3" fill="#fb7185" stroke="#0f172a" stroke-width="1" />
<text x="930.00" y="249.64" fill="#e2e8f0" font-size="9" text-anchor="middle">59.4</text>
<text x="70" y="403" fill="#e2e8f0" font-size="13" font-weight="600">本年核心指标趋势（滑动7日窗口平均）</text>
<line x1="70" y1="656.00" x2="930" y2="656.00" stroke="#94a3b8" stroke-opacity="0.18" stroke-width="1" />
<text x="62" y="660.00" fill="#cbd5f5" font-size="10" text-anchor="end">58.3</text>
<line x1="70" y1="593.75" x2="930" y2="593.75" stroke="#94a3b8" stroke-opacity="0.18" stroke-width="1" />
<text x="62" y="597.75" fill="#cbd5f5" font-size="10" text-anchor="end">58.8</text>
<line x1="70" y1="531.50" x2="930" y2="531.50" stroke="#94a3b8" stroke-opacity="0.18" stroke-width="1" />
<text x="62" y="535.50" fill="#cbd5f5" font-size="10" text-anchor="end">59.4</text>
<line x1="70" y1="469.25" x2="930" y2="469.25" stroke="#94a3b8" stroke-opacity="0.18" stroke-width="1" />
<text x="62" y="473.25" fill="#cbd5f5" font-size="10" text-anchor="end">60</text>
<line x1="70" y1="407.00" x2="930" y2="407.00" stroke="#94a3b8" stroke-opacity="0.18" stroke-width="1" />
<text x="62" y="411.00" fill="#cbd5f5" font-size="10" text-anchor="end">60.6</text>
<line x1="70.00" y1="656" x2="70.00" y2="660" stroke="#94a3b8" stroke-opacity="0.5" stroke-width="1" />
<text x="70.00" y="674" fill="#cbd5f5" font-size="10" text-anchor="middle">2025-01</text>
<line x1="242.00" y1="656" x2="242.00" y2="660" stroke="#94a3b8" stroke-opacity="0.5" stroke-width="1" />
<text x="242.00" y="674" fill="#cbd5f5" font-size="10" text-anchor="middle">2025-04</text>
<line x1="414.00" y1="656" x2="414.00" y2="660" stroke="#94a3b8" stroke-opacity="0.5" stroke-width="1" />
<text x="414.00" y="674" fill="#cbd5f5" font-size="10" text-anchor="middle">2025-06</text>
<line x1="586.00" y1="656" x2="586.00" y2="660" stroke="#94a3b8" stroke-opacity="0.5" stroke-width="1" />
<text x="586.00" y="674" fill="#cbd5f5" font-size="10" text-anchor="middle">2025-08</text>
<line x1="758.00" y1="656" x2="758.00" y2="660" stroke="#94a3b8" stroke-opacity="0.5" stroke-width="1" />
<text x="758.00" y="674" fill="#cbd5f5" font-size="10" text-anchor="middle">2025-10</text>
<line x1="930.00" y1="656" x2="930.00" y2="660" stroke="#94a3b8" stroke-opacity="0.5" stroke-width="1" />
<text x="930.00" y="674" fill="#cbd5f5" font-size="10" text-anchor="middle">2025-12</text>
<line x1="70" y1="407" x2="70" y2="656" stroke="#94a3b8" stroke-width="1" />
<line x1="70" y1="656" x2="930" y2="656" stroke="#94a3b8" stroke-width="1" />
<path d="M70.00,656.00 L70.00,458.04 L117.48,452.62 L128.04,443.60 L130.67,430.97 L146.50,434.22 L162.33,430.97 L164.97,428.65 L196.63,439.48 L204.54,484.33 L209.82,496.70 L215.09,516.81 L217.73,535.37 L220.37,577.90 L223.01,602.64 L225.64,610.38 L228.28,582.54 L230.92,585.63 L236.20,580.99 L238.83,573.26 L241.47,555.47 L244.11,560.11 L246.75,563.20 L262.58,564.75 L265.21,572.48 L267.85,584.86 L270.49,598.00 L273.13,599.55 L275.77,585.63 L278.40,580.99 L281.04,585.63 L283.68,587.18 L286.32,590.27 L288.96,587.95 L291.60,586.40 L294.23,591.04 L296.87,586.40 L299.51,580.22 L302.15,578.67 L304.79,587.18 L310.06,577.90 L312.70,575.58 L315.34,575.58 L317.98,589.50 L320.61,617.34 L323.25,621.98 L336.44,613.47 L349.63,619.66 L354.91,621.98 L365.46,623.52 L368.10,615.79 L373.37,591.04 L376.01,581.76 L397.12,575.58 L407.67,574.03 L418.22,577.12 L428.77,574.03 L460.43,575.58 L465.71,572.48 L470.98,583.31 L476.26,589.50 L481.53,589.50 L484.17,589.50 L494.72,591.04 L497.36,587.95 L500.00,592.59 L502.64,589.50 L505.28,591.04 L507.91,603.42 L513.19,612.70 L515.83,623.52 L518.47,631.25 L521.10,634.35 L526.38,632.80 L529.02,631.25 L536.93,625.07 L542.21,615.79 L550.12,606.51 L555.40,603.42 L560.67,600.32 L565.95,600.32 L571.23,592.59 L573.87,583.31 L579.14,587.95 L581.78,598.78 L592.33,587.95 L597.61,587.95 L602.88,587.95 L613.44,597.23 L634.54,598.78 L645.09,580.22 L647.73,561.66 L650.37,560.11 L658.28,557.02 L663.56,543.10 L666.20,529.18 L668.83,526.09 L671.47,530.73 L674.11,538.46 L692.58,540.01 L724.23,535.37 L747.98,524.54 L750.61,522.99 L753.25,509.07 L755.89,484.33 L758.53,465.77 L761.17,456.49 L763.80,450.30 L766.44,453.40 L771.72,448.76 L774.36,447.21 L776.99,453.40 L779.63,454.94 L784.91,459.58 L787.55,459.58 L792.82,458.04 L795.46,445.66 L811.29,451.85 L816.56,458.04 L827.12,464.22 L832.39,447.21 L835.03,441.02 L837.67,447.21 L840.31,459.58 L848.22,454.94 L858.77,459.58 L864.05,467.32 L866.69,488.97 L869.33,493.61 L871.96,487.42 L874.60,487.42 L877.24,501.34 L887.79,499.80 L893.07,493.61 L895.71,490.52 L898.34,495.16 L900.98,510.62 L906.26,516.81 L908.90,509.07 L927.36,513.71 L930.00,518.35 L930.00,656.00 Z" fill="#fb7185" fill-opacity="0.16" stroke="none" />
<path d="M70.00,458.04 L117.48,452.62 L128.04,443.60 L130.67,430.97 L146.50,434.22 L162.33,430.97 L164.97,428.65 L196.63,439.48 L204.54,484.33 L209.82,496.70 L215.09,516.81 L217.73,535.37 L220.37,577.90 L223.01,602.64 L225.64,610.38 L228.28,582.54 L230.92,585.63 L236.20,580.99 L238.83,573.26 L241.47,555.47 L244.11,560.11 L246.75,563.20 L262.58,564.75 L265.21,572.48 L267.85,584.86 L270.49,598.00 L273.13,599.55 L275.77,585.63 L278.40,580.99 L281.04,585.63 L283.68,587.18 L286.32,590.27 L288.96,587.95 L291.60,586.40 L294.23,591.04 L296.87,586.40 L299.51,580.22 L302.15,578.67 L304.79,587.18 L310.06,577.90 L312.70,575.58 L315.34,575.58 L317.98,589.50 L320.61,617.34 L323.25,621.98 L336.44,613.47 L349.63,619.66 L354.91,621.98 L365.46,623.52 L368.10,615.79 L373.37,591.04 L376.01,581.76 L397.12,575.58 L407.67,574.03 L418.22,577.12 L428.77,574.03 L460.43,575.58 L465.71,572.48 L470.98,583.31 L476.26,589.50 L481.53,589.50 L484.17,589.50 L494.72,591.04 L497.36,587.95 L500.00,592.59 L502.64,589.50 L505.28,591.04 L507.91,603.42 L513.19,612.70 L515.83,623.52 L518.47,631.25 L521.10,634.35 L526.38,632.80 L529.02,631.25 L536.93,625.07 L542.21,615.79 L550.12,606.51 L555.40,603.42 L560.67,600.32 L565.95,600.32 L571.23,592.59 L573.87,583.31 L579.14,587.95 L581.78,598.78 L592.33,587.95 L597.61,587.95 L602.88,587.95 L613.44,597.23 L634.54,598.78 L645.09,580.22 L647.73,561.66 L650.37,560.11 L658.28,557.02 L663.56,543.10 L666.20,529.18 L668.83,526.09 L671.47,530.73 L674.11,538.46 L692.58,540.01 L724.23,535.37 L747.98,524.54 L750.61,522.99 L753.25,509.07 L755.89,484.33 L758.53,465.77 L761.17,456.49 L763.80,450.30 L766.44,453.40 L771.72,448.76 L774.36,447.21 L776.99,453.40 L779.63,454.94 L784.91,459.58 L787.55,459.58 L792.82,458.04 L795.46,445.66 L811.29,451.85 L816.56,458.04 L827.12,464.22 L832.39,447.21 L835.03,441.02 L837.67,447.21 L840.31,459.58 L848.22,454.94 L858.77,459.58 L864.05,467.32 L866.69,488.97 L869.33,493.61 L871.96,487.42 L874.60,487.42 L877.24,501.34 L887.79,499.80 L893.07,493.61 L895.71,490.52 L898.34,495.16 L900.98,510.62 L906.26,516.81 L908.90,509.07 L927.36,513.71 L930.00,518.35" fill="none" stroke="#fb7185" stroke-width="2.2" stroke-linecap="round" />
</svg>
