<svg xmlns="http://www.w3.org/2000/svg" viewBox="0 0 960 720" width="960" height="720">
<rect width="960" height="720" fill="#0f172a" />
<text x="480" y="28" fill="#e2e8f0" font-size="16" font-weight="700" text-anchor="middle">BMI趋势图</text>
<text x="70" y="70" fill="#e2e8f0" font-size="13" font-weight="600">本月分天指标明细</text>
<line x1="70" y1="323.00" x2="930" y2="323.00" stroke="#94a3b8" stroke-opacity="0.18" stroke-width="1" />
<text x="62" y="327.00" fill="#cbd5f5" font-size="10" text-anchor="end">24.9</text>
<line x1="70" y1="260.75" x2="930" y2="260.75" stroke="#94a3b8" stroke-opacity="0.18" stroke-width="1" />
<text x="62" y="264.75" fill="#cbd5f5" font-size="10" text-anchor="end">25.2</text>
<line x1="70" y1="198.50" x2="930" y2="198.50" stroke="#94a3b8" stroke-opacity="0.18" stroke-width="1" />
<text x="62" y="202.50" fill="#cbd5f5" font-size="10" text-anchor="end">25.4</text>
<line x1="70" y1="136.25" x2="930" y2="136.25" stroke="#94a3b8" stroke-opacity="0.18" stroke-width="1" />
<text x="62" y="140.25" fill="#cbd5f5" font-size="10" text-anchor="end">25.6</text>
<line x1="70" y1="74.00" x2="930" y2="74.00" stroke="#94a3b8" stroke-opacity="0.18" stroke-width="1" />
<text x="62" y="78.00" fill="#cbd5f5" font-size="10" text-anchor="end">25.9</text>
<line x1="70.00" y1="323" x2="70.00" y2="327" stroke="#94a3b8" stroke-opacity="0.5" stroke-width="1" />
<text x="70.00" y="341" fill="#cbd5f5" font-size="10" text-anchor="middle">11-21</text>
<line x1="242.00" y1="323" x2="242.00" y2="327" stroke="#94a3b8" stroke-opacity="0.5" stroke-width="1" />
<text x="242.00" y="341" fill="#cbd5f5" font-size="10" text-anchor="middle">11-26</text>
<line x1="414.00" y1="323" x2="414.00" y2="327" stroke="#94a3b8" stroke-opacity="0.5" stroke-width="1" />
<text x="414.00" y="341" fill="#cbd5f5" font-size="10" text-anchor="middle">12-01</text>
<line x1="586.00" y1="323" x2="586.00" y2="327" stroke="#94a3b8" stroke-opacity="0.5" stroke-width="1" />
<text x="586.00" y="341" fill="#cbd5f5" font-size="10" text-anchor="middle">12-07</text>
<line x1="758.00" y1="323" x2="758.00" y2="327" stroke="#94a3b8" stroke-opacity="0.5" stroke-width="1" />
<text x="758.00" y="341" fill="#cbd5f5" font-size="10" text-anchor="middle">12-12</text>
<line x1="930.00" y1="323" x2="930.00" y2="327" stroke="#94a3b8" stroke-opacity="0.5" stroke-width="1" />
<text x="930.00" y="341" fill="#cbd5f5" font-size="10" text-anchor="middle">12-18</text>
<line x1="70" y1="74" x2="70" y2="323" stroke="#94a3b8" stroke-width="1" />
<line x1="70" y1="323" x2="930" y2="323" stroke="#94a3b8" stroke-width="1" />
<path d="M70.00,173.60 L133.70,248.30 L165.56,273.20 L197.41,223.40 L229.26,123.80 L261.11,173.60 L292.96,248.30 L420.37,173.60 L484.07,198.50 L515.93,223.40 L547.78,198.50 L579.63,273.20 L643.33,248.30 L675.19,198.50 L898.15,223.40 L930.00,273.20" fill="none" stroke="#60a5fa" stroke-width="2.2" stroke-linecap="round" />
<circle cx="70.00" cy="173.60" r="3" fill="#60a5fa" stroke="#0f172a" stroke-width="1" />
<text x="70.00" y="163.60" fill="#e2e8f0" font-size="9" text-anchor="middle">25.5</text>
<circle cx="133.70" cy="248.30" r="3" fill="#60a5fa" stroke="#0f172a" stroke-width="1" />
<text x="133.70" y="228.30" fill="#e2e8f0" font-size="9" text-anchor="middle">25.2</text>
<circle cx="165.56" cy="273.20" r="3" fill="#60a5fa" stroke="#0f172a" stroke-width="1" />
<text x="165.56" y="263.20" fill="#e2e8f0" font-size="9" text-anchor="middle">25.1</text>
<circle cx="197.41" cy="223.40" r="3" fill="#60a5fa" stroke="#0f172a" stroke-width="1" />
<text x="197.41" y="203.40" fill="#e2e8f0" font-size="9" text-anchor="middle">25.3</text>
<circle cx="229.26" cy="123.80" r="3" fill="#60a5fa" stroke="#0f172a" stroke-width="1" />
<text x="229.26" y="113.80" fill="#e2e8f0" font-size="9" text-anchor="middle">25.7</text>
<circle cx="261.11" cy="173.60" r="3" fill="#60a5fa" stroke="#0f172a" stroke-width="1" />
<text x="261.11" y="153.60" fill="#e2e8f0" font-size="9" text-anchor="middle">25.5</text>
<circle cx="292.96" cy="248.30" r="3" fill="#60a5fa" stroke="#0f172a" stroke-width="1" />
<text x="292.96" y="238.30" fill="#e2e8f0" font-size="9" text-anchor="middle">25.2</text>
<circle cx="420.37" cy="173.60" r="3" fill="#60a5fa" stroke="#0f172a" stroke-width="1" />
<text x="420.37" y="153.60" fill="#e2e8f0" font-size="9" text-anchor="middle">25.5</text>
<circle cx="484.07" cy="198.50" r="3" fill="#60a5fa" stroke="#0f172a" stroke-width="1" />
<text x="484.07" y="188.50" fill="#e2e8f0" font-size="9" text-anchor="middle">25.4</text>
<circle cx="515.93" cy="223.40" r="3" fill="#60a5fa" stroke="#0f172a" stroke-width="1" />
<text x="515.93" y="203.40" fill="#e2e8f0" font-size="9" text-anchor="middle">25.3</text>
<circle cx="547.78" cy="198.50" r="3" fill="#60a5fa" stroke="#0f172a" stroke-width="1" />
<text x="547.78" y="188.50" fill="#e2e8f0" font-size="9" text-anchor="middle">25.4</text>
<circle cx="579.63" cy="273.20" r="3" fill="#60a5fa" stroke="#0f172a" stroke-width="1" />
<text x="579.63" y="253.20" fill="#e2e8f0" font-size="9" text-anchor="middle">25.1</text>
<circle cx="643.33" cy="248.30" r="3" fill="#60a5fa" stroke="#0f172a" stroke-width="1" />
<text x="643.33" y="238.30" fill="#e2e8f0" font-size="9" text-anchor="middle">25.2</text>
<circle cx="675.19" cy="198.50" r="3" fill="#60a5fa" stroke="#0f172a" stroke-width="1" />
<text x="675.19" y="178.50" fill="#e2e8f0" font-size="9" text-anchor="middle">25.4</text>
<circle cx="898.15" cy="223.40" r="3" fill="#60a5fa" stroke="#0f172a" stroke-width="1" />
<text x="898.15" y="213.40" fill="#e2e8f0" font-size="9" text-anchor="middle">25.3</text>
<circle cx="930.00" cy="273.20" r="3" fill="#60a5fa" stroke="#0f172a" stroke-width="1" />
<text x="930.00" y="253.20" fill="#e2e8f0" font-size="9" text-anchor="middle">25.1</text>
<text x="70" y="403" fill="#e2e8f0" font-size="13" font-weight="600">本年核心指标趋势（滑动7日窗口平均）</text>
<line x1="70" y1="656.00" x2="930" y2="656.00" stroke="#94a3b8" stroke-opacity="0.18" stroke-width="1" />
<text x="62" y="660.00" fill="#cbd5f5" font-size="10" text-anchor="end">24</text>
<line x1="70" y1="593.75" x2="930" y2="593.75" stroke="#94a3b8" stroke-opacity="0.18" stroke-width="1" />
<text x="62" y="597.75" fill="#cbd5f5" font-size="10" text-anchor="end">24.5</text>
<line x1="70" y1="531.50" x2="930" y2="531.50" stroke="#94a3b8" stroke-opacity="0.18" stroke-width="1" />
<text x="62" y="535.50" fill="#cbd5f5" font-size="10" text-anchor="end">25.1</text>
<line x1="70" y1="469.25" x2="930" y2="469.25" stroke="#94a3b8" stroke-opacity="0.18" stroke-width="1" />
<text x="62" y="473.25" fill="#cbd5f5" font-size="10" text-anchor="end">25.6</text>
<line x1="70" y1="407.00" x2="930" y2="407.00" stroke="#94a3b8" stroke-opacity="0.18" stroke-width="1" />
<text x="62" y="411.00" fill="#cbd5f5" font-size="10" text-anchor="end">26.1</text>
<line x1="70.00" y1="656" x2="70.00" y2="660" stroke="#94a3b8" stroke-opacity="0.5" stroke-width="1" />
<text x="70.00" y="674" fill="#cbd5f5" font-size="10" text-anchor="middle">2024-12</text>
<line x1="242.00" y1="656" x2="242.00" y2="660" stroke="#94a3b8" stroke-opacity="0.5" stroke-width="1" />
<text x="242.00" y="674" fill="#cbd5f5" font-size="10" text-anchor="middle">2025-03</text>
<line x1="414.00" y1="656" x2="414.00" y2="660" stroke="#94a3b8" stroke-opacity="0.5" stroke-width="1" />
<text x="414.00" y="674" fill="#cbd5f5" font-size="10" text-anchor="middle">2025-05</text>
<line x1="586.00" y1="656" x2="586.00" y2="660" stroke="#94a3b8" stroke-opacity="0.5" stroke-width="1" />
<text x="586.00" y="674" fill="#cbd5f5" font-size="10" text-anchor="middle">2025-07</text>
<line x1="758.00" y1="656" x2="758.00" y2="660" stroke="#94a3b8" stroke-opacity="0.5" stroke-width="1" />
<text x="758.00" y="674" fill="#cbd5f5" font-size="10" text-anchor="middle">2025-10</text>
<line x1="930.00" y1="656" x2="930.00" y2="660" stroke="#94a3b8" stroke-opacity="0.5" stroke-width="1" />
<text x="930.00" y="674" fill="#cbd5f5" font-size="10" text-anchor="middle">2025-12</text>
<line x1="70" y1="407" x2="70" y2="656" stroke="#94a3b8" stroke-width="1" />
<line x1="70" y1="656" x2="930" y2="656" stroke="#94a3b8" stroke-width="1" />
<path d="M70.00,656.00 L70.00,501.45 L96.42,513.47 L108.44,505.46 L127.65,507.46 L146.87,496.64 L190.11,487.42 L199.72,477.41 L202.12,463.67 L216.54,449.93 L230.95,444.78 L233.35,431.04 L262.18,439.63 L264.58,446.50 L269.39,458.52 L274.19,474.83 L278.99,488.57 L281.40,502.31 L283.80,526.35 L286.20,533.22 L288.60,543.52 L291.01,553.82 L293.41,558.12 L298.21,556.40 L300.61,552.97 L303.02,549.53 L305.42,552.97 L307.82,557.26 L322.23,557.26 L324.64,562.41 L327.04,574.43 L329.44,587.31 L331.84,594.18 L334.25,590.74 L336.65,589.89 L339.05,595.04 L341.45,596.76 L343.85,598.47 L346.26,595.90 L348.66,592.46 L351.06,594.18 L353.46,590.74 L355.87,587.31 L358.27,587.31 L360.67,594.18 L365.47,587.31 L367.88,588.17 L370.28,589.89 L372.68,600.19 L375.08,608.78 L377.49,612.21 L389.50,608.78 L394.30,619.08 L401.51,618.22 L406.31,619.94 L415.92,611.35 L418.32,602.77 L423.13,599.33 L425.53,592.46 L444.75,589.89 L454.36,589.89 L463.97,588.17 L473.58,586.45 L502.40,591.60 L507.21,588.17 L512.01,596.76 L516.82,602.77 L521.62,601.05 L524.02,604.48 L533.63,606.20 L536.03,602.77 L538.44,606.20 L540.84,599.33 L543.24,595.90 L545.64,606.20 L550.45,611.35 L552.85,621.66 L555.25,626.81 L557.65,630.24 L562.46,631.96 L564.86,628.52 L572.07,626.81 L576.87,623.37 L584.08,613.07 L588.88,608.78 L593.69,607.06 L598.49,605.34 L603.30,603.62 L605.70,593.32 L610.50,591.60 L612.91,600.19 L622.51,592.46 L627.32,589.03 L632.12,587.31 L641.73,589.03 L660.95,587.31 L670.56,577.01 L672.96,563.27 L675.36,558.12 L682.57,556.40 L687.37,547.81 L689.78,539.23 L692.18,537.51 L694.58,539.23 L696.98,540.94 L713.80,544.38 L742.63,539.23 L764.25,527.21 L766.65,520.34 L769.05,508.32 L771.45,491.14 L773.85,477.41 L776.26,467.10 L778.66,461.95 L781.06,463.67 L785.87,461.95 L788.27,458.52 L790.67,458.52 L793.07,458.52 L797.88,460.23 L800.28,456.80 L805.08,455.08 L807.49,444.78 L812.29,446.50 L821.90,451.65 L826.70,453.37 L836.31,451.65 L841.12,443.06 L843.52,444.78 L845.92,453.37 L848.32,458.52 L855.53,456.80 L865.14,458.52 L869.94,465.39 L872.35,480.84 L874.75,487.71 L877.15,485.99 L879.55,485.99 L881.96,494.58 L891.56,494.58 L896.37,491.14 L898.77,487.71 L901.17,485.99 L903.58,496.30 L908.38,501.45 L910.78,498.01 L927.60,501.45 L930.00,506.60 L930.00,656.00 Z" fill="#60a5fa" fill-opacity="0.16" stroke="none" />
<path d="M70.00,501.45 L96.42,513.47 L108.44,505.46 L127.65,507.46 L146.87,496.64 L190.11,487.42 L199.72,477.41 L202.12,463.67 L216.54,449.93 L230.95,444.78 L233.35,431.04 L262.18,439.63 L264.58,446.50 L269.39,458.52 L274.19,474.83 L278.99,488.57 L281.40,502.31 L283.80,526.35 L286.20,533.22 L288.60,543.52 L291.01,553.82 L293.41,558.12 L298.21,556.40 L300.61,552.97 L303.02,549.53 L305.42,552.97 L307.82,557.26 L322.23,557.26 L324.64,562.41 L327.04,574.43 L329.44,587.31 L331.84,594.18 L334.25,590.74 L336.65,589.89 L339.05,595.04 L341.45,596.76 L343.85,598.47 L346.26,595.90 L348.66,592.46 L351.06,594.18 L353.46,590.74 L355.87,587.31 L358.27,587.31 L360.67,594.18 L365.47,587.31 L367.88,588.17 L370.28,589.89 L372.68,600.19 L375.08,608.78 L377.49,612.21 L389.50,608.78 L394.30,619.08 L401.51,618.22 L406.31,619.94 L415.92,611.35 L418.32,602.77 L423.13,599.33 L425.53,592.46 L444.75,589.89 L454.36,589.89 L463.97,588.17 L473.58,586.45 L502.40,591.60 L507.21,588.17 L512.01,596.76 L516.82,602.77 L521.62,601.05 L524.02,604.48 L533.63,606.20 L536.03,602.77 L538.44,606.20 L540.84,599.33 L543.24,595.90 L545.64,606.20 L550.45,611.35 L552.85,621.66 L555.25,626.81 L557.65,630.24 L562.46,631.96 L564.86,628.52 L572.07,626.81 L576.87,623.37 L584.08,613.07 L588.88,608.78 L593.69,607.06 L598.49,605.34 L603.30,603.62 L605.70,593.32 L610.50,591.60 L612.91,600.19 L622.51,592.46 L627.32,589.03 L632.12,587.31 L641.73,589.03 L660.95,587.31 L670.56,577.01 L672.96,563.27 L675.36,558.12 L682.57,556.40 L687.37,547.81 L689.78,539.23 L692.18,537.51 L694.58,539.23 L696.98,540.94 L713.80,544.38 L742.63,539.23 L764.25,527.21 L766.65,520.34 L769.05,508.32 L771.45,491.14 L773.85,477.41 L776.26,467.10 L778.66,461.95 L781.06,463.67 L785.87,461.95 L788.27,458.52 L790.67,458.52 L793.07,458.52 L797.88,460.23 L800.28,456.80 L805.08,455.08 L807.49,444.78 L812.29,446.50 L821.90,451.65 L826.70,453.37 L836.31,451.65 L841.12,443.06 L843.52,444.78 L845.92,453.37 L848.32,458.52 L855.53,456.80 L865.14,458.52 L869.94,465.39 L872.35,480.84 L874.75,487.71 L877.15,485.99 L879.55,485.99 L881.96,494.58 L891.56,494.58 L896.37,491.14 L898.77,487.71 L901.17,485.99 L903.58,496.30 L908.38,501.45 L910.78,498.01 L927.60,501.45 L930.00,506.60" fill="none" stroke="#60a5fa" stroke-width="2.2" stroke-linecap="round" />
</svg>
