<svg xmlns="http://www.w3.org/2000/svg" viewBox="0 0 960 640" width="960" height="640">
  <rect width="960" height="640" fill="#0f172a" />
  <line x1="40" y1="40.00" x2="920.00" y2="40.00" stroke="#94a3b8" stroke-opacity="0.18" stroke-width="1" /><line x1="40" y1="128.00" x2="920.00" y2="128.00" stroke="#94a3b8" stroke-opacity="0.18" stroke-width="1" /><line x1="40" y1="216.00" x2="920.00" y2="216.00" stroke="#94a3b8" stroke-opacity="0.18" stroke-width="1" /><line x1="40" y1="304.00" x2="920.00" y2="304.00" stroke="#94a3b8" stroke-opacity="0.18" stroke-width="1" />
  <line x1="40" y1="336.00" x2="920.00" y2="336.00" stroke="#94a3b8" stroke-opacity="0.18" stroke-width="1" /><line x1="40" y1="424.00" x2="920.00" y2="424.00" stroke="#94a3b8" stroke-opacity="0.18" stroke-width="1" /><line x1="40" y1="512.00" x2="920.00" y2="512.00" stroke="#94a3b8" stroke-opacity="0.18" stroke-width="1" /><line x1="40" y1="600.00" x2="920.00" y2="600.00" stroke="#94a3b8" stroke-opacity="0.18" stroke-width="1" />
  <line x1="40" y1="320.00" x2="920.00" y2="320.00" stroke="#1f2937" stroke-width="1" />
  <polyline points="40.00,128.00 98.67,260.00 157.33,304.00 216.00,216.00 274.67,40.00 333.33,128.00 392.00,260.00 450.67,128.00 509.33,172.00 568.00,216.00 626.67,172.00 685.33,304.00 744.00,260.00 802.67,172.00 861.33,216.00 920.00,304.00" fill="none" stroke="#60a5fa" stroke-width="2" stroke-linecap="round" stroke-linejoin="round" />
  <polyline points="40.00,405.95 46.03,412.72 52.05,424.00 58.08,426.26 64.11,419.49 70.14,403.69 76.16,396.92 82.19,378.87 88.22,360.82 94.25,354.05 100.27,336.00 106.30,347.28 112.33,356.31 118.36,372.10 124.38,393.54 130.41,411.59 136.44,429.64 142.47,461.23 148.49,470.26 154.52,483.79 160.55,497.33 166.58,502.97 172.60,500.72 178.63,496.21 184.66,491.69 190.68,496.21 196.71,501.85 202.74,501.85 208.77,508.62 214.79,524.41 220.82,541.33 226.85,550.36 232.88,545.85 238.90,544.72 244.93,551.49 250.96,553.74 256.99,556.00 263.01,552.62 269.04,548.10 275.07,550.36 281.10,545.85 287.12,541.33 293.15,541.33 299.18,550.36 305.21,541.33 311.23,542.46 317.26,544.72 323.29,558.26 329.32,569.54 335.34,574.05 341.37,569.54 347.40,583.08 353.42,581.95 359.45,584.21 365.48,572.92 371.51,561.64 377.53,557.13 383.56,548.10 389.59,544.72 395.62,544.72 401.64,542.46 407.67,540.21 413.70,546.97 419.73,542.46 425.75,553.74 431.78,561.64 437.81,559.38 443.84,563.90 449.86,566.15 455.89,561.64 461.92,566.15 467.95,557.13 473.97,552.62 480.00,566.15 486.03,572.92 492.05,586.46 498.08,593.23 504.11,597.74 510.14,600.00 516.16,595.49 522.19,593.23 528.22,588.72 534.25,575.18 540.27,569.54 546.30,567.28 552.33,565.03 558.36,562.77 564.38,549.23 570.41,546.97 576.44,558.26 582.47,548.10 588.49,543.59 594.52,541.33 600.55,543.59 606.58,541.33 612.60,527.79 618.63,509.74 624.66,502.97 630.68,500.72 636.71,489.44 642.74,478.15 648.77,475.90 654.79,478.15 660.82,480.41 666.85,484.92 672.88,478.15 678.90,462.36 684.93,453.33 690.96,437.54 696.99,414.97 703.01,396.92 709.04,383.38 715.07,376.62 721.10,378.87 727.12,376.62 733.15,372.10 739.18,372.10 745.21,372.10 751.23,374.36 757.26,369.85 763.29,367.59 769.32,354.05 775.34,356.31 781.37,363.08 787.40,365.33 793.42,363.08 799.45,351.79 805.48,354.05 811.51,365.33 817.53,372.10 823.56,369.85 829.59,372.10 835.62,381.13 841.64,401.44 847.67,410.46 853.70,408.21 859.73,408.21 865.75,419.49 871.78,419.49 877.81,414.97 883.84,410.46 889.86,408.21 895.89,421.74 901.92,428.51 907.95,424.00 913.97,428.51 920.00,435.28" fill="none" stroke="#60a5fa" stroke-width="2" stroke-linecap="round" stroke-linejoin="round" />
  
  
  </svg>