<svg xmlns="http://www.w3.org/2000/svg" viewBox="0 0 960 720" width="960" height="720">
<rect width="960" height="720" fill="#0f172a" />
<text x="480" y="28" fill="#e2e8f0" font-size="16" font-weight="700" text-anchor="middle">去脂体重趋势图</text>
<text x="70" y="70" fill="#e2e8f0" font-size="13" font-weight="600">本月分天指标明细</text>
<line x1="70" y1="323.00" x2="930" y2="323.00" stroke="#94a3b8" stroke-opacity="0.18" stroke-width="1" />
<text x="62" y="327.00" fill="#cbd5f5" font-size="10" text-anchor="end">59.1</text>
<line x1="70" y1="260.75" x2="930" y2="260.75" stroke="#94a3b8" stroke-opacity="0.18" stroke-width="1" />
<text x="62" y="264.75" fill="#cbd5f5" font-size="10" text-anchor="end">59.4</text>
<line x1="70" y1="198.50" x2="930" y2="198.50" stroke="#94a3b8" stroke-opacity="0.18" stroke-width="1" />
<text x="62" y="202.50" fill="#cbd5f5" font-size="10" text-anchor="end">59.8</text>
<line x1="70" y1="136.25" x2="930" y2="136.25" stroke="#94a3b8" stroke-opacity="0.18" stroke-width="1" />
<text x="62" y="140.25" fill="#cbd5f5" font-size="10" text-anchor="end">60.1</text>
<line x1="70" y1="74.00" x2="930" y2="74.00" stroke="#94a3b8" stroke-opacity="0.18" stroke-width="1" />
<text x="62" y="78.00" fill="#cbd5f5" font-size="10" text-anchor="end">60.5</text>
<line x1="70.00" y1="323" x2="70.00" y2="327" stroke="#94a3b8" stroke-opacity="0.5" stroke-width="1" />
<text x="70.00" y="341" fill="#cbd5f5" font-size="10" text-anchor="middle">11-23</text>
<line x1="242.00" y1="323" x2="242.00" y2="327" stroke="#94a3b8" stroke-opacity="0.5" stroke-width="1" />
<text x="242.00" y="341" fill="#cbd5f5" font-size="10" text-anchor="middle">11-28</text>
<line x1="414.00" y1="323" x2="414.00" y2="327" stroke="#94a3b8" stroke-opacity="0.5" stroke-width="1" />
<text x="414.00" y="341" fill="#cbd5f5" font-size="10" text-anchor="middle">12-04</text>
<line x1="586.00" y1="323" x2="586.00" y2="327" stroke="#94a3b8" stroke-opacity="0.5" stroke-width="1" />
<text x="586.00" y="341" fill="#cbd5f5" font-size="10" text-anchor="middle">12-09</text>
<line x1="758.00" y1="323" x2="758.00" y2="327" stroke="#94a3b8" stroke-opacity="0.5" stroke-width="1" />
<text x="758.00" y="341" fill="#cbd5f5" font-size="10" text-anchor="middle">12-15</text>
<line x1="930.00" y1="323" x2="930.00" y2="327" stroke="#94a3b8" stroke-opacity="0.5" stroke-width="1" />
<text x="930.00" y="341" fill="#cbd5f5" font-size="10" text-anchor="middle">12-21</text>
<line x1="70" y1="74" x2="70" y2="323" stroke="#94a3b8" stroke-width="1" />
<line x1="70" y1="323" x2="930" y2="323" stroke="#94a3b8" stroke-width="1" />
<path d="M70.00,287.43 L100.71,269.64 L131.43,198.50 L162.14,109.57 L192.86,180.71 L223.57,269.64 L346.43,180.71 L407.86,216.29 L438.57,234.07 L469.29,251.86 L500.00,287.43 L561.43,251.86 L592.14,180.71 L807.14,234.07 L837.86,269.64 L899.29,234.07 L930.00,269.64" fill="none" stroke="#60a5fa" stroke-width="2.2" stroke-linecap="round" />
<circle cx="70.00" cy="287.43" r="3" fill="#60a5fa" stroke="#0f172a" stroke-width="1" />
<text x="70.00" y="277.43" fill="#e2e8f0" font-size="9" text-anchor="middle">59.3</text>
<circle cx="100.71" cy="269.64" r="3" fill="#60a5fa" stroke="#0f172a" stroke-width="1" />
<text x="100.71" y="249.64" fill="#e2e8f0" font-size="9" text-anchor="middle">59.4</text>
<circle cx="131.43" cy="198.50" r="3" fill="#60a5fa" stroke="#0f172a" stroke-width="1" />
<text x="131.43" y="188.50" fill="#e2e8f0" font-size="9" text-anchor="middle">59.8</text>
<circle cx="162.14" cy="109.57" r="3" fill="#60a5fa" stroke="#0f172a" stroke-width="1" />
<text x="162.14" y="89.57" fill="#e2e8f0" font-size="9" text-anchor="middle">60.3</text>
<circle cx="192.86" cy="180.71" r="3" fill="#60a5fa" stroke="#0f172a" stroke-width="1" />
<text x="192.86" y="170.71" fill="#e2e8f0" font-size="9" text-anchor="middle">59.9</text>
<circle cx="223.57" cy="269.64" r="3" fill="#60a5fa" stroke="#0f172a" stroke-width="1" />
<text x="223.57" y="249.64" fill="#e2e8f0" font-size="9" text-anchor="middle">59.4</text>
<circle cx="346.43" cy="180.71" r="3" fill="#60a5fa" stroke="#0f172a" stroke-width="1" />
<text x="346.43" y="170.71" fill="#e2e8f0" font-size="9" text-anchor="middle">59.9</text>
<circle cx="407.86" cy="216.29" r="3" fill="#60a5fa" stroke="#0f172a" stroke-width="1" />
<text x="407.86" y="196.29" fill="#e2e8f0" font-size="9" text-anchor="middle">59.7</text>
<circle cx="438.57" cy="234.07" r="3" fill="#60a5fa" stroke="#0f172a" stroke-width="1" />
<text x="438.57" y="224.07" fill="#e2e8f0" font-size="9" text-anchor="middle">59.6</text>
<circle cx="469.29" cy="251.86" r="3" fill="#60a5fa" stroke="#0f172a" stroke-width="1" />
<text x="469.29" y="231.86" fill="#e2e8f0" font-size="9" text-anchor="middle">59.5</text>
<circle cx="500.00" cy="287.43" r="3" fill="#60a5fa" stroke="#0f172a" stroke-width="1" />
<text x="500.00" y="277.43" fill="#e2e8f0" font-size="9" text-anchor="middle">59.3</text>
<circle cx="561.43" cy="251.86" r="3" fill="#60a5fa" stroke="#0f172a" stroke-width="1" />
<text x="561.43" y="231.86" fill="#e2e8f0" font-size="9" text-anchor="middle">59.5</text>
<circle cx="592.14" cy="180.71" r="3" fill="#60a5fa" stroke="#0f172a" stroke-width="1" />
<text x="592.14" y="170.71" fill="#e2e8f0" font-size="9" text-anchor="middle">59.9</text>
<circle cx="807.14" cy="234.07" r="3" fill="#60a5fa" stroke="#0f172a" stroke-width="1" />
<text x="807.14" y="214.07" fill="#e2e8f0" font-size="9" text-anchor="middle">59.6</text>
<circle cx="837.86" cy="269.64" r="3" fill="#60a5fa" stroke="#0f172a" stroke-width="1" />
<text x="837.86" y="259.64" fill="#e2e8f0" font-size="9" text-anchor="middle">59.4</text>
<circle cx="899.29" cy="234.07" r="3" fill="#60a5fa" stroke="#0f172a" stroke-width="1" />
<text x="899.29" y="214.07" fill="#e2e8f0" font-size="9" text-anchor="middle">59.6</text>
<circle cx="930.00" cy="269.64" r="3" fill="#60a5fa" stroke="#0f172a" stroke-width="1" />
<text x="930.00" y="259.64" fill="#e2e8f0" font-size="9" text-anchor="middle">59.4</text>
<text x="70" y="403" fill="#e2e8f0" font-size="13" font-weight="600">本年核心指标趋势（滑动7日窗口平均）</text>
<line x1="70" y1="656.00" x2="930" y2="656.00" stroke="#94a3b8" stroke-opacity="0.18" stroke-width="1" />
<text x="62" y="660.00" fill="#cbd5f5" font-size="10" text-anchor="end">58.3</text>
<line x1="70" y1="593.75" x2="930" y2="593.75" stroke="#94a3b8" stroke-opacity="0.18" stroke-width="1" />
<text x="62" y="597.75" fill="#cbd5f5" font-size="10" text-anchor="end">58.8</text>
<line x1="70" y1="531.50" x2="930" y2="531.50" stroke="#94a3b8" stroke-opacity="0.18" stroke-width="1" />
<text x="62" y="535.50" fill="#cbd5f5" font-size="10" text-anchor="end">59.4</text>
<line x1="70" y1="469.25" x2="930" y2="469.25" stroke="#94a3b8" stroke-opacity="0.18" stroke-width="1" />
<text x="62" y="473.25" fill="#cbd5f5" font-size="10" text-anchor="end">60</text>
<line x1="70" y1="407.00" x2="930" y2="407.00" stroke="#94a3b8" stroke-opacity="0.18" stroke-width="1" />
<text x="62" y="411.00" fill="#cbd5f5" font-size="10" text-anchor="end">60.6</text>
<line x1="70.00" y1="656" x2="70.00" y2="660" stroke="#94a3b8" stroke-opacity="0.5" stroke-width="1" />
<text x="70.00" y="674" fill="#cbd5f5" font-size="10" text-anchor="middle">2025-01</text>
<line x1="242.00" y1="656" x2="242.00" y2="660" stroke="#94a3b8" stroke-opacity="0.5" stroke-width="1" />
<text x="242.00" y="674" fill="#cbd5f5" font-size="10" text-anchor="middle">2025-04</text>
<line x1="414.00" y1="656" x2="414.00" y2="660" stroke="#94a3b8" stroke-opacity="0.5" stroke-width="1" />
<text x="414.00" y="674" fill="#cbd5f5" font-size="10" text-anchor="middle">2025-06</text>
<line x1="586.00" y1="656" x2="586.00" y2="660" stroke="#94a3b8" stroke-opacity="0.5" stroke-width="1" />
<text x="586.00" y="674" fill="#cbd5f5" font-size="10" text-anchor="middle">2025-08</text>
<line x1="758.00" y1="656" x2="758.00" y2="660" stroke="#94a3b8" stroke-opacity="0.5" stroke-width="1" />
<text x="758.00" y="674" fill="#cbd5f5" font-size="10" text-anchor="middle">2025-10</text>
<line x1="930.00" y1="656" x2="930.00" y2="660" stroke="#94a3b8" stroke-opacity="0.5" stroke-width="1" />
<text x="930.00" y="674" fill="#cbd5f5" font-size="10" text-anchor="middle">2025-12</text>
<line x1="70" y1="407" x2="70" y2="656" stroke="#94a3b8" stroke-width="1" />
<line x1="70" y1="656" x2="930" y2="656" stroke="#94a3b8" stroke-width="1" />
<path d="M70.00,656.00 L70.00,458.04 L117.05,452.62 L127.51,443.60 L130.12,430.97 L145.81,434.22 L161.49,430.97 L164.10,428.65 L195.47,439.48 L203.31,484.33 L208.54,496.70 L213.77,516.81 L216.38,535.37 L219.00,577.90 L221.61,602.64 L224.22,610.38 L226.84,582.54 L229.45,585.63 L234.68,580.99 L237.29,573.26 L239.91,555.47 L242.52,560.11 L245.14,563.20 L260.82,564.75 L263.43,572.48 L266.05,584.86 L268.66,598.00 L271.28,599.55 L273.89,585.63 L276.50,580.99 L279.12,585.63 L281.73,587.18 L284.35,590.27 L286.96,587.95 L289.57,586.40 L292.19,591.04 L294.80,586.40 L297.42,580.22 L300.03,578.67 L302.64,587.18 L307.87,577.90 L310.49,575.58 L313.10,575.58 L315.71,589.50 L318.33,617.34 L320.94,621.98 L334.01,613.47 L347.08,619.66 L352.31,621.98 L362.77,623.52 L365.38,615.79 L370.61,591.04 L373.22,581.76 L394.13,575.58 L404.59,574.03 L415.05,577.12 L425.50,574.03 L456.87,575.58 L462.10,572.48 L467.33,583.31 L472.55,589.50 L477.78,589.50 L480.40,589.50 L490.85,591.04 L493.47,587.95 L496.08,592.59 L498.69,589.50 L501.31,591.04 L503.92,603.42 L509.15,612.70 L511.76,623.52 L514.38,631.25 L516.99,634.35 L522.22,632.80 L524.83,631.25 L532.67,625.07 L537.90,615.79 L545.74,606.51 L550.97,603.42 L556.20,600.32 L561.43,600.32 L566.66,592.59 L569.27,583.31 L574.50,587.95 L577.11,598.78 L587.57,587.95 L592.80,587.95 L598.02,587.95 L608.48,597.23 L629.39,598.78 L639.85,580.22 L642.46,561.66 L645.08,560.11 L652.92,557.02 L658.15,543.10 L660.76,529.18 L663.37,526.09 L665.99,530.73 L668.60,538.46 L686.90,540.01 L718.27,535.37 L741.79,524.54 L744.41,522.99 L747.02,509.07 L749.64,484.33 L752.25,465.77 L754.86,456.49 L757.48,450.30 L760.09,453.40 L765.32,448.76 L767.93,447.21 L770.55,453.40 L773.16,454.94 L778.39,459.58 L781.00,459.58 L786.23,458.04 L788.84,445.66 L804.53,451.85 L809.76,458.04 L820.21,464.22 L825.44,447.21 L828.05,441.02 L830.67,447.21 L833.28,459.58 L841.12,454.94 L851.58,459.58 L856.81,467.32 L859.42,488.97 L862.04,493.61 L864.65,487.42 L867.26,487.42 L869.88,501.34 L880.33,499.80 L885.56,493.61 L888.18,490.52 L890.79,495.16 L893.40,510.62 L898.63,516.81 L901.25,509.07 L919.54,513.71 L922.16,518.35 L927.39,518.35 L930.00,519.90 L930.00,656.00 Z" fill="#60a5fa" fill-opacity="0.16" stroke="none" />
<path d="M70.00,458.04 L117.05,452.62 L127.51,443.60 L130.12,430.97 L145.81,434.22 L161.49,430.97 L164.10,428.65 L195.47,439.48 L203.31,484.33 L208.54,496.70 L213.77,516.81 L216.38,535.37 L219.00,577.90 L221.61,602.64 L224.22,610.38 L226.84,582.54 L229.45,585.63 L234.68,580.99 L237.29,573.26 L239.91,555.47 L242.52,560.11 L245.14,563.20 L260.82,564.75 L263.43,572.48 L266.05,584.86 L268.66,598.00 L271.28,599.55 L273.89,585.63 L276.50,580.99 L279.12,585.63 L281.73,587.18 L284.35,590.27 L286.96,587.95 L289.57,586.40 L292.19,591.04 L294.80,586.40 L297.42,580.22 L300.03,578.67 L302.64,587.18 L307.87,577.90 L310.49,575.58 L313.10,575.58 L315.71,589.50 L318.33,617.34 L320.94,621.98 L334.01,613.47 L347.08,619.66 L352.31,621.98 L362.77,623.52 L365.38,615.79 L370.61,591.04 L373.22,581.76 L394.13,575.58 L404.59,574.03 L415.05,577.12 L425.50,574.03 L456.87,575.58 L462.10,572.48 L467.33,583.31 L472.55,589.50 L477.78,589.50 L480.40,589.50 L490.85,591.04 L493.47,587.95 L496.08,592.59 L498.69,589.50 L501.31,591.04 L503.92,603.42 L509.15,612.70 L511.76,623.52 L514.38,631.25 L516.99,634.35 L522.22,632.80 L524.83,631.25 L532.67,625.07 L537.90,615.79 L545.74,606.51 L550.97,603.42 L556.20,600.32 L561.43,600.32 L566.66,592.59 L569.27,583.31 L574.50,587.95 L577.11,598.78 L587.57,587.95 L592.80,587.95 L598.02,587.95 L608.48,597.23 L629.39,598.78 L639.85,580.22 L642.46,561.66 L645.08,560.11 L652.92,557.02 L658.15,543.10 L660.76,529.18 L663.37,526.09 L665.99,530.73 L668.60,538.46 L686.90,540.01 L718.27,535.37 L741.79,524.54 L744.41,522.99 L747.02,509.07 L749.64,484.33 L752.25,465.77 L754.86,456.49 L757.48,450.30 L760.09,453.40 L765.32,448.76 L767.93,447.21 L770.55,453.40 L773.16,454.94 L778.39,459.58 L781.00,459.58 L786.23,458.04 L788.84,445.66 L804.53,451.85 L809.76,458.04 L820.21,464.22 L825.44,447.21 L828.05,441.02 L830.67,447.21 L833.28,459.58 L841.12,454.94 L851.58,459.58 L856.81,467.32 L859.42,488.97 L862.04,493.61 L864.65,487.42 L867.26,487.42 L869.88,501.34 L880.33,499.80 L885.56,493.61 L888.18,490.52 L890.79,495.16 L893.40,510.62 L898.63,516.81 L901.25,509.07 L919.54,513.71 L922.16,518.35 L927.39,518.35 L930.00,519.90" fill="none" stroke="#60a5fa" stroke-width="2.2" stroke-linecap="round" />
</svg>
