<svg xmlns="http://www.w3.org/2000/svg" viewBox="0 0 960 720" width="960" height="720">
<rect width="960" height="720" fill="#0f172a" />
<text x="480" y="28" fill="#e2e8f0" font-size="16" font-weight="700" text-anchor="middle">BMI趋势图</text>
<text x="70" y="70" fill="#e2e8f0" font-size="13" font-weight="600">本月分天指标明细</text>
<line x1="70" y1="323.00" x2="930" y2="323.00" stroke="#94a3b8" stroke-opacity="0.18" stroke-width="1" />
<text x="62" y="327.00" fill="#cbd5f5" font-size="10" text-anchor="end">24.8</text>
<line x1="70" y1="260.75" x2="930" y2="260.75" stroke="#94a3b8" stroke-opacity="0.18" stroke-width="1" />
<text x="62" y="264.75" fill="#cbd5f5" font-size="10" text-anchor="end">25.1</text>
<line x1="70" y1="198.50" x2="930" y2="198.50" stroke="#94a3b8" stroke-opacity="0.18" stroke-width="1" />
<text x="62" y="202.50" fill="#cbd5f5" font-size="10" text-anchor="end">25.4</text>
<line x1="70" y1="136.25" x2="930" y2="136.25" stroke="#94a3b8" stroke-opacity="0.18" stroke-width="1" />
<text x="62" y="140.25" fill="#cbd5f5" font-size="10" text-anchor="end">25.6</text>
<line x1="70" y1="74.00" x2="930" y2="74.00" stroke="#94a3b8" stroke-opacity="0.18" stroke-width="1" />
<text x="62" y="78.00" fill="#cbd5f5" font-size="10" text-anchor="end">25.9</text>
<line x1="70.00" y1="323" x2="70.00" y2="327" stroke="#94a3b8" stroke-opacity="0.5" stroke-width="1" />
<text x="70.00" y="341" fill="#cbd5f5" font-size="10" text-anchor="middle">11-23</text>
<line x1="242.00" y1="323" x2="242.00" y2="327" stroke="#94a3b8" stroke-opacity="0.5" stroke-width="1" />
<text x="242.00" y="341" fill="#cbd5f5" font-size="10" text-anchor="middle">11-28</text>
<line x1="414.00" y1="323" x2="414.00" y2="327" stroke="#94a3b8" stroke-opacity="0.5" stroke-width="1" />
<text x="414.00" y="341" fill="#cbd5f5" font-size="10" text-anchor="middle">12-04</text>
<line x1="586.00" y1="323" x2="586.00" y2="327" stroke="#94a3b8" stroke-opacity="0.5" stroke-width="1" />
<text x="586.00" y="341" fill="#cbd5f5" font-size="10" text-anchor="middle">12-09</text>
<line x1="758.00" y1="323" x2="758.00" y2="327" stroke="#94a3b8" stroke-opacity="0.5" stroke-width="1" />
<text x="758.00" y="341" fill="#cbd5f5" font-size="10" text-anchor="middle">12-15</text>
<line x1="930.00" y1="323" x2="930.00" y2="327" stroke="#94a3b8" stroke-opacity="0.5" stroke-width="1" />
<text x="930.00" y="341" fill="#cbd5f5" font-size="10" text-anchor="middle">12-21</text>
<line x1="70" y1="74" x2="70" y2="323" stroke="#94a3b8" stroke-width="1" />
<line x1="70" y1="323" x2="930" y2="323" stroke="#94a3b8" stroke-width="1" />
<path d="M70.00,232.45 L100.71,255.09 L131.43,209.82 L162.14,119.27 L192.86,164.55 L223.57,232.45 L346.43,164.55 L407.86,187.18 L438.57,209.82 L469.29,187.18 L500.00,255.09 L561.43,232.45 L592.14,187.18 L807.14,209.82 L837.86,255.09 L899.29,209.82 L930.00,277.73" fill="none" stroke="#60a5fa" stroke-width="2.2" stroke-linecap="round" />
<circle cx="70.00" cy="232.45" r="3" fill="#60a5fa" stroke="#0f172a" stroke-width="1" />
<text x="70.00" y="222.45" fill="#e2e8f0" font-size="9" text-anchor="middle">25.2</text>
<circle cx="100.71" cy="255.09" r="3" fill="#60a5fa" stroke="#0f172a" stroke-width="1" />
<text x="100.71" y="235.09" fill="#e2e8f0" font-size="9" text-anchor="middle">25.1</text>
<circle cx="131.43" cy="209.82" r="3" fill="#60a5fa" stroke="#0f172a" stroke-width="1" />
<text x="131.43" y="199.82" fill="#e2e8f0" font-size="9" text-anchor="middle">25.3</text>
<circle cx="162.14" cy="119.27" r="3" fill="#60a5fa" stroke="#0f172a" stroke-width="1" />
<text x="162.14" y="99.27" fill="#e2e8f0" font-size="9" text-anchor="middle">25.7</text>
<circle cx="192.86" cy="164.55" r="3" fill="#60a5fa" stroke="#0f172a" stroke-width="1" />
<text x="192.86" y="154.55" fill="#e2e8f0" font-size="9" text-anchor="middle">25.5</text>
<circle cx="223.57" cy="232.45" r="3" fill="#60a5fa" stroke="#0f172a" stroke-width="1" />
<text x="223.57" y="212.45" fill="#e2e8f0" font-size="9" text-anchor="middle">25.2</text>
<circle cx="346.43" cy="164.55" r="3" fill="#60a5fa" stroke="#0f172a" stroke-width="1" />
<text x="346.43" y="154.55" fill="#e2e8f0" font-size="9" text-anchor="middle">25.5</text>
<circle cx="407.86" cy="187.18" r="3" fill="#60a5fa" stroke="#0f172a" stroke-width="1" />
<text x="407.86" y="167.18" fill="#e2e8f0" font-size="9" text-anchor="middle">25.4</text>
<circle cx="438.57" cy="209.82" r="3" fill="#60a5fa" stroke="#0f172a" stroke-width="1" />
<text x="438.57" y="199.82" fill="#e2e8f0" font-size="9" text-anchor="middle">25.3</text>
<circle cx="469.29" cy="187.18" r="3" fill="#60a5fa" stroke="#0f172a" stroke-width="1" />
<text x="469.29" y="167.18" fill="#e2e8f0" font-size="9" text-anchor="middle">25.4</text>
<circle cx="500.00" cy="255.09" r="3" fill="#60a5fa" stroke="#0f172a" stroke-width="1" />
<text x="500.00" y="245.09" fill="#e2e8f0" font-size="9" text-anchor="middle">25.1</text>
<circle cx="561.43" cy="232.45" r="3" fill="#60a5fa" stroke="#0f172a" stroke-width="1" />
<text x="561.43" y="212.45" fill="#e2e8f0" font-size="9" text-anchor="middle">25.2</text>
<circle cx="592.14" cy="187.18" r="3" fill="#60a5fa" stroke="#0f172a" stroke-width="1" />
<text x="592.14" y="177.18" fill="#e2e8f0" font-size="9" text-anchor="middle">25.4</text>
<circle cx="807.14" cy="209.82" r="3" fill="#60a5fa" stroke="#0f172a" stroke-width="1" />
<text x="807.14" y="189.82" fill="#e2e8f0" font-size="9" text-anchor="middle">25.3</text>
<circle cx="837.86" cy="255.09" r="3" fill="#60a5fa" stroke="#0f172a" stroke-width="1" />
<text x="837.86" y="245.09" fill="#e2e8f0" font-size="9" text-anchor="middle">25.1</text>
<circle cx="899.29" cy="209.82" r="3" fill="#60a5fa" stroke="#0f172a" stroke-width="1" />
<text x="899.29" y="189.82" fill="#e2e8f0" font-size="9" text-anchor="middle">25.3</text>
<circle cx="930.00" cy="277.73" r="3" fill="#60a5fa" stroke="#0f172a" stroke-width="1" />
<text x="930.00" y="267.73" fill="#e2e8f0" font-size="9" text-anchor="middle">25</text>
<text x="70" y="403" fill="#e2e8f0" font-size="13" font-weight="600">本年核心指标趋势（滑动7日窗口平均）</text>
<line x1="70" y1="656.00" x2="930" y2="656.00" stroke="#94a3b8" stroke-opacity="0.18" stroke-width="1" />
<text x="62" y="660.00" fill="#cbd5f5" font-size="10" text-anchor="end">24</text>
<line x1="70" y1="593.75" x2="930" y2="593.75" stroke="#94a3b8" stroke-opacity="0.18" stroke-width="1" />
<text x="62" y="597.75" fill="#cbd5f5" font-size="10" text-anchor="end">24.5</text>
<line x1="70" y1="531.50" x2="930" y2="531.50" stroke="#94a3b8" stroke-opacity="0.18" stroke-width="1" />
<text x="62" y="535.50" fill="#cbd5f5" font-size="10" text-anchor="end">25.1</text>
<line x1="70" y1="469.25" x2="930" y2="469.25" stroke="#94a3b8" stroke-opacity="0.18" stroke-width="1" />
<text x="62" y="473.25" fill="#cbd5f5" font-size="10" text-anchor="end">25.6</text>
<line x1="70" y1="407.00" x2="930" y2="407.00" stroke="#94a3b8" stroke-opacity="0.18" stroke-width="1" />
<text x="62" y="411.00" fill="#cbd5f5" font-size="10" text-anchor="end">26.1</text>
<line x1="70.00" y1="656" x2="70.00" y2="660" stroke="#94a3b8" stroke-opacity="0.5" stroke-width="1" />
<text x="70.00" y="674" fill="#cbd5f5" font-size="10" text-anchor="middle">2024-12</text>
<line x1="242.00" y1="656" x2="242.00" y2="660" stroke="#94a3b8" stroke-opacity="0.5" stroke-width="1" />
<text x="242.00" y="674" fill="#cbd5f5" font-size="10" text-anchor="middle">2025-03</text>
<line x1="414.00" y1="656" x2="414.00" y2="660" stroke="#94a3b8" stroke-opacity="0.5" stroke-width="1" />
<text x="414.00" y="674" fill="#cbd5f5" font-size="10" text-anchor="middle">2025-05</text>
<line x1="586.00" y1="656" x2="586.00" y2="660" stroke="#94a3b8" stroke-opacity="0.5" stroke-width="1" />
<text x="586.00" y="674" fill="#cbd5f5" font-size="10" text-anchor="middle">2025-07</text>
<line x1="758.00" y1="656" x2="758.00" y2="660" stroke="#94a3b8" stroke-opacity="0.5" stroke-width="1" />
<text x="758.00" y="674" fill="#cbd5f5" font-size="10" text-anchor="middle">2025-10</text>
<line x1="930.00" y1="656" x2="930.00" y2="660" stroke="#94a3b8" stroke-opacity="0.5" stroke-width="1" />
<text x="930.00" y="674" fill="#cbd5f5" font-size="10" text-anchor="middle">2025-12</text>
<line x1="70" y1="407" x2="70" y2="656" stroke="#94a3b8" stroke-width="1" />
<line x1="70" y1="656" x2="930" y2="656" stroke="#94a3b8" stroke-width="1" />
<path d="M70.00,656.00 L70.00,501.45 L96.20,513.47 L108.12,505.46 L127.17,507.46 L146.23,496.64 L189.11,487.42 L198.64,477.41 L201.02,463.67 L215.32,449.93 L229.61,444.78 L231.99,431.04 L260.58,439.63 L262.96,446.50 L267.73,458.52 L272.49,474.83 L277.26,488.57 L279.64,502.31 L282.02,526.35 L284.40,533.22 L286.79,543.52 L289.17,553.82 L291.55,558.12 L296.32,556.40 L298.70,552.97 L301.08,549.53 L303.46,552.97 L305.84,557.26 L320.14,557.26 L322.52,562.41 L324.90,574.43 L327.29,587.31 L329.67,594.18 L332.05,590.74 L334.43,589.89 L336.81,595.04 L339.20,596.76 L341.58,598.47 L343.96,595.90 L346.34,592.46 L348.73,594.18 L351.11,590.74 L353.49,587.31 L355.87,587.31 L358.25,594.18 L363.02,587.31 L365.40,588.17 L367.78,589.89 L370.17,600.19 L372.55,608.78 L374.93,612.21 L386.84,608.78 L391.61,619.08 L398.75,618.22 L403.52,619.94 L413.05,611.35 L415.43,602.77 L420.19,599.33 L422.58,592.46 L441.63,589.89 L451.16,589.89 L460.69,588.17 L470.22,586.45 L498.81,591.60 L503.57,588.17 L508.34,596.76 L513.10,602.77 L517.87,601.05 L520.25,604.48 L529.78,606.20 L532.16,602.77 L534.54,606.20 L536.93,599.33 L539.31,595.90 L541.69,606.20 L546.45,611.35 L548.84,621.66 L551.22,626.81 L553.60,630.24 L558.37,631.96 L560.75,628.52 L567.89,626.81 L572.66,623.37 L579.81,613.07 L584.57,608.78 L589.34,607.06 L594.10,605.34 L598.86,603.62 L601.25,593.32 L606.01,591.60 L608.39,600.19 L617.92,592.46 L622.69,589.03 L627.45,587.31 L636.98,589.03 L656.04,587.31 L665.57,577.01 L667.95,563.27 L670.33,558.12 L677.48,556.40 L682.24,547.81 L684.63,539.23 L687.01,537.51 L689.39,539.23 L691.77,540.94 L708.45,544.38 L737.04,539.23 L758.48,527.21 L760.86,520.34 L763.24,508.32 L765.62,491.14 L768.01,477.41 L770.39,467.10 L772.77,461.95 L775.15,463.67 L779.92,461.95 L782.30,458.52 L784.68,458.52 L787.06,458.52 L791.83,460.23 L794.21,456.80 L798.98,455.08 L801.36,444.78 L806.12,446.50 L815.65,451.65 L820.42,453.37 L829.94,451.65 L834.71,443.06 L837.09,444.78 L839.47,453.37 L841.86,458.52 L849.00,456.80 L858.53,458.52 L863.30,465.39 L865.68,480.84 L868.06,487.71 L870.44,485.99 L872.83,485.99 L875.21,494.58 L884.74,494.58 L889.50,491.14 L891.88,487.71 L894.27,485.99 L896.65,496.30 L901.41,501.45 L903.80,498.01 L920.47,501.45 L922.85,506.60 L927.62,506.60 L930.00,513.47 L930.00,656.00 Z" fill="#60a5fa" fill-opacity="0.16" stroke="none" />
<path d="M70.00,501.45 L96.20,513.47 L108.12,505.46 L127.17,507.46 L146.23,496.64 L189.11,487.42 L198.64,477.41 L201.02,463.67 L215.32,449.93 L229.61,444.78 L231.99,431.04 L260.58,439.63 L262.96,446.50 L267.73,458.52 L272.49,474.83 L277.26,488.57 L279.64,502.31 L282.02,526.35 L284.40,533.22 L286.79,543.52 L289.17,553.82 L291.55,558.12 L296.32,556.40 L298.70,552.97 L301.08,549.53 L303.46,552.97 L305.84,557.26 L320.14,557.26 L322.52,562.41 L324.90,574.43 L327.29,587.31 L329.67,594.18 L332.05,590.74 L334.43,589.89 L336.81,595.04 L339.20,596.76 L341.58,598.47 L343.96,595.90 L346.34,592.46 L348.73,594.18 L351.11,590.74 L353.49,587.31 L355.87,587.31 L358.25,594.18 L363.02,587.31 L365.40,588.17 L367.78,589.89 L370.17,600.19 L372.55,608.78 L374.93,612.21 L386.84,608.78 L391.61,619.08 L398.75,618.22 L403.52,619.94 L413.05,611.35 L415.43,602.77 L420.19,599.33 L422.58,592.46 L441.63,589.89 L451.16,589.89 L460.69,588.17 L470.22,586.45 L498.81,591.60 L503.57,588.17 L508.34,596.76 L513.10,602.77 L517.87,601.05 L520.25,604.48 L529.78,606.20 L532.16,602.77 L534.54,606.20 L536.93,599.33 L539.31,595.90 L541.69,606.20 L546.45,611.35 L548.84,621.66 L551.22,626.81 L553.60,630.24 L558.37,631.96 L560.75,628.52 L567.89,626.81 L572.66,623.37 L579.81,613.07 L584.57,608.78 L589.34,607.06 L594.10,605.34 L598.86,603.62 L601.25,593.32 L606.01,591.60 L608.39,600.19 L617.92,592.46 L622.69,589.03 L627.45,587.31 L636.98,589.03 L656.04,587.31 L665.57,577.01 L667.95,563.27 L670.33,558.12 L677.48,556.40 L682.24,547.81 L684.63,539.23 L687.01,537.51 L689.39,539.23 L691.77,540.94 L708.45,544.38 L737.04,539.23 L758.48,527.21 L760.86,520.34 L763.24,508.32 L765.62,491.14 L768.01,477.41 L770.39,467.10 L772.77,461.95 L775.15,463.67 L779.92,461.95 L782.30,458.52 L784.68,458.52 L787.06,458.52 L791.83,460.23 L794.21,456.80 L798.98,455.08 L801.36,444.78 L806.12,446.50 L815.65,451.65 L820.42,453.37 L829.94,451.65 L834.71,443.06 L837.09,444.78 L839.47,453.37 L841.86,458.52 L849.00,456.80 L858.53,458.52 L863.30,465.39 L865.68,480.84 L868.06,487.71 L870.44,485.99 L872.83,485.99 L875.21,494.58 L884.74,494.58 L889.50,491.14 L891.88,487.71 L894.27,485.99 L896.65,496.30 L901.41,501.45 L903.80,498.01 L920.47,501.45 L922.85,506.60 L927.62,506.60 L930.00,513.47" fill="none" stroke="#60a5fa" stroke-width="2.2" stroke-linecap="round" />
</svg>
