<svg xmlns="http://www.w3.org/2000/svg" viewBox="0 0 960 720" width="960" height="720">
<rect width="960" height="720" fill="#0f172a" />
<text x="480" y="28" fill="#e2e8f0" font-size="16" font-weight="700" text-anchor="middle">体重趋势图</text>
<text x="70" y="70" fill="#e2e8f0" font-size="13" font-weight="600">本月分天指标明细</text>
<line x1="70" y1="323.00" x2="930" y2="323.00" stroke="#94a3b8" stroke-opacity="0.18" stroke-width="1" />
<text x="62" y="327.00" fill="#cbd5f5" font-size="10" text-anchor="end">69</text>
<line x1="70" y1="260.75" x2="930" y2="260.75" stroke="#94a3b8" stroke-opacity="0.18" stroke-width="1" />
<text x="62" y="264.75" fill="#cbd5f5" font-size="10" text-anchor="end">72</text>
<line x1="70" y1="198.50" x2="930" y2="198.50" stroke="#94a3b8" stroke-opacity="0.18" stroke-width="1" />
<text x="62" y="202.50" fill="#cbd5f5" font-size="10" text-anchor="end">75</text>
<line x1="70" y1="136.25" x2="930" y2="136.25" stroke="#94a3b8" stroke-opacity="0.18" stroke-width="1" />
<text x="62" y="140.25" fill="#cbd5f5" font-size="10" text-anchor="end">78</text>
<line x1="70" y1="74.00" x2="930" y2="74.00" stroke="#94a3b8" stroke-opacity="0.18" stroke-width="1" />
<text x="62" y="78.00" fill="#cbd5f5" font-size="10" text-anchor="end">81</text>
<line x1="70.00" y1="323" x2="70.00" y2="327" stroke="#94a3b8" stroke-opacity="0.5" stroke-width="1" />
<text x="70.00" y="341" fill="#cbd5f5" font-size="10" text-anchor="middle">11-23</text>
<line x1="242.00" y1="323" x2="242.00" y2="327" stroke="#94a3b8" stroke-opacity="0.5" stroke-width="1" />
<text x="242.00" y="341" fill="#cbd5f5" font-size="10" text-anchor="middle">11-28</text>
<line x1="414.00" y1="323" x2="414.00" y2="327" stroke="#94a3b8" stroke-opacity="0.5" stroke-width="1" />
<text x="414.00" y="341" fill="#cbd5f5" font-size="10" text-anchor="middle">12-04</text>
<line x1="586.00" y1="323" x2="586.00" y2="327" stroke="#94a3b8" stroke-opacity="0.5" stroke-width="1" />
<text x="586.00" y="341" fill="#cbd5f5" font-size="10" text-anchor="middle">12-09</text>
<line x1="758.00" y1="323" x2="758.00" y2="327" stroke="#94a3b8" stroke-opacity="0.5" stroke-width="1" />
<text x="758.00" y="341" fill="#cbd5f5" font-size="10" text-anchor="middle">12-15</text>
<line x1="930.00" y1="323" x2="930.00" y2="327" stroke="#94a3b8" stroke-opacity="0.5" stroke-width="1" />
<text x="930.00" y="341" fill="#cbd5f5" font-size="10" text-anchor="middle">12-21</text>
<line x1="70" y1="74" x2="70" y2="323" stroke="#94a3b8" stroke-width="1" />
<line x1="70" y1="323" x2="930" y2="323" stroke="#94a3b8" stroke-width="1" />
<line x1="70" y1="302.25" x2="930" y2="302.25" stroke="#22d3ee" stroke-width="1" stroke-dasharray="4 4" stroke-opacity="0.9" />
<text x="926" y="296.25" fill="#22d3ee" font-size="10" text-anchor="end">目标 70kg</text>
<line x1="70" y1="94.75" x2="930" y2="94.75" stroke="#f97316" stroke-width="1" stroke-dasharray="4 4" stroke-opacity="0.9" />
<text x="926" y="88.75" fill="#f97316" font-size="10" text-anchor="end">预警 80kg</text>
<path d="M70.00,136.25 L100.71,138.32 L131.43,126.91 L162.14,100.97 L192.86,118.61 L223.57,136.25 L346.43,115.50 L407.86,123.80 L438.57,130.03 L469.29,123.80 L500.00,141.44 L561.43,135.21 L592.14,120.69 L807.14,125.88 L837.86,138.32 L899.29,131.06 L930.00,149.74" fill="none" stroke="#60a5fa" stroke-width="2.2" stroke-linecap="round" />
<circle cx="70.00" cy="136.25" r="3" fill="#60a5fa" stroke="#0f172a" stroke-width="1" />
<text x="70.00" y="126.25" fill="#e2e8f0" font-size="9" text-anchor="middle">78</text>
<circle cx="100.71" cy="138.32" r="3" fill="#60a5fa" stroke="#0f172a" stroke-width="1" />
<text x="100.71" y="118.32" fill="#e2e8f0" font-size="9" text-anchor="middle">77.9</text>
<circle cx="131.43" cy="126.91" r="3" fill="#60a5fa" stroke="#0f172a" stroke-width="1" />
<text x="131.43" y="116.91" fill="#e2e8f0" font-size="9" text-anchor="middle">78.5</text>
<circle cx="162.14" cy="100.97" r="3" fill="#60a5fa" stroke="#0f172a" stroke-width="1" />
<text x="162.14" y="114.97" fill="#e2e8f0" font-size="9" text-anchor="middle">79.7</text>
<circle cx="192.86" cy="118.61" r="3" fill="#60a5fa" stroke="#0f172a" stroke-width="1" />
<text x="192.86" y="108.61" fill="#e2e8f0" font-size="9" text-anchor="middle">78.8</text>
<circle cx="223.57" cy="136.25" r="3" fill="#60a5fa" stroke="#0f172a" stroke-width="1" />
<text x="223.57" y="116.25" fill="#e2e8f0" font-size="9" text-anchor="middle">78</text>
<circle cx="346.43" cy="115.50" r="3" fill="#60a5fa" stroke="#0f172a" stroke-width="1" />
<text x="346.43" y="105.50" fill="#e2e8f0" font-size="9" text-anchor="middle">79</text>
<circle cx="407.86" cy="123.80" r="3" fill="#60a5fa" stroke="#0f172a" stroke-width="1" />
<text x="407.86" y="103.80" fill="#e2e8f0" font-size="9" text-anchor="middle">78.6</text>
<circle cx="438.57" cy="130.03" r="3" fill="#60a5fa" stroke="#0f172a" stroke-width="1" />
<text x="438.57" y="120.03" fill="#e2e8f0" font-size="9" text-anchor="middle">78.3</text>
<circle cx="469.29" cy="123.80" r="3" fill="#60a5fa" stroke="#0f172a" stroke-width="1" />
<text x="469.29" y="103.80" fill="#e2e8f0" font-size="9" text-anchor="middle">78.6</text>
<circle cx="500.00" cy="141.44" r="3" fill="#60a5fa" stroke="#0f172a" stroke-width="1" />
<text x="500.00" y="131.44" fill="#e2e8f0" font-size="9" text-anchor="middle">77.8</text>
<circle cx="561.43" cy="135.21" r="3" fill="#60a5fa" stroke="#0f172a" stroke-width="1" />
<text x="561.43" y="115.21" fill="#e2e8f0" font-size="9" text-anchor="middle">78</text>
<circle cx="592.14" cy="120.69" r="3" fill="#60a5fa" stroke="#0f172a" stroke-width="1" />
<text x="592.14" y="110.69" fill="#e2e8f0" font-size="9" text-anchor="middle">78.8</text>
<circle cx="807.14" cy="125.88" r="3" fill="#60a5fa" stroke="#0f172a" stroke-width="1" />
<text x="807.14" y="105.88" fill="#e2e8f0" font-size="9" text-anchor="middle">78.5</text>
<circle cx="837.86" cy="138.32" r="3" fill="#60a5fa" stroke="#0f172a" stroke-width="1" />
<text x="837.86" y="128.32" fill="#e2e8f0" font-size="9" text-anchor="middle">77.9</text>
<circle cx="899.29" cy="131.06" r="3" fill="#60a5fa" stroke="#0f172a" stroke-width="1" />
<text x="899.29" y="111.06" fill="#e2e8f0" font-size="9" text-anchor="middle">78.3</text>
<circle cx="930.00" cy="149.74" r="3" fill="#60a5fa" stroke="#0f172a" stroke-width="1" />
<text x="930.00" y="139.74" fill="#e2e8f0" font-size="9" text-anchor="middle">77.3</text>
<text x="70" y="403" fill="#e2e8f0" font-size="13" font-weight="600">本年核心指标趋势（滑动7日窗口平均）</text>
<line x1="70" y1="656.00" x2="930" y2="656.00" stroke="#94a3b8" stroke-opacity="0.18" stroke-width="1" />
<text x="62" y="660.00" fill="#cbd5f5" font-size="10" text-anchor="end">69</text>
<line x1="70" y1="593.75" x2="930" y2="593.75" stroke="#94a3b8" stroke-opacity="0.18" stroke-width="1" />
<text x="62" y="597.75" fill="#cbd5f5" font-size="10" text-anchor="end">72</text>
<line x1="70" y1="531.50" x2="930" y2="531.50" stroke="#94a3b8" stroke-opacity="0.18" stroke-width="1" />
<text x="62" y="535.50" fill="#cbd5f5" font-size="10" text-anchor="end">75.1</text>
<line x1="70" y1="469.25" x2="930" y2="469.25" stroke="#94a3b8" stroke-opacity="0.18" stroke-width="1" />
<text x="62" y="473.25" fill="#cbd5f5" font-size="10" text-anchor="end">78.2</text>
<line x1="70" y1="407.00" x2="930" y2="407.00" stroke="#94a3b8" stroke-opacity="0.18" stroke-width="1" />
<text x="62" y="411.00" fill="#cbd5f5" font-size="10" text-anchor="end">81.2</text>
<line x1="70.00" y1="656" x2="70.00" y2="660" stroke="#94a3b8" stroke-opacity="0.5" stroke-width="1" />
<text x="70.00" y="674" fill="#cbd5f5" font-size="10" text-anchor="middle">2024-12</text>
<line x1="242.00" y1="656" x2="242.00" y2="660" stroke="#94a3b8" stroke-opacity="0.5" stroke-width="1" />
<text x="242.00" y="674" fill="#cbd5f5" font-size="10" text-anchor="middle">2025-03</text>
<line x1="414.00" y1="656" x2="414.00" y2="660" stroke="#94a3b8" stroke-opacity="0.5" stroke-width="1" />
<text x="414.00" y="674" fill="#cbd5f5" font-size="10" text-anchor="middle">2025-05</text>
<line x1="586.00" y1="656" x2="586.00" y2="660" stroke="#94a3b8" stroke-opacity="0.5" stroke-width="1" />
<text x="586.00" y="674" fill="#cbd5f5" font-size="10" text-anchor="middle">2025-07</text>
<line x1="758.00" y1="656" x2="758.00" y2="660" stroke="#94a3b8" stroke-opacity="0.5" stroke-width="1" />
<text x="758.00" y="674" fill="#cbd5f5" font-size="10" text-anchor="middle">2025-10</text>
<line x1="930.00" y1="656" x2="930.00" y2="660" stroke="#94a3b8" stroke-opacity="0.5" stroke-width="1" />
<text x="930.00" y="674" fill="#cbd5f5" font-size="10" text-anchor="middle">2025-12</text>
<line x1="70" y1="407" x2="70" y2="656" stroke="#94a3b8" stroke-width="1" />
<line x1="70" y1="656" x2="930" y2="656" stroke="#94a3b8" stroke-width="1" />
<line x1="70" y1="635.25" x2="930" y2="635.25" stroke="#22d3ee" stroke-width="1" stroke-dasharray="4 4" stroke-opacity="0.9" />
<text x="926" y="629.25" fill="#22d3ee" font-size="10" text-anchor="end">目标 70kg</text>
<line x1="70" y1="431.68" x2="930" y2="431.68" stroke="#f97316" stroke-width="1" stroke-dasharray="4 4" stroke-opacity="0.9" />
<text x="926" y="425.68" fill="#f97316" font-size="10" text-anchor="end">预警 80kg</text>
<path d="M70.00,656.00 L70.00,463.23 L96.20,468.83 L108.12,465.27 L127.17,466.54 L146.23,460.79 L189.11,455.77 L198.64,450.72 L201.02,444.04 L215.32,437.49 L229.61,434.73 L231.99,427.75 L260.58,432.40 L262.96,436.18 L267.73,442.58 L272.49,450.51 L277.26,457.78 L279.64,465.19 L282.02,477.55 L284.40,481.62 L286.79,487.00 L289.17,492.09 L291.55,494.78 L296.32,493.18 L298.70,491.29 L301.08,489.26 L303.46,490.37 L305.84,492.85 L320.14,493.43 L322.52,495.75 L324.90,502.73 L327.29,509.42 L329.67,513.06 L332.05,511.22 L334.43,510.34 L336.81,512.67 L339.20,514.27 L341.58,515.00 L343.96,513.98 L346.34,512.96 L348.73,514.41 L351.11,513.25 L353.49,511.65 L355.87,511.51 L358.25,515.14 L363.02,511.22 L365.40,511.51 L367.78,512.67 L370.17,517.61 L372.55,521.98 L374.93,523.58 L386.84,521.98 L391.61,527.21 L398.75,526.48 L403.52,526.92 L413.05,522.99 L415.43,518.92 L420.19,517.18 L422.58,513.54 L441.63,512.31 L451.16,512.02 L460.69,511.58 L470.22,510.42 L498.81,512.45 L503.57,510.85 L508.34,514.78 L513.10,518.05 L517.87,517.18 L520.25,518.63 L529.78,519.65 L532.16,518.05 L534.54,519.79 L536.93,516.74 L539.31,514.71 L541.69,520.67 L546.45,523.58 L548.84,528.52 L551.22,531.14 L553.60,532.88 L558.37,533.24 L560.75,531.94 L567.89,531.06 L572.66,528.88 L579.81,524.08 L584.57,521.98 L589.34,520.67 L594.10,520.01 L598.86,518.70 L601.25,513.18 L606.01,512.74 L608.39,516.52 L617.92,512.81 L622.69,511.22 L627.45,510.78 L636.98,511.80 L656.04,511.07 L665.57,505.25 L667.95,498.13 L670.33,495.22 L677.48,494.49 L682.24,489.26 L684.63,485.04 L687.01,484.02 L689.39,485.19 L691.77,486.64 L708.45,488.24 L737.04,485.33 L758.48,479.08 L760.86,475.01 L763.24,468.46 L765.62,459.59 L768.01,452.18 L770.39,447.09 L772.77,444.62 L775.15,445.49 L779.92,445.05 L782.30,443.16 L784.68,443.02 L787.06,443.31 L791.83,443.89 L794.21,441.85 L798.98,441.13 L801.36,435.89 L806.12,436.47 L815.65,439.24 L820.42,439.38 L829.94,438.66 L834.71,434.29 L837.09,435.31 L839.47,439.24 L841.86,442.15 L849.00,441.27 L858.53,442.29 L863.30,445.93 L865.68,453.49 L868.06,456.83 L870.44,455.81 L872.83,456.40 L875.21,460.76 L884.74,461.05 L889.50,459.30 L891.88,458.14 L894.27,457.70 L896.65,463.38 L901.41,465.70 L903.80,463.52 L920.47,464.97 L922.85,467.01 L927.62,467.16 L930.00,470.79 L930.00,656.00 Z" fill="#60a5fa" fill-opacity="0.16" stroke="none" />
<path d="M70.00,463.23 L96.20,468.83 L108.12,465.27 L127.17,466.54 L146.23,460.79 L189.11,455.77 L198.64,450.72 L201.02,444.04 L215.32,437.49 L229.61,434.73 L231.99,427.75 L260.58,432.40 L262.96,436.18 L267.73,442.58 L272.49,450.51 L277.26,457.78 L279.64,465.19 L282.02,477.55 L284.40,481.62 L286.79,487.00 L289.17,492.09 L291.55,494.78 L296.32,493.18 L298.70,491.29 L301.08,489.26 L303.46,490.37 L305.84,492.85 L320.14,493.43 L322.52,495.75 L324.90,502.73 L327.29,509.42 L329.67,513.06 L332.05,511.22 L334.43,510.34 L336.81,512.67 L339.20,514.27 L341.58,515.00 L343.96,513.98 L346.34,512.96 L348.73,514.41 L351.11,513.25 L353.49,511.65 L355.87,511.51 L358.25,515.14 L363.02,511.22 L365.40,511.51 L367.78,512.67 L370.17,517.61 L372.55,521.98 L374.93,523.58 L386.84,521.98 L391.61,527.21 L398.75,526.48 L403.52,526.92 L413.05,522.99 L415.43,518.92 L420.19,517.18 L422.58,513.54 L441.63,512.31 L451.16,512.02 L460.69,511.58 L470.22,510.42 L498.81,512.45 L503.57,510.85 L508.34,514.78 L513.10,518.05 L517.87,517.18 L520.25,518.63 L529.78,519.65 L532.16,518.05 L534.54,519.79 L536.93,516.74 L539.31,514.71 L541.69,520.67 L546.45,523.58 L548.84,528.52 L551.22,531.14 L553.60,532.88 L558.37,533.24 L560.75,531.94 L567.89,531.06 L572.66,528.88 L579.81,524.08 L584.57,521.98 L589.34,520.67 L594.10,520.01 L598.86,518.70 L601.25,513.18 L606.01,512.74 L608.39,516.52 L617.92,512.81 L622.69,511.22 L627.45,510.78 L636.98,511.80 L656.04,511.07 L665.57,505.25 L667.95,498.13 L670.33,495.22 L677.48,494.49 L682.24,489.26 L684.63,485.04 L687.01,484.02 L689.39,485.19 L691.77,486.64 L708.45,488.24 L737.04,485.33 L758.48,479.08 L760.86,475.01 L763.24,468.46 L765.62,459.59 L768.01,452.18 L770.39,447.09 L772.77,444.62 L775.15,445.49 L779.92,445.05 L782.30,443.16 L784.68,443.02 L787.06,443.31 L791.83,443.89 L794.21,441.85 L798.98,441.13 L801.36,435.89 L806.12,436.47 L815.65,439.24 L820.42,439.38 L829.94,438.66 L834.71,434.29 L837.09,435.31 L839.47,439.24 L841.86,442.15 L849.00,441.27 L858.53,442.29 L863.30,445.93 L865.68,453.49 L868.06,456.83 L870.44,455.81 L872.83,456.40 L875.21,460.76 L884.74,461.05 L889.50,459.30 L891.88,458.14 L894.27,457.70 L896.65,463.38 L901.41,465.70 L903.80,463.52 L920.47,464.97 L922.85,467.01 L927.62,467.16 L930.00,470.79" fill="none" stroke="#60a5fa" stroke-width="2.2" stroke-linecap="round" />
</svg>
