<svg xmlns="http://www.w3.org/2000/svg" viewBox="0 0 960 640" width="960" height="640">
  <rect width="960" height="640" fill="#0f172a" />
  <line x1="40" y1="40.00" x2="920.00" y2="40.00" stroke="#94a3b8" stroke-opacity="0.18" stroke-width="1" /><line x1="40" y1="128.00" x2="920.00" y2="128.00" stroke="#94a3b8" stroke-opacity="0.18" stroke-width="1" /><line x1="40" y1="216.00" x2="920.00" y2="216.00" stroke="#94a3b8" stroke-opacity="0.18" stroke-width="1" /><line x1="40" y1="304.00" x2="920.00" y2="304.00" stroke="#94a3b8" stroke-opacity="0.18" stroke-width="1" />
  <line x1="40" y1="336.00" x2="920.00" y2="336.00" stroke="#94a3b8" stroke-opacity="0.18" stroke-width="1" /><line x1="40" y1="424.00" x2="920.00" y2="424.00" stroke="#94a3b8" stroke-opacity="0.18" stroke-width="1" /><line x1="40" y1="512.00" x2="920.00" y2="512.00" stroke="#94a3b8" stroke-opacity="0.18" stroke-width="1" /><line x1="40" y1="600.00" x2="920.00" y2="600.00" stroke="#94a3b8" stroke-opacity="0.18" stroke-width="1" />
  <line x1="40" y1="320.00" x2="920.00" y2="320.00" stroke="#1f2937" stroke-width="1" />
  <polyline points="40.00,40.00 98.67,190.86 157.33,266.29 216.00,266.29 274.67,77.71 333.33,190.86 392.00,228.57 450.67,115.43 509.33,190.86 568.00,228.57 626.67,77.71 685.33,304.00 744.00,266.29 802.67,190.86 861.33,153.14 920.00,266.29" fill="none" stroke="#60a5fa" stroke-width="2" stroke-linecap="round" stroke-linejoin="round" />
  <polyline points="40.00,402.00 46.33,398.12 52.66,385.18 58.99,376.12 65.32,367.06 71.65,363.18 77.99,355.41 84.32,363.18 90.65,336.00 96.98,351.53 103.31,368.35 109.64,387.76 115.97,385.18 122.30,407.18 128.63,414.94 134.96,468.00 141.29,479.65 147.63,478.35 153.96,477.06 160.29,487.41 166.62,487.41 172.95,494.53 179.28,494.53 185.61,495.82 191.94,512.65 198.27,528.82 204.60,544.35 210.94,550.82 217.27,552.76 223.60,559.24 229.93,564.41 236.26,564.41 242.59,562.47 248.92,559.88 255.25,562.47 261.58,562.47 267.91,561.18 274.24,562.47 280.58,569.59 286.91,561.82 293.24,565.06 299.57,568.94 305.90,575.41 312.23,565.06 318.56,567.65 324.89,569.59 331.22,574.76 337.55,572.82 343.88,567.65 350.22,563.76 356.55,574.12 362.88,572.82 369.21,566.35 375.54,567.65 381.87,562.47 388.20,559.88 394.53,566.35 400.86,562.47 407.19,567.65 413.53,576.71 419.86,572.82 426.19,579.29 432.52,583.18 438.85,579.29 445.18,583.18 451.51,574.12 457.84,563.76 464.17,576.71 470.50,580.59 476.83,589.65 483.17,593.53 489.50,597.41 495.83,600.00 502.16,594.82 508.49,597.41 514.82,597.41 521.15,587.06 527.48,581.24 533.81,578.65 540.14,576.06 546.47,578.65 552.81,563.12 559.14,555.35 565.47,560.53 571.80,554.71 578.13,546.94 584.46,544.35 590.79,539.18 597.12,535.29 603.45,530.12 609.78,517.18 616.12,506.82 622.45,508.12 628.78,500.35 635.11,496.47 641.44,495.18 647.77,493.88 654.10,496.47 660.43,501.65 666.76,493.88 673.09,478.35 679.42,462.82 685.76,449.88 692.09,438.24 698.42,421.41 704.75,408.47 711.08,404.59 717.41,404.59 723.74,407.18 730.07,400.71 736.40,394.24 742.73,394.24 749.06,392.94 755.40,383.88 761.73,382.59 768.06,373.53 774.39,378.71 780.72,381.29 787.05,378.71 793.38,377.41 799.71,376.12 806.04,377.41 812.37,385.18 818.71,386.47 825.04,385.18 831.37,391.65 837.70,400.71 844.03,409.76 850.36,412.35 856.69,414.94 863.02,418.82 869.35,421.41 875.68,421.41 882.01,420.12 888.35,413.65 894.68,421.41 901.01,424.00 907.34,422.71 913.67,424.00 920.00,426.59" fill="none" stroke="#60a5fa" stroke-width="2" stroke-linecap="round" stroke-linejoin="round" />
  
  
  </svg>