<svg xmlns="http://www.w3.org/2000/svg" viewBox="0 0 960 720" width="960" height="720">
<rect width="960" height="720" fill="#0f172a" />
<text x="480" y="28" fill="#e2e8f0" font-size="16" font-weight="700" text-anchor="middle">体脂率趋势图</text>
<text x="70" y="70" fill="#e2e8f0" font-size="13" font-weight="600">本月分天指标明细</text>
<line x1="70" y1="323.00" x2="930" y2="323.00" stroke="#94a3b8" stroke-opacity="0.18" stroke-width="1" />
<text x="62" y="327.00" fill="#cbd5f5" font-size="10" text-anchor="end">0.03</text>
<line x1="70" y1="260.75" x2="930" y2="260.75" stroke="#94a3b8" stroke-opacity="0.18" stroke-width="1" />
<text x="62" y="264.75" fill="#cbd5f5" font-size="10" text-anchor="end">0.13</text>
<line x1="70" y1="198.50" x2="930" y2="198.50" stroke="#94a3b8" stroke-opacity="0.18" stroke-width="1" />
<text x="62" y="202.50" fill="#cbd5f5" font-size="10" text-anchor="end">0.24</text>
<line x1="70" y1="136.25" x2="930" y2="136.25" stroke="#94a3b8" stroke-opacity="0.18" stroke-width="1" />
<text x="62" y="140.25" fill="#cbd5f5" font-size="10" text-anchor="end">0.34</text>
<line x1="70" y1="74.00" x2="930" y2="74.00" stroke="#94a3b8" stroke-opacity="0.18" stroke-width="1" />
<text x="62" y="78.00" fill="#cbd5f5" font-size="10" text-anchor="end">0.44</text>
<line x1="70.00" y1="323" x2="70.00" y2="327" stroke="#94a3b8" stroke-opacity="0.5" stroke-width="1" />
<text x="70.00" y="341" fill="#cbd5f5" font-size="10" text-anchor="middle">11-23</text>
<line x1="242.00" y1="323" x2="242.00" y2="327" stroke="#94a3b8" stroke-opacity="0.5" stroke-width="1" />
<text x="242.00" y="341" fill="#cbd5f5" font-size="10" text-anchor="middle">11-28</text>
<line x1="414.00" y1="323" x2="414.00" y2="327" stroke="#94a3b8" stroke-opacity="0.5" stroke-width="1" />
<text x="414.00" y="341" fill="#cbd5f5" font-size="10" text-anchor="middle">12-04</text>
<line x1="586.00" y1="323" x2="586.00" y2="327" stroke="#94a3b8" stroke-opacity="0.5" stroke-width="1" />
<text x="586.00" y="341" fill="#cbd5f5" font-size="10" text-anchor="middle">12-09</text>
<line x1="758.00" y1="323" x2="758.00" y2="327" stroke="#94a3b8" stroke-opacity="0.5" stroke-width="1" />
<text x="758.00" y="341" fill="#cbd5f5" font-size="10" text-anchor="middle">12-15</text>
<line x1="930.00" y1="323" x2="930.00" y2="327" stroke="#94a3b8" stroke-opacity="0.5" stroke-width="1" />
<text x="930.00" y="341" fill="#cbd5f5" font-size="10" text-anchor="middle">12-21</text>
<line x1="70" y1="74" x2="70" y2="323" stroke="#94a3b8" stroke-width="1" />
<line x1="70" y1="323" x2="930" y2="323" stroke="#94a3b8" stroke-width="1" />
<path d="M70.00,196.99 L100.71,198.20 L131.43,198.20 L162.14,195.17 L192.86,196.99 L223.57,197.59 L346.43,195.77 L407.86,196.99 L438.57,197.59 L469.29,195.17 L500.00,198.80 L561.43,198.20 L592.14,196.99 L807.14,196.38 L837.86,198.20 L899.29,198.20 L930.00,201.83" fill="none" stroke="#60a5fa" stroke-width="2.2" stroke-linecap="round" />
<circle cx="70.00" cy="196.99" r="3" fill="#60a5fa" stroke="#0f172a" stroke-width="1" />
<text x="70.00" y="186.99" fill="#e2e8f0" font-size="9" text-anchor="middle">0.24</text>
<circle cx="100.71" cy="198.20" r="3" fill="#60a5fa" stroke="#0f172a" stroke-width="1" />
<text x="100.71" y="178.20" fill="#e2e8f0" font-size="9" text-anchor="middle">0.24</text>
<circle cx="131.43" cy="198.20" r="3" fill="#60a5fa" stroke="#0f172a" stroke-width="1" />
<text x="131.43" y="188.20" fill="#e2e8f0" font-size="9" text-anchor="middle">0.24</text>
<circle cx="162.14" cy="195.17" r="3" fill="#60a5fa" stroke="#0f172a" stroke-width="1" />
<text x="162.14" y="175.17" fill="#e2e8f0" font-size="9" text-anchor="middle">0.24</text>
<circle cx="192.86" cy="196.99" r="3" fill="#60a5fa" stroke="#0f172a" stroke-width="1" />
<text x="192.86" y="186.99" fill="#e2e8f0" font-size="9" text-anchor="middle">0.24</text>
<circle cx="223.57" cy="197.59" r="3" fill="#60a5fa" stroke="#0f172a" stroke-width="1" />
<text x="223.57" y="177.59" fill="#e2e8f0" font-size="9" text-anchor="middle">0.24</text>
<circle cx="346.43" cy="195.77" r="3" fill="#60a5fa" stroke="#0f172a" stroke-width="1" />
<text x="346.43" y="185.77" fill="#e2e8f0" font-size="9" text-anchor="middle">0.24</text>
<circle cx="407.86" cy="196.99" r="3" fill="#60a5fa" stroke="#0f172a" stroke-width="1" />
<text x="407.86" y="176.99" fill="#e2e8f0" font-size="9" text-anchor="middle">0.24</text>
<circle cx="438.57" cy="197.59" r="3" fill="#60a5fa" stroke="#0f172a" stroke-width="1" />
<text x="438.57" y="187.59" fill="#e2e8f0" font-size="9" text-anchor="middle">0.24</text>
<circle cx="469.29" cy="195.17" r="3" fill="#60a5fa" stroke="#0f172a" stroke-width="1" />
<text x="469.29" y="175.17" fill="#e2e8f0" font-size="9" text-anchor="middle">0.24</text>
<circle cx="500.00" cy="198.80" r="3" fill="#60a5fa" stroke="#0f172a" stroke-width="1" />
<text x="500.00" y="188.80" fill="#e2e8f0" font-size="9" text-anchor="middle">0.24</text>
<circle cx="561.43" cy="198.20" r="3" fill="#60a5fa" stroke="#0f172a" stroke-width="1" />
<text x="561.43" y="178.20" fill="#e2e8f0" font-size="9" text-anchor="middle">0.24</text>
<circle cx="592.14" cy="196.99" r="3" fill="#60a5fa" stroke="#0f172a" stroke-width="1" />
<text x="592.14" y="186.99" fill="#e2e8f0" font-size="9" text-anchor="middle">0.24</text>
<circle cx="807.14" cy="196.38" r="3" fill="#60a5fa" stroke="#0f172a" stroke-width="1" />
<text x="807.14" y="176.38" fill="#e2e8f0" font-size="9" text-anchor="middle">0.24</text>
<circle cx="837.86" cy="198.20" r="3" fill="#60a5fa" stroke="#0f172a" stroke-width="1" />
<text x="837.86" y="188.20" fill="#e2e8f0" font-size="9" text-anchor="middle">0.24</text>
<circle cx="899.29" cy="198.20" r="3" fill="#60a5fa" stroke="#0f172a" stroke-width="1" />
<text x="899.29" y="178.20" fill="#e2e8f0" font-size="9" text-anchor="middle">0.24</text>
<circle cx="930.00" cy="201.83" r="3" fill="#60a5fa" stroke="#0f172a" stroke-width="1" />
<text x="930.00" y="191.83" fill="#e2e8f0" font-size="9" text-anchor="middle">0.23</text>
<text x="70" y="403" fill="#e2e8f0" font-size="13" font-weight="600">本年核心指标趋势（滑动7日窗口平均）</text>
<line x1="70" y1="656.00" x2="930" y2="656.00" stroke="#94a3b8" stroke-opacity="0.18" stroke-width="1" />
<text x="62" y="660.00" fill="#cbd5f5" font-size="10" text-anchor="end">0.02</text>
<line x1="70" y1="593.75" x2="930" y2="593.75" stroke="#94a3b8" stroke-opacity="0.18" stroke-width="1" />
<text x="62" y="597.75" fill="#cbd5f5" font-size="10" text-anchor="end">0.13</text>
<line x1="70" y1="531.50" x2="930" y2="531.50" stroke="#94a3b8" stroke-opacity="0.18" stroke-width="1" />
<text x="62" y="535.50" fill="#cbd5f5" font-size="10" text-anchor="end">0.23</text>
<line x1="70" y1="469.25" x2="930" y2="469.25" stroke="#94a3b8" stroke-opacity="0.18" stroke-width="1" />
<text x="62" y="473.25" fill="#cbd5f5" font-size="10" text-anchor="end">0.34</text>
<line x1="70" y1="407.00" x2="930" y2="407.00" stroke="#94a3b8" stroke-opacity="0.18" stroke-width="1" />
<text x="62" y="411.00" fill="#cbd5f5" font-size="10" text-anchor="end">0.45</text>
<line x1="70.00" y1="656" x2="70.00" y2="660" stroke="#94a3b8" stroke-opacity="0.5" stroke-width="1" />
<text x="70.00" y="674" fill="#cbd5f5" font-size="10" text-anchor="middle">2025-01</text>
<line x1="242.00" y1="656" x2="242.00" y2="660" stroke="#94a3b8" stroke-opacity="0.5" stroke-width="1" />
<text x="242.00" y="674" fill="#cbd5f5" font-size="10" text-anchor="middle">2025-04</text>
<line x1="414.00" y1="656" x2="414.00" y2="660" stroke="#94a3b8" stroke-opacity="0.5" stroke-width="1" />
<text x="414.00" y="674" fill="#cbd5f5" font-size="10" text-anchor="middle">2025-06</text>
<line x1="586.00" y1="656" x2="586.00" y2="660" stroke="#94a3b8" stroke-opacity="0.5" stroke-width="1" />
<text x="586.00" y="674" fill="#cbd5f5" font-size="10" text-anchor="middle">2025-08</text>
<line x1="758.00" y1="656" x2="758.00" y2="660" stroke="#94a3b8" stroke-opacity="0.5" stroke-width="1" />
<text x="758.00" y="674" fill="#cbd5f5" font-size="10" text-anchor="middle">2025-10</text>
<line x1="930.00" y1="656" x2="930.00" y2="660" stroke="#94a3b8" stroke-opacity="0.5" stroke-width="1" />
<text x="930.00" y="674" fill="#cbd5f5" font-size="10" text-anchor="middle">2025-12</text>
<line x1="70" y1="407" x2="70" y2="656" stroke="#94a3b8" stroke-width="1" />
<line x1="70" y1="656" x2="930" y2="656" stroke="#94a3b8" stroke-width="1" />
<path d="M70.00,656.00 L70.00,525.03 L117.05,524.45 L127.51,523.87 L130.12,523.87 L145.81,523.76 L161.49,524.45 L164.10,524.29 L195.47,524.79 L203.31,523.05 L208.54,524.04 L213.77,525.12 L216.38,526.36 L219.00,526.20 L221.61,527.60 L224.22,528.10 L226.84,531.50 L229.45,532.25 L234.68,532.16 L237.29,532.08 L239.91,532.74 L242.52,532.74 L245.14,533.20 L260.82,533.20 L263.43,533.28 L266.05,534.36 L268.66,535.40 L271.28,536.39 L273.89,536.80 L276.50,536.93 L279.12,537.34 L281.73,537.68 L284.35,537.68 L286.96,537.55 L289.57,537.39 L292.19,537.55 L294.80,537.55 L297.42,537.47 L300.03,537.55 L302.64,538.01 L307.87,537.51 L310.49,537.72 L313.10,537.97 L315.71,538.38 L318.33,537.72 L320.94,537.88 L334.01,538.01 L347.08,538.34 L352.31,538.21 L362.77,537.88 L365.38,537.63 L370.61,538.30 L373.22,538.21 L394.13,537.80 L404.59,537.88 L415.05,537.55 L425.50,537.39 L456.87,537.80 L462.10,537.55 L467.33,537.88 L472.55,538.46 L477.78,538.21 L480.40,538.63 L490.85,538.88 L493.47,538.63 L496.08,538.88 L498.69,538.30 L501.31,537.63 L503.92,538.46 L509.15,538.71 L511.76,539.29 L514.38,539.54 L516.99,539.79 L522.22,539.95 L524.83,539.62 L532.67,539.79 L537.90,539.79 L545.74,539.13 L550.97,538.75 L556.20,538.59 L561.43,538.42 L566.66,538.59 L569.27,537.59 L574.50,537.10 L577.11,537.43 L587.57,537.05 L592.80,536.56 L598.02,536.39 L608.48,536.06 L629.39,535.81 L639.85,535.48 L642.46,534.65 L645.08,533.99 L652.92,534.07 L658.15,533.57 L660.76,533.32 L663.37,533.24 L665.99,533.16 L668.60,533.32 L686.90,533.66 L718.27,533.16 L741.79,532.16 L744.41,531.17 L747.02,530.34 L749.64,529.59 L752.25,528.52 L754.86,527.69 L757.48,527.44 L760.09,527.44 L765.32,527.60 L767.93,527.19 L770.55,526.78 L773.16,526.78 L778.39,526.69 L781.00,526.11 L786.23,526.03 L788.84,525.45 L804.53,525.78 L809.76,525.95 L820.21,525.78 L825.44,525.70 L828.05,525.61 L830.67,525.70 L833.28,526.20 L841.12,526.28 L851.58,526.20 L856.81,526.61 L859.42,527.19 L862.04,527.77 L864.65,527.94 L867.26,528.10 L869.88,528.35 L880.33,528.52 L885.56,528.52 L888.18,528.43 L890.79,528.02 L893.40,528.52 L898.63,528.68 L901.25,528.60 L919.54,528.68 L922.16,528.85 L927.39,528.93 L930.00,529.84 L930.00,656.00 Z" fill="#60a5fa" fill-opacity="0.16" stroke="none" />
<path d="M70.00,525.03 L117.05,524.45 L127.51,523.87 L130.12,523.87 L145.81,523.76 L161.49,524.45 L164.10,524.29 L195.47,524.79 L203.31,523.05 L208.54,524.04 L213.77,525.12 L216.38,526.36 L219.00,526.20 L221.61,527.60 L224.22,528.10 L226.84,531.50 L229.45,532.25 L234.68,532.16 L237.29,532.08 L239.91,532.74 L242.52,532.74 L245.14,533.20 L260.82,533.20 L263.43,533.28 L266.05,534.36 L268.66,535.40 L271.28,536.39 L273.89,536.80 L276.50,536.93 L279.12,537.34 L281.73,537.68 L284.35,537.68 L286.96,537.55 L289.57,537.39 L292.19,537.55 L294.80,537.55 L297.42,537.47 L300.03,537.55 L302.64,538.01 L307.87,537.51 L310.49,537.72 L313.10,537.97 L315.71,538.38 L318.33,537.72 L320.94,537.88 L334.01,538.01 L347.08,538.34 L352.31,538.21 L362.77,537.88 L365.38,537.63 L370.61,538.30 L373.22,538.21 L394.13,537.80 L404.59,537.88 L415.05,537.55 L425.50,537.39 L456.87,537.80 L462.10,537.55 L467.33,537.88 L472.55,538.46 L477.78,538.21 L480.40,538.63 L490.85,538.88 L493.47,538.63 L496.08,538.88 L498.69,538.30 L501.31,537.63 L503.92,538.46 L509.15,538.71 L511.76,539.29 L514.38,539.54 L516.99,539.79 L522.22,539.95 L524.83,539.62 L532.67,539.79 L537.90,539.79 L545.74,539.13 L550.97,538.75 L556.20,538.59 L561.43,538.42 L566.66,538.59 L569.27,537.59 L574.50,537.10 L577.11,537.43 L587.57,537.05 L592.80,536.56 L598.02,536.39 L608.48,536.06 L629.39,535.81 L639.85,535.48 L642.46,534.65 L645.08,533.99 L652.92,534.07 L658.15,533.57 L660.76,533.32 L663.37,533.24 L665.99,533.16 L668.60,533.32 L686.90,533.66 L718.27,533.16 L741.79,532.16 L744.41,531.17 L747.02,530.34 L749.64,529.59 L752.25,528.52 L754.86,527.69 L757.48,527.44 L760.09,527.44 L765.32,527.60 L767.93,527.19 L770.55,526.78 L773.16,526.78 L778.39,526.69 L781.00,526.11 L786.23,526.03 L788.84,525.45 L804.53,525.78 L809.76,525.95 L820.21,525.78 L825.44,525.70 L828.05,525.61 L830.67,525.70 L833.28,526.20 L841.12,526.28 L851.58,526.20 L856.81,526.61 L859.42,527.19 L862.04,527.77 L864.65,527.94 L867.26,528.10 L869.88,528.35 L880.33,528.52 L885.56,528.52 L888.18,528.43 L890.79,528.02 L893.40,528.52 L898.63,528.68 L901.25,528.60 L919.54,528.68 L922.16,528.85 L927.39,528.93 L930.00,529.84" fill="none" stroke="#60a5fa" stroke-width="2.2" stroke-linecap="round" />
</svg>
