<svg xmlns="http://www.w3.org/2000/svg" viewBox="0 0 960 720" width="960" height="720">
<rect width="960" height="720" fill="#0f172a" />
<text x="480" y="28" fill="#e2e8f0" font-size="16" font-weight="700" text-anchor="middle">体脂率趋势图</text>
<text x="70" y="70" fill="#e2e8f0" font-size="13" font-weight="600">本月分天指标明细</text>
<line x1="70" y1="323.00" x2="930" y2="323.00" stroke="#94a3b8" stroke-opacity="0.18" stroke-width="1" />
<text x="62" y="327.00" fill="#cbd5f5" font-size="10" text-anchor="end">0.04</text>
<line x1="70" y1="260.75" x2="930" y2="260.75" stroke="#94a3b8" stroke-opacity="0.18" stroke-width="1" />
<text x="62" y="264.75" fill="#cbd5f5" font-size="10" text-anchor="end">0.14</text>
<line x1="70" y1="198.50" x2="930" y2="198.50" stroke="#94a3b8" stroke-opacity="0.18" stroke-width="1" />
<text x="62" y="202.50" fill="#cbd5f5" font-size="10" text-anchor="end">0.24</text>
<line x1="70" y1="136.25" x2="930" y2="136.25" stroke="#94a3b8" stroke-opacity="0.18" stroke-width="1" />
<text x="62" y="140.25" fill="#cbd5f5" font-size="10" text-anchor="end">0.34</text>
<line x1="70" y1="74.00" x2="930" y2="74.00" stroke="#94a3b8" stroke-opacity="0.18" stroke-width="1" />
<text x="62" y="78.00" fill="#cbd5f5" font-size="10" text-anchor="end">0.44</text>
<line x1="70.00" y1="323" x2="70.00" y2="327" stroke="#94a3b8" stroke-opacity="0.5" stroke-width="1" />
<text x="70.00" y="341" fill="#cbd5f5" font-size="10" text-anchor="middle">11-21</text>
<line x1="242.00" y1="323" x2="242.00" y2="327" stroke="#94a3b8" stroke-opacity="0.5" stroke-width="1" />
<text x="242.00" y="341" fill="#cbd5f5" font-size="10" text-anchor="middle">11-26</text>
<line x1="414.00" y1="323" x2="414.00" y2="327" stroke="#94a3b8" stroke-opacity="0.5" stroke-width="1" />
<text x="414.00" y="341" fill="#cbd5f5" font-size="10" text-anchor="middle">12-01</text>
<line x1="586.00" y1="323" x2="586.00" y2="327" stroke="#94a3b8" stroke-opacity="0.5" stroke-width="1" />
<text x="586.00" y="341" fill="#cbd5f5" font-size="10" text-anchor="middle">12-07</text>
<line x1="758.00" y1="323" x2="758.00" y2="327" stroke="#94a3b8" stroke-opacity="0.5" stroke-width="1" />
<text x="758.00" y="341" fill="#cbd5f5" font-size="10" text-anchor="middle">12-12</text>
<line x1="930.00" y1="323" x2="930.00" y2="327" stroke="#94a3b8" stroke-opacity="0.5" stroke-width="1" />
<text x="930.00" y="341" fill="#cbd5f5" font-size="10" text-anchor="middle">12-18</text>
<line x1="70" y1="74" x2="70" y2="323" stroke="#94a3b8" stroke-width="1" />
<line x1="70" y1="323" x2="930" y2="323" stroke="#94a3b8" stroke-width="1" />
<path d="M70.00,196.36 L133.70,198.81 L165.56,200.03 L197.41,200.03 L229.26,196.97 L261.11,198.81 L292.96,199.42 L420.37,197.58 L484.07,198.81 L515.93,199.42 L547.78,196.97 L579.63,200.64 L643.33,200.03 L675.19,198.81 L898.15,198.19 L930.00,200.03" fill="none" stroke="#60a5fa" stroke-width="2.2" stroke-linecap="round" />
<circle cx="70.00" cy="196.36" r="3" fill="#60a5fa" stroke="#0f172a" stroke-width="1" />
<text x="70.00" y="186.36" fill="#e2e8f0" font-size="9" text-anchor="middle">0.24</text>
<circle cx="133.70" cy="198.81" r="3" fill="#60a5fa" stroke="#0f172a" stroke-width="1" />
<text x="133.70" y="178.81" fill="#e2e8f0" font-size="9" text-anchor="middle">0.24</text>
<circle cx="165.56" cy="200.03" r="3" fill="#60a5fa" stroke="#0f172a" stroke-width="1" />
<text x="165.56" y="190.03" fill="#e2e8f0" font-size="9" text-anchor="middle">0.24</text>
<circle cx="197.41" cy="200.03" r="3" fill="#60a5fa" stroke="#0f172a" stroke-width="1" />
<text x="197.41" y="180.03" fill="#e2e8f0" font-size="9" text-anchor="middle">0.24</text>
<circle cx="229.26" cy="196.97" r="3" fill="#60a5fa" stroke="#0f172a" stroke-width="1" />
<text x="229.26" y="186.97" fill="#e2e8f0" font-size="9" text-anchor="middle">0.24</text>
<circle cx="261.11" cy="198.81" r="3" fill="#60a5fa" stroke="#0f172a" stroke-width="1" />
<text x="261.11" y="178.81" fill="#e2e8f0" font-size="9" text-anchor="middle">0.24</text>
<circle cx="292.96" cy="199.42" r="3" fill="#60a5fa" stroke="#0f172a" stroke-width="1" />
<text x="292.96" y="189.42" fill="#e2e8f0" font-size="9" text-anchor="middle">0.24</text>
<circle cx="420.37" cy="197.58" r="3" fill="#60a5fa" stroke="#0f172a" stroke-width="1" />
<text x="420.37" y="177.58" fill="#e2e8f0" font-size="9" text-anchor="middle">0.24</text>
<circle cx="484.07" cy="198.81" r="3" fill="#60a5fa" stroke="#0f172a" stroke-width="1" />
<text x="484.07" y="188.81" fill="#e2e8f0" font-size="9" text-anchor="middle">0.24</text>
<circle cx="515.93" cy="199.42" r="3" fill="#60a5fa" stroke="#0f172a" stroke-width="1" />
<text x="515.93" y="179.42" fill="#e2e8f0" font-size="9" text-anchor="middle">0.24</text>
<circle cx="547.78" cy="196.97" r="3" fill="#60a5fa" stroke="#0f172a" stroke-width="1" />
<text x="547.78" y="186.97" fill="#e2e8f0" font-size="9" text-anchor="middle">0.24</text>
<circle cx="579.63" cy="200.64" r="3" fill="#60a5fa" stroke="#0f172a" stroke-width="1" />
<text x="579.63" y="180.64" fill="#e2e8f0" font-size="9" text-anchor="middle">0.24</text>
<circle cx="643.33" cy="200.03" r="3" fill="#60a5fa" stroke="#0f172a" stroke-width="1" />
<text x="643.33" y="190.03" fill="#e2e8f0" font-size="9" text-anchor="middle">0.24</text>
<circle cx="675.19" cy="198.81" r="3" fill="#60a5fa" stroke="#0f172a" stroke-width="1" />
<text x="675.19" y="178.81" fill="#e2e8f0" font-size="9" text-anchor="middle">0.24</text>
<circle cx="898.15" cy="198.19" r="3" fill="#60a5fa" stroke="#0f172a" stroke-width="1" />
<text x="898.15" y="188.19" fill="#e2e8f0" font-size="9" text-anchor="middle">0.24</text>
<circle cx="930.00" cy="200.03" r="3" fill="#60a5fa" stroke="#0f172a" stroke-width="1" />
<text x="930.00" y="180.03" fill="#e2e8f0" font-size="9" text-anchor="middle">0.24</text>
<text x="70" y="403" fill="#e2e8f0" font-size="13" font-weight="600">本年核心指标趋势（滑动7日窗口平均）</text>
<line x1="70" y1="656.00" x2="930" y2="656.00" stroke="#94a3b8" stroke-opacity="0.18" stroke-width="1" />
<text x="62" y="660.00" fill="#cbd5f5" font-size="10" text-anchor="end">0.02</text>
<line x1="70" y1="593.75" x2="930" y2="593.75" stroke="#94a3b8" stroke-opacity="0.18" stroke-width="1" />
<text x="62" y="597.75" fill="#cbd5f5" font-size="10" text-anchor="end">0.13</text>
<line x1="70" y1="531.50" x2="930" y2="531.50" stroke="#94a3b8" stroke-opacity="0.18" stroke-width="1" />
<text x="62" y="535.50" fill="#cbd5f5" font-size="10" text-anchor="end">0.23</text>
<line x1="70" y1="469.25" x2="930" y2="469.25" stroke="#94a3b8" stroke-opacity="0.18" stroke-width="1" />
<text x="62" y="473.25" fill="#cbd5f5" font-size="10" text-anchor="end">0.34</text>
<line x1="70" y1="407.00" x2="930" y2="407.00" stroke="#94a3b8" stroke-opacity="0.18" stroke-width="1" />
<text x="62" y="411.00" fill="#cbd5f5" font-size="10" text-anchor="end">0.45</text>
<line x1="70.00" y1="656" x2="70.00" y2="660" stroke="#94a3b8" stroke-opacity="0.5" stroke-width="1" />
<text x="70.00" y="674" fill="#cbd5f5" font-size="10" text-anchor="middle">2025-01</text>
<line x1="242.00" y1="656" x2="242.00" y2="660" stroke="#94a3b8" stroke-opacity="0.5" stroke-width="1" />
<text x="242.00" y="674" fill="#cbd5f5" font-size="10" text-anchor="middle">2025-04</text>
<line x1="414.00" y1="656" x2="414.00" y2="660" stroke="#94a3b8" stroke-opacity="0.5" stroke-width="1" />
<text x="414.00" y="674" fill="#cbd5f5" font-size="10" text-anchor="middle">2025-06</text>
<line x1="586.00" y1="656" x2="586.00" y2="660" stroke="#94a3b8" stroke-opacity="0.5" stroke-width="1" />
<text x="586.00" y="674" fill="#cbd5f5" font-size="10" text-anchor="middle">2025-08</text>
<line x1="758.00" y1="656" x2="758.00" y2="660" stroke="#94a3b8" stroke-opacity="0.5" stroke-width="1" />
<text x="758.00" y="674" fill="#cbd5f5" font-size="10" text-anchor="middle">2025-10</text>
<line x1="930.00" y1="656" x2="930.00" y2="660" stroke="#94a3b8" stroke-opacity="0.5" stroke-width="1" />
<text x="930.00" y="674" fill="#cbd5f5" font-size="10" text-anchor="middle">2025-12</text>
<line x1="70" y1="407" x2="70" y2="656" stroke="#94a3b8" stroke-width="1" />
<line x1="70" y1="656" x2="930" y2="656" stroke="#94a3b8" stroke-width="1" />
<path d="M70.00,656.00 L70.00,525.03 L117.48,524.45 L128.04,523.87 L130.67,523.87 L146.50,523.76 L162.33,524.45 L164.97,524.29 L196.63,524.79 L204.54,523.05 L209.82,524.04 L215.09,525.12 L217.73,526.36 L220.37,526.20 L223.01,527.60 L225.64,528.10 L228.28,531.50 L230.92,532.25 L236.20,532.16 L238.83,532.08 L241.47,532.74 L244.11,532.74 L246.75,533.20 L262.58,533.20 L265.21,533.28 L267.85,534.36 L270.49,535.40 L273.13,536.39 L275.77,536.80 L278.40,536.93 L281.04,537.34 L283.68,537.68 L286.32,537.68 L288.96,537.55 L291.60,537.39 L294.23,537.55 L296.87,537.55 L299.51,537.47 L302.15,537.55 L304.79,538.01 L310.06,537.51 L312.70,537.72 L315.34,537.97 L317.98,538.38 L320.61,537.72 L323.25,537.88 L336.44,538.01 L349.63,538.34 L354.91,538.21 L365.46,537.88 L368.10,537.63 L373.37,538.30 L376.01,538.21 L397.12,537.80 L407.67,537.88 L418.22,537.55 L428.77,537.39 L460.43,537.80 L465.71,537.55 L470.98,537.88 L476.26,538.46 L481.53,538.21 L484.17,538.63 L494.72,538.88 L497.36,538.63 L500.00,538.88 L502.64,538.30 L505.28,537.63 L507.91,538.46 L513.19,538.71 L515.83,539.29 L518.47,539.54 L521.10,539.79 L526.38,539.95 L529.02,539.62 L536.93,539.79 L542.21,539.79 L550.12,539.13 L555.40,538.75 L560.67,538.59 L565.95,538.42 L571.23,538.59 L573.87,537.59 L579.14,537.10 L581.78,537.43 L592.33,537.05 L597.61,536.56 L602.88,536.39 L613.44,536.06 L634.54,535.81 L645.09,535.48 L647.73,534.65 L650.37,533.99 L658.28,534.07 L663.56,533.57 L666.20,533.32 L668.83,533.24 L671.47,533.16 L674.11,533.32 L692.58,533.66 L724.23,533.16 L747.98,532.16 L750.61,531.17 L753.25,530.34 L755.89,529.59 L758.53,528.52 L761.17,527.69 L763.80,527.44 L766.44,527.44 L771.72,527.60 L774.36,527.19 L776.99,526.78 L779.63,526.78 L784.91,526.69 L787.55,526.11 L792.82,526.03 L795.46,525.45 L811.29,525.78 L816.56,525.95 L827.12,525.78 L832.39,525.70 L835.03,525.61 L837.67,525.70 L840.31,526.20 L848.22,526.28 L858.77,526.20 L864.05,526.61 L866.69,527.19 L869.33,527.77 L871.96,527.94 L874.60,528.10 L877.24,528.35 L887.79,528.52 L893.07,528.52 L895.71,528.43 L898.34,528.02 L900.98,528.52 L906.26,528.68 L908.90,528.60 L927.36,528.68 L930.00,528.85 L930.00,656.00 Z" fill="#60a5fa" fill-opacity="0.16" stroke="none" />
<path d="M70.00,525.03 L117.48,524.45 L128.04,523.87 L130.67,523.87 L146.50,523.76 L162.33,524.45 L164.97,524.29 L196.63,524.79 L204.54,523.05 L209.82,524.04 L215.09,525.12 L217.73,526.36 L220.37,526.20 L223.01,527.60 L225.64,528.10 L228.28,531.50 L230.92,532.25 L236.20,532.16 L238.83,532.08 L241.47,532.74 L244.11,532.74 L246.75,533.20 L262.58,533.20 L265.21,533.28 L267.85,534.36 L270.49,535.40 L273.13,536.39 L275.77,536.80 L278.40,536.93 L281.04,537.34 L283.68,537.68 L286.32,537.68 L288.96,537.55 L291.60,537.39 L294.23,537.55 L296.87,537.55 L299.51,537.47 L302.15,537.55 L304.79,538.01 L310.06,537.51 L312.70,537.72 L315.34,537.97 L317.98,538.38 L320.61,537.72 L323.25,537.88 L336.44,538.01 L349.63,538.34 L354.91,538.21 L365.46,537.88 L368.10,537.63 L373.37,538.30 L376.01,538.21 L397.12,537.80 L407.67,537.88 L418.22,537.55 L428.77,537.39 L460.43,537.80 L465.71,537.55 L470.98,537.88 L476.26,538.46 L481.53,538.21 L484.17,538.63 L494.72,538.88 L497.36,538.63 L500.00,538.88 L502.64,538.30 L505.28,537.63 L507.91,538.46 L513.19,538.71 L515.83,539.29 L518.47,539.54 L521.10,539.79 L526.38,539.95 L529.02,539.62 L536.93,539.79 L542.21,539.79 L550.12,539.13 L555.40,538.75 L560.67,538.59 L565.95,538.42 L571.23,538.59 L573.87,537.59 L579.14,537.10 L581.78,537.43 L592.33,537.05 L597.61,536.56 L602.88,536.39 L613.44,536.06 L634.54,535.81 L645.09,535.48 L647.73,534.65 L650.37,533.99 L658.28,534.07 L663.56,533.57 L666.20,533.32 L668.83,533.24 L671.47,533.16 L674.11,533.32 L692.58,533.66 L724.23,533.16 L747.98,532.16 L750.61,531.17 L753.25,530.34 L755.89,529.59 L758.53,528.52 L761.17,527.69 L763.80,527.44 L766.44,527.44 L771.72,527.60 L774.36,527.19 L776.99,526.78 L779.63,526.78 L784.91,526.69 L787.55,526.11 L792.82,526.03 L795.46,525.45 L811.29,525.78 L816.56,525.95 L827.12,525.78 L832.39,525.70 L835.03,525.61 L837.67,525.70 L840.31,526.20 L848.22,526.28 L858.77,526.20 L864.05,526.61 L866.69,527.19 L869.33,527.77 L871.96,527.94 L874.60,528.10 L877.24,528.35 L887.79,528.52 L893.07,528.52 L895.71,528.43 L898.34,528.02 L900.98,528.52 L906.26,528.68 L908.90,528.60 L927.36,528.68 L930.00,528.85" fill="none" stroke="#60a5fa" stroke-width="2.2" stroke-linecap="round" />
</svg>
