<svg xmlns="http://www.w3.org/2000/svg" viewBox="0 0 960 640" width="960" height="640">
  <rect width="960" height="640" fill="#0f172a" />
  <line x1="40" y1="40.00" x2="920.00" y2="40.00" stroke="#94a3b8" stroke-opacity="0.18" stroke-width="1" /><line x1="40" y1="128.00" x2="920.00" y2="128.00" stroke="#94a3b8" stroke-opacity="0.18" stroke-width="1" /><line x1="40" y1="216.00" x2="920.00" y2="216.00" stroke="#94a3b8" stroke-opacity="0.18" stroke-width="1" /><line x1="40" y1="304.00" x2="920.00" y2="304.00" stroke="#94a3b8" stroke-opacity="0.18" stroke-width="1" />
  <line x1="40" y1="336.00" x2="920.00" y2="336.00" stroke="#94a3b8" stroke-opacity="0.18" stroke-width="1" /><line x1="40" y1="424.00" x2="920.00" y2="424.00" stroke="#94a3b8" stroke-opacity="0.18" stroke-width="1" /><line x1="40" y1="512.00" x2="920.00" y2="512.00" stroke="#94a3b8" stroke-opacity="0.18" stroke-width="1" /><line x1="40" y1="600.00" x2="920.00" y2="600.00" stroke="#94a3b8" stroke-opacity="0.18" stroke-width="1" />
  <line x1="40" y1="320.00" x2="920.00" y2="320.00" stroke="#1f2937" stroke-width="1" />
  <polyline points="40.00,172.00 98.67,304.00 157.33,277.60 216.00,172.00 274.67,40.00 333.33,145.60 392.00,277.60 450.67,145.60 509.33,198.40 568.00,224.80 626.67,251.20 685.33,304.00 744.00,251.20 802.67,145.60 861.33,224.80 920.00,277.60" fill="none" stroke="#60a5fa" stroke-width="2" stroke-linecap="round" stroke-linejoin="round" />
  <polyline points="40.00,419.37 46.33,409.44 52.66,399.52 58.99,375.70 65.32,365.77 71.65,341.95 77.99,336.00 84.32,349.89 90.65,407.46 96.98,423.34 103.31,449.14 109.64,472.96 115.97,527.55 122.30,559.31 128.63,569.23 134.96,533.50 141.29,537.47 147.63,531.52 153.96,521.59 160.29,498.77 166.62,504.72 172.95,508.69 179.28,510.68 185.61,520.60 191.94,536.48 198.27,553.35 204.60,555.34 210.94,537.47 217.27,531.52 223.60,537.47 229.93,539.46 236.26,543.43 242.59,540.45 248.92,538.47 255.25,544.42 261.58,538.47 267.91,530.53 274.24,528.54 280.58,539.46 286.91,527.55 293.24,524.57 299.57,524.57 305.90,542.44 312.23,578.17 318.56,584.12 324.89,573.20 331.22,581.14 337.55,584.12 343.88,586.11 350.22,576.18 356.55,544.42 362.88,532.51 369.21,524.57 375.54,522.59 381.87,526.56 388.20,522.59 394.53,524.57 400.86,520.60 407.19,534.50 413.53,542.44 419.86,542.44 426.19,542.44 432.52,544.42 438.85,540.45 445.18,546.41 451.51,542.44 457.84,544.42 464.17,560.30 470.50,572.21 476.83,586.11 483.17,596.03 489.50,600.00 495.83,598.02 502.16,596.03 508.49,588.09 514.82,576.18 521.15,564.27 527.48,560.30 533.81,556.33 540.14,556.33 546.47,546.41 552.81,534.50 559.14,540.45 565.47,554.35 571.80,540.45 578.13,540.45 584.46,540.45 590.79,552.36 597.12,554.35 603.45,530.53 609.78,506.71 616.12,504.72 622.45,500.75 628.78,482.89 635.11,465.02 641.44,461.05 647.77,467.01 654.10,476.93 660.43,478.92 666.76,472.96 673.09,459.07 679.42,457.08 685.76,439.22 692.09,407.46 698.42,383.64 704.75,371.73 711.08,363.79 717.41,367.76 723.74,361.80 730.07,359.82 736.40,367.76 742.73,369.74 749.06,375.70 755.40,375.70 761.73,373.71 768.06,357.83 774.39,365.77 780.72,373.71 787.05,381.65 793.38,359.82 799.71,351.88 806.04,359.82 812.37,375.70 818.71,369.74 825.04,375.70 831.37,385.62 837.70,413.41 844.03,419.37 850.36,411.43 856.69,411.43 863.02,429.29 869.35,427.31 875.68,419.37 882.01,415.40 888.35,421.35 894.68,441.20 901.01,449.14 907.34,439.22 913.67,445.17 920.00,451.13" fill="none" stroke="#60a5fa" stroke-width="2" stroke-linecap="round" stroke-linejoin="round" />
  
  
  </svg>