<svg xmlns="http://www.w3.org/2000/svg" viewBox="0 0 960 720" width="960" height="720">
<rect width="960" height="720" fill="#0f172a" />
<text x="480" y="28" fill="#e2e8f0" font-size="16" font-weight="700" text-anchor="middle">户外日照时长趋势图</text>
<text x="70" y="70" fill="#e2e8f0" font-size="13" font-weight="600">本月分天指标明细</text>
<line x1="70" y1="323.00" x2="930" y2="323.00" stroke="#94a3b8" stroke-opacity="0.18" stroke-width="1" />
<text x="62" y="327.00" fill="#cbd5f5" font-size="10" text-anchor="end">-2.8</text>
<line x1="70" y1="260.75" x2="930" y2="260.75" stroke="#94a3b8" stroke-opacity="0.18" stroke-width="1" />
<text x="62" y="264.75" fill="#cbd5f5" font-size="10" text-anchor="end">35.6</text>
<line x1="70" y1="198.50" x2="930" y2="198.50" stroke="#94a3b8" stroke-opacity="0.18" stroke-width="1" />
<text x="62" y="202.50" fill="#cbd5f5" font-size="10" text-anchor="end">74</text>
<line x1="70" y1="136.25" x2="930" y2="136.25" stroke="#94a3b8" stroke-opacity="0.18" stroke-width="1" />
<text x="62" y="140.25" fill="#cbd5f5" font-size="10" text-anchor="end">112.4</text>
<line x1="70" y1="74.00" x2="930" y2="74.00" stroke="#94a3b8" stroke-opacity="0.18" stroke-width="1" />
<text x="62" y="78.00" fill="#cbd5f5" font-size="10" text-anchor="end">150.8</text>
<line x1="70.00" y1="323" x2="70.00" y2="327" stroke="#94a3b8" stroke-opacity="0.5" stroke-width="1" />
<text x="70.00" y="341" fill="#cbd5f5" font-size="10" text-anchor="middle">11-22</text>
<line x1="242.00" y1="323" x2="242.00" y2="327" stroke="#94a3b8" stroke-opacity="0.5" stroke-width="1" />
<text x="242.00" y="341" fill="#cbd5f5" font-size="10" text-anchor="middle">11-27</text>
<line x1="414.00" y1="323" x2="414.00" y2="327" stroke="#94a3b8" stroke-opacity="0.5" stroke-width="1" />
<text x="414.00" y="341" fill="#cbd5f5" font-size="10" text-anchor="middle">12-03</text>
<line x1="586.00" y1="323" x2="586.00" y2="327" stroke="#94a3b8" stroke-opacity="0.5" stroke-width="1" />
<text x="586.00" y="341" fill="#cbd5f5" font-size="10" text-anchor="middle">12-09</text>
<line x1="758.00" y1="323" x2="758.00" y2="327" stroke="#94a3b8" stroke-opacity="0.5" stroke-width="1" />
<text x="758.00" y="341" fill="#cbd5f5" font-size="10" text-anchor="middle">12-15</text>
<line x1="930.00" y1="323" x2="930.00" y2="327" stroke="#94a3b8" stroke-opacity="0.5" stroke-width="1" />
<text x="930.00" y="341" fill="#cbd5f5" font-size="10" text-anchor="middle">12-21</text>
<line x1="70" y1="74" x2="70" y2="323" stroke="#94a3b8" stroke-width="1" />
<line x1="70" y1="323" x2="930" y2="323" stroke="#94a3b8" stroke-width="1" />
<path d="M70.00,295.77 L99.66,269.83 L129.31,294.14 L158.97,261.72 L188.62,294.14 L247.93,271.45 L277.59,94.75 L307.24,248.75 L336.90,295.77 L366.55,294.14 L396.21,302.25 L425.86,294.14 L485.17,294.14 L514.83,271.45 L544.48,289.28 L574.14,294.14 L603.79,295.77 L633.45,290.90 L663.10,274.69 L722.41,206.61 L752.07,302.25 L781.72,266.59 L811.38,294.14 L841.03,294.14 L870.69,287.66 L900.34,292.52 L930.00,284.42" fill="none" stroke="#60a5fa" stroke-width="2.2" stroke-linecap="round" />
<circle cx="70.00" cy="295.77" r="3" fill="#60a5fa" stroke="#0f172a" stroke-width="1" />
<text x="70.00" y="285.77" fill="#e2e8f0" font-size="9" text-anchor="middle">14</text>
<circle cx="99.66" cy="269.83" r="3" fill="#60a5fa" stroke="#0f172a" stroke-width="1" />
<text x="99.66" y="249.83" fill="#e2e8f0" font-size="9" text-anchor="middle">30</text>
<circle cx="129.31" cy="294.14" r="3" fill="#60a5fa" stroke="#0f172a" stroke-width="1" />
<text x="129.31" y="284.14" fill="#e2e8f0" font-size="9" text-anchor="middle">15</text>
<circle cx="158.97" cy="261.72" r="3" fill="#60a5fa" stroke="#0f172a" stroke-width="1" />
<text x="158.97" y="241.72" fill="#e2e8f0" font-size="9" text-anchor="middle">35</text>
<circle cx="188.62" cy="294.14" r="3" fill="#60a5fa" stroke="#0f172a" stroke-width="1" />
<text x="188.62" y="284.14" fill="#e2e8f0" font-size="9" text-anchor="middle">15</text>
<circle cx="247.93" cy="271.45" r="3" fill="#60a5fa" stroke="#0f172a" stroke-width="1" />
<text x="247.93" y="251.45" fill="#e2e8f0" font-size="9" text-anchor="middle">29</text>
<circle cx="277.59" cy="94.75" r="3" fill="#60a5fa" stroke="#0f172a" stroke-width="1" />
<text x="277.59" y="84.75" fill="#e2e8f0" font-size="9" text-anchor="middle">138</text>
<circle cx="307.24" cy="248.75" r="3" fill="#60a5fa" stroke="#0f172a" stroke-width="1" />
<text x="307.24" y="228.75" fill="#e2e8f0" font-size="9" text-anchor="middle">43</text>
<circle cx="336.90" cy="295.77" r="3" fill="#60a5fa" stroke="#0f172a" stroke-width="1" />
<text x="336.90" y="285.77" fill="#e2e8f0" font-size="9" text-anchor="middle">14</text>
<circle cx="366.55" cy="294.14" r="3" fill="#60a5fa" stroke="#0f172a" stroke-width="1" />
<text x="366.55" y="274.14" fill="#e2e8f0" font-size="9" text-anchor="middle">15</text>
<circle cx="396.21" cy="302.25" r="3" fill="#60a5fa" stroke="#0f172a" stroke-width="1" />
<text x="396.21" y="292.25" fill="#e2e8f0" font-size="9" text-anchor="middle">10</text>
<circle cx="425.86" cy="294.14" r="3" fill="#60a5fa" stroke="#0f172a" stroke-width="1" />
<text x="425.86" y="274.14" fill="#e2e8f0" font-size="9" text-anchor="middle">15</text>
<circle cx="485.17" cy="294.14" r="3" fill="#60a5fa" stroke="#0f172a" stroke-width="1" />
<text x="485.17" y="284.14" fill="#e2e8f0" font-size="9" text-anchor="middle">15</text>
<circle cx="514.83" cy="271.45" r="3" fill="#60a5fa" stroke="#0f172a" stroke-width="1" />
<text x="514.83" y="251.45" fill="#e2e8f0" font-size="9" text-anchor="middle">29</text>
<circle cx="544.48" cy="289.28" r="3" fill="#60a5fa" stroke="#0f172a" stroke-width="1" />
<text x="544.48" y="279.28" fill="#e2e8f0" font-size="9" text-anchor="middle">18</text>
<circle cx="574.14" cy="294.14" r="3" fill="#60a5fa" stroke="#0f172a" stroke-width="1" />
<text x="574.14" y="274.14" fill="#e2e8f0" font-size="9" text-anchor="middle">15</text>
<circle cx="603.79" cy="295.77" r="3" fill="#60a5fa" stroke="#0f172a" stroke-width="1" />
<text x="603.79" y="285.77" fill="#e2e8f0" font-size="9" text-anchor="middle">14</text>
<circle cx="633.45" cy="290.90" r="3" fill="#60a5fa" stroke="#0f172a" stroke-width="1" />
<text x="633.45" y="270.90" fill="#e2e8f0" font-size="9" text-anchor="middle">17</text>
<circle cx="663.10" cy="274.69" r="3" fill="#60a5fa" stroke="#0f172a" stroke-width="1" />
<text x="663.10" y="264.69" fill="#e2e8f0" font-size="9" text-anchor="middle">27</text>
<circle cx="722.41" cy="206.61" r="3" fill="#60a5fa" stroke="#0f172a" stroke-width="1" />
<text x="722.41" y="186.61" fill="#e2e8f0" font-size="9" text-anchor="middle">69</text>
<circle cx="752.07" cy="302.25" r="3" fill="#60a5fa" stroke="#0f172a" stroke-width="1" />
<text x="752.07" y="292.25" fill="#e2e8f0" font-size="9" text-anchor="middle">10</text>
<circle cx="781.72" cy="266.59" r="3" fill="#60a5fa" stroke="#0f172a" stroke-width="1" />
<text x="781.72" y="246.59" fill="#e2e8f0" font-size="9" text-anchor="middle">32</text>
<circle cx="811.38" cy="294.14" r="3" fill="#60a5fa" stroke="#0f172a" stroke-width="1" />
<text x="811.38" y="284.14" fill="#e2e8f0" font-size="9" text-anchor="middle">15</text>
<circle cx="841.03" cy="294.14" r="3" fill="#60a5fa" stroke="#0f172a" stroke-width="1" />
<text x="841.03" y="274.14" fill="#e2e8f0" font-size="9" text-anchor="middle">15</text>
<circle cx="870.69" cy="287.66" r="3" fill="#60a5fa" stroke="#0f172a" stroke-width="1" />
<text x="870.69" y="277.66" fill="#e2e8f0" font-size="9" text-anchor="middle">19</text>
<circle cx="900.34" cy="292.52" r="3" fill="#60a5fa" stroke="#0f172a" stroke-width="1" />
<text x="900.34" y="272.52" fill="#e2e8f0" font-size="9" text-anchor="middle">16</text>
<circle cx="930.00" cy="284.42" r="3" fill="#60a5fa" stroke="#0f172a" stroke-width="1" />
<text x="930.00" y="274.42" fill="#e2e8f0" font-size="9" text-anchor="middle">21</text>
<text x="70" y="403" fill="#e2e8f0" font-size="13" font-weight="600">本年核心指标趋势（滑动7日窗口平均）</text>
<line x1="70" y1="656.00" x2="930" y2="656.00" stroke="#94a3b8" stroke-opacity="0.18" stroke-width="1" />
<text x="62" y="660.00" fill="#cbd5f5" font-size="10" text-anchor="end">4.17</text>
<line x1="70" y1="593.75" x2="930" y2="593.75" stroke="#94a3b8" stroke-opacity="0.18" stroke-width="1" />
<text x="62" y="597.75" fill="#cbd5f5" font-size="10" text-anchor="end">22.1</text>
<line x1="70" y1="531.50" x2="930" y2="531.50" stroke="#94a3b8" stroke-opacity="0.18" stroke-width="1" />
<text x="62" y="535.50" fill="#cbd5f5" font-size="10" text-anchor="end">40</text>
<line x1="70" y1="469.25" x2="930" y2="469.25" stroke="#94a3b8" stroke-opacity="0.18" stroke-width="1" />
<text x="62" y="473.25" fill="#cbd5f5" font-size="10" text-anchor="end">57.9</text>
<line x1="70" y1="407.00" x2="930" y2="407.00" stroke="#94a3b8" stroke-opacity="0.18" stroke-width="1" />
<text x="62" y="411.00" fill="#cbd5f5" font-size="10" text-anchor="end">75.8</text>
<line x1="70.00" y1="656" x2="70.00" y2="660" stroke="#94a3b8" stroke-opacity="0.5" stroke-width="1" />
<text x="70.00" y="674" fill="#cbd5f5" font-size="10" text-anchor="middle">2025-01</text>
<line x1="242.00" y1="656" x2="242.00" y2="660" stroke="#94a3b8" stroke-opacity="0.5" stroke-width="1" />
<text x="242.00" y="674" fill="#cbd5f5" font-size="10" text-anchor="middle">2025-03</text>
<line x1="414.00" y1="656" x2="414.00" y2="660" stroke="#94a3b8" stroke-opacity="0.5" stroke-width="1" />
<text x="414.00" y="674" fill="#cbd5f5" font-size="10" text-anchor="middle">2025-06</text>
<line x1="586.00" y1="656" x2="586.00" y2="660" stroke="#94a3b8" stroke-opacity="0.5" stroke-width="1" />
<text x="586.00" y="674" fill="#cbd5f5" font-size="10" text-anchor="middle">2025-08</text>
<line x1="758.00" y1="656" x2="758.00" y2="660" stroke="#94a3b8" stroke-opacity="0.5" stroke-width="1" />
<text x="758.00" y="674" fill="#cbd5f5" font-size="10" text-anchor="middle">2025-10</text>
<line x1="930.00" y1="656" x2="930.00" y2="660" stroke="#94a3b8" stroke-opacity="0.5" stroke-width="1" />
<text x="930.00" y="674" fill="#cbd5f5" font-size="10" text-anchor="middle">2025-12</text>
<line x1="70" y1="407" x2="70" y2="656" stroke="#94a3b8" stroke-width="1" />
<line x1="70" y1="656" x2="930" y2="656" stroke="#94a3b8" stroke-width="1" />
<path d="M70.00,656.00 L70.00,465.48 L72.60,550.61 L75.20,558.14 L77.79,551.48 L80.39,554.43 L82.99,567.99 L85.59,555.33 L88.19,545.40 L90.79,535.47 L93.38,539.94 L95.98,531.00 L98.58,503.70 L101.18,480.37 L103.78,471.43 L106.37,497.74 L108.97,503.70 L111.57,505.69 L114.17,527.53 L116.77,567.24 L121.96,593.06 L124.56,626.81 L127.16,626.81 L129.76,630.29 L132.36,628.80 L134.95,633.26 L140.15,635.25 L142.75,635.25 L147.95,627.80 L150.54,612.91 L158.34,607.95 L160.94,602.49 L163.53,590.08 L166.13,564.26 L171.33,564.26 L173.93,567.74 L176.53,584.12 L179.12,582.13 L181.72,505.69 L184.32,516.61 L186.92,514.62 L189.52,490.79 L192.11,493.28 L194.71,499.73 L199.91,499.73 L202.51,551.36 L205.11,552.85 L210.30,573.69 L212.90,589.58 L215.50,577.17 L218.10,507.67 L220.69,485.83 L223.29,513.13 L231.09,476.40 L233.69,471.43 L236.28,479.38 L241.48,488.31 L244.08,543.41 L246.68,572.70 L249.27,550.86 L251.87,501.72 L254.47,479.87 L257.07,460.51 L259.67,448.10 L262.27,453.07 L264.86,433.71 L267.46,427.75 L270.06,506.68 L272.66,522.07 L275.26,525.05 L277.85,537.46 L280.45,544.41 L283.05,547.39 L285.65,565.26 L288.25,549.37 L290.85,532.49 L293.44,536.96 L296.04,534.48 L298.64,523.56 L301.24,520.08 L303.84,523.06 L306.44,527.03 L309.03,522.07 L311.63,512.14 L314.23,501.72 L316.83,498.74 L319.43,489.31 L322.02,497.25 L324.62,510.65 L327.22,518.59 L329.82,488.81 L332.42,496.25 L335.02,499.73 L340.21,508.67 L342.81,506.18 L345.41,463.99 L348.01,475.90 L350.60,503.70 L353.20,506.18 L355.80,521.57 L358.40,536.96 L361.00,537.46 L363.60,578.16 L366.19,578.16 L368.79,597.03 L371.39,589.08 L373.99,582.13 L376.59,582.63 L379.18,588.09 L381.78,584.62 L384.38,590.08 L386.98,577.67 L389.58,588.09 L392.18,583.13 L397.37,547.39 L399.97,547.88 L402.57,544.41 L407.76,538.95 L410.36,536.46 L412.96,525.05 L415.56,524.05 L418.16,553.34 L420.76,524.05 L423.35,524.05 L425.95,530.01 L428.55,545.40 L431.15,557.31 L433.75,560.29 L436.34,568.73 L441.54,590.08 L444.14,595.54 L446.74,585.61 L449.34,585.11 L451.93,585.11 L454.53,590.08 L457.13,568.73 L459.73,568.23 L462.33,562.77 L464.92,568.23 L467.52,556.82 L470.12,548.87 L472.72,505.69 L475.32,529.51 L477.92,530.01 L480.51,529.02 L483.11,540.93 L485.71,537.95 L488.31,536.46 L490.91,573.69 L493.50,570.22 L496.10,577.67 L498.70,582.13 L501.30,582.13 L506.50,598.02 L509.09,607.45 L511.69,568.73 L514.29,552.35 L516.89,552.35 L524.68,550.36 L527.28,524.55 L532.48,523.06 L537.67,522.07 L540.27,561.78 L542.87,569.23 L545.47,544.41 L548.07,549.87 L550.66,575.18 L553.26,576.18 L555.86,576.18 L558.46,578.66 L561.06,580.64 L563.66,605.47 L566.25,599.51 L571.45,599.51 L574.05,589.58 L576.65,589.08 L581.84,582.63 L584.44,577.17 L587.04,574.19 L589.64,583.62 L592.24,584.12 L594.83,586.60 L597.43,587.59 L600.03,587.10 L605.23,598.52 L607.82,594.05 L615.62,597.52 L644.20,596.53 L646.80,592.56 L654.59,600.00 L657.19,608.94 L662.39,613.90 L664.98,621.85 L672.78,615.39 L675.38,606.46 L677.98,611.92 L683.17,606.46 L693.56,605.96 L696.16,601.49 L698.76,603.48 L709.15,596.53 L711.75,604.97 L714.35,608.44 L716.95,606.46 L724.74,575.18 L727.34,577.67 L732.54,562.77 L735.14,558.80 L742.93,561.28 L745.53,567.74 L753.32,568.23 L761.12,598.02 L763.72,589.08 L766.31,590.57 L768.91,601.49 L779.31,605.47 L781.90,597.52 L784.50,583.62 L787.10,584.62 L789.70,592.56 L792.30,603.48 L794.89,604.47 L797.49,599.01 L800.09,593.55 L802.69,606.95 L805.29,607.45 L807.89,609.93 L810.48,614.90 L813.08,615.39 L815.68,611.42 L818.28,617.88 L820.88,611.42 L823.47,608.94 L826.07,602.98 L828.67,597.03 L831.27,593.55 L833.87,597.52 L836.47,594.05 L839.06,566.75 L841.66,562.28 L846.86,565.75 L849.46,565.26 L852.05,566.75 L854.65,567.74 L857.25,565.75 L859.85,600.00 L862.45,598.02 L865.05,598.02 L870.24,592.56 L872.84,533.49 L875.44,519.09 L878.04,527.03 L880.63,527.03 L883.23,539.44 L885.83,539.44 L891.03,546.39 L893.63,600.50 L896.22,612.91 L898.82,612.42 L901.42,612.91 L904.02,609.44 L906.62,603.48 L911.81,576.67 L914.41,586.11 L917.01,579.16 L919.61,579.16 L922.21,578.66 L924.80,577.67 L927.40,583.13 L930.00,606.95 L930.00,656.00 Z" fill="#60a5fa" fill-opacity="0.16" stroke="none" />
<path d="M70.00,465.48 L72.60,550.61 L75.20,558.14 L77.79,551.48 L80.39,554.43 L82.99,567.99 L85.59,555.33 L88.19,545.40 L90.79,535.47 L93.38,539.94 L95.98,531.00 L98.58,503.70 L101.18,480.37 L103.78,471.43 L106.37,497.74 L108.97,503.70 L111.57,505.69 L114.17,527.53 L116.77,567.24 L121.96,593.06 L124.56,626.81 L127.16,626.81 L129.76,630.29 L132.36,628.80 L134.95,633.26 L140.15,635.25 L142.75,635.25 L147.95,627.80 L150.54,612.91 L158.34,607.95 L160.94,602.49 L163.53,590.08 L166.13,564.26 L171.33,564.26 L173.93,567.74 L176.53,584.12 L179.12,582.13 L181.72,505.69 L184.32,516.61 L186.92,514.62 L189.52,490.79 L192.11,493.28 L194.71,499.73 L199.91,499.73 L202.51,551.36 L205.11,552.85 L210.30,573.69 L212.90,589.58 L215.50,577.17 L218.10,507.67 L220.69,485.83 L223.29,513.13 L231.09,476.40 L233.69,471.43 L236.28,479.38 L241.48,488.31 L244.08,543.41 L246.68,572.70 L249.27,550.86 L251.87,501.72 L254.47,479.87 L257.07,460.51 L259.67,448.10 L262.27,453.07 L264.86,433.71 L267.46,427.75 L270.06,506.68 L272.66,522.07 L275.26,525.05 L277.85,537.46 L280.45,544.41 L283.05,547.39 L285.65,565.26 L288.25,549.37 L290.85,532.49 L293.44,536.96 L296.04,534.48 L298.64,523.56 L301.24,520.08 L303.84,523.06 L306.44,527.03 L309.03,522.07 L311.63,512.14 L314.23,501.72 L316.83,498.74 L319.43,489.31 L322.02,497.25 L324.62,510.65 L327.22,518.59 L329.82,488.81 L332.42,496.25 L335.02,499.73 L340.21,508.67 L342.81,506.18 L345.41,463.99 L348.01,475.90 L350.60,503.70 L353.20,506.18 L355.80,521.57 L358.40,536.96 L361.00,537.46 L363.60,578.16 L366.19,578.16 L368.79,597.03 L371.39,589.08 L373.99,582.13 L376.59,582.63 L379.18,588.09 L381.78,584.62 L384.38,590.08 L386.98,577.67 L389.58,588.09 L392.18,583.13 L397.37,547.39 L399.97,547.88 L402.57,544.41 L407.76,538.95 L410.36,536.46 L412.96,525.05 L415.56,524.05 L418.16,553.34 L420.76,524.05 L423.35,524.05 L425.95,530.01 L428.55,545.40 L431.15,557.31 L433.75,560.29 L436.34,568.73 L441.54,590.08 L444.14,595.54 L446.74,585.61 L449.34,585.11 L451.93,585.11 L454.53,590.08 L457.13,568.73 L459.73,568.23 L462.33,562.77 L464.92,568.23 L467.52,556.82 L470.12,548.87 L472.72,505.69 L475.32,529.51 L477.92,530.01 L480.51,529.02 L483.11,540.93 L485.71,537.95 L488.31,536.46 L490.91,573.69 L493.50,570.22 L496.10,577.67 L498.70,582.13 L501.30,582.13 L506.50,598.02 L509.09,607.45 L511.69,568.73 L514.29,552.35 L516.89,552.35 L524.68,550.36 L527.28,524.55 L532.48,523.06 L537.67,522.07 L540.27,561.78 L542.87,569.23 L545.47,544.41 L548.07,549.87 L550.66,575.18 L553.26,576.18 L555.86,576.18 L558.46,578.66 L561.06,580.64 L563.66,605.47 L566.25,599.51 L571.45,599.51 L574.05,589.58 L576.65,589.08 L581.84,582.63 L584.44,577.17 L587.04,574.19 L589.64,583.62 L592.24,584.12 L594.83,586.60 L597.43,587.59 L600.03,587.10 L605.23,598.52 L607.82,594.05 L615.62,597.52 L644.20,596.53 L646.80,592.56 L654.59,600.00 L657.19,608.94 L662.39,613.90 L664.98,621.85 L672.78,615.39 L675.38,606.46 L677.98,611.92 L683.17,606.46 L693.56,605.96 L696.16,601.49 L698.76,603.48 L709.15,596.53 L711.75,604.97 L714.35,608.44 L716.95,606.46 L724.74,575.18 L727.34,577.67 L732.54,562.77 L735.14,558.80 L742.93,561.28 L745.53,567.74 L753.32,568.23 L761.12,598.02 L763.72,589.08 L766.31,590.57 L768.91,601.49 L779.31,605.47 L781.90,597.52 L784.50,583.62 L787.10,584.62 L789.70,592.56 L792.30,603.48 L794.89,604.47 L797.49,599.01 L800.09,593.55 L802.69,606.95 L805.29,607.45 L807.89,609.93 L810.48,614.90 L813.08,615.39 L815.68,611.42 L818.28,617.88 L820.88,611.42 L823.47,608.94 L826.07,602.98 L828.67,597.03 L831.27,593.55 L833.87,597.52 L836.47,594.05 L839.06,566.75 L841.66,562.28 L846.86,565.75 L849.46,565.26 L852.05,566.75 L854.65,567.74 L857.25,565.75 L859.85,600.00 L862.45,598.02 L865.05,598.02 L870.24,592.56 L872.84,533.49 L875.44,519.09 L878.04,527.03 L880.63,527.03 L883.23,539.44 L885.83,539.44 L891.03,546.39 L893.63,600.50 L896.22,612.91 L898.82,612.42 L901.42,612.91 L904.02,609.44 L906.62,603.48 L911.81,576.67 L914.41,586.11 L917.01,579.16 L919.61,579.16 L922.21,578.66 L924.80,577.67 L927.40,583.13 L930.00,606.95" fill="none" stroke="#60a5fa" stroke-width="2.2" stroke-linecap="round" />
</svg>
