<svg xmlns="http://www.w3.org/2000/svg" viewBox="0 0 960 640" width="960" height="640">
  <rect width="960" height="640" fill="#0f172a" />
  <line x1="40" y1="40.00" x2="920.00" y2="40.00" stroke="#94a3b8" stroke-opacity="0.18" stroke-width="1" /><line x1="40" y1="128.00" x2="920.00" y2="128.00" stroke="#94a3b8" stroke-opacity="0.18" stroke-width="1" /><line x1="40" y1="216.00" x2="920.00" y2="216.00" stroke="#94a3b8" stroke-opacity="0.18" stroke-width="1" /><line x1="40" y1="304.00" x2="920.00" y2="304.00" stroke="#94a3b8" stroke-opacity="0.18" stroke-width="1" />
  <line x1="40" y1="336.00" x2="920.00" y2="336.00" stroke="#94a3b8" stroke-opacity="0.18" stroke-width="1" /><line x1="40" y1="424.00" x2="920.00" y2="424.00" stroke="#94a3b8" stroke-opacity="0.18" stroke-width="1" /><line x1="40" y1="512.00" x2="920.00" y2="512.00" stroke="#94a3b8" stroke-opacity="0.18" stroke-width="1" /><line x1="40" y1="600.00" x2="920.00" y2="600.00" stroke="#94a3b8" stroke-opacity="0.18" stroke-width="1" />
  <line x1="40" y1="320.00" x2="920.00" y2="320.00" stroke="#1f2937" stroke-width="1" />
  <polyline points="40.00,293.69 73.85,287.50 107.69,285.44 141.54,295.75 175.38,262.75 209.23,293.69 243.08,252.44 276.92,293.69 310.77,264.81 344.62,40.00 378.46,235.94 412.31,295.75 446.15,293.69 480.00,304.00 513.85,293.69 547.69,293.69 581.54,264.81 615.38,287.50 649.23,293.69 683.08,295.75 716.92,289.56 750.77,268.94 784.62,182.31 818.46,304.00 852.31,258.63 886.15,293.69 920.00,293.69" fill="none" stroke="#60a5fa" stroke-width="2" stroke-linecap="round" stroke-linejoin="round" />
  <polyline points="40.00,384.00 43.32,492.32 46.64,501.89 49.96,493.42 53.28,497.18 56.60,514.42 59.92,498.32 63.25,485.68 66.57,473.05 69.89,478.74 73.21,467.37 76.53,432.63 79.85,402.95 83.17,391.58 86.49,425.05 89.81,432.63 93.13,435.16 96.45,462.95 99.77,513.47 103.09,546.32 106.42,589.26 109.74,589.26 113.06,593.68 116.38,591.79 119.70,597.47 123.02,600.00 126.34,600.00 129.66,590.53 132.98,571.58 136.30,565.26 139.62,558.32 142.94,542.53 146.26,509.68 149.58,509.68 152.91,514.11 156.23,534.95 159.55,532.42 162.87,435.16 166.19,449.05 169.51,446.53 172.83,416.21 176.15,419.37 179.47,427.58 182.79,427.58 186.11,493.26 189.43,495.16 192.75,521.68 196.08,541.89 199.40,526.11 202.72,437.68 206.04,409.89 209.36,444.63 212.68,397.89 216.00,391.58 219.32,401.68 222.64,413.05 225.96,483.16 229.28,520.42 232.60,492.63 235.92,430.11 239.25,402.32 242.57,377.68 245.89,361.89 249.21,368.21 252.53,343.58 255.85,336.00 259.17,436.42 262.49,456.00 265.81,459.79 269.13,475.58 272.45,484.42 275.77,488.21 279.09,510.95 282.42,490.74 285.74,469.26 289.06,474.95 292.38,471.79 295.70,457.89 299.02,453.47 302.34,457.26 305.66,462.32 308.98,456.00 312.30,443.37 315.62,430.11 318.94,426.32 322.26,414.32 325.58,424.42 328.91,441.47 332.23,451.58 335.55,413.68 338.87,423.16 342.19,427.58 345.51,438.95 348.83,435.79 352.15,382.11 355.47,397.26 358.79,432.63 362.11,435.79 365.43,455.37 368.75,474.95 372.08,475.58 375.40,527.37 378.72,527.37 382.04,551.37 385.36,541.26 388.68,532.42 392.00,533.05 395.32,540.00 398.64,535.58 401.96,542.53 405.28,526.74 408.60,540.00 411.92,533.68 415.25,488.21 418.57,488.84 421.89,484.42 425.21,477.47 428.53,474.32 431.85,459.79 435.17,458.53 438.49,495.79 441.81,458.53 445.13,458.53 448.45,466.11 451.77,485.68 455.09,500.84 458.42,504.63 461.74,515.37 465.06,542.53 468.38,549.47 471.70,536.84 475.02,536.21 478.34,536.21 481.66,542.53 484.98,515.37 488.30,514.74 491.62,507.79 494.94,514.74 498.26,500.21 501.58,490.11 504.91,435.16 508.23,465.47 511.55,466.11 514.87,464.84 518.19,480.00 521.51,476.21 524.83,474.32 528.15,521.68 531.47,517.26 534.79,526.74 538.11,532.42 541.43,532.42 544.75,552.63 548.08,564.63 551.40,515.37 554.72,494.53 558.04,494.53 561.36,492.00 564.68,459.16 568.00,457.26 571.32,456.00 574.64,506.53 577.96,516.00 581.28,484.42 584.60,491.37 587.92,523.58 591.25,524.84 594.57,524.84 597.89,528.00 601.21,530.53 604.53,562.11 607.85,554.53 611.17,554.53 614.49,541.89 617.81,541.26 621.13,533.05 624.45,526.11 627.77,522.32 631.09,534.32 634.42,534.95 637.74,538.11 641.06,539.37 644.38,538.74 647.70,553.26 651.02,547.58 654.34,552.00 657.66,550.74 660.98,545.68 664.30,555.16 667.62,566.53 670.94,572.84 674.26,582.95 677.58,574.74 680.91,563.37 684.23,570.32 687.55,563.37 690.87,562.74 694.19,557.05 697.51,559.58 700.83,550.74 704.15,561.47 707.47,565.89 710.79,563.37 714.11,523.58 717.43,526.74 720.75,507.79 724.08,502.74 727.40,505.89 730.72,514.11 734.04,514.74 737.36,552.63 740.68,541.26 744.00,543.16 747.32,557.05 750.64,562.11 753.96,552.00 757.28,534.32 760.60,535.58 763.92,545.68 767.25,559.58 770.57,560.84 773.89,553.89 777.21,546.95 780.53,564.00 783.85,564.63 787.17,567.79 790.49,574.11 793.81,574.74 797.13,569.68 800.45,577.89 803.77,569.68 807.09,566.53 810.42,558.95 813.74,551.37 817.06,546.95 820.38,552.00 823.70,547.58 827.02,512.84 830.34,507.16 833.66,511.58 836.98,510.95 840.30,512.84 843.62,514.11 846.94,511.58 850.26,555.16 853.58,552.63 856.91,552.63 860.23,545.68 863.55,470.53 866.87,452.21 870.19,462.32 873.51,462.32 876.83,478.11 880.15,478.11 883.47,486.95 886.79,555.79 890.11,571.58 893.43,570.95 896.75,571.58 900.08,567.16 903.40,559.58 906.72,525.47 910.04,537.47 913.36,528.63 916.68,528.63 920.00,528.00" fill="none" stroke="#60a5fa" stroke-width="2" stroke-linecap="round" stroke-linejoin="round" />
  
  
  </svg>