<svg xmlns="http://www.w3.org/2000/svg" viewBox="0 0 960 720" width="960" height="720">
<rect width="960" height="720" fill="#0f172a" />
<text x="480" y="28" fill="#e2e8f0" font-size="16" font-weight="700" text-anchor="middle">户外日照时长趋势图</text>
<text x="70" y="70" fill="#e2e8f0" font-size="13" font-weight="600">本月分天指标明细</text>
<line x1="70" y1="323.00" x2="930" y2="323.00" stroke="#94a3b8" stroke-opacity="0.18" stroke-width="1" />
<text x="62" y="327.00" fill="#cbd5f5" font-size="10" text-anchor="end">-2.8</text>
<line x1="70" y1="260.75" x2="930" y2="260.75" stroke="#94a3b8" stroke-opacity="0.18" stroke-width="1" />
<text x="62" y="264.75" fill="#cbd5f5" font-size="10" text-anchor="end">35.6</text>
<line x1="70" y1="198.50" x2="930" y2="198.50" stroke="#94a3b8" stroke-opacity="0.18" stroke-width="1" />
<text x="62" y="202.50" fill="#cbd5f5" font-size="10" text-anchor="end">74</text>
<line x1="70" y1="136.25" x2="930" y2="136.25" stroke="#94a3b8" stroke-opacity="0.18" stroke-width="1" />
<text x="62" y="140.25" fill="#cbd5f5" font-size="10" text-anchor="end">112.4</text>
<line x1="70" y1="74.00" x2="930" y2="74.00" stroke="#94a3b8" stroke-opacity="0.18" stroke-width="1" />
<text x="62" y="78.00" fill="#cbd5f5" font-size="10" text-anchor="end">150.8</text>
<line x1="70.00" y1="323" x2="70.00" y2="327" stroke="#94a3b8" stroke-opacity="0.5" stroke-width="1" />
<text x="70.00" y="341" fill="#cbd5f5" font-size="10" text-anchor="middle">11-19</text>
<line x1="242.00" y1="323" x2="242.00" y2="327" stroke="#94a3b8" stroke-opacity="0.5" stroke-width="1" />
<text x="242.00" y="341" fill="#cbd5f5" font-size="10" text-anchor="middle">11-24</text>
<line x1="414.00" y1="323" x2="414.00" y2="327" stroke="#94a3b8" stroke-opacity="0.5" stroke-width="1" />
<text x="414.00" y="341" fill="#cbd5f5" font-size="10" text-anchor="middle">11-30</text>
<line x1="586.00" y1="323" x2="586.00" y2="327" stroke="#94a3b8" stroke-opacity="0.5" stroke-width="1" />
<text x="586.00" y="341" fill="#cbd5f5" font-size="10" text-anchor="middle">12-06</text>
<line x1="758.00" y1="323" x2="758.00" y2="327" stroke="#94a3b8" stroke-opacity="0.5" stroke-width="1" />
<text x="758.00" y="341" fill="#cbd5f5" font-size="10" text-anchor="middle">12-12</text>
<line x1="930.00" y1="323" x2="930.00" y2="327" stroke="#94a3b8" stroke-opacity="0.5" stroke-width="1" />
<text x="930.00" y="341" fill="#cbd5f5" font-size="10" text-anchor="middle">12-18</text>
<line x1="70" y1="74" x2="70" y2="323" stroke="#94a3b8" stroke-width="1" />
<line x1="70" y1="323" x2="930" y2="323" stroke="#94a3b8" stroke-width="1" />
<path d="M70.00,294.14 L99.66,289.28 L129.31,287.66 L158.97,295.77 L188.62,269.83 L218.28,294.14 L247.93,261.72 L277.59,294.14 L336.90,271.45 L366.55,94.75 L396.21,248.75 L425.86,295.77 L455.52,294.14 L485.17,302.25 L514.83,294.14 L574.14,294.14 L603.79,271.45 L633.45,289.28 L663.10,294.14 L692.76,295.77 L722.41,290.90 L752.07,274.69 L811.38,206.61 L841.03,302.25 L870.69,266.59 L900.34,294.14 L930.00,294.14" fill="none" stroke="#60a5fa" stroke-width="2.2" stroke-linecap="round" />
<circle cx="70.00" cy="294.14" r="3" fill="#60a5fa" stroke="#0f172a" stroke-width="1" />
<text x="70.00" y="284.14" fill="#e2e8f0" font-size="9" text-anchor="middle">15</text>
<circle cx="99.66" cy="289.28" r="3" fill="#60a5fa" stroke="#0f172a" stroke-width="1" />
<text x="99.66" y="269.28" fill="#e2e8f0" font-size="9" text-anchor="middle">18</text>
<circle cx="129.31" cy="287.66" r="3" fill="#60a5fa" stroke="#0f172a" stroke-width="1" />
<text x="129.31" y="277.66" fill="#e2e8f0" font-size="9" text-anchor="middle">19</text>
<circle cx="158.97" cy="295.77" r="3" fill="#60a5fa" stroke="#0f172a" stroke-width="1" />
<text x="158.97" y="275.77" fill="#e2e8f0" font-size="9" text-anchor="middle">14</text>
<circle cx="188.62" cy="269.83" r="3" fill="#60a5fa" stroke="#0f172a" stroke-width="1" />
<text x="188.62" y="259.83" fill="#e2e8f0" font-size="9" text-anchor="middle">30</text>
<circle cx="218.28" cy="294.14" r="3" fill="#60a5fa" stroke="#0f172a" stroke-width="1" />
<text x="218.28" y="274.14" fill="#e2e8f0" font-size="9" text-anchor="middle">15</text>
<circle cx="247.93" cy="261.72" r="3" fill="#60a5fa" stroke="#0f172a" stroke-width="1" />
<text x="247.93" y="251.72" fill="#e2e8f0" font-size="9" text-anchor="middle">35</text>
<circle cx="277.59" cy="294.14" r="3" fill="#60a5fa" stroke="#0f172a" stroke-width="1" />
<text x="277.59" y="274.14" fill="#e2e8f0" font-size="9" text-anchor="middle">15</text>
<circle cx="336.90" cy="271.45" r="3" fill="#60a5fa" stroke="#0f172a" stroke-width="1" />
<text x="336.90" y="261.45" fill="#e2e8f0" font-size="9" text-anchor="middle">29</text>
<circle cx="366.55" cy="94.75" r="3" fill="#60a5fa" stroke="#0f172a" stroke-width="1" />
<text x="366.55" y="108.75" fill="#e2e8f0" font-size="9" text-anchor="middle">138</text>
<circle cx="396.21" cy="248.75" r="3" fill="#60a5fa" stroke="#0f172a" stroke-width="1" />
<text x="396.21" y="238.75" fill="#e2e8f0" font-size="9" text-anchor="middle">43</text>
<circle cx="425.86" cy="295.77" r="3" fill="#60a5fa" stroke="#0f172a" stroke-width="1" />
<text x="425.86" y="275.77" fill="#e2e8f0" font-size="9" text-anchor="middle">14</text>
<circle cx="455.52" cy="294.14" r="3" fill="#60a5fa" stroke="#0f172a" stroke-width="1" />
<text x="455.52" y="284.14" fill="#e2e8f0" font-size="9" text-anchor="middle">15</text>
<circle cx="485.17" cy="302.25" r="3" fill="#60a5fa" stroke="#0f172a" stroke-width="1" />
<text x="485.17" y="282.25" fill="#e2e8f0" font-size="9" text-anchor="middle">10</text>
<circle cx="514.83" cy="294.14" r="3" fill="#60a5fa" stroke="#0f172a" stroke-width="1" />
<text x="514.83" y="284.14" fill="#e2e8f0" font-size="9" text-anchor="middle">15</text>
<circle cx="574.14" cy="294.14" r="3" fill="#60a5fa" stroke="#0f172a" stroke-width="1" />
<text x="574.14" y="274.14" fill="#e2e8f0" font-size="9" text-anchor="middle">15</text>
<circle cx="603.79" cy="271.45" r="3" fill="#60a5fa" stroke="#0f172a" stroke-width="1" />
<text x="603.79" y="261.45" fill="#e2e8f0" font-size="9" text-anchor="middle">29</text>
<circle cx="633.45" cy="289.28" r="3" fill="#60a5fa" stroke="#0f172a" stroke-width="1" />
<text x="633.45" y="269.28" fill="#e2e8f0" font-size="9" text-anchor="middle">18</text>
<circle cx="663.10" cy="294.14" r="3" fill="#60a5fa" stroke="#0f172a" stroke-width="1" />
<text x="663.10" y="284.14" fill="#e2e8f0" font-size="9" text-anchor="middle">15</text>
<circle cx="692.76" cy="295.77" r="3" fill="#60a5fa" stroke="#0f172a" stroke-width="1" />
<text x="692.76" y="275.77" fill="#e2e8f0" font-size="9" text-anchor="middle">14</text>
<circle cx="722.41" cy="290.90" r="3" fill="#60a5fa" stroke="#0f172a" stroke-width="1" />
<text x="722.41" y="280.90" fill="#e2e8f0" font-size="9" text-anchor="middle">17</text>
<circle cx="752.07" cy="274.69" r="3" fill="#60a5fa" stroke="#0f172a" stroke-width="1" />
<text x="752.07" y="254.69" fill="#e2e8f0" font-size="9" text-anchor="middle">27</text>
<circle cx="811.38" cy="206.61" r="3" fill="#60a5fa" stroke="#0f172a" stroke-width="1" />
<text x="811.38" y="196.61" fill="#e2e8f0" font-size="9" text-anchor="middle">69</text>
<circle cx="841.03" cy="302.25" r="3" fill="#60a5fa" stroke="#0f172a" stroke-width="1" />
<text x="841.03" y="282.25" fill="#e2e8f0" font-size="9" text-anchor="middle">10</text>
<circle cx="870.69" cy="266.59" r="3" fill="#60a5fa" stroke="#0f172a" stroke-width="1" />
<text x="870.69" y="256.59" fill="#e2e8f0" font-size="9" text-anchor="middle">32</text>
<circle cx="900.34" cy="294.14" r="3" fill="#60a5fa" stroke="#0f172a" stroke-width="1" />
<text x="900.34" y="274.14" fill="#e2e8f0" font-size="9" text-anchor="middle">15</text>
<circle cx="930.00" cy="294.14" r="3" fill="#60a5fa" stroke="#0f172a" stroke-width="1" />
<text x="930.00" y="284.14" fill="#e2e8f0" font-size="9" text-anchor="middle">15</text>
<text x="70" y="403" fill="#e2e8f0" font-size="13" font-weight="600">本年核心指标趋势（滑动7日窗口平均）</text>
<line x1="70" y1="656.00" x2="930" y2="656.00" stroke="#94a3b8" stroke-opacity="0.18" stroke-width="1" />
<text x="62" y="660.00" fill="#cbd5f5" font-size="10" text-anchor="end">4.17</text>
<line x1="70" y1="593.75" x2="930" y2="593.75" stroke="#94a3b8" stroke-opacity="0.18" stroke-width="1" />
<text x="62" y="597.75" fill="#cbd5f5" font-size="10" text-anchor="end">22.1</text>
<line x1="70" y1="531.50" x2="930" y2="531.50" stroke="#94a3b8" stroke-opacity="0.18" stroke-width="1" />
<text x="62" y="535.50" fill="#cbd5f5" font-size="10" text-anchor="end">40</text>
<line x1="70" y1="469.25" x2="930" y2="469.25" stroke="#94a3b8" stroke-opacity="0.18" stroke-width="1" />
<text x="62" y="473.25" fill="#cbd5f5" font-size="10" text-anchor="end">57.9</text>
<line x1="70" y1="407.00" x2="930" y2="407.00" stroke="#94a3b8" stroke-opacity="0.18" stroke-width="1" />
<text x="62" y="411.00" fill="#cbd5f5" font-size="10" text-anchor="end">75.8</text>
<line x1="70.00" y1="656" x2="70.00" y2="660" stroke="#94a3b8" stroke-opacity="0.5" stroke-width="1" />
<text x="70.00" y="674" fill="#cbd5f5" font-size="10" text-anchor="middle">2025-01</text>
<line x1="242.00" y1="656" x2="242.00" y2="660" stroke="#94a3b8" stroke-opacity="0.5" stroke-width="1" />
<text x="242.00" y="674" fill="#cbd5f5" font-size="10" text-anchor="middle">2025-03</text>
<line x1="414.00" y1="656" x2="414.00" y2="660" stroke="#94a3b8" stroke-opacity="0.5" stroke-width="1" />
<text x="414.00" y="674" fill="#cbd5f5" font-size="10" text-anchor="middle">2025-06</text>
<line x1="586.00" y1="656" x2="586.00" y2="660" stroke="#94a3b8" stroke-opacity="0.5" stroke-width="1" />
<text x="586.00" y="674" fill="#cbd5f5" font-size="10" text-anchor="middle">2025-08</text>
<line x1="758.00" y1="656" x2="758.00" y2="660" stroke="#94a3b8" stroke-opacity="0.5" stroke-width="1" />
<text x="758.00" y="674" fill="#cbd5f5" font-size="10" text-anchor="middle">2025-10</text>
<line x1="930.00" y1="656" x2="930.00" y2="660" stroke="#94a3b8" stroke-opacity="0.5" stroke-width="1" />
<text x="930.00" y="674" fill="#cbd5f5" font-size="10" text-anchor="middle">2025-12</text>
<line x1="70" y1="407" x2="70" y2="656" stroke="#94a3b8" stroke-width="1" />
<line x1="70" y1="656" x2="930" y2="656" stroke="#94a3b8" stroke-width="1" />
<path d="M70.00,656.00 L70.00,465.48 L72.62,550.61 L75.24,558.14 L77.87,551.48 L80.49,554.43 L83.11,567.99 L85.73,555.33 L88.35,545.40 L90.98,535.47 L93.60,539.94 L96.22,531.00 L98.84,503.70 L101.46,480.37 L104.09,471.43 L106.71,497.74 L109.33,503.70 L111.95,505.69 L114.57,527.53 L117.20,567.24 L122.44,593.06 L125.06,626.81 L127.68,626.81 L130.30,630.29 L132.93,628.80 L135.55,633.26 L140.79,635.25 L143.41,635.25 L148.66,627.80 L151.28,612.91 L159.15,607.95 L161.77,602.49 L164.39,590.08 L167.01,564.26 L172.26,564.26 L174.88,567.74 L177.50,584.12 L180.12,582.13 L182.74,505.69 L185.37,516.61 L187.99,514.62 L190.61,490.79 L193.23,493.28 L195.85,499.73 L201.10,499.73 L203.72,551.36 L206.34,552.85 L211.59,573.69 L214.21,589.58 L216.83,577.17 L219.45,507.67 L222.07,485.83 L224.70,513.13 L232.56,476.40 L235.18,471.43 L237.80,479.38 L243.05,488.31 L245.67,543.41 L248.29,572.70 L250.91,550.86 L253.54,501.72 L256.16,479.87 L258.78,460.51 L261.40,448.10 L264.02,453.07 L266.65,433.71 L269.27,427.75 L271.89,506.68 L274.51,522.07 L277.13,525.05 L279.76,537.46 L282.38,544.41 L285.00,547.39 L287.62,565.26 L290.24,549.37 L292.87,532.49 L295.49,536.96 L298.11,534.48 L300.73,523.56 L303.35,520.08 L305.98,523.06 L308.60,527.03 L311.22,522.07 L313.84,512.14 L316.46,501.72 L319.09,498.74 L321.71,489.31 L324.33,497.25 L326.95,510.65 L329.57,518.59 L332.20,488.81 L334.82,496.25 L337.44,499.73 L342.68,508.67 L345.30,506.18 L347.93,463.99 L350.55,475.90 L353.17,503.70 L355.79,506.18 L358.41,521.57 L361.04,536.96 L363.66,537.46 L366.28,578.16 L368.90,578.16 L371.52,597.03 L374.15,589.08 L376.77,582.13 L379.39,582.63 L382.01,588.09 L384.63,584.62 L387.26,590.08 L389.88,577.67 L392.50,588.09 L395.12,583.13 L400.37,547.39 L402.99,547.88 L405.61,544.41 L410.85,538.95 L413.48,536.46 L416.10,525.05 L418.72,524.05 L421.34,553.34 L423.96,524.05 L426.59,524.05 L429.21,530.01 L431.83,545.40 L434.45,557.31 L437.07,560.29 L439.70,568.73 L444.94,590.08 L447.56,595.54 L450.18,585.61 L452.80,585.11 L455.43,585.11 L458.05,590.08 L460.67,568.73 L463.29,568.23 L465.91,562.77 L468.54,568.23 L471.16,556.82 L473.78,548.87 L476.40,505.69 L479.02,529.51 L481.65,530.01 L484.27,529.02 L486.89,540.93 L489.51,537.95 L492.13,536.46 L494.76,573.69 L497.38,570.22 L500.00,577.67 L502.62,582.13 L505.24,582.13 L510.49,598.02 L513.11,607.45 L515.73,568.73 L518.35,552.35 L520.98,552.35 L528.84,550.36 L531.46,524.55 L536.71,523.06 L541.95,522.07 L544.57,561.78 L547.20,569.23 L549.82,544.41 L552.44,549.87 L555.06,575.18 L557.68,576.18 L560.30,576.18 L562.93,578.66 L565.55,580.64 L568.17,605.47 L570.79,599.51 L576.04,599.51 L578.66,589.58 L581.28,589.08 L586.52,582.63 L589.15,577.17 L591.77,574.19 L594.39,583.62 L597.01,584.12 L599.63,586.60 L602.26,587.59 L604.88,587.10 L610.12,598.52 L612.74,594.05 L620.61,597.52 L649.45,596.53 L652.07,592.56 L659.94,600.00 L662.56,608.94 L667.80,613.90 L670.43,621.85 L678.29,615.39 L680.91,606.46 L683.54,611.92 L688.78,606.46 L699.27,605.96 L701.89,601.49 L704.51,603.48 L715.00,596.53 L717.62,604.97 L720.24,608.44 L722.87,606.46 L730.73,575.18 L733.35,577.67 L738.60,562.77 L741.22,558.80 L749.09,561.28 L751.71,567.74 L759.57,568.23 L767.44,598.02 L770.06,589.08 L772.68,590.57 L775.30,601.49 L785.79,605.47 L788.41,597.52 L791.04,583.62 L793.66,584.62 L796.28,592.56 L798.90,603.48 L801.52,604.47 L804.15,599.01 L806.77,593.55 L809.39,606.95 L812.01,607.45 L814.63,609.93 L817.26,614.90 L819.88,615.39 L822.50,611.42 L825.12,617.88 L827.74,611.42 L830.37,608.94 L832.99,602.98 L835.61,597.03 L838.23,593.55 L840.85,597.52 L843.48,594.05 L846.10,566.75 L848.72,562.28 L853.96,565.75 L856.59,565.26 L859.21,566.75 L861.83,567.74 L864.45,565.75 L867.07,600.00 L869.70,598.02 L872.32,598.02 L877.56,592.56 L880.18,533.49 L882.80,519.09 L885.43,527.03 L888.05,527.03 L890.67,539.44 L893.29,539.44 L898.54,546.39 L901.16,600.50 L903.78,612.91 L906.40,612.42 L909.02,612.91 L911.65,609.44 L914.27,603.48 L919.51,576.67 L922.13,586.11 L924.76,579.16 L927.38,579.16 L930.00,578.66 L930.00,656.00 Z" fill="#60a5fa" fill-opacity="0.16" stroke="none" />
<path d="M70.00,465.48 L72.62,550.61 L75.24,558.14 L77.87,551.48 L80.49,554.43 L83.11,567.99 L85.73,555.33 L88.35,545.40 L90.98,535.47 L93.60,539.94 L96.22,531.00 L98.84,503.70 L101.46,480.37 L104.09,471.43 L106.71,497.74 L109.33,503.70 L111.95,505.69 L114.57,527.53 L117.20,567.24 L122.44,593.06 L125.06,626.81 L127.68,626.81 L130.30,630.29 L132.93,628.80 L135.55,633.26 L140.79,635.25 L143.41,635.25 L148.66,627.80 L151.28,612.91 L159.15,607.95 L161.77,602.49 L164.39,590.08 L167.01,564.26 L172.26,564.26 L174.88,567.74 L177.50,584.12 L180.12,582.13 L182.74,505.69 L185.37,516.61 L187.99,514.62 L190.61,490.79 L193.23,493.28 L195.85,499.73 L201.10,499.73 L203.72,551.36 L206.34,552.85 L211.59,573.69 L214.21,589.58 L216.83,577.17 L219.45,507.67 L222.07,485.83 L224.70,513.13 L232.56,476.40 L235.18,471.43 L237.80,479.38 L243.05,488.31 L245.67,543.41 L248.29,572.70 L250.91,550.86 L253.54,501.72 L256.16,479.87 L258.78,460.51 L261.40,448.10 L264.02,453.07 L266.65,433.71 L269.27,427.75 L271.89,506.68 L274.51,522.07 L277.13,525.05 L279.76,537.46 L282.38,544.41 L285.00,547.39 L287.62,565.26 L290.24,549.37 L292.87,532.49 L295.49,536.96 L298.11,534.48 L300.73,523.56 L303.35,520.08 L305.98,523.06 L308.60,527.03 L311.22,522.07 L313.84,512.14 L316.46,501.72 L319.09,498.74 L321.71,489.31 L324.33,497.25 L326.95,510.65 L329.57,518.59 L332.20,488.81 L334.82,496.25 L337.44,499.73 L342.68,508.67 L345.30,506.18 L347.93,463.99 L350.55,475.90 L353.17,503.70 L355.79,506.18 L358.41,521.57 L361.04,536.96 L363.66,537.46 L366.28,578.16 L368.90,578.16 L371.52,597.03 L374.15,589.08 L376.77,582.13 L379.39,582.63 L382.01,588.09 L384.63,584.62 L387.26,590.08 L389.88,577.67 L392.50,588.09 L395.12,583.13 L400.37,547.39 L402.99,547.88 L405.61,544.41 L410.85,538.95 L413.48,536.46 L416.10,525.05 L418.72,524.05 L421.34,553.34 L423.96,524.05 L426.59,524.05 L429.21,530.01 L431.83,545.40 L434.45,557.31 L437.07,560.29 L439.70,568.73 L444.94,590.08 L447.56,595.54 L450.18,585.61 L452.80,585.11 L455.43,585.11 L458.05,590.08 L460.67,568.73 L463.29,568.23 L465.91,562.77 L468.54,568.23 L471.16,556.82 L473.78,548.87 L476.40,505.69 L479.02,529.51 L481.65,530.01 L484.27,529.02 L486.89,540.93 L489.51,537.95 L492.13,536.46 L494.76,573.69 L497.38,570.22 L500.00,577.67 L502.62,582.13 L505.24,582.13 L510.49,598.02 L513.11,607.45 L515.73,568.73 L518.35,552.35 L520.98,552.35 L528.84,550.36 L531.46,524.55 L536.71,523.06 L541.95,522.07 L544.57,561.78 L547.20,569.23 L549.82,544.41 L552.44,549.87 L555.06,575.18 L557.68,576.18 L560.30,576.18 L562.93,578.66 L565.55,580.64 L568.17,605.47 L570.79,599.51 L576.04,599.51 L578.66,589.58 L581.28,589.08 L586.52,582.63 L589.15,577.17 L591.77,574.19 L594.39,583.62 L597.01,584.12 L599.63,586.60 L602.26,587.59 L604.88,587.10 L610.12,598.52 L612.74,594.05 L620.61,597.52 L649.45,596.53 L652.07,592.56 L659.94,600.00 L662.56,608.94 L667.80,613.90 L670.43,621.85 L678.29,615.39 L680.91,606.46 L683.54,611.92 L688.78,606.46 L699.27,605.96 L701.89,601.49 L704.51,603.48 L715.00,596.53 L717.62,604.97 L720.24,608.44 L722.87,606.46 L730.73,575.18 L733.35,577.67 L738.60,562.77 L741.22,558.80 L749.09,561.28 L751.71,567.74 L759.57,568.23 L767.44,598.02 L770.06,589.08 L772.68,590.57 L775.30,601.49 L785.79,605.47 L788.41,597.52 L791.04,583.62 L793.66,584.62 L796.28,592.56 L798.90,603.48 L801.52,604.47 L804.15,599.01 L806.77,593.55 L809.39,606.95 L812.01,607.45 L814.63,609.93 L817.26,614.90 L819.88,615.39 L822.50,611.42 L825.12,617.88 L827.74,611.42 L830.37,608.94 L832.99,602.98 L835.61,597.03 L838.23,593.55 L840.85,597.52 L843.48,594.05 L846.10,566.75 L848.72,562.28 L853.96,565.75 L856.59,565.26 L859.21,566.75 L861.83,567.74 L864.45,565.75 L867.07,600.00 L869.70,598.02 L872.32,598.02 L877.56,592.56 L880.18,533.49 L882.80,519.09 L885.43,527.03 L888.05,527.03 L890.67,539.44 L893.29,539.44 L898.54,546.39 L901.16,600.50 L903.78,612.91 L906.40,612.42 L909.02,612.91 L911.65,609.44 L914.27,603.48 L919.51,576.67 L922.13,586.11 L924.76,579.16 L927.38,579.16 L930.00,578.66" fill="none" stroke="#60a5fa" stroke-width="2.2" stroke-linecap="round" />
</svg>
