<svg xmlns="http://www.w3.org/2000/svg" viewBox="0 0 960 640" width="960" height="640">
  <rect width="960" height="640" fill="#0f172a" />
  <line x1="40" y1="40.00" x2="920.00" y2="40.00" stroke="#94a3b8" stroke-opacity="0.18" stroke-width="1" /><line x1="40" y1="128.00" x2="920.00" y2="128.00" stroke="#94a3b8" stroke-opacity="0.18" stroke-width="1" /><line x1="40" y1="216.00" x2="920.00" y2="216.00" stroke="#94a3b8" stroke-opacity="0.18" stroke-width="1" /><line x1="40" y1="304.00" x2="920.00" y2="304.00" stroke="#94a3b8" stroke-opacity="0.18" stroke-width="1" />
  <line x1="40" y1="336.00" x2="920.00" y2="336.00" stroke="#94a3b8" stroke-opacity="0.18" stroke-width="1" /><line x1="40" y1="424.00" x2="920.00" y2="424.00" stroke="#94a3b8" stroke-opacity="0.18" stroke-width="1" /><line x1="40" y1="512.00" x2="920.00" y2="512.00" stroke="#94a3b8" stroke-opacity="0.18" stroke-width="1" /><line x1="40" y1="600.00" x2="920.00" y2="600.00" stroke="#94a3b8" stroke-opacity="0.18" stroke-width="1" />
  <line x1="40" y1="320.00" x2="920.00" y2="320.00" stroke="#1f2937" stroke-width="1" />
  <polyline points="40.00,148.35 70.34,188.12 100.69,227.96 131.03,162.09 161.38,235.89 191.72,170.29 222.07,154.09 252.41,123.77 282.76,76.83 313.10,184.04 343.45,40.00 373.79,172.34 404.14,178.17 434.48,123.14 464.83,165.26 495.17,115.63 525.52,235.14 555.86,304.00 586.21,226.83 616.55,202.23 646.90,138.16 677.24,135.68 707.59,147.55 737.93,141.28 768.28,245.27 798.62,176.50 828.97,111.68 859.31,207.76 889.66,101.93 920.00,229.65" fill="none" stroke="#60a5fa" stroke-width="2" stroke-linecap="round" stroke-linejoin="round" />
  <polyline points="40.00,516.12 42.42,506.97 44.84,512.84 47.25,514.58 49.67,517.84 52.09,522.71 54.51,521.15 56.92,526.06 59.34,539.17 61.76,588.48 64.18,582.60 66.59,583.17 69.01,586.23 71.43,586.36 73.85,582.71 76.26,585.00 78.68,599.45 81.10,583.90 83.52,583.06 85.93,582.99 88.35,582.46 90.77,583.89 93.19,578.54 95.60,581.22 98.02,588.67 100.44,585.17 102.86,580.41 105.27,576.79 107.69,578.38 110.11,579.19 112.53,572.26 114.95,585.71 117.36,583.50 119.78,587.54 122.20,590.99 124.62,591.55 127.03,571.49 129.45,569.31 131.87,557.89 134.29,572.57 136.70,565.85 139.12,552.15 141.54,555.99 143.96,526.80 146.37,491.68 148.79,508.82 151.21,488.58 153.63,486.16 156.04,484.49 158.46,477.62 160.88,525.91 163.30,552.91 165.71,542.49 168.13,534.31 170.55,534.80 172.97,536.35 175.38,532.08 177.80,518.68 180.22,530.96 182.64,512.98 185.05,522.28 187.47,521.47 189.89,519.87 192.31,516.95 194.73,517.36 197.14,514.81 199.56,519.77 201.98,517.12 204.40,506.79 206.81,506.37 209.23,498.89 211.65,506.24 214.07,496.94 216.48,449.91 218.90,451.41 221.32,450.65 223.74,449.64 226.15,416.58 228.57,395.11 230.99,358.37 233.41,415.02 235.82,409.19 238.24,404.09 240.66,399.29 243.08,429.97 245.49,444.85 247.91,490.72 250.33,479.12 252.75,489.21 255.16,504.62 257.58,499.72 260.00,496.95 262.42,494.34 264.84,474.09 267.25,453.29 269.67,447.45 272.09,437.19 274.51,445.64 276.92,418.84 279.34,422.95 281.76,434.14 284.18,458.89 286.59,448.95 289.01,439.06 291.43,431.16 293.85,460.01 296.26,427.13 298.68,386.97 301.10,388.41 303.52,401.58 305.93,406.84 308.35,404.00 310.77,397.61 313.19,420.06 315.60,471.38 318.02,480.41 320.44,466.73 322.86,467.21 325.27,470.77 327.69,467.49 330.11,474.80 332.53,426.11 334.95,421.14 337.36,432.81 339.78,440.81 342.20,441.54 344.62,443.24 347.03,436.48 349.45,466.66 351.87,454.74 354.29,452.64 356.70,434.27 359.12,426.57 361.54,453.20 363.96,456.35 366.37,427.26 368.79,403.86 371.21,396.33 373.63,420.07 376.04,437.45 378.46,400.97 380.88,413.32 383.30,440.14 385.71,432.67 388.13,434.09 390.55,421.59 392.97,418.55 395.38,430.79 397.80,424.18 400.22,442.97 402.64,487.62 405.05,490.84 407.47,493.89 409.89,495.15 412.31,505.46 414.73,503.18 417.14,479.69 419.56,472.99 421.98,464.58 424.40,475.69 426.81,473.57 429.23,476.91 431.65,479.59 434.07,508.80 436.48,514.85 438.90,543.39 441.32,538.66 443.74,542.84 446.15,543.80 448.57,556.34 450.99,556.36 453.41,561.74 455.82,550.14 458.24,550.74 460.66,546.02 463.08,539.95 465.49,514.81 467.91,505.79 470.33,492.72 472.75,489.81 475.16,493.98 477.58,500.59 480.00,497.97 482.42,513.88 484.84,510.95 487.25,504.33 489.67,511.73 492.09,493.48 494.51,488.51 496.92,488.75 499.34,496.28 501.76,474.24 504.18,492.28 506.59,485.12 509.01,480.29 511.43,492.14 513.85,501.18 516.26,504.43 518.68,532.54 521.10,532.30 523.52,539.24 525.93,551.35 528.35,542.03 530.77,538.10 533.19,530.80 535.60,508.17 538.02,490.77 540.44,474.91 542.86,484.73 545.27,485.94 547.69,473.04 550.11,470.96 552.53,487.58 554.95,509.76 557.36,515.03 559.78,511.04 562.20,521.20 564.62,523.53 567.03,522.91 569.45,505.51 571.87,504.24 574.29,514.83 576.70,520.83 579.12,516.36 581.54,527.43 583.96,532.44 586.37,537.22 588.79,521.79 591.21,525.69 593.63,522.86 596.04,516.05 598.46,528.08 600.88,511.13 603.30,534.06 605.71,542.24 608.13,540.64 610.55,548.03 612.97,557.79 615.38,543.03 617.80,561.86 620.22,553.07 622.64,547.85 625.05,538.11 627.47,527.22 629.89,518.53 632.31,520.58 634.73,511.54 637.14,431.16 639.56,423.77 641.98,441.41 644.40,454.13 646.81,466.92 649.23,476.65 651.65,484.12 654.07,579.79 656.48,600.00 658.90,593.81 661.32,579.87 663.74,567.15 666.15,563.54 668.57,543.50 670.99,507.15 673.41,503.05 675.82,499.27 678.24,500.11 680.66,502.77 683.08,499.13 685.49,503.61 687.91,513.33 690.33,514.46 692.75,502.64 695.16,493.41 697.58,486.97 700.00,481.45 702.42,478.72 704.84,496.54 707.25,492.79 709.67,494.33 712.09,497.84 714.51,522.47 716.92,520.16 719.34,517.60 721.76,517.30 724.18,488.02 726.59,488.46 729.01,489.62 731.43,480.00 733.85,505.94 736.26,513.71 738.68,517.73 741.10,557.21 743.52,544.15 745.93,521.33 748.35,509.62 750.77,487.86 753.19,492.86 755.60,474.81 758.02,462.61 760.44,469.34 762.86,488.31 765.27,471.55 767.69,455.97 770.11,461.25 772.53,461.74 774.95,462.61 777.36,458.25 779.78,460.15 782.20,457.35 784.62,471.31 787.03,466.12 789.45,442.06 791.87,442.92 794.29,449.78 796.70,451.70 799.12,467.79 801.54,473.25 803.96,472.26 806.37,475.90 808.79,432.83 811.21,440.31 813.63,427.59 816.04,415.57 818.46,410.84 820.88,410.01 823.30,336.00 825.71,383.06 828.13,377.02 830.55,401.19 832.97,416.87 835.38,425.29 837.80,437.01 840.22,545.84 842.64,547.81 845.05,551.87 847.47,548.85 849.89,541.50 852.31,532.67 854.73,524.13 857.14,505.70 859.56,495.35 861.98,489.82 864.40,479.10 866.81,475.71 869.23,460.39 871.65,454.34 874.07,437.52 876.48,428.77 878.90,429.86 881.32,425.59 883.74,431.31 886.15,436.65 888.57,443.69 890.99,480.05 893.41,487.55 895.82,490.87 898.24,492.94 900.66,488.86 903.08,493.26 905.49,480.33 907.91,472.24 910.33,465.31 912.75,452.84 915.16,462.43 917.58,457.78 920.00,469.08" fill="none" stroke="#60a5fa" stroke-width="2" stroke-linecap="round" stroke-linejoin="round" />
  
  
  </svg>