<svg xmlns="http://www.w3.org/2000/svg" viewBox="0 0 960 720" width="960" height="720">
<rect width="960" height="720" fill="#0f172a" />
<text x="480" y="28" fill="#e2e8f0" font-size="16" font-weight="700" text-anchor="middle">骑行距离趋势图</text>
<text x="70" y="70" fill="#e2e8f0" font-size="13" font-weight="600">本月分天指标明细</text>
<line x1="70" y1="323.00" x2="930" y2="323.00" stroke="#94a3b8" stroke-opacity="0.18" stroke-width="1" />
<text x="62" y="327.00" fill="#cbd5f5" font-size="10" text-anchor="end">-0.2</text>
<line x1="70" y1="260.75" x2="930" y2="260.75" stroke="#94a3b8" stroke-opacity="0.18" stroke-width="1" />
<text x="62" y="264.75" fill="#cbd5f5" font-size="10" text-anchor="end">-0.1</text>
<line x1="70" y1="198.50" x2="930" y2="198.50" stroke="#94a3b8" stroke-opacity="0.18" stroke-width="1" />
<text x="62" y="202.50" fill="#cbd5f5" font-size="10" text-anchor="end">0</text>
<line x1="70" y1="136.25" x2="930" y2="136.25" stroke="#94a3b8" stroke-opacity="0.18" stroke-width="1" />
<text x="62" y="140.25" fill="#cbd5f5" font-size="10" text-anchor="end">0.1</text>
<line x1="70" y1="74.00" x2="930" y2="74.00" stroke="#94a3b8" stroke-opacity="0.18" stroke-width="1" />
<text x="62" y="78.00" fill="#cbd5f5" font-size="10" text-anchor="end">0.21</text>
<line x1="70.00" y1="323" x2="70.00" y2="327" stroke="#94a3b8" stroke-opacity="0.5" stroke-width="1" />
<text x="70.00" y="341" fill="#cbd5f5" font-size="10" text-anchor="middle">11-22</text>
<line x1="242.00" y1="323" x2="242.00" y2="327" stroke="#94a3b8" stroke-opacity="0.5" stroke-width="1" />
<text x="242.00" y="341" fill="#cbd5f5" font-size="10" text-anchor="middle">11-27</text>
<line x1="414.00" y1="323" x2="414.00" y2="327" stroke="#94a3b8" stroke-opacity="0.5" stroke-width="1" />
<text x="414.00" y="341" fill="#cbd5f5" font-size="10" text-anchor="middle">12-03</text>
<line x1="586.00" y1="323" x2="586.00" y2="327" stroke="#94a3b8" stroke-opacity="0.5" stroke-width="1" />
<text x="586.00" y="341" fill="#cbd5f5" font-size="10" text-anchor="middle">12-09</text>
<line x1="758.00" y1="323" x2="758.00" y2="327" stroke="#94a3b8" stroke-opacity="0.5" stroke-width="1" />
<text x="758.00" y="341" fill="#cbd5f5" font-size="10" text-anchor="middle">12-15</text>
<line x1="930.00" y1="323" x2="930.00" y2="327" stroke="#94a3b8" stroke-opacity="0.5" stroke-width="1" />
<text x="930.00" y="341" fill="#cbd5f5" font-size="10" text-anchor="middle">12-21</text>
<line x1="70" y1="74" x2="70" y2="323" stroke="#94a3b8" stroke-width="1" />
<line x1="70" y1="323" x2="930" y2="323" stroke="#94a3b8" stroke-width="1" />
<path d="M70.00,197.85 L99.66,197.29 L129.31,200.52 L158.97,199.16 L188.62,197.89 L218.28,197.82 L247.93,200.52 L277.59,200.52 L307.24,200.52 L336.90,199.13 L366.55,198.25 L396.21,197.99 L425.86,197.86 L455.52,197.87 L485.17,197.79 L514.83,197.82 L544.48,198.52 L574.14,199.20 L603.79,197.89 L633.45,197.84 L663.10,198.39 L692.76,200.52 L722.41,198.40 L752.07,198.47 L781.72,196.48 L811.38,197.86 L841.03,197.82 L870.69,197.76 L900.34,199.11 L930.00,199.05" fill="none" stroke="#60a5fa" stroke-width="2.2" stroke-linecap="round" />
<circle cx="70.00" cy="197.85" r="3" fill="#60a5fa" stroke="#0f172a" stroke-width="1" />
<text x="70.00" y="187.85" fill="#e2e8f0" font-size="9" text-anchor="middle">0</text>
<circle cx="99.66" cy="197.29" r="3" fill="#60a5fa" stroke="#0f172a" stroke-width="1" />
<text x="99.66" y="177.29" fill="#e2e8f0" font-size="9" text-anchor="middle">0.01</text>
<circle cx="129.31" cy="200.52" r="3" fill="#60a5fa" stroke="#0f172a" stroke-width="1" />
<text x="129.31" y="190.52" fill="#e2e8f0" font-size="9" text-anchor="middle">0</text>
<circle cx="158.97" cy="199.16" r="3" fill="#60a5fa" stroke="#0f172a" stroke-width="1" />
<text x="158.97" y="179.16" fill="#e2e8f0" font-size="9" text-anchor="middle">0</text>
<circle cx="188.62" cy="197.89" r="3" fill="#60a5fa" stroke="#0f172a" stroke-width="1" />
<text x="188.62" y="187.89" fill="#e2e8f0" font-size="9" text-anchor="middle">0</text>
<circle cx="218.28" cy="197.82" r="3" fill="#60a5fa" stroke="#0f172a" stroke-width="1" />
<text x="218.28" y="177.82" fill="#e2e8f0" font-size="9" text-anchor="middle">0</text>
<circle cx="247.93" cy="200.52" r="3" fill="#60a5fa" stroke="#0f172a" stroke-width="1" />
<text x="247.93" y="190.52" fill="#e2e8f0" font-size="9" text-anchor="middle">0</text>
<circle cx="277.59" cy="200.52" r="3" fill="#60a5fa" stroke="#0f172a" stroke-width="1" />
<text x="277.59" y="180.52" fill="#e2e8f0" font-size="9" text-anchor="middle">0</text>
<circle cx="307.24" cy="200.52" r="3" fill="#60a5fa" stroke="#0f172a" stroke-width="1" />
<text x="307.24" y="190.52" fill="#e2e8f0" font-size="9" text-anchor="middle">0</text>
<circle cx="336.90" cy="199.13" r="3" fill="#60a5fa" stroke="#0f172a" stroke-width="1" />
<text x="336.90" y="179.13" fill="#e2e8f0" font-size="9" text-anchor="middle">0</text>
<circle cx="366.55" cy="198.25" r="3" fill="#60a5fa" stroke="#0f172a" stroke-width="1" />
<text x="366.55" y="188.25" fill="#e2e8f0" font-size="9" text-anchor="middle">0</text>
<circle cx="396.21" cy="197.99" r="3" fill="#60a5fa" stroke="#0f172a" stroke-width="1" />
<text x="396.21" y="177.99" fill="#e2e8f0" font-size="9" text-anchor="middle">0</text>
<circle cx="425.86" cy="197.86" r="3" fill="#60a5fa" stroke="#0f172a" stroke-width="1" />
<text x="425.86" y="187.86" fill="#e2e8f0" font-size="9" text-anchor="middle">0</text>
<circle cx="455.52" cy="197.87" r="3" fill="#60a5fa" stroke="#0f172a" stroke-width="1" />
<text x="455.52" y="177.87" fill="#e2e8f0" font-size="9" text-anchor="middle">0</text>
<circle cx="485.17" cy="197.79" r="3" fill="#60a5fa" stroke="#0f172a" stroke-width="1" />
<text x="485.17" y="187.79" fill="#e2e8f0" font-size="9" text-anchor="middle">0</text>
<circle cx="514.83" cy="197.82" r="3" fill="#60a5fa" stroke="#0f172a" stroke-width="1" />
<text x="514.83" y="177.82" fill="#e2e8f0" font-size="9" text-anchor="middle">0</text>
<circle cx="544.48" cy="198.52" r="3" fill="#60a5fa" stroke="#0f172a" stroke-width="1" />
<text x="544.48" y="188.52" fill="#e2e8f0" font-size="9" text-anchor="middle">0</text>
<circle cx="574.14" cy="199.20" r="3" fill="#60a5fa" stroke="#0f172a" stroke-width="1" />
<text x="574.14" y="179.20" fill="#e2e8f0" font-size="9" text-anchor="middle">0</text>
<circle cx="603.79" cy="197.89" r="3" fill="#60a5fa" stroke="#0f172a" stroke-width="1" />
<text x="603.79" y="187.89" fill="#e2e8f0" font-size="9" text-anchor="middle">0</text>
<circle cx="633.45" cy="197.84" r="3" fill="#60a5fa" stroke="#0f172a" stroke-width="1" />
<text x="633.45" y="177.84" fill="#e2e8f0" font-size="9" text-anchor="middle">0</text>
<circle cx="663.10" cy="198.39" r="3" fill="#60a5fa" stroke="#0f172a" stroke-width="1" />
<text x="663.10" y="188.39" fill="#e2e8f0" font-size="9" text-anchor="middle">0</text>
<circle cx="692.76" cy="200.52" r="3" fill="#60a5fa" stroke="#0f172a" stroke-width="1" />
<text x="692.76" y="180.52" fill="#e2e8f0" font-size="9" text-anchor="middle">0</text>
<circle cx="722.41" cy="198.40" r="3" fill="#60a5fa" stroke="#0f172a" stroke-width="1" />
<text x="722.41" y="188.40" fill="#e2e8f0" font-size="9" text-anchor="middle">0</text>
<circle cx="752.07" cy="198.47" r="3" fill="#60a5fa" stroke="#0f172a" stroke-width="1" />
<text x="752.07" y="178.47" fill="#e2e8f0" font-size="9" text-anchor="middle">0</text>
<circle cx="781.72" cy="196.48" r="3" fill="#60a5fa" stroke="#0f172a" stroke-width="1" />
<text x="781.72" y="186.48" fill="#e2e8f0" font-size="9" text-anchor="middle">0.01</text>
<circle cx="811.38" cy="197.86" r="3" fill="#60a5fa" stroke="#0f172a" stroke-width="1" />
<text x="811.38" y="177.86" fill="#e2e8f0" font-size="9" text-anchor="middle">0</text>
<circle cx="841.03" cy="197.82" r="3" fill="#60a5fa" stroke="#0f172a" stroke-width="1" />
<text x="841.03" y="187.82" fill="#e2e8f0" font-size="9" text-anchor="middle">0</text>
<circle cx="870.69" cy="197.76" r="3" fill="#60a5fa" stroke="#0f172a" stroke-width="1" />
<text x="870.69" y="177.76" fill="#e2e8f0" font-size="9" text-anchor="middle">0</text>
<circle cx="900.34" cy="199.11" r="3" fill="#60a5fa" stroke="#0f172a" stroke-width="1" />
<text x="900.34" y="189.11" fill="#e2e8f0" font-size="9" text-anchor="middle">0</text>
<circle cx="930.00" cy="199.05" r="3" fill="#60a5fa" stroke="#0f172a" stroke-width="1" />
<text x="930.00" y="179.05" fill="#e2e8f0" font-size="9" text-anchor="middle">0</text>
<text x="70" y="403" fill="#e2e8f0" font-size="13" font-weight="600">本年核心指标趋势（滑动7日窗口平均）</text>
<line x1="70" y1="656.00" x2="930" y2="656.00" stroke="#94a3b8" stroke-opacity="0.18" stroke-width="1" />
<text x="62" y="660.00" fill="#cbd5f5" font-size="10" text-anchor="end">-0.2</text>
<line x1="70" y1="593.75" x2="930" y2="593.75" stroke="#94a3b8" stroke-opacity="0.18" stroke-width="1" />
<text x="62" y="597.75" fill="#cbd5f5" font-size="10" text-anchor="end">-0.1</text>
<line x1="70" y1="531.50" x2="930" y2="531.50" stroke="#94a3b8" stroke-opacity="0.18" stroke-width="1" />
<text x="62" y="535.50" fill="#cbd5f5" font-size="10" text-anchor="end">0.01</text>
<line x1="70" y1="469.25" x2="930" y2="469.25" stroke="#94a3b8" stroke-opacity="0.18" stroke-width="1" />
<text x="62" y="473.25" fill="#cbd5f5" font-size="10" text-anchor="end">0.11</text>
<line x1="70" y1="407.00" x2="930" y2="407.00" stroke="#94a3b8" stroke-opacity="0.18" stroke-width="1" />
<text x="62" y="411.00" fill="#cbd5f5" font-size="10" text-anchor="end">0.21</text>
<line x1="70.00" y1="656" x2="70.00" y2="660" stroke="#94a3b8" stroke-opacity="0.5" stroke-width="1" />
<text x="70.00" y="674" fill="#cbd5f5" font-size="10" text-anchor="middle">2024-12</text>
<line x1="242.00" y1="656" x2="242.00" y2="660" stroke="#94a3b8" stroke-opacity="0.5" stroke-width="1" />
<text x="242.00" y="674" fill="#cbd5f5" font-size="10" text-anchor="middle">2025-03</text>
<line x1="414.00" y1="656" x2="414.00" y2="660" stroke="#94a3b8" stroke-opacity="0.5" stroke-width="1" />
<text x="414.00" y="674" fill="#cbd5f5" font-size="10" text-anchor="middle">2025-05</text>
<line x1="586.00" y1="656" x2="586.00" y2="660" stroke="#94a3b8" stroke-opacity="0.5" stroke-width="1" />
<text x="586.00" y="674" fill="#cbd5f5" font-size="10" text-anchor="middle">2025-07</text>
<line x1="758.00" y1="656" x2="758.00" y2="660" stroke="#94a3b8" stroke-opacity="0.5" stroke-width="1" />
<text x="758.00" y="674" fill="#cbd5f5" font-size="10" text-anchor="middle">2025-10</text>
<line x1="930.00" y1="656" x2="930.00" y2="660" stroke="#94a3b8" stroke-opacity="0.5" stroke-width="1" />
<text x="930.00" y="674" fill="#cbd5f5" font-size="10" text-anchor="middle">2025-12</text>
<line x1="70" y1="407" x2="70" y2="656" stroke="#94a3b8" stroke-width="1" />
<line x1="70" y1="656" x2="930" y2="656" stroke="#94a3b8" stroke-width="1" />
<path d="M70.00,656.00 L70.00,535.30 L72.36,535.30 L74.73,535.30 L77.09,535.30 L79.45,535.30 L81.81,535.30 L84.18,535.30 L86.54,535.30 L88.90,535.30 L91.26,535.30 L93.63,535.30 L95.99,535.30 L98.35,535.30 L100.71,535.30 L103.08,535.30 L105.44,535.30 L107.80,535.30 L110.16,535.30 L112.53,535.30 L114.89,535.30 L117.25,535.30 L119.62,535.30 L121.98,535.30 L124.34,535.30 L126.70,535.30 L129.07,535.30 L131.43,535.30 L133.79,535.30 L136.15,535.30 L138.52,535.30 L140.88,535.30 L143.24,535.30 L145.60,535.30 L147.97,535.03 L150.33,534.68 L152.69,534.68 L155.05,534.68 L157.42,534.68 L159.78,534.68 L162.14,534.68 L164.51,534.95 L166.87,534.96 L169.23,534.96 L171.59,534.68 L173.96,534.68 L176.32,534.68 L178.68,534.68 L181.04,534.68 L183.41,534.54 L185.77,534.36 L188.13,534.47 L190.49,534.18 L192.86,534.01 L195.22,533.68 L197.58,533.43 L199.95,533.56 L202.31,533.39 L204.67,533.24 L207.03,533.20 L209.40,533.02 L211.76,533.04 L214.12,532.76 L216.48,532.93 L218.85,532.90 L221.21,532.98 L223.57,532.99 L225.93,532.96 L228.30,533.11 L230.66,532.97 L233.02,532.74 L235.38,533.06 L237.75,533.14 L240.11,533.14 L242.47,533.34 L244.84,533.17 L247.20,533.59 L249.56,534.00 L251.92,534.05 L254.29,534.21 L256.65,534.21 L259.01,534.04 L261.37,534.03 L263.74,533.97 L266.10,533.59 L268.46,533.25 L270.82,532.91 L273.19,532.90 L275.55,533.01 L277.91,533.00 L280.27,533.16 L282.64,533.09 L285.00,533.13 L287.36,533.25 L289.73,533.35 L292.09,533.42 L294.45,533.59 L296.81,533.50 L299.18,533.69 L301.54,533.99 L303.90,533.88 L306.26,533.77 L308.63,533.76 L310.99,533.60 L313.35,533.85 L315.71,534.11 L318.08,533.79 L320.44,533.79 L322.80,533.79 L325.16,533.64 L327.53,533.64 L329.89,533.47 L332.25,533.08 L334.62,533.04 L336.98,533.04 L339.34,533.03 L341.70,533.17 L344.07,533.20 L346.43,533.19 L348.79,533.44 L351.15,533.61 L353.52,533.61 L355.88,533.68 L358.24,533.52 L360.60,533.64 L362.97,533.70 L365.33,533.47 L367.69,533.38 L370.05,533.55 L372.42,533.77 L374.78,534.01 L377.14,533.84 L379.51,533.75 L381.87,534.12 L384.23,534.21 L386.59,534.03 L388.96,533.92 L391.32,534.03 L393.68,534.16 L396.04,534.07 L398.41,534.07 L400.77,534.25 L403.13,534.48 L405.49,534.32 L407.86,533.99 L410.22,534.04 L412.58,534.07 L414.95,533.88 L417.31,533.51 L419.67,533.47 L422.03,533.52 L424.40,533.45 L426.76,533.16 L429.12,533.14 L431.48,533.24 L433.85,533.60 L436.21,533.62 L438.57,533.70 L440.93,533.81 L443.30,534.09 L445.66,534.00 L448.02,533.71 L450.38,533.31 L452.75,527.99 L455.11,527.99 L457.47,527.91 L459.84,527.72 L462.20,527.70 L464.56,527.71 L466.92,527.71 L469.29,532.81 L471.65,532.81 L474.01,532.79 L476.37,532.80 L478.74,532.73 L481.10,533.11 L483.46,533.51 L485.82,533.53 L488.19,533.53 L490.55,533.57 L492.91,533.57 L495.27,533.09 L497.64,532.03 L500.00,531.63 L502.36,531.61 L504.73,531.42 L507.09,531.40 L509.45,531.38 L511.81,531.94 L514.18,532.59 L516.54,532.61 L518.90,532.61 L521.26,532.61 L523.63,532.61 L525.99,532.62 L528.35,532.62 L530.71,532.70 L533.08,532.70 L535.44,532.90 L537.80,532.81 L540.16,532.80 L542.53,532.99 L544.89,533.17 L547.25,533.31 L549.62,533.49 L551.98,533.49 L554.34,533.60 L556.70,533.98 L559.07,534.18 L561.43,534.01 L563.79,533.78 L566.15,533.99 L568.52,533.97 L570.88,534.07 L573.24,533.88 L575.60,533.70 L577.97,533.29 L580.33,533.70 L582.69,533.48 L585.05,533.50 L587.42,533.38 L589.78,533.37 L592.14,533.21 L594.51,533.60 L596.87,533.60 L599.23,533.40 L601.59,533.47 L603.96,533.65 L606.32,533.45 L608.68,533.41 L611.04,533.79 L613.41,533.35 L615.77,533.34 L618.13,533.26 L620.49,533.27 L622.86,533.27 L625.22,533.49 L627.58,533.11 L629.95,533.15 L632.31,533.57 L634.67,533.57 L637.03,533.58 L639.40,533.96 L641.76,534.14 L644.12,534.51 L646.48,534.92 L648.85,534.92 L651.21,535.11 L653.57,535.30 L655.93,535.30 L658.30,535.30 L660.66,535.30 L663.02,535.30 L665.38,535.30 L667.75,535.10 L670.11,534.72 L672.47,534.33 L674.84,533.96 L677.20,533.77 L679.56,533.77 L681.92,533.56 L684.29,533.57 L686.65,533.57 L689.01,533.58 L691.37,533.56 L693.74,533.38 L696.10,532.99 L698.46,532.81 L700.82,532.74 L703.19,532.74 L705.55,532.74 L707.91,532.76 L710.27,532.75 L712.64,533.14 L715.00,533.13 L717.36,533.05 L719.73,533.24 L722.09,533.62 L724.45,533.61 L726.81,533.61 L729.18,533.22 L731.54,533.23 L733.90,533.19 L736.26,533.00 L738.63,533.00 L740.99,533.38 L743.35,533.76 L745.71,534.15 L748.08,534.54 L750.44,534.92 L752.80,535.30 L755.16,535.30 L757.53,535.30 L759.89,534.92 L762.25,534.85 L764.62,534.65 L766.98,534.28 L769.34,533.91 L771.70,533.52 L774.07,533.14 L776.43,533.14 L778.79,532.84 L781.15,532.63 L783.52,532.62 L785.88,532.61 L788.24,532.62 L790.60,532.62 L792.97,531.10 L795.33,531.08 L797.69,530.90 L800.05,530.92 L802.42,530.93 L804.78,531.05 L807.14,531.25 L809.51,532.77 L811.87,533.12 L814.23,533.31 L816.59,533.29 L818.96,533.29 L821.32,533.18 L823.68,532.99 L826.04,532.98 L828.41,532.57 L830.77,532.57 L833.13,532.57 L835.49,532.56 L837.86,532.60 L840.22,532.60 L842.58,532.62 L844.95,532.72 L847.31,532.73 L849.67,532.68 L852.03,532.69 L854.40,532.65 L856.76,532.64 L859.12,532.21 L861.48,532.19 L863.85,532.12 L866.21,532.55 L868.57,532.74 L870.93,532.73 L873.30,532.74 L875.66,533.53 L878.02,533.90 L880.38,534.36 L882.75,534.16 L885.11,534.03 L887.47,534.05 L889.84,534.05 L892.20,533.68 L894.56,533.30 L896.92,532.92 L899.29,532.83 L901.65,532.96 L904.01,532.95 L906.37,532.95 L908.74,533.02 L911.10,533.40 L913.46,533.49 L915.82,533.48 L918.19,533.09 L920.55,533.09 L922.91,533.09 L925.27,533.00 L927.64,532.80 L930.00,532.89 L930.00,656.00 Z" fill="#60a5fa" fill-opacity="0.16" stroke="none" />
<path d="M70.00,535.30 L72.36,535.30 L74.73,535.30 L77.09,535.30 L79.45,535.30 L81.81,535.30 L84.18,535.30 L86.54,535.30 L88.90,535.30 L91.26,535.30 L93.63,535.30 L95.99,535.30 L98.35,535.30 L100.71,535.30 L103.08,535.30 L105.44,535.30 L107.80,535.30 L110.16,535.30 L112.53,535.30 L114.89,535.30 L117.25,535.30 L119.62,535.30 L121.98,535.30 L124.34,535.30 L126.70,535.30 L129.07,535.30 L131.43,535.30 L133.79,535.30 L136.15,535.30 L138.52,535.30 L140.88,535.30 L143.24,535.30 L145.60,535.30 L147.97,535.03 L150.33,534.68 L152.69,534.68 L155.05,534.68 L157.42,534.68 L159.78,534.68 L162.14,534.68 L164.51,534.95 L166.87,534.96 L169.23,534.96 L171.59,534.68 L173.96,534.68 L176.32,534.68 L178.68,534.68 L181.04,534.68 L183.41,534.54 L185.77,534.36 L188.13,534.47 L190.49,534.18 L192.86,534.01 L195.22,533.68 L197.58,533.43 L199.95,533.56 L202.31,533.39 L204.67,533.24 L207.03,533.20 L209.40,533.02 L211.76,533.04 L214.12,532.76 L216.48,532.93 L218.85,532.90 L221.21,532.98 L223.57,532.99 L225.93,532.96 L228.30,533.11 L230.66,532.97 L233.02,532.74 L235.38,533.06 L237.75,533.14 L240.11,533.14 L242.47,533.34 L244.84,533.17 L247.20,533.59 L249.56,534.00 L251.92,534.05 L254.29,534.21 L256.65,534.21 L259.01,534.04 L261.37,534.03 L263.74,533.97 L266.10,533.59 L268.46,533.25 L270.82,532.91 L273.19,532.90 L275.55,533.01 L277.91,533.00 L280.27,533.16 L282.64,533.09 L285.00,533.13 L287.36,533.25 L289.73,533.35 L292.09,533.42 L294.45,533.59 L296.81,533.50 L299.18,533.69 L301.54,533.99 L303.90,533.88 L306.26,533.77 L308.63,533.76 L310.99,533.60 L313.35,533.85 L315.71,534.11 L318.08,533.79 L320.44,533.79 L322.80,533.79 L325.16,533.64 L327.53,533.64 L329.89,533.47 L332.25,533.08 L334.62,533.04 L336.98,533.04 L339.34,533.03 L341.70,533.17 L344.07,533.20 L346.43,533.19 L348.79,533.44 L351.15,533.61 L353.52,533.61 L355.88,533.68 L358.24,533.52 L360.60,533.64 L362.97,533.70 L365.33,533.47 L367.69,533.38 L370.05,533.55 L372.42,533.77 L374.78,534.01 L377.14,533.84 L379.51,533.75 L381.87,534.12 L384.23,534.21 L386.59,534.03 L388.96,533.92 L391.32,534.03 L393.68,534.16 L396.04,534.07 L398.41,534.07 L400.77,534.25 L403.13,534.48 L405.49,534.32 L407.86,533.99 L410.22,534.04 L412.58,534.07 L414.95,533.88 L417.31,533.51 L419.67,533.47 L422.03,533.52 L424.40,533.45 L426.76,533.16 L429.12,533.14 L431.48,533.24 L433.85,533.60 L436.21,533.62 L438.57,533.70 L440.93,533.81 L443.30,534.09 L445.66,534.00 L448.02,533.71 L450.38,533.31 L452.75,527.99 L455.11,527.99 L457.47,527.91 L459.84,527.72 L462.20,527.70 L464.56,527.71 L466.92,527.71 L469.29,532.81 L471.65,532.81 L474.01,532.79 L476.37,532.80 L478.74,532.73 L481.10,533.11 L483.46,533.51 L485.82,533.53 L488.19,533.53 L490.55,533.57 L492.91,533.57 L495.27,533.09 L497.64,532.03 L500.00,531.63 L502.36,531.61 L504.73,531.42 L507.09,531.40 L509.45,531.38 L511.81,531.94 L514.18,532.59 L516.54,532.61 L518.90,532.61 L521.26,532.61 L523.63,532.61 L525.99,532.62 L528.35,532.62 L530.71,532.70 L533.08,532.70 L535.44,532.90 L537.80,532.81 L540.16,532.80 L542.53,532.99 L544.89,533.17 L547.25,533.31 L549.62,533.49 L551.98,533.49 L554.34,533.60 L556.70,533.98 L559.07,534.18 L561.43,534.01 L563.79,533.78 L566.15,533.99 L568.52,533.97 L570.88,534.07 L573.24,533.88 L575.60,533.70 L577.97,533.29 L580.33,533.70 L582.69,533.48 L585.05,533.50 L587.42,533.38 L589.78,533.37 L592.14,533.21 L594.51,533.60 L596.87,533.60 L599.23,533.40 L601.59,533.47 L603.96,533.65 L606.32,533.45 L608.68,533.41 L611.04,533.79 L613.41,533.35 L615.77,533.34 L618.13,533.26 L620.49,533.27 L622.86,533.27 L625.22,533.49 L627.58,533.11 L629.95,533.15 L632.31,533.57 L634.67,533.57 L637.03,533.58 L639.40,533.96 L641.76,534.14 L644.12,534.51 L646.48,534.92 L648.85,534.92 L651.21,535.11 L653.57,535.30 L655.93,535.30 L658.30,535.30 L660.66,535.30 L663.02,535.30 L665.38,535.30 L667.75,535.10 L670.11,534.72 L672.47,534.33 L674.84,533.96 L677.20,533.77 L679.56,533.77 L681.92,533.56 L684.29,533.57 L686.65,533.57 L689.01,533.58 L691.37,533.56 L693.74,533.38 L696.10,532.99 L698.46,532.81 L700.82,532.74 L703.19,532.74 L705.55,532.74 L707.91,532.76 L710.27,532.75 L712.64,533.14 L715.00,533.13 L717.36,533.05 L719.73,533.24 L722.09,533.62 L724.45,533.61 L726.81,533.61 L729.18,533.22 L731.54,533.23 L733.90,533.19 L736.26,533.00 L738.63,533.00 L740.99,533.38 L743.35,533.76 L745.71,534.15 L748.08,534.54 L750.44,534.92 L752.80,535.30 L755.16,535.30 L757.53,535.30 L759.89,534.92 L762.25,534.85 L764.62,534.65 L766.98,534.28 L769.34,533.91 L771.70,533.52 L774.07,533.14 L776.43,533.14 L778.79,532.84 L781.15,532.63 L783.52,532.62 L785.88,532.61 L788.24,532.62 L790.60,532.62 L792.97,531.10 L795.33,531.08 L797.69,530.90 L800.05,530.92 L802.42,530.93 L804.78,531.05 L807.14,531.25 L809.51,532.77 L811.87,533.12 L814.23,533.31 L816.59,533.29 L818.96,533.29 L821.32,533.18 L823.68,532.99 L826.04,532.98 L828.41,532.57 L830.77,532.57 L833.13,532.57 L835.49,532.56 L837.86,532.60 L840.22,532.60 L842.58,532.62 L844.95,532.72 L847.31,532.73 L849.67,532.68 L852.03,532.69 L854.40,532.65 L856.76,532.64 L859.12,532.21 L861.48,532.19 L863.85,532.12 L866.21,532.55 L868.57,532.74 L870.93,532.73 L873.30,532.74 L875.66,533.53 L878.02,533.90 L880.38,534.36 L882.75,534.16 L885.11,534.03 L887.47,534.05 L889.84,534.05 L892.20,533.68 L894.56,533.30 L896.92,532.92 L899.29,532.83 L901.65,532.96 L904.01,532.95 L906.37,532.95 L908.74,533.02 L911.10,533.40 L913.46,533.49 L915.82,533.48 L918.19,533.09 L920.55,533.09 L922.91,533.09 L925.27,533.00 L927.64,532.80 L930.00,532.89" fill="none" stroke="#60a5fa" stroke-width="2.2" stroke-linecap="round" />
</svg>
