<svg xmlns="http://www.w3.org/2000/svg" viewBox="0 0 960 720" width="960" height="720">
<rect width="960" height="720" fill="#0f172a" />
<text x="480" y="28" fill="#e2e8f0" font-size="16" font-weight="700" text-anchor="middle">骑行距离趋势图</text>
<text x="70" y="70" fill="#e2e8f0" font-size="13" font-weight="600">本月分天指标明细</text>
<line x1="70" y1="323.00" x2="930" y2="323.00" stroke="#94a3b8" stroke-opacity="0.18" stroke-width="1" />
<text x="62" y="327.00" fill="#cbd5f5" font-size="10" text-anchor="end">-0.2</text>
<line x1="70" y1="260.75" x2="930" y2="260.75" stroke="#94a3b8" stroke-opacity="0.18" stroke-width="1" />
<text x="62" y="264.75" fill="#cbd5f5" font-size="10" text-anchor="end">-0.1</text>
<line x1="70" y1="198.50" x2="930" y2="198.50" stroke="#94a3b8" stroke-opacity="0.18" stroke-width="1" />
<text x="62" y="202.50" fill="#cbd5f5" font-size="10" text-anchor="end">0</text>
<line x1="70" y1="136.25" x2="930" y2="136.25" stroke="#94a3b8" stroke-opacity="0.18" stroke-width="1" />
<text x="62" y="140.25" fill="#cbd5f5" font-size="10" text-anchor="end">0.11</text>
<line x1="70" y1="74.00" x2="930" y2="74.00" stroke="#94a3b8" stroke-opacity="0.18" stroke-width="1" />
<text x="62" y="78.00" fill="#cbd5f5" font-size="10" text-anchor="end">0.21</text>
<line x1="70.00" y1="323" x2="70.00" y2="327" stroke="#94a3b8" stroke-opacity="0.5" stroke-width="1" />
<text x="70.00" y="341" fill="#cbd5f5" font-size="10" text-anchor="middle">11-19</text>
<line x1="242.00" y1="323" x2="242.00" y2="327" stroke="#94a3b8" stroke-opacity="0.5" stroke-width="1" />
<text x="242.00" y="341" fill="#cbd5f5" font-size="10" text-anchor="middle">11-24</text>
<line x1="414.00" y1="323" x2="414.00" y2="327" stroke="#94a3b8" stroke-opacity="0.5" stroke-width="1" />
<text x="414.00" y="341" fill="#cbd5f5" font-size="10" text-anchor="middle">11-30</text>
<line x1="586.00" y1="323" x2="586.00" y2="327" stroke="#94a3b8" stroke-opacity="0.5" stroke-width="1" />
<text x="586.00" y="341" fill="#cbd5f5" font-size="10" text-anchor="middle">12-06</text>
<line x1="758.00" y1="323" x2="758.00" y2="327" stroke="#94a3b8" stroke-opacity="0.5" stroke-width="1" />
<text x="758.00" y="341" fill="#cbd5f5" font-size="10" text-anchor="middle">12-12</text>
<line x1="930.00" y1="323" x2="930.00" y2="327" stroke="#94a3b8" stroke-opacity="0.5" stroke-width="1" />
<text x="930.00" y="341" fill="#cbd5f5" font-size="10" text-anchor="middle">12-18</text>
<line x1="70" y1="74" x2="70" y2="323" stroke="#94a3b8" stroke-width="1" />
<line x1="70" y1="323" x2="930" y2="323" stroke="#94a3b8" stroke-width="1" />
<path d="M70.00,198.73 L99.66,198.54 L129.31,195.72 L158.97,198.63 L188.62,198.06 L218.28,201.28 L247.93,199.93 L277.59,198.66 L307.24,198.60 L336.90,201.28 L366.55,201.28 L396.21,201.28 L425.86,199.90 L455.52,199.02 L485.17,198.76 L514.83,198.63 L544.48,198.64 L574.14,198.57 L603.79,198.60 L633.45,199.29 L663.10,199.97 L692.76,198.67 L722.41,198.61 L752.07,199.15 L781.72,201.28 L811.38,199.17 L841.03,199.24 L870.69,197.26 L900.34,198.63 L930.00,198.59" fill="none" stroke="#60a5fa" stroke-width="2.2" stroke-linecap="round" />
<circle cx="70.00" cy="198.73" r="3" fill="#60a5fa" stroke="#0f172a" stroke-width="1" />
<text x="70.00" y="188.73" fill="#e2e8f0" font-size="9" text-anchor="middle">0</text>
<circle cx="99.66" cy="198.54" r="3" fill="#60a5fa" stroke="#0f172a" stroke-width="1" />
<text x="99.66" y="178.54" fill="#e2e8f0" font-size="9" text-anchor="middle">0</text>
<circle cx="129.31" cy="195.72" r="3" fill="#60a5fa" stroke="#0f172a" stroke-width="1" />
<text x="129.31" y="185.72" fill="#e2e8f0" font-size="9" text-anchor="middle">0.01</text>
<circle cx="158.97" cy="198.63" r="3" fill="#60a5fa" stroke="#0f172a" stroke-width="1" />
<text x="158.97" y="178.63" fill="#e2e8f0" font-size="9" text-anchor="middle">0</text>
<circle cx="188.62" cy="198.06" r="3" fill="#60a5fa" stroke="#0f172a" stroke-width="1" />
<text x="188.62" y="188.06" fill="#e2e8f0" font-size="9" text-anchor="middle">0.01</text>
<circle cx="218.28" cy="201.28" r="3" fill="#60a5fa" stroke="#0f172a" stroke-width="1" />
<text x="218.28" y="181.28" fill="#e2e8f0" font-size="9" text-anchor="middle">0</text>
<circle cx="247.93" cy="199.93" r="3" fill="#60a5fa" stroke="#0f172a" stroke-width="1" />
<text x="247.93" y="189.93" fill="#e2e8f0" font-size="9" text-anchor="middle">0</text>
<circle cx="277.59" cy="198.66" r="3" fill="#60a5fa" stroke="#0f172a" stroke-width="1" />
<text x="277.59" y="178.66" fill="#e2e8f0" font-size="9" text-anchor="middle">0</text>
<circle cx="307.24" cy="198.60" r="3" fill="#60a5fa" stroke="#0f172a" stroke-width="1" />
<text x="307.24" y="188.60" fill="#e2e8f0" font-size="9" text-anchor="middle">0</text>
<circle cx="336.90" cy="201.28" r="3" fill="#60a5fa" stroke="#0f172a" stroke-width="1" />
<text x="336.90" y="181.28" fill="#e2e8f0" font-size="9" text-anchor="middle">0</text>
<circle cx="366.55" cy="201.28" r="3" fill="#60a5fa" stroke="#0f172a" stroke-width="1" />
<text x="366.55" y="191.28" fill="#e2e8f0" font-size="9" text-anchor="middle">0</text>
<circle cx="396.21" cy="201.28" r="3" fill="#60a5fa" stroke="#0f172a" stroke-width="1" />
<text x="396.21" y="181.28" fill="#e2e8f0" font-size="9" text-anchor="middle">0</text>
<circle cx="425.86" cy="199.90" r="3" fill="#60a5fa" stroke="#0f172a" stroke-width="1" />
<text x="425.86" y="189.90" fill="#e2e8f0" font-size="9" text-anchor="middle">0</text>
<circle cx="455.52" cy="199.02" r="3" fill="#60a5fa" stroke="#0f172a" stroke-width="1" />
<text x="455.52" y="179.02" fill="#e2e8f0" font-size="9" text-anchor="middle">0</text>
<circle cx="485.17" cy="198.76" r="3" fill="#60a5fa" stroke="#0f172a" stroke-width="1" />
<text x="485.17" y="188.76" fill="#e2e8f0" font-size="9" text-anchor="middle">0</text>
<circle cx="514.83" cy="198.63" r="3" fill="#60a5fa" stroke="#0f172a" stroke-width="1" />
<text x="514.83" y="178.63" fill="#e2e8f0" font-size="9" text-anchor="middle">0</text>
<circle cx="544.48" cy="198.64" r="3" fill="#60a5fa" stroke="#0f172a" stroke-width="1" />
<text x="544.48" y="188.64" fill="#e2e8f0" font-size="9" text-anchor="middle">0</text>
<circle cx="574.14" cy="198.57" r="3" fill="#60a5fa" stroke="#0f172a" stroke-width="1" />
<text x="574.14" y="178.57" fill="#e2e8f0" font-size="9" text-anchor="middle">0</text>
<circle cx="603.79" cy="198.60" r="3" fill="#60a5fa" stroke="#0f172a" stroke-width="1" />
<text x="603.79" y="188.60" fill="#e2e8f0" font-size="9" text-anchor="middle">0</text>
<circle cx="633.45" cy="199.29" r="3" fill="#60a5fa" stroke="#0f172a" stroke-width="1" />
<text x="633.45" y="179.29" fill="#e2e8f0" font-size="9" text-anchor="middle">0</text>
<circle cx="663.10" cy="199.97" r="3" fill="#60a5fa" stroke="#0f172a" stroke-width="1" />
<text x="663.10" y="189.97" fill="#e2e8f0" font-size="9" text-anchor="middle">0</text>
<circle cx="692.76" cy="198.67" r="3" fill="#60a5fa" stroke="#0f172a" stroke-width="1" />
<text x="692.76" y="178.67" fill="#e2e8f0" font-size="9" text-anchor="middle">0</text>
<circle cx="722.41" cy="198.61" r="3" fill="#60a5fa" stroke="#0f172a" stroke-width="1" />
<text x="722.41" y="188.61" fill="#e2e8f0" font-size="9" text-anchor="middle">0</text>
<circle cx="752.07" cy="199.15" r="3" fill="#60a5fa" stroke="#0f172a" stroke-width="1" />
<text x="752.07" y="179.15" fill="#e2e8f0" font-size="9" text-anchor="middle">0</text>
<circle cx="781.72" cy="201.28" r="3" fill="#60a5fa" stroke="#0f172a" stroke-width="1" />
<text x="781.72" y="191.28" fill="#e2e8f0" font-size="9" text-anchor="middle">0</text>
<circle cx="811.38" cy="199.17" r="3" fill="#60a5fa" stroke="#0f172a" stroke-width="1" />
<text x="811.38" y="179.17" fill="#e2e8f0" font-size="9" text-anchor="middle">0</text>
<circle cx="841.03" cy="199.24" r="3" fill="#60a5fa" stroke="#0f172a" stroke-width="1" />
<text x="841.03" y="189.24" fill="#e2e8f0" font-size="9" text-anchor="middle">0</text>
<circle cx="870.69" cy="197.26" r="3" fill="#60a5fa" stroke="#0f172a" stroke-width="1" />
<text x="870.69" y="177.26" fill="#e2e8f0" font-size="9" text-anchor="middle">0.01</text>
<circle cx="900.34" cy="198.63" r="3" fill="#60a5fa" stroke="#0f172a" stroke-width="1" />
<text x="900.34" y="188.63" fill="#e2e8f0" font-size="9" text-anchor="middle">0</text>
<circle cx="930.00" cy="198.59" r="3" fill="#60a5fa" stroke="#0f172a" stroke-width="1" />
<text x="930.00" y="178.59" fill="#e2e8f0" font-size="9" text-anchor="middle">0</text>
<text x="70" y="403" fill="#e2e8f0" font-size="13" font-weight="600">本年核心指标趋势（滑动7日窗口平均）</text>
<line x1="70" y1="656.00" x2="930" y2="656.00" stroke="#94a3b8" stroke-opacity="0.18" stroke-width="1" />
<text x="62" y="660.00" fill="#cbd5f5" font-size="10" text-anchor="end">-0.2</text>
<line x1="70" y1="593.75" x2="930" y2="593.75" stroke="#94a3b8" stroke-opacity="0.18" stroke-width="1" />
<text x="62" y="597.75" fill="#cbd5f5" font-size="10" text-anchor="end">-0.1</text>
<line x1="70" y1="531.50" x2="930" y2="531.50" stroke="#94a3b8" stroke-opacity="0.18" stroke-width="1" />
<text x="62" y="535.50" fill="#cbd5f5" font-size="10" text-anchor="end">0.01</text>
<line x1="70" y1="469.25" x2="930" y2="469.25" stroke="#94a3b8" stroke-opacity="0.18" stroke-width="1" />
<text x="62" y="473.25" fill="#cbd5f5" font-size="10" text-anchor="end">0.11</text>
<line x1="70" y1="407.00" x2="930" y2="407.00" stroke="#94a3b8" stroke-opacity="0.18" stroke-width="1" />
<text x="62" y="411.00" fill="#cbd5f5" font-size="10" text-anchor="end">0.21</text>
<line x1="70.00" y1="656" x2="70.00" y2="660" stroke="#94a3b8" stroke-opacity="0.5" stroke-width="1" />
<text x="70.00" y="674" fill="#cbd5f5" font-size="10" text-anchor="middle">2024-12</text>
<line x1="242.00" y1="656" x2="242.00" y2="660" stroke="#94a3b8" stroke-opacity="0.5" stroke-width="1" />
<text x="242.00" y="674" fill="#cbd5f5" font-size="10" text-anchor="middle">2025-03</text>
<line x1="414.00" y1="656" x2="414.00" y2="660" stroke="#94a3b8" stroke-opacity="0.5" stroke-width="1" />
<text x="414.00" y="674" fill="#cbd5f5" font-size="10" text-anchor="middle">2025-05</text>
<line x1="586.00" y1="656" x2="586.00" y2="660" stroke="#94a3b8" stroke-opacity="0.5" stroke-width="1" />
<text x="586.00" y="674" fill="#cbd5f5" font-size="10" text-anchor="middle">2025-07</text>
<line x1="758.00" y1="656" x2="758.00" y2="660" stroke="#94a3b8" stroke-opacity="0.5" stroke-width="1" />
<text x="758.00" y="674" fill="#cbd5f5" font-size="10" text-anchor="middle">2025-10</text>
<line x1="930.00" y1="656" x2="930.00" y2="660" stroke="#94a3b8" stroke-opacity="0.5" stroke-width="1" />
<text x="930.00" y="674" fill="#cbd5f5" font-size="10" text-anchor="middle">2025-12</text>
<line x1="70" y1="407" x2="70" y2="656" stroke="#94a3b8" stroke-width="1" />
<line x1="70" y1="656" x2="930" y2="656" stroke="#94a3b8" stroke-width="1" />
<path d="M70.00,656.00 L70.00,535.30 L72.36,535.30 L74.73,535.30 L77.09,535.30 L79.45,535.30 L81.81,535.30 L84.18,535.30 L86.54,535.30 L88.90,535.30 L91.26,535.30 L93.63,535.30 L95.99,535.30 L98.35,535.30 L100.71,535.30 L103.08,535.30 L105.44,535.30 L107.80,535.30 L110.16,535.30 L112.53,535.30 L114.89,535.30 L117.25,535.30 L119.62,535.30 L121.98,535.30 L124.34,535.30 L126.70,535.30 L129.07,535.30 L131.43,535.30 L133.79,535.30 L136.15,535.30 L138.52,535.30 L140.88,535.30 L143.24,535.30 L145.60,535.30 L147.97,535.30 L150.33,535.30 L152.69,535.30 L155.05,535.03 L157.42,534.68 L159.78,534.68 L162.14,534.68 L164.51,534.68 L166.87,534.68 L169.23,534.68 L171.59,534.95 L173.96,534.96 L176.32,534.96 L178.68,534.68 L181.04,534.68 L183.41,534.68 L185.77,534.68 L188.13,534.68 L190.49,534.54 L192.86,534.36 L195.22,534.47 L197.58,534.18 L199.95,534.01 L202.31,533.68 L204.67,533.43 L207.03,533.56 L209.40,533.39 L211.76,533.24 L214.12,533.20 L216.48,533.02 L218.85,533.04 L221.21,532.76 L223.57,532.93 L225.93,532.90 L228.30,532.98 L230.66,532.99 L233.02,532.96 L235.38,533.11 L237.75,532.97 L240.11,532.74 L242.47,533.06 L244.84,533.14 L247.20,533.14 L249.56,533.34 L251.92,533.17 L254.29,533.59 L256.65,534.00 L259.01,534.05 L261.37,534.21 L263.74,534.21 L266.10,534.04 L268.46,534.03 L270.82,533.97 L273.19,533.59 L275.55,533.25 L277.91,532.91 L280.27,532.90 L282.64,533.01 L285.00,533.00 L287.36,533.16 L289.73,533.09 L292.09,533.13 L294.45,533.25 L296.81,533.35 L299.18,533.42 L301.54,533.59 L303.90,533.50 L306.26,533.69 L308.63,533.99 L310.99,533.88 L313.35,533.77 L315.71,533.76 L318.08,533.60 L320.44,533.85 L322.80,534.11 L325.16,533.79 L327.53,533.79 L329.89,533.79 L332.25,533.64 L334.62,533.64 L336.98,533.47 L339.34,533.08 L341.70,533.04 L344.07,533.04 L346.43,533.03 L348.79,533.17 L351.15,533.20 L353.52,533.19 L355.88,533.44 L358.24,533.61 L360.60,533.61 L362.97,533.68 L365.33,533.52 L367.69,533.64 L370.05,533.70 L372.42,533.47 L374.78,533.38 L377.14,533.55 L379.51,533.77 L381.87,534.01 L384.23,533.84 L386.59,533.75 L388.96,534.12 L391.32,534.21 L393.68,534.03 L396.04,533.92 L398.41,534.03 L400.77,534.16 L403.13,534.07 L405.49,534.07 L407.86,534.25 L410.22,534.48 L412.58,534.32 L414.95,533.99 L417.31,534.04 L419.67,534.07 L422.03,533.88 L424.40,533.51 L426.76,533.47 L429.12,533.52 L431.48,533.45 L433.85,533.16 L436.21,533.14 L438.57,533.24 L440.93,533.60 L443.30,533.62 L445.66,533.70 L448.02,533.81 L450.38,534.09 L452.75,534.00 L455.11,533.71 L457.47,533.31 L459.84,527.99 L462.20,527.99 L464.56,527.91 L466.92,527.72 L469.29,527.70 L471.65,527.71 L474.01,527.71 L476.37,532.81 L478.74,532.81 L481.10,532.79 L483.46,532.80 L485.82,532.73 L488.19,533.11 L490.55,533.51 L492.91,533.53 L495.27,533.53 L497.64,533.57 L500.00,533.57 L502.36,533.09 L504.73,532.03 L507.09,531.63 L509.45,531.61 L511.81,531.42 L514.18,531.40 L516.54,531.38 L518.90,531.94 L521.26,532.59 L523.63,532.61 L525.99,532.61 L528.35,532.61 L530.71,532.61 L533.08,532.62 L535.44,532.62 L537.80,532.70 L540.16,532.70 L542.53,532.90 L544.89,532.81 L547.25,532.80 L549.62,532.99 L551.98,533.17 L554.34,533.31 L556.70,533.49 L559.07,533.49 L561.43,533.60 L563.79,533.98 L566.15,534.18 L568.52,534.01 L570.88,533.78 L573.24,533.99 L575.60,533.97 L577.97,534.07 L580.33,533.88 L582.69,533.70 L585.05,533.29 L587.42,533.70 L589.78,533.48 L592.14,533.50 L594.51,533.38 L596.87,533.37 L599.23,533.21 L601.59,533.60 L603.96,533.60 L606.32,533.40 L608.68,533.47 L611.04,533.65 L613.41,533.45 L615.77,533.41 L618.13,533.79 L620.49,533.35 L622.86,533.34 L625.22,533.26 L627.58,533.27 L629.95,533.27 L632.31,533.49 L634.67,533.11 L637.03,533.15 L639.40,533.57 L641.76,533.57 L644.12,533.58 L646.48,533.96 L648.85,534.14 L651.21,534.51 L653.57,534.92 L655.93,534.92 L658.30,535.11 L660.66,535.30 L663.02,535.30 L665.38,535.30 L667.75,535.30 L670.11,535.30 L672.47,535.30 L674.84,535.10 L677.20,534.72 L679.56,534.33 L681.92,533.96 L684.29,533.77 L686.65,533.77 L689.01,533.56 L691.37,533.57 L693.74,533.57 L696.10,533.58 L698.46,533.56 L700.82,533.38 L703.19,532.99 L705.55,532.81 L707.91,532.74 L710.27,532.74 L712.64,532.74 L715.00,532.76 L717.36,532.75 L719.73,533.14 L722.09,533.13 L724.45,533.05 L726.81,533.24 L729.18,533.62 L731.54,533.61 L733.90,533.61 L736.26,533.22 L738.63,533.23 L740.99,533.19 L743.35,533.00 L745.71,533.00 L748.08,533.38 L750.44,533.76 L752.80,534.15 L755.16,534.54 L757.53,534.92 L759.89,535.30 L762.25,535.30 L764.62,535.30 L766.98,534.92 L769.34,534.85 L771.70,534.65 L774.07,534.28 L776.43,533.91 L778.79,533.52 L781.15,533.14 L783.52,533.14 L785.88,532.84 L788.24,532.63 L790.60,532.62 L792.97,532.61 L795.33,532.62 L797.69,532.62 L800.05,531.10 L802.42,531.08 L804.78,530.90 L807.14,530.92 L809.51,530.93 L811.87,531.05 L814.23,531.25 L816.59,532.77 L818.96,533.12 L821.32,533.31 L823.68,533.29 L826.04,533.29 L828.41,533.18 L830.77,532.99 L833.13,532.98 L835.49,532.57 L837.86,532.57 L840.22,532.57 L842.58,532.56 L844.95,532.60 L847.31,532.60 L849.67,532.62 L852.03,532.72 L854.40,532.73 L856.76,532.68 L859.12,532.69 L861.48,532.65 L863.85,532.64 L866.21,532.21 L868.57,532.19 L870.93,532.12 L873.30,532.55 L875.66,532.74 L878.02,532.73 L880.38,532.74 L882.75,533.53 L885.11,533.90 L887.47,534.36 L889.84,534.16 L892.20,534.03 L894.56,534.05 L896.92,534.05 L899.29,533.68 L901.65,533.30 L904.01,532.92 L906.37,532.83 L908.74,532.96 L911.10,532.95 L913.46,532.95 L915.82,533.02 L918.19,533.40 L920.55,533.49 L922.91,533.48 L925.27,533.09 L927.64,533.09 L930.00,533.09 L930.00,656.00 Z" fill="#60a5fa" fill-opacity="0.16" stroke="none" />
<path d="M70.00,535.30 L72.36,535.30 L74.73,535.30 L77.09,535.30 L79.45,535.30 L81.81,535.30 L84.18,535.30 L86.54,535.30 L88.90,535.30 L91.26,535.30 L93.63,535.30 L95.99,535.30 L98.35,535.30 L100.71,535.30 L103.08,535.30 L105.44,535.30 L107.80,535.30 L110.16,535.30 L112.53,535.30 L114.89,535.30 L117.25,535.30 L119.62,535.30 L121.98,535.30 L124.34,535.30 L126.70,535.30 L129.07,535.30 L131.43,535.30 L133.79,535.30 L136.15,535.30 L138.52,535.30 L140.88,535.30 L143.24,535.30 L145.60,535.30 L147.97,535.30 L150.33,535.30 L152.69,535.30 L155.05,535.03 L157.42,534.68 L159.78,534.68 L162.14,534.68 L164.51,534.68 L166.87,534.68 L169.23,534.68 L171.59,534.95 L173.96,534.96 L176.32,534.96 L178.68,534.68 L181.04,534.68 L183.41,534.68 L185.77,534.68 L188.13,534.68 L190.49,534.54 L192.86,534.36 L195.22,534.47 L197.58,534.18 L199.95,534.01 L202.31,533.68 L204.67,533.43 L207.03,533.56 L209.40,533.39 L211.76,533.24 L214.12,533.20 L216.48,533.02 L218.85,533.04 L221.21,532.76 L223.57,532.93 L225.93,532.90 L228.30,532.98 L230.66,532.99 L233.02,532.96 L235.38,533.11 L237.75,532.97 L240.11,532.74 L242.47,533.06 L244.84,533.14 L247.20,533.14 L249.56,533.34 L251.92,533.17 L254.29,533.59 L256.65,534.00 L259.01,534.05 L261.37,534.21 L263.74,534.21 L266.10,534.04 L268.46,534.03 L270.82,533.97 L273.19,533.59 L275.55,533.25 L277.91,532.91 L280.27,532.90 L282.64,533.01 L285.00,533.00 L287.36,533.16 L289.73,533.09 L292.09,533.13 L294.45,533.25 L296.81,533.35 L299.18,533.42 L301.54,533.59 L303.90,533.50 L306.26,533.69 L308.63,533.99 L310.99,533.88 L313.35,533.77 L315.71,533.76 L318.08,533.60 L320.44,533.85 L322.80,534.11 L325.16,533.79 L327.53,533.79 L329.89,533.79 L332.25,533.64 L334.62,533.64 L336.98,533.47 L339.34,533.08 L341.70,533.04 L344.07,533.04 L346.43,533.03 L348.79,533.17 L351.15,533.20 L353.52,533.19 L355.88,533.44 L358.24,533.61 L360.60,533.61 L362.97,533.68 L365.33,533.52 L367.69,533.64 L370.05,533.70 L372.42,533.47 L374.78,533.38 L377.14,533.55 L379.51,533.77 L381.87,534.01 L384.23,533.84 L386.59,533.75 L388.96,534.12 L391.32,534.21 L393.68,534.03 L396.04,533.92 L398.41,534.03 L400.77,534.16 L403.13,534.07 L405.49,534.07 L407.86,534.25 L410.22,534.48 L412.58,534.32 L414.95,533.99 L417.31,534.04 L419.67,534.07 L422.03,533.88 L424.40,533.51 L426.76,533.47 L429.12,533.52 L431.48,533.45 L433.85,533.16 L436.21,533.14 L438.57,533.24 L440.93,533.60 L443.30,533.62 L445.66,533.70 L448.02,533.81 L450.38,534.09 L452.75,534.00 L455.11,533.71 L457.47,533.31 L459.84,527.99 L462.20,527.99 L464.56,527.91 L466.92,527.72 L469.29,527.70 L471.65,527.71 L474.01,527.71 L476.37,532.81 L478.74,532.81 L481.10,532.79 L483.46,532.80 L485.82,532.73 L488.19,533.11 L490.55,533.51 L492.91,533.53 L495.27,533.53 L497.64,533.57 L500.00,533.57 L502.36,533.09 L504.73,532.03 L507.09,531.63 L509.45,531.61 L511.81,531.42 L514.18,531.40 L516.54,531.38 L518.90,531.94 L521.26,532.59 L523.63,532.61 L525.99,532.61 L528.35,532.61 L530.71,532.61 L533.08,532.62 L535.44,532.62 L537.80,532.70 L540.16,532.70 L542.53,532.90 L544.89,532.81 L547.25,532.80 L549.62,532.99 L551.98,533.17 L554.34,533.31 L556.70,533.49 L559.07,533.49 L561.43,533.60 L563.79,533.98 L566.15,534.18 L568.52,534.01 L570.88,533.78 L573.24,533.99 L575.60,533.97 L577.97,534.07 L580.33,533.88 L582.69,533.70 L585.05,533.29 L587.42,533.70 L589.78,533.48 L592.14,533.50 L594.51,533.38 L596.87,533.37 L599.23,533.21 L601.59,533.60 L603.96,533.60 L606.32,533.40 L608.68,533.47 L611.04,533.65 L613.41,533.45 L615.77,533.41 L618.13,533.79 L620.49,533.35 L622.86,533.34 L625.22,533.26 L627.58,533.27 L629.95,533.27 L632.31,533.49 L634.67,533.11 L637.03,533.15 L639.40,533.57 L641.76,533.57 L644.12,533.58 L646.48,533.96 L648.85,534.14 L651.21,534.51 L653.57,534.92 L655.93,534.92 L658.30,535.11 L660.66,535.30 L663.02,535.30 L665.38,535.30 L667.75,535.30 L670.11,535.30 L672.47,535.30 L674.84,535.10 L677.20,534.72 L679.56,534.33 L681.92,533.96 L684.29,533.77 L686.65,533.77 L689.01,533.56 L691.37,533.57 L693.74,533.57 L696.10,533.58 L698.46,533.56 L700.82,533.38 L703.19,532.99 L705.55,532.81 L707.91,532.74 L710.27,532.74 L712.64,532.74 L715.00,532.76 L717.36,532.75 L719.73,533.14 L722.09,533.13 L724.45,533.05 L726.81,533.24 L729.18,533.62 L731.54,533.61 L733.90,533.61 L736.26,533.22 L738.63,533.23 L740.99,533.19 L743.35,533.00 L745.71,533.00 L748.08,533.38 L750.44,533.76 L752.80,534.15 L755.16,534.54 L757.53,534.92 L759.89,535.30 L762.25,535.30 L764.62,535.30 L766.98,534.92 L769.34,534.85 L771.70,534.65 L774.07,534.28 L776.43,533.91 L778.79,533.52 L781.15,533.14 L783.52,533.14 L785.88,532.84 L788.24,532.63 L790.60,532.62 L792.97,532.61 L795.33,532.62 L797.69,532.62 L800.05,531.10 L802.42,531.08 L804.78,530.90 L807.14,530.92 L809.51,530.93 L811.87,531.05 L814.23,531.25 L816.59,532.77 L818.96,533.12 L821.32,533.31 L823.68,533.29 L826.04,533.29 L828.41,533.18 L830.77,532.99 L833.13,532.98 L835.49,532.57 L837.86,532.57 L840.22,532.57 L842.58,532.56 L844.95,532.60 L847.31,532.60 L849.67,532.62 L852.03,532.72 L854.40,532.73 L856.76,532.68 L859.12,532.69 L861.48,532.65 L863.85,532.64 L866.21,532.21 L868.57,532.19 L870.93,532.12 L873.30,532.55 L875.66,532.74 L878.02,532.73 L880.38,532.74 L882.75,533.53 L885.11,533.90 L887.47,534.36 L889.84,534.16 L892.20,534.03 L894.56,534.05 L896.92,534.05 L899.29,533.68 L901.65,533.30 L904.01,532.92 L906.37,532.83 L908.74,532.96 L911.10,532.95 L913.46,532.95 L915.82,533.02 L918.19,533.40 L920.55,533.49 L922.91,533.48 L925.27,533.09 L927.64,533.09 L930.00,533.09" fill="none" stroke="#60a5fa" stroke-width="2.2" stroke-linecap="round" />
</svg>
