<svg xmlns="http://www.w3.org/2000/svg" viewBox="0 0 960 720" width="960" height="720">
<rect width="960" height="720" fill="#0f172a" />
<text x="480" y="28" fill="#e2e8f0" font-size="16" font-weight="700" text-anchor="middle">步行跑步距离趋势图</text>
<text x="70" y="70" fill="#e2e8f0" font-size="13" font-weight="600">本月分天指标明细</text>
<line x1="70" y1="323.00" x2="930" y2="323.00" stroke="#94a3b8" stroke-opacity="0.18" stroke-width="1" />
<text x="62" y="327.00" fill="#cbd5f5" font-size="10" text-anchor="end">-0.2</text>
<line x1="70" y1="260.75" x2="930" y2="260.75" stroke="#94a3b8" stroke-opacity="0.18" stroke-width="1" />
<text x="62" y="264.75" fill="#cbd5f5" font-size="10" text-anchor="end">-0.09</text>
<line x1="70" y1="198.50" x2="930" y2="198.50" stroke="#94a3b8" stroke-opacity="0.18" stroke-width="1" />
<text x="62" y="202.50" fill="#cbd5f5" font-size="10" text-anchor="end">0.01</text>
<line x1="70" y1="136.25" x2="930" y2="136.25" stroke="#94a3b8" stroke-opacity="0.18" stroke-width="1" />
<text x="62" y="140.25" fill="#cbd5f5" font-size="10" text-anchor="end">0.12</text>
<line x1="70" y1="74.00" x2="930" y2="74.00" stroke="#94a3b8" stroke-opacity="0.18" stroke-width="1" />
<text x="62" y="78.00" fill="#cbd5f5" font-size="10" text-anchor="end">0.22</text>
<line x1="70.00" y1="323" x2="70.00" y2="327" stroke="#94a3b8" stroke-opacity="0.5" stroke-width="1" />
<text x="70.00" y="341" fill="#cbd5f5" font-size="10" text-anchor="middle">11-19</text>
<line x1="242.00" y1="323" x2="242.00" y2="327" stroke="#94a3b8" stroke-opacity="0.5" stroke-width="1" />
<text x="242.00" y="341" fill="#cbd5f5" font-size="10" text-anchor="middle">11-24</text>
<line x1="414.00" y1="323" x2="414.00" y2="327" stroke="#94a3b8" stroke-opacity="0.5" stroke-width="1" />
<text x="414.00" y="341" fill="#cbd5f5" font-size="10" text-anchor="middle">11-30</text>
<line x1="586.00" y1="323" x2="586.00" y2="327" stroke="#94a3b8" stroke-opacity="0.5" stroke-width="1" />
<text x="586.00" y="341" fill="#cbd5f5" font-size="10" text-anchor="middle">12-06</text>
<line x1="758.00" y1="323" x2="758.00" y2="327" stroke="#94a3b8" stroke-opacity="0.5" stroke-width="1" />
<text x="758.00" y="341" fill="#cbd5f5" font-size="10" text-anchor="middle">12-12</text>
<line x1="930.00" y1="323" x2="930.00" y2="327" stroke="#94a3b8" stroke-opacity="0.5" stroke-width="1" />
<text x="930.00" y="341" fill="#cbd5f5" font-size="10" text-anchor="middle">12-18</text>
<line x1="70" y1="74" x2="70" y2="323" stroke="#94a3b8" stroke-width="1" />
<line x1="70" y1="323" x2="930" y2="323" stroke="#94a3b8" stroke-width="1" />
<path d="M70.00,197.68 L99.66,199.06 L129.31,200.43 L158.97,198.16 L188.62,200.71 L218.28,198.44 L247.93,197.88 L277.59,196.83 L307.24,195.21 L336.90,198.92 L366.55,193.94 L396.21,198.51 L425.86,198.71 L455.52,196.81 L485.17,198.27 L514.83,196.55 L544.48,200.68 L574.14,203.06 L603.79,200.40 L633.45,199.54 L663.10,197.33 L692.76,197.24 L722.41,197.66 L752.07,197.44 L781.72,201.03 L811.38,198.66 L841.03,196.42 L870.69,199.74 L900.34,196.08 L930.00,200.49" fill="none" stroke="#22c55e" stroke-width="2.2" stroke-linecap="round" />
<circle cx="70.00" cy="197.68" r="3" fill="#22c55e" stroke="#0f172a" stroke-width="1" />
<text x="70.00" y="187.68" fill="#e2e8f0" font-size="9" text-anchor="middle">0.01</text>
<circle cx="99.66" cy="199.06" r="3" fill="#22c55e" stroke="#0f172a" stroke-width="1" />
<text x="99.66" y="179.06" fill="#e2e8f0" font-size="9" text-anchor="middle">0.01</text>
<circle cx="129.31" cy="200.43" r="3" fill="#22c55e" stroke="#0f172a" stroke-width="1" />
<text x="129.31" y="190.43" fill="#e2e8f0" font-size="9" text-anchor="middle">0.01</text>
<circle cx="158.97" cy="198.16" r="3" fill="#22c55e" stroke="#0f172a" stroke-width="1" />
<text x="158.97" y="178.16" fill="#e2e8f0" font-size="9" text-anchor="middle">0.01</text>
<circle cx="188.62" cy="200.71" r="3" fill="#22c55e" stroke="#0f172a" stroke-width="1" />
<text x="188.62" y="190.71" fill="#e2e8f0" font-size="9" text-anchor="middle">0.01</text>
<circle cx="218.28" cy="198.44" r="3" fill="#22c55e" stroke="#0f172a" stroke-width="1" />
<text x="218.28" y="178.44" fill="#e2e8f0" font-size="9" text-anchor="middle">0.01</text>
<circle cx="247.93" cy="197.88" r="3" fill="#22c55e" stroke="#0f172a" stroke-width="1" />
<text x="247.93" y="187.88" fill="#e2e8f0" font-size="9" text-anchor="middle">0.01</text>
<circle cx="277.59" cy="196.83" r="3" fill="#22c55e" stroke="#0f172a" stroke-width="1" />
<text x="277.59" y="176.83" fill="#e2e8f0" font-size="9" text-anchor="middle">0.02</text>
<circle cx="307.24" cy="195.21" r="3" fill="#22c55e" stroke="#0f172a" stroke-width="1" />
<text x="307.24" y="185.21" fill="#e2e8f0" font-size="9" text-anchor="middle">0.02</text>
<circle cx="336.90" cy="198.92" r="3" fill="#22c55e" stroke="#0f172a" stroke-width="1" />
<text x="336.90" y="178.92" fill="#e2e8f0" font-size="9" text-anchor="middle">0.01</text>
<circle cx="366.55" cy="193.94" r="3" fill="#22c55e" stroke="#0f172a" stroke-width="1" />
<text x="366.55" y="183.94" fill="#e2e8f0" font-size="9" text-anchor="middle">0.02</text>
<circle cx="396.21" cy="198.51" r="3" fill="#22c55e" stroke="#0f172a" stroke-width="1" />
<text x="396.21" y="178.51" fill="#e2e8f0" font-size="9" text-anchor="middle">0.01</text>
<circle cx="425.86" cy="198.71" r="3" fill="#22c55e" stroke="#0f172a" stroke-width="1" />
<text x="425.86" y="188.71" fill="#e2e8f0" font-size="9" text-anchor="middle">0.01</text>
<circle cx="455.52" cy="196.81" r="3" fill="#22c55e" stroke="#0f172a" stroke-width="1" />
<text x="455.52" y="176.81" fill="#e2e8f0" font-size="9" text-anchor="middle">0.02</text>
<circle cx="485.17" cy="198.27" r="3" fill="#22c55e" stroke="#0f172a" stroke-width="1" />
<text x="485.17" y="188.27" fill="#e2e8f0" font-size="9" text-anchor="middle">0.01</text>
<circle cx="514.83" cy="196.55" r="3" fill="#22c55e" stroke="#0f172a" stroke-width="1" />
<text x="514.83" y="176.55" fill="#e2e8f0" font-size="9" text-anchor="middle">0.02</text>
<circle cx="544.48" cy="200.68" r="3" fill="#22c55e" stroke="#0f172a" stroke-width="1" />
<text x="544.48" y="190.68" fill="#e2e8f0" font-size="9" text-anchor="middle">0.01</text>
<circle cx="574.14" cy="203.06" r="3" fill="#22c55e" stroke="#0f172a" stroke-width="1" />
<text x="574.14" y="183.06" fill="#e2e8f0" font-size="9" text-anchor="middle">0</text>
<circle cx="603.79" cy="200.40" r="3" fill="#22c55e" stroke="#0f172a" stroke-width="1" />
<text x="603.79" y="190.40" fill="#e2e8f0" font-size="9" text-anchor="middle">0.01</text>
<circle cx="633.45" cy="199.54" r="3" fill="#22c55e" stroke="#0f172a" stroke-width="1" />
<text x="633.45" y="179.54" fill="#e2e8f0" font-size="9" text-anchor="middle">0.01</text>
<circle cx="663.10" cy="197.33" r="3" fill="#22c55e" stroke="#0f172a" stroke-width="1" />
<text x="663.10" y="187.33" fill="#e2e8f0" font-size="9" text-anchor="middle">0.01</text>
<circle cx="692.76" cy="197.24" r="3" fill="#22c55e" stroke="#0f172a" stroke-width="1" />
<text x="692.76" y="177.24" fill="#e2e8f0" font-size="9" text-anchor="middle">0.01</text>
<circle cx="722.41" cy="197.66" r="3" fill="#22c55e" stroke="#0f172a" stroke-width="1" />
<text x="722.41" y="187.66" fill="#e2e8f0" font-size="9" text-anchor="middle">0.01</text>
<circle cx="752.07" cy="197.44" r="3" fill="#22c55e" stroke="#0f172a" stroke-width="1" />
<text x="752.07" y="177.44" fill="#e2e8f0" font-size="9" text-anchor="middle">0.01</text>
<circle cx="781.72" cy="201.03" r="3" fill="#22c55e" stroke="#0f172a" stroke-width="1" />
<text x="781.72" y="191.03" fill="#e2e8f0" font-size="9" text-anchor="middle">0.01</text>
<circle cx="811.38" cy="198.66" r="3" fill="#22c55e" stroke="#0f172a" stroke-width="1" />
<text x="811.38" y="178.66" fill="#e2e8f0" font-size="9" text-anchor="middle">0.01</text>
<circle cx="841.03" cy="196.42" r="3" fill="#22c55e" stroke="#0f172a" stroke-width="1" />
<text x="841.03" y="186.42" fill="#e2e8f0" font-size="9" text-anchor="middle">0.02</text>
<circle cx="870.69" cy="199.74" r="3" fill="#22c55e" stroke="#0f172a" stroke-width="1" />
<text x="870.69" y="179.74" fill="#e2e8f0" font-size="9" text-anchor="middle">0.01</text>
<circle cx="900.34" cy="196.08" r="3" fill="#22c55e" stroke="#0f172a" stroke-width="1" />
<text x="900.34" y="186.08" fill="#e2e8f0" font-size="9" text-anchor="middle">0.02</text>
<circle cx="930.00" cy="200.49" r="3" fill="#22c55e" stroke="#0f172a" stroke-width="1" />
<text x="930.00" y="180.49" fill="#e2e8f0" font-size="9" text-anchor="middle">0.01</text>
<text x="70" y="403" fill="#e2e8f0" font-size="13" font-weight="600">本年核心指标趋势（滑动7日窗口平均）</text>
<line x1="70" y1="656.00" x2="930" y2="656.00" stroke="#94a3b8" stroke-opacity="0.18" stroke-width="1" />
<text x="62" y="660.00" fill="#cbd5f5" font-size="10" text-anchor="end">-0.2</text>
<line x1="70" y1="593.75" x2="930" y2="593.75" stroke="#94a3b8" stroke-opacity="0.18" stroke-width="1" />
<text x="62" y="597.75" fill="#cbd5f5" font-size="10" text-anchor="end">-0.09</text>
<line x1="70" y1="531.50" x2="930" y2="531.50" stroke="#94a3b8" stroke-opacity="0.18" stroke-width="1" />
<text x="62" y="535.50" fill="#cbd5f5" font-size="10" text-anchor="end">0.01</text>
<line x1="70" y1="469.25" x2="930" y2="469.25" stroke="#94a3b8" stroke-opacity="0.18" stroke-width="1" />
<text x="62" y="473.25" fill="#cbd5f5" font-size="10" text-anchor="end">0.12</text>
<line x1="70" y1="407.00" x2="930" y2="407.00" stroke="#94a3b8" stroke-opacity="0.18" stroke-width="1" />
<text x="62" y="411.00" fill="#cbd5f5" font-size="10" text-anchor="end">0.22</text>
<line x1="70.00" y1="656" x2="70.00" y2="660" stroke="#94a3b8" stroke-opacity="0.5" stroke-width="1" />
<text x="70.00" y="674" fill="#cbd5f5" font-size="10" text-anchor="middle">2024-12</text>
<line x1="242.00" y1="656" x2="242.00" y2="660" stroke="#94a3b8" stroke-opacity="0.5" stroke-width="1" />
<text x="242.00" y="674" fill="#cbd5f5" font-size="10" text-anchor="middle">2025-03</text>
<line x1="414.00" y1="656" x2="414.00" y2="660" stroke="#94a3b8" stroke-opacity="0.5" stroke-width="1" />
<text x="414.00" y="674" fill="#cbd5f5" font-size="10" text-anchor="middle">2025-05</text>
<line x1="586.00" y1="656" x2="586.00" y2="660" stroke="#94a3b8" stroke-opacity="0.5" stroke-width="1" />
<text x="586.00" y="674" fill="#cbd5f5" font-size="10" text-anchor="middle">2025-07</text>
<line x1="758.00" y1="656" x2="758.00" y2="660" stroke="#94a3b8" stroke-opacity="0.5" stroke-width="1" />
<text x="758.00" y="674" fill="#cbd5f5" font-size="10" text-anchor="middle">2025-10</text>
<line x1="930.00" y1="656" x2="930.00" y2="660" stroke="#94a3b8" stroke-opacity="0.5" stroke-width="1" />
<text x="930.00" y="674" fill="#cbd5f5" font-size="10" text-anchor="middle">2025-12</text>
<line x1="70" y1="407" x2="70" y2="656" stroke="#94a3b8" stroke-width="1" />
<line x1="70" y1="656" x2="930" y2="656" stroke="#94a3b8" stroke-width="1" />
<path d="M70.00,656.00 L70.00,535.29 L72.36,534.18 L74.73,529.59 L77.09,531.47 L79.45,532.34 L81.81,532.93 L84.18,533.40 L86.54,533.58 L88.90,534.05 L91.26,535.81 L93.63,535.60 L95.99,535.62 L98.35,535.73 L100.71,535.74 L103.08,535.61 L105.44,535.69 L107.80,536.21 L110.16,535.65 L112.53,535.62 L114.89,535.62 L117.25,535.60 L119.62,535.65 L121.98,535.46 L124.34,535.55 L126.70,535.82 L129.07,535.69 L131.43,535.52 L133.79,535.39 L136.15,535.45 L138.52,535.48 L140.88,535.23 L143.24,535.71 L145.60,535.63 L147.97,535.78 L150.33,535.90 L152.69,535.92 L155.05,535.21 L157.42,535.13 L159.78,534.72 L162.14,535.24 L164.51,535.00 L166.87,534.51 L169.23,534.65 L171.59,533.61 L173.96,532.35 L176.32,532.96 L178.68,532.24 L181.04,532.15 L183.41,532.09 L185.77,531.84 L188.13,533.57 L190.49,534.54 L192.86,534.17 L195.22,533.87 L197.58,533.89 L199.95,533.95 L202.31,533.79 L204.67,533.31 L207.03,533.75 L209.40,533.11 L211.76,533.44 L214.12,533.41 L216.48,533.36 L218.85,533.25 L221.21,533.27 L223.57,533.18 L225.93,533.35 L228.30,533.26 L230.66,532.89 L233.02,532.87 L235.38,532.61 L237.75,532.87 L240.11,532.54 L242.47,530.85 L244.84,530.91 L247.20,530.88 L249.56,530.84 L251.92,529.66 L254.29,528.89 L256.65,527.58 L259.01,529.60 L261.37,529.39 L263.74,529.21 L266.10,529.04 L268.46,530.14 L270.82,530.67 L273.19,532.31 L275.55,531.90 L277.91,532.26 L280.27,532.81 L282.64,532.64 L285.00,532.54 L287.36,532.44 L289.73,531.72 L292.09,530.97 L294.45,530.76 L296.81,530.40 L299.18,530.70 L301.54,529.74 L303.90,529.89 L306.26,530.29 L308.63,531.17 L310.99,530.82 L313.35,530.46 L315.71,530.18 L318.08,531.21 L320.44,530.04 L322.80,528.60 L325.16,528.65 L327.53,529.12 L329.89,529.31 L332.25,529.21 L334.62,528.98 L336.98,529.78 L339.34,531.62 L341.70,531.94 L344.07,531.45 L346.43,531.47 L348.79,531.60 L351.15,531.48 L353.52,531.74 L355.88,530.00 L358.24,529.82 L360.60,530.24 L362.97,530.53 L365.33,530.55 L367.69,530.61 L370.05,530.37 L372.42,531.45 L374.78,531.03 L377.14,530.95 L379.51,530.29 L381.87,530.02 L384.23,530.97 L386.59,531.08 L388.96,530.04 L391.32,529.20 L393.68,528.93 L396.04,529.78 L398.41,530.41 L400.77,529.10 L403.13,529.54 L405.49,530.50 L407.86,530.24 L410.22,530.29 L412.58,529.84 L414.95,529.73 L417.31,530.17 L419.67,529.93 L422.03,530.60 L424.40,532.20 L426.76,532.32 L429.12,532.43 L431.48,532.47 L433.85,532.84 L436.21,532.76 L438.57,531.92 L440.93,531.68 L443.30,531.38 L445.66,531.78 L448.02,531.70 L450.38,531.82 L452.75,531.92 L455.11,532.96 L457.47,533.18 L459.84,534.20 L462.20,534.03 L464.56,534.18 L466.92,534.21 L469.29,534.66 L471.65,534.66 L474.01,534.86 L476.37,534.44 L478.74,534.46 L481.10,534.29 L483.46,534.08 L485.82,533.18 L488.19,532.85 L490.55,532.38 L492.91,532.28 L495.27,532.43 L497.64,532.67 L500.00,532.57 L502.36,533.14 L504.73,533.04 L507.09,532.80 L509.45,533.07 L511.81,532.41 L514.18,532.23 L516.54,532.24 L518.90,532.51 L521.26,531.72 L523.63,532.37 L525.99,532.11 L528.35,531.94 L530.71,532.36 L533.08,532.69 L535.44,532.80 L537.80,533.81 L540.16,533.80 L542.53,534.05 L544.89,534.48 L547.25,534.15 L549.62,534.01 L551.98,533.75 L554.34,532.94 L556.70,532.32 L559.07,531.75 L561.43,532.10 L563.79,532.14 L566.15,531.68 L568.52,531.61 L570.88,532.20 L573.24,533.00 L575.60,533.18 L577.97,533.04 L580.33,533.40 L582.69,533.49 L585.05,533.47 L587.42,532.84 L589.78,532.80 L592.14,533.18 L594.51,533.39 L596.87,533.23 L599.23,533.63 L601.59,533.81 L603.96,533.98 L606.32,533.43 L608.68,533.57 L611.04,533.46 L613.41,533.22 L615.77,533.65 L618.13,533.04 L620.49,533.86 L622.86,534.16 L625.22,534.10 L627.58,534.37 L629.95,534.71 L632.31,534.19 L634.67,534.86 L637.03,534.55 L639.40,534.36 L641.76,534.01 L644.12,533.62 L646.48,533.31 L648.85,533.38 L651.21,533.06 L653.57,530.18 L655.93,529.92 L658.30,530.55 L660.66,531.00 L663.02,531.46 L665.38,531.81 L667.75,532.08 L670.11,535.50 L672.47,536.23 L674.84,536.00 L677.20,535.51 L679.56,535.05 L681.92,534.92 L684.29,534.20 L686.65,532.90 L689.01,532.75 L691.37,532.62 L693.74,532.65 L696.10,532.74 L698.46,532.61 L700.82,532.77 L703.19,533.12 L705.55,533.16 L707.91,532.74 L710.27,532.41 L712.64,532.18 L715.00,531.98 L717.36,531.88 L719.73,532.52 L722.09,532.39 L724.45,532.44 L726.81,532.57 L729.18,533.45 L731.54,533.37 L733.90,533.28 L736.26,533.27 L738.63,532.22 L740.99,532.23 L743.35,532.27 L745.71,531.93 L748.08,532.86 L750.44,533.14 L752.80,533.28 L755.16,534.69 L757.53,534.23 L759.89,533.41 L762.25,532.99 L764.62,532.21 L766.98,532.39 L769.34,531.74 L771.70,531.31 L774.07,531.55 L776.43,532.23 L778.79,531.63 L781.15,531.07 L783.52,531.26 L785.88,531.28 L788.24,531.31 L790.60,531.15 L792.97,531.22 L795.33,531.12 L797.69,531.62 L800.05,531.43 L802.42,530.57 L804.78,530.60 L807.14,530.85 L809.51,530.92 L811.87,531.49 L814.23,531.69 L816.59,531.65 L818.96,531.78 L821.32,530.24 L823.68,530.51 L826.04,530.05 L828.41,529.62 L830.77,529.45 L833.13,529.42 L835.49,526.77 L837.86,528.46 L840.22,528.24 L842.58,529.11 L844.95,529.67 L847.31,529.97 L849.67,530.39 L852.03,534.29 L854.40,534.36 L856.76,534.50 L859.12,534.39 L861.48,534.13 L863.85,533.82 L866.21,533.51 L868.57,532.85 L870.93,532.48 L873.30,532.28 L875.66,531.90 L878.02,531.78 L880.38,531.23 L882.75,531.01 L885.11,530.41 L887.47,530.10 L889.84,530.13 L892.20,529.98 L894.56,530.19 L896.92,530.38 L899.29,530.63 L901.65,531.93 L904.01,532.20 L906.37,532.32 L908.74,532.39 L911.10,532.25 L913.46,532.40 L915.82,531.94 L918.19,531.65 L920.55,531.40 L922.91,530.96 L925.27,531.30 L927.64,531.13 L930.00,531.54 L930.00,656.00 Z" fill="#22c55e" fill-opacity="0.16" stroke="none" />
<path d="M70.00,535.29 L72.36,534.18 L74.73,529.59 L77.09,531.47 L79.45,532.34 L81.81,532.93 L84.18,533.40 L86.54,533.58 L88.90,534.05 L91.26,535.81 L93.63,535.60 L95.99,535.62 L98.35,535.73 L100.71,535.74 L103.08,535.61 L105.44,535.69 L107.80,536.21 L110.16,535.65 L112.53,535.62 L114.89,535.62 L117.25,535.60 L119.62,535.65 L121.98,535.46 L124.34,535.55 L126.70,535.82 L129.07,535.69 L131.43,535.52 L133.79,535.39 L136.15,535.45 L138.52,535.48 L140.88,535.23 L143.24,535.71 L145.60,535.63 L147.97,535.78 L150.33,535.90 L152.69,535.92 L155.05,535.21 L157.42,535.13 L159.78,534.72 L162.14,535.24 L164.51,535.00 L166.87,534.51 L169.23,534.65 L171.59,533.61 L173.96,532.35 L176.32,532.96 L178.68,532.24 L181.04,532.15 L183.41,532.09 L185.77,531.84 L188.13,533.57 L190.49,534.54 L192.86,534.17 L195.22,533.87 L197.58,533.89 L199.95,533.95 L202.31,533.79 L204.67,533.31 L207.03,533.75 L209.40,533.11 L211.76,533.44 L214.12,533.41 L216.48,533.36 L218.85,533.25 L221.21,533.27 L223.57,533.18 L225.93,533.35 L228.30,533.26 L230.66,532.89 L233.02,532.87 L235.38,532.61 L237.75,532.87 L240.11,532.54 L242.47,530.85 L244.84,530.91 L247.20,530.88 L249.56,530.84 L251.92,529.66 L254.29,528.89 L256.65,527.58 L259.01,529.60 L261.37,529.39 L263.74,529.21 L266.10,529.04 L268.46,530.14 L270.82,530.67 L273.19,532.31 L275.55,531.90 L277.91,532.26 L280.27,532.81 L282.64,532.64 L285.00,532.54 L287.36,532.44 L289.73,531.72 L292.09,530.97 L294.45,530.76 L296.81,530.40 L299.18,530.70 L301.54,529.74 L303.90,529.89 L306.26,530.29 L308.63,531.17 L310.99,530.82 L313.35,530.46 L315.71,530.18 L318.08,531.21 L320.44,530.04 L322.80,528.60 L325.16,528.65 L327.53,529.12 L329.89,529.31 L332.25,529.21 L334.62,528.98 L336.98,529.78 L339.34,531.62 L341.70,531.94 L344.07,531.45 L346.43,531.47 L348.79,531.60 L351.15,531.48 L353.52,531.74 L355.88,530.00 L358.24,529.82 L360.60,530.24 L362.97,530.53 L365.33,530.55 L367.69,530.61 L370.05,530.37 L372.42,531.45 L374.78,531.03 L377.14,530.95 L379.51,530.29 L381.87,530.02 L384.23,530.97 L386.59,531.08 L388.96,530.04 L391.32,529.20 L393.68,528.93 L396.04,529.78 L398.41,530.41 L400.77,529.10 L403.13,529.54 L405.49,530.50 L407.86,530.24 L410.22,530.29 L412.58,529.84 L414.95,529.73 L417.31,530.17 L419.67,529.93 L422.03,530.60 L424.40,532.20 L426.76,532.32 L429.12,532.43 L431.48,532.47 L433.85,532.84 L436.21,532.76 L438.57,531.92 L440.93,531.68 L443.30,531.38 L445.66,531.78 L448.02,531.70 L450.38,531.82 L452.75,531.92 L455.11,532.96 L457.47,533.18 L459.84,534.20 L462.20,534.03 L464.56,534.18 L466.92,534.21 L469.29,534.66 L471.65,534.66 L474.01,534.86 L476.37,534.44 L478.74,534.46 L481.10,534.29 L483.46,534.08 L485.82,533.18 L488.19,532.85 L490.55,532.38 L492.91,532.28 L495.27,532.43 L497.64,532.67 L500.00,532.57 L502.36,533.14 L504.73,533.04 L507.09,532.80 L509.45,533.07 L511.81,532.41 L514.18,532.23 L516.54,532.24 L518.90,532.51 L521.26,531.72 L523.63,532.37 L525.99,532.11 L528.35,531.94 L530.71,532.36 L533.08,532.69 L535.44,532.80 L537.80,533.81 L540.16,533.80 L542.53,534.05 L544.89,534.48 L547.25,534.15 L549.62,534.01 L551.98,533.75 L554.34,532.94 L556.70,532.32 L559.07,531.75 L561.43,532.10 L563.79,532.14 L566.15,531.68 L568.52,531.61 L570.88,532.20 L573.24,533.00 L575.60,533.18 L577.97,533.04 L580.33,533.40 L582.69,533.49 L585.05,533.47 L587.42,532.84 L589.78,532.80 L592.14,533.18 L594.51,533.39 L596.87,533.23 L599.23,533.63 L601.59,533.81 L603.96,533.98 L606.32,533.43 L608.68,533.57 L611.04,533.46 L613.41,533.22 L615.77,533.65 L618.13,533.04 L620.49,533.86 L622.86,534.16 L625.22,534.10 L627.58,534.37 L629.95,534.71 L632.31,534.19 L634.67,534.86 L637.03,534.55 L639.40,534.36 L641.76,534.01 L644.12,533.62 L646.48,533.31 L648.85,533.38 L651.21,533.06 L653.57,530.18 L655.93,529.92 L658.30,530.55 L660.66,531.00 L663.02,531.46 L665.38,531.81 L667.75,532.08 L670.11,535.50 L672.47,536.23 L674.84,536.00 L677.20,535.51 L679.56,535.05 L681.92,534.92 L684.29,534.20 L686.65,532.90 L689.01,532.75 L691.37,532.62 L693.74,532.65 L696.10,532.74 L698.46,532.61 L700.82,532.77 L703.19,533.12 L705.55,533.16 L707.91,532.74 L710.27,532.41 L712.64,532.18 L715.00,531.98 L717.36,531.88 L719.73,532.52 L722.09,532.39 L724.45,532.44 L726.81,532.57 L729.18,533.45 L731.54,533.37 L733.90,533.28 L736.26,533.27 L738.63,532.22 L740.99,532.23 L743.35,532.27 L745.71,531.93 L748.08,532.86 L750.44,533.14 L752.80,533.28 L755.16,534.69 L757.53,534.23 L759.89,533.41 L762.25,532.99 L764.62,532.21 L766.98,532.39 L769.34,531.74 L771.70,531.31 L774.07,531.55 L776.43,532.23 L778.79,531.63 L781.15,531.07 L783.52,531.26 L785.88,531.28 L788.24,531.31 L790.60,531.15 L792.97,531.22 L795.33,531.12 L797.69,531.62 L800.05,531.43 L802.42,530.57 L804.78,530.60 L807.14,530.85 L809.51,530.92 L811.87,531.49 L814.23,531.69 L816.59,531.65 L818.96,531.78 L821.32,530.24 L823.68,530.51 L826.04,530.05 L828.41,529.62 L830.77,529.45 L833.13,529.42 L835.49,526.77 L837.86,528.46 L840.22,528.24 L842.58,529.11 L844.95,529.67 L847.31,529.97 L849.67,530.39 L852.03,534.29 L854.40,534.36 L856.76,534.50 L859.12,534.39 L861.48,534.13 L863.85,533.82 L866.21,533.51 L868.57,532.85 L870.93,532.48 L873.30,532.28 L875.66,531.90 L878.02,531.78 L880.38,531.23 L882.75,531.01 L885.11,530.41 L887.47,530.10 L889.84,530.13 L892.20,529.98 L894.56,530.19 L896.92,530.38 L899.29,530.63 L901.65,531.93 L904.01,532.20 L906.37,532.32 L908.74,532.39 L911.10,532.25 L913.46,532.40 L915.82,531.94 L918.19,531.65 L920.55,531.40 L922.91,530.96 L925.27,531.30 L927.64,531.13 L930.00,531.54" fill="none" stroke="#22c55e" stroke-width="2.2" stroke-linecap="round" />
</svg>
