<svg xmlns="http://www.w3.org/2000/svg" viewBox="0 0 960 640" width="960" height="640">
  <rect width="960" height="640" fill="#0f172a" />
  <line x1="40" y1="40.00" x2="920.00" y2="40.00" stroke="#94a3b8" stroke-opacity="0.18" stroke-width="1" /><line x1="40" y1="128.00" x2="920.00" y2="128.00" stroke="#94a3b8" stroke-opacity="0.18" stroke-width="1" /><line x1="40" y1="216.00" x2="920.00" y2="216.00" stroke="#94a3b8" stroke-opacity="0.18" stroke-width="1" /><line x1="40" y1="304.00" x2="920.00" y2="304.00" stroke="#94a3b8" stroke-opacity="0.18" stroke-width="1" />
  <line x1="40" y1="336.00" x2="920.00" y2="336.00" stroke="#94a3b8" stroke-opacity="0.18" stroke-width="1" /><line x1="40" y1="424.00" x2="920.00" y2="424.00" stroke="#94a3b8" stroke-opacity="0.18" stroke-width="1" /><line x1="40" y1="512.00" x2="920.00" y2="512.00" stroke="#94a3b8" stroke-opacity="0.18" stroke-width="1" /><line x1="40" y1="600.00" x2="920.00" y2="600.00" stroke="#94a3b8" stroke-opacity="0.18" stroke-width="1" />
  <line x1="40" y1="320.00" x2="920.00" y2="320.00" stroke="#1f2937" stroke-width="1" />
  <polyline points="40.00,182.90 70.34,173.82 100.69,40.00 131.03,177.99 161.38,151.20 191.72,304.00 222.07,239.78 252.41,179.70 282.76,176.58 313.10,304.00 343.45,304.00 373.79,304.00 404.14,238.36 434.48,196.93 464.83,184.41 495.17,178.33 525.52,178.58 555.86,175.19 586.21,176.65 616.55,209.74 646.90,241.69 677.24,179.94 707.59,177.14 737.93,203.14 768.28,304.00 798.62,203.98 828.97,207.08 859.31,113.14 889.66,178.22 920.00,176.41" fill="none" stroke="#60a5fa" stroke-width="2" stroke-linecap="round" stroke-linejoin="round" />
  <polyline points="40.00,600.00 42.42,600.00 44.84,600.00 47.25,600.00 49.67,600.00 52.09,600.00 54.51,600.00 56.92,600.00 59.34,600.00 61.76,600.00 64.18,600.00 66.59,600.00 69.01,600.00 71.43,600.00 73.85,600.00 76.26,600.00 78.68,600.00 81.10,600.00 83.52,600.00 85.93,600.00 88.35,600.00 90.77,600.00 93.19,600.00 95.60,600.00 98.02,600.00 100.44,600.00 102.86,600.00 105.27,600.00 107.69,600.00 110.11,600.00 112.53,600.00 114.95,600.00 117.36,600.00 119.78,600.00 122.20,600.00 124.62,600.00 127.03,590.76 129.45,578.68 131.87,578.68 134.29,578.68 136.70,578.68 139.12,578.68 141.54,578.68 143.96,587.92 146.37,588.28 148.79,588.28 151.21,578.44 153.63,578.44 156.04,578.44 158.46,578.44 160.88,578.44 163.30,573.57 165.71,567.44 168.13,571.29 170.55,561.07 172.97,555.42 175.38,543.88 177.80,535.00 180.22,539.60 182.64,533.72 185.05,528.43 187.47,527.00 189.89,521.00 192.31,521.45 194.73,511.75 197.14,517.56 199.56,516.80 201.98,519.56 204.40,519.66 206.81,518.65 209.23,524.14 211.65,519.14 214.07,511.02 216.48,522.17 218.90,525.08 221.32,525.14 223.74,531.85 226.15,525.94 228.57,540.56 230.99,554.87 233.41,556.50 235.82,562.10 238.24,562.12 240.66,556.23 243.08,556.11 245.49,553.96 247.91,540.77 250.33,528.87 252.75,517.02 255.16,516.59 257.58,520.38 260.00,520.24 262.42,525.67 264.84,523.22 267.25,524.74 269.67,528.69 272.09,532.23 274.51,534.61 276.92,540.60 279.34,537.37 281.76,544.14 284.18,554.52 286.59,550.61 289.01,547.01 291.43,546.68 293.85,540.89 296.26,549.79 298.68,558.65 301.10,547.56 303.52,547.48 305.93,547.58 308.35,542.32 310.77,542.43 313.19,536.49 315.60,522.92 318.02,521.67 320.44,521.70 322.86,521.22 325.27,526.21 327.69,527.01 330.11,526.86 332.53,535.58 334.95,541.32 337.36,541.40 339.78,543.73 342.20,538.12 344.62,542.55 347.03,544.47 349.45,536.49 351.87,533.33 354.29,539.24 356.70,547.08 359.12,555.17 361.54,549.20 363.96,546.17 366.37,559.02 368.79,562.30 371.21,556.00 373.63,552.17 376.04,555.98 378.46,560.46 380.88,557.28 383.30,557.28 385.71,563.76 388.13,571.48 390.55,565.89 392.97,554.57 395.38,556.19 397.80,557.51 400.22,550.59 402.64,537.97 405.05,536.33 407.47,538.38 409.89,535.69 412.31,525.57 414.73,525.07 417.14,528.44 419.56,541.06 421.98,541.69 424.40,544.44 426.81,548.45 429.23,558.06 431.65,554.74 434.07,544.87 436.48,531.02 438.90,345.88 441.32,346.04 443.74,343.23 446.15,336.42 448.57,336.00 450.99,336.39 453.41,336.17 455.82,513.56 458.24,513.57 460.66,512.78 463.08,513.31 465.49,510.83 467.91,523.85 470.33,537.93 472.75,538.51 475.16,538.43 477.58,539.97 480.00,540.00 482.42,523.32 484.84,486.33 487.25,472.44 489.67,471.85 492.09,465.38 494.51,464.39 496.92,463.83 499.34,483.19 501.76,506.04 504.18,506.53 506.59,506.45 509.01,506.75 511.43,506.71 513.85,507.03 516.26,507.06 518.68,509.79 521.10,509.77 523.52,516.61 525.93,513.42 528.35,513.28 530.77,519.69 533.19,526.02 535.60,530.99 538.02,537.26 540.44,537.28 542.86,541.09 545.27,554.33 547.69,561.02 550.11,555.12 552.53,547.30 554.95,554.45 557.36,553.97 559.78,557.26 562.20,550.77 564.62,544.36 567.03,530.13 569.45,544.39 571.87,536.98 574.29,537.44 576.70,533.28 579.12,533.16 581.54,527.49 583.96,541.06 586.37,541.06 588.79,534.08 591.21,536.49 593.63,542.79 596.04,535.70 598.46,534.32 600.88,547.60 603.30,532.27 605.71,531.94 608.13,529.33 610.55,529.43 612.97,529.66 615.38,537.11 617.80,524.04 620.22,525.25 622.64,539.98 625.05,540.03 627.47,540.18 629.89,553.65 632.31,559.66 634.73,572.73 637.14,586.85 639.56,586.85 641.98,593.46 644.40,600.00 646.81,600.00 649.23,600.00 651.65,600.00 654.07,600.00 656.48,600.00 658.90,593.28 661.32,579.94 663.74,566.31 666.15,553.45 668.57,546.85 670.99,546.85 673.41,539.49 675.82,539.86 678.24,539.99 680.66,540.16 683.08,539.55 685.49,533.42 687.91,519.72 690.33,513.58 692.75,511.06 695.16,510.98 697.58,511.24 700.00,511.75 702.42,511.32 704.84,525.02 707.25,524.51 709.67,521.74 712.09,528.36 714.51,541.56 716.92,541.47 719.34,541.43 721.76,527.73 724.18,528.15 726.59,526.67 729.01,520.27 731.43,520.27 733.85,533.32 736.26,546.52 738.68,560.22 741.10,573.81 743.52,586.93 745.93,600.00 748.35,600.00 750.77,600.00 753.19,586.77 755.60,584.32 758.02,577.34 760.44,564.55 762.86,551.61 765.27,538.33 767.69,525.08 770.11,525.09 772.53,514.53 774.95,507.33 777.36,506.99 779.78,506.68 782.20,506.84 784.62,506.78 787.03,454.07 789.45,453.39 791.87,447.12 794.29,447.92 796.70,448.30 799.12,452.35 801.54,459.19 803.96,512.05 806.37,524.22 808.79,530.86 811.21,530.19 813.63,530.06 816.04,526.30 818.46,519.63 820.88,519.61 823.30,505.30 825.71,505.35 828.13,505.23 830.55,504.70 832.97,506.13 835.38,506.35 837.80,506.86 840.22,510.28 842.64,510.68 845.05,509.00 847.47,509.24 849.89,508.09 852.31,507.54 854.73,492.81 857.14,492.16 859.56,489.68 861.98,504.49 864.40,511.13 866.81,510.80 869.23,511.09 871.65,538.42 874.07,551.47 876.48,567.29 878.90,560.49 881.32,556.06 883.74,556.54 886.15,556.72 888.57,543.74 890.99,530.40 893.41,517.22 895.82,514.25 898.24,518.89 900.66,518.43 903.08,518.30 905.49,520.85 907.91,534.18 910.33,537.01 912.75,536.74 915.16,523.43 917.58,523.25 920.00,523.17" fill="none" stroke="#60a5fa" stroke-width="2" stroke-linecap="round" stroke-linejoin="round" />
  
  
  </svg>