<svg xmlns="http://www.w3.org/2000/svg" viewBox="0 0 960 720" width="960" height="720">
<rect width="960" height="720" fill="#0f172a" />
<text x="480" y="28" fill="#e2e8f0" font-size="16" font-weight="700" text-anchor="middle">步行跑步距离趋势图</text>
<text x="70" y="70" fill="#e2e8f0" font-size="13" font-weight="600">本月分天指标明细</text>
<line x1="70" y1="323.00" x2="930" y2="323.00" stroke="#94a3b8" stroke-opacity="0.18" stroke-width="1" />
<text x="62" y="327.00" fill="#cbd5f5" font-size="10" text-anchor="end">-0.2</text>
<line x1="70" y1="260.75" x2="930" y2="260.75" stroke="#94a3b8" stroke-opacity="0.18" stroke-width="1" />
<text x="62" y="264.75" fill="#cbd5f5" font-size="10" text-anchor="end">-0.09</text>
<line x1="70" y1="198.50" x2="930" y2="198.50" stroke="#94a3b8" stroke-opacity="0.18" stroke-width="1" />
<text x="62" y="202.50" fill="#cbd5f5" font-size="10" text-anchor="end">0.01</text>
<line x1="70" y1="136.25" x2="930" y2="136.25" stroke="#94a3b8" stroke-opacity="0.18" stroke-width="1" />
<text x="62" y="140.25" fill="#cbd5f5" font-size="10" text-anchor="end">0.12</text>
<line x1="70" y1="74.00" x2="930" y2="74.00" stroke="#94a3b8" stroke-opacity="0.18" stroke-width="1" />
<text x="62" y="78.00" fill="#cbd5f5" font-size="10" text-anchor="end">0.22</text>
<line x1="70.00" y1="323" x2="70.00" y2="327" stroke="#94a3b8" stroke-opacity="0.5" stroke-width="1" />
<text x="70.00" y="341" fill="#cbd5f5" font-size="10" text-anchor="middle">11-22</text>
<line x1="242.00" y1="323" x2="242.00" y2="327" stroke="#94a3b8" stroke-opacity="0.5" stroke-width="1" />
<text x="242.00" y="341" fill="#cbd5f5" font-size="10" text-anchor="middle">11-27</text>
<line x1="414.00" y1="323" x2="414.00" y2="327" stroke="#94a3b8" stroke-opacity="0.5" stroke-width="1" />
<text x="414.00" y="341" fill="#cbd5f5" font-size="10" text-anchor="middle">12-03</text>
<line x1="586.00" y1="323" x2="586.00" y2="327" stroke="#94a3b8" stroke-opacity="0.5" stroke-width="1" />
<text x="586.00" y="341" fill="#cbd5f5" font-size="10" text-anchor="middle">12-09</text>
<line x1="758.00" y1="323" x2="758.00" y2="327" stroke="#94a3b8" stroke-opacity="0.5" stroke-width="1" />
<text x="758.00" y="341" fill="#cbd5f5" font-size="10" text-anchor="middle">12-15</text>
<line x1="930.00" y1="323" x2="930.00" y2="327" stroke="#94a3b8" stroke-opacity="0.5" stroke-width="1" />
<text x="930.00" y="341" fill="#cbd5f5" font-size="10" text-anchor="middle">12-21</text>
<line x1="70" y1="74" x2="70" y2="323" stroke="#94a3b8" stroke-width="1" />
<line x1="70" y1="323" x2="930" y2="323" stroke="#94a3b8" stroke-width="1" />
<path d="M70.00,198.70 L99.66,201.22 L129.31,198.98 L158.97,198.43 L188.62,197.39 L218.28,195.79 L247.93,199.45 L277.59,194.53 L307.24,199.05 L336.90,199.25 L366.55,197.37 L396.21,198.81 L425.86,197.11 L455.52,201.20 L485.17,203.55 L514.83,200.91 L544.48,200.07 L574.14,197.88 L603.79,197.80 L633.45,198.20 L663.10,197.99 L692.76,201.54 L722.41,199.19 L752.07,196.98 L781.72,200.26 L811.38,196.64 L841.03,200.98 L870.69,200.70 L900.34,192.61 L930.00,204.39" fill="none" stroke="#60a5fa" stroke-width="2.2" stroke-linecap="round" />
<circle cx="70.00" cy="198.70" r="3" fill="#60a5fa" stroke="#0f172a" stroke-width="1" />
<text x="70.00" y="188.70" fill="#e2e8f0" font-size="9" text-anchor="middle">0.01</text>
<circle cx="99.66" cy="201.22" r="3" fill="#60a5fa" stroke="#0f172a" stroke-width="1" />
<text x="99.66" y="181.22" fill="#e2e8f0" font-size="9" text-anchor="middle">0.01</text>
<circle cx="129.31" cy="198.98" r="3" fill="#60a5fa" stroke="#0f172a" stroke-width="1" />
<text x="129.31" y="188.98" fill="#e2e8f0" font-size="9" text-anchor="middle">0.01</text>
<circle cx="158.97" cy="198.43" r="3" fill="#60a5fa" stroke="#0f172a" stroke-width="1" />
<text x="158.97" y="178.43" fill="#e2e8f0" font-size="9" text-anchor="middle">0.01</text>
<circle cx="188.62" cy="197.39" r="3" fill="#60a5fa" stroke="#0f172a" stroke-width="1" />
<text x="188.62" y="187.39" fill="#e2e8f0" font-size="9" text-anchor="middle">0.02</text>
<circle cx="218.28" cy="195.79" r="3" fill="#60a5fa" stroke="#0f172a" stroke-width="1" />
<text x="218.28" y="175.79" fill="#e2e8f0" font-size="9" text-anchor="middle">0.02</text>
<circle cx="247.93" cy="199.45" r="3" fill="#60a5fa" stroke="#0f172a" stroke-width="1" />
<text x="247.93" y="189.45" fill="#e2e8f0" font-size="9" text-anchor="middle">0.01</text>
<circle cx="277.59" cy="194.53" r="3" fill="#60a5fa" stroke="#0f172a" stroke-width="1" />
<text x="277.59" y="174.53" fill="#e2e8f0" font-size="9" text-anchor="middle">0.02</text>
<circle cx="307.24" cy="199.05" r="3" fill="#60a5fa" stroke="#0f172a" stroke-width="1" />
<text x="307.24" y="189.05" fill="#e2e8f0" font-size="9" text-anchor="middle">0.01</text>
<circle cx="336.90" cy="199.25" r="3" fill="#60a5fa" stroke="#0f172a" stroke-width="1" />
<text x="336.90" y="179.25" fill="#e2e8f0" font-size="9" text-anchor="middle">0.01</text>
<circle cx="366.55" cy="197.37" r="3" fill="#60a5fa" stroke="#0f172a" stroke-width="1" />
<text x="366.55" y="187.37" fill="#e2e8f0" font-size="9" text-anchor="middle">0.02</text>
<circle cx="396.21" cy="198.81" r="3" fill="#60a5fa" stroke="#0f172a" stroke-width="1" />
<text x="396.21" y="178.81" fill="#e2e8f0" font-size="9" text-anchor="middle">0.01</text>
<circle cx="425.86" cy="197.11" r="3" fill="#60a5fa" stroke="#0f172a" stroke-width="1" />
<text x="425.86" y="187.11" fill="#e2e8f0" font-size="9" text-anchor="middle">0.02</text>
<circle cx="455.52" cy="201.20" r="3" fill="#60a5fa" stroke="#0f172a" stroke-width="1" />
<text x="455.52" y="181.20" fill="#e2e8f0" font-size="9" text-anchor="middle">0.01</text>
<circle cx="485.17" cy="203.55" r="3" fill="#60a5fa" stroke="#0f172a" stroke-width="1" />
<text x="485.17" y="193.55" fill="#e2e8f0" font-size="9" text-anchor="middle">0</text>
<circle cx="514.83" cy="200.91" r="3" fill="#60a5fa" stroke="#0f172a" stroke-width="1" />
<text x="514.83" y="180.91" fill="#e2e8f0" font-size="9" text-anchor="middle">0.01</text>
<circle cx="544.48" cy="200.07" r="3" fill="#60a5fa" stroke="#0f172a" stroke-width="1" />
<text x="544.48" y="190.07" fill="#e2e8f0" font-size="9" text-anchor="middle">0.01</text>
<circle cx="574.14" cy="197.88" r="3" fill="#60a5fa" stroke="#0f172a" stroke-width="1" />
<text x="574.14" y="177.88" fill="#e2e8f0" font-size="9" text-anchor="middle">0.01</text>
<circle cx="603.79" cy="197.80" r="3" fill="#60a5fa" stroke="#0f172a" stroke-width="1" />
<text x="603.79" y="187.80" fill="#e2e8f0" font-size="9" text-anchor="middle">0.01</text>
<circle cx="633.45" cy="198.20" r="3" fill="#60a5fa" stroke="#0f172a" stroke-width="1" />
<text x="633.45" y="178.20" fill="#e2e8f0" font-size="9" text-anchor="middle">0.01</text>
<circle cx="663.10" cy="197.99" r="3" fill="#60a5fa" stroke="#0f172a" stroke-width="1" />
<text x="663.10" y="187.99" fill="#e2e8f0" font-size="9" text-anchor="middle">0.01</text>
<circle cx="692.76" cy="201.54" r="3" fill="#60a5fa" stroke="#0f172a" stroke-width="1" />
<text x="692.76" y="181.54" fill="#e2e8f0" font-size="9" text-anchor="middle">0.01</text>
<circle cx="722.41" cy="199.19" r="3" fill="#60a5fa" stroke="#0f172a" stroke-width="1" />
<text x="722.41" y="189.19" fill="#e2e8f0" font-size="9" text-anchor="middle">0.01</text>
<circle cx="752.07" cy="196.98" r="3" fill="#60a5fa" stroke="#0f172a" stroke-width="1" />
<text x="752.07" y="176.98" fill="#e2e8f0" font-size="9" text-anchor="middle">0.02</text>
<circle cx="781.72" cy="200.26" r="3" fill="#60a5fa" stroke="#0f172a" stroke-width="1" />
<text x="781.72" y="190.26" fill="#e2e8f0" font-size="9" text-anchor="middle">0.01</text>
<circle cx="811.38" cy="196.64" r="3" fill="#60a5fa" stroke="#0f172a" stroke-width="1" />
<text x="811.38" y="176.64" fill="#e2e8f0" font-size="9" text-anchor="middle">0.02</text>
<circle cx="841.03" cy="200.98" r="3" fill="#60a5fa" stroke="#0f172a" stroke-width="1" />
<text x="841.03" y="190.98" fill="#e2e8f0" font-size="9" text-anchor="middle">0.01</text>
<circle cx="870.69" cy="200.70" r="3" fill="#60a5fa" stroke="#0f172a" stroke-width="1" />
<text x="870.69" y="180.70" fill="#e2e8f0" font-size="9" text-anchor="middle">0.01</text>
<circle cx="900.34" cy="192.61" r="3" fill="#60a5fa" stroke="#0f172a" stroke-width="1" />
<text x="900.34" y="182.61" fill="#e2e8f0" font-size="9" text-anchor="middle">0.02</text>
<circle cx="930.00" cy="204.39" r="3" fill="#60a5fa" stroke="#0f172a" stroke-width="1" />
<text x="930.00" y="184.39" fill="#e2e8f0" font-size="9" text-anchor="middle">0</text>
<text x="70" y="403" fill="#e2e8f0" font-size="13" font-weight="600">本年核心指标趋势（滑动7日窗口平均）</text>
<line x1="70" y1="656.00" x2="930" y2="656.00" stroke="#94a3b8" stroke-opacity="0.18" stroke-width="1" />
<text x="62" y="660.00" fill="#cbd5f5" font-size="10" text-anchor="end">-0.2</text>
<line x1="70" y1="593.75" x2="930" y2="593.75" stroke="#94a3b8" stroke-opacity="0.18" stroke-width="1" />
<text x="62" y="597.75" fill="#cbd5f5" font-size="10" text-anchor="end">-0.09</text>
<line x1="70" y1="531.50" x2="930" y2="531.50" stroke="#94a3b8" stroke-opacity="0.18" stroke-width="1" />
<text x="62" y="535.50" fill="#cbd5f5" font-size="10" text-anchor="end">0.01</text>
<line x1="70" y1="469.25" x2="930" y2="469.25" stroke="#94a3b8" stroke-opacity="0.18" stroke-width="1" />
<text x="62" y="473.25" fill="#cbd5f5" font-size="10" text-anchor="end">0.12</text>
<line x1="70" y1="407.00" x2="930" y2="407.00" stroke="#94a3b8" stroke-opacity="0.18" stroke-width="1" />
<text x="62" y="411.00" fill="#cbd5f5" font-size="10" text-anchor="end">0.22</text>
<line x1="70.00" y1="656" x2="70.00" y2="660" stroke="#94a3b8" stroke-opacity="0.5" stroke-width="1" />
<text x="70.00" y="674" fill="#cbd5f5" font-size="10" text-anchor="middle">2024-12</text>
<line x1="242.00" y1="656" x2="242.00" y2="660" stroke="#94a3b8" stroke-opacity="0.5" stroke-width="1" />
<text x="242.00" y="674" fill="#cbd5f5" font-size="10" text-anchor="middle">2025-03</text>
<line x1="414.00" y1="656" x2="414.00" y2="660" stroke="#94a3b8" stroke-opacity="0.5" stroke-width="1" />
<text x="414.00" y="674" fill="#cbd5f5" font-size="10" text-anchor="middle">2025-05</text>
<line x1="586.00" y1="656" x2="586.00" y2="660" stroke="#94a3b8" stroke-opacity="0.5" stroke-width="1" />
<text x="586.00" y="674" fill="#cbd5f5" font-size="10" text-anchor="middle">2025-07</text>
<line x1="758.00" y1="656" x2="758.00" y2="660" stroke="#94a3b8" stroke-opacity="0.5" stroke-width="1" />
<text x="758.00" y="674" fill="#cbd5f5" font-size="10" text-anchor="middle">2025-10</text>
<line x1="930.00" y1="656" x2="930.00" y2="660" stroke="#94a3b8" stroke-opacity="0.5" stroke-width="1" />
<text x="930.00" y="674" fill="#cbd5f5" font-size="10" text-anchor="middle">2025-12</text>
<line x1="70" y1="407" x2="70" y2="656" stroke="#94a3b8" stroke-width="1" />
<line x1="70" y1="656" x2="930" y2="656" stroke="#94a3b8" stroke-width="1" />
<path d="M70.00,656.00 L70.00,536.64 L72.36,536.01 L74.73,535.82 L77.09,535.81 L79.45,535.86 L81.81,535.87 L84.18,535.36 L86.54,535.15 L88.90,535.17 L91.26,535.28 L93.63,535.29 L95.99,535.16 L98.35,535.24 L100.71,535.75 L103.08,535.20 L105.44,535.17 L107.80,535.17 L110.16,535.15 L112.53,535.20 L114.89,535.01 L117.25,535.10 L119.62,535.37 L121.98,535.25 L124.34,535.08 L126.70,534.95 L129.07,535.00 L131.43,535.03 L133.79,534.78 L136.15,535.26 L138.52,535.19 L140.88,535.33 L143.24,535.45 L145.60,535.47 L147.97,534.76 L150.33,534.68 L152.69,534.27 L155.05,534.80 L157.42,534.56 L159.78,534.07 L162.14,534.20 L164.51,533.16 L166.87,531.91 L169.23,532.52 L171.59,531.80 L173.96,531.71 L176.32,531.65 L178.68,531.41 L181.04,533.13 L183.41,534.09 L185.77,533.72 L188.13,533.43 L190.49,533.45 L192.86,533.50 L195.22,533.35 L197.58,532.87 L199.95,533.31 L202.31,532.67 L204.67,533.00 L207.03,532.97 L209.40,532.92 L211.76,532.81 L214.12,532.83 L216.48,532.74 L218.85,532.91 L221.21,532.82 L223.57,532.45 L225.93,532.43 L228.30,532.17 L230.66,532.43 L233.02,532.10 L235.38,530.42 L237.75,530.47 L240.11,530.45 L242.47,530.41 L244.84,529.23 L247.20,528.46 L249.56,527.15 L251.92,529.17 L254.29,528.97 L256.65,528.79 L259.01,528.61 L261.37,529.71 L263.74,530.24 L266.10,531.88 L268.46,531.46 L270.82,531.82 L273.19,532.37 L275.55,532.20 L277.91,532.10 L280.27,532.00 L282.64,531.28 L285.00,530.54 L287.36,530.33 L289.73,529.97 L292.09,530.27 L294.45,529.31 L296.81,529.46 L299.18,529.86 L301.54,530.74 L303.90,530.39 L306.26,530.03 L308.63,529.75 L310.99,530.78 L313.35,529.61 L315.71,528.17 L318.08,528.23 L320.44,528.70 L322.80,528.88 L325.16,528.78 L327.53,528.55 L329.89,529.36 L332.25,531.19 L334.62,531.51 L336.98,531.02 L339.34,531.04 L341.70,531.16 L344.07,531.05 L346.43,531.31 L348.79,529.57 L351.15,529.39 L353.52,529.81 L355.88,530.10 L358.24,530.12 L360.60,530.18 L362.97,529.94 L365.33,531.02 L367.69,530.59 L370.05,530.52 L372.42,529.86 L374.78,529.59 L377.14,530.54 L379.51,530.65 L381.87,529.61 L384.23,528.78 L386.59,528.51 L388.96,529.36 L391.32,529.98 L393.68,528.67 L396.04,529.11 L398.41,530.07 L400.77,529.80 L403.13,529.86 L405.49,529.41 L407.86,529.30 L410.22,529.74 L412.58,529.50 L414.95,530.17 L417.31,531.76 L419.67,531.88 L422.03,531.99 L424.40,532.03 L426.76,532.40 L429.12,532.32 L431.48,531.48 L433.85,531.24 L436.21,530.94 L438.57,531.34 L440.93,531.26 L443.30,531.38 L445.66,531.48 L448.02,532.52 L450.38,532.74 L452.75,533.75 L455.11,533.59 L457.47,533.74 L459.84,533.77 L462.20,534.22 L464.56,534.22 L466.92,534.41 L469.29,534.00 L471.65,534.02 L474.01,533.85 L476.37,533.63 L478.74,532.73 L481.10,532.41 L483.46,531.95 L485.82,531.84 L488.19,531.99 L490.55,532.23 L492.91,532.13 L495.27,532.70 L497.64,532.60 L500.00,532.36 L502.36,532.63 L504.73,531.97 L507.09,531.80 L509.45,531.81 L511.81,532.07 L514.18,531.29 L516.54,531.93 L518.90,531.68 L521.26,531.50 L523.63,531.93 L525.99,532.25 L528.35,532.36 L530.71,533.37 L533.08,533.36 L535.44,533.61 L537.80,534.04 L540.16,533.71 L542.53,533.57 L544.89,533.31 L547.25,532.50 L549.62,531.88 L551.98,531.31 L554.34,531.66 L556.70,531.71 L559.07,531.24 L561.43,531.17 L563.79,531.76 L566.15,532.56 L568.52,532.74 L570.88,532.60 L573.24,532.96 L575.60,533.05 L577.97,533.02 L580.33,532.40 L582.69,532.36 L585.05,532.74 L587.42,532.95 L589.78,532.79 L592.14,533.19 L594.51,533.36 L596.87,533.53 L599.23,532.98 L601.59,533.12 L603.96,533.02 L606.32,532.78 L608.68,533.21 L611.04,532.60 L613.41,533.42 L615.77,533.71 L618.13,533.66 L620.49,533.92 L622.86,534.27 L625.22,533.74 L627.58,534.41 L629.95,534.10 L632.31,533.91 L634.67,533.57 L637.03,533.18 L639.40,532.87 L641.76,532.94 L644.12,532.62 L646.48,529.75 L648.85,529.49 L651.21,530.12 L653.57,530.57 L655.93,531.03 L658.30,531.37 L660.66,531.64 L663.02,535.05 L665.38,535.77 L667.75,535.55 L670.11,535.06 L672.47,534.60 L674.84,534.47 L677.20,533.76 L679.56,532.46 L681.92,532.32 L684.29,532.18 L686.65,532.21 L689.01,532.31 L691.37,532.18 L693.74,532.34 L696.10,532.68 L698.46,532.72 L700.82,532.30 L703.19,531.97 L705.55,531.74 L707.91,531.54 L710.27,531.45 L712.64,532.08 L715.00,531.95 L717.36,532.00 L719.73,532.13 L722.09,533.01 L724.45,532.93 L726.81,532.83 L729.18,532.82 L731.54,531.78 L733.90,531.80 L736.26,531.84 L738.63,531.49 L740.99,532.42 L743.35,532.70 L745.71,532.84 L748.08,534.25 L750.44,533.78 L752.80,532.97 L755.16,532.55 L757.53,531.77 L759.89,531.95 L762.25,531.31 L764.62,530.87 L766.98,531.11 L769.34,531.79 L771.70,531.19 L774.07,530.64 L776.43,530.82 L778.79,530.84 L781.15,530.87 L783.52,530.72 L785.88,530.79 L788.24,530.69 L790.60,531.18 L792.97,531.00 L795.33,530.14 L797.69,530.17 L800.05,530.42 L802.42,530.48 L804.78,531.06 L807.14,531.25 L809.51,531.22 L811.87,531.35 L814.23,529.81 L816.59,530.08 L818.96,529.62 L821.32,529.19 L823.68,529.03 L826.04,529.00 L828.41,526.36 L830.77,528.03 L833.13,527.82 L835.49,528.68 L837.86,529.24 L840.22,529.54 L842.58,529.96 L844.95,533.84 L847.31,533.91 L849.67,534.06 L852.03,533.95 L854.40,533.69 L856.76,533.37 L859.12,533.07 L861.48,532.41 L863.85,532.04 L866.21,531.84 L868.57,531.46 L870.93,531.34 L873.30,530.79 L875.66,530.58 L878.02,529.98 L880.38,529.67 L882.75,529.70 L885.11,529.55 L887.47,529.76 L889.84,529.95 L892.20,530.20 L894.56,531.49 L896.92,531.76 L899.29,531.88 L901.65,531.95 L904.01,531.81 L906.37,531.97 L908.74,531.51 L911.10,531.22 L913.46,530.97 L915.82,530.52 L918.19,530.87 L920.55,530.70 L922.91,531.10 L925.27,531.49 L927.64,530.21 L930.00,530.95 L930.00,656.00 Z" fill="#60a5fa" fill-opacity="0.16" stroke="none" />
<path d="M70.00,536.64 L72.36,536.01 L74.73,535.82 L77.09,535.81 L79.45,535.86 L81.81,535.87 L84.18,535.36 L86.54,535.15 L88.90,535.17 L91.26,535.28 L93.63,535.29 L95.99,535.16 L98.35,535.24 L100.71,535.75 L103.08,535.20 L105.44,535.17 L107.80,535.17 L110.16,535.15 L112.53,535.20 L114.89,535.01 L117.25,535.10 L119.62,535.37 L121.98,535.25 L124.34,535.08 L126.70,534.95 L129.07,535.00 L131.43,535.03 L133.79,534.78 L136.15,535.26 L138.52,535.19 L140.88,535.33 L143.24,535.45 L145.60,535.47 L147.97,534.76 L150.33,534.68 L152.69,534.27 L155.05,534.80 L157.42,534.56 L159.78,534.07 L162.14,534.20 L164.51,533.16 L166.87,531.91 L169.23,532.52 L171.59,531.80 L173.96,531.71 L176.32,531.65 L178.68,531.41 L181.04,533.13 L183.41,534.09 L185.77,533.72 L188.13,533.43 L190.49,533.45 L192.86,533.50 L195.22,533.35 L197.58,532.87 L199.95,533.31 L202.31,532.67 L204.67,533.00 L207.03,532.97 L209.40,532.92 L211.76,532.81 L214.12,532.83 L216.48,532.74 L218.85,532.91 L221.21,532.82 L223.57,532.45 L225.93,532.43 L228.30,532.17 L230.66,532.43 L233.02,532.10 L235.38,530.42 L237.75,530.47 L240.11,530.45 L242.47,530.41 L244.84,529.23 L247.20,528.46 L249.56,527.15 L251.92,529.17 L254.29,528.97 L256.65,528.79 L259.01,528.61 L261.37,529.71 L263.74,530.24 L266.10,531.88 L268.46,531.46 L270.82,531.82 L273.19,532.37 L275.55,532.20 L277.91,532.10 L280.27,532.00 L282.64,531.28 L285.00,530.54 L287.36,530.33 L289.73,529.97 L292.09,530.27 L294.45,529.31 L296.81,529.46 L299.18,529.86 L301.54,530.74 L303.90,530.39 L306.26,530.03 L308.63,529.75 L310.99,530.78 L313.35,529.61 L315.71,528.17 L318.08,528.23 L320.44,528.70 L322.80,528.88 L325.16,528.78 L327.53,528.55 L329.89,529.36 L332.25,531.19 L334.62,531.51 L336.98,531.02 L339.34,531.04 L341.70,531.16 L344.07,531.05 L346.43,531.31 L348.79,529.57 L351.15,529.39 L353.52,529.81 L355.88,530.10 L358.24,530.12 L360.60,530.18 L362.97,529.94 L365.33,531.02 L367.69,530.59 L370.05,530.52 L372.42,529.86 L374.78,529.59 L377.14,530.54 L379.51,530.65 L381.87,529.61 L384.23,528.78 L386.59,528.51 L388.96,529.36 L391.32,529.98 L393.68,528.67 L396.04,529.11 L398.41,530.07 L400.77,529.80 L403.13,529.86 L405.49,529.41 L407.86,529.30 L410.22,529.74 L412.58,529.50 L414.95,530.17 L417.31,531.76 L419.67,531.88 L422.03,531.99 L424.40,532.03 L426.76,532.40 L429.12,532.32 L431.48,531.48 L433.85,531.24 L436.21,530.94 L438.57,531.34 L440.93,531.26 L443.30,531.38 L445.66,531.48 L448.02,532.52 L450.38,532.74 L452.75,533.75 L455.11,533.59 L457.47,533.74 L459.84,533.77 L462.20,534.22 L464.56,534.22 L466.92,534.41 L469.29,534.00 L471.65,534.02 L474.01,533.85 L476.37,533.63 L478.74,532.73 L481.10,532.41 L483.46,531.95 L485.82,531.84 L488.19,531.99 L490.55,532.23 L492.91,532.13 L495.27,532.70 L497.64,532.60 L500.00,532.36 L502.36,532.63 L504.73,531.97 L507.09,531.80 L509.45,531.81 L511.81,532.07 L514.18,531.29 L516.54,531.93 L518.90,531.68 L521.26,531.50 L523.63,531.93 L525.99,532.25 L528.35,532.36 L530.71,533.37 L533.08,533.36 L535.44,533.61 L537.80,534.04 L540.16,533.71 L542.53,533.57 L544.89,533.31 L547.25,532.50 L549.62,531.88 L551.98,531.31 L554.34,531.66 L556.70,531.71 L559.07,531.24 L561.43,531.17 L563.79,531.76 L566.15,532.56 L568.52,532.74 L570.88,532.60 L573.24,532.96 L575.60,533.05 L577.97,533.02 L580.33,532.40 L582.69,532.36 L585.05,532.74 L587.42,532.95 L589.78,532.79 L592.14,533.19 L594.51,533.36 L596.87,533.53 L599.23,532.98 L601.59,533.12 L603.96,533.02 L606.32,532.78 L608.68,533.21 L611.04,532.60 L613.41,533.42 L615.77,533.71 L618.13,533.66 L620.49,533.92 L622.86,534.27 L625.22,533.74 L627.58,534.41 L629.95,534.10 L632.31,533.91 L634.67,533.57 L637.03,533.18 L639.40,532.87 L641.76,532.94 L644.12,532.62 L646.48,529.75 L648.85,529.49 L651.21,530.12 L653.57,530.57 L655.93,531.03 L658.30,531.37 L660.66,531.64 L663.02,535.05 L665.38,535.77 L667.75,535.55 L670.11,535.06 L672.47,534.60 L674.84,534.47 L677.20,533.76 L679.56,532.46 L681.92,532.32 L684.29,532.18 L686.65,532.21 L689.01,532.31 L691.37,532.18 L693.74,532.34 L696.10,532.68 L698.46,532.72 L700.82,532.30 L703.19,531.97 L705.55,531.74 L707.91,531.54 L710.27,531.45 L712.64,532.08 L715.00,531.95 L717.36,532.00 L719.73,532.13 L722.09,533.01 L724.45,532.93 L726.81,532.83 L729.18,532.82 L731.54,531.78 L733.90,531.80 L736.26,531.84 L738.63,531.49 L740.99,532.42 L743.35,532.70 L745.71,532.84 L748.08,534.25 L750.44,533.78 L752.80,532.97 L755.16,532.55 L757.53,531.77 L759.89,531.95 L762.25,531.31 L764.62,530.87 L766.98,531.11 L769.34,531.79 L771.70,531.19 L774.07,530.64 L776.43,530.82 L778.79,530.84 L781.15,530.87 L783.52,530.72 L785.88,530.79 L788.24,530.69 L790.60,531.18 L792.97,531.00 L795.33,530.14 L797.69,530.17 L800.05,530.42 L802.42,530.48 L804.78,531.06 L807.14,531.25 L809.51,531.22 L811.87,531.35 L814.23,529.81 L816.59,530.08 L818.96,529.62 L821.32,529.19 L823.68,529.03 L826.04,529.00 L828.41,526.36 L830.77,528.03 L833.13,527.82 L835.49,528.68 L837.86,529.24 L840.22,529.54 L842.58,529.96 L844.95,533.84 L847.31,533.91 L849.67,534.06 L852.03,533.95 L854.40,533.69 L856.76,533.37 L859.12,533.07 L861.48,532.41 L863.85,532.04 L866.21,531.84 L868.57,531.46 L870.93,531.34 L873.30,530.79 L875.66,530.58 L878.02,529.98 L880.38,529.67 L882.75,529.70 L885.11,529.55 L887.47,529.76 L889.84,529.95 L892.20,530.20 L894.56,531.49 L896.92,531.76 L899.29,531.88 L901.65,531.95 L904.01,531.81 L906.37,531.97 L908.74,531.51 L911.10,531.22 L913.46,530.97 L915.82,530.52 L918.19,530.87 L920.55,530.70 L922.91,531.10 L925.27,531.49 L927.64,530.21 L930.00,530.95" fill="none" stroke="#60a5fa" stroke-width="2.2" stroke-linecap="round" />
</svg>
