<svg xmlns="http://www.w3.org/2000/svg" viewBox="0 0 960 640" width="960" height="640">
  <rect width="960" height="640" fill="#0f172a" />
  <line x1="40" y1="40.00" x2="920.00" y2="40.00" stroke="#94a3b8" stroke-opacity="0.18" stroke-width="1" /><line x1="40" y1="128.00" x2="920.00" y2="128.00" stroke="#94a3b8" stroke-opacity="0.18" stroke-width="1" /><line x1="40" y1="216.00" x2="920.00" y2="216.00" stroke="#94a3b8" stroke-opacity="0.18" stroke-width="1" /><line x1="40" y1="304.00" x2="920.00" y2="304.00" stroke="#94a3b8" stroke-opacity="0.18" stroke-width="1" />
  <line x1="40" y1="336.00" x2="920.00" y2="336.00" stroke="#94a3b8" stroke-opacity="0.18" stroke-width="1" /><line x1="40" y1="424.00" x2="920.00" y2="424.00" stroke="#94a3b8" stroke-opacity="0.18" stroke-width="1" /><line x1="40" y1="512.00" x2="920.00" y2="512.00" stroke="#94a3b8" stroke-opacity="0.18" stroke-width="1" /><line x1="40" y1="600.00" x2="920.00" y2="600.00" stroke="#94a3b8" stroke-opacity="0.18" stroke-width="1" />
  <line x1="40" y1="320.00" x2="920.00" y2="320.00" stroke="#1f2937" stroke-width="1" />
  <polyline points="40.00,105.83 70.34,112.37 100.69,40.00 131.03,160.21 161.38,136.89 191.72,156.63 222.07,118.62 252.41,155.39 282.76,59.84 313.10,121.29 343.45,84.57 373.79,92.63 404.14,103.82 434.48,70.69 464.83,72.66 495.17,95.39 525.52,78.26 555.86,85.71 586.21,53.15 616.55,126.45 646.90,118.02 677.24,106.31 707.59,69.10 737.93,65.41 768.28,123.73 798.62,81.33 828.97,60.67 859.31,208.87 889.66,102.84 920.00,304.00" fill="none" stroke="#60a5fa" stroke-width="2" stroke-linecap="round" stroke-linejoin="round" />
  <polyline points="40.00,549.14 42.46,539.79 44.93,540.31 47.39,551.22 49.86,544.98 52.32,552.41 54.79,550.40 57.25,543.87 59.72,554.16 62.18,561.29 64.65,553.33 67.11,560.43 69.58,555.47 72.04,553.88 74.51,558.75 76.97,554.22 79.44,557.00 81.90,556.24 84.37,552.78 86.83,553.42 89.30,558.51 91.76,553.18 94.23,552.21 96.69,561.13 99.16,556.19 101.62,556.23 104.09,563.45 106.55,551.59 109.02,557.41 111.48,557.21 113.95,553.30 116.41,563.17 118.88,553.59 121.34,557.01 123.81,562.71 126.27,558.74 128.74,535.70 131.20,528.97 133.67,501.10 136.13,487.76 138.60,451.35 141.06,427.66 143.53,401.52 145.99,391.86 148.46,366.32 150.92,375.16 153.39,368.30 155.85,379.37 158.32,373.94 160.78,384.22 163.25,397.91 165.71,407.67 168.18,402.83 170.64,409.46 173.11,406.83 175.57,424.78 178.04,421.70 180.50,411.06 182.97,402.92 185.43,398.98 187.90,399.37 190.36,396.53 192.83,383.49 195.29,379.38 197.76,375.26 200.22,368.50 202.69,360.67 205.15,357.33 207.62,352.81 210.08,351.93 212.55,351.67 215.01,353.50 217.48,357.88 219.94,360.14 222.41,366.16 224.87,367.11 227.34,367.67 229.80,361.11 232.27,358.28 234.73,347.02 237.20,345.86 239.66,339.62 242.13,336.00 244.59,339.25 247.06,338.45 249.52,342.93 251.99,360.60 254.45,369.42 256.92,376.53 259.38,387.55 261.85,387.38 264.31,392.40 266.78,401.32 269.24,402.46 271.71,406.98 274.17,405.06 276.64,402.90 279.10,403.32 281.57,406.92 284.03,409.73 286.50,411.73 288.96,409.69 291.43,408.93 293.89,405.64 296.36,407.53 298.82,410.81 301.29,406.52 303.75,400.71 306.22,404.43 308.68,404.59 311.15,410.15 313.61,405.98 316.08,405.67 318.54,405.20 321.01,414.42 323.47,412.36 325.94,412.34 328.40,411.53 330.87,414.91 333.33,415.96 335.80,418.32 338.26,411.35 340.73,414.16 343.19,416.41 345.66,420.05 348.12,422.66 350.59,415.97 353.05,416.97 355.52,425.09 357.98,422.77 360.45,427.81 362.91,425.75 365.38,422.22 367.84,436.72 370.31,435.60 372.77,438.65 375.24,436.84 377.70,436.84 380.17,440.65 382.63,441.62 385.10,435.31 387.56,436.02 390.03,443.08 392.49,446.85 394.96,444.85 397.42,437.89 399.89,441.17 402.35,436.49 404.82,434.97 407.28,419.59 409.75,417.51 412.21,413.37 414.68,418.19 417.14,417.75 419.61,426.22 422.07,426.39 424.54,423.71 427.00,425.17 429.47,429.03 431.93,424.60 434.40,415.83 436.86,415.01 439.33,412.07 441.79,420.79 444.26,419.29 446.72,412.19 449.19,413.44 451.65,427.56 454.12,423.44 456.58,430.91 459.05,429.98 461.51,424.06 463.98,430.28 466.44,429.71 468.91,424.86 471.37,423.00 473.84,418.80 476.30,406.23 478.77,405.12 481.23,402.02 483.70,405.98 486.16,407.87 488.63,403.33 491.09,406.16 493.56,408.06 496.02,414.09 498.49,422.49 500.95,422.69 503.42,418.20 505.88,423.75 508.35,433.70 510.81,445.08 513.28,449.74 515.74,450.55 518.21,445.28 520.67,448.24 523.14,449.68 525.60,437.63 528.07,435.96 530.53,433.70 533.00,431.33 535.46,440.81 537.93,441.30 540.39,442.81 542.86,451.31 545.32,448.87 547.79,444.14 550.25,453.24 552.72,448.29 555.18,451.71 557.65,456.56 560.11,448.89 562.58,452.01 565.04,455.55 567.51,446.59 569.97,442.39 572.44,454.89 574.90,448.08 577.37,462.76 579.83,461.81 582.30,474.77 584.76,472.29 587.23,476.29 589.69,461.28 592.16,460.67 594.62,459.93 597.09,458.61 599.55,446.43 602.02,442.25 604.48,440.31 606.95,439.42 609.41,448.48 611.88,430.71 614.34,433.00 616.81,441.47 619.27,451.23 621.74,460.20 624.20,461.21 626.67,449.16 629.13,455.05 631.60,447.21 634.06,446.57 636.53,435.06 638.99,423.17 641.46,437.03 643.92,435.25 646.39,437.27 648.85,473.84 651.32,590.60 653.78,600.00 656.25,598.48 658.71,593.15 661.18,593.93 663.64,585.59 666.11,554.88 668.57,424.12 671.04,412.78 673.50,416.06 675.97,406.50 678.43,409.67 680.90,411.35 683.36,402.74 685.83,403.07 688.29,412.40 690.76,410.89 693.22,410.34 695.69,409.82 698.15,410.06 700.62,413.72 703.08,420.89 705.55,415.12 708.01,413.49 710.48,415.56 712.94,415.40 715.41,408.50 717.87,403.57 720.34,389.51 722.80,382.84 725.27,387.69 727.73,385.87 730.20,382.44 732.66,391.67 735.13,398.75 737.59,415.72 740.06,422.65 742.52,412.76 744.99,402.80 747.45,397.21 749.92,398.22 752.38,394.93 754.85,377.40 757.31,367.37 759.78,369.63 762.24,368.92 764.71,370.88 767.17,359.52 769.64,349.70 772.10,359.49 774.57,364.87 777.03,367.21 779.50,367.85 781.96,370.92 784.43,371.72 786.89,374.40 789.36,374.92 791.82,371.02 794.29,365.02 796.75,356.63 799.22,352.80 801.68,349.94 804.15,352.51 806.61,342.59 809.08,354.72 811.54,367.06 814.01,373.52 816.47,377.31 818.94,376.50 821.40,373.93 823.87,374.08 826.33,362.00 828.80,357.75 831.26,368.17 833.73,368.89 836.19,374.30 838.66,379.14 841.12,392.25 843.59,387.03 846.05,385.81 848.52,383.41 850.98,386.17 853.45,383.63 855.91,395.41 858.38,393.93 860.84,410.69 863.31,413.61 865.77,419.31 868.24,413.27 870.70,422.62 873.17,413.92 875.63,408.83 878.10,402.75 880.56,397.24 883.03,387.72 885.49,391.81 887.96,386.86 890.42,386.99 892.89,382.45 895.35,385.06 897.82,390.50 900.28,394.37 902.75,391.35 905.21,389.87 907.68,394.24 910.14,397.48 912.61,389.92 915.07,400.37 917.54,399.97 920.00,426.99" fill="none" stroke="#60a5fa" stroke-width="2" stroke-linecap="round" stroke-linejoin="round" />
  
  
  </svg>