<svg xmlns="http://www.w3.org/2000/svg" viewBox="0 0 960 640" width="960" height="640">
  <rect width="960" height="640" fill="#0f172a" />
  <line x1="40" y1="40.00" x2="920.00" y2="40.00" stroke="#94a3b8" stroke-opacity="0.18" stroke-width="1" /><line x1="40" y1="128.00" x2="920.00" y2="128.00" stroke="#94a3b8" stroke-opacity="0.18" stroke-width="1" /><line x1="40" y1="216.00" x2="920.00" y2="216.00" stroke="#94a3b8" stroke-opacity="0.18" stroke-width="1" /><line x1="40" y1="304.00" x2="920.00" y2="304.00" stroke="#94a3b8" stroke-opacity="0.18" stroke-width="1" />
  <line x1="40" y1="336.00" x2="920.00" y2="336.00" stroke="#94a3b8" stroke-opacity="0.18" stroke-width="1" /><line x1="40" y1="424.00" x2="920.00" y2="424.00" stroke="#94a3b8" stroke-opacity="0.18" stroke-width="1" /><line x1="40" y1="512.00" x2="920.00" y2="512.00" stroke="#94a3b8" stroke-opacity="0.18" stroke-width="1" /><line x1="40" y1="600.00" x2="920.00" y2="600.00" stroke="#94a3b8" stroke-opacity="0.18" stroke-width="1" />
  <line x1="40" y1="320.00" x2="920.00" y2="320.00" stroke="#1f2937" stroke-width="1" />
  <polyline points="40.00,240.75 70.34,251.29 100.69,162.51 131.03,239.46 161.38,304.00 191.72,283.77 222.07,268.85 252.41,236.09 282.76,153.06 313.10,175.83 343.45,40.00 373.79,209.52 404.14,203.13 434.48,191.92 464.83,251.56 495.17,201.86 525.52,266.84 555.86,300.34 586.21,211.59 616.55,217.34 646.90,152.08 677.24,199.27 707.59,124.20 737.93,122.14 768.28,186.65 798.62,177.27 828.97,147.43 859.31,243.73 889.66,210.34 920.00,236.16" fill="none" stroke="#60a5fa" stroke-width="2" stroke-linecap="round" stroke-linejoin="round" />
  <polyline points="40.00,600.00 42.46,600.00 44.93,600.00 47.39,600.00 49.86,600.00 52.32,600.00 54.79,600.00 57.25,600.00 59.72,600.00 62.18,600.00 64.65,600.00 67.11,600.00 69.58,600.00 72.04,600.00 74.51,600.00 76.97,600.00 79.44,600.00 81.90,600.00 84.37,600.00 86.83,600.00 89.30,600.00 91.76,600.00 94.23,600.00 96.69,600.00 99.16,600.00 101.62,600.00 104.09,600.00 106.55,600.00 109.02,600.00 111.48,600.00 113.95,600.00 116.41,600.00 118.88,600.00 121.34,600.00 123.81,600.00 126.27,596.56 128.74,564.58 131.20,545.73 133.67,520.92 136.13,512.59 138.60,488.61 141.06,468.33 143.53,463.52 145.99,467.73 148.46,463.75 150.92,481.83 153.39,462.71 155.85,452.85 158.32,446.27 160.78,441.08 163.25,453.48 165.71,453.40 168.18,441.96 170.64,445.62 173.11,459.77 175.57,465.15 178.04,458.80 180.50,453.64 182.97,460.53 185.43,444.37 187.90,448.96 190.36,446.89 192.83,440.13 195.29,442.30 197.76,434.91 200.22,434.19 202.69,447.56 205.15,446.88 207.62,448.75 210.08,458.80 212.55,450.67 215.01,452.02 217.48,441.57 219.94,387.70 222.41,395.48 224.87,385.00 227.34,369.86 229.80,362.67 232.27,358.61 234.73,336.00 237.20,388.84 239.66,382.39 242.13,392.58 244.59,401.76 247.06,414.99 249.52,425.79 251.99,460.65 254.45,459.00 256.92,461.25 259.38,465.05 261.85,466.22 264.31,461.08 266.78,461.50 269.24,445.86 271.71,433.12 274.17,432.03 276.64,426.05 279.10,427.53 281.57,423.49 284.03,423.03 286.50,429.82 288.96,446.48 291.43,442.51 293.89,439.18 296.36,434.24 298.82,433.19 301.29,413.00 303.75,385.93 306.22,384.72 308.68,386.79 311.15,385.47 313.61,384.50 316.08,388.13 318.54,404.65 321.01,441.53 323.47,447.17 325.94,436.27 328.40,437.25 330.87,439.43 333.33,436.47 335.80,443.14 338.26,426.53 340.73,426.35 343.19,437.29 345.66,442.72 348.12,443.05 350.59,453.97 353.05,447.63 355.52,459.04 357.98,458.54 360.45,464.34 362.91,460.90 365.38,456.69 367.84,464.93 370.31,453.30 372.77,435.82 375.24,418.71 377.70,408.28 380.17,416.84 382.63,424.23 385.10,409.32 387.56,428.88 390.03,424.85 392.49,394.00 394.96,400.70 397.42,394.67 399.89,390.89 402.35,390.57 404.82,382.81 407.28,404.45 409.75,450.02 412.21,448.15 414.68,444.55 417.14,446.82 419.61,444.35 422.07,444.20 424.54,428.56 427.00,425.99 429.47,420.26 431.93,423.71 434.40,424.37 436.86,430.51 439.33,423.24 441.79,440.95 444.26,434.67 446.72,337.22 449.19,337.48 451.65,341.36 454.12,341.50 456.58,357.58 459.05,358.99 461.51,366.09 463.98,463.90 466.44,462.77 468.91,454.13 471.37,449.59 473.84,430.89 476.30,424.66 478.77,417.34 481.23,420.41 483.70,425.09 486.16,431.26 488.63,427.23 491.09,425.06 493.56,409.71 496.02,407.86 498.49,411.87 500.95,400.74 503.42,398.13 505.88,401.66 508.35,417.27 510.81,418.73 513.28,428.95 515.74,429.61 518.21,430.96 520.67,434.30 523.14,441.42 525.60,446.13 528.07,463.09 530.53,466.01 533.00,465.13 535.46,465.32 537.93,461.35 540.39,457.74 542.86,456.58 545.32,447.31 547.79,436.94 550.25,432.76 552.72,436.83 555.18,438.91 557.65,437.39 560.11,433.43 562.58,432.20 565.04,444.88 567.51,443.47 569.97,444.49 572.44,449.94 574.90,444.03 577.37,435.67 579.83,419.08 582.30,422.68 584.76,430.08 587.23,433.84 589.69,431.81 592.16,446.44 594.62,456.79 597.09,478.12 599.55,462.40 602.02,463.75 604.48,465.31 606.95,462.37 609.41,462.48 611.88,455.32 614.34,461.28 616.81,463.80 619.27,466.75 621.74,466.43 624.20,468.58 626.67,464.24 629.13,472.32 631.60,465.08 634.06,472.15 636.53,462.63 638.99,458.58 641.46,466.89 643.92,453.46 646.39,442.83 648.85,346.84 651.32,363.22 653.78,373.97 656.25,373.27 658.71,363.48 661.18,380.08 663.64,375.10 666.11,458.70 668.57,441.10 671.04,436.45 673.50,438.58 675.97,443.62 678.43,439.37 680.90,453.69 683.36,467.51 685.83,463.25 688.29,460.20 690.76,454.45 693.22,455.33 695.69,454.31 698.15,446.65 700.62,455.99 703.08,459.33 705.55,459.12 708.01,462.25 710.48,468.86 712.94,468.71 715.41,470.85 717.87,469.20 720.34,458.14 722.80,455.68 725.27,454.18 727.73,446.55 730.20,460.92 732.66,470.05 735.13,470.06 737.59,490.70 740.06,484.84 742.52,473.50 744.99,468.12 747.45,451.36 749.92,446.93 752.38,439.54 754.85,427.71 757.31,430.52 759.78,439.74 762.24,437.19 764.71,435.53 767.17,433.68 769.64,433.18 772.10,435.16 774.57,434.94 777.03,435.44 779.50,431.57 781.96,437.97 784.43,421.16 786.89,410.12 789.36,406.94 791.82,409.56 794.29,408.57 796.75,413.02 799.22,411.86 801.68,432.47 804.15,434.94 806.61,416.79 809.08,421.59 811.54,419.99 814.01,416.76 816.47,420.25 818.94,407.63 821.40,362.58 823.87,383.94 826.33,378.45 828.80,385.25 831.26,389.70 833.73,390.05 836.19,403.58 838.66,466.34 841.12,470.23 843.59,469.08 846.05,472.99 848.52,473.43 850.98,469.80 853.45,456.79 855.91,450.13 858.38,449.06 860.84,454.22 863.31,452.55 865.77,452.11 868.24,442.81 870.70,444.07 873.17,425.18 875.63,416.23 878.10,408.60 880.56,401.31 883.03,402.78 885.49,407.40 887.96,416.02 890.42,440.67 892.89,440.87 895.35,442.21 897.82,438.44 900.28,433.49 902.75,426.13 905.21,412.43 907.68,401.67 910.14,398.41 912.61,391.79 915.07,400.47 917.54,401.52 920.00,412.12" fill="none" stroke="#60a5fa" stroke-width="2" stroke-linecap="round" stroke-linejoin="round" />
  
  
  </svg>