<svg xmlns="http://www.w3.org/2000/svg" viewBox="0 0 960 720" width="960" height="720">
<rect width="960" height="720" fill="#0f172a" />
<text x="480" y="28" fill="#e2e8f0" font-size="16" font-weight="700" text-anchor="middle">身体负荷指数趋势图</text>
<text x="70" y="70" fill="#e2e8f0" font-size="13" font-weight="600">本月分天指标明细</text>
<line x1="70" y1="323.00" x2="930" y2="323.00" stroke="#94a3b8" stroke-opacity="0.18" stroke-width="1" />
<text x="62" y="327.00" fill="#cbd5f5" font-size="10" text-anchor="end">347</text>
<line x1="70" y1="260.75" x2="930" y2="260.75" stroke="#94a3b8" stroke-opacity="0.18" stroke-width="1" />
<text x="62" y="264.75" fill="#cbd5f5" font-size="10" text-anchor="end">939.4</text>
<line x1="70" y1="198.50" x2="930" y2="198.50" stroke="#94a3b8" stroke-opacity="0.18" stroke-width="1" />
<text x="62" y="202.50" fill="#cbd5f5" font-size="10" text-anchor="end">1532</text>
<line x1="70" y1="136.25" x2="930" y2="136.25" stroke="#94a3b8" stroke-opacity="0.18" stroke-width="1" />
<text x="62" y="140.25" fill="#cbd5f5" font-size="10" text-anchor="end">2124</text>
<line x1="70" y1="74.00" x2="930" y2="74.00" stroke="#94a3b8" stroke-opacity="0.18" stroke-width="1" />
<text x="62" y="78.00" fill="#cbd5f5" font-size="10" text-anchor="end">2717</text>
<line x1="70.00" y1="323" x2="70.00" y2="327" stroke="#94a3b8" stroke-opacity="0.5" stroke-width="1" />
<text x="70.00" y="341" fill="#cbd5f5" font-size="10" text-anchor="middle">11-22</text>
<line x1="242.00" y1="323" x2="242.00" y2="327" stroke="#94a3b8" stroke-opacity="0.5" stroke-width="1" />
<text x="242.00" y="341" fill="#cbd5f5" font-size="10" text-anchor="middle">11-27</text>
<line x1="414.00" y1="323" x2="414.00" y2="327" stroke="#94a3b8" stroke-opacity="0.5" stroke-width="1" />
<text x="414.00" y="341" fill="#cbd5f5" font-size="10" text-anchor="middle">12-03</text>
<line x1="586.00" y1="323" x2="586.00" y2="327" stroke="#94a3b8" stroke-opacity="0.5" stroke-width="1" />
<text x="586.00" y="341" fill="#cbd5f5" font-size="10" text-anchor="middle">12-09</text>
<line x1="758.00" y1="323" x2="758.00" y2="327" stroke="#94a3b8" stroke-opacity="0.5" stroke-width="1" />
<text x="758.00" y="341" fill="#cbd5f5" font-size="10" text-anchor="middle">12-15</text>
<line x1="930.00" y1="323" x2="930.00" y2="327" stroke="#94a3b8" stroke-opacity="0.5" stroke-width="1" />
<text x="930.00" y="341" fill="#cbd5f5" font-size="10" text-anchor="middle">12-21</text>
<line x1="70" y1="74" x2="70" y2="323" stroke="#94a3b8" stroke-width="1" />
<line x1="70" y1="323" x2="930" y2="323" stroke="#94a3b8" stroke-width="1" />
<path d="M70.00,216.82 L99.66,256.32 L129.31,243.94 L158.97,234.81 L188.62,214.76 L218.28,163.94 L247.93,177.88 L277.59,94.75 L307.24,198.49 L336.90,194.59 L366.55,187.72 L396.21,224.23 L425.86,193.81 L455.52,233.58 L485.17,254.08 L514.83,199.77 L544.48,203.29 L574.14,163.35 L603.79,192.22 L633.45,146.28 L663.10,145.02 L692.76,184.50 L722.41,178.76 L752.07,160.50 L781.72,219.44 L811.38,199.00 L841.03,213.20 L870.69,214.73 L900.34,131.78 L930.00,302.25" fill="none" stroke="#60a5fa" stroke-width="2.2" stroke-linecap="round" />
<circle cx="70.00" cy="216.82" r="3" fill="#60a5fa" stroke="#0f172a" stroke-width="1" />
<text x="70.00" y="206.82" fill="#e2e8f0" font-size="9" text-anchor="middle">1357</text>
<circle cx="99.66" cy="256.32" r="3" fill="#60a5fa" stroke="#0f172a" stroke-width="1" />
<text x="99.66" y="236.32" fill="#e2e8f0" font-size="9" text-anchor="middle">981.6</text>
<circle cx="129.31" cy="243.94" r="3" fill="#60a5fa" stroke="#0f172a" stroke-width="1" />
<text x="129.31" y="233.94" fill="#e2e8f0" font-size="9" text-anchor="middle">1099</text>
<circle cx="158.97" cy="234.81" r="3" fill="#60a5fa" stroke="#0f172a" stroke-width="1" />
<text x="158.97" y="214.81" fill="#e2e8f0" font-size="9" text-anchor="middle">1186</text>
<circle cx="188.62" cy="214.76" r="3" fill="#60a5fa" stroke="#0f172a" stroke-width="1" />
<text x="188.62" y="204.76" fill="#e2e8f0" font-size="9" text-anchor="middle">1377</text>
<circle cx="218.28" cy="163.94" r="3" fill="#60a5fa" stroke="#0f172a" stroke-width="1" />
<text x="218.28" y="143.94" fill="#e2e8f0" font-size="9" text-anchor="middle">1861</text>
<circle cx="247.93" cy="177.88" r="3" fill="#60a5fa" stroke="#0f172a" stroke-width="1" />
<text x="247.93" y="167.88" fill="#e2e8f0" font-size="9" text-anchor="middle">1728</text>
<circle cx="277.59" cy="94.75" r="3" fill="#60a5fa" stroke="#0f172a" stroke-width="1" />
<text x="277.59" y="108.75" fill="#e2e8f0" font-size="9" text-anchor="middle">2519</text>
<circle cx="307.24" cy="198.49" r="3" fill="#60a5fa" stroke="#0f172a" stroke-width="1" />
<text x="307.24" y="188.49" fill="#e2e8f0" font-size="9" text-anchor="middle">1532</text>
<circle cx="336.90" cy="194.59" r="3" fill="#60a5fa" stroke="#0f172a" stroke-width="1" />
<text x="336.90" y="174.59" fill="#e2e8f0" font-size="9" text-anchor="middle">1569</text>
<circle cx="366.55" cy="187.72" r="3" fill="#60a5fa" stroke="#0f172a" stroke-width="1" />
<text x="366.55" y="177.72" fill="#e2e8f0" font-size="9" text-anchor="middle">1634</text>
<circle cx="396.21" cy="224.23" r="3" fill="#60a5fa" stroke="#0f172a" stroke-width="1" />
<text x="396.21" y="204.23" fill="#e2e8f0" font-size="9" text-anchor="middle">1287</text>
<circle cx="425.86" cy="193.81" r="3" fill="#60a5fa" stroke="#0f172a" stroke-width="1" />
<text x="425.86" y="183.81" fill="#e2e8f0" font-size="9" text-anchor="middle">1576</text>
<circle cx="455.52" cy="233.58" r="3" fill="#60a5fa" stroke="#0f172a" stroke-width="1" />
<text x="455.52" y="213.58" fill="#e2e8f0" font-size="9" text-anchor="middle">1198</text>
<circle cx="485.17" cy="254.08" r="3" fill="#60a5fa" stroke="#0f172a" stroke-width="1" />
<text x="485.17" y="244.08" fill="#e2e8f0" font-size="9" text-anchor="middle">1003</text>
<circle cx="514.83" cy="199.77" r="3" fill="#60a5fa" stroke="#0f172a" stroke-width="1" />
<text x="514.83" y="179.77" fill="#e2e8f0" font-size="9" text-anchor="middle">1520</text>
<circle cx="544.48" cy="203.29" r="3" fill="#60a5fa" stroke="#0f172a" stroke-width="1" />
<text x="544.48" y="193.29" fill="#e2e8f0" font-size="9" text-anchor="middle">1486</text>
<circle cx="574.14" cy="163.35" r="3" fill="#60a5fa" stroke="#0f172a" stroke-width="1" />
<text x="574.14" y="143.35" fill="#e2e8f0" font-size="9" text-anchor="middle">1866</text>
<circle cx="603.79" cy="192.22" r="3" fill="#60a5fa" stroke="#0f172a" stroke-width="1" />
<text x="603.79" y="182.22" fill="#e2e8f0" font-size="9" text-anchor="middle">1592</text>
<circle cx="633.45" cy="146.28" r="3" fill="#60a5fa" stroke="#0f172a" stroke-width="1" />
<text x="633.45" y="126.28" fill="#e2e8f0" font-size="9" text-anchor="middle">2029</text>
<circle cx="663.10" cy="145.02" r="3" fill="#60a5fa" stroke="#0f172a" stroke-width="1" />
<text x="663.10" y="135.02" fill="#e2e8f0" font-size="9" text-anchor="middle">2041</text>
<circle cx="692.76" cy="184.50" r="3" fill="#60a5fa" stroke="#0f172a" stroke-width="1" />
<text x="692.76" y="164.50" fill="#e2e8f0" font-size="9" text-anchor="middle">1665</text>
<circle cx="722.41" cy="178.76" r="3" fill="#60a5fa" stroke="#0f172a" stroke-width="1" />
<text x="722.41" y="168.76" fill="#e2e8f0" font-size="9" text-anchor="middle">1720</text>
<circle cx="752.07" cy="160.50" r="3" fill="#60a5fa" stroke="#0f172a" stroke-width="1" />
<text x="752.07" y="140.50" fill="#e2e8f0" font-size="9" text-anchor="middle">1893</text>
<circle cx="781.72" cy="219.44" r="3" fill="#60a5fa" stroke="#0f172a" stroke-width="1" />
<text x="781.72" y="209.44" fill="#e2e8f0" font-size="9" text-anchor="middle">1333</text>
<circle cx="811.38" cy="199.00" r="3" fill="#60a5fa" stroke="#0f172a" stroke-width="1" />
<text x="811.38" y="179.00" fill="#e2e8f0" font-size="9" text-anchor="middle">1527</text>
<circle cx="841.03" cy="213.20" r="3" fill="#60a5fa" stroke="#0f172a" stroke-width="1" />
<text x="841.03" y="203.20" fill="#e2e8f0" font-size="9" text-anchor="middle">1392</text>
<circle cx="870.69" cy="214.73" r="3" fill="#60a5fa" stroke="#0f172a" stroke-width="1" />
<text x="870.69" y="194.73" fill="#e2e8f0" font-size="9" text-anchor="middle">1377</text>
<circle cx="900.34" cy="131.78" r="3" fill="#60a5fa" stroke="#0f172a" stroke-width="1" />
<text x="900.34" y="121.78" fill="#e2e8f0" font-size="9" text-anchor="middle">2167</text>
<circle cx="930.00" cy="302.25" r="3" fill="#60a5fa" stroke="#0f172a" stroke-width="1" />
<text x="930.00" y="282.25" fill="#e2e8f0" font-size="9" text-anchor="middle">544.5</text>
<text x="70" y="403" fill="#e2e8f0" font-size="13" font-weight="600">本年核心指标趋势（滑动7日窗口平均）</text>
<line x1="70" y1="656.00" x2="930" y2="656.00" stroke="#94a3b8" stroke-opacity="0.18" stroke-width="1" />
<text x="62" y="660.00" fill="#cbd5f5" font-size="10" text-anchor="end">-232</text>
<line x1="70" y1="593.75" x2="930" y2="593.75" stroke="#94a3b8" stroke-opacity="0.18" stroke-width="1" />
<text x="62" y="597.75" fill="#cbd5f5" font-size="10" text-anchor="end">463.9</text>
<line x1="70" y1="531.50" x2="930" y2="531.50" stroke="#94a3b8" stroke-opacity="0.18" stroke-width="1" />
<text x="62" y="535.50" fill="#cbd5f5" font-size="10" text-anchor="end">1160</text>
<line x1="70" y1="469.25" x2="930" y2="469.25" stroke="#94a3b8" stroke-opacity="0.18" stroke-width="1" />
<text x="62" y="473.25" fill="#cbd5f5" font-size="10" text-anchor="end">1856</text>
<line x1="70" y1="407.00" x2="930" y2="407.00" stroke="#94a3b8" stroke-opacity="0.18" stroke-width="1" />
<text x="62" y="411.00" fill="#cbd5f5" font-size="10" text-anchor="end">2552</text>
<line x1="70.00" y1="656" x2="70.00" y2="660" stroke="#94a3b8" stroke-opacity="0.5" stroke-width="1" />
<text x="70.00" y="674" fill="#cbd5f5" font-size="10" text-anchor="middle">2024-12</text>
<line x1="242.00" y1="656" x2="242.00" y2="660" stroke="#94a3b8" stroke-opacity="0.5" stroke-width="1" />
<text x="242.00" y="674" fill="#cbd5f5" font-size="10" text-anchor="middle">2025-03</text>
<line x1="414.00" y1="656" x2="414.00" y2="660" stroke="#94a3b8" stroke-opacity="0.5" stroke-width="1" />
<text x="414.00" y="674" fill="#cbd5f5" font-size="10" text-anchor="middle">2025-05</text>
<line x1="586.00" y1="656" x2="586.00" y2="660" stroke="#94a3b8" stroke-opacity="0.5" stroke-width="1" />
<text x="586.00" y="674" fill="#cbd5f5" font-size="10" text-anchor="middle">2025-07</text>
<line x1="758.00" y1="656" x2="758.00" y2="660" stroke="#94a3b8" stroke-opacity="0.5" stroke-width="1" />
<text x="758.00" y="674" fill="#cbd5f5" font-size="10" text-anchor="middle">2025-10</text>
<line x1="930.00" y1="656" x2="930.00" y2="660" stroke="#94a3b8" stroke-opacity="0.5" stroke-width="1" />
<text x="930.00" y="674" fill="#cbd5f5" font-size="10" text-anchor="middle">2025-12</text>
<line x1="70" y1="407" x2="70" y2="656" stroke="#94a3b8" stroke-width="1" />
<line x1="70" y1="656" x2="930" y2="656" stroke="#94a3b8" stroke-width="1" />
<path d="M70.00,656.00 L70.00,635.25 L72.36,635.25 L74.73,635.25 L77.09,635.25 L79.45,635.25 L81.81,635.25 L84.18,635.25 L86.54,635.25 L88.90,635.25 L91.26,635.25 L93.63,635.25 L95.99,635.25 L98.35,635.25 L100.71,635.25 L103.08,635.25 L105.44,635.25 L107.80,635.25 L110.16,635.25 L112.53,635.25 L114.89,635.25 L117.25,635.25 L119.62,635.25 L121.98,635.25 L124.34,635.25 L126.70,635.25 L129.07,635.25 L131.43,635.25 L133.79,635.25 L136.15,635.25 L138.52,635.25 L140.88,635.25 L143.24,635.25 L145.60,632.55 L147.97,607.41 L150.33,592.59 L152.69,573.09 L155.05,566.55 L157.42,547.70 L159.78,531.76 L162.14,527.98 L164.51,531.29 L166.87,528.16 L169.23,542.37 L171.59,527.34 L173.96,519.59 L176.32,514.42 L178.68,510.34 L181.04,520.09 L183.41,520.02 L185.77,511.03 L188.13,513.91 L190.49,525.04 L192.86,529.26 L195.22,524.27 L197.58,520.22 L199.95,525.63 L202.31,512.93 L204.67,516.54 L207.03,514.91 L209.40,509.60 L211.76,511.30 L214.12,505.49 L216.48,504.93 L218.85,515.44 L221.21,514.90 L223.57,516.37 L225.93,524.27 L228.30,517.88 L230.66,518.94 L233.02,510.73 L235.38,468.38 L237.75,474.50 L240.11,466.27 L242.47,454.36 L244.84,448.72 L247.20,445.52 L249.56,427.75 L251.92,469.28 L254.29,464.21 L256.65,472.22 L259.01,479.44 L261.37,489.83 L263.74,498.32 L266.10,525.72 L268.46,524.43 L270.82,526.20 L273.19,529.18 L275.55,530.10 L277.91,526.06 L280.27,526.39 L282.64,514.10 L285.00,504.08 L287.36,503.23 L289.73,498.53 L292.09,499.69 L294.45,496.51 L296.81,496.15 L299.18,501.49 L301.54,514.58 L303.90,511.47 L306.26,508.84 L308.63,504.96 L310.99,504.14 L313.35,488.27 L315.71,467.00 L318.08,466.04 L320.44,467.67 L322.80,466.63 L325.16,465.87 L327.53,468.72 L329.89,481.71 L332.25,510.70 L334.62,515.13 L336.98,506.56 L339.34,507.33 L341.70,509.05 L344.07,506.72 L346.43,511.96 L348.79,498.90 L351.15,498.76 L353.52,507.36 L355.88,511.63 L358.24,511.89 L360.60,520.47 L362.97,515.49 L365.33,524.46 L367.69,524.07 L370.05,528.62 L372.42,525.92 L374.78,522.61 L377.14,529.08 L379.51,519.95 L381.87,506.21 L384.23,492.76 L386.59,484.56 L388.96,491.29 L391.32,497.09 L393.68,485.38 L396.04,500.75 L398.41,497.59 L400.77,473.33 L403.13,478.61 L405.49,473.86 L407.86,470.89 L410.22,470.64 L412.58,464.54 L414.95,481.55 L417.31,517.37 L419.67,515.90 L422.03,513.07 L424.40,514.85 L426.76,512.91 L429.12,512.79 L431.48,500.50 L433.85,498.48 L436.21,493.97 L438.57,496.69 L440.93,497.21 L443.30,502.04 L445.66,496.32 L448.02,510.24 L450.38,505.30 L452.75,428.71 L455.11,428.92 L457.47,431.97 L459.84,432.07 L462.20,444.71 L464.56,445.82 L466.92,451.40 L469.29,528.28 L471.65,527.39 L474.01,520.60 L476.37,517.03 L478.74,502.34 L481.10,497.44 L483.46,491.68 L485.82,494.09 L488.19,497.77 L490.55,502.62 L492.91,499.46 L495.27,497.75 L497.64,485.68 L500.00,484.23 L502.36,487.38 L504.73,478.63 L507.09,476.59 L509.45,479.36 L511.81,491.63 L514.18,492.78 L516.54,500.81 L518.90,501.33 L521.26,502.39 L523.63,505.02 L525.99,510.61 L528.35,514.31 L530.71,527.64 L533.08,529.94 L535.44,529.25 L537.80,529.39 L540.16,526.27 L542.53,523.44 L544.89,522.53 L547.25,515.23 L549.62,507.09 L551.98,503.81 L554.34,507.00 L556.70,508.63 L559.07,507.44 L561.43,504.33 L563.79,503.36 L566.15,513.33 L568.52,512.22 L570.88,513.02 L573.24,517.31 L575.60,512.66 L577.97,506.09 L580.33,493.05 L582.69,495.88 L585.05,501.70 L587.42,504.65 L589.78,503.05 L592.14,514.55 L594.51,522.69 L596.87,539.45 L599.23,527.10 L601.59,528.16 L603.96,529.39 L606.32,527.08 L608.68,527.16 L611.04,521.53 L613.41,526.22 L615.77,528.20 L618.13,530.52 L620.49,530.27 L622.86,531.95 L625.22,528.54 L627.58,534.90 L629.95,529.21 L632.31,534.76 L634.67,527.28 L637.03,524.09 L639.40,530.63 L641.76,520.07 L644.12,511.71 L646.48,436.27 L665.38,449.14 L667.75,457.60 L670.11,457.05 L672.47,449.35 L674.84,462.40 L677.20,458.48 L679.56,524.19 L681.92,510.35 L684.29,506.70 L686.65,508.37 L689.01,512.34 L691.37,509.00 L693.74,520.25 L696.10,531.11 L698.46,527.77 L700.82,525.37 L703.19,520.85 L705.55,521.54 L707.91,520.74 L710.27,514.72 L712.64,522.06 L715.00,524.68 L717.36,524.52 L719.73,526.98 L722.09,532.18 L724.45,532.06 L726.81,533.74 L729.18,532.45 L731.54,523.75 L733.90,521.81 L736.26,520.64 L738.63,514.64 L740.99,525.94 L743.35,533.11 L745.71,533.12 L748.08,549.34 L750.44,544.74 L752.80,535.83 L755.16,531.60 L757.53,518.42 L759.89,514.94 L762.25,509.13 L764.62,499.83 L766.98,502.04 L769.34,509.29 L771.70,507.29 L774.07,505.98 L776.43,504.53 L778.79,504.13 L781.15,505.69 L783.52,505.52 L785.88,505.91 L788.24,502.87 L790.60,507.90 L792.97,494.69 L795.33,486.01 L797.69,483.51 L800.05,485.57 L802.42,484.79 L804.78,488.29 L807.14,487.38 L809.51,503.57 L811.87,505.51 L814.23,491.25 L816.59,495.02 L818.96,493.76 L821.32,491.23 L823.68,493.97 L826.04,484.05 L828.41,448.64 L830.77,465.43 L833.13,461.11 L835.49,466.46 L837.86,469.95 L840.22,470.23 L842.58,480.87 L844.95,530.19 L847.31,533.25 L849.67,532.35 L852.03,535.42 L854.40,535.76 L856.76,532.91 L859.12,522.69 L861.48,517.46 L863.85,516.61 L866.21,520.67 L868.57,519.36 L870.93,519.01 L873.30,511.70 L875.66,512.69 L878.02,497.85 L880.38,490.81 L882.75,484.81 L885.11,479.08 L887.47,480.24 L889.84,483.87 L892.20,490.64 L894.56,510.02 L896.92,510.17 L899.29,511.23 L901.65,508.27 L904.01,504.37 L906.37,498.59 L908.74,487.82 L911.10,479.36 L913.46,476.81 L915.82,471.60 L918.19,478.43 L920.55,479.25 L922.91,487.39 L925.27,495.86 L927.64,489.45 L930.00,504.47 L930.00,656.00 Z" fill="#60a5fa" fill-opacity="0.16" stroke="none" />
<path d="M70.00,635.25 L72.36,635.25 L74.73,635.25 L77.09,635.25 L79.45,635.25 L81.81,635.25 L84.18,635.25 L86.54,635.25 L88.90,635.25 L91.26,635.25 L93.63,635.25 L95.99,635.25 L98.35,635.25 L100.71,635.25 L103.08,635.25 L105.44,635.25 L107.80,635.25 L110.16,635.25 L112.53,635.25 L114.89,635.25 L117.25,635.25 L119.62,635.25 L121.98,635.25 L124.34,635.25 L126.70,635.25 L129.07,635.25 L131.43,635.25 L133.79,635.25 L136.15,635.25 L138.52,635.25 L140.88,635.25 L143.24,635.25 L145.60,632.55 L147.97,607.41 L150.33,592.59 L152.69,573.09 L155.05,566.55 L157.42,547.70 L159.78,531.76 L162.14,527.98 L164.51,531.29 L166.87,528.16 L169.23,542.37 L171.59,527.34 L173.96,519.59 L176.32,514.42 L178.68,510.34 L181.04,520.09 L183.41,520.02 L185.77,511.03 L188.13,513.91 L190.49,525.04 L192.86,529.26 L195.22,524.27 L197.58,520.22 L199.95,525.63 L202.31,512.93 L204.67,516.54 L207.03,514.91 L209.40,509.60 L211.76,511.30 L214.12,505.49 L216.48,504.93 L218.85,515.44 L221.21,514.90 L223.57,516.37 L225.93,524.27 L228.30,517.88 L230.66,518.94 L233.02,510.73 L235.38,468.38 L237.75,474.50 L240.11,466.27 L242.47,454.36 L244.84,448.72 L247.20,445.52 L249.56,427.75 L251.92,469.28 L254.29,464.21 L256.65,472.22 L259.01,479.44 L261.37,489.83 L263.74,498.32 L266.10,525.72 L268.46,524.43 L270.82,526.20 L273.19,529.18 L275.55,530.10 L277.91,526.06 L280.27,526.39 L282.64,514.10 L285.00,504.08 L287.36,503.23 L289.73,498.53 L292.09,499.69 L294.45,496.51 L296.81,496.15 L299.18,501.49 L301.54,514.58 L303.90,511.47 L306.26,508.84 L308.63,504.96 L310.99,504.14 L313.35,488.27 L315.71,467.00 L318.08,466.04 L320.44,467.67 L322.80,466.63 L325.16,465.87 L327.53,468.72 L329.89,481.71 L332.25,510.70 L334.62,515.13 L336.98,506.56 L339.34,507.33 L341.70,509.05 L344.07,506.72 L346.43,511.96 L348.79,498.90 L351.15,498.76 L353.52,507.36 L355.88,511.63 L358.24,511.89 L360.60,520.47 L362.97,515.49 L365.33,524.46 L367.69,524.07 L370.05,528.62 L372.42,525.92 L374.78,522.61 L377.14,529.08 L379.51,519.95 L381.87,506.21 L384.23,492.76 L386.59,484.56 L388.96,491.29 L391.32,497.09 L393.68,485.38 L396.04,500.75 L398.41,497.59 L400.77,473.33 L403.13,478.61 L405.49,473.86 L407.86,470.89 L410.22,470.64 L412.58,464.54 L414.95,481.55 L417.31,517.37 L419.67,515.90 L422.03,513.07 L424.40,514.85 L426.76,512.91 L429.12,512.79 L431.48,500.50 L433.85,498.48 L436.21,493.97 L438.57,496.69 L440.93,497.21 L443.30,502.04 L445.66,496.32 L448.02,510.24 L450.38,505.30 L452.75,428.71 L455.11,428.92 L457.47,431.97 L459.84,432.07 L462.20,444.71 L464.56,445.82 L466.92,451.40 L469.29,528.28 L471.65,527.39 L474.01,520.60 L476.37,517.03 L478.74,502.34 L481.10,497.44 L483.46,491.68 L485.82,494.09 L488.19,497.77 L490.55,502.62 L492.91,499.46 L495.27,497.75 L497.64,485.68 L500.00,484.23 L502.36,487.38 L504.73,478.63 L507.09,476.59 L509.45,479.36 L511.81,491.63 L514.18,492.78 L516.54,500.81 L518.90,501.33 L521.26,502.39 L523.63,505.02 L525.99,510.61 L528.35,514.31 L530.71,527.64 L533.08,529.94 L535.44,529.25 L537.80,529.39 L540.16,526.27 L542.53,523.44 L544.89,522.53 L547.25,515.23 L549.62,507.09 L551.98,503.81 L554.34,507.00 L556.70,508.63 L559.07,507.44 L561.43,504.33 L563.79,503.36 L566.15,513.33 L568.52,512.22 L570.88,513.02 L573.24,517.31 L575.60,512.66 L577.97,506.09 L580.33,493.05 L582.69,495.88 L585.05,501.70 L587.42,504.65 L589.78,503.05 L592.14,514.55 L594.51,522.69 L596.87,539.45 L599.23,527.10 L601.59,528.16 L603.96,529.39 L606.32,527.08 L608.68,527.16 L611.04,521.53 L613.41,526.22 L615.77,528.20 L618.13,530.52 L620.49,530.27 L622.86,531.95 L625.22,528.54 L627.58,534.90 L629.95,529.21 L632.31,534.76 L634.67,527.28 L637.03,524.09 L639.40,530.63 L641.76,520.07 L644.12,511.71 L646.48,436.27 L665.38,449.14 L667.75,457.60 L670.11,457.05 L672.47,449.35 L674.84,462.40 L677.20,458.48 L679.56,524.19 L681.92,510.35 L684.29,506.70 L686.65,508.37 L689.01,512.34 L691.37,509.00 L693.74,520.25 L696.10,531.11 L698.46,527.77 L700.82,525.37 L703.19,520.85 L705.55,521.54 L707.91,520.74 L710.27,514.72 L712.64,522.06 L715.00,524.68 L717.36,524.52 L719.73,526.98 L722.09,532.18 L724.45,532.06 L726.81,533.74 L729.18,532.45 L731.54,523.75 L733.90,521.81 L736.26,520.64 L738.63,514.64 L740.99,525.94 L743.35,533.11 L745.71,533.12 L748.08,549.34 L750.44,544.74 L752.80,535.83 L755.16,531.60 L757.53,518.42 L759.89,514.94 L762.25,509.13 L764.62,499.83 L766.98,502.04 L769.34,509.29 L771.70,507.29 L774.07,505.98 L776.43,504.53 L778.79,504.13 L781.15,505.69 L783.52,505.52 L785.88,505.91 L788.24,502.87 L790.60,507.90 L792.97,494.69 L795.33,486.01 L797.69,483.51 L800.05,485.57 L802.42,484.79 L804.78,488.29 L807.14,487.38 L809.51,503.57 L811.87,505.51 L814.23,491.25 L816.59,495.02 L818.96,493.76 L821.32,491.23 L823.68,493.97 L826.04,484.05 L828.41,448.64 L830.77,465.43 L833.13,461.11 L835.49,466.46 L837.86,469.95 L840.22,470.23 L842.58,480.87 L844.95,530.19 L847.31,533.25 L849.67,532.35 L852.03,535.42 L854.40,535.76 L856.76,532.91 L859.12,522.69 L861.48,517.46 L863.85,516.61 L866.21,520.67 L868.57,519.36 L870.93,519.01 L873.30,511.70 L875.66,512.69 L878.02,497.85 L880.38,490.81 L882.75,484.81 L885.11,479.08 L887.47,480.24 L889.84,483.87 L892.20,490.64 L894.56,510.02 L896.92,510.17 L899.29,511.23 L901.65,508.27 L904.01,504.37 L906.37,498.59 L908.74,487.82 L911.10,479.36 L913.46,476.81 L915.82,471.60 L918.19,478.43 L920.55,479.25 L922.91,487.39 L925.27,495.86 L927.64,489.45 L930.00,504.47" fill="none" stroke="#60a5fa" stroke-width="2.2" stroke-linecap="round" />
</svg>
