<svg xmlns="http://www.w3.org/2000/svg" viewBox="0 0 960 720" width="960" height="720">
<rect width="960" height="720" fill="#0f172a" />
<text x="480" y="28" fill="#e2e8f0" font-size="16" font-weight="700" text-anchor="middle">身体负荷指数趋势图</text>
<text x="70" y="70" fill="#e2e8f0" font-size="13" font-weight="600">本月分天指标明细</text>
<line x1="70" y1="323.00" x2="930" y2="323.00" stroke="#94a3b8" stroke-opacity="0.18" stroke-width="1" />
<text x="62" y="327.00" fill="#cbd5f5" font-size="10" text-anchor="end">827.8</text>
<line x1="70" y1="260.75" x2="930" y2="260.75" stroke="#94a3b8" stroke-opacity="0.18" stroke-width="1" />
<text x="62" y="264.75" fill="#cbd5f5" font-size="10" text-anchor="end">1289</text>
<line x1="70" y1="198.50" x2="930" y2="198.50" stroke="#94a3b8" stroke-opacity="0.18" stroke-width="1" />
<text x="62" y="202.50" fill="#cbd5f5" font-size="10" text-anchor="end">1750</text>
<line x1="70" y1="136.25" x2="930" y2="136.25" stroke="#94a3b8" stroke-opacity="0.18" stroke-width="1" />
<text x="62" y="140.25" fill="#cbd5f5" font-size="10" text-anchor="end">2212</text>
<line x1="70" y1="74.00" x2="930" y2="74.00" stroke="#94a3b8" stroke-opacity="0.18" stroke-width="1" />
<text x="62" y="78.00" fill="#cbd5f5" font-size="10" text-anchor="end">2673</text>
<line x1="70.00" y1="323" x2="70.00" y2="327" stroke="#94a3b8" stroke-opacity="0.5" stroke-width="1" />
<text x="70.00" y="341" fill="#cbd5f5" font-size="10" text-anchor="middle">11-19</text>
<line x1="242.00" y1="323" x2="242.00" y2="327" stroke="#94a3b8" stroke-opacity="0.5" stroke-width="1" />
<text x="242.00" y="341" fill="#cbd5f5" font-size="10" text-anchor="middle">11-24</text>
<line x1="414.00" y1="323" x2="414.00" y2="327" stroke="#94a3b8" stroke-opacity="0.5" stroke-width="1" />
<text x="414.00" y="341" fill="#cbd5f5" font-size="10" text-anchor="middle">11-30</text>
<line x1="586.00" y1="323" x2="586.00" y2="327" stroke="#94a3b8" stroke-opacity="0.5" stroke-width="1" />
<text x="586.00" y="341" fill="#cbd5f5" font-size="10" text-anchor="middle">12-06</text>
<line x1="758.00" y1="323" x2="758.00" y2="327" stroke="#94a3b8" stroke-opacity="0.5" stroke-width="1" />
<text x="758.00" y="341" fill="#cbd5f5" font-size="10" text-anchor="middle">12-12</text>
<line x1="930.00" y1="323" x2="930.00" y2="327" stroke="#94a3b8" stroke-opacity="0.5" stroke-width="1" />
<text x="930.00" y="341" fill="#cbd5f5" font-size="10" text-anchor="middle">12-18</text>
<line x1="70" y1="74" x2="70" y2="323" stroke="#94a3b8" stroke-width="1" />
<line x1="70" y1="323" x2="930" y2="323" stroke="#94a3b8" stroke-width="1" />
<path d="M70.00,252.53 L99.66,260.82 L129.31,191.04 L158.97,251.52 L188.62,302.25 L218.28,286.35 L247.93,274.63 L277.59,248.88 L307.24,183.61 L336.90,201.51 L366.55,94.75 L396.21,227.99 L425.86,222.97 L455.52,214.15 L485.17,261.04 L514.83,221.97 L544.48,273.05 L574.14,299.38 L603.79,229.62 L633.45,234.14 L663.10,182.85 L692.76,219.93 L722.41,160.93 L752.07,159.31 L781.72,210.01 L811.38,202.64 L841.03,179.19 L870.69,254.88 L900.34,228.63 L930.00,248.93" fill="none" stroke="#38bdf8" stroke-width="2.2" stroke-linecap="round" />
<circle cx="70.00" cy="252.53" r="3" fill="#38bdf8" stroke="#0f172a" stroke-width="1" />
<text x="70.00" y="242.53" fill="#e2e8f0" font-size="9" text-anchor="middle">1350</text>
<circle cx="99.66" cy="260.82" r="3" fill="#38bdf8" stroke="#0f172a" stroke-width="1" />
<text x="99.66" y="240.82" fill="#e2e8f0" font-size="9" text-anchor="middle">1289</text>
<circle cx="129.31" cy="191.04" r="3" fill="#38bdf8" stroke="#0f172a" stroke-width="1" />
<text x="129.31" y="181.04" fill="#e2e8f0" font-size="9" text-anchor="middle">1806</text>
<circle cx="158.97" cy="251.52" r="3" fill="#38bdf8" stroke="#0f172a" stroke-width="1" />
<text x="158.97" y="231.52" fill="#e2e8f0" font-size="9" text-anchor="middle">1357</text>
<circle cx="188.62" cy="302.25" r="3" fill="#38bdf8" stroke="#0f172a" stroke-width="1" />
<text x="188.62" y="292.25" fill="#e2e8f0" font-size="9" text-anchor="middle">981.6</text>
<circle cx="218.28" cy="286.35" r="3" fill="#38bdf8" stroke="#0f172a" stroke-width="1" />
<text x="218.28" y="266.35" fill="#e2e8f0" font-size="9" text-anchor="middle">1099</text>
<circle cx="247.93" cy="274.63" r="3" fill="#38bdf8" stroke="#0f172a" stroke-width="1" />
<text x="247.93" y="264.63" fill="#e2e8f0" font-size="9" text-anchor="middle">1186</text>
<circle cx="277.59" cy="248.88" r="3" fill="#38bdf8" stroke="#0f172a" stroke-width="1" />
<text x="277.59" y="228.88" fill="#e2e8f0" font-size="9" text-anchor="middle">1377</text>
<circle cx="307.24" cy="183.61" r="3" fill="#38bdf8" stroke="#0f172a" stroke-width="1" />
<text x="307.24" y="173.61" fill="#e2e8f0" font-size="9" text-anchor="middle">1861</text>
<circle cx="336.90" cy="201.51" r="3" fill="#38bdf8" stroke="#0f172a" stroke-width="1" />
<text x="336.90" y="181.51" fill="#e2e8f0" font-size="9" text-anchor="middle">1728</text>
<circle cx="366.55" cy="94.75" r="3" fill="#38bdf8" stroke="#0f172a" stroke-width="1" />
<text x="366.55" y="84.75" fill="#e2e8f0" font-size="9" text-anchor="middle">2519</text>
<circle cx="396.21" cy="227.99" r="3" fill="#38bdf8" stroke="#0f172a" stroke-width="1" />
<text x="396.21" y="207.99" fill="#e2e8f0" font-size="9" text-anchor="middle">1532</text>
<circle cx="425.86" cy="222.97" r="3" fill="#38bdf8" stroke="#0f172a" stroke-width="1" />
<text x="425.86" y="212.97" fill="#e2e8f0" font-size="9" text-anchor="middle">1569</text>
<circle cx="455.52" cy="214.15" r="3" fill="#38bdf8" stroke="#0f172a" stroke-width="1" />
<text x="455.52" y="194.15" fill="#e2e8f0" font-size="9" text-anchor="middle">1634</text>
<circle cx="485.17" cy="261.04" r="3" fill="#38bdf8" stroke="#0f172a" stroke-width="1" />
<text x="485.17" y="251.04" fill="#e2e8f0" font-size="9" text-anchor="middle">1287</text>
<circle cx="514.83" cy="221.97" r="3" fill="#38bdf8" stroke="#0f172a" stroke-width="1" />
<text x="514.83" y="201.97" fill="#e2e8f0" font-size="9" text-anchor="middle">1576</text>
<circle cx="544.48" cy="273.05" r="3" fill="#38bdf8" stroke="#0f172a" stroke-width="1" />
<text x="544.48" y="263.05" fill="#e2e8f0" font-size="9" text-anchor="middle">1198</text>
<circle cx="574.14" cy="299.38" r="3" fill="#38bdf8" stroke="#0f172a" stroke-width="1" />
<text x="574.14" y="279.38" fill="#e2e8f0" font-size="9" text-anchor="middle">1003</text>
<circle cx="603.79" cy="229.62" r="3" fill="#38bdf8" stroke="#0f172a" stroke-width="1" />
<text x="603.79" y="219.62" fill="#e2e8f0" font-size="9" text-anchor="middle">1520</text>
<circle cx="633.45" cy="234.14" r="3" fill="#38bdf8" stroke="#0f172a" stroke-width="1" />
<text x="633.45" y="214.14" fill="#e2e8f0" font-size="9" text-anchor="middle">1486</text>
<circle cx="663.10" cy="182.85" r="3" fill="#38bdf8" stroke="#0f172a" stroke-width="1" />
<text x="663.10" y="172.85" fill="#e2e8f0" font-size="9" text-anchor="middle">1866</text>
<circle cx="692.76" cy="219.93" r="3" fill="#38bdf8" stroke="#0f172a" stroke-width="1" />
<text x="692.76" y="199.93" fill="#e2e8f0" font-size="9" text-anchor="middle">1592</text>
<circle cx="722.41" cy="160.93" r="3" fill="#38bdf8" stroke="#0f172a" stroke-width="1" />
<text x="722.41" y="150.93" fill="#e2e8f0" font-size="9" text-anchor="middle">2029</text>
<circle cx="752.07" cy="159.31" r="3" fill="#38bdf8" stroke="#0f172a" stroke-width="1" />
<text x="752.07" y="139.31" fill="#e2e8f0" font-size="9" text-anchor="middle">2041</text>
<circle cx="781.72" cy="210.01" r="3" fill="#38bdf8" stroke="#0f172a" stroke-width="1" />
<text x="781.72" y="200.01" fill="#e2e8f0" font-size="9" text-anchor="middle">1665</text>
<circle cx="811.38" cy="202.64" r="3" fill="#38bdf8" stroke="#0f172a" stroke-width="1" />
<text x="811.38" y="182.64" fill="#e2e8f0" font-size="9" text-anchor="middle">1720</text>
<circle cx="841.03" cy="179.19" r="3" fill="#38bdf8" stroke="#0f172a" stroke-width="1" />
<text x="841.03" y="169.19" fill="#e2e8f0" font-size="9" text-anchor="middle">1893</text>
<circle cx="870.69" cy="254.88" r="3" fill="#38bdf8" stroke="#0f172a" stroke-width="1" />
<text x="870.69" y="234.88" fill="#e2e8f0" font-size="9" text-anchor="middle">1333</text>
<circle cx="900.34" cy="228.63" r="3" fill="#38bdf8" stroke="#0f172a" stroke-width="1" />
<text x="900.34" y="218.63" fill="#e2e8f0" font-size="9" text-anchor="middle">1527</text>
<circle cx="930.00" cy="248.93" r="3" fill="#38bdf8" stroke="#0f172a" stroke-width="1" />
<text x="930.00" y="228.93" fill="#e2e8f0" font-size="9" text-anchor="middle">1377</text>
<text x="70" y="403" fill="#e2e8f0" font-size="13" font-weight="600">本年核心指标趋势（滑动7日窗口平均）</text>
<line x1="70" y1="656.00" x2="930" y2="656.00" stroke="#94a3b8" stroke-opacity="0.18" stroke-width="1" />
<text x="62" y="660.00" fill="#cbd5f5" font-size="10" text-anchor="end">-232</text>
<line x1="70" y1="593.75" x2="930" y2="593.75" stroke="#94a3b8" stroke-opacity="0.18" stroke-width="1" />
<text x="62" y="597.75" fill="#cbd5f5" font-size="10" text-anchor="end">463.9</text>
<line x1="70" y1="531.50" x2="930" y2="531.50" stroke="#94a3b8" stroke-opacity="0.18" stroke-width="1" />
<text x="62" y="535.50" fill="#cbd5f5" font-size="10" text-anchor="end">1160</text>
<line x1="70" y1="469.25" x2="930" y2="469.25" stroke="#94a3b8" stroke-opacity="0.18" stroke-width="1" />
<text x="62" y="473.25" fill="#cbd5f5" font-size="10" text-anchor="end">1856</text>
<line x1="70" y1="407.00" x2="930" y2="407.00" stroke="#94a3b8" stroke-opacity="0.18" stroke-width="1" />
<text x="62" y="411.00" fill="#cbd5f5" font-size="10" text-anchor="end">2552</text>
<line x1="70.00" y1="656" x2="70.00" y2="660" stroke="#94a3b8" stroke-opacity="0.5" stroke-width="1" />
<text x="70.00" y="674" fill="#cbd5f5" font-size="10" text-anchor="middle">2024-12</text>
<line x1="242.00" y1="656" x2="242.00" y2="660" stroke="#94a3b8" stroke-opacity="0.5" stroke-width="1" />
<text x="242.00" y="674" fill="#cbd5f5" font-size="10" text-anchor="middle">2025-03</text>
<line x1="414.00" y1="656" x2="414.00" y2="660" stroke="#94a3b8" stroke-opacity="0.5" stroke-width="1" />
<text x="414.00" y="674" fill="#cbd5f5" font-size="10" text-anchor="middle">2025-05</text>
<line x1="586.00" y1="656" x2="586.00" y2="660" stroke="#94a3b8" stroke-opacity="0.5" stroke-width="1" />
<text x="586.00" y="674" fill="#cbd5f5" font-size="10" text-anchor="middle">2025-07</text>
<line x1="758.00" y1="656" x2="758.00" y2="660" stroke="#94a3b8" stroke-opacity="0.5" stroke-width="1" />
<text x="758.00" y="674" fill="#cbd5f5" font-size="10" text-anchor="middle">2025-10</text>
<line x1="930.00" y1="656" x2="930.00" y2="660" stroke="#94a3b8" stroke-opacity="0.5" stroke-width="1" />
<text x="930.00" y="674" fill="#cbd5f5" font-size="10" text-anchor="middle">2025-12</text>
<line x1="70" y1="407" x2="70" y2="656" stroke="#94a3b8" stroke-width="1" />
<line x1="70" y1="656" x2="930" y2="656" stroke="#94a3b8" stroke-width="1" />
<path d="M70.00,656.00 L70.00,635.25 L72.36,635.25 L74.73,635.25 L77.09,635.25 L79.45,635.25 L81.81,635.25 L84.18,635.25 L86.54,635.25 L88.90,635.25 L91.26,635.25 L93.63,635.25 L95.99,635.25 L98.35,635.25 L100.71,635.25 L103.08,635.25 L105.44,635.25 L107.80,635.25 L110.16,635.25 L112.53,635.25 L114.89,635.25 L117.25,635.25 L119.62,635.25 L121.98,635.25 L124.34,635.25 L126.70,635.25 L129.07,635.25 L131.43,635.25 L133.79,635.25 L136.15,635.25 L138.52,635.25 L140.88,635.25 L143.24,635.25 L145.60,635.25 L147.97,635.25 L150.33,635.25 L152.69,632.55 L155.05,607.41 L157.42,592.59 L159.78,573.09 L162.14,566.55 L164.51,547.70 L166.87,531.76 L169.23,527.98 L171.59,531.29 L173.96,528.16 L176.32,542.37 L178.68,527.34 L181.04,519.59 L183.41,514.42 L185.77,510.34 L188.13,520.09 L190.49,520.02 L192.86,511.03 L195.22,513.91 L197.58,525.04 L199.95,529.26 L202.31,524.27 L204.67,520.22 L207.03,525.63 L209.40,512.93 L211.76,516.54 L214.12,514.91 L216.48,509.60 L218.85,511.30 L221.21,505.49 L223.57,504.93 L225.93,515.44 L228.30,514.90 L230.66,516.37 L233.02,524.27 L235.38,517.88 L237.75,518.94 L240.11,510.73 L242.47,468.38 L244.84,474.50 L247.20,466.27 L249.56,454.36 L251.92,448.72 L254.29,445.52 L256.65,427.75 L259.01,469.28 L261.37,464.21 L263.74,472.22 L266.10,479.44 L268.46,489.83 L270.82,498.32 L273.19,525.72 L275.55,524.43 L277.91,526.20 L280.27,529.18 L282.64,530.10 L285.00,526.06 L287.36,526.39 L289.73,514.10 L292.09,504.08 L294.45,503.23 L296.81,498.53 L299.18,499.69 L301.54,496.51 L303.90,496.15 L306.26,501.49 L308.63,514.58 L310.99,511.47 L313.35,508.84 L315.71,504.96 L318.08,504.14 L320.44,488.27 L322.80,467.00 L325.16,466.04 L327.53,467.67 L329.89,466.63 L332.25,465.87 L334.62,468.72 L336.98,481.71 L339.34,510.70 L341.70,515.13 L344.07,506.56 L346.43,507.33 L348.79,509.05 L351.15,506.72 L353.52,511.96 L355.88,498.90 L358.24,498.76 L360.60,507.36 L362.97,511.63 L365.33,511.89 L367.69,520.47 L370.05,515.49 L372.42,524.46 L374.78,524.07 L377.14,528.62 L379.51,525.92 L381.87,522.61 L384.23,529.08 L386.59,519.95 L388.96,506.21 L391.32,492.76 L393.68,484.56 L396.04,491.29 L398.41,497.09 L400.77,485.38 L403.13,500.75 L405.49,497.59 L407.86,473.33 L410.22,478.61 L412.58,473.86 L414.95,470.89 L417.31,470.64 L419.67,464.54 L422.03,481.55 L424.40,517.37 L426.76,515.90 L429.12,513.07 L431.48,514.85 L433.85,512.91 L436.21,512.79 L438.57,500.50 L440.93,498.48 L443.30,493.97 L445.66,496.69 L448.02,497.21 L450.38,502.04 L452.75,496.32 L455.11,510.24 L457.47,505.30 L459.84,428.71 L462.20,428.92 L464.56,431.97 L466.92,432.07 L469.29,444.71 L471.65,445.82 L474.01,451.40 L476.37,528.28 L478.74,527.39 L481.10,520.60 L483.46,517.03 L485.82,502.34 L488.19,497.44 L490.55,491.68 L492.91,494.09 L495.27,497.77 L497.64,502.62 L500.00,499.46 L502.36,497.75 L504.73,485.68 L507.09,484.23 L509.45,487.38 L511.81,478.63 L514.18,476.59 L516.54,479.36 L518.90,491.63 L521.26,492.78 L523.63,500.81 L525.99,501.33 L528.35,502.39 L530.71,505.02 L533.08,510.61 L535.44,514.31 L537.80,527.64 L540.16,529.94 L542.53,529.25 L544.89,529.39 L547.25,526.27 L549.62,523.44 L551.98,522.53 L554.34,515.23 L556.70,507.09 L559.07,503.81 L561.43,507.00 L563.79,508.63 L566.15,507.44 L568.52,504.33 L570.88,503.36 L573.24,513.33 L575.60,512.22 L577.97,513.02 L580.33,517.31 L582.69,512.66 L585.05,506.09 L587.42,493.05 L589.78,495.88 L592.14,501.70 L594.51,504.65 L596.87,503.05 L599.23,514.55 L601.59,522.69 L603.96,539.45 L606.32,527.10 L608.68,528.16 L611.04,529.39 L613.41,527.08 L615.77,527.16 L618.13,521.53 L620.49,526.22 L622.86,528.20 L625.22,530.52 L627.58,530.27 L629.95,531.95 L632.31,528.54 L634.67,534.90 L637.03,529.21 L639.40,534.76 L641.76,527.28 L644.12,524.09 L646.48,530.63 L648.85,520.07 L651.21,511.71 L653.57,436.27 L672.47,449.14 L674.84,457.60 L677.20,457.05 L679.56,449.35 L681.92,462.40 L684.29,458.48 L686.65,524.19 L689.01,510.35 L691.37,506.70 L693.74,508.37 L696.10,512.34 L698.46,509.00 L700.82,520.25 L703.19,531.11 L705.55,527.77 L707.91,525.37 L710.27,520.85 L712.64,521.54 L715.00,520.74 L717.36,514.72 L719.73,522.06 L722.09,524.68 L724.45,524.52 L726.81,526.98 L729.18,532.18 L731.54,532.06 L733.90,533.74 L736.26,532.45 L738.63,523.75 L740.99,521.81 L743.35,520.64 L745.71,514.64 L748.08,525.94 L750.44,533.11 L752.80,533.12 L755.16,549.34 L757.53,544.74 L759.89,535.83 L762.25,531.60 L764.62,518.42 L766.98,514.94 L769.34,509.13 L771.70,499.83 L774.07,502.04 L776.43,509.29 L778.79,507.29 L781.15,505.98 L783.52,504.53 L785.88,504.13 L788.24,505.69 L790.60,505.52 L792.97,505.91 L795.33,502.87 L797.69,507.90 L800.05,494.69 L802.42,486.01 L804.78,483.51 L807.14,485.57 L809.51,484.79 L811.87,488.29 L814.23,487.38 L816.59,503.57 L818.96,505.51 L821.32,491.25 L823.68,495.02 L826.04,493.76 L828.41,491.23 L830.77,493.97 L833.13,484.05 L835.49,448.64 L837.86,465.43 L840.22,461.11 L842.58,466.46 L844.95,469.95 L847.31,470.23 L849.67,480.87 L852.03,530.19 L854.40,533.25 L856.76,532.35 L859.12,535.42 L861.48,535.76 L863.85,532.91 L866.21,522.69 L868.57,517.46 L870.93,516.61 L873.30,520.67 L875.66,519.36 L878.02,519.01 L880.38,511.70 L882.75,512.69 L885.11,497.85 L887.47,490.81 L889.84,484.81 L892.20,479.08 L894.56,480.24 L896.92,483.87 L899.29,490.64 L901.65,510.02 L904.01,510.17 L906.37,511.23 L908.74,508.27 L911.10,504.37 L913.46,498.59 L915.82,487.82 L918.19,479.36 L920.55,476.81 L922.91,471.60 L925.27,478.43 L927.64,479.25 L930.00,487.58 L930.00,656.00 Z" fill="#38bdf8" fill-opacity="0.16" stroke="none" />
<path d="M70.00,635.25 L72.36,635.25 L74.73,635.25 L77.09,635.25 L79.45,635.25 L81.81,635.25 L84.18,635.25 L86.54,635.25 L88.90,635.25 L91.26,635.25 L93.63,635.25 L95.99,635.25 L98.35,635.25 L100.71,635.25 L103.08,635.25 L105.44,635.25 L107.80,635.25 L110.16,635.25 L112.53,635.25 L114.89,635.25 L117.25,635.25 L119.62,635.25 L121.98,635.25 L124.34,635.25 L126.70,635.25 L129.07,635.25 L131.43,635.25 L133.79,635.25 L136.15,635.25 L138.52,635.25 L140.88,635.25 L143.24,635.25 L145.60,635.25 L147.97,635.25 L150.33,635.25 L152.69,632.55 L155.05,607.41 L157.42,592.59 L159.78,573.09 L162.14,566.55 L164.51,547.70 L166.87,531.76 L169.23,527.98 L171.59,531.29 L173.96,528.16 L176.32,542.37 L178.68,527.34 L181.04,519.59 L183.41,514.42 L185.77,510.34 L188.13,520.09 L190.49,520.02 L192.86,511.03 L195.22,513.91 L197.58,525.04 L199.95,529.26 L202.31,524.27 L204.67,520.22 L207.03,525.63 L209.40,512.93 L211.76,516.54 L214.12,514.91 L216.48,509.60 L218.85,511.30 L221.21,505.49 L223.57,504.93 L225.93,515.44 L228.30,514.90 L230.66,516.37 L233.02,524.27 L235.38,517.88 L237.75,518.94 L240.11,510.73 L242.47,468.38 L244.84,474.50 L247.20,466.27 L249.56,454.36 L251.92,448.72 L254.29,445.52 L256.65,427.75 L259.01,469.28 L261.37,464.21 L263.74,472.22 L266.10,479.44 L268.46,489.83 L270.82,498.32 L273.19,525.72 L275.55,524.43 L277.91,526.20 L280.27,529.18 L282.64,530.10 L285.00,526.06 L287.36,526.39 L289.73,514.10 L292.09,504.08 L294.45,503.23 L296.81,498.53 L299.18,499.69 L301.54,496.51 L303.90,496.15 L306.26,501.49 L308.63,514.58 L310.99,511.47 L313.35,508.84 L315.71,504.96 L318.08,504.14 L320.44,488.27 L322.80,467.00 L325.16,466.04 L327.53,467.67 L329.89,466.63 L332.25,465.87 L334.62,468.72 L336.98,481.71 L339.34,510.70 L341.70,515.13 L344.07,506.56 L346.43,507.33 L348.79,509.05 L351.15,506.72 L353.52,511.96 L355.88,498.90 L358.24,498.76 L360.60,507.36 L362.97,511.63 L365.33,511.89 L367.69,520.47 L370.05,515.49 L372.42,524.46 L374.78,524.07 L377.14,528.62 L379.51,525.92 L381.87,522.61 L384.23,529.08 L386.59,519.95 L388.96,506.21 L391.32,492.76 L393.68,484.56 L396.04,491.29 L398.41,497.09 L400.77,485.38 L403.13,500.75 L405.49,497.59 L407.86,473.33 L410.22,478.61 L412.58,473.86 L414.95,470.89 L417.31,470.64 L419.67,464.54 L422.03,481.55 L424.40,517.37 L426.76,515.90 L429.12,513.07 L431.48,514.85 L433.85,512.91 L436.21,512.79 L438.57,500.50 L440.93,498.48 L443.30,493.97 L445.66,496.69 L448.02,497.21 L450.38,502.04 L452.75,496.32 L455.11,510.24 L457.47,505.30 L459.84,428.71 L462.20,428.92 L464.56,431.97 L466.92,432.07 L469.29,444.71 L471.65,445.82 L474.01,451.40 L476.37,528.28 L478.74,527.39 L481.10,520.60 L483.46,517.03 L485.82,502.34 L488.19,497.44 L490.55,491.68 L492.91,494.09 L495.27,497.77 L497.64,502.62 L500.00,499.46 L502.36,497.75 L504.73,485.68 L507.09,484.23 L509.45,487.38 L511.81,478.63 L514.18,476.59 L516.54,479.36 L518.90,491.63 L521.26,492.78 L523.63,500.81 L525.99,501.33 L528.35,502.39 L530.71,505.02 L533.08,510.61 L535.44,514.31 L537.80,527.64 L540.16,529.94 L542.53,529.25 L544.89,529.39 L547.25,526.27 L549.62,523.44 L551.98,522.53 L554.34,515.23 L556.70,507.09 L559.07,503.81 L561.43,507.00 L563.79,508.63 L566.15,507.44 L568.52,504.33 L570.88,503.36 L573.24,513.33 L575.60,512.22 L577.97,513.02 L580.33,517.31 L582.69,512.66 L585.05,506.09 L587.42,493.05 L589.78,495.88 L592.14,501.70 L594.51,504.65 L596.87,503.05 L599.23,514.55 L601.59,522.69 L603.96,539.45 L606.32,527.10 L608.68,528.16 L611.04,529.39 L613.41,527.08 L615.77,527.16 L618.13,521.53 L620.49,526.22 L622.86,528.20 L625.22,530.52 L627.58,530.27 L629.95,531.95 L632.31,528.54 L634.67,534.90 L637.03,529.21 L639.40,534.76 L641.76,527.28 L644.12,524.09 L646.48,530.63 L648.85,520.07 L651.21,511.71 L653.57,436.27 L672.47,449.14 L674.84,457.60 L677.20,457.05 L679.56,449.35 L681.92,462.40 L684.29,458.48 L686.65,524.19 L689.01,510.35 L691.37,506.70 L693.74,508.37 L696.10,512.34 L698.46,509.00 L700.82,520.25 L703.19,531.11 L705.55,527.77 L707.91,525.37 L710.27,520.85 L712.64,521.54 L715.00,520.74 L717.36,514.72 L719.73,522.06 L722.09,524.68 L724.45,524.52 L726.81,526.98 L729.18,532.18 L731.54,532.06 L733.90,533.74 L736.26,532.45 L738.63,523.75 L740.99,521.81 L743.35,520.64 L745.71,514.64 L748.08,525.94 L750.44,533.11 L752.80,533.12 L755.16,549.34 L757.53,544.74 L759.89,535.83 L762.25,531.60 L764.62,518.42 L766.98,514.94 L769.34,509.13 L771.70,499.83 L774.07,502.04 L776.43,509.29 L778.79,507.29 L781.15,505.98 L783.52,504.53 L785.88,504.13 L788.24,505.69 L790.60,505.52 L792.97,505.91 L795.33,502.87 L797.69,507.90 L800.05,494.69 L802.42,486.01 L804.78,483.51 L807.14,485.57 L809.51,484.79 L811.87,488.29 L814.23,487.38 L816.59,503.57 L818.96,505.51 L821.32,491.25 L823.68,495.02 L826.04,493.76 L828.41,491.23 L830.77,493.97 L833.13,484.05 L835.49,448.64 L837.86,465.43 L840.22,461.11 L842.58,466.46 L844.95,469.95 L847.31,470.23 L849.67,480.87 L852.03,530.19 L854.40,533.25 L856.76,532.35 L859.12,535.42 L861.48,535.76 L863.85,532.91 L866.21,522.69 L868.57,517.46 L870.93,516.61 L873.30,520.67 L875.66,519.36 L878.02,519.01 L880.38,511.70 L882.75,512.69 L885.11,497.85 L887.47,490.81 L889.84,484.81 L892.20,479.08 L894.56,480.24 L896.92,483.87 L899.29,490.64 L901.65,510.02 L904.01,510.17 L906.37,511.23 L908.74,508.27 L911.10,504.37 L913.46,498.59 L915.82,487.82 L918.19,479.36 L920.55,476.81 L922.91,471.60 L925.27,478.43 L927.64,479.25 L930.00,487.58" fill="none" stroke="#38bdf8" stroke-width="2.2" stroke-linecap="round" />
</svg>
