<svg xmlns="http://www.w3.org/2000/svg" viewBox="0 0 960 720" width="960" height="720">
<rect width="960" height="720" fill="#0f172a" />
<text x="480" y="28" fill="#e2e8f0" font-size="16" font-weight="700" text-anchor="middle">基础代谢趋势图</text>
<text x="70" y="70" fill="#e2e8f0" font-size="13" font-weight="600">本月分天指标明细</text>
<line x1="70" y1="323.00" x2="930" y2="323.00" stroke="#94a3b8" stroke-opacity="0.18" stroke-width="1" />
<text x="62" y="327.00" fill="#cbd5f5" font-size="10" text-anchor="end">865.7</text>
<line x1="70" y1="260.75" x2="930" y2="260.75" stroke="#94a3b8" stroke-opacity="0.18" stroke-width="1" />
<text x="62" y="264.75" fill="#cbd5f5" font-size="10" text-anchor="end">1187</text>
<line x1="70" y1="198.50" x2="930" y2="198.50" stroke="#94a3b8" stroke-opacity="0.18" stroke-width="1" />
<text x="62" y="202.50" fill="#cbd5f5" font-size="10" text-anchor="end">1509</text>
<line x1="70" y1="136.25" x2="930" y2="136.25" stroke="#94a3b8" stroke-opacity="0.18" stroke-width="1" />
<text x="62" y="140.25" fill="#cbd5f5" font-size="10" text-anchor="end">1831</text>
<line x1="70" y1="74.00" x2="930" y2="74.00" stroke="#94a3b8" stroke-opacity="0.18" stroke-width="1" />
<text x="62" y="78.00" fill="#cbd5f5" font-size="10" text-anchor="end">2152</text>
<line x1="70.00" y1="323" x2="70.00" y2="327" stroke="#94a3b8" stroke-opacity="0.5" stroke-width="1" />
<text x="70.00" y="341" fill="#cbd5f5" font-size="10" text-anchor="middle">11-22</text>
<line x1="242.00" y1="323" x2="242.00" y2="327" stroke="#94a3b8" stroke-opacity="0.5" stroke-width="1" />
<text x="242.00" y="341" fill="#cbd5f5" font-size="10" text-anchor="middle">11-27</text>
<line x1="414.00" y1="323" x2="414.00" y2="327" stroke="#94a3b8" stroke-opacity="0.5" stroke-width="1" />
<text x="414.00" y="341" fill="#cbd5f5" font-size="10" text-anchor="middle">12-03</text>
<line x1="586.00" y1="323" x2="586.00" y2="327" stroke="#94a3b8" stroke-opacity="0.5" stroke-width="1" />
<text x="586.00" y="341" fill="#cbd5f5" font-size="10" text-anchor="middle">12-09</text>
<line x1="758.00" y1="323" x2="758.00" y2="327" stroke="#94a3b8" stroke-opacity="0.5" stroke-width="1" />
<text x="758.00" y="341" fill="#cbd5f5" font-size="10" text-anchor="middle">12-15</text>
<line x1="930.00" y1="323" x2="930.00" y2="327" stroke="#94a3b8" stroke-opacity="0.5" stroke-width="1" />
<text x="930.00" y="341" fill="#cbd5f5" font-size="10" text-anchor="middle">12-21</text>
<line x1="70" y1="74" x2="70" y2="323" stroke="#94a3b8" stroke-width="1" />
<line x1="70" y1="323" x2="930" y2="323" stroke="#94a3b8" stroke-width="1" />
<path d="M70.00,116.96 L99.66,112.83 L129.31,116.33 L158.97,109.59 L188.62,116.11 L218.28,99.17 L247.93,110.06 L277.59,103.55 L307.24,104.98 L336.90,106.97 L366.55,101.09 L396.21,101.44 L425.86,105.47 L455.52,102.44 L485.17,103.76 L514.83,97.98 L544.48,110.98 L574.14,109.48 L603.79,107.41 L633.45,100.81 L663.10,100.16 L692.76,110.50 L722.41,102.98 L752.07,99.32 L781.72,125.59 L811.38,106.79 L841.03,108.05 L870.69,115.64 L900.34,94.75 L930.00,302.25" fill="none" stroke="#60a5fa" stroke-width="2.2" stroke-linecap="round" />
<circle cx="70.00" cy="116.96" r="3" fill="#60a5fa" stroke="#0f172a" stroke-width="1" />
<text x="70.00" y="106.96" fill="#e2e8f0" font-size="9" text-anchor="middle">1930</text>
<circle cx="99.66" cy="112.83" r="3" fill="#60a5fa" stroke="#0f172a" stroke-width="1" />
<text x="99.66" y="92.83" fill="#e2e8f0" font-size="9" text-anchor="middle">1952</text>
<circle cx="129.31" cy="116.33" r="3" fill="#60a5fa" stroke="#0f172a" stroke-width="1" />
<text x="129.31" y="106.33" fill="#e2e8f0" font-size="9" text-anchor="middle">1933</text>
<circle cx="158.97" cy="109.59" r="3" fill="#60a5fa" stroke="#0f172a" stroke-width="1" />
<text x="158.97" y="89.59" fill="#e2e8f0" font-size="9" text-anchor="middle">1968</text>
<circle cx="188.62" cy="116.11" r="3" fill="#60a5fa" stroke="#0f172a" stroke-width="1" />
<text x="188.62" y="106.11" fill="#e2e8f0" font-size="9" text-anchor="middle">1935</text>
<circle cx="218.28" cy="99.17" r="3" fill="#60a5fa" stroke="#0f172a" stroke-width="1" />
<text x="218.28" y="113.17" fill="#e2e8f0" font-size="9" text-anchor="middle">2022</text>
<circle cx="247.93" cy="110.06" r="3" fill="#60a5fa" stroke="#0f172a" stroke-width="1" />
<text x="247.93" y="100.06" fill="#e2e8f0" font-size="9" text-anchor="middle">1966</text>
<circle cx="277.59" cy="103.55" r="3" fill="#60a5fa" stroke="#0f172a" stroke-width="1" />
<text x="277.59" y="117.55" fill="#e2e8f0" font-size="9" text-anchor="middle">1999</text>
<circle cx="307.24" cy="104.98" r="3" fill="#60a5fa" stroke="#0f172a" stroke-width="1" />
<text x="307.24" y="94.98" fill="#e2e8f0" font-size="9" text-anchor="middle">1992</text>
<circle cx="336.90" cy="106.97" r="3" fill="#60a5fa" stroke="#0f172a" stroke-width="1" />
<text x="336.90" y="86.97" fill="#e2e8f0" font-size="9" text-anchor="middle">1982</text>
<circle cx="366.55" cy="101.09" r="3" fill="#60a5fa" stroke="#0f172a" stroke-width="1" />
<text x="366.55" y="91.09" fill="#e2e8f0" font-size="9" text-anchor="middle">2012</text>
<circle cx="396.21" cy="101.44" r="3" fill="#60a5fa" stroke="#0f172a" stroke-width="1" />
<text x="396.21" y="115.44" fill="#e2e8f0" font-size="9" text-anchor="middle">2010</text>
<circle cx="425.86" cy="105.47" r="3" fill="#60a5fa" stroke="#0f172a" stroke-width="1" />
<text x="425.86" y="95.47" fill="#e2e8f0" font-size="9" text-anchor="middle">1990</text>
<circle cx="455.52" cy="102.44" r="3" fill="#60a5fa" stroke="#0f172a" stroke-width="1" />
<text x="455.52" y="116.44" fill="#e2e8f0" font-size="9" text-anchor="middle">2005</text>
<circle cx="485.17" cy="103.76" r="3" fill="#60a5fa" stroke="#0f172a" stroke-width="1" />
<text x="485.17" y="93.76" fill="#e2e8f0" font-size="9" text-anchor="middle">1998</text>
<circle cx="514.83" cy="97.98" r="3" fill="#60a5fa" stroke="#0f172a" stroke-width="1" />
<text x="514.83" y="111.98" fill="#e2e8f0" font-size="9" text-anchor="middle">2028</text>
<circle cx="544.48" cy="110.98" r="3" fill="#60a5fa" stroke="#0f172a" stroke-width="1" />
<text x="544.48" y="100.98" fill="#e2e8f0" font-size="9" text-anchor="middle">1961</text>
<circle cx="574.14" cy="109.48" r="3" fill="#60a5fa" stroke="#0f172a" stroke-width="1" />
<text x="574.14" y="89.48" fill="#e2e8f0" font-size="9" text-anchor="middle">1969</text>
<circle cx="603.79" cy="107.41" r="3" fill="#60a5fa" stroke="#0f172a" stroke-width="1" />
<text x="603.79" y="97.41" fill="#e2e8f0" font-size="9" text-anchor="middle">1980</text>
<circle cx="633.45" cy="100.81" r="3" fill="#60a5fa" stroke="#0f172a" stroke-width="1" />
<text x="633.45" y="114.81" fill="#e2e8f0" font-size="9" text-anchor="middle">2014</text>
<circle cx="663.10" cy="100.16" r="3" fill="#60a5fa" stroke="#0f172a" stroke-width="1" />
<text x="663.10" y="90.16" fill="#e2e8f0" font-size="9" text-anchor="middle">2017</text>
<circle cx="692.76" cy="110.50" r="3" fill="#60a5fa" stroke="#0f172a" stroke-width="1" />
<text x="692.76" y="90.50" fill="#e2e8f0" font-size="9" text-anchor="middle">1964</text>
<circle cx="722.41" cy="102.98" r="3" fill="#60a5fa" stroke="#0f172a" stroke-width="1" />
<text x="722.41" y="92.98" fill="#e2e8f0" font-size="9" text-anchor="middle">2002</text>
<circle cx="752.07" cy="99.32" r="3" fill="#60a5fa" stroke="#0f172a" stroke-width="1" />
<text x="752.07" y="113.32" fill="#e2e8f0" font-size="9" text-anchor="middle">2021</text>
<circle cx="781.72" cy="125.59" r="3" fill="#60a5fa" stroke="#0f172a" stroke-width="1" />
<text x="781.72" y="115.59" fill="#e2e8f0" font-size="9" text-anchor="middle">1886</text>
<circle cx="811.38" cy="106.79" r="3" fill="#60a5fa" stroke="#0f172a" stroke-width="1" />
<text x="811.38" y="86.79" fill="#e2e8f0" font-size="9" text-anchor="middle">1983</text>
<circle cx="841.03" cy="108.05" r="3" fill="#60a5fa" stroke="#0f172a" stroke-width="1" />
<text x="841.03" y="98.05" fill="#e2e8f0" font-size="9" text-anchor="middle">1976</text>
<circle cx="870.69" cy="115.64" r="3" fill="#60a5fa" stroke="#0f172a" stroke-width="1" />
<text x="870.69" y="95.64" fill="#e2e8f0" font-size="9" text-anchor="middle">1937</text>
<circle cx="900.34" cy="94.75" r="3" fill="#60a5fa" stroke="#0f172a" stroke-width="1" />
<text x="900.34" y="84.75" fill="#e2e8f0" font-size="9" text-anchor="middle">2045</text>
<circle cx="930.00" cy="302.25" r="3" fill="#60a5fa" stroke="#0f172a" stroke-width="1" />
<text x="930.00" y="282.25" fill="#e2e8f0" font-size="9" text-anchor="middle">972.9</text>
<text x="70" y="403" fill="#e2e8f0" font-size="13" font-weight="600">本年核心指标趋势（滑动7日窗口平均）</text>
<line x1="70" y1="656.00" x2="930" y2="656.00" stroke="#94a3b8" stroke-opacity="0.18" stroke-width="1" />
<text x="62" y="660.00" fill="#cbd5f5" font-size="10" text-anchor="end">1721</text>
<line x1="70" y1="593.75" x2="930" y2="593.75" stroke="#94a3b8" stroke-opacity="0.18" stroke-width="1" />
<text x="62" y="597.75" fill="#cbd5f5" font-size="10" text-anchor="end">1812</text>
<line x1="70" y1="531.50" x2="930" y2="531.50" stroke="#94a3b8" stroke-opacity="0.18" stroke-width="1" />
<text x="62" y="535.50" fill="#cbd5f5" font-size="10" text-anchor="end">1904</text>
<line x1="70" y1="469.25" x2="930" y2="469.25" stroke="#94a3b8" stroke-opacity="0.18" stroke-width="1" />
<text x="62" y="473.25" fill="#cbd5f5" font-size="10" text-anchor="end">1995</text>
<line x1="70" y1="407.00" x2="930" y2="407.00" stroke="#94a3b8" stroke-opacity="0.18" stroke-width="1" />
<text x="62" y="411.00" fill="#cbd5f5" font-size="10" text-anchor="end">2087</text>
<line x1="70.00" y1="656" x2="70.00" y2="660" stroke="#94a3b8" stroke-opacity="0.5" stroke-width="1" />
<text x="70.00" y="674" fill="#cbd5f5" font-size="10" text-anchor="middle">2024-12</text>
<line x1="242.00" y1="656" x2="242.00" y2="660" stroke="#94a3b8" stroke-opacity="0.5" stroke-width="1" />
<text x="242.00" y="674" fill="#cbd5f5" font-size="10" text-anchor="middle">2025-03</text>
<line x1="414.00" y1="656" x2="414.00" y2="660" stroke="#94a3b8" stroke-opacity="0.5" stroke-width="1" />
<text x="414.00" y="674" fill="#cbd5f5" font-size="10" text-anchor="middle">2025-05</text>
<line x1="586.00" y1="656" x2="586.00" y2="660" stroke="#94a3b8" stroke-opacity="0.5" stroke-width="1" />
<text x="586.00" y="674" fill="#cbd5f5" font-size="10" text-anchor="middle">2025-07</text>
<line x1="758.00" y1="656" x2="758.00" y2="660" stroke="#94a3b8" stroke-opacity="0.5" stroke-width="1" />
<text x="758.00" y="674" fill="#cbd5f5" font-size="10" text-anchor="middle">2025-10</text>
<line x1="930.00" y1="656" x2="930.00" y2="660" stroke="#94a3b8" stroke-opacity="0.5" stroke-width="1" />
<text x="930.00" y="674" fill="#cbd5f5" font-size="10" text-anchor="middle">2025-12</text>
<line x1="70" y1="407" x2="70" y2="656" stroke="#94a3b8" stroke-width="1" />
<line x1="70" y1="656" x2="930" y2="656" stroke="#94a3b8" stroke-width="1" />
<path d="M70.00,656.00 L70.00,635.25 L72.36,610.10 L74.73,608.02 L77.09,606.54 L79.45,602.35 L81.81,607.45 L84.18,601.87 L86.54,595.72 L88.90,601.21 L91.26,597.37 L93.63,596.14 L95.99,599.91 L98.35,596.41 L100.71,598.56 L103.08,597.97 L105.44,595.29 L107.80,595.79 L110.16,599.72 L112.53,595.60 L114.89,594.86 L117.25,601.75 L119.62,597.93 L121.98,597.96 L124.34,603.54 L126.70,594.37 L129.07,598.87 L131.43,598.72 L133.79,595.70 L136.15,603.33 L138.52,595.92 L140.88,598.56 L143.24,602.97 L145.60,599.90 L147.97,582.10 L150.33,576.89 L152.69,555.35 L155.05,545.04 L157.42,516.91 L159.78,498.59 L162.14,478.39 L164.51,470.92 L166.87,451.19 L169.23,458.02 L171.59,452.71 L173.96,461.27 L176.32,457.07 L178.68,465.02 L181.04,475.60 L183.41,483.15 L185.77,479.40 L188.13,484.52 L190.49,482.49 L192.86,496.36 L195.22,493.99 L197.58,485.76 L199.95,479.47 L202.31,476.43 L204.67,476.73 L207.03,474.53 L209.40,464.46 L211.76,461.28 L214.12,458.09 L216.48,452.87 L218.85,446.82 L221.21,444.23 L223.57,440.74 L225.93,440.06 L228.30,439.86 L230.66,441.28 L233.02,444.66 L235.38,446.41 L237.75,451.06 L240.11,451.79 L242.47,452.23 L244.84,447.16 L247.20,444.97 L249.56,436.27 L251.92,435.37 L254.29,430.55 L256.65,427.75 L259.01,430.26 L261.37,429.64 L263.74,433.10 L266.10,446.77 L268.46,453.58 L270.82,459.07 L273.19,467.59 L275.55,467.46 L277.91,471.34 L280.27,478.24 L282.64,479.12 L285.00,482.61 L287.36,481.12 L289.73,479.46 L292.09,479.78 L294.45,482.56 L296.81,484.73 L299.18,486.28 L301.54,484.71 L303.90,484.12 L306.26,481.57 L308.63,483.04 L310.99,485.57 L313.35,482.26 L315.71,477.76 L318.08,480.64 L320.44,480.76 L322.80,485.06 L325.16,481.84 L327.53,481.60 L329.89,481.23 L332.25,488.36 L334.62,486.77 L336.98,486.75 L339.34,486.13 L341.70,488.74 L344.07,489.55 L346.43,491.37 L348.79,485.99 L351.15,488.16 L353.52,489.90 L355.88,492.71 L358.24,494.73 L360.60,489.56 L362.97,490.33 L365.33,496.61 L367.69,494.81 L370.05,498.71 L372.42,497.12 L374.78,494.39 L377.14,505.60 L379.51,504.73 L381.87,507.08 L384.23,505.69 L386.59,505.69 L388.96,508.63 L391.32,509.38 L393.68,504.51 L396.04,505.05 L398.41,510.51 L400.77,513.42 L403.13,511.88 L405.49,506.50 L407.86,509.03 L410.22,505.41 L412.58,504.25 L414.95,492.36 L417.31,490.74 L419.67,487.55 L422.03,491.27 L424.40,490.93 L426.76,497.48 L429.12,497.61 L431.48,495.54 L433.85,496.67 L436.21,499.65 L438.57,496.22 L440.93,489.45 L443.30,488.81 L445.66,486.55 L448.02,493.28 L450.38,492.12 L452.75,486.63 L455.11,487.60 L457.47,498.51 L459.84,495.33 L462.20,501.10 L464.56,500.38 L466.92,495.81 L469.29,500.62 L471.65,500.18 L474.01,496.43 L476.37,494.99 L478.74,491.75 L481.10,482.03 L483.46,481.17 L485.82,478.77 L488.19,481.84 L490.55,483.30 L492.91,479.79 L495.27,481.97 L497.64,483.44 L500.00,488.11 L502.36,494.59 L504.73,494.75 L507.09,491.28 L509.45,495.57 L511.81,503.26 L514.18,512.06 L516.54,515.66 L518.90,516.28 L521.26,512.21 L523.63,514.50 L525.99,515.61 L528.35,506.30 L530.71,505.01 L533.08,503.26 L535.44,501.43 L537.80,508.75 L540.16,509.13 L542.53,510.30 L544.89,516.87 L547.25,514.99 L549.62,511.33 L551.98,518.36 L554.34,514.53 L556.70,517.18 L559.07,520.93 L561.43,515.00 L563.79,517.41 L566.15,520.15 L568.52,513.22 L570.88,509.97 L573.24,519.64 L575.60,514.37 L577.97,525.72 L580.33,524.99 L582.69,535.00 L585.05,533.08 L587.42,536.18 L589.78,524.58 L592.14,524.10 L594.51,523.53 L596.87,522.52 L599.23,513.10 L601.59,509.87 L603.96,508.37 L606.32,507.68 L608.68,514.69 L611.04,500.95 L613.41,502.72 L615.77,509.27 L618.13,516.81 L620.49,523.74 L622.86,524.52 L625.22,515.21 L627.58,519.76 L629.95,513.70 L632.31,513.21 L634.67,504.31 L637.03,495.12 L639.40,505.83 L641.76,504.46 L644.12,506.02 L646.48,534.29 L665.38,624.52 L667.75,631.79 L670.11,630.61 L672.47,626.50 L674.84,627.10 L677.20,620.65 L679.56,596.92 L681.92,495.86 L684.29,487.09 L686.65,489.63 L689.01,482.24 L691.37,484.69 L693.74,485.98 L696.10,479.33 L698.46,479.59 L700.82,486.80 L703.19,485.63 L705.55,485.20 L707.91,484.80 L710.27,484.99 L712.64,487.82 L715.00,493.36 L717.36,488.90 L719.73,487.64 L722.09,489.24 L724.45,489.12 L726.81,483.79 L729.18,479.98 L731.54,469.11 L733.90,463.95 L736.26,467.70 L738.63,466.30 L740.99,463.64 L743.35,470.78 L745.71,476.25 L748.08,489.36 L750.44,494.72 L752.80,487.08 L755.16,479.38 L757.53,475.05 L759.89,475.84 L762.25,473.29 L764.62,459.75 L766.98,451.99 L769.34,453.74 L771.70,453.19 L774.07,454.70 L776.43,445.93 L778.79,438.34 L781.15,445.91 L783.52,450.06 L785.88,451.87 L788.24,452.37 L790.60,454.74 L792.97,455.35 L795.33,457.43 L797.69,457.83 L800.05,454.81 L802.42,450.18 L804.78,443.70 L807.14,440.74 L809.51,438.52 L811.87,440.51 L814.23,432.85 L816.59,442.22 L818.96,451.76 L821.32,456.75 L823.68,459.68 L826.04,459.05 L828.41,457.07 L830.77,457.18 L833.13,447.84 L835.49,444.56 L837.86,452.61 L840.22,453.17 L842.58,457.35 L844.95,461.09 L847.31,471.23 L849.67,467.19 L852.03,466.25 L854.40,464.39 L856.76,466.52 L859.12,464.56 L861.48,473.67 L863.85,472.52 L866.21,485.48 L868.57,487.73 L870.93,492.14 L873.30,487.47 L875.66,494.70 L878.02,487.97 L880.38,484.04 L882.75,479.34 L885.11,475.08 L887.47,467.73 L889.84,470.89 L892.20,467.06 L894.56,467.16 L896.92,463.65 L899.29,465.66 L901.65,469.87 L904.01,472.86 L906.37,470.53 L908.74,469.38 L911.10,472.76 L913.46,475.27 L915.82,469.42 L918.19,477.50 L920.55,477.19 L922.91,480.82 L925.27,488.59 L927.64,480.69 L930.00,580.62 L930.00,656.00 Z" fill="#60a5fa" fill-opacity="0.16" stroke="none" />
<path d="M70.00,635.25 L72.36,610.10 L74.73,608.02 L77.09,606.54 L79.45,602.35 L81.81,607.45 L84.18,601.87 L86.54,595.72 L88.90,601.21 L91.26,597.37 L93.63,596.14 L95.99,599.91 L98.35,596.41 L100.71,598.56 L103.08,597.97 L105.44,595.29 L107.80,595.79 L110.16,599.72 L112.53,595.60 L114.89,594.86 L117.25,601.75 L119.62,597.93 L121.98,597.96 L124.34,603.54 L126.70,594.37 L129.07,598.87 L131.43,598.72 L133.79,595.70 L136.15,603.33 L138.52,595.92 L140.88,598.56 L143.24,602.97 L145.60,599.90 L147.97,582.10 L150.33,576.89 L152.69,555.35 L155.05,545.04 L157.42,516.91 L159.78,498.59 L162.14,478.39 L164.51,470.92 L166.87,451.19 L169.23,458.02 L171.59,452.71 L173.96,461.27 L176.32,457.07 L178.68,465.02 L181.04,475.60 L183.41,483.15 L185.77,479.40 L188.13,484.52 L190.49,482.49 L192.86,496.36 L195.22,493.99 L197.58,485.76 L199.95,479.47 L202.31,476.43 L204.67,476.73 L207.03,474.53 L209.40,464.46 L211.76,461.28 L214.12,458.09 L216.48,452.87 L218.85,446.82 L221.21,444.23 L223.57,440.74 L225.93,440.06 L228.30,439.86 L230.66,441.28 L233.02,444.66 L235.38,446.41 L237.75,451.06 L240.11,451.79 L242.47,452.23 L244.84,447.16 L247.20,444.97 L249.56,436.27 L251.92,435.37 L254.29,430.55 L256.65,427.75 L259.01,430.26 L261.37,429.64 L263.74,433.10 L266.10,446.77 L268.46,453.58 L270.82,459.07 L273.19,467.59 L275.55,467.46 L277.91,471.34 L280.27,478.24 L282.64,479.12 L285.00,482.61 L287.36,481.12 L289.73,479.46 L292.09,479.78 L294.45,482.56 L296.81,484.73 L299.18,486.28 L301.54,484.71 L303.90,484.12 L306.26,481.57 L308.63,483.04 L310.99,485.57 L313.35,482.26 L315.71,477.76 L318.08,480.64 L320.44,480.76 L322.80,485.06 L325.16,481.84 L327.53,481.60 L329.89,481.23 L332.25,488.36 L334.62,486.77 L336.98,486.75 L339.34,486.13 L341.70,488.74 L344.07,489.55 L346.43,491.37 L348.79,485.99 L351.15,488.16 L353.52,489.90 L355.88,492.71 L358.24,494.73 L360.60,489.56 L362.97,490.33 L365.33,496.61 L367.69,494.81 L370.05,498.71 L372.42,497.12 L374.78,494.39 L377.14,505.60 L379.51,504.73 L381.87,507.08 L384.23,505.69 L386.59,505.69 L388.96,508.63 L391.32,509.38 L393.68,504.51 L396.04,505.05 L398.41,510.51 L400.77,513.42 L403.13,511.88 L405.49,506.50 L407.86,509.03 L410.22,505.41 L412.58,504.25 L414.95,492.36 L417.31,490.74 L419.67,487.55 L422.03,491.27 L424.40,490.93 L426.76,497.48 L429.12,497.61 L431.48,495.54 L433.85,496.67 L436.21,499.65 L438.57,496.22 L440.93,489.45 L443.30,488.81 L445.66,486.55 L448.02,493.28 L450.38,492.12 L452.75,486.63 L455.11,487.60 L457.47,498.51 L459.84,495.33 L462.20,501.10 L464.56,500.38 L466.92,495.81 L469.29,500.62 L471.65,500.18 L474.01,496.43 L476.37,494.99 L478.74,491.75 L481.10,482.03 L483.46,481.17 L485.82,478.77 L488.19,481.84 L490.55,483.30 L492.91,479.79 L495.27,481.97 L497.64,483.44 L500.00,488.11 L502.36,494.59 L504.73,494.75 L507.09,491.28 L509.45,495.57 L511.81,503.26 L514.18,512.06 L516.54,515.66 L518.90,516.28 L521.26,512.21 L523.63,514.50 L525.99,515.61 L528.35,506.30 L530.71,505.01 L533.08,503.26 L535.44,501.43 L537.80,508.75 L540.16,509.13 L542.53,510.30 L544.89,516.87 L547.25,514.99 L549.62,511.33 L551.98,518.36 L554.34,514.53 L556.70,517.18 L559.07,520.93 L561.43,515.00 L563.79,517.41 L566.15,520.15 L568.52,513.22 L570.88,509.97 L573.24,519.64 L575.60,514.37 L577.97,525.72 L580.33,524.99 L582.69,535.00 L585.05,533.08 L587.42,536.18 L589.78,524.58 L592.14,524.10 L594.51,523.53 L596.87,522.52 L599.23,513.10 L601.59,509.87 L603.96,508.37 L606.32,507.68 L608.68,514.69 L611.04,500.95 L613.41,502.72 L615.77,509.27 L618.13,516.81 L620.49,523.74 L622.86,524.52 L625.22,515.21 L627.58,519.76 L629.95,513.70 L632.31,513.21 L634.67,504.31 L637.03,495.12 L639.40,505.83 L641.76,504.46 L644.12,506.02 L646.48,534.29 L665.38,624.52 L667.75,631.79 L670.11,630.61 L672.47,626.50 L674.84,627.10 L677.20,620.65 L679.56,596.92 L681.92,495.86 L684.29,487.09 L686.65,489.63 L689.01,482.24 L691.37,484.69 L693.74,485.98 L696.10,479.33 L698.46,479.59 L700.82,486.80 L703.19,485.63 L705.55,485.20 L707.91,484.80 L710.27,484.99 L712.64,487.82 L715.00,493.36 L717.36,488.90 L719.73,487.64 L722.09,489.24 L724.45,489.12 L726.81,483.79 L729.18,479.98 L731.54,469.11 L733.90,463.95 L736.26,467.70 L738.63,466.30 L740.99,463.64 L743.35,470.78 L745.71,476.25 L748.08,489.36 L750.44,494.72 L752.80,487.08 L755.16,479.38 L757.53,475.05 L759.89,475.84 L762.25,473.29 L764.62,459.75 L766.98,451.99 L769.34,453.74 L771.70,453.19 L774.07,454.70 L776.43,445.93 L778.79,438.34 L781.15,445.91 L783.52,450.06 L785.88,451.87 L788.24,452.37 L790.60,454.74 L792.97,455.35 L795.33,457.43 L797.69,457.83 L800.05,454.81 L802.42,450.18 L804.78,443.70 L807.14,440.74 L809.51,438.52 L811.87,440.51 L814.23,432.85 L816.59,442.22 L818.96,451.76 L821.32,456.75 L823.68,459.68 L826.04,459.05 L828.41,457.07 L830.77,457.18 L833.13,447.84 L835.49,444.56 L837.86,452.61 L840.22,453.17 L842.58,457.35 L844.95,461.09 L847.31,471.23 L849.67,467.19 L852.03,466.25 L854.40,464.39 L856.76,466.52 L859.12,464.56 L861.48,473.67 L863.85,472.52 L866.21,485.48 L868.57,487.73 L870.93,492.14 L873.30,487.47 L875.66,494.70 L878.02,487.97 L880.38,484.04 L882.75,479.34 L885.11,475.08 L887.47,467.73 L889.84,470.89 L892.20,467.06 L894.56,467.16 L896.92,463.65 L899.29,465.66 L901.65,469.87 L904.01,472.86 L906.37,470.53 L908.74,469.38 L911.10,472.76 L913.46,475.27 L915.82,469.42 L918.19,477.50 L920.55,477.19 L922.91,480.82 L925.27,488.59 L927.64,480.69 L930.00,580.62" fill="none" stroke="#60a5fa" stroke-width="2.2" stroke-linecap="round" />
</svg>
