<svg xmlns="http://www.w3.org/2000/svg" viewBox="0 0 960 640" width="960" height="640">
  <rect width="960" height="640" fill="#0f172a" />
  <line x1="40" y1="40.00" x2="920.00" y2="40.00" stroke="#94a3b8" stroke-opacity="0.18" stroke-width="1" /><line x1="40" y1="128.00" x2="920.00" y2="128.00" stroke="#94a3b8" stroke-opacity="0.18" stroke-width="1" /><line x1="40" y1="216.00" x2="920.00" y2="216.00" stroke="#94a3b8" stroke-opacity="0.18" stroke-width="1" /><line x1="40" y1="304.00" x2="920.00" y2="304.00" stroke="#94a3b8" stroke-opacity="0.18" stroke-width="1" />
  <line x1="40" y1="336.00" x2="920.00" y2="336.00" stroke="#94a3b8" stroke-opacity="0.18" stroke-width="1" /><line x1="40" y1="424.00" x2="920.00" y2="424.00" stroke="#94a3b8" stroke-opacity="0.18" stroke-width="1" /><line x1="40" y1="512.00" x2="920.00" y2="512.00" stroke="#94a3b8" stroke-opacity="0.18" stroke-width="1" /><line x1="40" y1="600.00" x2="920.00" y2="600.00" stroke="#94a3b8" stroke-opacity="0.18" stroke-width="1" />
  <line x1="40" y1="320.00" x2="920.00" y2="320.00" stroke="#1f2937" stroke-width="1" />
  <polyline points="40.00,158.94 70.34,221.02 100.69,169.17 131.03,89.76 161.38,304.00 191.72,243.85 222.07,237.58 252.41,153.21 282.76,40.00 313.10,246.87 343.45,169.46 373.79,254.62 404.14,237.56 434.48,125.13 464.83,113.62 495.17,173.90 525.52,248.11 555.86,282.50 586.21,110.17 616.55,124.37 646.90,191.20 677.24,213.83 707.59,140.58 737.93,181.66 768.28,255.99 798.62,203.37 828.97,184.36 859.31,254.45 889.66,64.21 920.00,99.29" fill="none" stroke="#60a5fa" stroke-width="2" stroke-linecap="round" stroke-linejoin="round" />
  <polyline points="40.00,365.27 42.46,336.00 44.93,408.04 47.39,417.71 49.86,418.60 52.32,420.61 54.79,418.70 57.25,436.72 59.72,456.24 62.18,519.66 64.65,511.79 67.11,524.16 69.58,534.95 72.04,534.08 74.51,518.82 76.97,527.53 79.44,559.82 81.90,531.56 84.37,520.86 86.83,522.07 89.30,512.69 91.76,505.32 94.23,481.41 96.69,483.96 99.16,494.41 101.62,476.71 104.09,457.16 106.55,459.37 109.02,473.06 111.48,486.75 113.95,491.00 116.41,510.45 118.88,506.04 121.34,513.37 123.81,514.20 126.27,507.32 128.74,513.35 131.20,513.57 133.67,518.49 136.13,555.30 138.60,560.67 141.06,571.19 143.53,583.94 145.99,577.93 148.46,566.66 150.92,577.06 153.39,563.99 155.85,567.13 158.32,566.24 160.78,565.04 163.25,583.06 165.71,593.98 168.18,587.74 170.64,591.33 173.11,592.86 175.57,597.70 178.04,593.58 180.50,584.45 182.97,586.05 185.43,563.48 187.90,566.15 190.36,566.02 192.83,554.14 195.29,555.40 197.76,548.09 200.22,541.49 202.69,547.90 205.15,548.54 207.62,541.15 210.08,544.29 212.55,535.50 215.01,542.39 217.48,546.02 219.94,514.85 222.41,517.77 224.87,511.63 227.34,515.21 229.80,502.91 232.27,493.56 234.73,477.19 237.20,521.09 239.66,514.42 242.13,514.34 244.59,508.25 247.06,523.69 249.52,529.71 251.99,549.26 254.45,548.73 256.92,553.48 259.38,568.40 261.85,564.53 264.31,551.27 266.78,555.52 269.24,549.79 271.71,530.18 274.17,528.48 276.64,508.89 279.10,514.58 281.57,511.51 284.03,514.16 286.50,516.12 288.96,535.61 291.43,524.34 293.89,522.60 296.36,515.96 298.82,532.81 301.29,521.36 303.75,511.96 306.22,513.23 308.68,524.81 311.15,532.23 313.61,529.01 316.08,520.18 318.54,518.42 321.01,533.21 323.47,536.17 325.94,517.91 328.40,513.55 330.87,513.92 333.33,508.16 335.80,512.43 338.26,491.74 340.73,487.99 343.19,496.09 345.66,513.28 348.12,516.80 350.59,523.68 353.05,528.60 355.52,539.43 357.98,538.97 360.45,549.25 362.91,540.05 365.38,547.94 367.84,566.70 370.31,563.21 372.77,560.55 375.24,554.91 377.70,539.31 380.17,549.67 382.63,547.76 385.10,526.53 387.56,536.60 390.03,540.50 392.49,520.65 394.96,532.73 397.42,523.95 399.89,522.07 402.35,525.10 404.82,521.24 407.28,527.96 409.75,556.14 412.21,556.98 414.68,561.36 417.14,565.38 419.61,566.45 422.07,567.47 424.54,559.90 427.00,560.59 429.47,559.62 431.93,560.56 434.40,562.54 436.86,574.20 439.33,570.24 441.79,579.56 444.26,574.66 446.72,531.94 449.19,529.90 451.65,532.61 454.12,531.63 456.58,539.61 459.05,538.48 461.51,540.57 463.98,584.93 466.44,584.41 468.91,573.43 471.37,563.66 473.84,552.43 476.30,548.89 478.77,547.51 481.23,547.60 483.70,552.64 486.16,563.00 488.63,555.31 491.09,553.93 493.56,547.08 496.02,535.65 498.49,540.12 500.95,522.63 503.42,514.04 505.88,521.03 508.35,534.46 510.81,525.67 513.28,539.17 515.74,537.41 518.21,543.95 520.67,555.28 523.14,565.62 525.60,563.63 528.07,582.26 530.53,583.27 533.00,585.31 535.46,591.09 537.93,581.67 540.39,575.78 542.86,576.20 545.32,569.05 547.79,564.16 550.25,557.14 552.72,557.38 555.18,568.82 557.65,572.52 560.11,565.82 562.58,568.87 565.04,576.66 567.51,576.02 569.97,568.59 572.44,569.45 574.90,558.90 577.37,560.40 579.83,556.77 582.30,560.60 584.76,569.49 587.23,579.99 589.69,576.34 592.16,581.31 594.62,583.43 597.09,589.44 599.55,572.90 602.02,571.74 604.48,574.03 606.95,567.70 609.41,580.36 611.88,578.17 614.34,578.89 616.81,587.14 619.27,590.56 621.74,591.42 624.20,600.00 626.67,592.59 629.13,593.69 631.60,582.58 634.06,578.20 636.53,570.04 638.99,565.44 641.46,573.22 643.92,576.66 646.39,580.09 648.85,504.50 651.32,525.42 653.78,533.15 656.25,532.22 658.71,521.79 661.18,517.86 663.64,503.98 666.11,576.09 668.57,562.36 671.04,558.24 673.50,555.55 675.97,556.16 678.43,548.58 680.90,548.49 683.36,536.11 685.83,534.21 688.29,533.40 690.76,530.34 693.22,530.89 695.69,529.28 698.15,534.40 700.62,564.19 703.08,566.82 705.55,565.41 708.01,558.87 710.48,564.90 712.94,570.17 715.41,561.06 717.87,558.46 720.34,534.99 722.80,532.17 725.27,534.77 727.73,530.85 730.20,543.41 732.66,558.25 735.13,561.20 737.59,589.13 740.06,587.94 742.52,588.55 744.99,584.97 747.45,578.99 749.92,579.75 752.38,574.24 754.85,561.81 757.31,560.53 759.78,567.28 762.24,553.51 764.71,539.23 767.17,538.46 769.64,511.39 772.10,517.08 774.57,512.90 777.03,509.89 779.50,511.75 781.96,520.21 784.43,513.03 786.89,505.58 789.36,504.94 791.82,511.20 794.29,512.88 796.75,517.85 799.22,514.57 801.68,521.50 804.15,549.80 806.61,528.37 809.08,535.26 811.54,523.80 814.01,517.91 816.47,526.16 818.94,523.66 821.40,471.72 823.87,493.16 826.33,486.45 828.80,505.56 831.26,516.99 833.73,519.73 836.19,525.15 838.66,586.91 841.12,591.09 843.59,591.02 846.05,589.12 848.52,583.14 850.98,579.04 853.45,570.24 855.91,554.41 858.38,553.54 860.84,555.54 863.31,554.39 865.77,553.91 868.24,538.64 870.70,545.20 873.17,551.92 875.63,547.75 878.10,547.22 880.56,537.74 883.03,534.40 885.49,545.69 887.96,545.80 890.42,555.33 892.89,543.15 895.35,533.60 897.82,539.17 900.28,547.62 902.75,544.81 905.21,539.21 907.68,536.97 910.14,544.83 912.61,549.89 915.07,555.23 917.54,542.61 920.00,539.13" fill="none" stroke="#60a5fa" stroke-width="2" stroke-linecap="round" stroke-linejoin="round" />
  
  
  </svg>