<svg xmlns="http://www.w3.org/2000/svg" viewBox="0 0 960 720" width="960" height="720">
<rect width="960" height="720" fill="#0f172a" />
<text x="480" y="28" fill="#e2e8f0" font-size="16" font-weight="700" text-anchor="middle">主动能量趋势图</text>
<text x="70" y="70" fill="#e2e8f0" font-size="13" font-weight="600">本月分天指标明细</text>
<line x1="70" y1="323.00" x2="930" y2="323.00" stroke="#94a3b8" stroke-opacity="0.18" stroke-width="1" />
<text x="62" y="327.00" fill="#cbd5f5" font-size="10" text-anchor="end">92.9</text>
<line x1="70" y1="260.75" x2="930" y2="260.75" stroke="#94a3b8" stroke-opacity="0.18" stroke-width="1" />
<text x="62" y="264.75" fill="#cbd5f5" font-size="10" text-anchor="end">401.4</text>
<line x1="70" y1="198.50" x2="930" y2="198.50" stroke="#94a3b8" stroke-opacity="0.18" stroke-width="1" />
<text x="62" y="202.50" fill="#cbd5f5" font-size="10" text-anchor="end">709.9</text>
<line x1="70" y1="136.25" x2="930" y2="136.25" stroke="#94a3b8" stroke-opacity="0.18" stroke-width="1" />
<text x="62" y="140.25" fill="#cbd5f5" font-size="10" text-anchor="end">1018</text>
<line x1="70" y1="74.00" x2="930" y2="74.00" stroke="#94a3b8" stroke-opacity="0.18" stroke-width="1" />
<text x="62" y="78.00" fill="#cbd5f5" font-size="10" text-anchor="end">1327</text>
<line x1="70.00" y1="323" x2="70.00" y2="327" stroke="#94a3b8" stroke-opacity="0.5" stroke-width="1" />
<text x="70.00" y="341" fill="#cbd5f5" font-size="10" text-anchor="middle">11-22</text>
<line x1="242.00" y1="323" x2="242.00" y2="327" stroke="#94a3b8" stroke-opacity="0.5" stroke-width="1" />
<text x="242.00" y="341" fill="#cbd5f5" font-size="10" text-anchor="middle">11-27</text>
<line x1="414.00" y1="323" x2="414.00" y2="327" stroke="#94a3b8" stroke-opacity="0.5" stroke-width="1" />
<text x="414.00" y="341" fill="#cbd5f5" font-size="10" text-anchor="middle">12-03</text>
<line x1="586.00" y1="323" x2="586.00" y2="327" stroke="#94a3b8" stroke-opacity="0.5" stroke-width="1" />
<text x="586.00" y="341" fill="#cbd5f5" font-size="10" text-anchor="middle">12-09</text>
<line x1="758.00" y1="323" x2="758.00" y2="327" stroke="#94a3b8" stroke-opacity="0.5" stroke-width="1" />
<text x="758.00" y="341" fill="#cbd5f5" font-size="10" text-anchor="middle">12-15</text>
<line x1="930.00" y1="323" x2="930.00" y2="327" stroke="#94a3b8" stroke-opacity="0.5" stroke-width="1" />
<text x="930.00" y="341" fill="#cbd5f5" font-size="10" text-anchor="middle">12-21</text>
<line x1="70" y1="74" x2="70" y2="323" stroke="#94a3b8" stroke-width="1" />
<line x1="70" y1="323" x2="930" y2="323" stroke="#94a3b8" stroke-width="1" />
<path d="M70.00,161.99 L99.66,267.80 L129.31,238.09 L158.97,235.00 L188.62,193.33 L218.28,137.41 L247.93,239.59 L277.59,201.35 L307.24,243.41 L336.90,234.99 L366.55,179.46 L396.21,173.77 L425.86,203.55 L455.52,240.20 L485.17,257.18 L514.83,172.07 L544.48,179.08 L574.14,212.09 L603.79,223.27 L633.45,187.09 L663.10,207.38 L692.76,244.09 L722.41,218.10 L752.07,208.71 L781.72,243.33 L811.38,149.37 L841.03,162.20 L870.69,196.48 L900.34,94.75 L930.00,302.25" fill="none" stroke="#60a5fa" stroke-width="2.2" stroke-linecap="round" />
<circle cx="70.00" cy="161.99" r="3" fill="#60a5fa" stroke="#0f172a" stroke-width="1" />
<text x="70.00" y="151.99" fill="#e2e8f0" font-size="9" text-anchor="middle">890.9</text>
<circle cx="99.66" cy="267.80" r="3" fill="#60a5fa" stroke="#0f172a" stroke-width="1" />
<text x="99.66" y="247.80" fill="#e2e8f0" font-size="9" text-anchor="middle">366.4</text>
<circle cx="129.31" cy="238.09" r="3" fill="#60a5fa" stroke="#0f172a" stroke-width="1" />
<text x="129.31" y="228.09" fill="#e2e8f0" font-size="9" text-anchor="middle">513.7</text>
<circle cx="158.97" cy="235.00" r="3" fill="#60a5fa" stroke="#0f172a" stroke-width="1" />
<text x="158.97" y="215.00" fill="#e2e8f0" font-size="9" text-anchor="middle">529</text>
<circle cx="188.62" cy="193.33" r="3" fill="#60a5fa" stroke="#0f172a" stroke-width="1" />
<text x="188.62" y="183.33" fill="#e2e8f0" font-size="9" text-anchor="middle">735.5</text>
<circle cx="218.28" cy="137.41" r="3" fill="#60a5fa" stroke="#0f172a" stroke-width="1" />
<text x="218.28" y="117.41" fill="#e2e8f0" font-size="9" text-anchor="middle">1013</text>
<circle cx="247.93" cy="239.59" r="3" fill="#60a5fa" stroke="#0f172a" stroke-width="1" />
<text x="247.93" y="229.59" fill="#e2e8f0" font-size="9" text-anchor="middle">506.3</text>
<circle cx="277.59" cy="201.35" r="3" fill="#60a5fa" stroke="#0f172a" stroke-width="1" />
<text x="277.59" y="181.35" fill="#e2e8f0" font-size="9" text-anchor="middle">695.8</text>
<circle cx="307.24" cy="243.41" r="3" fill="#60a5fa" stroke="#0f172a" stroke-width="1" />
<text x="307.24" y="233.41" fill="#e2e8f0" font-size="9" text-anchor="middle">487.3</text>
<circle cx="336.90" cy="234.99" r="3" fill="#60a5fa" stroke="#0f172a" stroke-width="1" />
<text x="336.90" y="214.99" fill="#e2e8f0" font-size="9" text-anchor="middle">529.1</text>
<circle cx="366.55" cy="179.46" r="3" fill="#60a5fa" stroke="#0f172a" stroke-width="1" />
<text x="366.55" y="169.46" fill="#e2e8f0" font-size="9" text-anchor="middle">804.3</text>
<circle cx="396.21" cy="173.77" r="3" fill="#60a5fa" stroke="#0f172a" stroke-width="1" />
<text x="396.21" y="153.77" fill="#e2e8f0" font-size="9" text-anchor="middle">832.5</text>
<circle cx="425.86" cy="203.55" r="3" fill="#60a5fa" stroke="#0f172a" stroke-width="1" />
<text x="425.86" y="193.55" fill="#e2e8f0" font-size="9" text-anchor="middle">684.9</text>
<circle cx="455.52" cy="240.20" r="3" fill="#60a5fa" stroke="#0f172a" stroke-width="1" />
<text x="455.52" y="220.20" fill="#e2e8f0" font-size="9" text-anchor="middle">503.2</text>
<circle cx="485.17" cy="257.18" r="3" fill="#60a5fa" stroke="#0f172a" stroke-width="1" />
<text x="485.17" y="247.18" fill="#e2e8f0" font-size="9" text-anchor="middle">419.1</text>
<circle cx="514.83" cy="172.07" r="3" fill="#60a5fa" stroke="#0f172a" stroke-width="1" />
<text x="514.83" y="152.07" fill="#e2e8f0" font-size="9" text-anchor="middle">840.9</text>
<circle cx="544.48" cy="179.08" r="3" fill="#60a5fa" stroke="#0f172a" stroke-width="1" />
<text x="544.48" y="169.08" fill="#e2e8f0" font-size="9" text-anchor="middle">806.1</text>
<circle cx="574.14" cy="212.09" r="3" fill="#60a5fa" stroke="#0f172a" stroke-width="1" />
<text x="574.14" y="192.09" fill="#e2e8f0" font-size="9" text-anchor="middle">642.5</text>
<circle cx="603.79" cy="223.27" r="3" fill="#60a5fa" stroke="#0f172a" stroke-width="1" />
<text x="603.79" y="213.27" fill="#e2e8f0" font-size="9" text-anchor="middle">587.1</text>
<circle cx="633.45" cy="187.09" r="3" fill="#60a5fa" stroke="#0f172a" stroke-width="1" />
<text x="633.45" y="167.09" fill="#e2e8f0" font-size="9" text-anchor="middle">766.5</text>
<circle cx="663.10" cy="207.38" r="3" fill="#60a5fa" stroke="#0f172a" stroke-width="1" />
<text x="663.10" y="197.38" fill="#e2e8f0" font-size="9" text-anchor="middle">665.9</text>
<circle cx="692.76" cy="244.09" r="3" fill="#60a5fa" stroke="#0f172a" stroke-width="1" />
<text x="692.76" y="224.09" fill="#e2e8f0" font-size="9" text-anchor="middle">483.9</text>
<circle cx="722.41" cy="218.10" r="3" fill="#60a5fa" stroke="#0f172a" stroke-width="1" />
<text x="722.41" y="208.10" fill="#e2e8f0" font-size="9" text-anchor="middle">612.8</text>
<circle cx="752.07" cy="208.71" r="3" fill="#60a5fa" stroke="#0f172a" stroke-width="1" />
<text x="752.07" y="188.71" fill="#e2e8f0" font-size="9" text-anchor="middle">659.3</text>
<circle cx="781.72" cy="243.33" r="3" fill="#60a5fa" stroke="#0f172a" stroke-width="1" />
<text x="781.72" y="233.33" fill="#e2e8f0" font-size="9" text-anchor="middle">487.7</text>
<circle cx="811.38" cy="149.37" r="3" fill="#60a5fa" stroke="#0f172a" stroke-width="1" />
<text x="811.38" y="129.37" fill="#e2e8f0" font-size="9" text-anchor="middle">953.4</text>
<circle cx="841.03" cy="162.20" r="3" fill="#60a5fa" stroke="#0f172a" stroke-width="1" />
<text x="841.03" y="152.20" fill="#e2e8f0" font-size="9" text-anchor="middle">889.8</text>
<circle cx="870.69" cy="196.48" r="3" fill="#60a5fa" stroke="#0f172a" stroke-width="1" />
<text x="870.69" y="176.48" fill="#e2e8f0" font-size="9" text-anchor="middle">719.9</text>
<circle cx="900.34" cy="94.75" r="3" fill="#60a5fa" stroke="#0f172a" stroke-width="1" />
<text x="900.34" y="84.75" fill="#e2e8f0" font-size="9" text-anchor="middle">1224</text>
<circle cx="930.00" cy="302.25" r="3" fill="#60a5fa" stroke="#0f172a" stroke-width="1" />
<text x="930.00" y="282.25" fill="#e2e8f0" font-size="9" text-anchor="middle">195.7</text>
<text x="70" y="403" fill="#e2e8f0" font-size="13" font-weight="600">本年核心指标趋势（滑动7日窗口平均）</text>
<line x1="70" y1="656.00" x2="930" y2="656.00" stroke="#94a3b8" stroke-opacity="0.18" stroke-width="1" />
<text x="62" y="660.00" fill="#cbd5f5" font-size="10" text-anchor="end">364.2</text>
<line x1="70" y1="593.75" x2="930" y2="593.75" stroke="#94a3b8" stroke-opacity="0.18" stroke-width="1" />
<text x="62" y="597.75" fill="#cbd5f5" font-size="10" text-anchor="end">541.8</text>
<line x1="70" y1="531.50" x2="930" y2="531.50" stroke="#94a3b8" stroke-opacity="0.18" stroke-width="1" />
<text x="62" y="535.50" fill="#cbd5f5" font-size="10" text-anchor="end">719.5</text>
<line x1="70" y1="469.25" x2="930" y2="469.25" stroke="#94a3b8" stroke-opacity="0.18" stroke-width="1" />
<text x="62" y="473.25" fill="#cbd5f5" font-size="10" text-anchor="end">897.2</text>
<line x1="70" y1="407.00" x2="930" y2="407.00" stroke="#94a3b8" stroke-opacity="0.18" stroke-width="1" />
<text x="62" y="411.00" fill="#cbd5f5" font-size="10" text-anchor="end">1075</text>
<line x1="70.00" y1="656" x2="70.00" y2="660" stroke="#94a3b8" stroke-opacity="0.5" stroke-width="1" />
<text x="70.00" y="674" fill="#cbd5f5" font-size="10" text-anchor="middle">2024-12</text>
<line x1="242.00" y1="656" x2="242.00" y2="660" stroke="#94a3b8" stroke-opacity="0.5" stroke-width="1" />
<text x="242.00" y="674" fill="#cbd5f5" font-size="10" text-anchor="middle">2025-03</text>
<line x1="414.00" y1="656" x2="414.00" y2="660" stroke="#94a3b8" stroke-opacity="0.5" stroke-width="1" />
<text x="414.00" y="674" fill="#cbd5f5" font-size="10" text-anchor="middle">2025-05</text>
<line x1="586.00" y1="656" x2="586.00" y2="660" stroke="#94a3b8" stroke-opacity="0.5" stroke-width="1" />
<text x="586.00" y="674" fill="#cbd5f5" font-size="10" text-anchor="middle">2025-07</text>
<line x1="758.00" y1="656" x2="758.00" y2="660" stroke="#94a3b8" stroke-opacity="0.5" stroke-width="1" />
<text x="758.00" y="674" fill="#cbd5f5" font-size="10" text-anchor="middle">2025-10</text>
<line x1="930.00" y1="656" x2="930.00" y2="660" stroke="#94a3b8" stroke-opacity="0.5" stroke-width="1" />
<text x="930.00" y="674" fill="#cbd5f5" font-size="10" text-anchor="middle">2025-12</text>
<line x1="70" y1="407" x2="70" y2="656" stroke="#94a3b8" stroke-width="1" />
<line x1="70" y1="656" x2="930" y2="656" stroke="#94a3b8" stroke-width="1" />
<path d="M70.00,656.00 L70.00,620.77 L72.36,569.38 L74.73,555.88 L77.09,554.95 L79.45,581.87 L81.81,568.70 L84.18,518.53 L86.54,507.11 L88.90,525.08 L91.26,540.76 L93.63,539.48 L95.99,517.31 L98.35,529.97 L100.71,576.88 L103.08,535.82 L105.44,520.29 L107.80,522.04 L110.16,508.42 L112.53,497.71 L114.89,462.98 L117.25,466.68 L119.62,481.86 L121.98,456.15 L124.34,427.75 L126.70,430.96 L129.07,450.85 L131.43,470.73 L133.79,476.91 L136.15,505.16 L138.52,498.75 L140.88,509.41 L143.24,510.61 L145.60,500.61 L147.97,509.38 L150.33,509.69 L152.69,516.85 L155.05,570.31 L157.42,578.12 L159.78,593.39 L162.14,611.92 L164.51,603.19 L166.87,586.82 L169.23,601.92 L171.59,582.93 L173.96,587.51 L176.32,586.21 L178.68,584.46 L181.04,610.64 L183.41,626.51 L185.77,617.44 L188.13,622.66 L190.49,624.88 L192.86,631.91 L195.22,625.93 L197.58,612.66 L199.95,614.99 L202.31,582.20 L204.67,586.07 L207.03,585.89 L209.40,568.63 L211.76,570.47 L214.12,559.84 L216.48,550.25 L218.85,559.56 L221.21,560.49 L223.57,549.77 L225.93,554.32 L228.30,541.54 L230.66,551.56 L233.02,556.84 L235.38,511.55 L237.75,515.79 L240.11,506.87 L242.47,512.07 L244.84,494.21 L247.20,480.63 L249.56,456.85 L251.92,520.61 L254.29,510.92 L256.65,510.81 L259.01,501.96 L261.37,524.39 L263.74,533.14 L266.10,561.54 L268.46,560.77 L270.82,567.67 L273.19,589.34 L275.55,583.72 L277.91,564.46 L280.27,570.64 L282.64,562.31 L285.00,533.82 L287.36,531.35 L289.73,502.89 L292.09,511.16 L294.45,506.70 L296.81,510.55 L299.18,513.40 L301.54,541.71 L303.90,525.34 L306.26,522.80 L308.63,513.16 L310.99,537.65 L313.35,521.02 L315.71,507.35 L318.08,509.20 L320.44,526.03 L322.80,536.80 L325.16,532.12 L327.53,519.30 L329.89,516.74 L332.25,538.23 L334.62,542.52 L336.98,516.00 L339.34,509.67 L341.70,510.21 L344.07,501.84 L346.43,508.04 L348.79,477.98 L351.15,472.53 L353.52,484.30 L355.88,509.27 L358.24,514.38 L360.60,524.38 L362.97,531.52 L365.33,547.26 L367.69,546.60 L370.05,561.53 L372.42,548.16 L374.78,559.62 L377.14,586.87 L379.51,581.81 L381.87,577.94 L384.23,569.75 L386.59,547.09 L388.96,562.13 L391.32,559.36 L393.68,528.52 L396.04,543.16 L398.41,548.81 L400.77,519.97 L403.13,537.53 L405.49,524.77 L407.86,522.04 L410.22,526.44 L412.58,520.84 L414.95,530.60 L417.31,571.53 L419.67,572.75 L422.03,579.12 L424.40,584.95 L426.76,586.51 L429.12,588.00 L431.48,576.99 L433.85,577.99 L436.21,576.59 L438.57,577.96 L440.93,580.84 L443.30,597.77 L445.66,592.02 L448.02,605.56 L450.38,598.44 L452.75,536.37 L455.11,533.42 L457.47,537.35 L459.84,535.92 L462.20,547.51 L464.56,545.88 L466.92,548.92 L469.29,613.36 L471.65,612.61 L474.01,596.66 L476.37,582.46 L478.74,566.15 L481.10,561.00 L483.46,558.99 L485.82,559.14 L488.19,566.46 L490.55,581.50 L492.91,570.32 L495.27,568.33 L497.64,558.37 L500.00,541.77 L502.36,548.26 L504.73,522.85 L507.09,510.37 L509.45,520.53 L511.81,540.04 L514.18,527.28 L516.54,546.89 L518.90,544.32 L521.26,553.82 L523.63,570.29 L525.99,585.30 L528.35,582.41 L530.71,609.47 L533.08,610.94 L535.44,613.91 L537.80,622.31 L540.16,608.62 L542.53,600.07 L544.89,600.67 L547.25,590.29 L549.62,583.18 L551.98,572.99 L554.34,573.33 L556.70,589.96 L559.07,595.33 L561.43,585.59 L563.79,590.02 L566.15,601.34 L568.52,600.42 L570.88,589.63 L573.24,590.87 L575.60,575.54 L577.97,577.72 L580.33,572.45 L582.69,578.01 L585.05,590.92 L587.42,606.18 L589.78,600.88 L592.14,608.10 L594.51,611.18 L596.87,619.91 L599.23,595.88 L601.59,594.20 L603.96,597.53 L606.32,588.33 L608.68,606.71 L611.04,603.54 L613.41,604.58 L615.77,616.56 L618.13,621.53 L620.49,622.78 L622.86,635.25 L625.22,624.49 L627.58,626.08 L629.95,609.94 L632.31,603.59 L634.67,591.73 L637.03,585.05 L639.40,596.35 L641.76,601.35 L644.12,606.33 L646.48,496.51 L665.38,526.91 L667.75,538.13 L670.11,536.78 L672.47,521.64 L674.84,515.92 L677.20,495.76 L679.56,600.51 L681.92,580.57 L684.29,574.58 L686.65,570.68 L689.01,571.57 L691.37,560.55 L693.74,560.42 L696.10,542.44 L698.46,539.68 L700.82,538.50 L703.19,534.05 L705.55,534.85 L707.91,532.51 L710.27,539.96 L712.64,583.23 L715.00,587.05 L717.36,585.01 L719.73,575.50 L722.09,584.26 L724.45,591.91 L726.81,578.69 L729.18,574.90 L731.54,540.80 L733.90,536.72 L736.26,540.49 L738.63,534.79 L740.99,553.04 L743.35,574.61 L745.71,578.89 L748.08,619.45 L750.44,617.74 L752.80,618.62 L755.16,613.41 L757.53,604.73 L759.89,605.84 L762.25,597.84 L764.62,579.77 L766.98,577.91 L769.34,587.72 L771.70,567.71 L774.07,546.97 L776.43,545.85 L778.79,506.53 L781.15,514.79 L783.52,508.72 L785.88,504.35 L788.24,507.05 L790.60,519.34 L792.97,508.90 L795.33,498.09 L797.69,497.15 L800.05,506.26 L802.42,508.69 L804.78,515.91 L807.14,511.15 L809.51,521.22 L811.87,562.32 L814.23,531.19 L816.59,541.20 L818.96,524.56 L821.32,516.00 L823.68,527.99 L826.04,524.35 L828.41,448.90 L830.77,480.04 L833.13,470.30 L835.49,498.06 L837.86,514.65 L840.22,518.64 L842.58,526.51 L844.95,616.24 L847.31,622.31 L849.67,622.21 L852.03,619.44 L854.40,610.76 L856.76,604.80 L859.12,592.02 L861.48,569.02 L863.85,567.75 L866.21,570.67 L868.57,569.00 L870.93,568.29 L873.30,546.11 L875.66,555.63 L878.02,565.40 L880.38,559.35 L882.75,558.58 L885.11,544.80 L887.47,539.95 L889.84,556.36 L892.20,556.51 L894.56,570.36 L896.92,552.66 L899.29,538.79 L901.65,546.89 L904.01,559.16 L906.37,555.08 L908.74,546.94 L911.10,543.69 L913.46,555.11 L915.82,562.46 L918.19,570.21 L920.55,551.88 L922.91,545.70 L925.27,543.00 L927.64,505.95 L930.00,526.83 L930.00,656.00 Z" fill="#60a5fa" fill-opacity="0.16" stroke="none" />
<path d="M70.00,620.77 L72.36,569.38 L74.73,555.88 L77.09,554.95 L79.45,581.87 L81.81,568.70 L84.18,518.53 L86.54,507.11 L88.90,525.08 L91.26,540.76 L93.63,539.48 L95.99,517.31 L98.35,529.97 L100.71,576.88 L103.08,535.82 L105.44,520.29 L107.80,522.04 L110.16,508.42 L112.53,497.71 L114.89,462.98 L117.25,466.68 L119.62,481.86 L121.98,456.15 L124.34,427.75 L126.70,430.96 L129.07,450.85 L131.43,470.73 L133.79,476.91 L136.15,505.16 L138.52,498.75 L140.88,509.41 L143.24,510.61 L145.60,500.61 L147.97,509.38 L150.33,509.69 L152.69,516.85 L155.05,570.31 L157.42,578.12 L159.78,593.39 L162.14,611.92 L164.51,603.19 L166.87,586.82 L169.23,601.92 L171.59,582.93 L173.96,587.51 L176.32,586.21 L178.68,584.46 L181.04,610.64 L183.41,626.51 L185.77,617.44 L188.13,622.66 L190.49,624.88 L192.86,631.91 L195.22,625.93 L197.58,612.66 L199.95,614.99 L202.31,582.20 L204.67,586.07 L207.03,585.89 L209.40,568.63 L211.76,570.47 L214.12,559.84 L216.48,550.25 L218.85,559.56 L221.21,560.49 L223.57,549.77 L225.93,554.32 L228.30,541.54 L230.66,551.56 L233.02,556.84 L235.38,511.55 L237.75,515.79 L240.11,506.87 L242.47,512.07 L244.84,494.21 L247.20,480.63 L249.56,456.85 L251.92,520.61 L254.29,510.92 L256.65,510.81 L259.01,501.96 L261.37,524.39 L263.74,533.14 L266.10,561.54 L268.46,560.77 L270.82,567.67 L273.19,589.34 L275.55,583.72 L277.91,564.46 L280.27,570.64 L282.64,562.31 L285.00,533.82 L287.36,531.35 L289.73,502.89 L292.09,511.16 L294.45,506.70 L296.81,510.55 L299.18,513.40 L301.54,541.71 L303.90,525.34 L306.26,522.80 L308.63,513.16 L310.99,537.65 L313.35,521.02 L315.71,507.35 L318.08,509.20 L320.44,526.03 L322.80,536.80 L325.16,532.12 L327.53,519.30 L329.89,516.74 L332.25,538.23 L334.62,542.52 L336.98,516.00 L339.34,509.67 L341.70,510.21 L344.07,501.84 L346.43,508.04 L348.79,477.98 L351.15,472.53 L353.52,484.30 L355.88,509.27 L358.24,514.38 L360.60,524.38 L362.97,531.52 L365.33,547.26 L367.69,546.60 L370.05,561.53 L372.42,548.16 L374.78,559.62 L377.14,586.87 L379.51,581.81 L381.87,577.94 L384.23,569.75 L386.59,547.09 L388.96,562.13 L391.32,559.36 L393.68,528.52 L396.04,543.16 L398.41,548.81 L400.77,519.97 L403.13,537.53 L405.49,524.77 L407.86,522.04 L410.22,526.44 L412.58,520.84 L414.95,530.60 L417.31,571.53 L419.67,572.75 L422.03,579.12 L424.40,584.95 L426.76,586.51 L429.12,588.00 L431.48,576.99 L433.85,577.99 L436.21,576.59 L438.57,577.96 L440.93,580.84 L443.30,597.77 L445.66,592.02 L448.02,605.56 L450.38,598.44 L452.75,536.37 L455.11,533.42 L457.47,537.35 L459.84,535.92 L462.20,547.51 L464.56,545.88 L466.92,548.92 L469.29,613.36 L471.65,612.61 L474.01,596.66 L476.37,582.46 L478.74,566.15 L481.10,561.00 L483.46,558.99 L485.82,559.14 L488.19,566.46 L490.55,581.50 L492.91,570.32 L495.27,568.33 L497.64,558.37 L500.00,541.77 L502.36,548.26 L504.73,522.85 L507.09,510.37 L509.45,520.53 L511.81,540.04 L514.18,527.28 L516.54,546.89 L518.90,544.32 L521.26,553.82 L523.63,570.29 L525.99,585.30 L528.35,582.41 L530.71,609.47 L533.08,610.94 L535.44,613.91 L537.80,622.31 L540.16,608.62 L542.53,600.07 L544.89,600.67 L547.25,590.29 L549.62,583.18 L551.98,572.99 L554.34,573.33 L556.70,589.96 L559.07,595.33 L561.43,585.59 L563.79,590.02 L566.15,601.34 L568.52,600.42 L570.88,589.63 L573.24,590.87 L575.60,575.54 L577.97,577.72 L580.33,572.45 L582.69,578.01 L585.05,590.92 L587.42,606.18 L589.78,600.88 L592.14,608.10 L594.51,611.18 L596.87,619.91 L599.23,595.88 L601.59,594.20 L603.96,597.53 L606.32,588.33 L608.68,606.71 L611.04,603.54 L613.41,604.58 L615.77,616.56 L618.13,621.53 L620.49,622.78 L622.86,635.25 L625.22,624.49 L627.58,626.08 L629.95,609.94 L632.31,603.59 L634.67,591.73 L637.03,585.05 L639.40,596.35 L641.76,601.35 L644.12,606.33 L646.48,496.51 L665.38,526.91 L667.75,538.13 L670.11,536.78 L672.47,521.64 L674.84,515.92 L677.20,495.76 L679.56,600.51 L681.92,580.57 L684.29,574.58 L686.65,570.68 L689.01,571.57 L691.37,560.55 L693.74,560.42 L696.10,542.44 L698.46,539.68 L700.82,538.50 L703.19,534.05 L705.55,534.85 L707.91,532.51 L710.27,539.96 L712.64,583.23 L715.00,587.05 L717.36,585.01 L719.73,575.50 L722.09,584.26 L724.45,591.91 L726.81,578.69 L729.18,574.90 L731.54,540.80 L733.90,536.72 L736.26,540.49 L738.63,534.79 L740.99,553.04 L743.35,574.61 L745.71,578.89 L748.08,619.45 L750.44,617.74 L752.80,618.62 L755.16,613.41 L757.53,604.73 L759.89,605.84 L762.25,597.84 L764.62,579.77 L766.98,577.91 L769.34,587.72 L771.70,567.71 L774.07,546.97 L776.43,545.85 L778.79,506.53 L781.15,514.79 L783.52,508.72 L785.88,504.35 L788.24,507.05 L790.60,519.34 L792.97,508.90 L795.33,498.09 L797.69,497.15 L800.05,506.26 L802.42,508.69 L804.78,515.91 L807.14,511.15 L809.51,521.22 L811.87,562.32 L814.23,531.19 L816.59,541.20 L818.96,524.56 L821.32,516.00 L823.68,527.99 L826.04,524.35 L828.41,448.90 L830.77,480.04 L833.13,470.30 L835.49,498.06 L837.86,514.65 L840.22,518.64 L842.58,526.51 L844.95,616.24 L847.31,622.31 L849.67,622.21 L852.03,619.44 L854.40,610.76 L856.76,604.80 L859.12,592.02 L861.48,569.02 L863.85,567.75 L866.21,570.67 L868.57,569.00 L870.93,568.29 L873.30,546.11 L875.66,555.63 L878.02,565.40 L880.38,559.35 L882.75,558.58 L885.11,544.80 L887.47,539.95 L889.84,556.36 L892.20,556.51 L894.56,570.36 L896.92,552.66 L899.29,538.79 L901.65,546.89 L904.01,559.16 L906.37,555.08 L908.74,546.94 L911.10,543.69 L913.46,555.11 L915.82,562.46 L918.19,570.21 L920.55,551.88 L922.91,545.70 L925.27,543.00 L927.64,505.95 L930.00,526.83" fill="none" stroke="#60a5fa" stroke-width="2.2" stroke-linecap="round" />
</svg>
