<svg xmlns="http://www.w3.org/2000/svg" viewBox="0 0 960 720" width="960" height="720">
<rect width="960" height="720" fill="#0f172a" />
<text x="480" y="28" fill="#e2e8f0" font-size="16" font-weight="700" text-anchor="middle">基础代谢趋势图</text>
<text x="70" y="70" fill="#e2e8f0" font-size="13" font-weight="600">本月分天指标明细</text>
<line x1="70" y1="323.00" x2="930" y2="323.00" stroke="#94a3b8" stroke-opacity="0.18" stroke-width="1" />
<text x="62" y="327.00" fill="#cbd5f5" font-size="10" text-anchor="end">1774</text>
<line x1="70" y1="260.75" x2="930" y2="260.75" stroke="#94a3b8" stroke-opacity="0.18" stroke-width="1" />
<text x="62" y="264.75" fill="#cbd5f5" font-size="10" text-anchor="end">1847</text>
<line x1="70" y1="198.50" x2="930" y2="198.50" stroke="#94a3b8" stroke-opacity="0.18" stroke-width="1" />
<text x="62" y="202.50" fill="#cbd5f5" font-size="10" text-anchor="end">1919</text>
<line x1="70" y1="136.25" x2="930" y2="136.25" stroke="#94a3b8" stroke-opacity="0.18" stroke-width="1" />
<text x="62" y="140.25" fill="#cbd5f5" font-size="10" text-anchor="end">1992</text>
<line x1="70" y1="74.00" x2="930" y2="74.00" stroke="#94a3b8" stroke-opacity="0.18" stroke-width="1" />
<text x="62" y="78.00" fill="#cbd5f5" font-size="10" text-anchor="end">2064</text>
<line x1="70.00" y1="323" x2="70.00" y2="327" stroke="#94a3b8" stroke-opacity="0.5" stroke-width="1" />
<text x="70.00" y="341" fill="#cbd5f5" font-size="10" text-anchor="middle">11-19</text>
<line x1="242.00" y1="323" x2="242.00" y2="327" stroke="#94a3b8" stroke-opacity="0.5" stroke-width="1" />
<text x="242.00" y="341" fill="#cbd5f5" font-size="10" text-anchor="middle">11-24</text>
<line x1="414.00" y1="323" x2="414.00" y2="327" stroke="#94a3b8" stroke-opacity="0.5" stroke-width="1" />
<text x="414.00" y="341" fill="#cbd5f5" font-size="10" text-anchor="middle">11-30</text>
<line x1="586.00" y1="323" x2="586.00" y2="327" stroke="#94a3b8" stroke-opacity="0.5" stroke-width="1" />
<text x="586.00" y="341" fill="#cbd5f5" font-size="10" text-anchor="middle">12-06</text>
<line x1="758.00" y1="323" x2="758.00" y2="327" stroke="#94a3b8" stroke-opacity="0.5" stroke-width="1" />
<text x="758.00" y="341" fill="#cbd5f5" font-size="10" text-anchor="middle">12-12</text>
<line x1="930.00" y1="323" x2="930.00" y2="327" stroke="#94a3b8" stroke-opacity="0.5" stroke-width="1" />
<text x="930.00" y="341" fill="#cbd5f5" font-size="10" text-anchor="middle">12-18</text>
<line x1="70" y1="74" x2="70" y2="323" stroke="#94a3b8" stroke-width="1" />
<line x1="70" y1="323" x2="930" y2="323" stroke="#94a3b8" stroke-width="1" />
<path d="M70.00,146.49 L99.66,151.63 L129.31,94.75 L158.97,189.23 L188.62,170.90 L218.28,186.42 L247.93,156.54 L277.59,185.44 L307.24,110.34 L336.90,158.64 L366.55,129.78 L396.21,136.12 L425.86,144.91 L455.52,118.88 L485.17,120.42 L514.83,138.29 L544.48,124.82 L574.14,130.68 L603.79,105.09 L633.45,162.70 L663.10,156.07 L692.76,146.86 L722.41,117.62 L752.07,114.72 L781.72,160.56 L811.38,127.24 L841.03,111.00 L870.69,227.48 L900.34,144.14 L930.00,302.25" fill="none" stroke="#60a5fa" stroke-width="2.2" stroke-linecap="round" />
<circle cx="70.00" cy="146.49" r="3" fill="#60a5fa" stroke="#0f172a" stroke-width="1" />
<text x="70.00" y="136.49" fill="#e2e8f0" font-size="9" text-anchor="middle">1980</text>
<circle cx="99.66" cy="151.63" r="3" fill="#60a5fa" stroke="#0f172a" stroke-width="1" />
<text x="99.66" y="131.63" fill="#e2e8f0" font-size="9" text-anchor="middle">1974</text>
<circle cx="129.31" cy="94.75" r="3" fill="#60a5fa" stroke="#0f172a" stroke-width="1" />
<text x="129.31" y="84.75" fill="#e2e8f0" font-size="9" text-anchor="middle">2040</text>
<circle cx="158.97" cy="189.23" r="3" fill="#60a5fa" stroke="#0f172a" stroke-width="1" />
<text x="158.97" y="169.23" fill="#e2e8f0" font-size="9" text-anchor="middle">1930</text>
<circle cx="188.62" cy="170.90" r="3" fill="#60a5fa" stroke="#0f172a" stroke-width="1" />
<text x="188.62" y="160.90" fill="#e2e8f0" font-size="9" text-anchor="middle">1952</text>
<circle cx="218.28" cy="186.42" r="3" fill="#60a5fa" stroke="#0f172a" stroke-width="1" />
<text x="218.28" y="166.42" fill="#e2e8f0" font-size="9" text-anchor="middle">1933</text>
<circle cx="247.93" cy="156.54" r="3" fill="#60a5fa" stroke="#0f172a" stroke-width="1" />
<text x="247.93" y="146.54" fill="#e2e8f0" font-size="9" text-anchor="middle">1968</text>
<circle cx="277.59" cy="185.44" r="3" fill="#60a5fa" stroke="#0f172a" stroke-width="1" />
<text x="277.59" y="165.44" fill="#e2e8f0" font-size="9" text-anchor="middle">1935</text>
<circle cx="307.24" cy="110.34" r="3" fill="#60a5fa" stroke="#0f172a" stroke-width="1" />
<text x="307.24" y="100.34" fill="#e2e8f0" font-size="9" text-anchor="middle">2022</text>
<circle cx="336.90" cy="158.64" r="3" fill="#60a5fa" stroke="#0f172a" stroke-width="1" />
<text x="336.90" y="138.64" fill="#e2e8f0" font-size="9" text-anchor="middle">1966</text>
<circle cx="366.55" cy="129.78" r="3" fill="#60a5fa" stroke="#0f172a" stroke-width="1" />
<text x="366.55" y="119.78" fill="#e2e8f0" font-size="9" text-anchor="middle">1999</text>
<circle cx="396.21" cy="136.12" r="3" fill="#60a5fa" stroke="#0f172a" stroke-width="1" />
<text x="396.21" y="116.12" fill="#e2e8f0" font-size="9" text-anchor="middle">1992</text>
<circle cx="425.86" cy="144.91" r="3" fill="#60a5fa" stroke="#0f172a" stroke-width="1" />
<text x="425.86" y="134.91" fill="#e2e8f0" font-size="9" text-anchor="middle">1982</text>
<circle cx="455.52" cy="118.88" r="3" fill="#60a5fa" stroke="#0f172a" stroke-width="1" />
<text x="455.52" y="98.88" fill="#e2e8f0" font-size="9" text-anchor="middle">2012</text>
<circle cx="485.17" cy="120.42" r="3" fill="#60a5fa" stroke="#0f172a" stroke-width="1" />
<text x="485.17" y="110.42" fill="#e2e8f0" font-size="9" text-anchor="middle">2010</text>
<circle cx="514.83" cy="138.29" r="3" fill="#60a5fa" stroke="#0f172a" stroke-width="1" />
<text x="514.83" y="118.29" fill="#e2e8f0" font-size="9" text-anchor="middle">1990</text>
<circle cx="544.48" cy="124.82" r="3" fill="#60a5fa" stroke="#0f172a" stroke-width="1" />
<text x="544.48" y="114.82" fill="#e2e8f0" font-size="9" text-anchor="middle">2005</text>
<circle cx="574.14" cy="130.68" r="3" fill="#60a5fa" stroke="#0f172a" stroke-width="1" />
<text x="574.14" y="110.68" fill="#e2e8f0" font-size="9" text-anchor="middle">1998</text>
<circle cx="603.79" cy="105.09" r="3" fill="#60a5fa" stroke="#0f172a" stroke-width="1" />
<text x="603.79" y="95.09" fill="#e2e8f0" font-size="9" text-anchor="middle">2028</text>
<circle cx="633.45" cy="162.70" r="3" fill="#60a5fa" stroke="#0f172a" stroke-width="1" />
<text x="633.45" y="142.70" fill="#e2e8f0" font-size="9" text-anchor="middle">1961</text>
<circle cx="663.10" cy="156.07" r="3" fill="#60a5fa" stroke="#0f172a" stroke-width="1" />
<text x="663.10" y="146.07" fill="#e2e8f0" font-size="9" text-anchor="middle">1969</text>
<circle cx="692.76" cy="146.86" r="3" fill="#60a5fa" stroke="#0f172a" stroke-width="1" />
<text x="692.76" y="126.86" fill="#e2e8f0" font-size="9" text-anchor="middle">1980</text>
<circle cx="722.41" cy="117.62" r="3" fill="#60a5fa" stroke="#0f172a" stroke-width="1" />
<text x="722.41" y="107.62" fill="#e2e8f0" font-size="9" text-anchor="middle">2014</text>
<circle cx="752.07" cy="114.72" r="3" fill="#60a5fa" stroke="#0f172a" stroke-width="1" />
<text x="752.07" y="94.72" fill="#e2e8f0" font-size="9" text-anchor="middle">2017</text>
<circle cx="781.72" cy="160.56" r="3" fill="#60a5fa" stroke="#0f172a" stroke-width="1" />
<text x="781.72" y="150.56" fill="#e2e8f0" font-size="9" text-anchor="middle">1964</text>
<circle cx="811.38" cy="127.24" r="3" fill="#60a5fa" stroke="#0f172a" stroke-width="1" />
<text x="811.38" y="107.24" fill="#e2e8f0" font-size="9" text-anchor="middle">2002</text>
<circle cx="841.03" cy="111.00" r="3" fill="#60a5fa" stroke="#0f172a" stroke-width="1" />
<text x="841.03" y="101.00" fill="#e2e8f0" font-size="9" text-anchor="middle">2021</text>
<circle cx="870.69" cy="227.48" r="3" fill="#60a5fa" stroke="#0f172a" stroke-width="1" />
<text x="870.69" y="207.48" fill="#e2e8f0" font-size="9" text-anchor="middle">1886</text>
<circle cx="900.34" cy="144.14" r="3" fill="#60a5fa" stroke="#0f172a" stroke-width="1" />
<text x="900.34" y="134.14" fill="#e2e8f0" font-size="9" text-anchor="middle">1983</text>
<circle cx="930.00" cy="302.25" r="3" fill="#60a5fa" stroke="#0f172a" stroke-width="1" />
<text x="930.00" y="282.25" fill="#e2e8f0" font-size="9" text-anchor="middle">1798</text>
<text x="70" y="403" fill="#e2e8f0" font-size="13" font-weight="600">本年核心指标趋势（滑动7日窗口平均）</text>
<line x1="70" y1="656.00" x2="930" y2="656.00" stroke="#94a3b8" stroke-opacity="0.18" stroke-width="1" />
<text x="62" y="660.00" fill="#cbd5f5" font-size="10" text-anchor="end">1726</text>
<line x1="70" y1="593.75" x2="930" y2="593.75" stroke="#94a3b8" stroke-opacity="0.18" stroke-width="1" />
<text x="62" y="597.75" fill="#cbd5f5" font-size="10" text-anchor="end">1816</text>
<line x1="70" y1="531.50" x2="930" y2="531.50" stroke="#94a3b8" stroke-opacity="0.18" stroke-width="1" />
<text x="62" y="535.50" fill="#cbd5f5" font-size="10" text-anchor="end">1906</text>
<line x1="70" y1="469.25" x2="930" y2="469.25" stroke="#94a3b8" stroke-opacity="0.18" stroke-width="1" />
<text x="62" y="473.25" fill="#cbd5f5" font-size="10" text-anchor="end">1996</text>
<line x1="70" y1="407.00" x2="930" y2="407.00" stroke="#94a3b8" stroke-opacity="0.18" stroke-width="1" />
<text x="62" y="411.00" fill="#cbd5f5" font-size="10" text-anchor="end">2087</text>
<line x1="70.00" y1="656" x2="70.00" y2="660" stroke="#94a3b8" stroke-opacity="0.5" stroke-width="1" />
<text x="70.00" y="674" fill="#cbd5f5" font-size="10" text-anchor="middle">2024-12</text>
<line x1="242.00" y1="656" x2="242.00" y2="660" stroke="#94a3b8" stroke-opacity="0.5" stroke-width="1" />
<text x="242.00" y="674" fill="#cbd5f5" font-size="10" text-anchor="middle">2025-03</text>
<line x1="414.00" y1="656" x2="414.00" y2="660" stroke="#94a3b8" stroke-opacity="0.5" stroke-width="1" />
<text x="414.00" y="674" fill="#cbd5f5" font-size="10" text-anchor="middle">2025-05</text>
<line x1="586.00" y1="656" x2="586.00" y2="660" stroke="#94a3b8" stroke-opacity="0.5" stroke-width="1" />
<text x="586.00" y="674" fill="#cbd5f5" font-size="10" text-anchor="middle">2025-07</text>
<line x1="758.00" y1="656" x2="758.00" y2="660" stroke="#94a3b8" stroke-opacity="0.5" stroke-width="1" />
<text x="758.00" y="674" fill="#cbd5f5" font-size="10" text-anchor="middle">2025-10</text>
<line x1="930.00" y1="656" x2="930.00" y2="660" stroke="#94a3b8" stroke-opacity="0.5" stroke-width="1" />
<text x="930.00" y="674" fill="#cbd5f5" font-size="10" text-anchor="middle">2025-12</text>
<line x1="70" y1="407" x2="70" y2="656" stroke="#94a3b8" stroke-width="1" />
<line x1="70" y1="656" x2="930" y2="656" stroke="#94a3b8" stroke-width="1" />
<path d="M70.00,656.00 L70.00,624.19 L72.36,601.99 L74.73,578.52 L77.09,593.58 L79.45,592.39 L81.81,594.80 L84.18,596.27 L86.54,591.13 L88.90,599.22 L91.26,604.82 L93.63,598.57 L95.99,604.15 L98.35,600.25 L100.71,599.00 L103.08,602.82 L105.44,599.27 L107.80,601.45 L110.16,600.85 L112.53,598.13 L114.89,598.64 L117.25,602.64 L119.62,598.45 L121.98,597.69 L124.34,604.70 L126.70,600.81 L129.07,600.85 L131.43,606.53 L133.79,597.20 L136.15,601.77 L138.52,601.62 L140.88,598.54 L143.24,606.31 L145.60,598.77 L147.97,601.46 L150.33,605.94 L152.69,602.82 L155.05,584.71 L157.42,579.42 L159.78,557.52 L162.14,547.03 L164.51,518.42 L166.87,499.79 L169.23,479.25 L171.59,471.66 L173.96,451.58 L176.32,458.53 L178.68,453.14 L181.04,461.84 L183.41,457.57 L185.77,465.65 L188.13,476.41 L190.49,484.08 L192.86,480.28 L195.22,485.49 L197.58,483.42 L199.95,497.53 L202.31,495.11 L204.67,486.75 L207.03,480.35 L209.40,477.25 L211.76,477.56 L214.12,475.32 L216.48,465.08 L218.85,461.85 L221.21,458.61 L223.57,453.30 L225.93,447.14 L228.30,444.51 L230.66,440.96 L233.02,440.27 L235.38,440.06 L237.75,441.51 L240.11,444.95 L242.47,446.72 L244.84,451.46 L247.20,452.20 L249.56,452.64 L251.92,447.49 L254.29,445.27 L256.65,436.41 L259.01,435.50 L261.37,430.59 L263.74,427.75 L266.10,430.30 L268.46,429.67 L270.82,433.19 L273.19,447.09 L275.55,454.02 L277.91,459.61 L280.27,468.27 L282.64,468.14 L285.00,472.08 L287.36,479.09 L289.73,479.99 L292.09,483.54 L294.45,482.03 L296.81,480.34 L299.18,480.67 L301.54,483.49 L303.90,485.70 L306.26,487.27 L308.63,485.67 L310.99,485.08 L313.35,482.49 L315.71,483.97 L318.08,486.55 L320.44,483.18 L322.80,478.61 L325.16,481.54 L327.53,481.66 L329.89,486.03 L332.25,482.76 L334.62,482.51 L336.98,482.14 L339.34,489.38 L341.70,487.77 L344.07,487.75 L346.43,487.12 L348.79,489.77 L351.15,490.60 L353.52,492.45 L355.88,486.98 L358.24,489.18 L360.60,490.95 L362.97,493.81 L365.33,495.86 L367.69,490.61 L370.05,491.39 L372.42,497.78 L374.78,495.95 L377.14,499.91 L379.51,498.29 L381.87,495.52 L384.23,506.92 L386.59,506.03 L388.96,508.43 L391.32,507.01 L393.68,507.01 L396.04,510.00 L398.41,510.77 L400.77,505.81 L403.13,506.36 L405.49,511.91 L407.86,514.88 L410.22,513.30 L412.58,507.83 L414.95,510.41 L417.31,506.73 L419.67,505.54 L422.03,493.45 L424.40,491.81 L426.76,488.56 L429.12,492.35 L431.48,492.00 L433.85,498.66 L436.21,498.79 L438.57,496.69 L440.93,497.84 L443.30,500.87 L445.66,497.39 L448.02,490.50 L450.38,489.85 L452.75,487.54 L455.11,494.39 L457.47,493.21 L459.84,487.63 L462.20,488.62 L464.56,499.71 L466.92,496.48 L469.29,502.35 L471.65,501.62 L474.01,496.96 L476.37,501.85 L478.74,501.40 L481.10,497.59 L483.46,496.13 L485.82,492.83 L488.19,482.95 L490.55,482.08 L492.91,479.64 L495.27,482.75 L497.64,484.24 L500.00,480.67 L502.36,482.89 L504.73,484.39 L507.09,489.13 L509.45,495.73 L511.81,495.89 L514.18,492.36 L516.54,496.72 L518.90,504.54 L521.26,513.49 L523.63,517.15 L525.99,517.78 L528.35,513.64 L530.71,515.97 L533.08,517.10 L535.44,507.63 L537.80,506.32 L540.16,504.54 L542.53,502.68 L544.89,510.13 L547.25,510.51 L549.62,511.70 L551.98,518.38 L554.34,516.47 L556.70,512.75 L559.07,519.90 L561.43,516.00 L563.79,518.70 L566.15,522.51 L568.52,516.48 L570.88,518.93 L573.24,521.72 L575.60,514.67 L577.97,511.37 L580.33,521.20 L582.69,515.84 L585.05,527.38 L587.42,526.64 L589.78,536.82 L592.14,534.87 L594.51,538.02 L596.87,526.22 L599.23,525.74 L601.59,525.16 L603.96,524.12 L606.32,514.55 L608.68,511.26 L611.04,509.74 L613.41,509.04 L615.77,516.16 L618.13,502.19 L620.49,503.99 L622.86,510.65 L625.22,518.32 L627.58,525.37 L629.95,526.17 L632.31,516.69 L634.67,521.32 L637.03,515.16 L639.40,514.66 L641.76,505.61 L644.12,496.26 L646.48,507.16 L648.85,505.76 L651.21,507.35 L653.57,536.09 L672.47,627.86 L674.84,635.25 L677.20,634.05 L679.56,629.87 L681.92,630.48 L684.29,623.92 L686.65,599.78 L689.01,497.01 L691.37,488.10 L693.74,490.68 L696.10,483.16 L698.46,485.66 L700.82,486.97 L703.19,480.21 L705.55,480.47 L707.91,487.80 L710.27,486.61 L712.64,486.18 L715.00,485.77 L717.36,485.96 L719.73,488.84 L722.09,494.47 L724.45,489.93 L726.81,488.66 L729.18,490.28 L731.54,490.16 L733.90,484.74 L736.26,480.86 L738.63,469.81 L740.99,464.57 L743.35,468.38 L745.71,466.95 L748.08,464.25 L750.44,471.51 L752.80,477.07 L755.16,490.41 L757.53,495.85 L759.89,488.08 L762.25,480.25 L764.62,475.86 L766.98,476.66 L769.34,474.07 L771.70,460.29 L774.07,452.41 L776.43,454.19 L778.79,453.62 L781.15,455.16 L783.52,446.24 L785.88,438.52 L788.24,446.21 L790.60,450.44 L792.97,452.28 L795.33,452.79 L797.69,455.20 L800.05,455.82 L802.42,457.93 L804.78,458.34 L807.14,455.27 L809.51,450.56 L811.87,443.97 L814.23,440.96 L816.59,438.71 L818.96,440.73 L821.32,432.93 L823.68,442.46 L826.04,452.16 L828.41,457.24 L830.77,460.22 L833.13,459.58 L835.49,457.56 L837.86,457.68 L840.22,448.18 L842.58,444.84 L844.95,453.03 L847.31,453.60 L849.67,457.86 L852.03,461.66 L854.40,471.96 L856.76,467.86 L859.12,466.90 L861.48,465.01 L863.85,467.18 L866.21,465.19 L868.57,474.44 L870.93,473.28 L873.30,486.46 L875.66,488.75 L878.02,493.23 L880.38,488.48 L882.75,495.83 L885.11,488.99 L887.47,484.99 L889.84,480.22 L892.20,475.88 L894.56,468.40 L896.92,471.62 L899.29,467.73 L901.65,467.83 L904.01,464.26 L906.37,466.31 L908.74,470.59 L911.10,473.63 L913.46,471.25 L915.82,470.09 L918.19,473.53 L920.55,476.07 L922.91,470.13 L925.27,478.34 L927.64,478.03 L930.00,499.27 L930.00,656.00 Z" fill="#60a5fa" fill-opacity="0.16" stroke="none" />
<path d="M70.00,624.19 L72.36,601.99 L74.73,578.52 L77.09,593.58 L79.45,592.39 L81.81,594.80 L84.18,596.27 L86.54,591.13 L88.90,599.22 L91.26,604.82 L93.63,598.57 L95.99,604.15 L98.35,600.25 L100.71,599.00 L103.08,602.82 L105.44,599.27 L107.80,601.45 L110.16,600.85 L112.53,598.13 L114.89,598.64 L117.25,602.64 L119.62,598.45 L121.98,597.69 L124.34,604.70 L126.70,600.81 L129.07,600.85 L131.43,606.53 L133.79,597.20 L136.15,601.77 L138.52,601.62 L140.88,598.54 L143.24,606.31 L145.60,598.77 L147.97,601.46 L150.33,605.94 L152.69,602.82 L155.05,584.71 L157.42,579.42 L159.78,557.52 L162.14,547.03 L164.51,518.42 L166.87,499.79 L169.23,479.25 L171.59,471.66 L173.96,451.58 L176.32,458.53 L178.68,453.14 L181.04,461.84 L183.41,457.57 L185.77,465.65 L188.13,476.41 L190.49,484.08 L192.86,480.28 L195.22,485.49 L197.58,483.42 L199.95,497.53 L202.31,495.11 L204.67,486.75 L207.03,480.35 L209.40,477.25 L211.76,477.56 L214.12,475.32 L216.48,465.08 L218.85,461.85 L221.21,458.61 L223.57,453.30 L225.93,447.14 L228.30,444.51 L230.66,440.96 L233.02,440.27 L235.38,440.06 L237.75,441.51 L240.11,444.95 L242.47,446.72 L244.84,451.46 L247.20,452.20 L249.56,452.64 L251.92,447.49 L254.29,445.27 L256.65,436.41 L259.01,435.50 L261.37,430.59 L263.74,427.75 L266.10,430.30 L268.46,429.67 L270.82,433.19 L273.19,447.09 L275.55,454.02 L277.91,459.61 L280.27,468.27 L282.64,468.14 L285.00,472.08 L287.36,479.09 L289.73,479.99 L292.09,483.54 L294.45,482.03 L296.81,480.34 L299.18,480.67 L301.54,483.49 L303.90,485.70 L306.26,487.27 L308.63,485.67 L310.99,485.08 L313.35,482.49 L315.71,483.97 L318.08,486.55 L320.44,483.18 L322.80,478.61 L325.16,481.54 L327.53,481.66 L329.89,486.03 L332.25,482.76 L334.62,482.51 L336.98,482.14 L339.34,489.38 L341.70,487.77 L344.07,487.75 L346.43,487.12 L348.79,489.77 L351.15,490.60 L353.52,492.45 L355.88,486.98 L358.24,489.18 L360.60,490.95 L362.97,493.81 L365.33,495.86 L367.69,490.61 L370.05,491.39 L372.42,497.78 L374.78,495.95 L377.14,499.91 L379.51,498.29 L381.87,495.52 L384.23,506.92 L386.59,506.03 L388.96,508.43 L391.32,507.01 L393.68,507.01 L396.04,510.00 L398.41,510.77 L400.77,505.81 L403.13,506.36 L405.49,511.91 L407.86,514.88 L410.22,513.30 L412.58,507.83 L414.95,510.41 L417.31,506.73 L419.67,505.54 L422.03,493.45 L424.40,491.81 L426.76,488.56 L429.12,492.35 L431.48,492.00 L433.85,498.66 L436.21,498.79 L438.57,496.69 L440.93,497.84 L443.30,500.87 L445.66,497.39 L448.02,490.50 L450.38,489.85 L452.75,487.54 L455.11,494.39 L457.47,493.21 L459.84,487.63 L462.20,488.62 L464.56,499.71 L466.92,496.48 L469.29,502.35 L471.65,501.62 L474.01,496.96 L476.37,501.85 L478.74,501.40 L481.10,497.59 L483.46,496.13 L485.82,492.83 L488.19,482.95 L490.55,482.08 L492.91,479.64 L495.27,482.75 L497.64,484.24 L500.00,480.67 L502.36,482.89 L504.73,484.39 L507.09,489.13 L509.45,495.73 L511.81,495.89 L514.18,492.36 L516.54,496.72 L518.90,504.54 L521.26,513.49 L523.63,517.15 L525.99,517.78 L528.35,513.64 L530.71,515.97 L533.08,517.10 L535.44,507.63 L537.80,506.32 L540.16,504.54 L542.53,502.68 L544.89,510.13 L547.25,510.51 L549.62,511.70 L551.98,518.38 L554.34,516.47 L556.70,512.75 L559.07,519.90 L561.43,516.00 L563.79,518.70 L566.15,522.51 L568.52,516.48 L570.88,518.93 L573.24,521.72 L575.60,514.67 L577.97,511.37 L580.33,521.20 L582.69,515.84 L585.05,527.38 L587.42,526.64 L589.78,536.82 L592.14,534.87 L594.51,538.02 L596.87,526.22 L599.23,525.74 L601.59,525.16 L603.96,524.12 L606.32,514.55 L608.68,511.26 L611.04,509.74 L613.41,509.04 L615.77,516.16 L618.13,502.19 L620.49,503.99 L622.86,510.65 L625.22,518.32 L627.58,525.37 L629.95,526.17 L632.31,516.69 L634.67,521.32 L637.03,515.16 L639.40,514.66 L641.76,505.61 L644.12,496.26 L646.48,507.16 L648.85,505.76 L651.21,507.35 L653.57,536.09 L672.47,627.86 L674.84,635.25 L677.20,634.05 L679.56,629.87 L681.92,630.48 L684.29,623.92 L686.65,599.78 L689.01,497.01 L691.37,488.10 L693.74,490.68 L696.10,483.16 L698.46,485.66 L700.82,486.97 L703.19,480.21 L705.55,480.47 L707.91,487.80 L710.27,486.61 L712.64,486.18 L715.00,485.77 L717.36,485.96 L719.73,488.84 L722.09,494.47 L724.45,489.93 L726.81,488.66 L729.18,490.28 L731.54,490.16 L733.90,484.74 L736.26,480.86 L738.63,469.81 L740.99,464.57 L743.35,468.38 L745.71,466.95 L748.08,464.25 L750.44,471.51 L752.80,477.07 L755.16,490.41 L757.53,495.85 L759.89,488.08 L762.25,480.25 L764.62,475.86 L766.98,476.66 L769.34,474.07 L771.70,460.29 L774.07,452.41 L776.43,454.19 L778.79,453.62 L781.15,455.16 L783.52,446.24 L785.88,438.52 L788.24,446.21 L790.60,450.44 L792.97,452.28 L795.33,452.79 L797.69,455.20 L800.05,455.82 L802.42,457.93 L804.78,458.34 L807.14,455.27 L809.51,450.56 L811.87,443.97 L814.23,440.96 L816.59,438.71 L818.96,440.73 L821.32,432.93 L823.68,442.46 L826.04,452.16 L828.41,457.24 L830.77,460.22 L833.13,459.58 L835.49,457.56 L837.86,457.68 L840.22,448.18 L842.58,444.84 L844.95,453.03 L847.31,453.60 L849.67,457.86 L852.03,461.66 L854.40,471.96 L856.76,467.86 L859.12,466.90 L861.48,465.01 L863.85,467.18 L866.21,465.19 L868.57,474.44 L870.93,473.28 L873.30,486.46 L875.66,488.75 L878.02,493.23 L880.38,488.48 L882.75,495.83 L885.11,488.99 L887.47,484.99 L889.84,480.22 L892.20,475.88 L894.56,468.40 L896.92,471.62 L899.29,467.73 L901.65,467.83 L904.01,464.26 L906.37,466.31 L908.74,470.59 L911.10,473.63 L913.46,471.25 L915.82,470.09 L918.19,473.53 L920.55,476.07 L922.91,470.13 L925.27,478.34 L927.64,478.03 L930.00,499.27" fill="none" stroke="#60a5fa" stroke-width="2.2" stroke-linecap="round" />
</svg>
