<svg xmlns="http://www.w3.org/2000/svg" viewBox="0 0 960 720" width="960" height="720">
<rect width="960" height="720" fill="#0f172a" />
<text x="480" y="28" fill="#e2e8f0" font-size="16" font-weight="700" text-anchor="middle">主动能量趋势图</text>
<text x="70" y="70" fill="#e2e8f0" font-size="13" font-weight="600">本月分天指标明细</text>
<line x1="70" y1="323.00" x2="930" y2="323.00" stroke="#94a3b8" stroke-opacity="0.18" stroke-width="1" />
<text x="62" y="327.00" fill="#cbd5f5" font-size="10" text-anchor="end">301.8</text>
<line x1="70" y1="260.75" x2="930" y2="260.75" stroke="#94a3b8" stroke-opacity="0.18" stroke-width="1" />
<text x="62" y="264.75" fill="#cbd5f5" font-size="10" text-anchor="end">495.7</text>
<line x1="70" y1="198.50" x2="930" y2="198.50" stroke="#94a3b8" stroke-opacity="0.18" stroke-width="1" />
<text x="62" y="202.50" fill="#cbd5f5" font-size="10" text-anchor="end">689.5</text>
<line x1="70" y1="136.25" x2="930" y2="136.25" stroke="#94a3b8" stroke-opacity="0.18" stroke-width="1" />
<text x="62" y="140.25" fill="#cbd5f5" font-size="10" text-anchor="end">883.4</text>
<line x1="70" y1="74.00" x2="930" y2="74.00" stroke="#94a3b8" stroke-opacity="0.18" stroke-width="1" />
<text x="62" y="78.00" fill="#cbd5f5" font-size="10" text-anchor="end">1077</text>
<line x1="70.00" y1="323" x2="70.00" y2="327" stroke="#94a3b8" stroke-opacity="0.5" stroke-width="1" />
<text x="70.00" y="341" fill="#cbd5f5" font-size="10" text-anchor="middle">11-19</text>
<line x1="242.00" y1="323" x2="242.00" y2="327" stroke="#94a3b8" stroke-opacity="0.5" stroke-width="1" />
<text x="242.00" y="341" fill="#cbd5f5" font-size="10" text-anchor="middle">11-24</text>
<line x1="414.00" y1="323" x2="414.00" y2="327" stroke="#94a3b8" stroke-opacity="0.5" stroke-width="1" />
<text x="414.00" y="341" fill="#cbd5f5" font-size="10" text-anchor="middle">11-30</text>
<line x1="586.00" y1="323" x2="586.00" y2="327" stroke="#94a3b8" stroke-opacity="0.5" stroke-width="1" />
<text x="586.00" y="341" fill="#cbd5f5" font-size="10" text-anchor="middle">12-06</text>
<line x1="758.00" y1="323" x2="758.00" y2="327" stroke="#94a3b8" stroke-opacity="0.5" stroke-width="1" />
<text x="758.00" y="341" fill="#cbd5f5" font-size="10" text-anchor="middle">12-12</text>
<line x1="930.00" y1="323" x2="930.00" y2="327" stroke="#94a3b8" stroke-opacity="0.5" stroke-width="1" />
<text x="930.00" y="341" fill="#cbd5f5" font-size="10" text-anchor="middle">12-18</text>
<line x1="70" y1="74" x2="70" y2="323" stroke="#94a3b8" stroke-width="1" />
<line x1="70" y1="323" x2="930" y2="323" stroke="#94a3b8" stroke-width="1" />
<path d="M70.00,188.24 L99.66,237.03 L129.31,196.28 L158.97,133.86 L188.62,302.25 L218.28,254.97 L247.93,250.05 L277.59,183.73 L307.24,94.75 L336.90,257.35 L366.55,196.50 L396.21,263.44 L425.86,250.03 L455.52,161.66 L485.17,152.61 L514.83,200.00 L544.48,258.32 L574.14,285.35 L603.79,149.90 L633.45,161.07 L663.10,213.59 L692.76,231.38 L722.41,173.80 L752.07,206.09 L781.72,264.51 L811.38,223.15 L841.03,208.22 L870.69,263.30 L900.34,113.78 L930.00,141.35" fill="none" stroke="#f97316" stroke-width="2.2" stroke-linecap="round" />
<circle cx="70.00" cy="188.24" r="3" fill="#f97316" stroke="#0f172a" stroke-width="1" />
<text x="70.00" y="178.24" fill="#e2e8f0" font-size="9" text-anchor="middle">721.5</text>
<circle cx="99.66" cy="237.03" r="3" fill="#f97316" stroke="#0f172a" stroke-width="1" />
<text x="99.66" y="217.03" fill="#e2e8f0" font-size="9" text-anchor="middle">569.5</text>
<circle cx="129.31" cy="196.28" r="3" fill="#f97316" stroke="#0f172a" stroke-width="1" />
<text x="129.31" y="186.28" fill="#e2e8f0" font-size="9" text-anchor="middle">696.5</text>
<circle cx="158.97" cy="133.86" r="3" fill="#f97316" stroke="#0f172a" stroke-width="1" />
<text x="158.97" y="113.86" fill="#e2e8f0" font-size="9" text-anchor="middle">890.9</text>
<circle cx="188.62" cy="302.25" r="3" fill="#f97316" stroke="#0f172a" stroke-width="1" />
<text x="188.62" y="292.25" fill="#e2e8f0" font-size="9" text-anchor="middle">366.4</text>
<circle cx="218.28" cy="254.97" r="3" fill="#f97316" stroke="#0f172a" stroke-width="1" />
<text x="218.28" y="234.97" fill="#e2e8f0" font-size="9" text-anchor="middle">513.7</text>
<circle cx="247.93" cy="250.05" r="3" fill="#f97316" stroke="#0f172a" stroke-width="1" />
<text x="247.93" y="240.05" fill="#e2e8f0" font-size="9" text-anchor="middle">529</text>
<circle cx="277.59" cy="183.73" r="3" fill="#f97316" stroke="#0f172a" stroke-width="1" />
<text x="277.59" y="163.73" fill="#e2e8f0" font-size="9" text-anchor="middle">735.5</text>
<circle cx="307.24" cy="94.75" r="3" fill="#f97316" stroke="#0f172a" stroke-width="1" />
<text x="307.24" y="84.75" fill="#e2e8f0" font-size="9" text-anchor="middle">1013</text>
<circle cx="336.90" cy="257.35" r="3" fill="#f97316" stroke="#0f172a" stroke-width="1" />
<text x="336.90" y="237.35" fill="#e2e8f0" font-size="9" text-anchor="middle">506.3</text>
<circle cx="366.55" cy="196.50" r="3" fill="#f97316" stroke="#0f172a" stroke-width="1" />
<text x="366.55" y="186.50" fill="#e2e8f0" font-size="9" text-anchor="middle">695.8</text>
<circle cx="396.21" cy="263.44" r="3" fill="#f97316" stroke="#0f172a" stroke-width="1" />
<text x="396.21" y="243.44" fill="#e2e8f0" font-size="9" text-anchor="middle">487.3</text>
<circle cx="425.86" cy="250.03" r="3" fill="#f97316" stroke="#0f172a" stroke-width="1" />
<text x="425.86" y="240.03" fill="#e2e8f0" font-size="9" text-anchor="middle">529.1</text>
<circle cx="455.52" cy="161.66" r="3" fill="#f97316" stroke="#0f172a" stroke-width="1" />
<text x="455.52" y="141.66" fill="#e2e8f0" font-size="9" text-anchor="middle">804.3</text>
<circle cx="485.17" cy="152.61" r="3" fill="#f97316" stroke="#0f172a" stroke-width="1" />
<text x="485.17" y="142.61" fill="#e2e8f0" font-size="9" text-anchor="middle">832.5</text>
<circle cx="514.83" cy="200.00" r="3" fill="#f97316" stroke="#0f172a" stroke-width="1" />
<text x="514.83" y="180.00" fill="#e2e8f0" font-size="9" text-anchor="middle">684.9</text>
<circle cx="544.48" cy="258.32" r="3" fill="#f97316" stroke="#0f172a" stroke-width="1" />
<text x="544.48" y="248.32" fill="#e2e8f0" font-size="9" text-anchor="middle">503.2</text>
<circle cx="574.14" cy="285.35" r="3" fill="#f97316" stroke="#0f172a" stroke-width="1" />
<text x="574.14" y="265.35" fill="#e2e8f0" font-size="9" text-anchor="middle">419.1</text>
<circle cx="603.79" cy="149.90" r="3" fill="#f97316" stroke="#0f172a" stroke-width="1" />
<text x="603.79" y="139.90" fill="#e2e8f0" font-size="9" text-anchor="middle">840.9</text>
<circle cx="633.45" cy="161.07" r="3" fill="#f97316" stroke="#0f172a" stroke-width="1" />
<text x="633.45" y="141.07" fill="#e2e8f0" font-size="9" text-anchor="middle">806.1</text>
<circle cx="663.10" cy="213.59" r="3" fill="#f97316" stroke="#0f172a" stroke-width="1" />
<text x="663.10" y="203.59" fill="#e2e8f0" font-size="9" text-anchor="middle">642.5</text>
<circle cx="692.76" cy="231.38" r="3" fill="#f97316" stroke="#0f172a" stroke-width="1" />
<text x="692.76" y="211.38" fill="#e2e8f0" font-size="9" text-anchor="middle">587.1</text>
<circle cx="722.41" cy="173.80" r="3" fill="#f97316" stroke="#0f172a" stroke-width="1" />
<text x="722.41" y="163.80" fill="#e2e8f0" font-size="9" text-anchor="middle">766.5</text>
<circle cx="752.07" cy="206.09" r="3" fill="#f97316" stroke="#0f172a" stroke-width="1" />
<text x="752.07" y="186.09" fill="#e2e8f0" font-size="9" text-anchor="middle">665.9</text>
<circle cx="781.72" cy="264.51" r="3" fill="#f97316" stroke="#0f172a" stroke-width="1" />
<text x="781.72" y="254.51" fill="#e2e8f0" font-size="9" text-anchor="middle">483.9</text>
<circle cx="811.38" cy="223.15" r="3" fill="#f97316" stroke="#0f172a" stroke-width="1" />
<text x="811.38" y="203.15" fill="#e2e8f0" font-size="9" text-anchor="middle">612.8</text>
<circle cx="841.03" cy="208.22" r="3" fill="#f97316" stroke="#0f172a" stroke-width="1" />
<text x="841.03" y="198.22" fill="#e2e8f0" font-size="9" text-anchor="middle">659.3</text>
<circle cx="870.69" cy="263.30" r="3" fill="#f97316" stroke="#0f172a" stroke-width="1" />
<text x="870.69" y="243.30" fill="#e2e8f0" font-size="9" text-anchor="middle">487.7</text>
<circle cx="900.34" cy="113.78" r="3" fill="#f97316" stroke="#0f172a" stroke-width="1" />
<text x="900.34" y="103.78" fill="#e2e8f0" font-size="9" text-anchor="middle">953.4</text>
<circle cx="930.00" cy="141.35" r="3" fill="#f97316" stroke="#0f172a" stroke-width="1" />
<text x="930.00" y="121.35" fill="#e2e8f0" font-size="9" text-anchor="middle">867.5</text>
<text x="70" y="403" fill="#e2e8f0" font-size="13" font-weight="600">本年核心指标趋势（滑动7日窗口平均）</text>
<line x1="70" y1="656.00" x2="930" y2="656.00" stroke="#94a3b8" stroke-opacity="0.18" stroke-width="1" />
<text x="62" y="660.00" fill="#cbd5f5" font-size="10" text-anchor="end">278.6</text>
<line x1="70" y1="593.75" x2="930" y2="593.75" stroke="#94a3b8" stroke-opacity="0.18" stroke-width="1" />
<text x="62" y="597.75" fill="#cbd5f5" font-size="10" text-anchor="end">713.1</text>
<line x1="70" y1="531.50" x2="930" y2="531.50" stroke="#94a3b8" stroke-opacity="0.18" stroke-width="1" />
<text x="62" y="535.50" fill="#cbd5f5" font-size="10" text-anchor="end">1148</text>
<line x1="70" y1="469.25" x2="930" y2="469.25" stroke="#94a3b8" stroke-opacity="0.18" stroke-width="1" />
<text x="62" y="473.25" fill="#cbd5f5" font-size="10" text-anchor="end">1582</text>
<line x1="70" y1="407.00" x2="930" y2="407.00" stroke="#94a3b8" stroke-opacity="0.18" stroke-width="1" />
<text x="62" y="411.00" fill="#cbd5f5" font-size="10" text-anchor="end">2017</text>
<line x1="70.00" y1="656" x2="70.00" y2="660" stroke="#94a3b8" stroke-opacity="0.5" stroke-width="1" />
<text x="70.00" y="674" fill="#cbd5f5" font-size="10" text-anchor="middle">2024-12</text>
<line x1="242.00" y1="656" x2="242.00" y2="660" stroke="#94a3b8" stroke-opacity="0.5" stroke-width="1" />
<text x="242.00" y="674" fill="#cbd5f5" font-size="10" text-anchor="middle">2025-03</text>
<line x1="414.00" y1="656" x2="414.00" y2="660" stroke="#94a3b8" stroke-opacity="0.5" stroke-width="1" />
<text x="414.00" y="674" fill="#cbd5f5" font-size="10" text-anchor="middle">2025-05</text>
<line x1="586.00" y1="656" x2="586.00" y2="660" stroke="#94a3b8" stroke-opacity="0.5" stroke-width="1" />
<text x="586.00" y="674" fill="#cbd5f5" font-size="10" text-anchor="middle">2025-07</text>
<line x1="758.00" y1="656" x2="758.00" y2="660" stroke="#94a3b8" stroke-opacity="0.5" stroke-width="1" />
<text x="758.00" y="674" fill="#cbd5f5" font-size="10" text-anchor="middle">2025-10</text>
<line x1="930.00" y1="656" x2="930.00" y2="660" stroke="#94a3b8" stroke-opacity="0.5" stroke-width="1" />
<text x="930.00" y="674" fill="#cbd5f5" font-size="10" text-anchor="middle">2025-12</text>
<line x1="70" y1="407" x2="70" y2="656" stroke="#94a3b8" stroke-width="1" />
<line x1="70" y1="656" x2="930" y2="656" stroke="#94a3b8" stroke-width="1" />
<path d="M70.00,656.00 L70.00,582.51 L72.36,541.24 L74.73,427.75 L77.09,478.14 L79.45,499.98 L81.81,515.27 L84.18,527.56 L86.54,538.26 L88.90,549.86 L91.26,587.53 L93.63,582.86 L95.99,590.20 L98.35,596.61 L100.71,596.09 L103.08,587.03 L105.44,592.20 L107.80,611.38 L110.16,594.59 L112.53,588.24 L114.89,588.96 L117.25,583.39 L119.62,579.01 L121.98,564.81 L124.34,566.32 L126.70,572.53 L129.07,562.02 L131.43,550.40 L133.79,551.72 L136.15,559.85 L138.52,567.98 L140.88,570.51 L143.24,582.06 L145.60,579.44 L147.97,583.79 L150.33,584.28 L152.69,580.20 L155.05,583.78 L157.42,583.91 L159.78,586.84 L162.14,608.70 L164.51,611.89 L166.87,618.13 L169.23,625.71 L171.59,622.14 L173.96,615.45 L176.32,621.62 L178.68,613.86 L181.04,615.73 L183.41,615.20 L185.77,614.48 L188.13,625.19 L190.49,631.68 L192.86,627.97 L195.22,630.10 L197.58,631.01 L199.95,633.88 L202.31,631.44 L204.67,626.01 L207.03,626.97 L209.40,613.56 L211.76,615.14 L214.12,615.07 L216.48,608.01 L218.85,608.76 L221.21,604.42 L223.57,600.49 L225.93,604.30 L228.30,604.68 L230.66,600.30 L233.02,602.16 L235.38,596.93 L237.75,601.03 L240.11,603.19 L242.47,584.67 L244.84,586.41 L247.20,582.76 L249.56,584.88 L251.92,577.58 L254.29,572.03 L256.65,562.30 L259.01,588.38 L261.37,584.41 L263.74,584.37 L266.10,580.75 L268.46,589.92 L270.82,593.50 L273.19,605.11 L275.55,604.80 L277.91,607.62 L280.27,616.48 L282.64,614.18 L285.00,606.30 L287.36,608.83 L289.73,605.43 L292.09,593.77 L294.45,592.77 L296.81,581.13 L299.18,584.51 L301.54,582.69 L303.90,584.26 L306.26,585.43 L308.63,597.00 L310.99,590.31 L313.35,589.27 L315.71,585.33 L318.08,595.34 L320.44,588.54 L322.80,582.95 L325.16,583.71 L327.53,590.59 L329.89,594.99 L332.25,593.08 L334.62,587.84 L336.98,586.79 L339.34,595.58 L341.70,597.33 L344.07,586.49 L346.43,583.90 L348.79,584.12 L351.15,580.70 L353.52,583.23 L355.88,570.94 L358.24,568.71 L360.60,573.53 L362.97,583.74 L365.33,585.83 L367.69,589.91 L370.05,592.84 L372.42,599.27 L374.78,599.00 L377.14,605.10 L379.51,599.64 L381.87,604.33 L384.23,615.47 L386.59,613.40 L388.96,611.82 L391.32,608.47 L393.68,599.20 L396.04,605.35 L398.41,604.22 L400.77,591.61 L403.13,597.59 L405.49,599.90 L407.86,588.11 L410.22,595.29 L412.58,590.07 L414.95,588.96 L417.31,590.76 L419.67,588.47 L422.03,592.46 L424.40,609.20 L426.76,609.70 L429.12,612.30 L431.48,614.68 L433.85,615.32 L436.21,615.93 L438.57,611.43 L440.93,611.84 L443.30,611.26 L445.66,611.82 L448.02,613.00 L450.38,619.92 L452.75,617.57 L455.11,623.11 L457.47,620.20 L459.84,594.82 L462.20,593.61 L464.56,595.22 L466.92,594.64 L469.29,599.38 L471.65,598.71 L474.01,599.95 L476.37,626.30 L478.74,625.99 L481.10,619.47 L483.46,613.67 L485.82,607.00 L488.19,604.89 L490.55,604.07 L492.91,604.13 L495.27,607.12 L497.64,613.27 L500.00,608.70 L502.36,607.89 L504.73,603.81 L507.09,597.03 L509.45,599.68 L511.81,589.29 L514.18,584.19 L516.54,588.34 L518.90,596.32 L521.26,591.10 L523.63,599.12 L525.99,598.07 L528.35,601.95 L530.71,608.69 L533.08,614.83 L535.44,613.65 L537.80,624.71 L540.16,625.31 L542.53,626.52 L544.89,629.96 L547.25,624.36 L549.62,620.87 L551.98,621.11 L554.34,616.87 L556.70,613.96 L559.07,609.79 L561.43,609.93 L563.79,616.73 L566.15,618.93 L568.52,614.94 L570.88,616.76 L573.24,621.38 L575.60,621.01 L577.97,616.60 L580.33,617.10 L582.69,610.84 L585.05,611.73 L587.42,609.57 L589.78,611.84 L592.14,617.13 L594.51,623.36 L596.87,621.20 L599.23,624.15 L601.59,625.41 L603.96,628.98 L606.32,619.15 L608.68,618.46 L611.04,619.83 L613.41,616.06 L615.77,623.58 L618.13,622.28 L620.49,622.71 L622.86,627.61 L625.22,629.64 L627.58,630.15 L629.95,635.25 L632.31,630.85 L634.67,631.50 L637.03,624.90 L639.40,622.30 L641.76,617.45 L644.12,614.72 L646.48,619.34 L648.85,621.39 L651.21,623.42 L653.57,578.52 L672.47,590.95 L674.84,595.54 L677.20,594.99 L679.56,588.80 L681.92,586.46 L684.29,578.21 L686.65,621.05 L689.01,612.89 L691.37,610.44 L693.74,608.85 L696.10,609.21 L698.46,604.70 L700.82,604.65 L703.19,597.30 L705.55,596.17 L707.91,595.69 L710.27,593.87 L712.64,594.20 L715.00,593.24 L717.36,596.29 L719.73,613.98 L722.09,615.54 L724.45,614.71 L726.81,610.82 L729.18,614.40 L731.54,617.53 L733.90,612.12 L736.26,610.58 L738.63,596.63 L740.99,594.96 L743.35,596.50 L745.71,594.17 L748.08,601.64 L750.44,610.45 L752.80,612.21 L755.16,628.79 L757.53,628.09 L759.89,628.45 L762.25,626.32 L764.62,622.77 L766.98,623.22 L769.34,619.95 L771.70,612.57 L774.07,611.81 L776.43,615.81 L778.79,607.63 L781.15,599.15 L783.52,598.69 L785.88,582.62 L788.24,586.00 L790.60,583.51 L792.97,581.73 L795.33,582.83 L797.69,587.85 L800.05,583.59 L802.42,579.17 L804.78,578.78 L807.14,582.51 L809.51,583.50 L811.87,586.45 L814.23,584.51 L816.59,588.62 L818.96,605.43 L821.32,592.70 L823.68,596.79 L826.04,589.99 L828.41,586.49 L830.77,591.39 L833.13,589.90 L835.49,559.05 L837.86,571.79 L840.22,567.80 L842.58,579.15 L844.95,585.94 L847.31,587.57 L849.67,590.79 L852.03,627.48 L854.40,629.96 L856.76,629.92 L859.12,628.79 L861.48,625.23 L863.85,622.80 L866.21,617.57 L868.57,608.17 L870.93,607.65 L873.30,608.84 L875.66,608.16 L878.02,607.87 L880.38,598.80 L882.75,602.70 L885.11,606.69 L887.47,604.21 L889.84,603.90 L892.20,598.27 L894.56,596.28 L896.92,602.99 L899.29,603.05 L901.65,608.72 L904.01,601.48 L906.37,595.81 L908.74,599.12 L911.10,604.14 L913.46,602.47 L915.82,599.14 L918.19,597.81 L920.55,602.48 L922.91,605.49 L925.27,608.66 L927.64,601.16 L930.00,599.09 L930.00,656.00 Z" fill="#f97316" fill-opacity="0.16" stroke="none" />
<path d="M70.00,582.51 L72.36,541.24 L74.73,427.75 L77.09,478.14 L79.45,499.98 L81.81,515.27 L84.18,527.56 L86.54,538.26 L88.90,549.86 L91.26,587.53 L93.63,582.86 L95.99,590.20 L98.35,596.61 L100.71,596.09 L103.08,587.03 L105.44,592.20 L107.80,611.38 L110.16,594.59 L112.53,588.24 L114.89,588.96 L117.25,583.39 L119.62,579.01 L121.98,564.81 L124.34,566.32 L126.70,572.53 L129.07,562.02 L131.43,550.40 L133.79,551.72 L136.15,559.85 L138.52,567.98 L140.88,570.51 L143.24,582.06 L145.60,579.44 L147.97,583.79 L150.33,584.28 L152.69,580.20 L155.05,583.78 L157.42,583.91 L159.78,586.84 L162.14,608.70 L164.51,611.89 L166.87,618.13 L169.23,625.71 L171.59,622.14 L173.96,615.45 L176.32,621.62 L178.68,613.86 L181.04,615.73 L183.41,615.20 L185.77,614.48 L188.13,625.19 L190.49,631.68 L192.86,627.97 L195.22,630.10 L197.58,631.01 L199.95,633.88 L202.31,631.44 L204.67,626.01 L207.03,626.97 L209.40,613.56 L211.76,615.14 L214.12,615.07 L216.48,608.01 L218.85,608.76 L221.21,604.42 L223.57,600.49 L225.93,604.30 L228.30,604.68 L230.66,600.30 L233.02,602.16 L235.38,596.93 L237.75,601.03 L240.11,603.19 L242.47,584.67 L244.84,586.41 L247.20,582.76 L249.56,584.88 L251.92,577.58 L254.29,572.03 L256.65,562.30 L259.01,588.38 L261.37,584.41 L263.74,584.37 L266.10,580.75 L268.46,589.92 L270.82,593.50 L273.19,605.11 L275.55,604.80 L277.91,607.62 L280.27,616.48 L282.64,614.18 L285.00,606.30 L287.36,608.83 L289.73,605.43 L292.09,593.77 L294.45,592.77 L296.81,581.13 L299.18,584.51 L301.54,582.69 L303.90,584.26 L306.26,585.43 L308.63,597.00 L310.99,590.31 L313.35,589.27 L315.71,585.33 L318.08,595.34 L320.44,588.54 L322.80,582.95 L325.16,583.71 L327.53,590.59 L329.89,594.99 L332.25,593.08 L334.62,587.84 L336.98,586.79 L339.34,595.58 L341.70,597.33 L344.07,586.49 L346.43,583.90 L348.79,584.12 L351.15,580.70 L353.52,583.23 L355.88,570.94 L358.24,568.71 L360.60,573.53 L362.97,583.74 L365.33,585.83 L367.69,589.91 L370.05,592.84 L372.42,599.27 L374.78,599.00 L377.14,605.10 L379.51,599.64 L381.87,604.33 L384.23,615.47 L386.59,613.40 L388.96,611.82 L391.32,608.47 L393.68,599.20 L396.04,605.35 L398.41,604.22 L400.77,591.61 L403.13,597.59 L405.49,599.90 L407.86,588.11 L410.22,595.29 L412.58,590.07 L414.95,588.96 L417.31,590.76 L419.67,588.47 L422.03,592.46 L424.40,609.20 L426.76,609.70 L429.12,612.30 L431.48,614.68 L433.85,615.32 L436.21,615.93 L438.57,611.43 L440.93,611.84 L443.30,611.26 L445.66,611.82 L448.02,613.00 L450.38,619.92 L452.75,617.57 L455.11,623.11 L457.47,620.20 L459.84,594.82 L462.20,593.61 L464.56,595.22 L466.92,594.64 L469.29,599.38 L471.65,598.71 L474.01,599.95 L476.37,626.30 L478.74,625.99 L481.10,619.47 L483.46,613.67 L485.82,607.00 L488.19,604.89 L490.55,604.07 L492.91,604.13 L495.27,607.12 L497.64,613.27 L500.00,608.70 L502.36,607.89 L504.73,603.81 L507.09,597.03 L509.45,599.68 L511.81,589.29 L514.18,584.19 L516.54,588.34 L518.90,596.32 L521.26,591.10 L523.63,599.12 L525.99,598.07 L528.35,601.95 L530.71,608.69 L533.08,614.83 L535.44,613.65 L537.80,624.71 L540.16,625.31 L542.53,626.52 L544.89,629.96 L547.25,624.36 L549.62,620.87 L551.98,621.11 L554.34,616.87 L556.70,613.96 L559.07,609.79 L561.43,609.93 L563.79,616.73 L566.15,618.93 L568.52,614.94 L570.88,616.76 L573.24,621.38 L575.60,621.01 L577.97,616.60 L580.33,617.10 L582.69,610.84 L585.05,611.73 L587.42,609.57 L589.78,611.84 L592.14,617.13 L594.51,623.36 L596.87,621.20 L599.23,624.15 L601.59,625.41 L603.96,628.98 L606.32,619.15 L608.68,618.46 L611.04,619.83 L613.41,616.06 L615.77,623.58 L618.13,622.28 L620.49,622.71 L622.86,627.61 L625.22,629.64 L627.58,630.15 L629.95,635.25 L632.31,630.85 L634.67,631.50 L637.03,624.90 L639.40,622.30 L641.76,617.45 L644.12,614.72 L646.48,619.34 L648.85,621.39 L651.21,623.42 L653.57,578.52 L672.47,590.95 L674.84,595.54 L677.20,594.99 L679.56,588.80 L681.92,586.46 L684.29,578.21 L686.65,621.05 L689.01,612.89 L691.37,610.44 L693.74,608.85 L696.10,609.21 L698.46,604.70 L700.82,604.65 L703.19,597.30 L705.55,596.17 L707.91,595.69 L710.27,593.87 L712.64,594.20 L715.00,593.24 L717.36,596.29 L719.73,613.98 L722.09,615.54 L724.45,614.71 L726.81,610.82 L729.18,614.40 L731.54,617.53 L733.90,612.12 L736.26,610.58 L738.63,596.63 L740.99,594.96 L743.35,596.50 L745.71,594.17 L748.08,601.64 L750.44,610.45 L752.80,612.21 L755.16,628.79 L757.53,628.09 L759.89,628.45 L762.25,626.32 L764.62,622.77 L766.98,623.22 L769.34,619.95 L771.70,612.57 L774.07,611.81 L776.43,615.81 L778.79,607.63 L781.15,599.15 L783.52,598.69 L785.88,582.62 L788.24,586.00 L790.60,583.51 L792.97,581.73 L795.33,582.83 L797.69,587.85 L800.05,583.59 L802.42,579.17 L804.78,578.78 L807.14,582.51 L809.51,583.50 L811.87,586.45 L814.23,584.51 L816.59,588.62 L818.96,605.43 L821.32,592.70 L823.68,596.79 L826.04,589.99 L828.41,586.49 L830.77,591.39 L833.13,589.90 L835.49,559.05 L837.86,571.79 L840.22,567.80 L842.58,579.15 L844.95,585.94 L847.31,587.57 L849.67,590.79 L852.03,627.48 L854.40,629.96 L856.76,629.92 L859.12,628.79 L861.48,625.23 L863.85,622.80 L866.21,617.57 L868.57,608.17 L870.93,607.65 L873.30,608.84 L875.66,608.16 L878.02,607.87 L880.38,598.80 L882.75,602.70 L885.11,606.69 L887.47,604.21 L889.84,603.90 L892.20,598.27 L894.56,596.28 L896.92,602.99 L899.29,603.05 L901.65,608.72 L904.01,601.48 L906.37,595.81 L908.74,599.12 L911.10,604.14 L913.46,602.47 L915.82,599.14 L918.19,597.81 L920.55,602.48 L922.91,605.49 L925.27,608.66 L927.64,601.16 L930.00,599.09" fill="none" stroke="#f97316" stroke-width="2.2" stroke-linecap="round" />
</svg>
