<svg xmlns="http://www.w3.org/2000/svg" viewBox="0 0 960 640" width="960" height="640">
  <rect width="960" height="640" fill="#0f172a" />
  <line x1="40" y1="40.00" x2="920.00" y2="40.00" stroke="#94a3b8" stroke-opacity="0.18" stroke-width="1" /><line x1="40" y1="128.00" x2="920.00" y2="128.00" stroke="#94a3b8" stroke-opacity="0.18" stroke-width="1" /><line x1="40" y1="216.00" x2="920.00" y2="216.00" stroke="#94a3b8" stroke-opacity="0.18" stroke-width="1" /><line x1="40" y1="304.00" x2="920.00" y2="304.00" stroke="#94a3b8" stroke-opacity="0.18" stroke-width="1" />
  <line x1="40" y1="336.00" x2="920.00" y2="336.00" stroke="#94a3b8" stroke-opacity="0.18" stroke-width="1" /><line x1="40" y1="424.00" x2="920.00" y2="424.00" stroke="#94a3b8" stroke-opacity="0.18" stroke-width="1" /><line x1="40" y1="512.00" x2="920.00" y2="512.00" stroke="#94a3b8" stroke-opacity="0.18" stroke-width="1" /><line x1="40" y1="600.00" x2="920.00" y2="600.00" stroke="#94a3b8" stroke-opacity="0.18" stroke-width="1" />
  <line x1="40" y1="320.00" x2="920.00" y2="320.00" stroke="#1f2937" stroke-width="1" />
  <polyline points="40.00,69.33 70.34,40.00 100.69,40.00 131.03,186.67 161.38,98.67 191.72,98.67 222.07,40.00 252.41,69.33 282.76,98.67 313.10,40.00 343.45,40.00 373.79,40.00 404.14,69.33 434.48,98.67 464.83,98.67 495.17,69.33 525.52,40.00 555.86,69.33 586.21,69.33 616.55,40.00 646.90,69.33 677.24,69.33 707.59,69.33 737.93,40.00 768.28,304.00 798.62,40.00 828.97,69.33 859.31,157.33 889.66,98.67 920.00,157.33" fill="none" stroke="#60a5fa" stroke-width="2" stroke-linecap="round" stroke-linejoin="round" />
  <polyline points="40.00,600.00 42.74,476.37 45.48,439.49 48.22,414.55 50.97,399.58 53.71,391.77 56.45,386.20 59.19,350.87 61.93,349.01 64.67,349.01 67.41,350.87 70.16,350.87 72.90,352.73 75.64,354.59 78.38,352.73 81.12,352.73 83.86,349.01 86.60,349.01 89.35,350.87 92.09,350.87 94.83,349.01 97.57,350.87 100.31,350.87 103.05,350.87 105.79,349.01 108.54,347.15 111.28,349.01 114.02,350.87 116.76,349.01 119.50,349.01 122.24,349.01 124.98,349.01 127.73,349.01 130.47,343.44 133.21,343.44 135.95,347.15 138.69,349.01 141.43,349.01 144.17,356.45 146.92,367.61 149.66,367.61 152.40,367.61 155.14,365.75 157.88,363.89 160.62,363.89 163.36,358.31 166.11,349.01 168.85,349.01 171.59,347.15 174.33,347.15 177.07,350.87 179.81,350.87 182.55,349.01 185.30,349.01 188.04,349.01 190.78,349.01 193.52,350.87 196.26,350.87 199.00,350.87 201.74,350.87 204.49,349.01 207.23,350.87 209.97,349.01 212.71,347.15 215.45,343.44 218.19,343.44 220.93,343.44 223.68,345.30 226.42,345.30 229.16,345.30 231.90,345.30 234.64,345.30 237.38,345.30 240.12,347.15 242.87,347.15 245.61,345.30 248.35,349.01 251.09,349.01 253.83,350.87 256.57,350.87 259.31,349.01 262.06,349.01 264.80,350.87 267.54,349.01 270.28,349.01 273.02,349.01 275.76,350.87 278.50,350.87 281.25,350.87 283.99,350.87 286.73,349.01 289.47,347.15 292.21,345.30 294.95,347.15 297.69,347.15 300.44,347.15 303.18,345.30 305.92,345.30 308.66,350.87 311.40,350.87 314.14,350.87 316.88,352.73 319.63,354.59 322.37,356.45 325.11,356.45 327.85,354.59 330.59,356.45 333.33,356.45 336.07,356.45 338.82,352.73 341.56,352.73 344.30,354.59 347.04,354.59 349.78,354.59 352.52,352.73 355.26,350.87 358.01,354.59 360.75,354.59 363.49,356.45 366.23,356.45 368.97,356.45 371.71,356.45 374.45,356.45 377.20,356.45 379.94,356.45 382.68,352.73 385.42,349.01 388.16,349.01 390.90,347.15 393.64,349.01 396.39,337.86 399.13,336.00 401.87,337.86 404.61,341.58 407.35,343.44 410.09,345.30 412.83,343.44 415.58,352.73 418.32,354.59 421.06,358.31 423.80,358.31 426.54,356.45 429.28,356.45 432.02,356.45 434.77,354.59 437.51,354.59 440.25,349.01 442.99,345.30 445.73,347.15 448.47,347.15 451.21,349.01 453.96,350.87 456.70,352.73 459.44,354.59 462.18,356.45 464.92,358.31 467.66,356.45 470.40,356.45 473.15,362.03 475.89,358.31 478.63,358.31 481.37,363.89 484.11,358.31 486.85,358.31 489.60,362.03 492.34,360.17 495.08,362.03 497.82,362.03 500.56,362.03 503.30,365.75 506.04,367.61 508.79,362.03 511.53,365.75 514.27,367.61 517.01,365.75 519.75,358.31 522.49,356.45 525.23,356.45 527.98,356.45 530.72,349.01 533.46,345.30 536.20,347.15 538.94,347.15 541.68,347.15 544.42,349.01 547.17,362.03 549.91,365.75 552.65,367.61 555.39,369.46 558.13,371.32 560.87,371.32 563.61,369.46 566.36,356.45 569.10,350.87 571.84,349.01 574.58,347.15 577.32,349.01 580.06,347.15 582.80,347.15 585.55,354.59 588.29,363.89 591.03,369.46 593.77,369.46 596.51,367.61 599.25,369.46 601.99,367.61 604.74,378.76 607.48,371.32 610.22,365.75 612.96,384.34 615.70,395.49 618.44,393.63 621.18,401.07 623.93,404.79 626.67,402.93 629.41,415.94 632.15,401.07 634.89,391.77 637.63,395.49 640.37,389.92 643.12,369.46 645.86,369.46 648.60,358.31 651.34,354.59 654.08,352.73 656.82,349.01 659.56,347.15 662.31,352.73 665.05,352.73 667.79,354.59 670.53,354.59 673.27,358.31 676.01,358.31 678.75,363.89 681.50,362.03 684.24,362.03 686.98,358.31 689.72,362.03 692.46,356.45 695.20,356.45 697.94,350.87 700.69,345.30 703.43,352.73 706.17,354.59 708.91,349.01 711.65,349.01 714.39,350.87 717.13,358.31 719.88,362.03 722.62,354.59 725.36,354.59 728.10,356.45 730.84,373.18 733.58,373.18 736.32,365.75 739.07,365.75 741.81,365.75 744.55,365.75 747.29,363.89 750.03,347.15 752.77,345.30 755.51,345.30 758.26,345.30 761.00,347.15 763.74,347.15 766.48,354.59 769.22,354.59 771.96,354.59 774.70,354.59 777.45,352.73 780.19,350.87 782.93,350.87 785.67,345.30 788.41,345.30 791.15,345.30 793.89,347.15 796.64,356.45 799.38,358.31 802.12,356.45 804.86,356.45 807.60,356.45 810.34,363.89 813.08,365.75 815.83,356.45 818.57,360.17 821.31,367.61 824.05,367.61 826.79,367.61 829.53,362.03 832.27,360.17 835.02,358.31 837.76,356.45 840.50,350.87 843.24,349.01 845.98,349.01 848.72,356.45 851.46,358.31 854.21,362.03 856.95,358.31 859.69,358.31 862.43,362.03 865.17,362.03 867.91,352.73 870.65,349.01 873.40,347.15 876.14,350.87 878.88,352.73 881.62,350.87 884.36,350.87 887.10,352.73 889.84,354.59 892.59,352.73 895.33,350.87 898.07,349.01 900.81,349.01 903.55,349.01 906.29,363.89 909.03,362.03 911.78,363.89 914.52,369.46 917.26,371.32 920.00,376.90" fill="none" stroke="#60a5fa" stroke-width="2" stroke-linecap="round" stroke-linejoin="round" />
  
  
  </svg>