<svg xmlns="http://www.w3.org/2000/svg" viewBox="0 0 960 720" width="960" height="720">
<rect width="960" height="720" fill="#0f172a" />
<text x="480" y="28" fill="#e2e8f0" font-size="16" font-weight="700" text-anchor="middle">站立时长趋势图</text>
<text x="70" y="70" fill="#e2e8f0" font-size="13" font-weight="600">本月分天指标明细</text>
<line x1="70" y1="323.00" x2="930" y2="323.00" stroke="#94a3b8" stroke-opacity="0.18" stroke-width="1" />
<text x="62" y="327.00" fill="#cbd5f5" font-size="10" text-anchor="end">22.6</text>
<line x1="70" y1="260.75" x2="930" y2="260.75" stroke="#94a3b8" stroke-opacity="0.18" stroke-width="1" />
<text x="62" y="264.75" fill="#cbd5f5" font-size="10" text-anchor="end">86.8</text>
<line x1="70" y1="198.50" x2="930" y2="198.50" stroke="#94a3b8" stroke-opacity="0.18" stroke-width="1" />
<text x="62" y="202.50" fill="#cbd5f5" font-size="10" text-anchor="end">151</text>
<line x1="70" y1="136.25" x2="930" y2="136.25" stroke="#94a3b8" stroke-opacity="0.18" stroke-width="1" />
<text x="62" y="140.25" fill="#cbd5f5" font-size="10" text-anchor="end">215.2</text>
<line x1="70" y1="74.00" x2="930" y2="74.00" stroke="#94a3b8" stroke-opacity="0.18" stroke-width="1" />
<text x="62" y="78.00" fill="#cbd5f5" font-size="10" text-anchor="end">279.4</text>
<line x1="70.00" y1="323" x2="70.00" y2="327" stroke="#94a3b8" stroke-opacity="0.5" stroke-width="1" />
<text x="70.00" y="341" fill="#cbd5f5" font-size="10" text-anchor="middle">11-22</text>
<line x1="242.00" y1="323" x2="242.00" y2="327" stroke="#94a3b8" stroke-opacity="0.5" stroke-width="1" />
<text x="242.00" y="341" fill="#cbd5f5" font-size="10" text-anchor="middle">11-27</text>
<line x1="414.00" y1="323" x2="414.00" y2="327" stroke="#94a3b8" stroke-opacity="0.5" stroke-width="1" />
<text x="414.00" y="341" fill="#cbd5f5" font-size="10" text-anchor="middle">12-03</text>
<line x1="586.00" y1="323" x2="586.00" y2="327" stroke="#94a3b8" stroke-opacity="0.5" stroke-width="1" />
<text x="586.00" y="341" fill="#cbd5f5" font-size="10" text-anchor="middle">12-09</text>
<line x1="758.00" y1="323" x2="758.00" y2="327" stroke="#94a3b8" stroke-opacity="0.5" stroke-width="1" />
<text x="758.00" y="341" fill="#cbd5f5" font-size="10" text-anchor="middle">12-15</text>
<line x1="930.00" y1="323" x2="930.00" y2="327" stroke="#94a3b8" stroke-opacity="0.5" stroke-width="1" />
<text x="930.00" y="341" fill="#cbd5f5" font-size="10" text-anchor="middle">12-21</text>
<line x1="70" y1="74" x2="70" y2="323" stroke="#94a3b8" stroke-width="1" />
<line x1="70" y1="323" x2="930" y2="323" stroke="#94a3b8" stroke-width="1" />
<path d="M70.00,216.92 L99.66,265.40 L129.31,233.41 L158.97,216.92 L188.62,191.71 L218.28,180.08 L247.93,199.47 L277.59,94.75 L307.24,192.68 L336.90,213.04 L366.55,188.80 L396.21,210.14 L425.86,187.83 L455.52,246.01 L485.17,270.25 L514.83,222.74 L544.48,220.80 L574.14,194.62 L603.79,196.56 L633.45,192.68 L663.10,163.59 L692.76,176.20 L722.41,181.05 L752.07,192.68 L781.72,242.13 L811.38,189.77 L841.03,227.59 L870.69,236.32 L900.34,120.93 L930.00,302.25" fill="none" stroke="#60a5fa" stroke-width="2.2" stroke-linecap="round" />
<circle cx="70.00" cy="216.92" r="3" fill="#60a5fa" stroke="#0f172a" stroke-width="1" />
<text x="70.00" y="206.92" fill="#e2e8f0" font-size="9" text-anchor="middle">132</text>
<circle cx="99.66" cy="265.40" r="3" fill="#60a5fa" stroke="#0f172a" stroke-width="1" />
<text x="99.66" y="245.40" fill="#e2e8f0" font-size="9" text-anchor="middle">82</text>
<circle cx="129.31" cy="233.41" r="3" fill="#60a5fa" stroke="#0f172a" stroke-width="1" />
<text x="129.31" y="223.41" fill="#e2e8f0" font-size="9" text-anchor="middle">115</text>
<circle cx="158.97" cy="216.92" r="3" fill="#60a5fa" stroke="#0f172a" stroke-width="1" />
<text x="158.97" y="196.92" fill="#e2e8f0" font-size="9" text-anchor="middle">132</text>
<circle cx="188.62" cy="191.71" r="3" fill="#60a5fa" stroke="#0f172a" stroke-width="1" />
<text x="188.62" y="181.71" fill="#e2e8f0" font-size="9" text-anchor="middle">158</text>
<circle cx="218.28" cy="180.08" r="3" fill="#60a5fa" stroke="#0f172a" stroke-width="1" />
<text x="218.28" y="160.08" fill="#e2e8f0" font-size="9" text-anchor="middle">170</text>
<circle cx="247.93" cy="199.47" r="3" fill="#60a5fa" stroke="#0f172a" stroke-width="1" />
<text x="247.93" y="189.47" fill="#e2e8f0" font-size="9" text-anchor="middle">150</text>
<circle cx="277.59" cy="94.75" r="3" fill="#60a5fa" stroke="#0f172a" stroke-width="1" />
<text x="277.59" y="108.75" fill="#e2e8f0" font-size="9" text-anchor="middle">258</text>
<circle cx="307.24" cy="192.68" r="3" fill="#60a5fa" stroke="#0f172a" stroke-width="1" />
<text x="307.24" y="182.68" fill="#e2e8f0" font-size="9" text-anchor="middle">157</text>
<circle cx="336.90" cy="213.04" r="3" fill="#60a5fa" stroke="#0f172a" stroke-width="1" />
<text x="336.90" y="193.04" fill="#e2e8f0" font-size="9" text-anchor="middle">136</text>
<circle cx="366.55" cy="188.80" r="3" fill="#60a5fa" stroke="#0f172a" stroke-width="1" />
<text x="366.55" y="178.80" fill="#e2e8f0" font-size="9" text-anchor="middle">161</text>
<circle cx="396.21" cy="210.14" r="3" fill="#60a5fa" stroke="#0f172a" stroke-width="1" />
<text x="396.21" y="190.14" fill="#e2e8f0" font-size="9" text-anchor="middle">139</text>
<circle cx="425.86" cy="187.83" r="3" fill="#60a5fa" stroke="#0f172a" stroke-width="1" />
<text x="425.86" y="177.83" fill="#e2e8f0" font-size="9" text-anchor="middle">162</text>
<circle cx="455.52" cy="246.01" r="3" fill="#60a5fa" stroke="#0f172a" stroke-width="1" />
<text x="455.52" y="226.01" fill="#e2e8f0" font-size="9" text-anchor="middle">102</text>
<circle cx="485.17" cy="270.25" r="3" fill="#60a5fa" stroke="#0f172a" stroke-width="1" />
<text x="485.17" y="260.25" fill="#e2e8f0" font-size="9" text-anchor="middle">77</text>
<circle cx="514.83" cy="222.74" r="3" fill="#60a5fa" stroke="#0f172a" stroke-width="1" />
<text x="514.83" y="202.74" fill="#e2e8f0" font-size="9" text-anchor="middle">126</text>
<circle cx="544.48" cy="220.80" r="3" fill="#60a5fa" stroke="#0f172a" stroke-width="1" />
<text x="544.48" y="210.80" fill="#e2e8f0" font-size="9" text-anchor="middle">128</text>
<circle cx="574.14" cy="194.62" r="3" fill="#60a5fa" stroke="#0f172a" stroke-width="1" />
<text x="574.14" y="174.62" fill="#e2e8f0" font-size="9" text-anchor="middle">155</text>
<circle cx="603.79" cy="196.56" r="3" fill="#60a5fa" stroke="#0f172a" stroke-width="1" />
<text x="603.79" y="186.56" fill="#e2e8f0" font-size="9" text-anchor="middle">153</text>
<circle cx="633.45" cy="192.68" r="3" fill="#60a5fa" stroke="#0f172a" stroke-width="1" />
<text x="633.45" y="172.68" fill="#e2e8f0" font-size="9" text-anchor="middle">157</text>
<circle cx="663.10" cy="163.59" r="3" fill="#60a5fa" stroke="#0f172a" stroke-width="1" />
<text x="663.10" y="153.59" fill="#e2e8f0" font-size="9" text-anchor="middle">187</text>
<circle cx="692.76" cy="176.20" r="3" fill="#60a5fa" stroke="#0f172a" stroke-width="1" />
<text x="692.76" y="156.20" fill="#e2e8f0" font-size="9" text-anchor="middle">174</text>
<circle cx="722.41" cy="181.05" r="3" fill="#60a5fa" stroke="#0f172a" stroke-width="1" />
<text x="722.41" y="171.05" fill="#e2e8f0" font-size="9" text-anchor="middle">169</text>
<circle cx="752.07" cy="192.68" r="3" fill="#60a5fa" stroke="#0f172a" stroke-width="1" />
<text x="752.07" y="172.68" fill="#e2e8f0" font-size="9" text-anchor="middle">157</text>
<circle cx="781.72" cy="242.13" r="3" fill="#60a5fa" stroke="#0f172a" stroke-width="1" />
<text x="781.72" y="232.13" fill="#e2e8f0" font-size="9" text-anchor="middle">106</text>
<circle cx="811.38" cy="189.77" r="3" fill="#60a5fa" stroke="#0f172a" stroke-width="1" />
<text x="811.38" y="169.77" fill="#e2e8f0" font-size="9" text-anchor="middle">160</text>
<circle cx="841.03" cy="227.59" r="3" fill="#60a5fa" stroke="#0f172a" stroke-width="1" />
<text x="841.03" y="217.59" fill="#e2e8f0" font-size="9" text-anchor="middle">121</text>
<circle cx="870.69" cy="236.32" r="3" fill="#60a5fa" stroke="#0f172a" stroke-width="1" />
<text x="870.69" y="216.32" fill="#e2e8f0" font-size="9" text-anchor="middle">112</text>
<circle cx="900.34" cy="120.93" r="3" fill="#60a5fa" stroke="#0f172a" stroke-width="1" />
<text x="900.34" y="110.93" fill="#e2e8f0" font-size="9" text-anchor="middle">231</text>
<circle cx="930.00" cy="302.25" r="3" fill="#60a5fa" stroke="#0f172a" stroke-width="1" />
<text x="930.00" y="282.25" fill="#e2e8f0" font-size="9" text-anchor="middle">44</text>
<text x="70" y="403" fill="#e2e8f0" font-size="13" font-weight="600">本年核心指标趋势（滑动7日窗口平均）</text>
<line x1="70" y1="656.00" x2="930" y2="656.00" stroke="#94a3b8" stroke-opacity="0.18" stroke-width="1" />
<text x="62" y="660.00" fill="#cbd5f5" font-size="10" text-anchor="end">-17.7</text>
<line x1="70" y1="593.75" x2="930" y2="593.75" stroke="#94a3b8" stroke-opacity="0.18" stroke-width="1" />
<text x="62" y="597.75" fill="#cbd5f5" font-size="10" text-anchor="end">38.4</text>
<line x1="70" y1="531.50" x2="930" y2="531.50" stroke="#94a3b8" stroke-opacity="0.18" stroke-width="1" />
<text x="62" y="535.50" fill="#cbd5f5" font-size="10" text-anchor="end">94.4</text>
<line x1="70" y1="469.25" x2="930" y2="469.25" stroke="#94a3b8" stroke-opacity="0.18" stroke-width="1" />
<text x="62" y="473.25" fill="#cbd5f5" font-size="10" text-anchor="end">150.5</text>
<line x1="70" y1="407.00" x2="930" y2="407.00" stroke="#94a3b8" stroke-opacity="0.18" stroke-width="1" />
<text x="62" y="411.00" fill="#cbd5f5" font-size="10" text-anchor="end">206.5</text>
<line x1="70.00" y1="656" x2="70.00" y2="660" stroke="#94a3b8" stroke-opacity="0.5" stroke-width="1" />
<text x="70.00" y="674" fill="#cbd5f5" font-size="10" text-anchor="middle">2025-01</text>
<line x1="242.00" y1="656" x2="242.00" y2="660" stroke="#94a3b8" stroke-opacity="0.5" stroke-width="1" />
<text x="242.00" y="674" fill="#cbd5f5" font-size="10" text-anchor="middle">2025-03</text>
<line x1="414.00" y1="656" x2="414.00" y2="660" stroke="#94a3b8" stroke-opacity="0.5" stroke-width="1" />
<text x="414.00" y="674" fill="#cbd5f5" font-size="10" text-anchor="middle">2025-06</text>
<line x1="586.00" y1="656" x2="586.00" y2="660" stroke="#94a3b8" stroke-opacity="0.5" stroke-width="1" />
<text x="586.00" y="674" fill="#cbd5f5" font-size="10" text-anchor="middle">2025-08</text>
<line x1="758.00" y1="656" x2="758.00" y2="660" stroke="#94a3b8" stroke-opacity="0.5" stroke-width="1" />
<text x="758.00" y="674" fill="#cbd5f5" font-size="10" text-anchor="middle">2025-10</text>
<line x1="930.00" y1="656" x2="930.00" y2="660" stroke="#94a3b8" stroke-opacity="0.5" stroke-width="1" />
<text x="930.00" y="674" fill="#cbd5f5" font-size="10" text-anchor="middle">2025-12</text>
<line x1="70" y1="407" x2="70" y2="656" stroke="#94a3b8" stroke-width="1" />
<line x1="70" y1="656" x2="930" y2="656" stroke="#94a3b8" stroke-width="1" />
<path d="M70.00,656.00 L70.00,635.25 L72.59,559.18 L75.18,550.48 L77.77,535.03 L80.36,546.19 L82.95,532.35 L85.54,524.20 L88.13,513.89 L90.72,498.66 L93.31,481.69 L95.90,501.20 L98.49,487.08 L101.08,487.24 L103.67,489.46 L106.27,489.30 L108.86,514.21 L111.45,528.17 L114.04,518.81 L116.63,518.17 L119.22,530.55 L121.81,535.47 L124.40,531.34 L126.99,524.68 L129.58,531.50 L132.17,516.43 L134.76,521.66 L137.35,517.06 L139.94,508.81 L142.53,509.45 L145.12,502.47 L147.71,495.49 L150.30,502.79 L152.89,500.09 L155.48,498.66 L158.07,504.53 L160.66,497.55 L163.25,506.12 L165.84,502.94 L168.43,478.20 L171.02,484.86 L173.61,480.58 L176.20,478.51 L178.80,462.17 L181.39,450.12 L183.98,427.75 L186.57,456.94 L189.16,452.81 L191.75,452.02 L194.34,449.32 L196.93,465.66 L199.52,479.63 L202.11,509.45 L204.70,504.37 L207.29,506.44 L209.88,515.16 L212.47,515.16 L215.06,513.57 L217.65,512.15 L220.24,501.52 L222.83,492.47 L225.42,490.73 L228.01,486.29 L230.60,491.84 L233.19,480.58 L235.78,476.29 L238.37,482.64 L240.96,496.28 L243.55,490.57 L246.14,485.02 L248.73,478.04 L251.33,486.61 L253.92,470.42 L256.51,439.97 L259.10,436.63 L261.69,442.03 L264.28,443.61 L266.87,441.23 L269.46,441.87 L272.05,454.08 L274.64,492.32 L277.23,498.03 L279.82,490.10 L282.41,492.00 L285.00,495.33 L287.59,494.22 L290.18,500.09 L292.77,473.28 L295.36,472.01 L297.95,479.63 L300.54,484.07 L303.13,482.64 L305.72,484.23 L308.31,479.63 L310.90,495.01 L313.49,491.21 L316.08,491.52 L318.67,479.47 L321.27,477.25 L323.86,492.16 L326.45,487.72 L329.04,467.73 L331.63,451.07 L334.22,442.34 L336.81,457.57 L339.40,466.78 L341.99,449.32 L344.58,464.24 L347.17,481.21 L349.76,476.13 L352.35,481.37 L354.94,473.12 L357.53,468.52 L360.12,469.31 L362.71,462.65 L365.30,474.07 L367.89,499.93 L370.48,502.94 L373.07,505.17 L375.66,507.86 L378.25,514.68 L380.84,513.26 L383.43,496.92 L386.02,490.89 L388.61,484.07 L391.20,485.97 L393.80,485.81 L396.39,489.46 L398.98,488.19 L401.57,508.18 L404.16,512.62 L406.75,486.45 L409.34,486.92 L411.93,487.87 L414.52,486.76 L417.11,498.66 L419.70,495.33 L422.29,497.71 L424.88,530.39 L427.47,531.66 L430.06,528.01 L432.65,524.20 L435.24,504.53 L437.83,497.71 L440.42,489.94 L443.01,489.94 L445.60,492.47 L448.19,497.08 L450.78,494.06 L453.37,501.36 L455.96,491.21 L458.55,486.45 L461.14,489.30 L463.73,475.34 L466.33,472.01 L468.92,473.76 L471.51,482.96 L474.10,483.59 L476.69,493.90 L479.28,491.52 L481.87,488.19 L484.46,494.54 L487.05,501.36 L489.64,504.85 L492.23,521.03 L494.82,522.14 L497.41,525.95 L500.00,535.78 L502.59,531.34 L505.18,529.60 L507.77,526.26 L510.36,508.18 L512.95,499.61 L515.54,492.79 L518.13,497.39 L520.72,499.93 L523.31,495.96 L525.90,494.70 L528.49,503.10 L531.08,518.65 L533.67,520.55 L536.27,516.27 L538.86,521.19 L541.45,515.79 L544.04,509.77 L546.63,503.90 L549.22,504.85 L551.81,511.99 L554.40,515.79 L556.99,512.94 L559.58,520.40 L562.17,528.80 L564.76,532.93 L567.35,519.13 L569.94,518.97 L572.53,520.24 L575.12,514.68 L577.71,520.71 L580.30,510.88 L582.89,518.65 L585.48,522.46 L588.07,523.09 L590.66,528.17 L593.25,533.09 L595.84,525.15 L598.43,536.26 L601.02,534.51 L603.61,536.26 L606.20,529.44 L608.80,522.93 L611.39,530.55 L613.98,528.17 L616.57,519.13 L619.16,468.84 L642.47,472.96 L645.06,469.79 L647.65,467.89 L650.24,460.11 L652.83,455.04 L655.42,445.83 L658.01,504.53 L660.60,502.94 L663.19,504.69 L665.78,508.02 L668.37,503.74 L670.96,514.05 L673.55,514.53 L676.14,511.51 L678.73,506.91 L681.33,500.57 L683.92,499.61 L686.51,498.19 L689.10,493.43 L691.69,512.94 L694.28,513.57 L696.87,512.78 L699.46,510.24 L702.05,521.35 L704.64,523.73 L707.23,520.24 L709.82,518.02 L712.41,498.34 L715.00,496.12 L717.59,502.47 L720.18,497.23 L722.77,509.29 L725.36,516.27 L727.95,517.54 L730.54,542.92 L733.13,535.78 L735.72,520.08 L738.31,503.58 L740.90,492.00 L743.49,493.90 L746.08,481.85 L748.67,473.76 L751.27,476.29 L753.86,490.89 L756.45,491.52 L759.04,479.31 L761.63,481.37 L764.22,476.61 L766.81,475.98 L769.40,475.50 L771.99,475.82 L774.58,472.64 L777.17,486.61 L779.76,470.42 L782.35,466.14 L784.94,469.47 L787.53,474.55 L790.12,476.13 L792.71,482.64 L795.30,482.00 L797.89,496.12 L800.48,497.55 L803.07,482.80 L805.66,486.61 L808.25,480.58 L810.84,478.67 L813.43,478.20 L816.02,467.89 L818.61,457.57 L821.20,470.27 L823.80,465.82 L826.39,476.29 L828.98,483.75 L831.57,485.34 L834.16,500.88 L836.75,530.39 L839.34,533.40 L841.93,533.88 L844.52,532.77 L847.11,526.58 L849.70,521.82 L852.29,511.99 L854.88,502.15 L857.47,500.25 L860.06,501.20 L862.65,496.92 L865.24,495.49 L867.83,489.62 L870.42,487.40 L873.01,467.41 L875.60,455.51 L878.19,452.18 L880.78,447.58 L883.37,450.59 L885.96,451.86 L888.55,459.48 L891.14,488.19 L893.73,493.11 L896.33,494.38 L898.92,495.33 L901.51,493.11 L904.10,493.90 L906.69,480.42 L909.28,465.03 L911.87,458.21 L914.46,453.61 L917.05,461.38 L919.64,460.27 L922.23,465.98 L924.82,477.88 L927.41,468.84 L930.00,488.67 L930.00,656.00 Z" fill="#60a5fa" fill-opacity="0.16" stroke="none" />
<path d="M70.00,635.25 L72.59,559.18 L75.18,550.48 L77.77,535.03 L80.36,546.19 L82.95,532.35 L85.54,524.20 L88.13,513.89 L90.72,498.66 L93.31,481.69 L95.90,501.20 L98.49,487.08 L101.08,487.24 L103.67,489.46 L106.27,489.30 L108.86,514.21 L111.45,528.17 L114.04,518.81 L116.63,518.17 L119.22,530.55 L121.81,535.47 L124.40,531.34 L126.99,524.68 L129.58,531.50 L132.17,516.43 L134.76,521.66 L137.35,517.06 L139.94,508.81 L142.53,509.45 L145.12,502.47 L147.71,495.49 L150.30,502.79 L152.89,500.09 L155.48,498.66 L158.07,504.53 L160.66,497.55 L163.25,506.12 L165.84,502.94 L168.43,478.20 L171.02,484.86 L173.61,480.58 L176.20,478.51 L178.80,462.17 L181.39,450.12 L183.98,427.75 L186.57,456.94 L189.16,452.81 L191.75,452.02 L194.34,449.32 L196.93,465.66 L199.52,479.63 L202.11,509.45 L204.70,504.37 L207.29,506.44 L209.88,515.16 L212.47,515.16 L215.06,513.57 L217.65,512.15 L220.24,501.52 L222.83,492.47 L225.42,490.73 L228.01,486.29 L230.60,491.84 L233.19,480.58 L235.78,476.29 L238.37,482.64 L240.96,496.28 L243.55,490.57 L246.14,485.02 L248.73,478.04 L251.33,486.61 L253.92,470.42 L256.51,439.97 L259.10,436.63 L261.69,442.03 L264.28,443.61 L266.87,441.23 L269.46,441.87 L272.05,454.08 L274.64,492.32 L277.23,498.03 L279.82,490.10 L282.41,492.00 L285.00,495.33 L287.59,494.22 L290.18,500.09 L292.77,473.28 L295.36,472.01 L297.95,479.63 L300.54,484.07 L303.13,482.64 L305.72,484.23 L308.31,479.63 L310.90,495.01 L313.49,491.21 L316.08,491.52 L318.67,479.47 L321.27,477.25 L323.86,492.16 L326.45,487.72 L329.04,467.73 L331.63,451.07 L334.22,442.34 L336.81,457.57 L339.40,466.78 L341.99,449.32 L344.58,464.24 L347.17,481.21 L349.76,476.13 L352.35,481.37 L354.94,473.12 L357.53,468.52 L360.12,469.31 L362.71,462.65 L365.30,474.07 L367.89,499.93 L370.48,502.94 L373.07,505.17 L375.66,507.86 L378.25,514.68 L380.84,513.26 L383.43,496.92 L386.02,490.89 L388.61,484.07 L391.20,485.97 L393.80,485.81 L396.39,489.46 L398.98,488.19 L401.57,508.18 L404.16,512.62 L406.75,486.45 L409.34,486.92 L411.93,487.87 L414.52,486.76 L417.11,498.66 L419.70,495.33 L422.29,497.71 L424.88,530.39 L427.47,531.66 L430.06,528.01 L432.65,524.20 L435.24,504.53 L437.83,497.71 L440.42,489.94 L443.01,489.94 L445.60,492.47 L448.19,497.08 L450.78,494.06 L453.37,501.36 L455.96,491.21 L458.55,486.45 L461.14,489.30 L463.73,475.34 L466.33,472.01 L468.92,473.76 L471.51,482.96 L474.10,483.59 L476.69,493.90 L479.28,491.52 L481.87,488.19 L484.46,494.54 L487.05,501.36 L489.64,504.85 L492.23,521.03 L494.82,522.14 L497.41,525.95 L500.00,535.78 L502.59,531.34 L505.18,529.60 L507.77,526.26 L510.36,508.18 L512.95,499.61 L515.54,492.79 L518.13,497.39 L520.72,499.93 L523.31,495.96 L525.90,494.70 L528.49,503.10 L531.08,518.65 L533.67,520.55 L536.27,516.27 L538.86,521.19 L541.45,515.79 L544.04,509.77 L546.63,503.90 L549.22,504.85 L551.81,511.99 L554.40,515.79 L556.99,512.94 L559.58,520.40 L562.17,528.80 L564.76,532.93 L567.35,519.13 L569.94,518.97 L572.53,520.24 L575.12,514.68 L577.71,520.71 L580.30,510.88 L582.89,518.65 L585.48,522.46 L588.07,523.09 L590.66,528.17 L593.25,533.09 L595.84,525.15 L598.43,536.26 L601.02,534.51 L603.61,536.26 L606.20,529.44 L608.80,522.93 L611.39,530.55 L613.98,528.17 L616.57,519.13 L619.16,468.84 L642.47,472.96 L645.06,469.79 L647.65,467.89 L650.24,460.11 L652.83,455.04 L655.42,445.83 L658.01,504.53 L660.60,502.94 L663.19,504.69 L665.78,508.02 L668.37,503.74 L670.96,514.05 L673.55,514.53 L676.14,511.51 L678.73,506.91 L681.33,500.57 L683.92,499.61 L686.51,498.19 L689.10,493.43 L691.69,512.94 L694.28,513.57 L696.87,512.78 L699.46,510.24 L702.05,521.35 L704.64,523.73 L707.23,520.24 L709.82,518.02 L712.41,498.34 L715.00,496.12 L717.59,502.47 L720.18,497.23 L722.77,509.29 L725.36,516.27 L727.95,517.54 L730.54,542.92 L733.13,535.78 L735.72,520.08 L738.31,503.58 L740.90,492.00 L743.49,493.90 L746.08,481.85 L748.67,473.76 L751.27,476.29 L753.86,490.89 L756.45,491.52 L759.04,479.31 L761.63,481.37 L764.22,476.61 L766.81,475.98 L769.40,475.50 L771.99,475.82 L774.58,472.64 L777.17,486.61 L779.76,470.42 L782.35,466.14 L784.94,469.47 L787.53,474.55 L790.12,476.13 L792.71,482.64 L795.30,482.00 L797.89,496.12 L800.48,497.55 L803.07,482.80 L805.66,486.61 L808.25,480.58 L810.84,478.67 L813.43,478.20 L816.02,467.89 L818.61,457.57 L821.20,470.27 L823.80,465.82 L826.39,476.29 L828.98,483.75 L831.57,485.34 L834.16,500.88 L836.75,530.39 L839.34,533.40 L841.93,533.88 L844.52,532.77 L847.11,526.58 L849.70,521.82 L852.29,511.99 L854.88,502.15 L857.47,500.25 L860.06,501.20 L862.65,496.92 L865.24,495.49 L867.83,489.62 L870.42,487.40 L873.01,467.41 L875.60,455.51 L878.19,452.18 L880.78,447.58 L883.37,450.59 L885.96,451.86 L888.55,459.48 L891.14,488.19 L893.73,493.11 L896.33,494.38 L898.92,495.33 L901.51,493.11 L904.10,493.90 L906.69,480.42 L909.28,465.03 L911.87,458.21 L914.46,453.61 L917.05,461.38 L919.64,460.27 L922.23,465.98 L924.82,477.88 L927.41,468.84 L930.00,488.67" fill="none" stroke="#60a5fa" stroke-width="2.2" stroke-linecap="round" />
</svg>
