<svg xmlns="http://www.w3.org/2000/svg" viewBox="0 0 960 720" width="960" height="720">
<rect width="960" height="720" fill="#0f172a" />
<text x="480" y="28" fill="#e2e8f0" font-size="16" font-weight="700" text-anchor="middle">锻炼时长趋势图</text>
<text x="70" y="70" fill="#e2e8f0" font-size="13" font-weight="600">本月分天指标明细</text>
<line x1="70" y1="323.00" x2="930" y2="323.00" stroke="#94a3b8" stroke-opacity="0.18" stroke-width="1" />
<text x="62" y="327.00" fill="#cbd5f5" font-size="10" text-anchor="end">0.3</text>
<line x1="70" y1="260.75" x2="930" y2="260.75" stroke="#94a3b8" stroke-opacity="0.18" stroke-width="1" />
<text x="62" y="264.75" fill="#cbd5f5" font-size="10" text-anchor="end">26.4</text>
<line x1="70" y1="198.50" x2="930" y2="198.50" stroke="#94a3b8" stroke-opacity="0.18" stroke-width="1" />
<text x="62" y="202.50" fill="#cbd5f5" font-size="10" text-anchor="end">52.5</text>
<line x1="70" y1="136.25" x2="930" y2="136.25" stroke="#94a3b8" stroke-opacity="0.18" stroke-width="1" />
<text x="62" y="140.25" fill="#cbd5f5" font-size="10" text-anchor="end">78.6</text>
<line x1="70" y1="74.00" x2="930" y2="74.00" stroke="#94a3b8" stroke-opacity="0.18" stroke-width="1" />
<text x="62" y="78.00" fill="#cbd5f5" font-size="10" text-anchor="end">104.7</text>
<line x1="70.00" y1="323" x2="70.00" y2="327" stroke="#94a3b8" stroke-opacity="0.5" stroke-width="1" />
<text x="70.00" y="341" fill="#cbd5f5" font-size="10" text-anchor="middle">11-19</text>
<line x1="242.00" y1="323" x2="242.00" y2="327" stroke="#94a3b8" stroke-opacity="0.5" stroke-width="1" />
<text x="242.00" y="341" fill="#cbd5f5" font-size="10" text-anchor="middle">11-24</text>
<line x1="414.00" y1="323" x2="414.00" y2="327" stroke="#94a3b8" stroke-opacity="0.5" stroke-width="1" />
<text x="414.00" y="341" fill="#cbd5f5" font-size="10" text-anchor="middle">11-30</text>
<line x1="586.00" y1="323" x2="586.00" y2="327" stroke="#94a3b8" stroke-opacity="0.5" stroke-width="1" />
<text x="586.00" y="341" fill="#cbd5f5" font-size="10" text-anchor="middle">12-06</text>
<line x1="758.00" y1="323" x2="758.00" y2="327" stroke="#94a3b8" stroke-opacity="0.5" stroke-width="1" />
<text x="758.00" y="341" fill="#cbd5f5" font-size="10" text-anchor="middle">12-12</text>
<line x1="930.00" y1="323" x2="930.00" y2="327" stroke="#94a3b8" stroke-opacity="0.5" stroke-width="1" />
<text x="930.00" y="341" fill="#cbd5f5" font-size="10" text-anchor="middle">12-18</text>
<line x1="70" y1="74" x2="70" y2="323" stroke="#94a3b8" stroke-width="1" />
<line x1="70" y1="323" x2="930" y2="323" stroke="#94a3b8" stroke-width="1" />
<path d="M70.00,173.46 L99.66,240.24 L129.31,192.54 L158.97,94.75 L188.62,287.94 L218.28,242.62 L247.93,256.93 L277.59,185.38 L307.24,137.68 L336.90,287.94 L366.55,245.01 L396.21,290.32 L425.86,273.63 L455.52,178.23 L485.17,135.30 L514.83,233.08 L544.48,299.86 L574.14,287.94 L603.79,197.31 L633.45,180.61 L663.10,216.39 L692.76,266.47 L722.41,214.00 L752.07,254.55 L781.72,302.25 L811.38,276.01 L841.03,249.78 L870.69,194.92 L900.34,151.99 L930.00,173.46" fill="none" stroke="#34d399" stroke-width="2.2" stroke-linecap="round" />
<circle cx="70.00" cy="173.46" r="3" fill="#34d399" stroke="#0f172a" stroke-width="1" />
<text x="70.00" y="163.46" fill="#e2e8f0" font-size="9" text-anchor="middle">63</text>
<circle cx="99.66" cy="240.24" r="3" fill="#34d399" stroke="#0f172a" stroke-width="1" />
<text x="99.66" y="220.24" fill="#e2e8f0" font-size="9" text-anchor="middle">35</text>
<circle cx="129.31" cy="192.54" r="3" fill="#34d399" stroke="#0f172a" stroke-width="1" />
<text x="129.31" y="182.54" fill="#e2e8f0" font-size="9" text-anchor="middle">55</text>
<circle cx="158.97" cy="94.75" r="3" fill="#34d399" stroke="#0f172a" stroke-width="1" />
<text x="158.97" y="108.75" fill="#e2e8f0" font-size="9" text-anchor="middle">96</text>
<circle cx="188.62" cy="287.94" r="3" fill="#34d399" stroke="#0f172a" stroke-width="1" />
<text x="188.62" y="277.94" fill="#e2e8f0" font-size="9" text-anchor="middle">15</text>
<circle cx="218.28" cy="242.62" r="3" fill="#34d399" stroke="#0f172a" stroke-width="1" />
<text x="218.28" y="222.62" fill="#e2e8f0" font-size="9" text-anchor="middle">34</text>
<circle cx="247.93" cy="256.93" r="3" fill="#34d399" stroke="#0f172a" stroke-width="1" />
<text x="247.93" y="246.93" fill="#e2e8f0" font-size="9" text-anchor="middle">28</text>
<circle cx="277.59" cy="185.38" r="3" fill="#34d399" stroke="#0f172a" stroke-width="1" />
<text x="277.59" y="165.38" fill="#e2e8f0" font-size="9" text-anchor="middle">58</text>
<circle cx="307.24" cy="137.68" r="3" fill="#34d399" stroke="#0f172a" stroke-width="1" />
<text x="307.24" y="127.68" fill="#e2e8f0" font-size="9" text-anchor="middle">78</text>
<circle cx="336.90" cy="287.94" r="3" fill="#34d399" stroke="#0f172a" stroke-width="1" />
<text x="336.90" y="267.94" fill="#e2e8f0" font-size="9" text-anchor="middle">15</text>
<circle cx="366.55" cy="245.01" r="3" fill="#34d399" stroke="#0f172a" stroke-width="1" />
<text x="366.55" y="235.01" fill="#e2e8f0" font-size="9" text-anchor="middle">33</text>
<circle cx="396.21" cy="290.32" r="3" fill="#34d399" stroke="#0f172a" stroke-width="1" />
<text x="396.21" y="270.32" fill="#e2e8f0" font-size="9" text-anchor="middle">14</text>
<circle cx="425.86" cy="273.63" r="3" fill="#34d399" stroke="#0f172a" stroke-width="1" />
<text x="425.86" y="263.63" fill="#e2e8f0" font-size="9" text-anchor="middle">21</text>
<circle cx="455.52" cy="178.23" r="3" fill="#34d399" stroke="#0f172a" stroke-width="1" />
<text x="455.52" y="158.23" fill="#e2e8f0" font-size="9" text-anchor="middle">61</text>
<circle cx="485.17" cy="135.30" r="3" fill="#34d399" stroke="#0f172a" stroke-width="1" />
<text x="485.17" y="125.30" fill="#e2e8f0" font-size="9" text-anchor="middle">79</text>
<circle cx="514.83" cy="233.08" r="3" fill="#34d399" stroke="#0f172a" stroke-width="1" />
<text x="514.83" y="213.08" fill="#e2e8f0" font-size="9" text-anchor="middle">38</text>
<circle cx="544.48" cy="299.86" r="3" fill="#34d399" stroke="#0f172a" stroke-width="1" />
<text x="544.48" y="289.86" fill="#e2e8f0" font-size="9" text-anchor="middle">10</text>
<circle cx="574.14" cy="287.94" r="3" fill="#34d399" stroke="#0f172a" stroke-width="1" />
<text x="574.14" y="267.94" fill="#e2e8f0" font-size="9" text-anchor="middle">15</text>
<circle cx="603.79" cy="197.31" r="3" fill="#34d399" stroke="#0f172a" stroke-width="1" />
<text x="603.79" y="187.31" fill="#e2e8f0" font-size="9" text-anchor="middle">53</text>
<circle cx="633.45" cy="180.61" r="3" fill="#34d399" stroke="#0f172a" stroke-width="1" />
<text x="633.45" y="160.61" fill="#e2e8f0" font-size="9" text-anchor="middle">60</text>
<circle cx="663.10" cy="216.39" r="3" fill="#34d399" stroke="#0f172a" stroke-width="1" />
<text x="663.10" y="206.39" fill="#e2e8f0" font-size="9" text-anchor="middle">45</text>
<circle cx="692.76" cy="266.47" r="3" fill="#34d399" stroke="#0f172a" stroke-width="1" />
<text x="692.76" y="246.47" fill="#e2e8f0" font-size="9" text-anchor="middle">24</text>
<circle cx="722.41" cy="214.00" r="3" fill="#34d399" stroke="#0f172a" stroke-width="1" />
<text x="722.41" y="204.00" fill="#e2e8f0" font-size="9" text-anchor="middle">46</text>
<circle cx="752.07" cy="254.55" r="3" fill="#34d399" stroke="#0f172a" stroke-width="1" />
<text x="752.07" y="234.55" fill="#e2e8f0" font-size="9" text-anchor="middle">29</text>
<circle cx="781.72" cy="302.25" r="3" fill="#34d399" stroke="#0f172a" stroke-width="1" />
<text x="781.72" y="292.25" fill="#e2e8f0" font-size="9" text-anchor="middle">9</text>
<circle cx="811.38" cy="276.01" r="3" fill="#34d399" stroke="#0f172a" stroke-width="1" />
<text x="811.38" y="256.01" fill="#e2e8f0" font-size="9" text-anchor="middle">20</text>
<circle cx="841.03" cy="249.78" r="3" fill="#34d399" stroke="#0f172a" stroke-width="1" />
<text x="841.03" y="239.78" fill="#e2e8f0" font-size="9" text-anchor="middle">31</text>
<circle cx="870.69" cy="194.92" r="3" fill="#34d399" stroke="#0f172a" stroke-width="1" />
<text x="870.69" y="174.92" fill="#e2e8f0" font-size="9" text-anchor="middle">54</text>
<circle cx="900.34" cy="151.99" r="3" fill="#34d399" stroke="#0f172a" stroke-width="1" />
<text x="900.34" y="141.99" fill="#e2e8f0" font-size="9" text-anchor="middle">72</text>
<circle cx="930.00" cy="173.46" r="3" fill="#34d399" stroke="#0f172a" stroke-width="1" />
<text x="930.00" y="153.46" fill="#e2e8f0" font-size="9" text-anchor="middle">63</text>
<text x="70" y="403" fill="#e2e8f0" font-size="13" font-weight="600">本年核心指标趋势（滑动7日窗口平均）</text>
<line x1="70" y1="656.00" x2="930" y2="656.00" stroke="#94a3b8" stroke-opacity="0.18" stroke-width="1" />
<text x="62" y="660.00" fill="#cbd5f5" font-size="10" text-anchor="end">-10.6</text>
<line x1="70" y1="593.75" x2="930" y2="593.75" stroke="#94a3b8" stroke-opacity="0.18" stroke-width="1" />
<text x="62" y="597.75" fill="#cbd5f5" font-size="10" text-anchor="end">21.2</text>
<line x1="70" y1="531.50" x2="930" y2="531.50" stroke="#94a3b8" stroke-opacity="0.18" stroke-width="1" />
<text x="62" y="535.50" fill="#cbd5f5" font-size="10" text-anchor="end">53</text>
<line x1="70" y1="469.25" x2="930" y2="469.25" stroke="#94a3b8" stroke-opacity="0.18" stroke-width="1" />
<text x="62" y="473.25" fill="#cbd5f5" font-size="10" text-anchor="end">84.8</text>
<line x1="70" y1="407.00" x2="930" y2="407.00" stroke="#94a3b8" stroke-opacity="0.18" stroke-width="1" />
<text x="62" y="411.00" fill="#cbd5f5" font-size="10" text-anchor="end">116.6</text>
<line x1="70.00" y1="656" x2="70.00" y2="660" stroke="#94a3b8" stroke-opacity="0.5" stroke-width="1" />
<text x="70.00" y="674" fill="#cbd5f5" font-size="10" text-anchor="middle">2025-01</text>
<line x1="242.00" y1="656" x2="242.00" y2="660" stroke="#94a3b8" stroke-opacity="0.5" stroke-width="1" />
<text x="242.00" y="674" fill="#cbd5f5" font-size="10" text-anchor="middle">2025-03</text>
<line x1="414.00" y1="656" x2="414.00" y2="660" stroke="#94a3b8" stroke-opacity="0.5" stroke-width="1" />
<text x="414.00" y="674" fill="#cbd5f5" font-size="10" text-anchor="middle">2025-06</text>
<line x1="586.00" y1="656" x2="586.00" y2="660" stroke="#94a3b8" stroke-opacity="0.5" stroke-width="1" />
<text x="586.00" y="674" fill="#cbd5f5" font-size="10" text-anchor="middle">2025-08</text>
<line x1="758.00" y1="656" x2="758.00" y2="660" stroke="#94a3b8" stroke-opacity="0.5" stroke-width="1" />
<text x="758.00" y="674" fill="#cbd5f5" font-size="10" text-anchor="middle">2025-10</text>
<line x1="930.00" y1="656" x2="930.00" y2="660" stroke="#94a3b8" stroke-opacity="0.5" stroke-width="1" />
<text x="930.00" y="674" fill="#cbd5f5" font-size="10" text-anchor="middle">2025-12</text>
<line x1="70" y1="407" x2="70" y2="656" stroke="#94a3b8" stroke-width="1" />
<line x1="70" y1="656" x2="930" y2="656" stroke="#94a3b8" stroke-width="1" />
<path d="M70.00,656.00 L70.00,635.25 L72.61,594.14 L75.23,602.62 L77.84,602.95 L80.46,609.41 L83.07,607.52 L85.68,605.33 L88.30,605.33 L90.91,601.41 L93.53,589.39 L96.14,593.58 L98.75,584.91 L101.37,585.19 L103.98,586.87 L106.60,583.24 L109.21,596.10 L111.82,605.33 L114.44,602.81 L117.05,601.41 L119.67,600.85 L122.28,602.53 L124.89,596.10 L127.51,594.14 L130.12,596.10 L132.74,577.08 L135.35,580.44 L137.96,581.28 L140.58,563.66 L143.19,571.49 L145.81,563.94 L148.42,557.51 L151.03,560.58 L153.65,564.78 L156.26,557.79 L158.88,565.06 L161.49,553.87 L164.10,556.11 L166.72,561.14 L169.33,508.29 L171.95,504.93 L174.56,495.70 L177.17,501.86 L179.79,492.07 L182.40,487.87 L185.02,474.45 L187.63,544.36 L190.24,539.61 L192.86,544.64 L195.47,538.49 L198.09,556.67 L200.70,558.63 L203.31,574.29 L205.93,572.05 L208.54,577.92 L211.16,592.46 L213.77,587.99 L216.38,575.96 L219.00,577.08 L221.61,569.53 L224.22,555.55 L226.84,558.63 L229.45,544.92 L232.07,548.00 L234.68,540.73 L237.29,549.96 L239.91,552.75 L242.52,564.22 L245.14,548.00 L247.75,545.76 L250.36,543.52 L252.98,556.11 L255.59,541.01 L258.21,540.45 L260.82,543.25 L263.43,556.95 L266.05,559.46 L268.66,555.27 L271.28,546.32 L273.89,549.96 L276.50,553.87 L279.12,554.71 L281.73,538.49 L284.35,533.74 L286.96,533.18 L289.57,529.26 L292.19,521.15 L294.80,485.92 L297.42,480.60 L300.03,487.60 L302.64,504.37 L305.26,506.89 L307.87,510.25 L310.49,523.11 L313.10,548.00 L315.71,548.84 L318.33,556.11 L320.94,542.97 L323.56,553.87 L326.17,572.61 L328.78,567.57 L331.40,562.54 L334.01,559.19 L336.63,539.61 L339.24,554.15 L341.85,545.48 L344.47,530.38 L347.08,542.13 L349.70,542.41 L352.31,498.50 L354.92,513.04 L357.54,502.42 L360.15,508.01 L362.77,508.29 L365.38,504.37 L367.99,519.20 L370.61,571.49 L373.22,570.65 L375.84,575.40 L378.45,573.73 L381.06,570.37 L383.68,573.45 L386.29,572.33 L388.91,572.05 L391.52,571.49 L394.13,573.17 L396.75,578.48 L399.36,592.18 L401.98,585.75 L404.59,582.96 L407.20,575.96 L409.82,468.30 L412.43,461.03 L415.05,456.27 L417.66,454.88 L420.27,459.63 L422.89,462.71 L425.50,464.94 L428.12,577.64 L430.73,581.00 L433.34,574.57 L435.96,567.57 L438.57,559.46 L441.19,561.98 L443.80,566.74 L446.41,567.57 L449.03,572.05 L451.64,577.64 L454.26,569.25 L456.87,563.10 L459.48,549.96 L462.10,530.10 L464.71,532.34 L467.33,512.48 L469.94,505.77 L472.55,506.61 L475.17,519.48 L477.78,515.56 L480.40,531.50 L483.01,528.42 L485.62,532.34 L488.24,546.88 L490.85,558.91 L493.47,560.58 L496.08,572.89 L498.69,572.33 L501.31,574.29 L503.92,580.44 L506.53,567.57 L509.15,560.02 L511.76,561.42 L514.38,558.63 L516.99,553.87 L519.60,542.97 L522.22,548.28 L524.83,562.26 L527.45,572.89 L530.06,565.90 L532.67,566.18 L535.29,575.13 L537.90,579.60 L540.52,571.49 L543.13,571.77 L545.74,560.02 L548.36,559.74 L550.97,553.03 L553.59,553.03 L556.20,561.14 L558.81,572.61 L561.43,567.57 L564.04,569.81 L566.66,568.69 L569.27,582.68 L571.88,572.05 L574.50,574.01 L577.11,576.80 L579.73,573.45 L582.34,586.31 L584.95,591.35 L587.57,585.47 L590.18,584.07 L592.80,582.40 L595.41,578.76 L598.02,585.75 L600.64,581.28 L603.25,575.13 L605.87,561.70 L608.48,554.43 L611.09,549.40 L613.71,548.00 L616.32,551.63 L618.94,559.46 L621.55,570.93 L624.16,461.03 L647.69,480.32 L650.30,479.76 L652.92,474.17 L655.53,462.15 L658.15,445.37 L660.76,427.75 L663.37,556.39 L665.99,556.11 L668.60,548.00 L671.22,552.19 L673.83,546.88 L676.44,543.52 L679.06,533.74 L681.67,532.62 L684.29,527.31 L686.90,530.38 L689.51,530.10 L692.13,531.78 L694.74,537.93 L697.36,563.94 L699.97,563.94 L702.58,565.90 L705.20,556.67 L707.81,565.62 L710.43,567.57 L713.04,566.46 L715.65,564.22 L718.27,550.24 L720.88,548.56 L723.50,553.31 L726.11,548.28 L728.72,563.66 L731.34,564.22 L733.95,566.74 L736.57,583.79 L739.18,583.51 L741.79,589.95 L744.41,592.74 L747.02,588.27 L749.64,600.57 L752.25,598.34 L754.86,586.87 L757.48,584.91 L760.09,587.71 L762.71,571.49 L765.32,556.67 L767.93,556.11 L770.55,530.38 L773.16,537.09 L775.78,523.95 L778.39,515.00 L781.00,515.56 L783.62,519.48 L786.23,517.24 L788.84,517.24 L791.46,513.88 L794.07,529.26 L796.69,537.37 L799.30,546.60 L801.91,545.76 L804.53,548.28 L807.14,566.18 L809.76,549.12 L812.37,550.24 L814.98,536.81 L817.60,528.14 L820.21,533.46 L822.83,529.82 L825.44,488.15 L828.05,509.41 L830.67,510.81 L833.28,530.10 L835.90,538.21 L838.51,544.08 L841.12,547.16 L843.74,598.06 L846.35,600.01 L848.97,599.18 L851.58,598.90 L854.19,591.62 L856.81,586.87 L859.42,575.68 L862.04,551.63 L864.65,550.24 L867.26,547.16 L869.88,544.08 L872.49,545.48 L875.11,533.46 L877.72,544.64 L880.33,562.26 L882.95,562.54 L885.56,566.18 L888.18,556.95 L890.79,551.08 L893.40,562.26 L896.02,563.66 L898.63,568.69 L901.25,557.79 L903.86,546.88 L906.47,551.36 L909.09,566.74 L911.70,564.50 L914.32,559.19 L916.93,560.86 L919.54,570.09 L922.16,578.20 L924.77,575.68 L927.39,562.26 L930.00,557.51 L930.00,656.00 Z" fill="#34d399" fill-opacity="0.16" stroke="none" />
<path d="M70.00,635.25 L72.61,594.14 L75.23,602.62 L77.84,602.95 L80.46,609.41 L83.07,607.52 L85.68,605.33 L88.30,605.33 L90.91,601.41 L93.53,589.39 L96.14,593.58 L98.75,584.91 L101.37,585.19 L103.98,586.87 L106.60,583.24 L109.21,596.10 L111.82,605.33 L114.44,602.81 L117.05,601.41 L119.67,600.85 L122.28,602.53 L124.89,596.10 L127.51,594.14 L130.12,596.10 L132.74,577.08 L135.35,580.44 L137.96,581.28 L140.58,563.66 L143.19,571.49 L145.81,563.94 L148.42,557.51 L151.03,560.58 L153.65,564.78 L156.26,557.79 L158.88,565.06 L161.49,553.87 L164.10,556.11 L166.72,561.14 L169.33,508.29 L171.95,504.93 L174.56,495.70 L177.17,501.86 L179.79,492.07 L182.40,487.87 L185.02,474.45 L187.63,544.36 L190.24,539.61 L192.86,544.64 L195.47,538.49 L198.09,556.67 L200.70,558.63 L203.31,574.29 L205.93,572.05 L208.54,577.92 L211.16,592.46 L213.77,587.99 L216.38,575.96 L219.00,577.08 L221.61,569.53 L224.22,555.55 L226.84,558.63 L229.45,544.92 L232.07,548.00 L234.68,540.73 L237.29,549.96 L239.91,552.75 L242.52,564.22 L245.14,548.00 L247.75,545.76 L250.36,543.52 L252.98,556.11 L255.59,541.01 L258.21,540.45 L260.82,543.25 L263.43,556.95 L266.05,559.46 L268.66,555.27 L271.28,546.32 L273.89,549.96 L276.50,553.87 L279.12,554.71 L281.73,538.49 L284.35,533.74 L286.96,533.18 L289.57,529.26 L292.19,521.15 L294.80,485.92 L297.42,480.60 L300.03,487.60 L302.64,504.37 L305.26,506.89 L307.87,510.25 L310.49,523.11 L313.10,548.00 L315.71,548.84 L318.33,556.11 L320.94,542.97 L323.56,553.87 L326.17,572.61 L328.78,567.57 L331.40,562.54 L334.01,559.19 L336.63,539.61 L339.24,554.15 L341.85,545.48 L344.47,530.38 L347.08,542.13 L349.70,542.41 L352.31,498.50 L354.92,513.04 L357.54,502.42 L360.15,508.01 L362.77,508.29 L365.38,504.37 L367.99,519.20 L370.61,571.49 L373.22,570.65 L375.84,575.40 L378.45,573.73 L381.06,570.37 L383.68,573.45 L386.29,572.33 L388.91,572.05 L391.52,571.49 L394.13,573.17 L396.75,578.48 L399.36,592.18 L401.98,585.75 L404.59,582.96 L407.20,575.96 L409.82,468.30 L412.43,461.03 L415.05,456.27 L417.66,454.88 L420.27,459.63 L422.89,462.71 L425.50,464.94 L428.12,577.64 L430.73,581.00 L433.34,574.57 L435.96,567.57 L438.57,559.46 L441.19,561.98 L443.80,566.74 L446.41,567.57 L449.03,572.05 L451.64,577.64 L454.26,569.25 L456.87,563.10 L459.48,549.96 L462.10,530.10 L464.71,532.34 L467.33,512.48 L469.94,505.77 L472.55,506.61 L475.17,519.48 L477.78,515.56 L480.40,531.50 L483.01,528.42 L485.62,532.34 L488.24,546.88 L490.85,558.91 L493.47,560.58 L496.08,572.89 L498.69,572.33 L501.31,574.29 L503.92,580.44 L506.53,567.57 L509.15,560.02 L511.76,561.42 L514.38,558.63 L516.99,553.87 L519.60,542.97 L522.22,548.28 L524.83,562.26 L527.45,572.89 L530.06,565.90 L532.67,566.18 L535.29,575.13 L537.90,579.60 L540.52,571.49 L543.13,571.77 L545.74,560.02 L548.36,559.74 L550.97,553.03 L553.59,553.03 L556.20,561.14 L558.81,572.61 L561.43,567.57 L564.04,569.81 L566.66,568.69 L569.27,582.68 L571.88,572.05 L574.50,574.01 L577.11,576.80 L579.73,573.45 L582.34,586.31 L584.95,591.35 L587.57,585.47 L590.18,584.07 L592.80,582.40 L595.41,578.76 L598.02,585.75 L600.64,581.28 L603.25,575.13 L605.87,561.70 L608.48,554.43 L611.09,549.40 L613.71,548.00 L616.32,551.63 L618.94,559.46 L621.55,570.93 L624.16,461.03 L647.69,480.32 L650.30,479.76 L652.92,474.17 L655.53,462.15 L658.15,445.37 L660.76,427.75 L663.37,556.39 L665.99,556.11 L668.60,548.00 L671.22,552.19 L673.83,546.88 L676.44,543.52 L679.06,533.74 L681.67,532.62 L684.29,527.31 L686.90,530.38 L689.51,530.10 L692.13,531.78 L694.74,537.93 L697.36,563.94 L699.97,563.94 L702.58,565.90 L705.20,556.67 L707.81,565.62 L710.43,567.57 L713.04,566.46 L715.65,564.22 L718.27,550.24 L720.88,548.56 L723.50,553.31 L726.11,548.28 L728.72,563.66 L731.34,564.22 L733.95,566.74 L736.57,583.79 L739.18,583.51 L741.79,589.95 L744.41,592.74 L747.02,588.27 L749.64,600.57 L752.25,598.34 L754.86,586.87 L757.48,584.91 L760.09,587.71 L762.71,571.49 L765.32,556.67 L767.93,556.11 L770.55,530.38 L773.16,537.09 L775.78,523.95 L778.39,515.00 L781.00,515.56 L783.62,519.48 L786.23,517.24 L788.84,517.24 L791.46,513.88 L794.07,529.26 L796.69,537.37 L799.30,546.60 L801.91,545.76 L804.53,548.28 L807.14,566.18 L809.76,549.12 L812.37,550.24 L814.98,536.81 L817.60,528.14 L820.21,533.46 L822.83,529.82 L825.44,488.15 L828.05,509.41 L830.67,510.81 L833.28,530.10 L835.90,538.21 L838.51,544.08 L841.12,547.16 L843.74,598.06 L846.35,600.01 L848.97,599.18 L851.58,598.90 L854.19,591.62 L856.81,586.87 L859.42,575.68 L862.04,551.63 L864.65,550.24 L867.26,547.16 L869.88,544.08 L872.49,545.48 L875.11,533.46 L877.72,544.64 L880.33,562.26 L882.95,562.54 L885.56,566.18 L888.18,556.95 L890.79,551.08 L893.40,562.26 L896.02,563.66 L898.63,568.69 L901.25,557.79 L903.86,546.88 L906.47,551.36 L909.09,566.74 L911.70,564.50 L914.32,559.19 L916.93,560.86 L919.54,570.09 L922.16,578.20 L924.77,575.68 L927.39,562.26 L930.00,557.51" fill="none" stroke="#34d399" stroke-width="2.2" stroke-linecap="round" />
</svg>
