<svg xmlns="http://www.w3.org/2000/svg" viewBox="0 0 960 640" width="960" height="640">
  <rect width="960" height="640" fill="#0f172a" />
  <line x1="40" y1="40.00" x2="920.00" y2="40.00" stroke="#94a3b8" stroke-opacity="0.18" stroke-width="1" /><line x1="40" y1="128.00" x2="920.00" y2="128.00" stroke="#94a3b8" stroke-opacity="0.18" stroke-width="1" /><line x1="40" y1="216.00" x2="920.00" y2="216.00" stroke="#94a3b8" stroke-opacity="0.18" stroke-width="1" /><line x1="40" y1="304.00" x2="920.00" y2="304.00" stroke="#94a3b8" stroke-opacity="0.18" stroke-width="1" />
  <line x1="40" y1="336.00" x2="920.00" y2="336.00" stroke="#94a3b8" stroke-opacity="0.18" stroke-width="1" /><line x1="40" y1="424.00" x2="920.00" y2="424.00" stroke="#94a3b8" stroke-opacity="0.18" stroke-width="1" /><line x1="40" y1="512.00" x2="920.00" y2="512.00" stroke="#94a3b8" stroke-opacity="0.18" stroke-width="1" /><line x1="40" y1="600.00" x2="920.00" y2="600.00" stroke="#94a3b8" stroke-opacity="0.18" stroke-width="1" />
  <line x1="40" y1="320.00" x2="920.00" y2="320.00" stroke="#1f2937" stroke-width="1" />
  <polyline points="40.00,198.98 70.34,222.32 100.69,217.94 131.03,223.78 161.38,296.71 191.72,248.57 222.07,223.78 252.41,185.86 282.76,168.35 313.10,197.52 343.45,40.00 373.79,187.31 404.14,217.94 434.48,181.48 464.83,213.57 495.17,180.02 525.52,267.54 555.86,304.00 586.21,232.53 616.55,229.61 646.90,190.23 677.24,193.15 707.59,187.31 737.93,143.56 768.28,162.52 798.62,169.81 828.97,187.31 859.31,261.70 889.66,182.94 920.00,241.28" fill="none" stroke="#60a5fa" stroke-width="2" stroke-linecap="round" stroke-linejoin="round" />
  <polyline points="40.00,600.00 42.74,503.22 45.48,492.15 48.22,472.49 50.97,486.69 53.71,469.08 56.45,458.72 59.19,445.60 61.93,426.22 64.67,404.62 67.41,429.45 70.16,411.49 72.90,411.69 75.64,414.51 78.38,414.31 81.12,446.00 83.86,463.76 86.60,451.85 89.35,451.05 92.09,466.79 94.83,473.05 97.57,467.80 100.31,459.32 103.05,468.00 105.79,448.83 108.54,455.49 111.28,449.63 114.02,439.14 116.76,439.94 119.50,431.06 122.24,422.18 124.98,431.47 127.73,428.04 130.47,426.22 133.21,433.69 135.95,424.81 138.69,435.71 141.43,431.67 144.17,400.18 146.92,408.66 149.66,403.21 152.40,400.59 155.14,379.80 157.88,364.46 160.62,336.00 163.36,373.14 166.11,367.89 168.85,366.88 171.59,363.45 174.33,384.24 177.07,402.00 179.81,439.94 182.55,433.49 185.30,436.11 188.04,447.21 190.78,447.21 193.52,445.19 196.26,443.38 199.00,429.85 201.74,418.35 204.49,416.13 207.23,410.48 209.97,417.54 212.71,403.21 215.45,397.76 218.19,405.83 220.93,423.19 223.68,415.93 226.42,408.86 229.16,399.98 231.90,410.88 234.64,390.29 237.38,351.54 240.12,347.30 242.87,354.17 245.61,356.18 248.35,353.16 251.09,353.96 253.83,369.50 256.57,418.15 259.31,425.41 262.06,415.32 264.80,417.74 267.54,421.98 270.28,420.57 273.02,428.04 275.76,393.93 278.50,392.31 281.25,402.00 283.99,407.65 286.73,405.83 289.47,407.85 292.21,402.00 294.95,421.58 297.69,416.73 300.44,417.14 303.18,401.80 305.92,398.97 308.66,417.94 311.40,412.29 314.14,386.86 316.88,365.67 319.63,354.57 322.37,373.94 325.11,385.65 327.85,363.45 330.59,382.42 333.33,404.02 336.07,397.56 338.82,404.22 341.56,393.72 344.30,387.87 347.04,388.88 349.78,380.40 352.52,394.94 355.26,427.83 358.01,431.67 360.75,434.50 363.49,437.93 366.23,446.61 368.97,444.79 371.71,424.00 374.45,416.33 377.20,407.65 379.94,410.07 382.68,409.87 385.42,414.51 388.16,412.90 390.90,438.33 393.64,443.98 396.39,410.68 399.13,411.28 401.87,412.50 404.61,411.08 407.35,426.22 410.09,421.98 412.83,425.01 415.58,466.59 418.32,468.20 421.06,463.56 423.80,458.72 426.54,433.69 429.28,425.01 432.02,415.12 434.77,415.12 437.51,418.35 440.25,424.20 442.99,420.37 445.73,429.65 448.47,416.73 451.21,410.68 453.96,414.31 456.70,396.55 459.44,392.31 462.18,394.53 464.92,406.24 467.66,407.05 470.40,420.17 473.15,417.14 475.89,412.90 478.63,420.97 481.37,429.65 484.11,434.09 486.85,454.68 489.60,456.09 492.34,460.94 495.08,473.45 497.82,467.80 500.56,465.58 503.30,461.34 506.04,438.33 508.79,427.43 511.53,418.75 514.27,424.61 517.01,427.83 519.75,422.79 522.49,421.17 525.23,431.87 527.98,451.65 530.72,454.07 533.46,448.62 536.20,454.88 538.94,448.02 541.68,440.35 544.42,432.88 547.17,434.09 549.91,443.17 552.65,448.02 555.39,444.39 558.13,453.87 560.87,464.57 563.61,469.82 566.36,452.26 569.10,452.06 571.84,453.67 574.58,446.61 577.32,454.28 580.06,441.76 582.80,451.65 585.55,456.50 588.29,457.30 591.03,463.76 593.77,470.02 596.51,459.93 599.25,474.06 601.99,471.83 604.74,474.06 607.48,465.38 610.22,457.10 612.96,466.79 615.70,463.76 618.44,452.26 621.18,388.28 623.93,393.52 626.67,389.49 629.41,387.06 632.15,377.17 634.89,370.72 637.63,359.01 640.37,433.69 643.12,431.67 645.86,433.89 648.60,438.13 651.34,432.68 654.08,445.80 656.82,446.40 659.56,442.57 662.31,436.72 665.05,428.64 667.79,427.43 670.53,425.61 673.27,419.56 676.01,444.39 678.75,445.19 681.50,444.18 684.24,440.95 686.98,455.08 689.72,458.11 692.46,453.67 695.20,450.84 697.94,425.82 700.69,422.99 703.43,431.06 706.17,424.40 708.91,439.74 711.65,448.62 714.39,450.24 717.13,482.53 719.88,473.45 722.62,453.47 725.36,432.48 728.10,417.74 730.84,420.17 733.58,404.83 736.32,394.53 739.07,397.76 741.81,416.33 744.55,417.14 747.29,401.60 750.03,404.22 752.77,398.17 755.51,397.36 758.26,396.75 761.00,397.16 763.74,393.12 766.48,410.88 769.22,390.29 771.96,384.84 774.70,389.08 777.45,395.54 780.19,397.56 782.93,405.83 785.67,405.03 788.41,422.99 791.15,424.81 793.89,406.04 796.64,410.88 799.38,403.21 802.12,400.79 804.86,400.18 807.60,387.06 810.34,373.94 813.08,390.09 815.83,384.44 818.57,397.76 821.31,407.25 824.05,409.27 826.79,429.05 829.53,466.59 832.27,470.42 835.02,471.03 837.76,469.61 840.50,461.74 843.24,455.69 845.98,443.17 848.72,430.66 851.46,428.24 854.21,429.45 856.95,424.00 859.69,422.18 862.43,414.72 865.17,411.89 867.91,386.46 870.65,371.32 873.40,367.08 876.14,361.23 878.88,365.06 881.62,366.68 884.36,376.37 887.10,412.90 889.84,419.16 892.59,420.77 895.33,421.98 898.07,419.16 900.81,420.17 903.55,403.01 906.29,383.43 909.03,374.75 911.78,368.90 914.52,378.79 917.26,377.38 920.00,384.84" fill="none" stroke="#60a5fa" stroke-width="2" stroke-linecap="round" stroke-linejoin="round" />
  
  
  </svg>