<svg xmlns="http://www.w3.org/2000/svg" viewBox="0 0 960 720" width="960" height="720">
<rect width="960" height="720" fill="#0f172a" />
<text x="480" y="28" fill="#e2e8f0" font-size="16" font-weight="700" text-anchor="middle">锻炼时长趋势图</text>
<text x="70" y="70" fill="#e2e8f0" font-size="13" font-weight="600">本月分天指标明细</text>
<line x1="70" y1="323.00" x2="930" y2="323.00" stroke="#94a3b8" stroke-opacity="0.18" stroke-width="1" />
<text x="62" y="327.00" fill="#cbd5f5" font-size="10" text-anchor="end">-9.6</text>
<line x1="70" y1="260.75" x2="930" y2="260.75" stroke="#94a3b8" stroke-opacity="0.18" stroke-width="1" />
<text x="62" y="264.75" fill="#cbd5f5" font-size="10" text-anchor="end">19.2</text>
<line x1="70" y1="198.50" x2="930" y2="198.50" stroke="#94a3b8" stroke-opacity="0.18" stroke-width="1" />
<text x="62" y="202.50" fill="#cbd5f5" font-size="10" text-anchor="end">48</text>
<line x1="70" y1="136.25" x2="930" y2="136.25" stroke="#94a3b8" stroke-opacity="0.18" stroke-width="1" />
<text x="62" y="140.25" fill="#cbd5f5" font-size="10" text-anchor="end">76.8</text>
<line x1="70" y1="74.00" x2="930" y2="74.00" stroke="#94a3b8" stroke-opacity="0.18" stroke-width="1" />
<text x="62" y="78.00" fill="#cbd5f5" font-size="10" text-anchor="end">105.6</text>
<line x1="70.00" y1="323" x2="70.00" y2="327" stroke="#94a3b8" stroke-opacity="0.5" stroke-width="1" />
<text x="70.00" y="341" fill="#cbd5f5" font-size="10" text-anchor="middle">11-22</text>
<line x1="242.00" y1="323" x2="242.00" y2="327" stroke="#94a3b8" stroke-opacity="0.5" stroke-width="1" />
<text x="242.00" y="341" fill="#cbd5f5" font-size="10" text-anchor="middle">11-27</text>
<line x1="414.00" y1="323" x2="414.00" y2="327" stroke="#94a3b8" stroke-opacity="0.5" stroke-width="1" />
<text x="414.00" y="341" fill="#cbd5f5" font-size="10" text-anchor="middle">12-03</text>
<line x1="586.00" y1="323" x2="586.00" y2="327" stroke="#94a3b8" stroke-opacity="0.5" stroke-width="1" />
<text x="586.00" y="341" fill="#cbd5f5" font-size="10" text-anchor="middle">12-09</text>
<line x1="758.00" y1="323" x2="758.00" y2="327" stroke="#94a3b8" stroke-opacity="0.5" stroke-width="1" />
<text x="758.00" y="341" fill="#cbd5f5" font-size="10" text-anchor="middle">12-15</text>
<line x1="930.00" y1="323" x2="930.00" y2="327" stroke="#94a3b8" stroke-opacity="0.5" stroke-width="1" />
<text x="930.00" y="341" fill="#cbd5f5" font-size="10" text-anchor="middle">12-21</text>
<line x1="70" y1="74" x2="70" y2="323" stroke="#94a3b8" stroke-width="1" />
<line x1="70" y1="323" x2="930" y2="323" stroke="#94a3b8" stroke-width="1" />
<path d="M70.00,94.75 L99.66,269.83 L129.31,228.76 L158.97,241.73 L188.62,176.89 L218.28,133.66 L247.93,269.83 L277.59,230.92 L307.24,271.99 L336.90,256.86 L366.55,170.40 L396.21,131.49 L425.86,220.11 L455.52,280.64 L485.17,269.83 L514.83,187.69 L544.48,172.56 L574.14,204.98 L603.79,250.38 L633.45,202.82 L663.10,239.57 L692.76,282.80 L722.41,259.02 L752.07,235.24 L781.72,185.53 L811.38,146.63 L841.03,166.08 L870.69,183.37 L900.34,116.36 L930.00,302.25" fill="none" stroke="#60a5fa" stroke-width="2.2" stroke-linecap="round" />
<circle cx="70.00" cy="94.75" r="3" fill="#60a5fa" stroke="#0f172a" stroke-width="1" />
<text x="70.00" y="84.75" fill="#e2e8f0" font-size="9" text-anchor="middle">96</text>
<circle cx="99.66" cy="269.83" r="3" fill="#60a5fa" stroke="#0f172a" stroke-width="1" />
<text x="99.66" y="249.83" fill="#e2e8f0" font-size="9" text-anchor="middle">15</text>
<circle cx="129.31" cy="228.76" r="3" fill="#60a5fa" stroke="#0f172a" stroke-width="1" />
<text x="129.31" y="218.76" fill="#e2e8f0" font-size="9" text-anchor="middle">34</text>
<circle cx="158.97" cy="241.73" r="3" fill="#60a5fa" stroke="#0f172a" stroke-width="1" />
<text x="158.97" y="221.73" fill="#e2e8f0" font-size="9" text-anchor="middle">28</text>
<circle cx="188.62" cy="176.89" r="3" fill="#60a5fa" stroke="#0f172a" stroke-width="1" />
<text x="188.62" y="166.89" fill="#e2e8f0" font-size="9" text-anchor="middle">58</text>
<circle cx="218.28" cy="133.66" r="3" fill="#60a5fa" stroke="#0f172a" stroke-width="1" />
<text x="218.28" y="113.66" fill="#e2e8f0" font-size="9" text-anchor="middle">78</text>
<circle cx="247.93" cy="269.83" r="3" fill="#60a5fa" stroke="#0f172a" stroke-width="1" />
<text x="247.93" y="259.83" fill="#e2e8f0" font-size="9" text-anchor="middle">15</text>
<circle cx="277.59" cy="230.92" r="3" fill="#60a5fa" stroke="#0f172a" stroke-width="1" />
<text x="277.59" y="210.92" fill="#e2e8f0" font-size="9" text-anchor="middle">33</text>
<circle cx="307.24" cy="271.99" r="3" fill="#60a5fa" stroke="#0f172a" stroke-width="1" />
<text x="307.24" y="261.99" fill="#e2e8f0" font-size="9" text-anchor="middle">14</text>
<circle cx="336.90" cy="256.86" r="3" fill="#60a5fa" stroke="#0f172a" stroke-width="1" />
<text x="336.90" y="236.86" fill="#e2e8f0" font-size="9" text-anchor="middle">21</text>
<circle cx="366.55" cy="170.40" r="3" fill="#60a5fa" stroke="#0f172a" stroke-width="1" />
<text x="366.55" y="160.40" fill="#e2e8f0" font-size="9" text-anchor="middle">61</text>
<circle cx="396.21" cy="131.49" r="3" fill="#60a5fa" stroke="#0f172a" stroke-width="1" />
<text x="396.21" y="111.49" fill="#e2e8f0" font-size="9" text-anchor="middle">79</text>
<circle cx="425.86" cy="220.11" r="3" fill="#60a5fa" stroke="#0f172a" stroke-width="1" />
<text x="425.86" y="210.11" fill="#e2e8f0" font-size="9" text-anchor="middle">38</text>
<circle cx="455.52" cy="280.64" r="3" fill="#60a5fa" stroke="#0f172a" stroke-width="1" />
<text x="455.52" y="260.64" fill="#e2e8f0" font-size="9" text-anchor="middle">10</text>
<circle cx="485.17" cy="269.83" r="3" fill="#60a5fa" stroke="#0f172a" stroke-width="1" />
<text x="485.17" y="259.83" fill="#e2e8f0" font-size="9" text-anchor="middle">15</text>
<circle cx="514.83" cy="187.69" r="3" fill="#60a5fa" stroke="#0f172a" stroke-width="1" />
<text x="514.83" y="167.69" fill="#e2e8f0" font-size="9" text-anchor="middle">53</text>
<circle cx="544.48" cy="172.56" r="3" fill="#60a5fa" stroke="#0f172a" stroke-width="1" />
<text x="544.48" y="162.56" fill="#e2e8f0" font-size="9" text-anchor="middle">60</text>
<circle cx="574.14" cy="204.98" r="3" fill="#60a5fa" stroke="#0f172a" stroke-width="1" />
<text x="574.14" y="184.98" fill="#e2e8f0" font-size="9" text-anchor="middle">45</text>
<circle cx="603.79" cy="250.38" r="3" fill="#60a5fa" stroke="#0f172a" stroke-width="1" />
<text x="603.79" y="240.38" fill="#e2e8f0" font-size="9" text-anchor="middle">24</text>
<circle cx="633.45" cy="202.82" r="3" fill="#60a5fa" stroke="#0f172a" stroke-width="1" />
<text x="633.45" y="182.82" fill="#e2e8f0" font-size="9" text-anchor="middle">46</text>
<circle cx="663.10" cy="239.57" r="3" fill="#60a5fa" stroke="#0f172a" stroke-width="1" />
<text x="663.10" y="229.57" fill="#e2e8f0" font-size="9" text-anchor="middle">29</text>
<circle cx="692.76" cy="282.80" r="3" fill="#60a5fa" stroke="#0f172a" stroke-width="1" />
<text x="692.76" y="262.80" fill="#e2e8f0" font-size="9" text-anchor="middle">9</text>
<circle cx="722.41" cy="259.02" r="3" fill="#60a5fa" stroke="#0f172a" stroke-width="1" />
<text x="722.41" y="249.02" fill="#e2e8f0" font-size="9" text-anchor="middle">20</text>
<circle cx="752.07" cy="235.24" r="3" fill="#60a5fa" stroke="#0f172a" stroke-width="1" />
<text x="752.07" y="215.24" fill="#e2e8f0" font-size="9" text-anchor="middle">31</text>
<circle cx="781.72" cy="185.53" r="3" fill="#60a5fa" stroke="#0f172a" stroke-width="1" />
<text x="781.72" y="175.53" fill="#e2e8f0" font-size="9" text-anchor="middle">54</text>
<circle cx="811.38" cy="146.63" r="3" fill="#60a5fa" stroke="#0f172a" stroke-width="1" />
<text x="811.38" y="126.63" fill="#e2e8f0" font-size="9" text-anchor="middle">72</text>
<circle cx="841.03" cy="166.08" r="3" fill="#60a5fa" stroke="#0f172a" stroke-width="1" />
<text x="841.03" y="156.08" fill="#e2e8f0" font-size="9" text-anchor="middle">63</text>
<circle cx="870.69" cy="183.37" r="3" fill="#60a5fa" stroke="#0f172a" stroke-width="1" />
<text x="870.69" y="163.37" fill="#e2e8f0" font-size="9" text-anchor="middle">55</text>
<circle cx="900.34" cy="116.36" r="3" fill="#60a5fa" stroke="#0f172a" stroke-width="1" />
<text x="900.34" y="106.36" fill="#e2e8f0" font-size="9" text-anchor="middle">86</text>
<circle cx="930.00" cy="302.25" r="3" fill="#60a5fa" stroke="#0f172a" stroke-width="1" />
<text x="930.00" y="282.25" fill="#e2e8f0" font-size="9" text-anchor="middle">0</text>
<text x="70" y="403" fill="#e2e8f0" font-size="13" font-weight="600">本年核心指标趋势（滑动7日窗口平均）</text>
<line x1="70" y1="656.00" x2="930" y2="656.00" stroke="#94a3b8" stroke-opacity="0.18" stroke-width="1" />
<text x="62" y="660.00" fill="#cbd5f5" font-size="10" text-anchor="end">-10.6</text>
<line x1="70" y1="593.75" x2="930" y2="593.75" stroke="#94a3b8" stroke-opacity="0.18" stroke-width="1" />
<text x="62" y="597.75" fill="#cbd5f5" font-size="10" text-anchor="end">21.2</text>
<line x1="70" y1="531.50" x2="930" y2="531.50" stroke="#94a3b8" stroke-opacity="0.18" stroke-width="1" />
<text x="62" y="535.50" fill="#cbd5f5" font-size="10" text-anchor="end">53</text>
<line x1="70" y1="469.25" x2="930" y2="469.25" stroke="#94a3b8" stroke-opacity="0.18" stroke-width="1" />
<text x="62" y="473.25" fill="#cbd5f5" font-size="10" text-anchor="end">84.8</text>
<line x1="70" y1="407.00" x2="930" y2="407.00" stroke="#94a3b8" stroke-opacity="0.18" stroke-width="1" />
<text x="62" y="411.00" fill="#cbd5f5" font-size="10" text-anchor="end">116.6</text>
<line x1="70.00" y1="656" x2="70.00" y2="660" stroke="#94a3b8" stroke-opacity="0.5" stroke-width="1" />
<text x="70.00" y="674" fill="#cbd5f5" font-size="10" text-anchor="middle">2025-01</text>
<line x1="242.00" y1="656" x2="242.00" y2="660" stroke="#94a3b8" stroke-opacity="0.5" stroke-width="1" />
<text x="242.00" y="674" fill="#cbd5f5" font-size="10" text-anchor="middle">2025-03</text>
<line x1="414.00" y1="656" x2="414.00" y2="660" stroke="#94a3b8" stroke-opacity="0.5" stroke-width="1" />
<text x="414.00" y="674" fill="#cbd5f5" font-size="10" text-anchor="middle">2025-06</text>
<line x1="586.00" y1="656" x2="586.00" y2="660" stroke="#94a3b8" stroke-opacity="0.5" stroke-width="1" />
<text x="586.00" y="674" fill="#cbd5f5" font-size="10" text-anchor="middle">2025-08</text>
<line x1="758.00" y1="656" x2="758.00" y2="660" stroke="#94a3b8" stroke-opacity="0.5" stroke-width="1" />
<text x="758.00" y="674" fill="#cbd5f5" font-size="10" text-anchor="middle">2025-10</text>
<line x1="930.00" y1="656" x2="930.00" y2="660" stroke="#94a3b8" stroke-opacity="0.5" stroke-width="1" />
<text x="930.00" y="674" fill="#cbd5f5" font-size="10" text-anchor="middle">2025-12</text>
<line x1="70" y1="407" x2="70" y2="656" stroke="#94a3b8" stroke-width="1" />
<line x1="70" y1="656" x2="930" y2="656" stroke="#94a3b8" stroke-width="1" />
<path d="M70.00,656.00 L70.00,635.25 L72.59,594.14 L75.18,602.62 L77.77,602.95 L80.36,609.41 L82.95,607.52 L85.54,605.33 L88.13,605.33 L90.72,601.41 L93.31,589.39 L95.90,593.58 L98.49,584.91 L101.08,585.19 L103.67,586.87 L106.27,583.24 L108.86,596.10 L111.45,605.33 L114.04,602.81 L116.63,601.41 L119.22,600.85 L121.81,602.53 L124.40,596.10 L126.99,594.14 L129.58,596.10 L132.17,577.08 L134.76,580.44 L137.35,581.28 L139.94,563.66 L142.53,571.49 L145.12,563.94 L147.71,557.51 L150.30,560.58 L152.89,564.78 L155.48,557.79 L158.07,565.06 L160.66,553.87 L163.25,556.11 L165.84,561.14 L168.43,508.29 L171.02,504.93 L173.61,495.70 L176.20,501.86 L178.80,492.07 L181.39,487.87 L183.98,474.45 L186.57,544.36 L189.16,539.61 L191.75,544.64 L194.34,538.49 L196.93,556.67 L199.52,558.63 L202.11,574.29 L204.70,572.05 L207.29,577.92 L209.88,592.46 L212.47,587.99 L215.06,575.96 L217.65,577.08 L220.24,569.53 L222.83,555.55 L225.42,558.63 L228.01,544.92 L230.60,548.00 L233.19,540.73 L235.78,549.96 L238.37,552.75 L240.96,564.22 L243.55,548.00 L246.14,545.76 L248.73,543.52 L251.33,556.11 L253.92,541.01 L256.51,540.45 L259.10,543.25 L261.69,556.95 L264.28,559.46 L266.87,555.27 L269.46,546.32 L272.05,549.96 L274.64,553.87 L277.23,554.71 L279.82,538.49 L282.41,533.74 L285.00,533.18 L287.59,529.26 L290.18,521.15 L292.77,485.92 L295.36,480.60 L297.95,487.60 L300.54,504.37 L303.13,506.89 L305.72,510.25 L308.31,523.11 L310.90,548.00 L313.49,548.84 L316.08,556.11 L318.67,542.97 L321.27,553.87 L323.86,572.61 L326.45,567.57 L329.04,562.54 L331.63,559.19 L334.22,539.61 L336.81,554.15 L339.40,545.48 L341.99,530.38 L344.58,542.13 L347.17,542.41 L349.76,498.50 L352.35,513.04 L354.94,502.42 L357.53,508.01 L360.12,508.29 L362.71,504.37 L365.30,519.20 L367.89,571.49 L370.48,570.65 L373.07,575.40 L375.66,573.73 L378.25,570.37 L380.84,573.45 L383.43,572.33 L386.02,572.05 L388.61,571.49 L391.20,573.17 L393.80,578.48 L396.39,592.18 L398.98,585.75 L401.57,582.96 L404.16,575.96 L406.75,468.30 L409.34,461.03 L411.93,456.27 L414.52,454.88 L417.11,459.63 L419.70,462.71 L422.29,464.94 L424.88,577.64 L427.47,581.00 L430.06,574.57 L432.65,567.57 L435.24,559.46 L437.83,561.98 L440.42,566.74 L443.01,567.57 L445.60,572.05 L448.19,577.64 L450.78,569.25 L453.37,563.10 L455.96,549.96 L458.55,530.10 L461.14,532.34 L463.73,512.48 L466.33,505.77 L468.92,506.61 L471.51,519.48 L474.10,515.56 L476.69,531.50 L479.28,528.42 L481.87,532.34 L484.46,546.88 L487.05,558.91 L489.64,560.58 L492.23,572.89 L494.82,572.33 L497.41,574.29 L500.00,580.44 L502.59,567.57 L505.18,560.02 L507.77,561.42 L510.36,558.63 L512.95,553.87 L515.54,542.97 L518.13,548.28 L520.72,562.26 L523.31,572.89 L525.90,565.90 L528.49,566.18 L531.08,575.13 L533.67,579.60 L536.27,571.49 L538.86,571.77 L541.45,560.02 L544.04,559.74 L546.63,553.03 L549.22,553.03 L551.81,561.14 L554.40,572.61 L556.99,567.57 L559.58,569.81 L562.17,568.69 L564.76,582.68 L567.35,572.05 L569.94,574.01 L572.53,576.80 L575.12,573.45 L577.71,586.31 L580.30,591.35 L582.89,585.47 L585.48,584.07 L588.07,582.40 L590.66,578.76 L593.25,585.75 L595.84,581.28 L598.43,575.13 L601.02,561.70 L603.61,554.43 L606.20,549.40 L608.80,548.00 L611.39,551.63 L613.98,559.46 L616.57,570.93 L619.16,461.03 L642.47,480.32 L645.06,479.76 L647.65,474.17 L650.24,462.15 L652.83,445.37 L655.42,427.75 L658.01,556.39 L660.60,556.11 L663.19,548.00 L665.78,552.19 L668.37,546.88 L670.96,543.52 L673.55,533.74 L676.14,532.62 L678.73,527.31 L681.33,530.38 L683.92,530.10 L686.51,531.78 L689.10,537.93 L691.69,563.94 L694.28,563.94 L696.87,565.90 L699.46,556.67 L702.05,565.62 L704.64,567.57 L707.23,566.46 L709.82,564.22 L712.41,550.24 L715.00,548.56 L717.59,553.31 L720.18,548.28 L722.77,563.66 L725.36,564.22 L727.95,566.74 L730.54,583.79 L733.13,583.51 L735.72,589.95 L738.31,592.74 L740.90,588.27 L743.49,600.57 L746.08,598.34 L748.67,586.87 L751.27,584.91 L753.86,587.71 L756.45,571.49 L759.04,556.67 L761.63,556.11 L764.22,530.38 L766.81,537.09 L769.40,523.95 L771.99,515.00 L774.58,515.56 L777.17,519.48 L779.76,517.24 L782.35,517.24 L784.94,513.88 L787.53,529.26 L790.12,537.37 L792.71,546.60 L795.30,545.76 L797.89,548.28 L800.48,566.18 L803.07,549.12 L805.66,550.24 L808.25,536.81 L810.84,528.14 L813.43,533.46 L816.02,529.82 L818.61,488.15 L821.20,509.41 L823.80,510.81 L826.39,530.10 L828.98,538.21 L831.57,544.08 L834.16,547.16 L836.75,598.06 L839.34,600.01 L841.93,599.18 L844.52,598.90 L847.11,591.62 L849.70,586.87 L852.29,575.68 L854.88,551.63 L857.47,550.24 L860.06,547.16 L862.65,544.08 L865.24,545.48 L867.83,533.46 L870.42,544.64 L873.01,562.26 L875.60,562.54 L878.19,566.18 L880.78,556.95 L883.37,551.08 L885.96,562.26 L888.55,563.66 L891.14,568.69 L893.73,557.79 L896.33,546.88 L898.92,551.36 L901.51,566.74 L904.10,564.50 L906.69,559.19 L909.28,560.86 L911.87,570.09 L914.46,578.20 L917.05,575.68 L919.64,562.26 L922.23,557.51 L924.82,550.24 L927.41,528.70 L930.00,534.30 L930.00,656.00 Z" fill="#60a5fa" fill-opacity="0.16" stroke="none" />
<path d="M70.00,635.25 L72.59,594.14 L75.18,602.62 L77.77,602.95 L80.36,609.41 L82.95,607.52 L85.54,605.33 L88.13,605.33 L90.72,601.41 L93.31,589.39 L95.90,593.58 L98.49,584.91 L101.08,585.19 L103.67,586.87 L106.27,583.24 L108.86,596.10 L111.45,605.33 L114.04,602.81 L116.63,601.41 L119.22,600.85 L121.81,602.53 L124.40,596.10 L126.99,594.14 L129.58,596.10 L132.17,577.08 L134.76,580.44 L137.35,581.28 L139.94,563.66 L142.53,571.49 L145.12,563.94 L147.71,557.51 L150.30,560.58 L152.89,564.78 L155.48,557.79 L158.07,565.06 L160.66,553.87 L163.25,556.11 L165.84,561.14 L168.43,508.29 L171.02,504.93 L173.61,495.70 L176.20,501.86 L178.80,492.07 L181.39,487.87 L183.98,474.45 L186.57,544.36 L189.16,539.61 L191.75,544.64 L194.34,538.49 L196.93,556.67 L199.52,558.63 L202.11,574.29 L204.70,572.05 L207.29,577.92 L209.88,592.46 L212.47,587.99 L215.06,575.96 L217.65,577.08 L220.24,569.53 L222.83,555.55 L225.42,558.63 L228.01,544.92 L230.60,548.00 L233.19,540.73 L235.78,549.96 L238.37,552.75 L240.96,564.22 L243.55,548.00 L246.14,545.76 L248.73,543.52 L251.33,556.11 L253.92,541.01 L256.51,540.45 L259.10,543.25 L261.69,556.95 L264.28,559.46 L266.87,555.27 L269.46,546.32 L272.05,549.96 L274.64,553.87 L277.23,554.71 L279.82,538.49 L282.41,533.74 L285.00,533.18 L287.59,529.26 L290.18,521.15 L292.77,485.92 L295.36,480.60 L297.95,487.60 L300.54,504.37 L303.13,506.89 L305.72,510.25 L308.31,523.11 L310.90,548.00 L313.49,548.84 L316.08,556.11 L318.67,542.97 L321.27,553.87 L323.86,572.61 L326.45,567.57 L329.04,562.54 L331.63,559.19 L334.22,539.61 L336.81,554.15 L339.40,545.48 L341.99,530.38 L344.58,542.13 L347.17,542.41 L349.76,498.50 L352.35,513.04 L354.94,502.42 L357.53,508.01 L360.12,508.29 L362.71,504.37 L365.30,519.20 L367.89,571.49 L370.48,570.65 L373.07,575.40 L375.66,573.73 L378.25,570.37 L380.84,573.45 L383.43,572.33 L386.02,572.05 L388.61,571.49 L391.20,573.17 L393.80,578.48 L396.39,592.18 L398.98,585.75 L401.57,582.96 L404.16,575.96 L406.75,468.30 L409.34,461.03 L411.93,456.27 L414.52,454.88 L417.11,459.63 L419.70,462.71 L422.29,464.94 L424.88,577.64 L427.47,581.00 L430.06,574.57 L432.65,567.57 L435.24,559.46 L437.83,561.98 L440.42,566.74 L443.01,567.57 L445.60,572.05 L448.19,577.64 L450.78,569.25 L453.37,563.10 L455.96,549.96 L458.55,530.10 L461.14,532.34 L463.73,512.48 L466.33,505.77 L468.92,506.61 L471.51,519.48 L474.10,515.56 L476.69,531.50 L479.28,528.42 L481.87,532.34 L484.46,546.88 L487.05,558.91 L489.64,560.58 L492.23,572.89 L494.82,572.33 L497.41,574.29 L500.00,580.44 L502.59,567.57 L505.18,560.02 L507.77,561.42 L510.36,558.63 L512.95,553.87 L515.54,542.97 L518.13,548.28 L520.72,562.26 L523.31,572.89 L525.90,565.90 L528.49,566.18 L531.08,575.13 L533.67,579.60 L536.27,571.49 L538.86,571.77 L541.45,560.02 L544.04,559.74 L546.63,553.03 L549.22,553.03 L551.81,561.14 L554.40,572.61 L556.99,567.57 L559.58,569.81 L562.17,568.69 L564.76,582.68 L567.35,572.05 L569.94,574.01 L572.53,576.80 L575.12,573.45 L577.71,586.31 L580.30,591.35 L582.89,585.47 L585.48,584.07 L588.07,582.40 L590.66,578.76 L593.25,585.75 L595.84,581.28 L598.43,575.13 L601.02,561.70 L603.61,554.43 L606.20,549.40 L608.80,548.00 L611.39,551.63 L613.98,559.46 L616.57,570.93 L619.16,461.03 L642.47,480.32 L645.06,479.76 L647.65,474.17 L650.24,462.15 L652.83,445.37 L655.42,427.75 L658.01,556.39 L660.60,556.11 L663.19,548.00 L665.78,552.19 L668.37,546.88 L670.96,543.52 L673.55,533.74 L676.14,532.62 L678.73,527.31 L681.33,530.38 L683.92,530.10 L686.51,531.78 L689.10,537.93 L691.69,563.94 L694.28,563.94 L696.87,565.90 L699.46,556.67 L702.05,565.62 L704.64,567.57 L707.23,566.46 L709.82,564.22 L712.41,550.24 L715.00,548.56 L717.59,553.31 L720.18,548.28 L722.77,563.66 L725.36,564.22 L727.95,566.74 L730.54,583.79 L733.13,583.51 L735.72,589.95 L738.31,592.74 L740.90,588.27 L743.49,600.57 L746.08,598.34 L748.67,586.87 L751.27,584.91 L753.86,587.71 L756.45,571.49 L759.04,556.67 L761.63,556.11 L764.22,530.38 L766.81,537.09 L769.40,523.95 L771.99,515.00 L774.58,515.56 L777.17,519.48 L779.76,517.24 L782.35,517.24 L784.94,513.88 L787.53,529.26 L790.12,537.37 L792.71,546.60 L795.30,545.76 L797.89,548.28 L800.48,566.18 L803.07,549.12 L805.66,550.24 L808.25,536.81 L810.84,528.14 L813.43,533.46 L816.02,529.82 L818.61,488.15 L821.20,509.41 L823.80,510.81 L826.39,530.10 L828.98,538.21 L831.57,544.08 L834.16,547.16 L836.75,598.06 L839.34,600.01 L841.93,599.18 L844.52,598.90 L847.11,591.62 L849.70,586.87 L852.29,575.68 L854.88,551.63 L857.47,550.24 L860.06,547.16 L862.65,544.08 L865.24,545.48 L867.83,533.46 L870.42,544.64 L873.01,562.26 L875.60,562.54 L878.19,566.18 L880.78,556.95 L883.37,551.08 L885.96,562.26 L888.55,563.66 L891.14,568.69 L893.73,557.79 L896.33,546.88 L898.92,551.36 L901.51,566.74 L904.10,564.50 L906.69,559.19 L909.28,560.86 L911.87,570.09 L914.46,578.20 L917.05,575.68 L919.64,562.26 L922.23,557.51 L924.82,550.24 L927.41,528.70 L930.00,534.30" fill="none" stroke="#60a5fa" stroke-width="2.2" stroke-linecap="round" />
</svg>
