<svg xmlns="http://www.w3.org/2000/svg" viewBox="0 0 960 720" width="960" height="720">
<rect width="960" height="720" fill="#0f172a" />
<text x="480" y="28" fill="#e2e8f0" font-size="16" font-weight="700" text-anchor="middle">站立时长趋势图</text>
<text x="70" y="70" fill="#e2e8f0" font-size="13" font-weight="600">本月分天指标明细</text>
<line x1="70" y1="323.00" x2="930" y2="323.00" stroke="#94a3b8" stroke-opacity="0.18" stroke-width="1" />
<text x="62" y="327.00" fill="#cbd5f5" font-size="10" text-anchor="end">58.9</text>
<line x1="70" y1="260.75" x2="930" y2="260.75" stroke="#94a3b8" stroke-opacity="0.18" stroke-width="1" />
<text x="62" y="264.75" fill="#cbd5f5" font-size="10" text-anchor="end">113.2</text>
<line x1="70" y1="198.50" x2="930" y2="198.50" stroke="#94a3b8" stroke-opacity="0.18" stroke-width="1" />
<text x="62" y="202.50" fill="#cbd5f5" font-size="10" text-anchor="end">167.5</text>
<line x1="70" y1="136.25" x2="930" y2="136.25" stroke="#94a3b8" stroke-opacity="0.18" stroke-width="1" />
<text x="62" y="140.25" fill="#cbd5f5" font-size="10" text-anchor="end">221.8</text>
<line x1="70" y1="74.00" x2="930" y2="74.00" stroke="#94a3b8" stroke-opacity="0.18" stroke-width="1" />
<text x="62" y="78.00" fill="#cbd5f5" font-size="10" text-anchor="end">276.1</text>
<line x1="70.00" y1="323" x2="70.00" y2="327" stroke="#94a3b8" stroke-opacity="0.5" stroke-width="1" />
<text x="70.00" y="341" fill="#cbd5f5" font-size="10" text-anchor="middle">11-19</text>
<line x1="242.00" y1="323" x2="242.00" y2="327" stroke="#94a3b8" stroke-opacity="0.5" stroke-width="1" />
<text x="242.00" y="341" fill="#cbd5f5" font-size="10" text-anchor="middle">11-24</text>
<line x1="414.00" y1="323" x2="414.00" y2="327" stroke="#94a3b8" stroke-opacity="0.5" stroke-width="1" />
<text x="414.00" y="341" fill="#cbd5f5" font-size="10" text-anchor="middle">11-30</text>
<line x1="586.00" y1="323" x2="586.00" y2="327" stroke="#94a3b8" stroke-opacity="0.5" stroke-width="1" />
<text x="586.00" y="341" fill="#cbd5f5" font-size="10" text-anchor="middle">12-06</text>
<line x1="758.00" y1="323" x2="758.00" y2="327" stroke="#94a3b8" stroke-opacity="0.5" stroke-width="1" />
<text x="758.00" y="341" fill="#cbd5f5" font-size="10" text-anchor="middle">12-12</text>
<line x1="930.00" y1="323" x2="930.00" y2="327" stroke="#94a3b8" stroke-opacity="0.5" stroke-width="1" />
<text x="930.00" y="341" fill="#cbd5f5" font-size="10" text-anchor="middle">12-18</text>
<line x1="70" y1="74" x2="70" y2="323" stroke="#94a3b8" stroke-width="1" />
<line x1="70" y1="323" x2="930" y2="323" stroke="#94a3b8" stroke-width="1" />
<path d="M70.00,219.71 L99.66,238.05 L129.31,234.61 L158.97,239.20 L188.62,296.52 L218.28,258.69 L247.93,239.20 L277.59,209.39 L307.24,195.63 L336.90,218.56 L366.55,94.75 L396.21,210.54 L425.86,234.61 L455.52,205.95 L485.17,231.17 L514.83,204.81 L544.48,273.59 L574.14,302.25 L603.79,246.08 L633.45,243.78 L663.10,212.83 L692.76,215.12 L722.41,210.54 L752.07,176.15 L781.72,191.05 L811.38,196.78 L841.03,210.54 L870.69,269.00 L900.34,207.10 L930.00,252.95" fill="none" stroke="#60a5fa" stroke-width="2.2" stroke-linecap="round" />
<circle cx="70.00" cy="219.71" r="3" fill="#60a5fa" stroke="#0f172a" stroke-width="1" />
<text x="70.00" y="209.71" fill="#e2e8f0" font-size="9" text-anchor="middle">149</text>
<circle cx="99.66" cy="238.05" r="3" fill="#60a5fa" stroke="#0f172a" stroke-width="1" />
<text x="99.66" y="218.05" fill="#e2e8f0" font-size="9" text-anchor="middle">133</text>
<circle cx="129.31" cy="234.61" r="3" fill="#60a5fa" stroke="#0f172a" stroke-width="1" />
<text x="129.31" y="224.61" fill="#e2e8f0" font-size="9" text-anchor="middle">136</text>
<circle cx="158.97" cy="239.20" r="3" fill="#60a5fa" stroke="#0f172a" stroke-width="1" />
<text x="158.97" y="219.20" fill="#e2e8f0" font-size="9" text-anchor="middle">132</text>
<circle cx="188.62" cy="296.52" r="3" fill="#60a5fa" stroke="#0f172a" stroke-width="1" />
<text x="188.62" y="286.52" fill="#e2e8f0" font-size="9" text-anchor="middle">82</text>
<circle cx="218.28" cy="258.69" r="3" fill="#60a5fa" stroke="#0f172a" stroke-width="1" />
<text x="218.28" y="238.69" fill="#e2e8f0" font-size="9" text-anchor="middle">115</text>
<circle cx="247.93" cy="239.20" r="3" fill="#60a5fa" stroke="#0f172a" stroke-width="1" />
<text x="247.93" y="229.20" fill="#e2e8f0" font-size="9" text-anchor="middle">132</text>
<circle cx="277.59" cy="209.39" r="3" fill="#60a5fa" stroke="#0f172a" stroke-width="1" />
<text x="277.59" y="189.39" fill="#e2e8f0" font-size="9" text-anchor="middle">158</text>
<circle cx="307.24" cy="195.63" r="3" fill="#60a5fa" stroke="#0f172a" stroke-width="1" />
<text x="307.24" y="185.63" fill="#e2e8f0" font-size="9" text-anchor="middle">170</text>
<circle cx="336.90" cy="218.56" r="3" fill="#60a5fa" stroke="#0f172a" stroke-width="1" />
<text x="336.90" y="198.56" fill="#e2e8f0" font-size="9" text-anchor="middle">150</text>
<circle cx="366.55" cy="94.75" r="3" fill="#60a5fa" stroke="#0f172a" stroke-width="1" />
<text x="366.55" y="84.75" fill="#e2e8f0" font-size="9" text-anchor="middle">258</text>
<circle cx="396.21" cy="210.54" r="3" fill="#60a5fa" stroke="#0f172a" stroke-width="1" />
<text x="396.21" y="190.54" fill="#e2e8f0" font-size="9" text-anchor="middle">157</text>
<circle cx="425.86" cy="234.61" r="3" fill="#60a5fa" stroke="#0f172a" stroke-width="1" />
<text x="425.86" y="224.61" fill="#e2e8f0" font-size="9" text-anchor="middle">136</text>
<circle cx="455.52" cy="205.95" r="3" fill="#60a5fa" stroke="#0f172a" stroke-width="1" />
<text x="455.52" y="185.95" fill="#e2e8f0" font-size="9" text-anchor="middle">161</text>
<circle cx="485.17" cy="231.17" r="3" fill="#60a5fa" stroke="#0f172a" stroke-width="1" />
<text x="485.17" y="221.17" fill="#e2e8f0" font-size="9" text-anchor="middle">139</text>
<circle cx="514.83" cy="204.81" r="3" fill="#60a5fa" stroke="#0f172a" stroke-width="1" />
<text x="514.83" y="184.81" fill="#e2e8f0" font-size="9" text-anchor="middle">162</text>
<circle cx="544.48" cy="273.59" r="3" fill="#60a5fa" stroke="#0f172a" stroke-width="1" />
<text x="544.48" y="263.59" fill="#e2e8f0" font-size="9" text-anchor="middle">102</text>
<circle cx="574.14" cy="302.25" r="3" fill="#60a5fa" stroke="#0f172a" stroke-width="1" />
<text x="574.14" y="282.25" fill="#e2e8f0" font-size="9" text-anchor="middle">77</text>
<circle cx="603.79" cy="246.08" r="3" fill="#60a5fa" stroke="#0f172a" stroke-width="1" />
<text x="603.79" y="236.08" fill="#e2e8f0" font-size="9" text-anchor="middle">126</text>
<circle cx="633.45" cy="243.78" r="3" fill="#60a5fa" stroke="#0f172a" stroke-width="1" />
<text x="633.45" y="223.78" fill="#e2e8f0" font-size="9" text-anchor="middle">128</text>
<circle cx="663.10" cy="212.83" r="3" fill="#60a5fa" stroke="#0f172a" stroke-width="1" />
<text x="663.10" y="202.83" fill="#e2e8f0" font-size="9" text-anchor="middle">155</text>
<circle cx="692.76" cy="215.12" r="3" fill="#60a5fa" stroke="#0f172a" stroke-width="1" />
<text x="692.76" y="195.12" fill="#e2e8f0" font-size="9" text-anchor="middle">153</text>
<circle cx="722.41" cy="210.54" r="3" fill="#60a5fa" stroke="#0f172a" stroke-width="1" />
<text x="722.41" y="200.54" fill="#e2e8f0" font-size="9" text-anchor="middle">157</text>
<circle cx="752.07" cy="176.15" r="3" fill="#60a5fa" stroke="#0f172a" stroke-width="1" />
<text x="752.07" y="156.15" fill="#e2e8f0" font-size="9" text-anchor="middle">187</text>
<circle cx="781.72" cy="191.05" r="3" fill="#60a5fa" stroke="#0f172a" stroke-width="1" />
<text x="781.72" y="181.05" fill="#e2e8f0" font-size="9" text-anchor="middle">174</text>
<circle cx="811.38" cy="196.78" r="3" fill="#60a5fa" stroke="#0f172a" stroke-width="1" />
<text x="811.38" y="176.78" fill="#e2e8f0" font-size="9" text-anchor="middle">169</text>
<circle cx="841.03" cy="210.54" r="3" fill="#60a5fa" stroke="#0f172a" stroke-width="1" />
<text x="841.03" y="200.54" fill="#e2e8f0" font-size="9" text-anchor="middle">157</text>
<circle cx="870.69" cy="269.00" r="3" fill="#60a5fa" stroke="#0f172a" stroke-width="1" />
<text x="870.69" y="249.00" fill="#e2e8f0" font-size="9" text-anchor="middle">106</text>
<circle cx="900.34" cy="207.10" r="3" fill="#60a5fa" stroke="#0f172a" stroke-width="1" />
<text x="900.34" y="197.10" fill="#e2e8f0" font-size="9" text-anchor="middle">160</text>
<circle cx="930.00" cy="252.95" r="3" fill="#60a5fa" stroke="#0f172a" stroke-width="1" />
<text x="930.00" y="232.95" fill="#e2e8f0" font-size="9" text-anchor="middle">120</text>
<text x="70" y="403" fill="#e2e8f0" font-size="13" font-weight="600">本年核心指标趋势（滑动7日窗口平均）</text>
<line x1="70" y1="656.00" x2="930" y2="656.00" stroke="#94a3b8" stroke-opacity="0.18" stroke-width="1" />
<text x="62" y="660.00" fill="#cbd5f5" font-size="10" text-anchor="end">-17.7</text>
<line x1="70" y1="593.75" x2="930" y2="593.75" stroke="#94a3b8" stroke-opacity="0.18" stroke-width="1" />
<text x="62" y="597.75" fill="#cbd5f5" font-size="10" text-anchor="end">38.4</text>
<line x1="70" y1="531.50" x2="930" y2="531.50" stroke="#94a3b8" stroke-opacity="0.18" stroke-width="1" />
<text x="62" y="535.50" fill="#cbd5f5" font-size="10" text-anchor="end">94.4</text>
<line x1="70" y1="469.25" x2="930" y2="469.25" stroke="#94a3b8" stroke-opacity="0.18" stroke-width="1" />
<text x="62" y="473.25" fill="#cbd5f5" font-size="10" text-anchor="end">150.5</text>
<line x1="70" y1="407.00" x2="930" y2="407.00" stroke="#94a3b8" stroke-opacity="0.18" stroke-width="1" />
<text x="62" y="411.00" fill="#cbd5f5" font-size="10" text-anchor="end">206.5</text>
<line x1="70.00" y1="656" x2="70.00" y2="660" stroke="#94a3b8" stroke-opacity="0.5" stroke-width="1" />
<text x="70.00" y="674" fill="#cbd5f5" font-size="10" text-anchor="middle">2025-01</text>
<line x1="242.00" y1="656" x2="242.00" y2="660" stroke="#94a3b8" stroke-opacity="0.5" stroke-width="1" />
<text x="242.00" y="674" fill="#cbd5f5" font-size="10" text-anchor="middle">2025-03</text>
<line x1="414.00" y1="656" x2="414.00" y2="660" stroke="#94a3b8" stroke-opacity="0.5" stroke-width="1" />
<text x="414.00" y="674" fill="#cbd5f5" font-size="10" text-anchor="middle">2025-06</text>
<line x1="586.00" y1="656" x2="586.00" y2="660" stroke="#94a3b8" stroke-opacity="0.5" stroke-width="1" />
<text x="586.00" y="674" fill="#cbd5f5" font-size="10" text-anchor="middle">2025-08</text>
<line x1="758.00" y1="656" x2="758.00" y2="660" stroke="#94a3b8" stroke-opacity="0.5" stroke-width="1" />
<text x="758.00" y="674" fill="#cbd5f5" font-size="10" text-anchor="middle">2025-10</text>
<line x1="930.00" y1="656" x2="930.00" y2="660" stroke="#94a3b8" stroke-opacity="0.5" stroke-width="1" />
<text x="930.00" y="674" fill="#cbd5f5" font-size="10" text-anchor="middle">2025-12</text>
<line x1="70" y1="407" x2="70" y2="656" stroke="#94a3b8" stroke-width="1" />
<line x1="70" y1="656" x2="930" y2="656" stroke="#94a3b8" stroke-width="1" />
<path d="M70.00,656.00 L70.00,635.25 L72.61,559.18 L75.23,550.48 L77.84,535.03 L80.46,546.19 L83.07,532.35 L85.68,524.20 L88.30,513.89 L90.91,498.66 L93.53,481.69 L96.14,501.20 L98.75,487.08 L101.37,487.24 L103.98,489.46 L106.60,489.30 L109.21,514.21 L111.82,528.17 L114.44,518.81 L117.05,518.17 L119.67,530.55 L122.28,535.47 L124.89,531.34 L127.51,524.68 L130.12,531.50 L132.74,516.43 L135.35,521.66 L137.96,517.06 L140.58,508.81 L143.19,509.45 L145.81,502.47 L148.42,495.49 L151.03,502.79 L153.65,500.09 L156.26,498.66 L158.88,504.53 L161.49,497.55 L164.10,506.12 L166.72,502.94 L169.33,478.20 L171.95,484.86 L174.56,480.58 L177.17,478.51 L179.79,462.17 L182.40,450.12 L185.02,427.75 L187.63,456.94 L190.24,452.81 L192.86,452.02 L195.47,449.32 L198.09,465.66 L200.70,479.63 L203.31,509.45 L205.93,504.37 L208.54,506.44 L211.16,515.16 L213.77,515.16 L216.38,513.57 L219.00,512.15 L221.61,501.52 L224.22,492.47 L226.84,490.73 L229.45,486.29 L232.07,491.84 L234.68,480.58 L237.29,476.29 L239.91,482.64 L242.52,496.28 L245.14,490.57 L247.75,485.02 L250.36,478.04 L252.98,486.61 L255.59,470.42 L258.21,439.97 L260.82,436.63 L263.43,442.03 L266.05,443.61 L268.66,441.23 L271.28,441.87 L273.89,454.08 L276.50,492.32 L279.12,498.03 L281.73,490.10 L284.35,492.00 L286.96,495.33 L289.57,494.22 L292.19,500.09 L294.80,473.28 L297.42,472.01 L300.03,479.63 L302.64,484.07 L305.26,482.64 L307.87,484.23 L310.49,479.63 L313.10,495.01 L315.71,491.21 L318.33,491.52 L320.94,479.47 L323.56,477.25 L326.17,492.16 L328.78,487.72 L331.40,467.73 L334.01,451.07 L336.63,442.34 L339.24,457.57 L341.85,466.78 L344.47,449.32 L347.08,464.24 L349.70,481.21 L352.31,476.13 L354.92,481.37 L357.54,473.12 L360.15,468.52 L362.77,469.31 L365.38,462.65 L367.99,474.07 L370.61,499.93 L373.22,502.94 L375.84,505.17 L378.45,507.86 L381.06,514.68 L383.68,513.26 L386.29,496.92 L388.91,490.89 L391.52,484.07 L394.13,485.97 L396.75,485.81 L399.36,489.46 L401.98,488.19 L404.59,508.18 L407.20,512.62 L409.82,486.45 L412.43,486.92 L415.05,487.87 L417.66,486.76 L420.27,498.66 L422.89,495.33 L425.50,497.71 L428.12,530.39 L430.73,531.66 L433.34,528.01 L435.96,524.20 L438.57,504.53 L441.19,497.71 L443.80,489.94 L446.41,489.94 L449.03,492.47 L451.64,497.08 L454.26,494.06 L456.87,501.36 L459.48,491.21 L462.10,486.45 L464.71,489.30 L467.33,475.34 L469.94,472.01 L472.55,473.76 L475.17,482.96 L477.78,483.59 L480.40,493.90 L483.01,491.52 L485.62,488.19 L488.24,494.54 L490.85,501.36 L493.47,504.85 L496.08,521.03 L498.69,522.14 L501.31,525.95 L503.92,535.78 L506.53,531.34 L509.15,529.60 L511.76,526.26 L514.38,508.18 L516.99,499.61 L519.60,492.79 L522.22,497.39 L524.83,499.93 L527.45,495.96 L530.06,494.70 L532.67,503.10 L535.29,518.65 L537.90,520.55 L540.52,516.27 L543.13,521.19 L545.74,515.79 L548.36,509.77 L550.97,503.90 L553.59,504.85 L556.20,511.99 L558.81,515.79 L561.43,512.94 L564.04,520.40 L566.66,528.80 L569.27,532.93 L571.88,519.13 L574.50,518.97 L577.11,520.24 L579.73,514.68 L582.34,520.71 L584.95,510.88 L587.57,518.65 L590.18,522.46 L592.80,523.09 L595.41,528.17 L598.02,533.09 L600.64,525.15 L603.25,536.26 L605.87,534.51 L608.48,536.26 L611.09,529.44 L613.71,522.93 L616.32,530.55 L618.94,528.17 L621.55,519.13 L624.16,468.84 L647.69,472.96 L650.30,469.79 L652.92,467.89 L655.53,460.11 L658.15,455.04 L660.76,445.83 L663.37,504.53 L665.99,502.94 L668.60,504.69 L671.22,508.02 L673.83,503.74 L676.44,514.05 L679.06,514.53 L681.67,511.51 L684.29,506.91 L686.90,500.57 L689.51,499.61 L692.13,498.19 L694.74,493.43 L697.36,512.94 L699.97,513.57 L702.58,512.78 L705.20,510.24 L707.81,521.35 L710.43,523.73 L713.04,520.24 L715.65,518.02 L718.27,498.34 L720.88,496.12 L723.50,502.47 L726.11,497.23 L728.72,509.29 L731.34,516.27 L733.95,517.54 L736.57,542.92 L739.18,535.78 L741.79,520.08 L744.41,503.58 L747.02,492.00 L749.64,493.90 L752.25,481.85 L754.86,473.76 L757.48,476.29 L760.09,490.89 L762.71,491.52 L765.32,479.31 L767.93,481.37 L770.55,476.61 L773.16,475.98 L775.78,475.50 L778.39,475.82 L781.00,472.64 L783.62,486.61 L786.23,470.42 L788.84,466.14 L791.46,469.47 L794.07,474.55 L796.69,476.13 L799.30,482.64 L801.91,482.00 L804.53,496.12 L807.14,497.55 L809.76,482.80 L812.37,486.61 L814.98,480.58 L817.60,478.67 L820.21,478.20 L822.83,467.89 L825.44,457.57 L828.05,470.27 L830.67,465.82 L833.28,476.29 L835.90,483.75 L838.51,485.34 L841.12,500.88 L843.74,530.39 L846.35,533.40 L848.97,533.88 L851.58,532.77 L854.19,526.58 L856.81,521.82 L859.42,511.99 L862.04,502.15 L864.65,500.25 L867.26,501.20 L869.88,496.92 L872.49,495.49 L875.11,489.62 L877.72,487.40 L880.33,467.41 L882.95,455.51 L885.56,452.18 L888.18,447.58 L890.79,450.59 L893.40,451.86 L896.02,459.48 L898.63,488.19 L901.25,493.11 L903.86,494.38 L906.47,495.33 L909.09,493.11 L911.70,493.90 L914.32,480.42 L916.93,465.03 L919.54,458.21 L922.16,453.61 L924.77,461.38 L927.39,460.27 L930.00,466.14 L930.00,656.00 Z" fill="#60a5fa" fill-opacity="0.16" stroke="none" />
<path d="M70.00,635.25 L72.61,559.18 L75.23,550.48 L77.84,535.03 L80.46,546.19 L83.07,532.35 L85.68,524.20 L88.30,513.89 L90.91,498.66 L93.53,481.69 L96.14,501.20 L98.75,487.08 L101.37,487.24 L103.98,489.46 L106.60,489.30 L109.21,514.21 L111.82,528.17 L114.44,518.81 L117.05,518.17 L119.67,530.55 L122.28,535.47 L124.89,531.34 L127.51,524.68 L130.12,531.50 L132.74,516.43 L135.35,521.66 L137.96,517.06 L140.58,508.81 L143.19,509.45 L145.81,502.47 L148.42,495.49 L151.03,502.79 L153.65,500.09 L156.26,498.66 L158.88,504.53 L161.49,497.55 L164.10,506.12 L166.72,502.94 L169.33,478.20 L171.95,484.86 L174.56,480.58 L177.17,478.51 L179.79,462.17 L182.40,450.12 L185.02,427.75 L187.63,456.94 L190.24,452.81 L192.86,452.02 L195.47,449.32 L198.09,465.66 L200.70,479.63 L203.31,509.45 L205.93,504.37 L208.54,506.44 L211.16,515.16 L213.77,515.16 L216.38,513.57 L219.00,512.15 L221.61,501.52 L224.22,492.47 L226.84,490.73 L229.45,486.29 L232.07,491.84 L234.68,480.58 L237.29,476.29 L239.91,482.64 L242.52,496.28 L245.14,490.57 L247.75,485.02 L250.36,478.04 L252.98,486.61 L255.59,470.42 L258.21,439.97 L260.82,436.63 L263.43,442.03 L266.05,443.61 L268.66,441.23 L271.28,441.87 L273.89,454.08 L276.50,492.32 L279.12,498.03 L281.73,490.10 L284.35,492.00 L286.96,495.33 L289.57,494.22 L292.19,500.09 L294.80,473.28 L297.42,472.01 L300.03,479.63 L302.64,484.07 L305.26,482.64 L307.87,484.23 L310.49,479.63 L313.10,495.01 L315.71,491.21 L318.33,491.52 L320.94,479.47 L323.56,477.25 L326.17,492.16 L328.78,487.72 L331.40,467.73 L334.01,451.07 L336.63,442.34 L339.24,457.57 L341.85,466.78 L344.47,449.32 L347.08,464.24 L349.70,481.21 L352.31,476.13 L354.92,481.37 L357.54,473.12 L360.15,468.52 L362.77,469.31 L365.38,462.65 L367.99,474.07 L370.61,499.93 L373.22,502.94 L375.84,505.17 L378.45,507.86 L381.06,514.68 L383.68,513.26 L386.29,496.92 L388.91,490.89 L391.52,484.07 L394.13,485.97 L396.75,485.81 L399.36,489.46 L401.98,488.19 L404.59,508.18 L407.20,512.62 L409.82,486.45 L412.43,486.92 L415.05,487.87 L417.66,486.76 L420.27,498.66 L422.89,495.33 L425.50,497.71 L428.12,530.39 L430.73,531.66 L433.34,528.01 L435.96,524.20 L438.57,504.53 L441.19,497.71 L443.80,489.94 L446.41,489.94 L449.03,492.47 L451.64,497.08 L454.26,494.06 L456.87,501.36 L459.48,491.21 L462.10,486.45 L464.71,489.30 L467.33,475.34 L469.94,472.01 L472.55,473.76 L475.17,482.96 L477.78,483.59 L480.40,493.90 L483.01,491.52 L485.62,488.19 L488.24,494.54 L490.85,501.36 L493.47,504.85 L496.08,521.03 L498.69,522.14 L501.31,525.95 L503.92,535.78 L506.53,531.34 L509.15,529.60 L511.76,526.26 L514.38,508.18 L516.99,499.61 L519.60,492.79 L522.22,497.39 L524.83,499.93 L527.45,495.96 L530.06,494.70 L532.67,503.10 L535.29,518.65 L537.90,520.55 L540.52,516.27 L543.13,521.19 L545.74,515.79 L548.36,509.77 L550.97,503.90 L553.59,504.85 L556.20,511.99 L558.81,515.79 L561.43,512.94 L564.04,520.40 L566.66,528.80 L569.27,532.93 L571.88,519.13 L574.50,518.97 L577.11,520.24 L579.73,514.68 L582.34,520.71 L584.95,510.88 L587.57,518.65 L590.18,522.46 L592.80,523.09 L595.41,528.17 L598.02,533.09 L600.64,525.15 L603.25,536.26 L605.87,534.51 L608.48,536.26 L611.09,529.44 L613.71,522.93 L616.32,530.55 L618.94,528.17 L621.55,519.13 L624.16,468.84 L647.69,472.96 L650.30,469.79 L652.92,467.89 L655.53,460.11 L658.15,455.04 L660.76,445.83 L663.37,504.53 L665.99,502.94 L668.60,504.69 L671.22,508.02 L673.83,503.74 L676.44,514.05 L679.06,514.53 L681.67,511.51 L684.29,506.91 L686.90,500.57 L689.51,499.61 L692.13,498.19 L694.74,493.43 L697.36,512.94 L699.97,513.57 L702.58,512.78 L705.20,510.24 L707.81,521.35 L710.43,523.73 L713.04,520.24 L715.65,518.02 L718.27,498.34 L720.88,496.12 L723.50,502.47 L726.11,497.23 L728.72,509.29 L731.34,516.27 L733.95,517.54 L736.57,542.92 L739.18,535.78 L741.79,520.08 L744.41,503.58 L747.02,492.00 L749.64,493.90 L752.25,481.85 L754.86,473.76 L757.48,476.29 L760.09,490.89 L762.71,491.52 L765.32,479.31 L767.93,481.37 L770.55,476.61 L773.16,475.98 L775.78,475.50 L778.39,475.82 L781.00,472.64 L783.62,486.61 L786.23,470.42 L788.84,466.14 L791.46,469.47 L794.07,474.55 L796.69,476.13 L799.30,482.64 L801.91,482.00 L804.53,496.12 L807.14,497.55 L809.76,482.80 L812.37,486.61 L814.98,480.58 L817.60,478.67 L820.21,478.20 L822.83,467.89 L825.44,457.57 L828.05,470.27 L830.67,465.82 L833.28,476.29 L835.90,483.75 L838.51,485.34 L841.12,500.88 L843.74,530.39 L846.35,533.40 L848.97,533.88 L851.58,532.77 L854.19,526.58 L856.81,521.82 L859.42,511.99 L862.04,502.15 L864.65,500.25 L867.26,501.20 L869.88,496.92 L872.49,495.49 L875.11,489.62 L877.72,487.40 L880.33,467.41 L882.95,455.51 L885.56,452.18 L888.18,447.58 L890.79,450.59 L893.40,451.86 L896.02,459.48 L898.63,488.19 L901.25,493.11 L903.86,494.38 L906.47,495.33 L909.09,493.11 L911.70,493.90 L914.32,480.42 L916.93,465.03 L919.54,458.21 L922.16,453.61 L924.77,461.38 L927.39,460.27 L930.00,466.14" fill="none" stroke="#60a5fa" stroke-width="2.2" stroke-linecap="round" />
</svg>
