<svg xmlns="http://www.w3.org/2000/svg" viewBox="0 0 960 720" width="960" height="720">
<rect width="960" height="720" fill="#0f172a" />
<text x="480" y="28" fill="#e2e8f0" font-size="16" font-weight="700" text-anchor="middle">站立小时数趋势图</text>
<text x="70" y="70" fill="#e2e8f0" font-size="13" font-weight="600">本月分天指标明细</text>
<line x1="70" y1="323.00" x2="930" y2="323.00" stroke="#94a3b8" stroke-opacity="0.18" stroke-width="1" />
<text x="62" y="327.00" fill="#cbd5f5" font-size="10" text-anchor="end">14.1</text>
<line x1="70" y1="260.75" x2="930" y2="260.75" stroke="#94a3b8" stroke-opacity="0.18" stroke-width="1" />
<text x="62" y="264.75" fill="#cbd5f5" font-size="10" text-anchor="end">16.8</text>
<line x1="70" y1="198.50" x2="930" y2="198.50" stroke="#94a3b8" stroke-opacity="0.18" stroke-width="1" />
<text x="62" y="202.50" fill="#cbd5f5" font-size="10" text-anchor="end">19.5</text>
<line x1="70" y1="136.25" x2="930" y2="136.25" stroke="#94a3b8" stroke-opacity="0.18" stroke-width="1" />
<text x="62" y="140.25" fill="#cbd5f5" font-size="10" text-anchor="end">22.2</text>
<line x1="70" y1="74.00" x2="930" y2="74.00" stroke="#94a3b8" stroke-opacity="0.18" stroke-width="1" />
<text x="62" y="78.00" fill="#cbd5f5" font-size="10" text-anchor="end">24.9</text>
<line x1="70.00" y1="323" x2="70.00" y2="327" stroke="#94a3b8" stroke-opacity="0.5" stroke-width="1" />
<text x="70.00" y="341" fill="#cbd5f5" font-size="10" text-anchor="middle">11-19</text>
<line x1="242.00" y1="323" x2="242.00" y2="327" stroke="#94a3b8" stroke-opacity="0.5" stroke-width="1" />
<text x="242.00" y="341" fill="#cbd5f5" font-size="10" text-anchor="middle">11-24</text>
<line x1="414.00" y1="323" x2="414.00" y2="327" stroke="#94a3b8" stroke-opacity="0.5" stroke-width="1" />
<text x="414.00" y="341" fill="#cbd5f5" font-size="10" text-anchor="middle">11-30</text>
<line x1="586.00" y1="323" x2="586.00" y2="327" stroke="#94a3b8" stroke-opacity="0.5" stroke-width="1" />
<text x="586.00" y="341" fill="#cbd5f5" font-size="10" text-anchor="middle">12-06</text>
<line x1="758.00" y1="323" x2="758.00" y2="327" stroke="#94a3b8" stroke-opacity="0.5" stroke-width="1" />
<text x="758.00" y="341" fill="#cbd5f5" font-size="10" text-anchor="middle">12-12</text>
<line x1="930.00" y1="323" x2="930.00" y2="327" stroke="#94a3b8" stroke-opacity="0.5" stroke-width="1" />
<text x="930.00" y="341" fill="#cbd5f5" font-size="10" text-anchor="middle">12-18</text>
<line x1="70" y1="74" x2="70" y2="323" stroke="#94a3b8" stroke-width="1" />
<line x1="70" y1="323" x2="930" y2="323" stroke="#94a3b8" stroke-width="1" />
<path d="M70.00,117.81 L99.66,94.75 L129.31,94.75 L158.97,210.03 L188.62,140.86 L218.28,140.86 L247.93,94.75 L277.59,117.81 L307.24,140.86 L336.90,94.75 L366.55,94.75 L396.21,94.75 L425.86,117.81 L455.52,140.86 L485.17,140.86 L514.83,117.81 L544.48,94.75 L574.14,117.81 L603.79,117.81 L633.45,94.75 L663.10,117.81 L692.76,117.81 L722.41,117.81 L752.07,94.75 L781.72,302.25 L811.38,94.75 L841.03,117.81 L870.69,186.97 L900.34,140.86 L930.00,186.97" fill="none" stroke="#60a5fa" stroke-width="2.2" stroke-linecap="round" />
<circle cx="70.00" cy="117.81" r="3" fill="#60a5fa" stroke="#0f172a" stroke-width="1" />
<text x="70.00" y="107.81" fill="#e2e8f0" font-size="9" text-anchor="middle">23</text>
<circle cx="99.66" cy="94.75" r="3" fill="#60a5fa" stroke="#0f172a" stroke-width="1" />
<text x="99.66" y="108.75" fill="#e2e8f0" font-size="9" text-anchor="middle">24</text>
<circle cx="129.31" cy="94.75" r="3" fill="#60a5fa" stroke="#0f172a" stroke-width="1" />
<text x="129.31" y="84.75" fill="#e2e8f0" font-size="9" text-anchor="middle">24</text>
<circle cx="158.97" cy="210.03" r="3" fill="#60a5fa" stroke="#0f172a" stroke-width="1" />
<text x="158.97" y="190.03" fill="#e2e8f0" font-size="9" text-anchor="middle">19</text>
<circle cx="188.62" cy="140.86" r="3" fill="#60a5fa" stroke="#0f172a" stroke-width="1" />
<text x="188.62" y="130.86" fill="#e2e8f0" font-size="9" text-anchor="middle">22</text>
<circle cx="218.28" cy="140.86" r="3" fill="#60a5fa" stroke="#0f172a" stroke-width="1" />
<text x="218.28" y="120.86" fill="#e2e8f0" font-size="9" text-anchor="middle">22</text>
<circle cx="247.93" cy="94.75" r="3" fill="#60a5fa" stroke="#0f172a" stroke-width="1" />
<text x="247.93" y="84.75" fill="#e2e8f0" font-size="9" text-anchor="middle">24</text>
<circle cx="277.59" cy="117.81" r="3" fill="#60a5fa" stroke="#0f172a" stroke-width="1" />
<text x="277.59" y="97.81" fill="#e2e8f0" font-size="9" text-anchor="middle">23</text>
<circle cx="307.24" cy="140.86" r="3" fill="#60a5fa" stroke="#0f172a" stroke-width="1" />
<text x="307.24" y="130.86" fill="#e2e8f0" font-size="9" text-anchor="middle">22</text>
<circle cx="336.90" cy="94.75" r="3" fill="#60a5fa" stroke="#0f172a" stroke-width="1" />
<text x="336.90" y="108.75" fill="#e2e8f0" font-size="9" text-anchor="middle">24</text>
<circle cx="366.55" cy="94.75" r="3" fill="#60a5fa" stroke="#0f172a" stroke-width="1" />
<text x="366.55" y="84.75" fill="#e2e8f0" font-size="9" text-anchor="middle">24</text>
<circle cx="396.21" cy="94.75" r="3" fill="#60a5fa" stroke="#0f172a" stroke-width="1" />
<text x="396.21" y="108.75" fill="#e2e8f0" font-size="9" text-anchor="middle">24</text>
<circle cx="425.86" cy="117.81" r="3" fill="#60a5fa" stroke="#0f172a" stroke-width="1" />
<text x="425.86" y="107.81" fill="#e2e8f0" font-size="9" text-anchor="middle">23</text>
<circle cx="455.52" cy="140.86" r="3" fill="#60a5fa" stroke="#0f172a" stroke-width="1" />
<text x="455.52" y="120.86" fill="#e2e8f0" font-size="9" text-anchor="middle">22</text>
<circle cx="485.17" cy="140.86" r="3" fill="#60a5fa" stroke="#0f172a" stroke-width="1" />
<text x="485.17" y="130.86" fill="#e2e8f0" font-size="9" text-anchor="middle">22</text>
<circle cx="514.83" cy="117.81" r="3" fill="#60a5fa" stroke="#0f172a" stroke-width="1" />
<text x="514.83" y="97.81" fill="#e2e8f0" font-size="9" text-anchor="middle">23</text>
<circle cx="544.48" cy="94.75" r="3" fill="#60a5fa" stroke="#0f172a" stroke-width="1" />
<text x="544.48" y="84.75" fill="#e2e8f0" font-size="9" text-anchor="middle">24</text>
<circle cx="574.14" cy="117.81" r="3" fill="#60a5fa" stroke="#0f172a" stroke-width="1" />
<text x="574.14" y="97.81" fill="#e2e8f0" font-size="9" text-anchor="middle">23</text>
<circle cx="603.79" cy="117.81" r="3" fill="#60a5fa" stroke="#0f172a" stroke-width="1" />
<text x="603.79" y="107.81" fill="#e2e8f0" font-size="9" text-anchor="middle">23</text>
<circle cx="633.45" cy="94.75" r="3" fill="#60a5fa" stroke="#0f172a" stroke-width="1" />
<text x="633.45" y="108.75" fill="#e2e8f0" font-size="9" text-anchor="middle">24</text>
<circle cx="663.10" cy="117.81" r="3" fill="#60a5fa" stroke="#0f172a" stroke-width="1" />
<text x="663.10" y="107.81" fill="#e2e8f0" font-size="9" text-anchor="middle">23</text>
<circle cx="692.76" cy="117.81" r="3" fill="#60a5fa" stroke="#0f172a" stroke-width="1" />
<text x="692.76" y="97.81" fill="#e2e8f0" font-size="9" text-anchor="middle">23</text>
<circle cx="722.41" cy="117.81" r="3" fill="#60a5fa" stroke="#0f172a" stroke-width="1" />
<text x="722.41" y="107.81" fill="#e2e8f0" font-size="9" text-anchor="middle">23</text>
<circle cx="752.07" cy="94.75" r="3" fill="#60a5fa" stroke="#0f172a" stroke-width="1" />
<text x="752.07" y="108.75" fill="#e2e8f0" font-size="9" text-anchor="middle">24</text>
<circle cx="781.72" cy="302.25" r="3" fill="#60a5fa" stroke="#0f172a" stroke-width="1" />
<text x="781.72" y="292.25" fill="#e2e8f0" font-size="9" text-anchor="middle">15</text>
<circle cx="811.38" cy="94.75" r="3" fill="#60a5fa" stroke="#0f172a" stroke-width="1" />
<text x="811.38" y="108.75" fill="#e2e8f0" font-size="9" text-anchor="middle">24</text>
<circle cx="841.03" cy="117.81" r="3" fill="#60a5fa" stroke="#0f172a" stroke-width="1" />
<text x="841.03" y="107.81" fill="#e2e8f0" font-size="9" text-anchor="middle">23</text>
<circle cx="870.69" cy="186.97" r="3" fill="#60a5fa" stroke="#0f172a" stroke-width="1" />
<text x="870.69" y="166.97" fill="#e2e8f0" font-size="9" text-anchor="middle">20</text>
<circle cx="900.34" cy="140.86" r="3" fill="#60a5fa" stroke="#0f172a" stroke-width="1" />
<text x="900.34" y="130.86" fill="#e2e8f0" font-size="9" text-anchor="middle">22</text>
<circle cx="930.00" cy="186.97" r="3" fill="#60a5fa" stroke="#0f172a" stroke-width="1" />
<text x="930.00" y="166.97" fill="#e2e8f0" font-size="9" text-anchor="middle">20</text>
<text x="70" y="403" fill="#e2e8f0" font-size="13" font-weight="600">本年核心指标趋势（滑动7日窗口平均）</text>
<line x1="70" y1="656.00" x2="930" y2="656.00" stroke="#94a3b8" stroke-opacity="0.18" stroke-width="1" />
<text x="62" y="660.00" fill="#cbd5f5" font-size="10" text-anchor="end">1.97</text>
<line x1="70" y1="593.75" x2="930" y2="593.75" stroke="#94a3b8" stroke-opacity="0.18" stroke-width="1" />
<text x="62" y="597.75" fill="#cbd5f5" font-size="10" text-anchor="end">8.06</text>
<line x1="70" y1="531.50" x2="930" y2="531.50" stroke="#94a3b8" stroke-opacity="0.18" stroke-width="1" />
<text x="62" y="535.50" fill="#cbd5f5" font-size="10" text-anchor="end">14.1</text>
<line x1="70" y1="469.25" x2="930" y2="469.25" stroke="#94a3b8" stroke-opacity="0.18" stroke-width="1" />
<text x="62" y="473.25" fill="#cbd5f5" font-size="10" text-anchor="end">20.2</text>
<line x1="70" y1="407.00" x2="930" y2="407.00" stroke="#94a3b8" stroke-opacity="0.18" stroke-width="1" />
<text x="62" y="411.00" fill="#cbd5f5" font-size="10" text-anchor="end">26.3</text>
<line x1="70.00" y1="656" x2="70.00" y2="660" stroke="#94a3b8" stroke-opacity="0.5" stroke-width="1" />
<text x="70.00" y="674" fill="#cbd5f5" font-size="10" text-anchor="middle">2025-01</text>
<line x1="242.00" y1="656" x2="242.00" y2="660" stroke="#94a3b8" stroke-opacity="0.5" stroke-width="1" />
<text x="242.00" y="674" fill="#cbd5f5" font-size="10" text-anchor="middle">2025-03</text>
<line x1="414.00" y1="656" x2="414.00" y2="660" stroke="#94a3b8" stroke-opacity="0.5" stroke-width="1" />
<text x="414.00" y="674" fill="#cbd5f5" font-size="10" text-anchor="middle">2025-06</text>
<line x1="586.00" y1="656" x2="586.00" y2="660" stroke="#94a3b8" stroke-opacity="0.5" stroke-width="1" />
<text x="586.00" y="674" fill="#cbd5f5" font-size="10" text-anchor="middle">2025-08</text>
<line x1="758.00" y1="656" x2="758.00" y2="660" stroke="#94a3b8" stroke-opacity="0.5" stroke-width="1" />
<text x="758.00" y="674" fill="#cbd5f5" font-size="10" text-anchor="middle">2025-10</text>
<line x1="930.00" y1="656" x2="930.00" y2="660" stroke="#94a3b8" stroke-opacity="0.5" stroke-width="1" />
<text x="930.00" y="674" fill="#cbd5f5" font-size="10" text-anchor="middle">2025-12</text>
<line x1="70" y1="407" x2="70" y2="656" stroke="#94a3b8" stroke-width="1" />
<line x1="70" y1="656" x2="930" y2="656" stroke="#94a3b8" stroke-width="1" />
<path d="M70.00,656.00 L70.00,635.25 L72.61,538.08 L75.23,509.09 L77.84,489.49 L80.46,477.73 L83.07,471.59 L85.68,467.20 L88.30,439.44 L90.91,437.98 L93.53,437.98 L96.14,439.44 L98.75,439.44 L101.37,440.90 L103.98,442.36 L106.60,440.90 L109.21,440.90 L111.82,437.98 L114.44,437.98 L117.05,439.44 L119.67,439.44 L122.28,437.98 L124.89,439.44 L127.51,439.44 L130.12,439.44 L132.74,437.98 L135.35,436.52 L137.96,437.98 L140.58,439.44 L143.19,437.98 L145.81,437.98 L148.42,437.98 L151.03,437.98 L153.65,437.98 L156.26,433.60 L158.88,433.60 L161.49,436.52 L164.10,437.98 L166.72,437.98 L169.33,443.82 L171.95,452.59 L174.56,452.59 L177.17,452.59 L179.79,451.13 L182.40,449.67 L185.02,449.67 L187.63,445.29 L190.24,437.98 L192.86,437.98 L195.47,436.52 L198.09,436.52 L200.70,439.44 L203.31,439.44 L205.93,437.98 L208.54,437.98 L211.16,437.98 L213.77,437.98 L216.38,439.44 L219.00,439.44 L221.61,439.44 L224.22,439.44 L226.84,437.98 L229.45,439.44 L232.07,437.98 L234.68,436.52 L237.29,433.60 L239.91,433.60 L242.52,433.60 L245.14,435.06 L247.75,435.06 L250.36,435.06 L252.98,435.06 L255.59,435.06 L258.21,435.06 L260.82,436.52 L263.43,436.52 L266.05,435.06 L268.66,437.98 L271.28,437.98 L273.89,439.44 L276.50,439.44 L279.12,437.98 L281.73,437.98 L284.35,439.44 L286.96,437.98 L289.57,437.98 L292.19,437.98 L294.80,439.44 L297.42,439.44 L300.03,439.44 L302.64,439.44 L305.26,437.98 L307.87,436.52 L310.49,435.06 L313.10,436.52 L315.71,436.52 L318.33,436.52 L320.94,435.06 L323.56,435.06 L326.17,439.44 L328.78,439.44 L331.40,439.44 L334.01,440.90 L336.63,442.36 L339.24,443.82 L341.85,443.82 L344.47,442.36 L347.08,443.82 L349.70,443.82 L352.31,443.82 L354.92,440.90 L357.54,440.90 L360.15,442.36 L362.77,442.36 L365.38,442.36 L367.99,440.90 L370.61,439.44 L373.22,442.36 L375.84,442.36 L378.45,443.82 L381.06,443.82 L383.68,443.82 L386.29,443.82 L388.91,443.82 L391.52,443.82 L394.13,443.82 L396.75,440.90 L399.36,437.98 L401.98,437.98 L404.59,436.52 L407.20,437.98 L409.82,429.21 L412.43,427.75 L415.05,429.21 L417.66,432.13 L420.27,433.60 L422.89,435.06 L425.50,433.60 L428.12,440.90 L430.73,442.36 L433.34,445.29 L435.96,445.29 L438.57,443.82 L441.19,443.82 L443.80,443.82 L446.41,442.36 L449.03,442.36 L451.64,437.98 L454.26,435.06 L456.87,436.52 L459.48,436.52 L462.10,437.98 L464.71,439.44 L467.33,440.90 L469.94,442.36 L472.55,443.82 L475.17,445.29 L477.78,443.82 L480.40,443.82 L483.01,448.21 L485.62,445.29 L488.24,445.29 L490.85,449.67 L493.47,445.29 L496.08,445.29 L498.69,448.21 L501.31,446.75 L503.92,448.21 L506.53,448.21 L509.15,448.21 L511.76,451.13 L514.38,452.59 L516.99,448.21 L519.60,451.13 L522.22,452.59 L524.83,451.13 L527.45,445.29 L530.06,443.82 L532.67,443.82 L535.29,443.82 L537.90,437.98 L540.52,435.06 L543.13,436.52 L545.74,436.52 L548.36,436.52 L550.97,437.98 L553.59,448.21 L556.20,451.13 L558.81,452.59 L561.43,454.05 L564.04,455.51 L566.66,455.51 L569.27,454.05 L571.88,443.82 L574.50,439.44 L577.11,437.98 L579.73,436.52 L582.34,437.98 L584.95,436.52 L587.57,436.52 L590.18,442.36 L592.80,449.67 L595.41,454.05 L598.02,454.05 L600.64,452.59 L603.25,454.05 L605.87,452.59 L608.48,461.36 L611.09,455.51 L613.71,451.13 L616.32,465.74 L618.94,474.51 L621.55,473.05 L624.16,478.89 L647.69,481.82 L650.30,480.36 L652.92,490.58 L655.53,478.89 L658.15,471.59 L660.76,474.51 L663.37,470.13 L665.99,454.05 L668.60,454.05 L671.22,445.29 L673.83,442.36 L676.44,440.90 L679.06,437.98 L681.67,436.52 L684.29,440.90 L686.90,440.90 L689.51,442.36 L692.13,442.36 L694.74,445.29 L697.36,445.29 L699.97,449.67 L702.58,448.21 L705.20,448.21 L707.81,445.29 L710.43,448.21 L713.04,443.82 L715.65,443.82 L718.27,439.44 L720.88,435.06 L723.50,440.90 L726.11,442.36 L728.72,437.98 L731.34,437.98 L733.95,439.44 L736.57,445.29 L739.18,448.21 L741.79,442.36 L744.41,442.36 L747.02,443.82 L749.64,456.98 L752.25,456.98 L754.86,451.13 L757.48,451.13 L760.09,451.13 L762.71,451.13 L765.32,449.67 L767.93,436.52 L770.55,435.06 L773.16,435.06 L775.78,435.06 L778.39,436.52 L781.00,436.52 L783.62,442.36 L786.23,442.36 L788.84,442.36 L791.46,442.36 L794.07,440.90 L796.69,439.44 L799.30,439.44 L801.91,435.06 L804.53,435.06 L807.14,435.06 L809.76,436.52 L812.37,443.82 L814.98,445.29 L817.60,443.82 L820.21,443.82 L822.83,443.82 L825.44,449.67 L828.05,451.13 L830.67,443.82 L833.28,446.75 L835.90,452.59 L838.51,452.59 L841.12,452.59 L843.74,448.21 L846.35,446.75 L848.97,445.29 L851.58,443.82 L854.19,439.44 L856.81,437.98 L859.42,437.98 L862.04,443.82 L864.65,445.29 L867.26,448.21 L869.88,445.29 L872.49,445.29 L875.11,448.21 L877.72,448.21 L880.33,440.90 L882.95,437.98 L885.56,436.52 L888.18,439.44 L890.79,440.90 L893.40,439.44 L896.02,439.44 L898.63,440.90 L901.25,442.36 L903.86,440.90 L906.47,439.44 L909.09,437.98 L911.70,437.98 L914.32,437.98 L916.93,449.67 L919.54,448.21 L922.16,449.67 L924.77,454.05 L927.39,455.51 L930.00,459.90 L930.00,656.00 Z" fill="#60a5fa" fill-opacity="0.16" stroke="none" />
<path d="M70.00,635.25 L72.61,538.08 L75.23,509.09 L77.84,489.49 L80.46,477.73 L83.07,471.59 L85.68,467.20 L88.30,439.44 L90.91,437.98 L93.53,437.98 L96.14,439.44 L98.75,439.44 L101.37,440.90 L103.98,442.36 L106.60,440.90 L109.21,440.90 L111.82,437.98 L114.44,437.98 L117.05,439.44 L119.67,439.44 L122.28,437.98 L124.89,439.44 L127.51,439.44 L130.12,439.44 L132.74,437.98 L135.35,436.52 L137.96,437.98 L140.58,439.44 L143.19,437.98 L145.81,437.98 L148.42,437.98 L151.03,437.98 L153.65,437.98 L156.26,433.60 L158.88,433.60 L161.49,436.52 L164.10,437.98 L166.72,437.98 L169.33,443.82 L171.95,452.59 L174.56,452.59 L177.17,452.59 L179.79,451.13 L182.40,449.67 L185.02,449.67 L187.63,445.29 L190.24,437.98 L192.86,437.98 L195.47,436.52 L198.09,436.52 L200.70,439.44 L203.31,439.44 L205.93,437.98 L208.54,437.98 L211.16,437.98 L213.77,437.98 L216.38,439.44 L219.00,439.44 L221.61,439.44 L224.22,439.44 L226.84,437.98 L229.45,439.44 L232.07,437.98 L234.68,436.52 L237.29,433.60 L239.91,433.60 L242.52,433.60 L245.14,435.06 L247.75,435.06 L250.36,435.06 L252.98,435.06 L255.59,435.06 L258.21,435.06 L260.82,436.52 L263.43,436.52 L266.05,435.06 L268.66,437.98 L271.28,437.98 L273.89,439.44 L276.50,439.44 L279.12,437.98 L281.73,437.98 L284.35,439.44 L286.96,437.98 L289.57,437.98 L292.19,437.98 L294.80,439.44 L297.42,439.44 L300.03,439.44 L302.64,439.44 L305.26,437.98 L307.87,436.52 L310.49,435.06 L313.10,436.52 L315.71,436.52 L318.33,436.52 L320.94,435.06 L323.56,435.06 L326.17,439.44 L328.78,439.44 L331.40,439.44 L334.01,440.90 L336.63,442.36 L339.24,443.82 L341.85,443.82 L344.47,442.36 L347.08,443.82 L349.70,443.82 L352.31,443.82 L354.92,440.90 L357.54,440.90 L360.15,442.36 L362.77,442.36 L365.38,442.36 L367.99,440.90 L370.61,439.44 L373.22,442.36 L375.84,442.36 L378.45,443.82 L381.06,443.82 L383.68,443.82 L386.29,443.82 L388.91,443.82 L391.52,443.82 L394.13,443.82 L396.75,440.90 L399.36,437.98 L401.98,437.98 L404.59,436.52 L407.20,437.98 L409.82,429.21 L412.43,427.75 L415.05,429.21 L417.66,432.13 L420.27,433.60 L422.89,435.06 L425.50,433.60 L428.12,440.90 L430.73,442.36 L433.34,445.29 L435.96,445.29 L438.57,443.82 L441.19,443.82 L443.80,443.82 L446.41,442.36 L449.03,442.36 L451.64,437.98 L454.26,435.06 L456.87,436.52 L459.48,436.52 L462.10,437.98 L464.71,439.44 L467.33,440.90 L469.94,442.36 L472.55,443.82 L475.17,445.29 L477.78,443.82 L480.40,443.82 L483.01,448.21 L485.62,445.29 L488.24,445.29 L490.85,449.67 L493.47,445.29 L496.08,445.29 L498.69,448.21 L501.31,446.75 L503.92,448.21 L506.53,448.21 L509.15,448.21 L511.76,451.13 L514.38,452.59 L516.99,448.21 L519.60,451.13 L522.22,452.59 L524.83,451.13 L527.45,445.29 L530.06,443.82 L532.67,443.82 L535.29,443.82 L537.90,437.98 L540.52,435.06 L543.13,436.52 L545.74,436.52 L548.36,436.52 L550.97,437.98 L553.59,448.21 L556.20,451.13 L558.81,452.59 L561.43,454.05 L564.04,455.51 L566.66,455.51 L569.27,454.05 L571.88,443.82 L574.50,439.44 L577.11,437.98 L579.73,436.52 L582.34,437.98 L584.95,436.52 L587.57,436.52 L590.18,442.36 L592.80,449.67 L595.41,454.05 L598.02,454.05 L600.64,452.59 L603.25,454.05 L605.87,452.59 L608.48,461.36 L611.09,455.51 L613.71,451.13 L616.32,465.74 L618.94,474.51 L621.55,473.05 L624.16,478.89 L647.69,481.82 L650.30,480.36 L652.92,490.58 L655.53,478.89 L658.15,471.59 L660.76,474.51 L663.37,470.13 L665.99,454.05 L668.60,454.05 L671.22,445.29 L673.83,442.36 L676.44,440.90 L679.06,437.98 L681.67,436.52 L684.29,440.90 L686.90,440.90 L689.51,442.36 L692.13,442.36 L694.74,445.29 L697.36,445.29 L699.97,449.67 L702.58,448.21 L705.20,448.21 L707.81,445.29 L710.43,448.21 L713.04,443.82 L715.65,443.82 L718.27,439.44 L720.88,435.06 L723.50,440.90 L726.11,442.36 L728.72,437.98 L731.34,437.98 L733.95,439.44 L736.57,445.29 L739.18,448.21 L741.79,442.36 L744.41,442.36 L747.02,443.82 L749.64,456.98 L752.25,456.98 L754.86,451.13 L757.48,451.13 L760.09,451.13 L762.71,451.13 L765.32,449.67 L767.93,436.52 L770.55,435.06 L773.16,435.06 L775.78,435.06 L778.39,436.52 L781.00,436.52 L783.62,442.36 L786.23,442.36 L788.84,442.36 L791.46,442.36 L794.07,440.90 L796.69,439.44 L799.30,439.44 L801.91,435.06 L804.53,435.06 L807.14,435.06 L809.76,436.52 L812.37,443.82 L814.98,445.29 L817.60,443.82 L820.21,443.82 L822.83,443.82 L825.44,449.67 L828.05,451.13 L830.67,443.82 L833.28,446.75 L835.90,452.59 L838.51,452.59 L841.12,452.59 L843.74,448.21 L846.35,446.75 L848.97,445.29 L851.58,443.82 L854.19,439.44 L856.81,437.98 L859.42,437.98 L862.04,443.82 L864.65,445.29 L867.26,448.21 L869.88,445.29 L872.49,445.29 L875.11,448.21 L877.72,448.21 L880.33,440.90 L882.95,437.98 L885.56,436.52 L888.18,439.44 L890.79,440.90 L893.40,439.44 L896.02,439.44 L898.63,440.90 L901.25,442.36 L903.86,440.90 L906.47,439.44 L909.09,437.98 L911.70,437.98 L914.32,437.98 L916.93,449.67 L919.54,448.21 L922.16,449.67 L924.77,454.05 L927.39,455.51 L930.00,459.90" fill="none" stroke="#60a5fa" stroke-width="2.2" stroke-linecap="round" />
</svg>
