<svg xmlns="http://www.w3.org/2000/svg" viewBox="0 0 960 640" width="960" height="640">
  <rect width="960" height="640" fill="#0f172a" />
  <line x1="40" y1="40.00" x2="920.00" y2="40.00" stroke="#94a3b8" stroke-opacity="0.18" stroke-width="1" /><line x1="40" y1="128.00" x2="920.00" y2="128.00" stroke="#94a3b8" stroke-opacity="0.18" stroke-width="1" /><line x1="40" y1="216.00" x2="920.00" y2="216.00" stroke="#94a3b8" stroke-opacity="0.18" stroke-width="1" /><line x1="40" y1="304.00" x2="920.00" y2="304.00" stroke="#94a3b8" stroke-opacity="0.18" stroke-width="1" />
  <line x1="40" y1="336.00" x2="920.00" y2="336.00" stroke="#94a3b8" stroke-opacity="0.18" stroke-width="1" /><line x1="40" y1="424.00" x2="920.00" y2="424.00" stroke="#94a3b8" stroke-opacity="0.18" stroke-width="1" /><line x1="40" y1="512.00" x2="920.00" y2="512.00" stroke="#94a3b8" stroke-opacity="0.18" stroke-width="1" /><line x1="40" y1="600.00" x2="920.00" y2="600.00" stroke="#94a3b8" stroke-opacity="0.18" stroke-width="1" />
  <line x1="40" y1="320.00" x2="920.00" y2="320.00" stroke="#1f2937" stroke-width="1" />
  <polyline points="40.00,140.14 70.34,225.10 100.69,164.41 131.03,40.00 161.38,285.79 191.72,228.14 222.07,246.34 252.41,155.31 282.76,94.62 313.10,285.79 343.45,231.17 373.79,288.83 404.14,267.59 434.48,146.21 464.83,91.59 495.17,216.00 525.52,300.97 555.86,285.79 586.21,170.48 616.55,149.24 646.90,194.76 677.24,258.48 707.59,191.72 737.93,243.31 768.28,304.00 798.62,270.62 828.97,237.24 859.31,167.45 889.66,112.83 920.00,140.14" fill="none" stroke="#60a5fa" stroke-width="2" stroke-linecap="round" stroke-linejoin="round" />
  <polyline points="40.00,600.00 42.74,547.70 45.48,558.49 48.22,558.91 50.97,567.12 53.71,564.72 56.45,561.93 59.19,561.93 61.93,556.95 64.67,541.65 67.41,546.99 70.16,535.96 72.90,536.31 75.64,538.45 78.38,533.82 81.12,550.19 83.86,561.93 86.60,558.73 89.35,556.95 92.09,556.24 94.83,558.37 97.57,550.19 100.31,547.70 103.05,550.19 105.79,525.99 108.54,530.26 111.28,531.33 114.02,508.92 116.76,518.88 119.50,509.27 122.24,501.09 124.98,505.00 127.73,510.34 130.47,501.44 133.21,510.70 135.95,496.46 138.69,499.31 141.43,505.71 144.17,438.47 146.92,434.20 149.66,422.46 152.40,430.29 155.14,417.83 157.88,412.50 160.62,395.42 163.36,484.37 166.11,478.32 168.85,484.72 171.59,476.89 174.33,500.02 177.07,502.51 179.81,522.44 182.55,519.59 185.30,527.06 188.04,545.56 190.78,539.87 193.52,524.57 196.26,525.99 199.00,516.39 201.74,498.60 204.49,502.51 207.23,485.08 209.97,488.99 212.71,479.74 215.45,491.48 218.19,495.04 220.93,509.63 223.68,488.99 226.42,486.15 229.16,483.30 231.90,499.31 234.64,480.10 237.38,479.39 240.12,482.94 242.87,500.38 245.61,503.58 248.35,498.24 251.09,486.86 253.83,491.48 256.57,496.46 259.31,497.53 262.06,476.89 264.80,470.85 267.54,470.13 270.28,465.15 273.02,454.84 275.76,410.01 278.50,403.25 281.25,412.14 283.99,433.49 286.73,436.69 289.47,440.96 292.21,457.33 294.95,488.99 297.69,490.06 300.44,499.31 303.18,482.59 305.92,496.46 308.66,520.30 311.40,513.90 314.14,507.49 316.88,503.22 319.63,478.32 322.37,496.82 325.11,485.79 327.85,466.58 330.59,481.52 333.33,481.88 336.07,426.02 338.82,444.52 341.56,431.00 344.30,438.11 347.04,438.47 349.78,433.49 352.52,452.35 355.26,518.88 358.01,517.81 360.75,523.86 363.49,521.73 366.23,517.46 368.97,521.37 371.71,519.95 374.45,519.59 377.20,518.88 379.94,521.01 382.68,527.77 385.42,545.21 388.16,537.02 390.90,533.47 393.64,524.57 396.39,387.59 399.13,378.34 401.87,372.29 404.61,370.51 407.35,376.56 410.09,380.47 412.83,383.32 415.58,526.71 418.32,530.98 421.06,522.79 423.80,513.90 426.54,503.58 429.28,506.78 432.02,512.83 434.77,513.90 437.51,519.59 440.25,526.71 442.99,516.03 445.73,508.20 448.47,491.48 451.21,466.22 453.96,469.07 456.70,443.81 459.44,435.27 462.18,436.33 464.92,452.70 467.66,447.72 470.40,468.00 473.15,464.09 475.89,469.07 478.63,487.57 481.37,502.87 484.11,505.00 486.85,520.66 489.60,519.95 492.34,522.44 495.08,530.26 497.82,513.90 500.56,504.29 503.30,506.07 506.04,502.51 508.79,496.46 511.53,482.59 514.27,489.35 517.01,507.14 519.75,520.66 522.49,511.76 525.23,512.12 527.98,523.50 530.72,529.20 533.46,518.88 536.20,519.23 538.94,504.29 541.68,503.94 544.42,495.40 547.17,495.40 549.91,505.71 552.65,520.30 555.39,513.90 558.13,516.74 560.87,515.32 563.61,533.11 566.36,519.59 569.10,522.08 571.84,525.64 574.58,521.37 577.32,537.74 580.06,544.14 582.80,536.67 585.55,534.89 588.29,532.75 591.03,528.13 593.77,537.02 596.51,531.33 599.25,523.50 601.99,506.43 604.74,497.18 607.48,490.77 610.22,488.99 612.96,493.62 615.70,503.58 618.44,518.17 621.18,378.34 623.93,402.89 626.67,402.18 629.41,395.06 632.15,379.76 634.89,358.42 637.63,336.00 640.37,499.67 643.12,499.31 645.86,488.99 648.60,494.33 651.34,487.57 654.08,483.30 656.82,470.85 659.56,469.42 662.31,462.66 665.05,466.58 667.79,466.22 670.53,468.36 673.27,476.18 676.01,509.27 678.75,509.27 681.50,511.76 684.24,500.02 686.98,511.41 689.72,513.90 692.46,512.47 695.20,509.63 697.94,491.84 700.69,489.70 703.43,495.75 706.17,489.35 708.91,508.92 711.65,509.63 714.39,512.83 717.13,534.53 719.88,534.18 722.62,542.36 725.36,545.92 728.10,540.23 730.84,555.88 733.58,553.04 736.32,538.45 739.07,535.96 741.81,539.51 744.55,518.88 747.29,500.02 750.03,499.31 752.77,466.58 755.51,475.12 758.26,458.39 761.00,447.01 763.74,447.72 766.48,452.70 769.22,449.85 771.96,449.85 774.70,445.58 777.45,465.15 780.19,475.47 782.93,487.21 785.67,486.15 788.41,489.35 791.15,512.12 793.89,490.42 796.64,491.84 799.38,474.76 802.12,463.73 804.86,470.49 807.60,465.87 810.34,412.85 813.08,439.89 815.83,441.67 818.57,466.22 821.31,476.54 824.05,484.01 826.79,487.92 829.53,552.68 832.27,555.17 835.02,554.10 837.76,553.75 840.50,544.50 843.24,538.45 845.98,524.22 848.72,493.62 851.46,491.84 854.21,487.92 856.95,484.01 859.69,485.79 862.43,470.49 865.17,484.72 867.91,507.14 870.65,507.49 873.40,512.12 876.14,500.38 878.88,492.91 881.62,507.14 884.36,508.92 887.10,515.32 889.84,501.44 892.59,487.57 895.33,493.26 898.07,512.83 900.81,509.98 903.55,503.22 906.29,505.36 909.03,517.10 911.78,527.42 914.52,524.22 917.26,507.14 920.00,501.09" fill="none" stroke="#60a5fa" stroke-width="2" stroke-linecap="round" stroke-linejoin="round" />
  
  
  </svg>