<svg xmlns="http://www.w3.org/2000/svg" viewBox="0 0 960 720" width="960" height="720">
<rect width="960" height="720" fill="#0f172a" />
<text x="480" y="28" fill="#e2e8f0" font-size="16" font-weight="700" text-anchor="middle">站立小时数趋势图</text>
<text x="70" y="70" fill="#e2e8f0" font-size="13" font-weight="600">本月分天指标明细</text>
<line x1="70" y1="323.00" x2="930" y2="323.00" stroke="#94a3b8" stroke-opacity="0.18" stroke-width="1" />
<text x="62" y="327.00" fill="#cbd5f5" font-size="10" text-anchor="end">10.8</text>
<line x1="70" y1="260.75" x2="930" y2="260.75" stroke="#94a3b8" stroke-opacity="0.18" stroke-width="1" />
<text x="62" y="264.75" fill="#cbd5f5" font-size="10" text-anchor="end">14.4</text>
<line x1="70" y1="198.50" x2="930" y2="198.50" stroke="#94a3b8" stroke-opacity="0.18" stroke-width="1" />
<text x="62" y="202.50" fill="#cbd5f5" font-size="10" text-anchor="end">18</text>
<line x1="70" y1="136.25" x2="930" y2="136.25" stroke="#94a3b8" stroke-opacity="0.18" stroke-width="1" />
<text x="62" y="140.25" fill="#cbd5f5" font-size="10" text-anchor="end">21.6</text>
<line x1="70" y1="74.00" x2="930" y2="74.00" stroke="#94a3b8" stroke-opacity="0.18" stroke-width="1" />
<text x="62" y="78.00" fill="#cbd5f5" font-size="10" text-anchor="end">25.2</text>
<line x1="70.00" y1="323" x2="70.00" y2="327" stroke="#94a3b8" stroke-opacity="0.5" stroke-width="1" />
<text x="70.00" y="341" fill="#cbd5f5" font-size="10" text-anchor="middle">11-22</text>
<line x1="242.00" y1="323" x2="242.00" y2="327" stroke="#94a3b8" stroke-opacity="0.5" stroke-width="1" />
<text x="242.00" y="341" fill="#cbd5f5" font-size="10" text-anchor="middle">11-27</text>
<line x1="414.00" y1="323" x2="414.00" y2="327" stroke="#94a3b8" stroke-opacity="0.5" stroke-width="1" />
<text x="414.00" y="341" fill="#cbd5f5" font-size="10" text-anchor="middle">12-03</text>
<line x1="586.00" y1="323" x2="586.00" y2="327" stroke="#94a3b8" stroke-opacity="0.5" stroke-width="1" />
<text x="586.00" y="341" fill="#cbd5f5" font-size="10" text-anchor="middle">12-09</text>
<line x1="758.00" y1="323" x2="758.00" y2="327" stroke="#94a3b8" stroke-opacity="0.5" stroke-width="1" />
<text x="758.00" y="341" fill="#cbd5f5" font-size="10" text-anchor="middle">12-15</text>
<line x1="930.00" y1="323" x2="930.00" y2="327" stroke="#94a3b8" stroke-opacity="0.5" stroke-width="1" />
<text x="930.00" y="341" fill="#cbd5f5" font-size="10" text-anchor="middle">12-21</text>
<line x1="70" y1="74" x2="70" y2="323" stroke="#94a3b8" stroke-width="1" />
<line x1="70" y1="323" x2="930" y2="323" stroke="#94a3b8" stroke-width="1" />
<path d="M70.00,181.21 L99.66,129.33 L129.31,129.33 L158.97,94.75 L188.62,112.04 L218.28,129.33 L247.93,94.75 L277.59,94.75 L307.24,94.75 L336.90,112.04 L366.55,129.33 L396.21,129.33 L425.86,112.04 L455.52,94.75 L485.17,112.04 L514.83,112.04 L544.48,94.75 L574.14,112.04 L603.79,112.04 L633.45,112.04 L663.10,94.75 L692.76,250.38 L722.41,94.75 L752.07,112.04 L781.72,163.92 L811.38,129.33 L841.03,129.33 L870.69,146.63 L900.34,94.75 L930.00,302.25" fill="none" stroke="#60a5fa" stroke-width="2.2" stroke-linecap="round" />
<circle cx="70.00" cy="181.21" r="3" fill="#60a5fa" stroke="#0f172a" stroke-width="1" />
<text x="70.00" y="171.21" fill="#e2e8f0" font-size="9" text-anchor="middle">19</text>
<circle cx="99.66" cy="129.33" r="3" fill="#60a5fa" stroke="#0f172a" stroke-width="1" />
<text x="99.66" y="109.33" fill="#e2e8f0" font-size="9" text-anchor="middle">22</text>
<circle cx="129.31" cy="129.33" r="3" fill="#60a5fa" stroke="#0f172a" stroke-width="1" />
<text x="129.31" y="119.33" fill="#e2e8f0" font-size="9" text-anchor="middle">22</text>
<circle cx="158.97" cy="94.75" r="3" fill="#60a5fa" stroke="#0f172a" stroke-width="1" />
<text x="158.97" y="108.75" fill="#e2e8f0" font-size="9" text-anchor="middle">24</text>
<circle cx="188.62" cy="112.04" r="3" fill="#60a5fa" stroke="#0f172a" stroke-width="1" />
<text x="188.62" y="102.04" fill="#e2e8f0" font-size="9" text-anchor="middle">23</text>
<circle cx="218.28" cy="129.33" r="3" fill="#60a5fa" stroke="#0f172a" stroke-width="1" />
<text x="218.28" y="109.33" fill="#e2e8f0" font-size="9" text-anchor="middle">22</text>
<circle cx="247.93" cy="94.75" r="3" fill="#60a5fa" stroke="#0f172a" stroke-width="1" />
<text x="247.93" y="84.75" fill="#e2e8f0" font-size="9" text-anchor="middle">24</text>
<circle cx="277.59" cy="94.75" r="3" fill="#60a5fa" stroke="#0f172a" stroke-width="1" />
<text x="277.59" y="108.75" fill="#e2e8f0" font-size="9" text-anchor="middle">24</text>
<circle cx="307.24" cy="94.75" r="3" fill="#60a5fa" stroke="#0f172a" stroke-width="1" />
<text x="307.24" y="84.75" fill="#e2e8f0" font-size="9" text-anchor="middle">24</text>
<circle cx="336.90" cy="112.04" r="3" fill="#60a5fa" stroke="#0f172a" stroke-width="1" />
<text x="336.90" y="92.04" fill="#e2e8f0" font-size="9" text-anchor="middle">23</text>
<circle cx="366.55" cy="129.33" r="3" fill="#60a5fa" stroke="#0f172a" stroke-width="1" />
<text x="366.55" y="119.33" fill="#e2e8f0" font-size="9" text-anchor="middle">22</text>
<circle cx="396.21" cy="129.33" r="3" fill="#60a5fa" stroke="#0f172a" stroke-width="1" />
<text x="396.21" y="109.33" fill="#e2e8f0" font-size="9" text-anchor="middle">22</text>
<circle cx="425.86" cy="112.04" r="3" fill="#60a5fa" stroke="#0f172a" stroke-width="1" />
<text x="425.86" y="102.04" fill="#e2e8f0" font-size="9" text-anchor="middle">23</text>
<circle cx="455.52" cy="94.75" r="3" fill="#60a5fa" stroke="#0f172a" stroke-width="1" />
<text x="455.52" y="108.75" fill="#e2e8f0" font-size="9" text-anchor="middle">24</text>
<circle cx="485.17" cy="112.04" r="3" fill="#60a5fa" stroke="#0f172a" stroke-width="1" />
<text x="485.17" y="102.04" fill="#e2e8f0" font-size="9" text-anchor="middle">23</text>
<circle cx="514.83" cy="112.04" r="3" fill="#60a5fa" stroke="#0f172a" stroke-width="1" />
<text x="514.83" y="92.04" fill="#e2e8f0" font-size="9" text-anchor="middle">23</text>
<circle cx="544.48" cy="94.75" r="3" fill="#60a5fa" stroke="#0f172a" stroke-width="1" />
<text x="544.48" y="84.75" fill="#e2e8f0" font-size="9" text-anchor="middle">24</text>
<circle cx="574.14" cy="112.04" r="3" fill="#60a5fa" stroke="#0f172a" stroke-width="1" />
<text x="574.14" y="92.04" fill="#e2e8f0" font-size="9" text-anchor="middle">23</text>
<circle cx="603.79" cy="112.04" r="3" fill="#60a5fa" stroke="#0f172a" stroke-width="1" />
<text x="603.79" y="102.04" fill="#e2e8f0" font-size="9" text-anchor="middle">23</text>
<circle cx="633.45" cy="112.04" r="3" fill="#60a5fa" stroke="#0f172a" stroke-width="1" />
<text x="633.45" y="92.04" fill="#e2e8f0" font-size="9" text-anchor="middle">23</text>
<circle cx="663.10" cy="94.75" r="3" fill="#60a5fa" stroke="#0f172a" stroke-width="1" />
<text x="663.10" y="84.75" fill="#e2e8f0" font-size="9" text-anchor="middle">24</text>
<circle cx="692.76" cy="250.38" r="3" fill="#60a5fa" stroke="#0f172a" stroke-width="1" />
<text x="692.76" y="230.38" fill="#e2e8f0" font-size="9" text-anchor="middle">15</text>
<circle cx="722.41" cy="94.75" r="3" fill="#60a5fa" stroke="#0f172a" stroke-width="1" />
<text x="722.41" y="84.75" fill="#e2e8f0" font-size="9" text-anchor="middle">24</text>
<circle cx="752.07" cy="112.04" r="3" fill="#60a5fa" stroke="#0f172a" stroke-width="1" />
<text x="752.07" y="92.04" fill="#e2e8f0" font-size="9" text-anchor="middle">23</text>
<circle cx="781.72" cy="163.92" r="3" fill="#60a5fa" stroke="#0f172a" stroke-width="1" />
<text x="781.72" y="153.92" fill="#e2e8f0" font-size="9" text-anchor="middle">20</text>
<circle cx="811.38" cy="129.33" r="3" fill="#60a5fa" stroke="#0f172a" stroke-width="1" />
<text x="811.38" y="109.33" fill="#e2e8f0" font-size="9" text-anchor="middle">22</text>
<circle cx="841.03" cy="129.33" r="3" fill="#60a5fa" stroke="#0f172a" stroke-width="1" />
<text x="841.03" y="119.33" fill="#e2e8f0" font-size="9" text-anchor="middle">22</text>
<circle cx="870.69" cy="146.63" r="3" fill="#60a5fa" stroke="#0f172a" stroke-width="1" />
<text x="870.69" y="126.63" fill="#e2e8f0" font-size="9" text-anchor="middle">21</text>
<circle cx="900.34" cy="94.75" r="3" fill="#60a5fa" stroke="#0f172a" stroke-width="1" />
<text x="900.34" y="84.75" fill="#e2e8f0" font-size="9" text-anchor="middle">24</text>
<circle cx="930.00" cy="302.25" r="3" fill="#60a5fa" stroke="#0f172a" stroke-width="1" />
<text x="930.00" y="282.25" fill="#e2e8f0" font-size="9" text-anchor="middle">12</text>
<text x="70" y="403" fill="#e2e8f0" font-size="13" font-weight="600">本年核心指标趋势（滑动7日窗口平均）</text>
<line x1="70" y1="656.00" x2="930" y2="656.00" stroke="#94a3b8" stroke-opacity="0.18" stroke-width="1" />
<text x="62" y="660.00" fill="#cbd5f5" font-size="10" text-anchor="end">1.97</text>
<line x1="70" y1="593.75" x2="930" y2="593.75" stroke="#94a3b8" stroke-opacity="0.18" stroke-width="1" />
<text x="62" y="597.75" fill="#cbd5f5" font-size="10" text-anchor="end">8.06</text>
<line x1="70" y1="531.50" x2="930" y2="531.50" stroke="#94a3b8" stroke-opacity="0.18" stroke-width="1" />
<text x="62" y="535.50" fill="#cbd5f5" font-size="10" text-anchor="end">14.1</text>
<line x1="70" y1="469.25" x2="930" y2="469.25" stroke="#94a3b8" stroke-opacity="0.18" stroke-width="1" />
<text x="62" y="473.25" fill="#cbd5f5" font-size="10" text-anchor="end">20.2</text>
<line x1="70" y1="407.00" x2="930" y2="407.00" stroke="#94a3b8" stroke-opacity="0.18" stroke-width="1" />
<text x="62" y="411.00" fill="#cbd5f5" font-size="10" text-anchor="end">26.3</text>
<line x1="70.00" y1="656" x2="70.00" y2="660" stroke="#94a3b8" stroke-opacity="0.5" stroke-width="1" />
<text x="70.00" y="674" fill="#cbd5f5" font-size="10" text-anchor="middle">2025-01</text>
<line x1="242.00" y1="656" x2="242.00" y2="660" stroke="#94a3b8" stroke-opacity="0.5" stroke-width="1" />
<text x="242.00" y="674" fill="#cbd5f5" font-size="10" text-anchor="middle">2025-03</text>
<line x1="414.00" y1="656" x2="414.00" y2="660" stroke="#94a3b8" stroke-opacity="0.5" stroke-width="1" />
<text x="414.00" y="674" fill="#cbd5f5" font-size="10" text-anchor="middle">2025-06</text>
<line x1="586.00" y1="656" x2="586.00" y2="660" stroke="#94a3b8" stroke-opacity="0.5" stroke-width="1" />
<text x="586.00" y="674" fill="#cbd5f5" font-size="10" text-anchor="middle">2025-08</text>
<line x1="758.00" y1="656" x2="758.00" y2="660" stroke="#94a3b8" stroke-opacity="0.5" stroke-width="1" />
<text x="758.00" y="674" fill="#cbd5f5" font-size="10" text-anchor="middle">2025-10</text>
<line x1="930.00" y1="656" x2="930.00" y2="660" stroke="#94a3b8" stroke-opacity="0.5" stroke-width="1" />
<text x="930.00" y="674" fill="#cbd5f5" font-size="10" text-anchor="middle">2025-12</text>
<line x1="70" y1="407" x2="70" y2="656" stroke="#94a3b8" stroke-width="1" />
<line x1="70" y1="656" x2="930" y2="656" stroke="#94a3b8" stroke-width="1" />
<path d="M70.00,656.00 L70.00,635.25 L72.59,538.08 L75.18,509.09 L77.77,489.49 L80.36,477.73 L82.95,471.59 L85.54,467.20 L88.13,439.44 L90.72,437.98 L93.31,437.98 L95.90,439.44 L98.49,439.44 L101.08,440.90 L103.67,442.36 L106.27,440.90 L108.86,440.90 L111.45,437.98 L114.04,437.98 L116.63,439.44 L119.22,439.44 L121.81,437.98 L124.40,439.44 L126.99,439.44 L129.58,439.44 L132.17,437.98 L134.76,436.52 L137.35,437.98 L139.94,439.44 L142.53,437.98 L145.12,437.98 L147.71,437.98 L150.30,437.98 L152.89,437.98 L155.48,433.60 L158.07,433.60 L160.66,436.52 L163.25,437.98 L165.84,437.98 L168.43,443.82 L171.02,452.59 L173.61,452.59 L176.20,452.59 L178.80,451.13 L181.39,449.67 L183.98,449.67 L186.57,445.29 L189.16,437.98 L191.75,437.98 L194.34,436.52 L196.93,436.52 L199.52,439.44 L202.11,439.44 L204.70,437.98 L207.29,437.98 L209.88,437.98 L212.47,437.98 L215.06,439.44 L217.65,439.44 L220.24,439.44 L222.83,439.44 L225.42,437.98 L228.01,439.44 L230.60,437.98 L233.19,436.52 L235.78,433.60 L238.37,433.60 L240.96,433.60 L243.55,435.06 L246.14,435.06 L248.73,435.06 L251.33,435.06 L253.92,435.06 L256.51,435.06 L259.10,436.52 L261.69,436.52 L264.28,435.06 L266.87,437.98 L269.46,437.98 L272.05,439.44 L274.64,439.44 L277.23,437.98 L279.82,437.98 L282.41,439.44 L285.00,437.98 L287.59,437.98 L290.18,437.98 L292.77,439.44 L295.36,439.44 L297.95,439.44 L300.54,439.44 L303.13,437.98 L305.72,436.52 L308.31,435.06 L310.90,436.52 L313.49,436.52 L316.08,436.52 L318.67,435.06 L321.27,435.06 L323.86,439.44 L326.45,439.44 L329.04,439.44 L331.63,440.90 L334.22,442.36 L336.81,443.82 L339.40,443.82 L341.99,442.36 L344.58,443.82 L347.17,443.82 L349.76,443.82 L352.35,440.90 L354.94,440.90 L357.53,442.36 L360.12,442.36 L362.71,442.36 L365.30,440.90 L367.89,439.44 L370.48,442.36 L373.07,442.36 L375.66,443.82 L378.25,443.82 L380.84,443.82 L383.43,443.82 L386.02,443.82 L388.61,443.82 L391.20,443.82 L393.80,440.90 L396.39,437.98 L398.98,437.98 L401.57,436.52 L404.16,437.98 L406.75,429.21 L409.34,427.75 L411.93,429.21 L414.52,432.13 L417.11,433.60 L419.70,435.06 L422.29,433.60 L424.88,440.90 L427.47,442.36 L430.06,445.29 L432.65,445.29 L435.24,443.82 L437.83,443.82 L440.42,443.82 L443.01,442.36 L445.60,442.36 L448.19,437.98 L450.78,435.06 L453.37,436.52 L455.96,436.52 L458.55,437.98 L461.14,439.44 L463.73,440.90 L466.33,442.36 L468.92,443.82 L471.51,445.29 L474.10,443.82 L476.69,443.82 L479.28,448.21 L481.87,445.29 L484.46,445.29 L487.05,449.67 L489.64,445.29 L492.23,445.29 L494.82,448.21 L497.41,446.75 L500.00,448.21 L502.59,448.21 L505.18,448.21 L507.77,451.13 L510.36,452.59 L512.95,448.21 L515.54,451.13 L518.13,452.59 L520.72,451.13 L523.31,445.29 L525.90,443.82 L528.49,443.82 L531.08,443.82 L533.67,437.98 L536.27,435.06 L538.86,436.52 L541.45,436.52 L544.04,436.52 L546.63,437.98 L549.22,448.21 L551.81,451.13 L554.40,452.59 L556.99,454.05 L559.58,455.51 L562.17,455.51 L564.76,454.05 L567.35,443.82 L569.94,439.44 L572.53,437.98 L575.12,436.52 L577.71,437.98 L580.30,436.52 L582.89,436.52 L585.48,442.36 L588.07,449.67 L590.66,454.05 L593.25,454.05 L595.84,452.59 L598.43,454.05 L601.02,452.59 L603.61,461.36 L606.20,455.51 L608.80,451.13 L611.39,465.74 L613.98,474.51 L616.57,473.05 L619.16,478.89 L642.47,481.82 L645.06,480.36 L647.65,490.58 L650.24,478.89 L652.83,471.59 L655.42,474.51 L658.01,470.13 L660.60,454.05 L663.19,454.05 L665.78,445.29 L668.37,442.36 L670.96,440.90 L673.55,437.98 L676.14,436.52 L678.73,440.90 L681.33,440.90 L683.92,442.36 L686.51,442.36 L689.10,445.29 L691.69,445.29 L694.28,449.67 L696.87,448.21 L699.46,448.21 L702.05,445.29 L704.64,448.21 L707.23,443.82 L709.82,443.82 L712.41,439.44 L715.00,435.06 L717.59,440.90 L720.18,442.36 L722.77,437.98 L725.36,437.98 L727.95,439.44 L730.54,445.29 L733.13,448.21 L735.72,442.36 L738.31,442.36 L740.90,443.82 L743.49,456.98 L746.08,456.98 L748.67,451.13 L751.27,451.13 L753.86,451.13 L756.45,451.13 L759.04,449.67 L761.63,436.52 L764.22,435.06 L766.81,435.06 L769.40,435.06 L771.99,436.52 L774.58,436.52 L777.17,442.36 L779.76,442.36 L782.35,442.36 L784.94,442.36 L787.53,440.90 L790.12,439.44 L792.71,439.44 L795.30,435.06 L797.89,435.06 L800.48,435.06 L803.07,436.52 L805.66,443.82 L808.25,445.29 L810.84,443.82 L813.43,443.82 L816.02,443.82 L818.61,449.67 L821.20,451.13 L823.80,443.82 L826.39,446.75 L828.98,452.59 L831.57,452.59 L834.16,452.59 L836.75,448.21 L839.34,446.75 L841.93,445.29 L844.52,443.82 L847.11,439.44 L849.70,437.98 L852.29,437.98 L854.88,443.82 L857.47,445.29 L860.06,448.21 L862.65,445.29 L865.24,445.29 L867.83,448.21 L870.42,448.21 L873.01,440.90 L875.60,437.98 L878.19,436.52 L880.78,439.44 L883.37,440.90 L885.96,439.44 L888.55,439.44 L891.14,440.90 L893.73,442.36 L896.33,440.90 L898.92,439.44 L901.51,437.98 L904.10,437.98 L906.69,437.98 L909.28,449.67 L911.87,448.21 L914.46,449.67 L917.05,454.05 L919.64,455.51 L922.23,456.98 L924.82,461.36 L927.41,448.21 L930.00,465.74 L930.00,656.00 Z" fill="#60a5fa" fill-opacity="0.16" stroke="none" />
<path d="M70.00,635.25 L72.59,538.08 L75.18,509.09 L77.77,489.49 L80.36,477.73 L82.95,471.59 L85.54,467.20 L88.13,439.44 L90.72,437.98 L93.31,437.98 L95.90,439.44 L98.49,439.44 L101.08,440.90 L103.67,442.36 L106.27,440.90 L108.86,440.90 L111.45,437.98 L114.04,437.98 L116.63,439.44 L119.22,439.44 L121.81,437.98 L124.40,439.44 L126.99,439.44 L129.58,439.44 L132.17,437.98 L134.76,436.52 L137.35,437.98 L139.94,439.44 L142.53,437.98 L145.12,437.98 L147.71,437.98 L150.30,437.98 L152.89,437.98 L155.48,433.60 L158.07,433.60 L160.66,436.52 L163.25,437.98 L165.84,437.98 L168.43,443.82 L171.02,452.59 L173.61,452.59 L176.20,452.59 L178.80,451.13 L181.39,449.67 L183.98,449.67 L186.57,445.29 L189.16,437.98 L191.75,437.98 L194.34,436.52 L196.93,436.52 L199.52,439.44 L202.11,439.44 L204.70,437.98 L207.29,437.98 L209.88,437.98 L212.47,437.98 L215.06,439.44 L217.65,439.44 L220.24,439.44 L222.83,439.44 L225.42,437.98 L228.01,439.44 L230.60,437.98 L233.19,436.52 L235.78,433.60 L238.37,433.60 L240.96,433.60 L243.55,435.06 L246.14,435.06 L248.73,435.06 L251.33,435.06 L253.92,435.06 L256.51,435.06 L259.10,436.52 L261.69,436.52 L264.28,435.06 L266.87,437.98 L269.46,437.98 L272.05,439.44 L274.64,439.44 L277.23,437.98 L279.82,437.98 L282.41,439.44 L285.00,437.98 L287.59,437.98 L290.18,437.98 L292.77,439.44 L295.36,439.44 L297.95,439.44 L300.54,439.44 L303.13,437.98 L305.72,436.52 L308.31,435.06 L310.90,436.52 L313.49,436.52 L316.08,436.52 L318.67,435.06 L321.27,435.06 L323.86,439.44 L326.45,439.44 L329.04,439.44 L331.63,440.90 L334.22,442.36 L336.81,443.82 L339.40,443.82 L341.99,442.36 L344.58,443.82 L347.17,443.82 L349.76,443.82 L352.35,440.90 L354.94,440.90 L357.53,442.36 L360.12,442.36 L362.71,442.36 L365.30,440.90 L367.89,439.44 L370.48,442.36 L373.07,442.36 L375.66,443.82 L378.25,443.82 L380.84,443.82 L383.43,443.82 L386.02,443.82 L388.61,443.82 L391.20,443.82 L393.80,440.90 L396.39,437.98 L398.98,437.98 L401.57,436.52 L404.16,437.98 L406.75,429.21 L409.34,427.75 L411.93,429.21 L414.52,432.13 L417.11,433.60 L419.70,435.06 L422.29,433.60 L424.88,440.90 L427.47,442.36 L430.06,445.29 L432.65,445.29 L435.24,443.82 L437.83,443.82 L440.42,443.82 L443.01,442.36 L445.60,442.36 L448.19,437.98 L450.78,435.06 L453.37,436.52 L455.96,436.52 L458.55,437.98 L461.14,439.44 L463.73,440.90 L466.33,442.36 L468.92,443.82 L471.51,445.29 L474.10,443.82 L476.69,443.82 L479.28,448.21 L481.87,445.29 L484.46,445.29 L487.05,449.67 L489.64,445.29 L492.23,445.29 L494.82,448.21 L497.41,446.75 L500.00,448.21 L502.59,448.21 L505.18,448.21 L507.77,451.13 L510.36,452.59 L512.95,448.21 L515.54,451.13 L518.13,452.59 L520.72,451.13 L523.31,445.29 L525.90,443.82 L528.49,443.82 L531.08,443.82 L533.67,437.98 L536.27,435.06 L538.86,436.52 L541.45,436.52 L544.04,436.52 L546.63,437.98 L549.22,448.21 L551.81,451.13 L554.40,452.59 L556.99,454.05 L559.58,455.51 L562.17,455.51 L564.76,454.05 L567.35,443.82 L569.94,439.44 L572.53,437.98 L575.12,436.52 L577.71,437.98 L580.30,436.52 L582.89,436.52 L585.48,442.36 L588.07,449.67 L590.66,454.05 L593.25,454.05 L595.84,452.59 L598.43,454.05 L601.02,452.59 L603.61,461.36 L606.20,455.51 L608.80,451.13 L611.39,465.74 L613.98,474.51 L616.57,473.05 L619.16,478.89 L642.47,481.82 L645.06,480.36 L647.65,490.58 L650.24,478.89 L652.83,471.59 L655.42,474.51 L658.01,470.13 L660.60,454.05 L663.19,454.05 L665.78,445.29 L668.37,442.36 L670.96,440.90 L673.55,437.98 L676.14,436.52 L678.73,440.90 L681.33,440.90 L683.92,442.36 L686.51,442.36 L689.10,445.29 L691.69,445.29 L694.28,449.67 L696.87,448.21 L699.46,448.21 L702.05,445.29 L704.64,448.21 L707.23,443.82 L709.82,443.82 L712.41,439.44 L715.00,435.06 L717.59,440.90 L720.18,442.36 L722.77,437.98 L725.36,437.98 L727.95,439.44 L730.54,445.29 L733.13,448.21 L735.72,442.36 L738.31,442.36 L740.90,443.82 L743.49,456.98 L746.08,456.98 L748.67,451.13 L751.27,451.13 L753.86,451.13 L756.45,451.13 L759.04,449.67 L761.63,436.52 L764.22,435.06 L766.81,435.06 L769.40,435.06 L771.99,436.52 L774.58,436.52 L777.17,442.36 L779.76,442.36 L782.35,442.36 L784.94,442.36 L787.53,440.90 L790.12,439.44 L792.71,439.44 L795.30,435.06 L797.89,435.06 L800.48,435.06 L803.07,436.52 L805.66,443.82 L808.25,445.29 L810.84,443.82 L813.43,443.82 L816.02,443.82 L818.61,449.67 L821.20,451.13 L823.80,443.82 L826.39,446.75 L828.98,452.59 L831.57,452.59 L834.16,452.59 L836.75,448.21 L839.34,446.75 L841.93,445.29 L844.52,443.82 L847.11,439.44 L849.70,437.98 L852.29,437.98 L854.88,443.82 L857.47,445.29 L860.06,448.21 L862.65,445.29 L865.24,445.29 L867.83,448.21 L870.42,448.21 L873.01,440.90 L875.60,437.98 L878.19,436.52 L880.78,439.44 L883.37,440.90 L885.96,439.44 L888.55,439.44 L891.14,440.90 L893.73,442.36 L896.33,440.90 L898.92,439.44 L901.51,437.98 L904.10,437.98 L906.69,437.98 L909.28,449.67 L911.87,448.21 L914.46,449.67 L917.05,454.05 L919.64,455.51 L922.23,456.98 L924.82,461.36 L927.41,448.21 L930.00,465.74" fill="none" stroke="#60a5fa" stroke-width="2.2" stroke-linecap="round" />
</svg>
