<svg xmlns="http://www.w3.org/2000/svg" viewBox="0 0 960 640" width="960" height="640">
  <rect width="960" height="640" fill="#0f172a" />
  <line x1="40" y1="40.00" x2="920.00" y2="40.00" stroke="#94a3b8" stroke-opacity="0.18" stroke-width="1" /><line x1="40" y1="128.00" x2="920.00" y2="128.00" stroke="#94a3b8" stroke-opacity="0.18" stroke-width="1" /><line x1="40" y1="216.00" x2="920.00" y2="216.00" stroke="#94a3b8" stroke-opacity="0.18" stroke-width="1" /><line x1="40" y1="304.00" x2="920.00" y2="304.00" stroke="#94a3b8" stroke-opacity="0.18" stroke-width="1" />
  <line x1="40" y1="336.00" x2="920.00" y2="336.00" stroke="#94a3b8" stroke-opacity="0.18" stroke-width="1" /><line x1="40" y1="424.00" x2="920.00" y2="424.00" stroke="#94a3b8" stroke-opacity="0.18" stroke-width="1" /><line x1="40" y1="512.00" x2="920.00" y2="512.00" stroke="#94a3b8" stroke-opacity="0.18" stroke-width="1" /><line x1="40" y1="600.00" x2="920.00" y2="600.00" stroke="#94a3b8" stroke-opacity="0.18" stroke-width="1" />
  <line x1="40" y1="320.00" x2="920.00" y2="320.00" stroke="#1f2937" stroke-width="1" />
  <polyline points="40.00,301.07 71.43,299.11 102.86,304.00 134.29,286.40 165.71,304.00 197.14,293.24 228.57,301.07 260.00,301.07 291.43,40.00 322.86,300.09 354.29,270.76 385.71,297.16 417.14,283.47 448.57,194.49 480.00,164.18 511.43,295.20 542.86,302.04 574.29,299.11 605.71,111.38 637.14,296.18 668.57,303.02 700.00,299.11 731.43,290.31 762.86,276.62 794.29,303.02 825.71,293.24 857.14,299.11 888.57,303.02 920.00,115.29" fill="none" stroke="#60a5fa" stroke-width="2" stroke-linecap="round" stroke-linejoin="round" />
  <polyline points="40.00,527.30 42.60,523.48 45.19,584.25 47.79,585.15 50.38,584.47 52.98,584.25 55.58,583.57 58.17,583.35 60.77,585.60 63.36,596.17 65.96,594.60 68.55,595.05 71.15,595.05 73.75,594.60 76.34,594.82 78.94,593.92 81.53,591.45 84.13,593.70 86.73,593.70 89.32,593.70 91.92,593.92 94.51,593.47 97.11,593.47 99.71,593.02 102.30,592.57 104.90,592.57 107.49,592.80 110.09,593.02 112.68,593.70 115.28,593.70 117.88,595.72 120.47,593.92 123.07,593.47 125.66,593.47 128.26,593.70 130.86,591.90 133.45,593.25 136.05,590.10 138.64,586.72 141.24,584.25 143.83,583.80 146.43,584.25 149.03,581.09 151.62,580.42 154.22,576.82 156.81,579.52 159.41,579.97 162.01,578.39 164.60,575.47 167.20,578.84 169.79,578.62 172.39,586.05 174.99,586.27 177.58,588.75 180.18,589.20 182.77,590.32 185.37,593.02 187.96,592.80 190.56,590.32 193.16,588.97 195.75,587.85 198.35,589.87 200.94,590.32 203.54,587.85 206.14,590.10 208.73,590.10 211.33,496.92 213.92,498.50 216.52,472.61 219.12,468.11 221.71,468.56 224.31,467.89 226.90,463.16 229.50,558.59 232.09,556.56 234.69,554.99 237.29,526.18 239.88,524.60 242.48,524.15 245.07,531.58 247.67,532.48 250.27,494.67 252.86,462.04 255.46,496.02 258.05,493.09 260.65,490.17 263.24,488.37 265.84,432.55 268.44,456.18 271.03,469.91 273.63,466.99 276.22,464.29 278.82,461.14 281.42,421.52 284.01,418.82 286.61,397.67 289.20,439.98 291.80,433.68 294.40,436.38 296.99,442.23 299.59,482.29 302.18,505.92 304.78,491.07 307.37,457.76 309.97,425.35 312.57,431.20 315.16,432.33 317.76,375.61 320.35,356.93 322.95,355.36 325.55,336.00 328.14,376.29 330.74,374.26 333.33,370.88 335.93,392.49 338.53,446.28 341.12,461.81 343.72,517.18 346.31,515.38 348.91,515.38 351.50,518.75 354.10,551.16 356.70,550.71 359.29,589.65 361.89,584.70 364.48,584.92 367.08,579.97 369.68,574.12 372.27,576.37 374.87,537.21 377.46,517.18 380.06,468.11 382.65,472.39 385.25,442.46 387.85,447.18 390.44,446.73 393.04,484.32 395.63,501.65 398.23,556.79 400.83,554.54 403.42,567.82 406.02,522.13 408.61,522.35 411.21,524.83 413.81,525.05 416.40,523.70 419.00,524.38 421.59,546.66 424.19,593.02 426.78,586.95 429.38,583.57 431.98,585.15 434.57,586.05 437.17,587.62 439.76,589.42 442.36,588.30 444.96,594.60 447.55,597.97 450.15,554.09 452.74,514.93 455.34,512.00 457.94,512.00 460.53,512.68 463.13,512.45 465.72,511.77 468.32,553.64 470.91,533.16 473.51,512.00 476.11,508.62 478.70,505.70 481.30,507.95 483.89,452.13 486.49,412.75 489.09,433.68 491.68,457.53 494.28,460.46 496.87,464.29 499.47,464.29 502.06,518.30 504.66,560.39 507.26,600.00 509.85,599.10 512.45,598.65 515.04,598.20 517.64,597.07 520.24,560.16 522.83,519.88 525.43,519.88 528.02,513.58 530.62,512.00 533.22,487.92 535.81,465.64 538.41,503.90 541.00,539.46 543.60,518.53 546.19,518.98 548.79,517.85 551.39,518.98 553.98,506.82 556.58,505.47 559.17,509.52 561.77,526.63 564.37,524.83 566.96,526.18 569.56,546.66 572.15,579.52 574.75,581.54 577.35,582.22 579.94,586.50 582.54,591.67 585.13,591.45 587.73,591.90 590.32,594.37 592.92,595.27 595.52,592.57 598.11,592.12 600.71,592.35 603.30,592.57 605.90,594.15 608.50,594.37 611.09,591.00 613.69,588.97 616.28,587.40 618.88,588.75 621.47,590.55 624.07,587.40 626.67,587.40 629.26,590.32 631.86,450.56 634.45,448.76 637.05,449.88 639.65,449.21 642.24,451.91 644.84,450.33 647.43,449.21 650.03,592.57 652.63,595.27 655.22,595.95 657.82,596.85 660.41,597.97 663.01,598.42 665.60,596.85 668.20,595.95 670.80,593.25 673.39,592.35 675.99,592.35 678.58,592.12 681.18,592.57 683.78,595.95 686.37,594.60 688.97,597.75 691.56,598.42 694.16,597.75 696.76,597.75 699.35,598.20 701.95,597.30 704.54,598.65 707.14,597.30 709.73,597.30 712.33,595.95 714.93,595.50 717.52,594.60 720.12,595.50 722.71,593.92 725.31,595.72 727.91,595.72 730.50,595.72 733.10,593.70 735.69,592.80 738.29,590.32 740.88,593.02 743.48,591.45 746.08,589.65 748.67,588.30 751.27,586.72 753.86,588.07 756.46,588.52 759.06,585.82 761.65,586.50 764.25,587.40 766.84,590.55 769.44,594.82 772.04,593.92 774.63,592.57 777.23,595.27 779.82,595.72 782.42,595.95 785.01,596.17 787.61,593.02 790.21,593.25 792.80,593.70 795.40,594.60 797.99,593.92 800.59,594.15 803.19,554.99 805.78,551.84 808.38,551.61 810.97,554.54 813.57,554.09 816.17,554.76 818.76,555.21 821.36,593.47 823.95,599.32 826.55,598.20 829.14,597.52 831.74,597.52 834.34,595.05 836.93,594.37 839.53,593.02 842.12,593.92 844.72,593.92 847.32,593.92 849.91,593.47 852.51,596.62 855.10,593.70 857.70,596.40 860.29,593.92 862.89,595.95 865.49,595.95 868.08,536.31 870.68,535.41 873.27,531.81 875.87,530.23 878.47,527.98 881.06,503.45 883.66,471.94 886.25,530.68 888.85,531.13 891.45,537.66 894.04,494.90 896.64,497.82 899.23,522.80 901.83,553.86 904.42,552.74 907.02,546.88 909.62,547.79 912.21,589.65 914.81,590.32 917.40,590.32 920.00,548.01" fill="none" stroke="#60a5fa" stroke-width="2" stroke-linecap="round" stroke-linejoin="round" />
  
  
  </svg>