<svg xmlns="http://www.w3.org/2000/svg" viewBox="0 0 960 720" width="960" height="720">
<rect width="960" height="720" fill="#0f172a" />
<text x="480" y="28" fill="#e2e8f0" font-size="16" font-weight="700" text-anchor="middle">爬楼层数趋势图</text>
<text x="70" y="70" fill="#e2e8f0" font-size="13" font-weight="600">本月分天指标明细</text>
<line x1="70" y1="323.00" x2="930" y2="323.00" stroke="#94a3b8" stroke-opacity="0.18" stroke-width="1" />
<text x="62" y="327.00" fill="#cbd5f5" font-size="10" text-anchor="end">-26</text>
<line x1="70" y1="260.75" x2="930" y2="260.75" stroke="#94a3b8" stroke-opacity="0.18" stroke-width="1" />
<text x="62" y="264.75" fill="#cbd5f5" font-size="10" text-anchor="end">55</text>
<line x1="70" y1="198.50" x2="930" y2="198.50" stroke="#94a3b8" stroke-opacity="0.18" stroke-width="1" />
<text x="62" y="202.50" fill="#cbd5f5" font-size="10" text-anchor="end">136</text>
<line x1="70" y1="136.25" x2="930" y2="136.25" stroke="#94a3b8" stroke-opacity="0.18" stroke-width="1" />
<text x="62" y="140.25" fill="#cbd5f5" font-size="10" text-anchor="end">217</text>
<line x1="70" y1="74.00" x2="930" y2="74.00" stroke="#94a3b8" stroke-opacity="0.18" stroke-width="1" />
<text x="62" y="78.00" fill="#cbd5f5" font-size="10" text-anchor="end">298</text>
<line x1="70.00" y1="323" x2="70.00" y2="327" stroke="#94a3b8" stroke-opacity="0.5" stroke-width="1" />
<text x="70.00" y="341" fill="#cbd5f5" font-size="10" text-anchor="middle">11-19</text>
<line x1="242.00" y1="323" x2="242.00" y2="327" stroke="#94a3b8" stroke-opacity="0.5" stroke-width="1" />
<text x="242.00" y="341" fill="#cbd5f5" font-size="10" text-anchor="middle">11-24</text>
<line x1="414.00" y1="323" x2="414.00" y2="327" stroke="#94a3b8" stroke-opacity="0.5" stroke-width="1" />
<text x="414.00" y="341" fill="#cbd5f5" font-size="10" text-anchor="middle">11-30</text>
<line x1="586.00" y1="323" x2="586.00" y2="327" stroke="#94a3b8" stroke-opacity="0.5" stroke-width="1" />
<text x="586.00" y="341" fill="#cbd5f5" font-size="10" text-anchor="middle">12-06</text>
<line x1="758.00" y1="323" x2="758.00" y2="327" stroke="#94a3b8" stroke-opacity="0.5" stroke-width="1" />
<text x="758.00" y="341" fill="#cbd5f5" font-size="10" text-anchor="middle">12-12</text>
<line x1="930.00" y1="323" x2="930.00" y2="327" stroke="#94a3b8" stroke-opacity="0.5" stroke-width="1" />
<text x="930.00" y="341" fill="#cbd5f5" font-size="10" text-anchor="middle">12-18</text>
<line x1="70" y1="74" x2="70" y2="323" stroke="#94a3b8" stroke-width="1" />
<line x1="70" y1="323" x2="930" y2="323" stroke="#94a3b8" stroke-width="1" />
<path d="M70.00,299.94 L99.66,298.41 L129.31,302.25 L158.97,288.42 L188.62,302.25 L218.28,293.80 L247.93,299.94 L277.59,299.94 L307.24,94.75 L336.90,299.18 L366.55,276.12 L396.21,296.87 L425.86,286.11 L455.52,216.18 L485.17,192.35 L544.48,295.33 L574.14,300.71 L603.79,298.41 L633.45,150.85 L663.10,296.10 L692.76,301.48 L722.41,298.41 L752.07,291.49 L781.72,280.73 L811.38,301.48 L841.03,293.80 L870.69,298.41 L900.34,301.48 L930.00,153.93" fill="none" stroke="#60a5fa" stroke-width="2.2" stroke-linecap="round" />
<circle cx="70.00" cy="299.94" r="3" fill="#60a5fa" stroke="#0f172a" stroke-width="1" />
<text x="70.00" y="289.94" fill="#e2e8f0" font-size="9" text-anchor="middle">4</text>
<circle cx="99.66" cy="298.41" r="3" fill="#60a5fa" stroke="#0f172a" stroke-width="1" />
<text x="99.66" y="278.41" fill="#e2e8f0" font-size="9" text-anchor="middle">6</text>
<circle cx="129.31" cy="302.25" r="3" fill="#60a5fa" stroke="#0f172a" stroke-width="1" />
<text x="129.31" y="292.25" fill="#e2e8f0" font-size="9" text-anchor="middle">1</text>
<circle cx="158.97" cy="288.42" r="3" fill="#60a5fa" stroke="#0f172a" stroke-width="1" />
<text x="158.97" y="268.42" fill="#e2e8f0" font-size="9" text-anchor="middle">19</text>
<circle cx="188.62" cy="302.25" r="3" fill="#60a5fa" stroke="#0f172a" stroke-width="1" />
<text x="188.62" y="292.25" fill="#e2e8f0" font-size="9" text-anchor="middle">1</text>
<circle cx="218.28" cy="293.80" r="3" fill="#60a5fa" stroke="#0f172a" stroke-width="1" />
<text x="218.28" y="273.80" fill="#e2e8f0" font-size="9" text-anchor="middle">12</text>
<circle cx="247.93" cy="299.94" r="3" fill="#60a5fa" stroke="#0f172a" stroke-width="1" />
<text x="247.93" y="289.94" fill="#e2e8f0" font-size="9" text-anchor="middle">4</text>
<circle cx="277.59" cy="299.94" r="3" fill="#60a5fa" stroke="#0f172a" stroke-width="1" />
<text x="277.59" y="279.94" fill="#e2e8f0" font-size="9" text-anchor="middle">4</text>
<circle cx="307.24" cy="94.75" r="3" fill="#60a5fa" stroke="#0f172a" stroke-width="1" />
<text x="307.24" y="84.75" fill="#e2e8f0" font-size="9" text-anchor="middle">271</text>
<circle cx="336.90" cy="299.18" r="3" fill="#60a5fa" stroke="#0f172a" stroke-width="1" />
<text x="336.90" y="279.18" fill="#e2e8f0" font-size="9" text-anchor="middle">5</text>
<circle cx="366.55" cy="276.12" r="3" fill="#60a5fa" stroke="#0f172a" stroke-width="1" />
<text x="366.55" y="266.12" fill="#e2e8f0" font-size="9" text-anchor="middle">35</text>
<circle cx="396.21" cy="296.87" r="3" fill="#60a5fa" stroke="#0f172a" stroke-width="1" />
<text x="396.21" y="276.87" fill="#e2e8f0" font-size="9" text-anchor="middle">8</text>
<circle cx="425.86" cy="286.11" r="3" fill="#60a5fa" stroke="#0f172a" stroke-width="1" />
<text x="425.86" y="276.11" fill="#e2e8f0" font-size="9" text-anchor="middle">22</text>
<circle cx="455.52" cy="216.18" r="3" fill="#60a5fa" stroke="#0f172a" stroke-width="1" />
<text x="455.52" y="196.18" fill="#e2e8f0" font-size="9" text-anchor="middle">113</text>
<circle cx="485.17" cy="192.35" r="3" fill="#60a5fa" stroke="#0f172a" stroke-width="1" />
<text x="485.17" y="182.35" fill="#e2e8f0" font-size="9" text-anchor="middle">144</text>
<circle cx="544.48" cy="295.33" r="3" fill="#60a5fa" stroke="#0f172a" stroke-width="1" />
<text x="544.48" y="275.33" fill="#e2e8f0" font-size="9" text-anchor="middle">10</text>
<circle cx="574.14" cy="300.71" r="3" fill="#60a5fa" stroke="#0f172a" stroke-width="1" />
<text x="574.14" y="290.71" fill="#e2e8f0" font-size="9" text-anchor="middle">3</text>
<circle cx="603.79" cy="298.41" r="3" fill="#60a5fa" stroke="#0f172a" stroke-width="1" />
<text x="603.79" y="278.41" fill="#e2e8f0" font-size="9" text-anchor="middle">6</text>
<circle cx="633.45" cy="150.85" r="3" fill="#60a5fa" stroke="#0f172a" stroke-width="1" />
<text x="633.45" y="140.85" fill="#e2e8f0" font-size="9" text-anchor="middle">198</text>
<circle cx="663.10" cy="296.10" r="3" fill="#60a5fa" stroke="#0f172a" stroke-width="1" />
<text x="663.10" y="276.10" fill="#e2e8f0" font-size="9" text-anchor="middle">9</text>
<circle cx="692.76" cy="301.48" r="3" fill="#60a5fa" stroke="#0f172a" stroke-width="1" />
<text x="692.76" y="291.48" fill="#e2e8f0" font-size="9" text-anchor="middle">2</text>
<circle cx="722.41" cy="298.41" r="3" fill="#60a5fa" stroke="#0f172a" stroke-width="1" />
<text x="722.41" y="278.41" fill="#e2e8f0" font-size="9" text-anchor="middle">6</text>
<circle cx="752.07" cy="291.49" r="3" fill="#60a5fa" stroke="#0f172a" stroke-width="1" />
<text x="752.07" y="281.49" fill="#e2e8f0" font-size="9" text-anchor="middle">15</text>
<circle cx="781.72" cy="280.73" r="3" fill="#60a5fa" stroke="#0f172a" stroke-width="1" />
<text x="781.72" y="260.73" fill="#e2e8f0" font-size="9" text-anchor="middle">29</text>
<circle cx="811.38" cy="301.48" r="3" fill="#60a5fa" stroke="#0f172a" stroke-width="1" />
<text x="811.38" y="291.48" fill="#e2e8f0" font-size="9" text-anchor="middle">2</text>
<circle cx="841.03" cy="293.80" r="3" fill="#60a5fa" stroke="#0f172a" stroke-width="1" />
<text x="841.03" y="273.80" fill="#e2e8f0" font-size="9" text-anchor="middle">12</text>
<circle cx="870.69" cy="298.41" r="3" fill="#60a5fa" stroke="#0f172a" stroke-width="1" />
<text x="870.69" y="288.41" fill="#e2e8f0" font-size="9" text-anchor="middle">6</text>
<circle cx="900.34" cy="301.48" r="3" fill="#60a5fa" stroke="#0f172a" stroke-width="1" />
<text x="900.34" y="281.48" fill="#e2e8f0" font-size="9" text-anchor="middle">2</text>
<circle cx="930.00" cy="153.93" r="3" fill="#60a5fa" stroke="#0f172a" stroke-width="1" />
<text x="930.00" y="143.93" fill="#e2e8f0" font-size="9" text-anchor="middle">194</text>
<text x="70" y="403" fill="#e2e8f0" font-size="13" font-weight="600">本年核心指标趋势（滑动7日窗口平均）</text>
<line x1="70" y1="656.00" x2="930" y2="656.00" stroke="#94a3b8" stroke-opacity="0.18" stroke-width="1" />
<text x="62" y="660.00" fill="#cbd5f5" font-size="10" text-anchor="end">-12.6</text>
<line x1="70" y1="593.75" x2="930" y2="593.75" stroke="#94a3b8" stroke-opacity="0.18" stroke-width="1" />
<text x="62" y="597.75" fill="#cbd5f5" font-size="10" text-anchor="end">37.7</text>
<line x1="70" y1="531.50" x2="930" y2="531.50" stroke="#94a3b8" stroke-opacity="0.18" stroke-width="1" />
<text x="62" y="535.50" fill="#cbd5f5" font-size="10" text-anchor="end">87.9</text>
<line x1="70" y1="469.25" x2="930" y2="469.25" stroke="#94a3b8" stroke-opacity="0.18" stroke-width="1" />
<text x="62" y="473.25" fill="#cbd5f5" font-size="10" text-anchor="end">138.2</text>
<line x1="70" y1="407.00" x2="930" y2="407.00" stroke="#94a3b8" stroke-opacity="0.18" stroke-width="1" />
<text x="62" y="411.00" fill="#cbd5f5" font-size="10" text-anchor="end">188.5</text>
<line x1="70.00" y1="656" x2="70.00" y2="660" stroke="#94a3b8" stroke-opacity="0.5" stroke-width="1" />
<text x="70.00" y="674" fill="#cbd5f5" font-size="10" text-anchor="middle">2024-12</text>
<line x1="242.00" y1="656" x2="242.00" y2="660" stroke="#94a3b8" stroke-opacity="0.5" stroke-width="1" />
<text x="242.00" y="674" fill="#cbd5f5" font-size="10" text-anchor="middle">2025-03</text>
<line x1="414.00" y1="656" x2="414.00" y2="660" stroke="#94a3b8" stroke-opacity="0.5" stroke-width="1" />
<text x="414.00" y="674" fill="#cbd5f5" font-size="10" text-anchor="middle">2025-05</text>
<line x1="586.00" y1="656" x2="586.00" y2="660" stroke="#94a3b8" stroke-opacity="0.5" stroke-width="1" />
<text x="586.00" y="674" fill="#cbd5f5" font-size="10" text-anchor="middle">2025-07</text>
<line x1="758.00" y1="656" x2="758.00" y2="660" stroke="#94a3b8" stroke-opacity="0.5" stroke-width="1" />
<text x="758.00" y="674" fill="#cbd5f5" font-size="10" text-anchor="middle">2025-10</text>
<line x1="930.00" y1="656" x2="930.00" y2="660" stroke="#94a3b8" stroke-opacity="0.5" stroke-width="1" />
<text x="930.00" y="674" fill="#cbd5f5" font-size="10" text-anchor="middle">2025-12</text>
<line x1="70" y1="407" x2="70" y2="656" stroke="#94a3b8" stroke-width="1" />
<line x1="70" y1="656" x2="930" y2="656" stroke="#94a3b8" stroke-width="1" />
<path d="M70.00,656.00 L70.00,631.71 L72.36,624.90 L74.73,609.84 L77.09,615.61 L79.45,618.59 L81.81,620.77 L84.18,622.34 L86.54,622.16 L91.26,623.93 L93.63,632.24 L95.99,631.00 L98.35,631.36 L100.71,631.36 L103.08,631.00 L105.44,631.18 L107.80,630.47 L110.16,628.53 L112.53,630.30 L114.89,630.30 L117.25,630.30 L119.62,630.47 L121.98,630.12 L124.34,630.12 L126.70,629.77 L129.07,629.41 L131.43,629.41 L133.79,629.59 L136.15,629.77 L138.52,630.30 L140.88,630.30 L143.24,631.89 L145.60,630.47 L147.97,630.12 L150.33,630.12 L152.69,630.30 L155.05,628.88 L157.42,629.94 L159.78,627.47 L164.51,624.81 L166.87,622.87 L171.59,622.51 L173.96,622.87 L178.68,620.39 L181.04,619.86 L183.41,617.03 L185.77,619.15 L188.13,619.51 L190.49,618.27 L192.86,615.97 L195.22,618.62 L197.58,618.44 L202.31,624.28 L204.67,624.46 L207.03,626.41 L209.40,626.76 L211.76,627.64 L214.12,629.77 L216.48,629.59 L218.85,627.64 L221.21,626.58 L223.57,625.70 L225.93,627.29 L230.66,627.64 L233.02,625.70 L237.75,627.47 L240.11,627.47 L242.47,554.23 L244.84,555.47 L247.20,535.13 L249.56,531.59 L251.92,531.94 L254.29,531.41 L256.65,527.70 L259.01,602.70 L261.37,601.11 L263.74,599.87 L266.10,577.23 L270.82,575.99 L275.55,575.64 L277.91,581.47 L280.27,582.18 L282.64,552.46 L285.00,526.81 L287.36,553.52 L289.73,551.22 L292.09,548.92 L294.45,547.51 L296.81,503.64 L299.18,522.21 L301.54,533.00 L303.90,530.70 L306.26,528.58 L308.63,526.10 L310.99,494.97 L313.35,492.85 L315.71,476.22 L318.08,509.48 L320.44,504.52 L322.80,506.65 L325.16,511.25 L327.53,542.73 L329.89,561.31 L332.25,549.63 L334.62,523.45 L336.98,497.98 L339.34,502.58 L341.70,503.46 L344.07,458.88 L346.43,444.20 L348.79,442.96 L351.15,427.75 L353.52,459.41 L355.88,457.82 L358.24,455.17 L360.60,472.15 L362.97,514.43 L365.33,526.64 L367.69,570.15 L370.05,568.74 L372.42,568.74 L374.78,571.39 L379.51,596.86 L381.87,596.51 L384.23,627.11 L386.59,623.22 L388.96,623.40 L391.32,619.51 L393.68,614.91 L396.04,616.68 L400.77,585.90 L405.49,570.15 L407.86,531.59 L412.58,534.95 L414.95,511.42 L417.31,515.14 L419.67,514.78 L422.03,544.33 L424.40,557.95 L426.76,601.29 L429.12,599.52 L431.48,609.95 L433.85,574.04 L438.57,574.22 L443.30,576.17 L445.66,576.34 L448.02,575.28 L450.38,575.81 L452.75,593.33 L455.11,629.77 L457.47,624.99 L462.20,622.34 L464.56,623.57 L466.92,624.28 L469.29,625.52 L471.65,626.94 L474.01,626.05 L476.37,631.00 L478.74,633.66 L481.10,599.16 L483.46,568.38 L485.82,566.08 L488.19,566.08 L490.55,566.61 L492.91,566.44 L495.27,565.91 L497.64,598.81 L500.00,582.71 L502.36,566.08 L504.73,563.43 L507.09,561.13 L509.45,562.90 L511.81,519.03 L514.18,488.07 L516.54,504.52 L518.90,523.27 L521.26,525.57 L523.63,528.58 L525.99,528.58 L528.35,571.04 L530.71,604.12 L533.08,635.25 L537.80,634.54 L540.16,634.19 L542.53,633.83 L544.89,632.95 L547.25,603.94 L549.62,572.27 L551.98,572.27 L554.34,567.32 L556.70,566.08 L559.07,547.16 L561.43,529.64 L563.79,559.72 L566.15,587.66 L568.52,571.21 L570.88,571.57 L573.24,570.68 L575.60,571.57 L577.97,562.01 L580.33,560.95 L582.69,564.14 L585.05,577.58 L587.42,576.17 L589.78,577.23 L592.14,593.33 L594.51,619.15 L596.87,620.74 L599.23,621.28 L601.59,624.64 L603.96,628.70 L606.32,628.53 L608.68,628.88 L611.04,630.83 L613.41,631.54 L618.13,629.41 L620.49,629.06 L622.86,629.24 L625.22,629.41 L627.58,630.65 L629.95,630.83 L632.31,628.17 L637.03,626.58 L639.40,625.34 L641.76,626.41 L644.12,627.82 L646.48,625.34 L648.85,625.34 L651.21,627.64 L653.57,517.79 L655.93,516.38 L658.30,517.26 L660.66,516.73 L663.02,518.85 L665.38,517.61 L667.75,516.73 L670.11,629.41 L672.47,631.54 L674.84,632.07 L677.20,632.77 L679.56,633.66 L681.92,634.01 L684.29,632.77 L686.65,632.07 L689.01,629.94 L691.37,629.24 L693.74,629.24 L696.10,629.06 L698.46,629.41 L700.82,632.07 L703.19,631.00 L705.55,633.48 L707.91,634.01 L710.27,633.48 L712.64,633.48 L715.00,633.83 L717.36,633.13 L719.73,634.19 L722.09,633.13 L724.45,633.13 L726.81,632.07 L729.18,631.71 L731.54,631.00 L733.90,631.71 L736.26,630.47 L738.63,631.89 L740.99,631.89 L743.35,631.89 L745.71,630.30 L750.44,629.59 L752.80,627.64 L755.16,629.77 L757.53,628.53 L759.89,627.11 L762.25,626.05 L764.62,624.81 L766.98,625.87 L769.34,626.23 L771.70,624.11 L774.07,624.64 L776.43,625.34 L778.79,627.82 L781.15,631.18 L785.88,630.47 L788.24,629.41 L790.60,631.54 L792.97,631.89 L795.33,632.07 L797.69,632.24 L800.05,629.77 L802.42,629.94 L804.78,630.30 L807.14,631.00 L809.51,630.47 L811.87,630.65 L814.23,599.87 L818.96,597.39 L821.32,597.22 L823.68,599.52 L826.04,599.16 L828.41,599.69 L830.77,600.05 L833.13,630.12 L835.49,634.72 L837.86,633.83 L840.22,633.30 L842.58,633.30 L844.95,631.36 L847.31,630.83 L852.03,629.77 L854.40,630.47 L856.76,630.47 L861.48,630.47 L863.85,630.12 L866.21,632.60 L868.57,630.30 L870.93,632.42 L873.30,630.47 L875.66,632.07 L878.02,632.07 L880.38,585.19 L882.75,584.48 L885.11,581.65 L887.47,580.41 L889.84,578.64 L892.20,559.36 L894.56,534.60 L899.29,580.77 L901.65,581.12 L904.01,586.25 L906.37,552.64 L908.74,554.94 L911.10,574.57 L913.46,598.99 L915.82,598.10 L918.19,593.50 L920.55,594.21 L922.91,627.11 L925.27,627.64 L927.64,627.64 L930.00,594.39 L930.00,656.00 Z" fill="#60a5fa" fill-opacity="0.16" stroke="none" />
<path d="M70.00,631.71 L72.36,624.90 L74.73,609.84 L77.09,615.61 L79.45,618.59 L81.81,620.77 L84.18,622.34 L86.54,622.16 L91.26,623.93 L93.63,632.24 L95.99,631.00 L98.35,631.36 L100.71,631.36 L103.08,631.00 L105.44,631.18 L107.80,630.47 L110.16,628.53 L112.53,630.30 L114.89,630.30 L117.25,630.30 L119.62,630.47 L121.98,630.12 L124.34,630.12 L126.70,629.77 L129.07,629.41 L131.43,629.41 L133.79,629.59 L136.15,629.77 L138.52,630.30 L140.88,630.30 L143.24,631.89 L145.60,630.47 L147.97,630.12 L150.33,630.12 L152.69,630.30 L155.05,628.88 L157.42,629.94 L159.78,627.47 L164.51,624.81 L166.87,622.87 L171.59,622.51 L173.96,622.87 L178.68,620.39 L181.04,619.86 L183.41,617.03 L185.77,619.15 L188.13,619.51 L190.49,618.27 L192.86,615.97 L195.22,618.62 L197.58,618.44 L202.31,624.28 L204.67,624.46 L207.03,626.41 L209.40,626.76 L211.76,627.64 L214.12,629.77 L216.48,629.59 L218.85,627.64 L221.21,626.58 L223.57,625.70 L225.93,627.29 L230.66,627.64 L233.02,625.70 L237.75,627.47 L240.11,627.47 L242.47,554.23 L244.84,555.47 L247.20,535.13 L249.56,531.59 L251.92,531.94 L254.29,531.41 L256.65,527.70 L259.01,602.70 L261.37,601.11 L263.74,599.87 L266.10,577.23 L270.82,575.99 L275.55,575.64 L277.91,581.47 L280.27,582.18 L282.64,552.46 L285.00,526.81 L287.36,553.52 L289.73,551.22 L292.09,548.92 L294.45,547.51 L296.81,503.64 L299.18,522.21 L301.54,533.00 L303.90,530.70 L306.26,528.58 L308.63,526.10 L310.99,494.97 L313.35,492.85 L315.71,476.22 L318.08,509.48 L320.44,504.52 L322.80,506.65 L325.16,511.25 L327.53,542.73 L329.89,561.31 L332.25,549.63 L334.62,523.45 L336.98,497.98 L339.34,502.58 L341.70,503.46 L344.07,458.88 L346.43,444.20 L348.79,442.96 L351.15,427.75 L353.52,459.41 L355.88,457.82 L358.24,455.17 L360.60,472.15 L362.97,514.43 L365.33,526.64 L367.69,570.15 L370.05,568.74 L372.42,568.74 L374.78,571.39 L379.51,596.86 L381.87,596.51 L384.23,627.11 L386.59,623.22 L388.96,623.40 L391.32,619.51 L393.68,614.91 L396.04,616.68 L400.77,585.90 L405.49,570.15 L407.86,531.59 L412.58,534.95 L414.95,511.42 L417.31,515.14 L419.67,514.78 L422.03,544.33 L424.40,557.95 L426.76,601.29 L429.12,599.52 L431.48,609.95 L433.85,574.04 L438.57,574.22 L443.30,576.17 L445.66,576.34 L448.02,575.28 L450.38,575.81 L452.75,593.33 L455.11,629.77 L457.47,624.99 L462.20,622.34 L464.56,623.57 L466.92,624.28 L469.29,625.52 L471.65,626.94 L474.01,626.05 L476.37,631.00 L478.74,633.66 L481.10,599.16 L483.46,568.38 L485.82,566.08 L488.19,566.08 L490.55,566.61 L492.91,566.44 L495.27,565.91 L497.64,598.81 L500.00,582.71 L502.36,566.08 L504.73,563.43 L507.09,561.13 L509.45,562.90 L511.81,519.03 L514.18,488.07 L516.54,504.52 L518.90,523.27 L521.26,525.57 L523.63,528.58 L525.99,528.58 L528.35,571.04 L530.71,604.12 L533.08,635.25 L537.80,634.54 L540.16,634.19 L542.53,633.83 L544.89,632.95 L547.25,603.94 L549.62,572.27 L551.98,572.27 L554.34,567.32 L556.70,566.08 L559.07,547.16 L561.43,529.64 L563.79,559.72 L566.15,587.66 L568.52,571.21 L570.88,571.57 L573.24,570.68 L575.60,571.57 L577.97,562.01 L580.33,560.95 L582.69,564.14 L585.05,577.58 L587.42,576.17 L589.78,577.23 L592.14,593.33 L594.51,619.15 L596.87,620.74 L599.23,621.28 L601.59,624.64 L603.96,628.70 L606.32,628.53 L608.68,628.88 L611.04,630.83 L613.41,631.54 L618.13,629.41 L620.49,629.06 L622.86,629.24 L625.22,629.41 L627.58,630.65 L629.95,630.83 L632.31,628.17 L637.03,626.58 L639.40,625.34 L641.76,626.41 L644.12,627.82 L646.48,625.34 L648.85,625.34 L651.21,627.64 L653.57,517.79 L655.93,516.38 L658.30,517.26 L660.66,516.73 L663.02,518.85 L665.38,517.61 L667.75,516.73 L670.11,629.41 L672.47,631.54 L674.84,632.07 L677.20,632.77 L679.56,633.66 L681.92,634.01 L684.29,632.77 L686.65,632.07 L689.01,629.94 L691.37,629.24 L693.74,629.24 L696.10,629.06 L698.46,629.41 L700.82,632.07 L703.19,631.00 L705.55,633.48 L707.91,634.01 L710.27,633.48 L712.64,633.48 L715.00,633.83 L717.36,633.13 L719.73,634.19 L722.09,633.13 L724.45,633.13 L726.81,632.07 L729.18,631.71 L731.54,631.00 L733.90,631.71 L736.26,630.47 L738.63,631.89 L740.99,631.89 L743.35,631.89 L745.71,630.30 L750.44,629.59 L752.80,627.64 L755.16,629.77 L757.53,628.53 L759.89,627.11 L762.25,626.05 L764.62,624.81 L766.98,625.87 L769.34,626.23 L771.70,624.11 L774.07,624.64 L776.43,625.34 L778.79,627.82 L781.15,631.18 L785.88,630.47 L788.24,629.41 L790.60,631.54 L792.97,631.89 L795.33,632.07 L797.69,632.24 L800.05,629.77 L802.42,629.94 L804.78,630.30 L807.14,631.00 L809.51,630.47 L811.87,630.65 L814.23,599.87 L818.96,597.39 L821.32,597.22 L823.68,599.52 L826.04,599.16 L828.41,599.69 L830.77,600.05 L833.13,630.12 L835.49,634.72 L837.86,633.83 L840.22,633.30 L842.58,633.30 L844.95,631.36 L847.31,630.83 L852.03,629.77 L854.40,630.47 L856.76,630.47 L861.48,630.47 L863.85,630.12 L866.21,632.60 L868.57,630.30 L870.93,632.42 L873.30,630.47 L875.66,632.07 L878.02,632.07 L880.38,585.19 L882.75,584.48 L885.11,581.65 L887.47,580.41 L889.84,578.64 L892.20,559.36 L894.56,534.60 L899.29,580.77 L901.65,581.12 L904.01,586.25 L906.37,552.64 L908.74,554.94 L911.10,574.57 L913.46,598.99 L915.82,598.10 L918.19,593.50 L920.55,594.21 L922.91,627.11 L925.27,627.64 L927.64,627.64 L930.00,594.39" fill="none" stroke="#60a5fa" stroke-width="2.2" stroke-linecap="round" />
</svg>
