<svg xmlns="http://www.w3.org/2000/svg" viewBox="0 0 960 720" width="960" height="720">
<rect width="960" height="720" fill="#0f172a" />
<text x="480" y="28" fill="#e2e8f0" font-size="16" font-weight="700" text-anchor="middle">爬楼层数趋势图</text>
<text x="70" y="70" fill="#e2e8f0" font-size="13" font-weight="600">本月分天指标明细</text>
<line x1="70" y1="323.00" x2="930" y2="323.00" stroke="#94a3b8" stroke-opacity="0.18" stroke-width="1" />
<text x="62" y="327.00" fill="#cbd5f5" font-size="10" text-anchor="end">-26</text>
<line x1="70" y1="260.75" x2="930" y2="260.75" stroke="#94a3b8" stroke-opacity="0.18" stroke-width="1" />
<text x="62" y="264.75" fill="#cbd5f5" font-size="10" text-anchor="end">55</text>
<line x1="70" y1="198.50" x2="930" y2="198.50" stroke="#94a3b8" stroke-opacity="0.18" stroke-width="1" />
<text x="62" y="202.50" fill="#cbd5f5" font-size="10" text-anchor="end">136</text>
<line x1="70" y1="136.25" x2="930" y2="136.25" stroke="#94a3b8" stroke-opacity="0.18" stroke-width="1" />
<text x="62" y="140.25" fill="#cbd5f5" font-size="10" text-anchor="end">217</text>
<line x1="70" y1="74.00" x2="930" y2="74.00" stroke="#94a3b8" stroke-opacity="0.18" stroke-width="1" />
<text x="62" y="78.00" fill="#cbd5f5" font-size="10" text-anchor="end">298</text>
<line x1="70.00" y1="323" x2="70.00" y2="327" stroke="#94a3b8" stroke-opacity="0.5" stroke-width="1" />
<text x="70.00" y="341" fill="#cbd5f5" font-size="10" text-anchor="middle">11-21</text>
<line x1="242.00" y1="323" x2="242.00" y2="327" stroke="#94a3b8" stroke-opacity="0.5" stroke-width="1" />
<text x="242.00" y="341" fill="#cbd5f5" font-size="10" text-anchor="middle">11-26</text>
<line x1="414.00" y1="323" x2="414.00" y2="327" stroke="#94a3b8" stroke-opacity="0.5" stroke-width="1" />
<text x="414.00" y="341" fill="#cbd5f5" font-size="10" text-anchor="middle">12-02</text>
<line x1="586.00" y1="323" x2="586.00" y2="327" stroke="#94a3b8" stroke-opacity="0.5" stroke-width="1" />
<text x="586.00" y="341" fill="#cbd5f5" font-size="10" text-anchor="middle">12-08</text>
<line x1="758.00" y1="323" x2="758.00" y2="327" stroke="#94a3b8" stroke-opacity="0.5" stroke-width="1" />
<text x="758.00" y="341" fill="#cbd5f5" font-size="10" text-anchor="middle">12-14</text>
<line x1="930.00" y1="323" x2="930.00" y2="327" stroke="#94a3b8" stroke-opacity="0.5" stroke-width="1" />
<text x="930.00" y="341" fill="#cbd5f5" font-size="10" text-anchor="middle">12-20</text>
<line x1="70" y1="74" x2="70" y2="323" stroke="#94a3b8" stroke-width="1" />
<line x1="70" y1="323" x2="930" y2="323" stroke="#94a3b8" stroke-width="1" />
<path d="M70.00,302.25 L99.66,288.42 L129.31,302.25 L158.97,293.80 L188.62,299.94 L218.28,299.94 L247.93,94.75 L277.59,299.18 L307.24,276.12 L336.90,296.87 L366.55,286.11 L396.21,216.18 L425.86,192.35 L485.17,295.33 L514.83,300.71 L544.48,298.41 L574.14,150.85 L603.79,296.10 L633.45,301.48 L663.10,298.41 L692.76,291.49 L722.41,280.73 L752.07,301.48 L781.72,293.80 L811.38,298.41 L841.03,301.48 L870.69,153.93 L900.34,157.77 L930.00,296.10" fill="none" stroke="#60a5fa" stroke-width="2.2" stroke-linecap="round" />
<circle cx="70.00" cy="302.25" r="3" fill="#60a5fa" stroke="#0f172a" stroke-width="1" />
<text x="70.00" y="292.25" fill="#e2e8f0" font-size="9" text-anchor="middle">1</text>
<circle cx="99.66" cy="288.42" r="3" fill="#60a5fa" stroke="#0f172a" stroke-width="1" />
<text x="99.66" y="268.42" fill="#e2e8f0" font-size="9" text-anchor="middle">19</text>
<circle cx="129.31" cy="302.25" r="3" fill="#60a5fa" stroke="#0f172a" stroke-width="1" />
<text x="129.31" y="292.25" fill="#e2e8f0" font-size="9" text-anchor="middle">1</text>
<circle cx="158.97" cy="293.80" r="3" fill="#60a5fa" stroke="#0f172a" stroke-width="1" />
<text x="158.97" y="273.80" fill="#e2e8f0" font-size="9" text-anchor="middle">12</text>
<circle cx="188.62" cy="299.94" r="3" fill="#60a5fa" stroke="#0f172a" stroke-width="1" />
<text x="188.62" y="289.94" fill="#e2e8f0" font-size="9" text-anchor="middle">4</text>
<circle cx="218.28" cy="299.94" r="3" fill="#60a5fa" stroke="#0f172a" stroke-width="1" />
<text x="218.28" y="279.94" fill="#e2e8f0" font-size="9" text-anchor="middle">4</text>
<circle cx="247.93" cy="94.75" r="3" fill="#60a5fa" stroke="#0f172a" stroke-width="1" />
<text x="247.93" y="84.75" fill="#e2e8f0" font-size="9" text-anchor="middle">271</text>
<circle cx="277.59" cy="299.18" r="3" fill="#60a5fa" stroke="#0f172a" stroke-width="1" />
<text x="277.59" y="279.18" fill="#e2e8f0" font-size="9" text-anchor="middle">5</text>
<circle cx="307.24" cy="276.12" r="3" fill="#60a5fa" stroke="#0f172a" stroke-width="1" />
<text x="307.24" y="266.12" fill="#e2e8f0" font-size="9" text-anchor="middle">35</text>
<circle cx="336.90" cy="296.87" r="3" fill="#60a5fa" stroke="#0f172a" stroke-width="1" />
<text x="336.90" y="276.87" fill="#e2e8f0" font-size="9" text-anchor="middle">8</text>
<circle cx="366.55" cy="286.11" r="3" fill="#60a5fa" stroke="#0f172a" stroke-width="1" />
<text x="366.55" y="276.11" fill="#e2e8f0" font-size="9" text-anchor="middle">22</text>
<circle cx="396.21" cy="216.18" r="3" fill="#60a5fa" stroke="#0f172a" stroke-width="1" />
<text x="396.21" y="196.18" fill="#e2e8f0" font-size="9" text-anchor="middle">113</text>
<circle cx="425.86" cy="192.35" r="3" fill="#60a5fa" stroke="#0f172a" stroke-width="1" />
<text x="425.86" y="182.35" fill="#e2e8f0" font-size="9" text-anchor="middle">144</text>
<circle cx="485.17" cy="295.33" r="3" fill="#60a5fa" stroke="#0f172a" stroke-width="1" />
<text x="485.17" y="275.33" fill="#e2e8f0" font-size="9" text-anchor="middle">10</text>
<circle cx="514.83" cy="300.71" r="3" fill="#60a5fa" stroke="#0f172a" stroke-width="1" />
<text x="514.83" y="290.71" fill="#e2e8f0" font-size="9" text-anchor="middle">3</text>
<circle cx="544.48" cy="298.41" r="3" fill="#60a5fa" stroke="#0f172a" stroke-width="1" />
<text x="544.48" y="278.41" fill="#e2e8f0" font-size="9" text-anchor="middle">6</text>
<circle cx="574.14" cy="150.85" r="3" fill="#60a5fa" stroke="#0f172a" stroke-width="1" />
<text x="574.14" y="140.85" fill="#e2e8f0" font-size="9" text-anchor="middle">198</text>
<circle cx="603.79" cy="296.10" r="3" fill="#60a5fa" stroke="#0f172a" stroke-width="1" />
<text x="603.79" y="276.10" fill="#e2e8f0" font-size="9" text-anchor="middle">9</text>
<circle cx="633.45" cy="301.48" r="3" fill="#60a5fa" stroke="#0f172a" stroke-width="1" />
<text x="633.45" y="291.48" fill="#e2e8f0" font-size="9" text-anchor="middle">2</text>
<circle cx="663.10" cy="298.41" r="3" fill="#60a5fa" stroke="#0f172a" stroke-width="1" />
<text x="663.10" y="278.41" fill="#e2e8f0" font-size="9" text-anchor="middle">6</text>
<circle cx="692.76" cy="291.49" r="3" fill="#60a5fa" stroke="#0f172a" stroke-width="1" />
<text x="692.76" y="281.49" fill="#e2e8f0" font-size="9" text-anchor="middle">15</text>
<circle cx="722.41" cy="280.73" r="3" fill="#60a5fa" stroke="#0f172a" stroke-width="1" />
<text x="722.41" y="260.73" fill="#e2e8f0" font-size="9" text-anchor="middle">29</text>
<circle cx="752.07" cy="301.48" r="3" fill="#60a5fa" stroke="#0f172a" stroke-width="1" />
<text x="752.07" y="291.48" fill="#e2e8f0" font-size="9" text-anchor="middle">2</text>
<circle cx="781.72" cy="293.80" r="3" fill="#60a5fa" stroke="#0f172a" stroke-width="1" />
<text x="781.72" y="273.80" fill="#e2e8f0" font-size="9" text-anchor="middle">12</text>
<circle cx="811.38" cy="298.41" r="3" fill="#60a5fa" stroke="#0f172a" stroke-width="1" />
<text x="811.38" y="288.41" fill="#e2e8f0" font-size="9" text-anchor="middle">6</text>
<circle cx="841.03" cy="301.48" r="3" fill="#60a5fa" stroke="#0f172a" stroke-width="1" />
<text x="841.03" y="281.48" fill="#e2e8f0" font-size="9" text-anchor="middle">2</text>
<circle cx="870.69" cy="153.93" r="3" fill="#60a5fa" stroke="#0f172a" stroke-width="1" />
<text x="870.69" y="143.93" fill="#e2e8f0" font-size="9" text-anchor="middle">194</text>
<circle cx="900.34" cy="157.77" r="3" fill="#60a5fa" stroke="#0f172a" stroke-width="1" />
<text x="900.34" y="137.77" fill="#e2e8f0" font-size="9" text-anchor="middle">189</text>
<circle cx="930.00" cy="296.10" r="3" fill="#60a5fa" stroke="#0f172a" stroke-width="1" />
<text x="930.00" y="286.10" fill="#e2e8f0" font-size="9" text-anchor="middle">9</text>
<text x="70" y="403" fill="#e2e8f0" font-size="13" font-weight="600">本年核心指标趋势（滑动7日窗口平均）</text>
<line x1="70" y1="656.00" x2="930" y2="656.00" stroke="#94a3b8" stroke-opacity="0.18" stroke-width="1" />
<text x="62" y="660.00" fill="#cbd5f5" font-size="10" text-anchor="end">-12.6</text>
<line x1="70" y1="593.75" x2="930" y2="593.75" stroke="#94a3b8" stroke-opacity="0.18" stroke-width="1" />
<text x="62" y="597.75" fill="#cbd5f5" font-size="10" text-anchor="end">37.7</text>
<line x1="70" y1="531.50" x2="930" y2="531.50" stroke="#94a3b8" stroke-opacity="0.18" stroke-width="1" />
<text x="62" y="535.50" fill="#cbd5f5" font-size="10" text-anchor="end">87.9</text>
<line x1="70" y1="469.25" x2="930" y2="469.25" stroke="#94a3b8" stroke-opacity="0.18" stroke-width="1" />
<text x="62" y="473.25" fill="#cbd5f5" font-size="10" text-anchor="end">138.2</text>
<line x1="70" y1="407.00" x2="930" y2="407.00" stroke="#94a3b8" stroke-opacity="0.18" stroke-width="1" />
<text x="62" y="411.00" fill="#cbd5f5" font-size="10" text-anchor="end">188.5</text>
<line x1="70.00" y1="656" x2="70.00" y2="660" stroke="#94a3b8" stroke-opacity="0.5" stroke-width="1" />
<text x="70.00" y="674" fill="#cbd5f5" font-size="10" text-anchor="middle">2024-12</text>
<line x1="242.00" y1="656" x2="242.00" y2="660" stroke="#94a3b8" stroke-opacity="0.5" stroke-width="1" />
<text x="242.00" y="674" fill="#cbd5f5" font-size="10" text-anchor="middle">2025-03</text>
<line x1="414.00" y1="656" x2="414.00" y2="660" stroke="#94a3b8" stroke-opacity="0.5" stroke-width="1" />
<text x="414.00" y="674" fill="#cbd5f5" font-size="10" text-anchor="middle">2025-05</text>
<line x1="586.00" y1="656" x2="586.00" y2="660" stroke="#94a3b8" stroke-opacity="0.5" stroke-width="1" />
<text x="586.00" y="674" fill="#cbd5f5" font-size="10" text-anchor="middle">2025-07</text>
<line x1="758.00" y1="656" x2="758.00" y2="660" stroke="#94a3b8" stroke-opacity="0.5" stroke-width="1" />
<text x="758.00" y="674" fill="#cbd5f5" font-size="10" text-anchor="middle">2025-10</text>
<line x1="930.00" y1="656" x2="930.00" y2="660" stroke="#94a3b8" stroke-opacity="0.5" stroke-width="1" />
<text x="930.00" y="674" fill="#cbd5f5" font-size="10" text-anchor="middle">2025-12</text>
<line x1="70" y1="407" x2="70" y2="656" stroke="#94a3b8" stroke-width="1" />
<line x1="70" y1="656" x2="930" y2="656" stroke="#94a3b8" stroke-width="1" />
<path d="M70.00,656.00 L70.00,579.70 L72.36,606.33 L74.73,614.38 L77.09,618.71 L79.45,621.31 L81.81,622.84 L86.54,623.93 L88.90,632.24 L91.26,631.00 L93.63,631.36 L95.99,631.36 L98.35,631.00 L100.71,631.18 L103.08,630.47 L105.44,628.53 L107.80,630.30 L110.16,630.30 L112.53,630.30 L114.89,630.47 L117.25,630.12 L119.62,630.12 L121.98,629.77 L124.34,629.41 L126.70,629.41 L129.07,629.59 L131.43,629.77 L133.79,630.30 L136.15,630.30 L138.52,631.89 L140.88,630.47 L143.24,630.12 L145.60,630.12 L147.97,630.30 L150.33,628.88 L152.69,629.94 L155.05,627.47 L159.78,624.81 L162.14,622.87 L166.87,622.51 L169.23,622.87 L173.96,620.39 L176.32,619.86 L178.68,617.03 L181.04,619.15 L183.41,619.51 L185.77,618.27 L188.13,615.97 L190.49,618.62 L192.86,618.44 L197.58,624.28 L199.95,624.46 L202.31,626.41 L204.67,626.76 L207.03,627.64 L209.40,629.77 L211.76,629.59 L214.12,627.64 L216.48,626.58 L218.85,625.70 L221.21,627.29 L225.93,627.64 L228.30,625.70 L233.02,627.47 L235.38,627.47 L237.75,554.23 L240.11,555.47 L242.47,535.13 L244.84,531.59 L247.20,531.94 L249.56,531.41 L251.92,527.70 L254.29,602.70 L256.65,601.11 L259.01,599.87 L261.37,577.23 L266.10,575.99 L270.82,575.64 L273.19,581.47 L275.55,582.18 L277.91,552.46 L280.27,526.81 L282.64,553.52 L285.00,551.22 L287.36,548.92 L289.73,547.51 L292.09,503.64 L294.45,522.21 L296.81,533.00 L299.18,530.70 L301.54,528.58 L303.90,526.10 L306.26,494.97 L308.63,492.85 L310.99,476.22 L313.35,509.48 L315.71,504.52 L318.08,506.65 L320.44,511.25 L322.80,542.73 L325.16,561.31 L327.53,549.63 L329.89,523.45 L332.25,497.98 L334.62,502.58 L336.98,503.46 L339.34,458.88 L341.70,444.20 L344.07,442.96 L346.43,427.75 L348.79,459.41 L351.15,457.82 L353.52,455.17 L355.88,472.15 L358.24,514.43 L360.60,526.64 L362.97,570.15 L365.33,568.74 L367.69,568.74 L370.05,571.39 L374.78,596.86 L377.14,596.51 L379.51,627.11 L381.87,623.22 L384.23,623.40 L386.59,619.51 L388.96,614.91 L391.32,616.68 L396.04,585.90 L400.77,570.15 L403.13,531.59 L407.86,534.95 L410.22,511.42 L412.58,515.14 L414.95,514.78 L417.31,544.33 L419.67,557.95 L422.03,601.29 L424.40,599.52 L426.76,609.95 L429.12,574.04 L433.85,574.22 L438.57,576.17 L440.93,576.34 L443.30,575.28 L445.66,575.81 L448.02,593.33 L450.38,629.77 L452.75,624.99 L457.47,622.34 L459.84,623.57 L462.20,624.28 L464.56,625.52 L466.92,626.94 L469.29,626.05 L471.65,631.00 L474.01,633.66 L476.37,599.16 L478.74,568.38 L481.10,566.08 L483.46,566.08 L485.82,566.61 L488.19,566.44 L490.55,565.91 L492.91,598.81 L495.27,582.71 L497.64,566.08 L500.00,563.43 L502.36,561.13 L504.73,562.90 L507.09,519.03 L509.45,488.07 L511.81,504.52 L514.18,523.27 L516.54,525.57 L518.90,528.58 L521.26,528.58 L523.63,571.04 L525.99,604.12 L528.35,635.25 L533.08,634.54 L535.44,634.19 L537.80,633.83 L540.16,632.95 L542.53,603.94 L544.89,572.27 L547.25,572.27 L549.62,567.32 L551.98,566.08 L554.34,547.16 L556.70,529.64 L559.07,559.72 L561.43,587.66 L563.79,571.21 L566.15,571.57 L568.52,570.68 L570.88,571.57 L573.24,562.01 L575.60,560.95 L577.97,564.14 L580.33,577.58 L582.69,576.17 L585.05,577.23 L587.42,593.33 L589.78,619.15 L592.14,620.74 L594.51,621.28 L596.87,624.64 L599.23,628.70 L601.59,628.53 L603.96,628.88 L606.32,630.83 L608.68,631.54 L613.41,629.41 L615.77,629.06 L618.13,629.24 L620.49,629.41 L622.86,630.65 L625.22,630.83 L627.58,628.17 L632.31,626.58 L634.67,625.34 L637.03,626.41 L639.40,627.82 L641.76,625.34 L644.12,625.34 L646.48,627.64 L648.85,517.79 L651.21,516.38 L653.57,517.26 L655.93,516.73 L658.30,518.85 L660.66,517.61 L663.02,516.73 L665.38,629.41 L667.75,631.54 L670.11,632.07 L672.47,632.77 L674.84,633.66 L677.20,634.01 L679.56,632.77 L681.92,632.07 L684.29,629.94 L686.65,629.24 L689.01,629.24 L691.37,629.06 L693.74,629.41 L696.10,632.07 L698.46,631.00 L700.82,633.48 L703.19,634.01 L705.55,633.48 L707.91,633.48 L710.27,633.83 L712.64,633.13 L715.00,634.19 L717.36,633.13 L719.73,633.13 L722.09,632.07 L724.45,631.71 L726.81,631.00 L729.18,631.71 L731.54,630.47 L733.90,631.89 L736.26,631.89 L738.63,631.89 L740.99,630.30 L745.71,629.59 L748.08,627.64 L750.44,629.77 L752.80,628.53 L755.16,627.11 L757.53,626.05 L759.89,624.81 L762.25,625.87 L764.62,626.23 L766.98,624.11 L769.34,624.64 L771.70,625.34 L774.07,627.82 L776.43,631.18 L781.15,630.47 L783.52,629.41 L785.88,631.54 L788.24,631.89 L790.60,632.07 L792.97,632.24 L795.33,629.77 L797.69,629.94 L800.05,630.30 L802.42,631.00 L804.78,630.47 L807.14,630.65 L809.51,599.87 L814.23,597.39 L816.59,597.22 L818.96,599.52 L821.32,599.16 L823.68,599.69 L826.04,600.05 L828.41,630.12 L830.77,634.72 L833.13,633.83 L835.49,633.30 L837.86,633.30 L840.22,631.36 L842.58,630.83 L847.31,629.77 L849.67,630.47 L852.03,630.47 L856.76,630.47 L859.12,630.12 L861.48,632.60 L863.85,630.30 L866.21,632.42 L868.57,630.47 L870.93,632.07 L873.30,632.07 L875.66,585.19 L878.02,584.48 L880.38,581.65 L882.75,580.41 L885.11,578.64 L887.47,559.36 L889.84,534.60 L894.56,580.77 L896.92,581.12 L899.29,586.25 L901.65,552.64 L904.01,554.94 L906.37,574.57 L908.74,598.99 L911.10,598.10 L913.46,593.50 L915.82,594.21 L918.19,627.11 L920.55,627.64 L922.91,627.64 L925.27,594.39 L927.64,563.61 L930.00,567.14 L930.00,656.00 Z" fill="#60a5fa" fill-opacity="0.16" stroke="none" />
<path d="M70.00,579.70 L72.36,606.33 L74.73,614.38 L77.09,618.71 L79.45,621.31 L81.81,622.84 L86.54,623.93 L88.90,632.24 L91.26,631.00 L93.63,631.36 L95.99,631.36 L98.35,631.00 L100.71,631.18 L103.08,630.47 L105.44,628.53 L107.80,630.30 L110.16,630.30 L112.53,630.30 L114.89,630.47 L117.25,630.12 L119.62,630.12 L121.98,629.77 L124.34,629.41 L126.70,629.41 L129.07,629.59 L131.43,629.77 L133.79,630.30 L136.15,630.30 L138.52,631.89 L140.88,630.47 L143.24,630.12 L145.60,630.12 L147.97,630.30 L150.33,628.88 L152.69,629.94 L155.05,627.47 L159.78,624.81 L162.14,622.87 L166.87,622.51 L169.23,622.87 L173.96,620.39 L176.32,619.86 L178.68,617.03 L181.04,619.15 L183.41,619.51 L185.77,618.27 L188.13,615.97 L190.49,618.62 L192.86,618.44 L197.58,624.28 L199.95,624.46 L202.31,626.41 L204.67,626.76 L207.03,627.64 L209.40,629.77 L211.76,629.59 L214.12,627.64 L216.48,626.58 L218.85,625.70 L221.21,627.29 L225.93,627.64 L228.30,625.70 L233.02,627.47 L235.38,627.47 L237.75,554.23 L240.11,555.47 L242.47,535.13 L244.84,531.59 L247.20,531.94 L249.56,531.41 L251.92,527.70 L254.29,602.70 L256.65,601.11 L259.01,599.87 L261.37,577.23 L266.10,575.99 L270.82,575.64 L273.19,581.47 L275.55,582.18 L277.91,552.46 L280.27,526.81 L282.64,553.52 L285.00,551.22 L287.36,548.92 L289.73,547.51 L292.09,503.64 L294.45,522.21 L296.81,533.00 L299.18,530.70 L301.54,528.58 L303.90,526.10 L306.26,494.97 L308.63,492.85 L310.99,476.22 L313.35,509.48 L315.71,504.52 L318.08,506.65 L320.44,511.25 L322.80,542.73 L325.16,561.31 L327.53,549.63 L329.89,523.45 L332.25,497.98 L334.62,502.58 L336.98,503.46 L339.34,458.88 L341.70,444.20 L344.07,442.96 L346.43,427.75 L348.79,459.41 L351.15,457.82 L353.52,455.17 L355.88,472.15 L358.24,514.43 L360.60,526.64 L362.97,570.15 L365.33,568.74 L367.69,568.74 L370.05,571.39 L374.78,596.86 L377.14,596.51 L379.51,627.11 L381.87,623.22 L384.23,623.40 L386.59,619.51 L388.96,614.91 L391.32,616.68 L396.04,585.90 L400.77,570.15 L403.13,531.59 L407.86,534.95 L410.22,511.42 L412.58,515.14 L414.95,514.78 L417.31,544.33 L419.67,557.95 L422.03,601.29 L424.40,599.52 L426.76,609.95 L429.12,574.04 L433.85,574.22 L438.57,576.17 L440.93,576.34 L443.30,575.28 L445.66,575.81 L448.02,593.33 L450.38,629.77 L452.75,624.99 L457.47,622.34 L459.84,623.57 L462.20,624.28 L464.56,625.52 L466.92,626.94 L469.29,626.05 L471.65,631.00 L474.01,633.66 L476.37,599.16 L478.74,568.38 L481.10,566.08 L483.46,566.08 L485.82,566.61 L488.19,566.44 L490.55,565.91 L492.91,598.81 L495.27,582.71 L497.64,566.08 L500.00,563.43 L502.36,561.13 L504.73,562.90 L507.09,519.03 L509.45,488.07 L511.81,504.52 L514.18,523.27 L516.54,525.57 L518.90,528.58 L521.26,528.58 L523.63,571.04 L525.99,604.12 L528.35,635.25 L533.08,634.54 L535.44,634.19 L537.80,633.83 L540.16,632.95 L542.53,603.94 L544.89,572.27 L547.25,572.27 L549.62,567.32 L551.98,566.08 L554.34,547.16 L556.70,529.64 L559.07,559.72 L561.43,587.66 L563.79,571.21 L566.15,571.57 L568.52,570.68 L570.88,571.57 L573.24,562.01 L575.60,560.95 L577.97,564.14 L580.33,577.58 L582.69,576.17 L585.05,577.23 L587.42,593.33 L589.78,619.15 L592.14,620.74 L594.51,621.28 L596.87,624.64 L599.23,628.70 L601.59,628.53 L603.96,628.88 L606.32,630.83 L608.68,631.54 L613.41,629.41 L615.77,629.06 L618.13,629.24 L620.49,629.41 L622.86,630.65 L625.22,630.83 L627.58,628.17 L632.31,626.58 L634.67,625.34 L637.03,626.41 L639.40,627.82 L641.76,625.34 L644.12,625.34 L646.48,627.64 L648.85,517.79 L651.21,516.38 L653.57,517.26 L655.93,516.73 L658.30,518.85 L660.66,517.61 L663.02,516.73 L665.38,629.41 L667.75,631.54 L670.11,632.07 L672.47,632.77 L674.84,633.66 L677.20,634.01 L679.56,632.77 L681.92,632.07 L684.29,629.94 L686.65,629.24 L689.01,629.24 L691.37,629.06 L693.74,629.41 L696.10,632.07 L698.46,631.00 L700.82,633.48 L703.19,634.01 L705.55,633.48 L707.91,633.48 L710.27,633.83 L712.64,633.13 L715.00,634.19 L717.36,633.13 L719.73,633.13 L722.09,632.07 L724.45,631.71 L726.81,631.00 L729.18,631.71 L731.54,630.47 L733.90,631.89 L736.26,631.89 L738.63,631.89 L740.99,630.30 L745.71,629.59 L748.08,627.64 L750.44,629.77 L752.80,628.53 L755.16,627.11 L757.53,626.05 L759.89,624.81 L762.25,625.87 L764.62,626.23 L766.98,624.11 L769.34,624.64 L771.70,625.34 L774.07,627.82 L776.43,631.18 L781.15,630.47 L783.52,629.41 L785.88,631.54 L788.24,631.89 L790.60,632.07 L792.97,632.24 L795.33,629.77 L797.69,629.94 L800.05,630.30 L802.42,631.00 L804.78,630.47 L807.14,630.65 L809.51,599.87 L814.23,597.39 L816.59,597.22 L818.96,599.52 L821.32,599.16 L823.68,599.69 L826.04,600.05 L828.41,630.12 L830.77,634.72 L833.13,633.83 L835.49,633.30 L837.86,633.30 L840.22,631.36 L842.58,630.83 L847.31,629.77 L849.67,630.47 L852.03,630.47 L856.76,630.47 L859.12,630.12 L861.48,632.60 L863.85,630.30 L866.21,632.42 L868.57,630.47 L870.93,632.07 L873.30,632.07 L875.66,585.19 L878.02,584.48 L880.38,581.65 L882.75,580.41 L885.11,578.64 L887.47,559.36 L889.84,534.60 L894.56,580.77 L896.92,581.12 L899.29,586.25 L901.65,552.64 L904.01,554.94 L906.37,574.57 L908.74,598.99 L911.10,598.10 L913.46,593.50 L915.82,594.21 L918.19,627.11 L920.55,627.64 L922.91,627.64 L925.27,594.39 L927.64,563.61 L930.00,567.14" fill="none" stroke="#60a5fa" stroke-width="2.2" stroke-linecap="round" />
</svg>
