<svg xmlns="http://www.w3.org/2000/svg" viewBox="0 0 960 640" width="960" height="640">
  <rect width="960" height="640" fill="#0f172a" />
  <line x1="40" y1="40.00" x2="920.00" y2="40.00" stroke="#94a3b8" stroke-opacity="0.18" stroke-width="1" /><line x1="40" y1="128.00" x2="920.00" y2="128.00" stroke="#94a3b8" stroke-opacity="0.18" stroke-width="1" /><line x1="40" y1="216.00" x2="920.00" y2="216.00" stroke="#94a3b8" stroke-opacity="0.18" stroke-width="1" /><line x1="40" y1="304.00" x2="920.00" y2="304.00" stroke="#94a3b8" stroke-opacity="0.18" stroke-width="1" />
  <line x1="40" y1="336.00" x2="920.00" y2="336.00" stroke="#94a3b8" stroke-opacity="0.18" stroke-width="1" /><line x1="40" y1="424.00" x2="920.00" y2="424.00" stroke="#94a3b8" stroke-opacity="0.18" stroke-width="1" /><line x1="40" y1="512.00" x2="920.00" y2="512.00" stroke="#94a3b8" stroke-opacity="0.18" stroke-width="1" /><line x1="40" y1="600.00" x2="920.00" y2="600.00" stroke="#94a3b8" stroke-opacity="0.18" stroke-width="1" />
  <line x1="40" y1="320.00" x2="920.00" y2="320.00" stroke="#1f2937" stroke-width="1" />
  <polyline points="40.00,106.49 71.43,179.56 102.86,125.47 134.29,301.87 165.71,172.31 197.14,234.78 228.57,209.08 260.00,126.38 291.43,140.29 322.86,110.15 354.29,304.00 385.71,202.04 417.14,41.02 448.57,153.35 480.00,163.02 511.43,206.06 542.86,217.03 574.29,206.09 605.71,286.04 637.14,248.68 668.57,164.83 700.00,282.04 731.43,118.81 762.86,130.27 794.29,49.02 825.71,40.00 857.14,117.77 888.57,127.68 920.00,240.04" fill="none" stroke="#60a5fa" stroke-width="2" stroke-linecap="round" stroke-linejoin="round" />
  <polyline points="40.00,426.41 42.49,425.37 44.99,441.03 47.48,432.66 49.97,459.72 52.46,469.24 54.96,478.82 57.45,488.92 59.94,496.97 62.44,463.24 64.93,446.56 67.42,445.49 69.92,450.78 72.41,446.09 74.90,479.32 77.39,478.85 79.89,486.48 82.38,516.72 84.87,504.30 87.37,508.86 89.86,505.31 92.35,485.56 94.84,497.09 97.34,524.95 99.83,531.80 102.32,519.60 104.82,510.02 107.31,517.02 109.80,515.97 112.29,520.65 114.79,543.29 117.28,534.65 119.77,540.53 122.27,531.09 124.76,545.06 127.25,531.32 129.75,518.39 132.24,489.76 134.73,504.17 137.22,534.65 139.72,543.51 142.21,568.75 144.70,581.89 147.20,582.75 149.69,600.00 152.18,548.97 154.67,514.38 157.17,527.50 159.66,511.37 162.15,500.77 164.65,482.61 167.14,477.38 169.63,522.72 172.12,543.80 174.62,539.25 177.11,530.31 179.60,551.35 182.10,564.31 184.59,544.36 187.08,539.43 189.58,519.55 192.07,515.93 194.56,506.97 197.05,474.30 199.55,477.72 202.04,489.63 204.53,475.13 207.03,463.93 209.52,451.49 212.01,414.32 214.50,398.56 217.00,373.02 219.49,361.88 221.98,350.75 224.48,336.00 226.97,358.48 229.46,388.64 231.95,384.04 234.45,424.47 236.94,455.24 239.43,469.64 241.93,511.16 244.42,507.23 246.91,512.92 249.41,536.32 251.90,515.38 254.39,490.85 256.88,495.71 259.38,483.11 261.87,480.47 264.36,478.44 266.86,478.23 269.35,495.56 271.84,492.76 274.33,493.21 276.83,509.53 279.32,501.39 281.81,474.65 284.31,463.86 286.80,484.54 289.29,487.69 291.78,486.21 294.28,479.04 296.77,493.47 299.26,535.61 301.76,556.44 304.25,543.53 306.74,548.13 309.24,540.74 311.73,557.76 314.22,545.11 316.71,539.47 319.21,537.69 321.70,487.28 324.19,499.85 326.69,489.88 329.18,485.15 331.67,494.45 334.16,501.38 336.66,497.92 339.15,519.70 341.64,512.17 344.14,513.06 346.63,491.75 349.12,492.35 351.61,462.08 354.11,464.30 356.60,482.59 359.09,470.56 361.59,478.93 364.08,496.72 366.57,487.63 369.07,507.46 371.56,516.00 374.05,518.31 376.54,520.57 379.04,517.40 381.53,518.63 384.02,515.43 386.52,506.55 389.01,485.60 391.50,466.85 393.99,475.41 396.49,468.76 398.98,443.90 401.47,436.95 403.97,433.26 406.46,445.73 408.95,472.14 411.44,483.39 413.94,509.01 416.43,500.11 418.92,475.26 421.42,463.09 423.91,448.97 426.40,446.17 428.90,430.90 431.39,386.68 433.88,393.80 436.37,424.30 438.87,449.24 441.36,457.86 443.85,438.54 446.35,430.41 448.84,451.34 451.33,457.62 453.82,463.61 456.32,458.16 458.81,465.77 461.30,478.25 463.80,489.06 466.29,504.06 468.78,523.76 471.27,506.14 473.77,494.02 476.26,491.81 478.75,475.39 481.25,473.50 483.74,469.89 486.23,470.27 488.73,488.25 491.22,490.86 493.71,486.55 496.20,488.58 498.70,480.38 501.19,472.55 503.68,462.14 506.18,443.91 508.67,433.01 511.16,434.19 513.65,439.00 516.15,451.24 518.64,453.99 521.13,450.38 523.63,475.41 526.12,501.20 528.61,518.74 531.10,524.17 533.60,521.98 536.09,538.95 538.58,549.69 541.08,529.45 543.57,521.41 546.06,512.44 548.56,489.03 551.05,503.48 553.54,479.57 556.03,478.96 558.53,494.47 561.02,468.79 563.51,442.69 566.01,455.42 568.50,445.78 570.99,473.03 573.48,463.49 575.98,470.18 578.47,504.46 580.96,494.18 583.46,509.79 585.95,496.18 588.44,469.78 590.93,471.68 593.43,457.46 595.92,444.48 598.41,465.27 600.91,443.53 603.40,435.09 605.89,440.19 608.39,435.07 610.88,438.14 613.37,437.99 615.86,445.76 618.36,457.11 620.85,464.48 623.34,461.98 625.84,456.28 628.33,454.18 630.82,445.74 633.31,429.31 635.81,421.66 638.30,432.70 640.79,448.74 643.29,469.89 645.78,473.70 648.27,497.31 650.76,517.90 653.26,528.37 655.75,523.35 658.24,504.76 660.74,481.45 663.23,482.16 665.72,471.94 668.22,469.84 670.71,456.70 673.20,447.79 675.69,454.38 678.19,458.09 680.68,449.07 683.17,449.32 685.67,465.27 688.16,466.62 690.65,461.23 693.14,468.74 695.64,472.45 698.13,476.62 700.62,477.29 703.12,463.45 705.61,476.96 708.10,482.16 710.59,459.15 713.09,464.99 715.58,473.54 718.07,459.54 720.57,457.81 723.06,472.43 725.55,473.71 728.05,501.93 730.54,516.32 733.03,512.27 735.52,510.42 738.02,554.98 740.51,534.21 743.00,525.58 745.50,533.45 747.99,530.88 750.48,532.36 752.97,544.76 755.47,490.92 757.96,502.92 760.45,523.00 762.95,517.10 765.44,491.73 767.93,503.05 770.42,497.12 772.92,506.70 775.41,495.52 777.90,485.97 780.40,457.73 782.89,460.57 785.38,444.93 787.88,466.05 790.37,471.44 792.86,492.36 795.35,488.11 797.85,488.06 800.34,498.30 802.83,525.06 805.33,516.71 807.82,520.16 810.31,495.23 812.80,510.46 815.30,537.88 817.79,537.40 820.28,513.61 822.78,517.16 825.27,521.51 827.76,550.34 830.25,540.33 832.75,522.85 835.24,510.36 837.73,499.61 840.23,489.08 842.72,480.71 845.21,478.05 847.71,456.35 850.20,452.05 852.69,467.00 855.18,469.07 857.68,501.59 860.17,498.53 862.66,492.56 865.16,527.75 867.65,531.77 870.14,523.83 872.63,520.74 875.13,521.17 877.62,527.17 880.11,488.03 882.61,476.77 885.10,484.18 887.59,497.46 890.08,519.05 892.58,499.27 895.07,516.24 897.56,558.19 900.06,560.51 902.55,584.56 905.04,566.93 907.54,549.40 910.03,517.67 912.52,467.97 915.01,441.53 917.51,434.02 920.00,425.54" fill="none" stroke="#60a5fa" stroke-width="2" stroke-linecap="round" stroke-linejoin="round" />
  
  
  </svg>