<svg xmlns="http://www.w3.org/2000/svg" viewBox="0 0 960 720" width="960" height="720">
<rect width="960" height="720" fill="#0f172a" />
<text x="480" y="28" fill="#e2e8f0" font-size="16" font-weight="700" text-anchor="middle">耳机音量均值趋势图</text>
<text x="70" y="70" fill="#e2e8f0" font-size="13" font-weight="600">本月分天指标明细</text>
<line x1="70" y1="323.00" x2="930" y2="323.00" stroke="#94a3b8" stroke-opacity="0.18" stroke-width="1" />
<text x="62" y="327.00" fill="#cbd5f5" font-size="10" text-anchor="end">55.4</text>
<line x1="70" y1="260.75" x2="930" y2="260.75" stroke="#94a3b8" stroke-opacity="0.18" stroke-width="1" />
<text x="62" y="264.75" fill="#cbd5f5" font-size="10" text-anchor="end">62.3</text>
<line x1="70" y1="198.50" x2="930" y2="198.50" stroke="#94a3b8" stroke-opacity="0.18" stroke-width="1" />
<text x="62" y="202.50" fill="#cbd5f5" font-size="10" text-anchor="end">69.2</text>
<line x1="70" y1="136.25" x2="930" y2="136.25" stroke="#94a3b8" stroke-opacity="0.18" stroke-width="1" />
<text x="62" y="140.25" fill="#cbd5f5" font-size="10" text-anchor="end">76.1</text>
<line x1="70" y1="74.00" x2="930" y2="74.00" stroke="#94a3b8" stroke-opacity="0.18" stroke-width="1" />
<text x="62" y="78.00" fill="#cbd5f5" font-size="10" text-anchor="end">83</text>
<line x1="70.00" y1="323" x2="70.00" y2="327" stroke="#94a3b8" stroke-opacity="0.5" stroke-width="1" />
<text x="70.00" y="341" fill="#cbd5f5" font-size="10" text-anchor="middle">11-19</text>
<line x1="242.00" y1="323" x2="242.00" y2="327" stroke="#94a3b8" stroke-opacity="0.5" stroke-width="1" />
<text x="242.00" y="341" fill="#cbd5f5" font-size="10" text-anchor="middle">11-24</text>
<line x1="414.00" y1="323" x2="414.00" y2="327" stroke="#94a3b8" stroke-opacity="0.5" stroke-width="1" />
<text x="414.00" y="341" fill="#cbd5f5" font-size="10" text-anchor="middle">11-30</text>
<line x1="586.00" y1="323" x2="586.00" y2="327" stroke="#94a3b8" stroke-opacity="0.5" stroke-width="1" />
<text x="586.00" y="341" fill="#cbd5f5" font-size="10" text-anchor="middle">12-06</text>
<line x1="758.00" y1="323" x2="758.00" y2="327" stroke="#94a3b8" stroke-opacity="0.5" stroke-width="1" />
<text x="758.00" y="341" fill="#cbd5f5" font-size="10" text-anchor="middle">12-12</text>
<line x1="930.00" y1="323" x2="930.00" y2="327" stroke="#94a3b8" stroke-opacity="0.5" stroke-width="1" />
<text x="930.00" y="341" fill="#cbd5f5" font-size="10" text-anchor="middle">12-18</text>
<line x1="70" y1="74" x2="70" y2="323" stroke="#94a3b8" stroke-width="1" />
<line x1="70" y1="323" x2="930" y2="323" stroke="#94a3b8" stroke-width="1" />
<path d="M70.00,147.01 L99.66,204.44 L129.31,161.93 L158.97,300.58 L188.62,198.74 L218.28,247.84 L247.93,227.65 L277.59,162.64 L307.24,173.58 L336.90,149.89 L366.55,302.25 L396.21,222.11 L425.86,95.55 L455.52,183.84 L485.17,191.44 L514.83,225.27 L544.48,233.89 L574.14,225.29 L603.79,288.13 L633.45,258.77 L663.10,192.87 L692.76,284.99 L722.41,156.69 L752.07,165.70 L811.38,101.84 L841.03,94.75 L870.69,155.88 L900.34,163.67 L930.00,251.98" fill="none" stroke="#60a5fa" stroke-width="2.2" stroke-linecap="round" />
<circle cx="70.00" cy="147.01" r="3" fill="#60a5fa" stroke="#0f172a" stroke-width="1" />
<text x="70.00" y="137.01" fill="#e2e8f0" font-size="9" text-anchor="middle">74.9</text>
<circle cx="99.66" cy="204.44" r="3" fill="#60a5fa" stroke="#0f172a" stroke-width="1" />
<text x="99.66" y="184.44" fill="#e2e8f0" font-size="9" text-anchor="middle">68.5</text>
<circle cx="129.31" cy="161.93" r="3" fill="#60a5fa" stroke="#0f172a" stroke-width="1" />
<text x="129.31" y="151.93" fill="#e2e8f0" font-size="9" text-anchor="middle">73.2</text>
<circle cx="158.97" cy="300.58" r="3" fill="#60a5fa" stroke="#0f172a" stroke-width="1" />
<text x="158.97" y="280.58" fill="#e2e8f0" font-size="9" text-anchor="middle">57.9</text>
<circle cx="188.62" cy="198.74" r="3" fill="#60a5fa" stroke="#0f172a" stroke-width="1" />
<text x="188.62" y="188.74" fill="#e2e8f0" font-size="9" text-anchor="middle">69.1</text>
<circle cx="218.28" cy="247.84" r="3" fill="#60a5fa" stroke="#0f172a" stroke-width="1" />
<text x="218.28" y="227.84" fill="#e2e8f0" font-size="9" text-anchor="middle">63.7</text>
<circle cx="247.93" cy="227.65" r="3" fill="#60a5fa" stroke="#0f172a" stroke-width="1" />
<text x="247.93" y="217.65" fill="#e2e8f0" font-size="9" text-anchor="middle">65.9</text>
<circle cx="277.59" cy="162.64" r="3" fill="#60a5fa" stroke="#0f172a" stroke-width="1" />
<text x="277.59" y="142.64" fill="#e2e8f0" font-size="9" text-anchor="middle">73.1</text>
<circle cx="307.24" cy="173.58" r="3" fill="#60a5fa" stroke="#0f172a" stroke-width="1" />
<text x="307.24" y="163.58" fill="#e2e8f0" font-size="9" text-anchor="middle">71.9</text>
<circle cx="336.90" cy="149.89" r="3" fill="#60a5fa" stroke="#0f172a" stroke-width="1" />
<text x="336.90" y="129.89" fill="#e2e8f0" font-size="9" text-anchor="middle">74.6</text>
<circle cx="366.55" cy="302.25" r="3" fill="#60a5fa" stroke="#0f172a" stroke-width="1" />
<text x="366.55" y="292.25" fill="#e2e8f0" font-size="9" text-anchor="middle">57.7</text>
<circle cx="396.21" cy="222.11" r="3" fill="#60a5fa" stroke="#0f172a" stroke-width="1" />
<text x="396.21" y="202.11" fill="#e2e8f0" font-size="9" text-anchor="middle">66.6</text>
<circle cx="425.86" cy="95.55" r="3" fill="#60a5fa" stroke="#0f172a" stroke-width="1" />
<text x="425.86" y="85.55" fill="#e2e8f0" font-size="9" text-anchor="middle">80.6</text>
<circle cx="455.52" cy="183.84" r="3" fill="#60a5fa" stroke="#0f172a" stroke-width="1" />
<text x="455.52" y="163.84" fill="#e2e8f0" font-size="9" text-anchor="middle">70.8</text>
<circle cx="485.17" cy="191.44" r="3" fill="#60a5fa" stroke="#0f172a" stroke-width="1" />
<text x="485.17" y="181.44" fill="#e2e8f0" font-size="9" text-anchor="middle">70</text>
<circle cx="514.83" cy="225.27" r="3" fill="#60a5fa" stroke="#0f172a" stroke-width="1" />
<text x="514.83" y="205.27" fill="#e2e8f0" font-size="9" text-anchor="middle">66.2</text>
<circle cx="544.48" cy="233.89" r="3" fill="#60a5fa" stroke="#0f172a" stroke-width="1" />
<text x="544.48" y="223.89" fill="#e2e8f0" font-size="9" text-anchor="middle">65.3</text>
<circle cx="574.14" cy="225.29" r="3" fill="#60a5fa" stroke="#0f172a" stroke-width="1" />
<text x="574.14" y="205.29" fill="#e2e8f0" font-size="9" text-anchor="middle">66.2</text>
<circle cx="603.79" cy="288.13" r="3" fill="#60a5fa" stroke="#0f172a" stroke-width="1" />
<text x="603.79" y="278.13" fill="#e2e8f0" font-size="9" text-anchor="middle">59.2</text>
<circle cx="633.45" cy="258.77" r="3" fill="#60a5fa" stroke="#0f172a" stroke-width="1" />
<text x="633.45" y="238.77" fill="#e2e8f0" font-size="9" text-anchor="middle">62.5</text>
<circle cx="663.10" cy="192.87" r="3" fill="#60a5fa" stroke="#0f172a" stroke-width="1" />
<text x="663.10" y="182.87" fill="#e2e8f0" font-size="9" text-anchor="middle">69.8</text>
<circle cx="692.76" cy="284.99" r="3" fill="#60a5fa" stroke="#0f172a" stroke-width="1" />
<text x="692.76" y="264.99" fill="#e2e8f0" font-size="9" text-anchor="middle">59.6</text>
<circle cx="722.41" cy="156.69" r="3" fill="#60a5fa" stroke="#0f172a" stroke-width="1" />
<text x="722.41" y="146.69" fill="#e2e8f0" font-size="9" text-anchor="middle">73.8</text>
<circle cx="752.07" cy="165.70" r="3" fill="#60a5fa" stroke="#0f172a" stroke-width="1" />
<text x="752.07" y="145.70" fill="#e2e8f0" font-size="9" text-anchor="middle">72.8</text>
<circle cx="811.38" cy="101.84" r="3" fill="#60a5fa" stroke="#0f172a" stroke-width="1" />
<text x="811.38" y="91.84" fill="#e2e8f0" font-size="9" text-anchor="middle">79.9</text>
<circle cx="841.03" cy="94.75" r="3" fill="#60a5fa" stroke="#0f172a" stroke-width="1" />
<text x="841.03" y="108.75" fill="#e2e8f0" font-size="9" text-anchor="middle">80.7</text>
<circle cx="870.69" cy="155.88" r="3" fill="#60a5fa" stroke="#0f172a" stroke-width="1" />
<text x="870.69" y="145.88" fill="#e2e8f0" font-size="9" text-anchor="middle">73.9</text>
<circle cx="900.34" cy="163.67" r="3" fill="#60a5fa" stroke="#0f172a" stroke-width="1" />
<text x="900.34" y="143.67" fill="#e2e8f0" font-size="9" text-anchor="middle">73</text>
<circle cx="930.00" cy="251.98" r="3" fill="#60a5fa" stroke="#0f172a" stroke-width="1" />
<text x="930.00" y="241.98" fill="#e2e8f0" font-size="9" text-anchor="middle">63.2</text>
<text x="70" y="403" fill="#e2e8f0" font-size="13" font-weight="600">本年核心指标趋势（滑动7日窗口平均）</text>
<line x1="70" y1="656.00" x2="930" y2="656.00" stroke="#94a3b8" stroke-opacity="0.18" stroke-width="1" />
<text x="62" y="660.00" fill="#cbd5f5" font-size="10" text-anchor="end">61.5</text>
<line x1="70" y1="593.75" x2="930" y2="593.75" stroke="#94a3b8" stroke-opacity="0.18" stroke-width="1" />
<text x="62" y="597.75" fill="#cbd5f5" font-size="10" text-anchor="end">66.4</text>
<line x1="70" y1="531.50" x2="930" y2="531.50" stroke="#94a3b8" stroke-opacity="0.18" stroke-width="1" />
<text x="62" y="535.50" fill="#cbd5f5" font-size="10" text-anchor="end">71.3</text>
<line x1="70" y1="469.25" x2="930" y2="469.25" stroke="#94a3b8" stroke-opacity="0.18" stroke-width="1" />
<text x="62" y="473.25" fill="#cbd5f5" font-size="10" text-anchor="end">76.2</text>
<line x1="70" y1="407.00" x2="930" y2="407.00" stroke="#94a3b8" stroke-opacity="0.18" stroke-width="1" />
<text x="62" y="411.00" fill="#cbd5f5" font-size="10" text-anchor="end">81</text>
<line x1="70.00" y1="656" x2="70.00" y2="660" stroke="#94a3b8" stroke-opacity="0.5" stroke-width="1" />
<text x="70.00" y="674" fill="#cbd5f5" font-size="10" text-anchor="middle">2024-12</text>
<line x1="242.00" y1="656" x2="242.00" y2="660" stroke="#94a3b8" stroke-opacity="0.5" stroke-width="1" />
<text x="242.00" y="674" fill="#cbd5f5" font-size="10" text-anchor="middle">2025-03</text>
<line x1="414.00" y1="656" x2="414.00" y2="660" stroke="#94a3b8" stroke-opacity="0.5" stroke-width="1" />
<text x="414.00" y="674" fill="#cbd5f5" font-size="10" text-anchor="middle">2025-05</text>
<line x1="586.00" y1="656" x2="586.00" y2="660" stroke="#94a3b8" stroke-opacity="0.5" stroke-width="1" />
<text x="586.00" y="674" fill="#cbd5f5" font-size="10" text-anchor="middle">2025-07</text>
<line x1="758.00" y1="656" x2="758.00" y2="660" stroke="#94a3b8" stroke-opacity="0.5" stroke-width="1" />
<text x="758.00" y="674" fill="#cbd5f5" font-size="10" text-anchor="middle">2025-10</text>
<line x1="930.00" y1="656" x2="930.00" y2="660" stroke="#94a3b8" stroke-opacity="0.5" stroke-width="1" />
<text x="930.00" y="674" fill="#cbd5f5" font-size="10" text-anchor="middle">2025-12</text>
<line x1="70" y1="407" x2="70" y2="656" stroke="#94a3b8" stroke-width="1" />
<line x1="70" y1="656" x2="930" y2="656" stroke="#94a3b8" stroke-width="1" />
<path d="M70.00,656.00 L70.00,494.83 L72.36,493.58 L74.73,516.18 L77.09,520.30 L79.45,541.35 L81.81,539.67 L84.18,540.01 L86.54,547.94 L88.90,554.27 L91.26,527.76 L95.99,514.65 L98.35,513.80 L100.71,517.97 L103.08,514.28 L105.44,540.40 L107.80,540.03 L110.16,546.02 L112.53,569.79 L114.89,560.03 L117.25,563.61 L119.62,560.83 L121.98,545.30 L124.34,554.36 L126.70,576.26 L129.07,581.65 L131.43,572.06 L133.79,564.53 L136.15,570.03 L138.52,569.20 L140.88,572.88 L143.24,590.68 L145.60,583.88 L147.97,588.51 L150.33,581.09 L152.69,592.06 L155.05,581.27 L157.42,571.10 L159.78,548.60 L162.14,559.93 L164.51,583.88 L166.87,590.85 L169.23,610.69 L171.59,621.02 L173.96,621.69 L176.32,635.25 L178.68,595.14 L181.04,567.96 L183.41,578.27 L185.77,565.59 L188.13,557.26 L190.49,542.98 L192.86,538.87 L195.22,574.51 L197.58,591.08 L199.95,587.50 L202.31,580.48 L204.67,597.02 L207.03,607.20 L209.40,591.52 L211.76,587.64 L214.12,572.02 L216.48,569.17 L218.85,562.13 L221.21,536.45 L223.57,539.14 L225.93,548.50 L228.30,537.11 L230.66,528.30 L233.02,518.53 L237.75,489.31 L240.11,476.92 L242.47,456.84 L244.84,448.09 L247.20,439.34 L249.56,427.75 L251.92,445.42 L254.29,469.13 L259.01,465.51 L261.37,497.29 L263.74,521.47 L266.10,532.79 L268.46,565.42 L270.82,562.33 L273.19,566.81 L275.55,585.20 L277.91,568.74 L280.27,549.46 L282.64,553.28 L285.00,543.38 L287.36,541.30 L289.73,539.70 L292.09,539.54 L294.45,553.17 L296.81,550.96 L299.18,551.31 L301.54,564.14 L306.26,557.74 L308.63,536.73 L310.99,528.24 L315.71,544.50 L318.08,546.97 L322.80,545.81 L325.16,540.17 L327.53,551.52 L329.89,584.64 L332.25,601.01 L334.62,590.86 L336.98,594.48 L341.70,588.67 L344.07,602.05 L346.43,592.11 L348.79,587.67 L351.15,586.28 L353.52,546.65 L355.88,556.53 L358.24,548.69 L360.60,544.98 L362.97,552.29 L365.33,557.74 L367.69,555.02 L370.05,572.14 L372.42,566.22 L377.14,566.92 L379.51,550.16 L381.87,550.64 L384.23,526.85 L386.59,528.59 L388.96,542.97 L391.32,533.51 L393.68,540.09 L396.04,554.07 L398.41,546.93 L400.77,562.51 L403.13,569.23 L405.49,571.04 L407.86,572.82 L410.22,570.33 L412.58,571.30 L414.95,568.78 L417.31,561.80 L419.67,545.33 L422.03,530.59 L424.40,537.32 L426.76,532.10 L429.12,512.56 L431.48,507.10 L433.85,504.19 L436.21,514.00 L438.57,534.76 L440.93,543.59 L443.30,563.73 L445.66,556.74 L448.02,537.20 L450.38,527.64 L452.75,516.54 L455.11,514.34 L457.47,502.34 L459.84,467.59 L462.20,473.18 L464.56,497.15 L466.92,516.76 L469.29,523.53 L471.65,508.34 L474.01,501.96 L476.37,518.41 L478.74,523.34 L481.10,528.05 L483.46,523.77 L485.82,529.75 L490.55,539.56 L492.91,548.05 L495.27,559.84 L497.64,575.33 L500.00,561.48 L502.36,551.95 L504.73,550.21 L507.09,537.31 L509.45,535.82 L511.81,532.99 L514.18,533.28 L516.54,547.42 L518.90,549.47 L521.26,546.08 L523.63,547.68 L525.99,541.23 L528.35,535.08 L530.71,526.89 L533.08,512.56 L535.44,504.00 L537.80,504.93 L540.16,508.71 L542.53,518.33 L544.89,520.48 L547.25,517.65 L549.62,537.33 L551.98,557.60 L554.34,571.38 L556.70,575.65 L559.07,573.93 L561.43,587.27 L563.79,595.71 L566.15,579.80 L568.52,573.48 L570.88,566.43 L573.24,548.03 L575.60,559.38 L577.97,540.59 L580.33,540.11 L582.69,552.31 L585.05,532.12 L587.42,511.61 L589.78,521.62 L592.14,514.04 L594.51,535.45 L596.87,527.96 L599.23,533.22 L601.59,560.16 L603.96,552.08 L606.32,564.34 L608.68,553.65 L611.04,532.90 L613.41,534.39 L615.77,523.22 L618.13,513.01 L620.49,529.36 L622.86,512.27 L625.22,505.63 L627.58,509.64 L629.95,505.62 L632.31,508.03 L634.67,507.92 L637.03,514.02 L639.40,522.94 L641.76,528.74 L644.12,526.77 L646.48,522.29 L648.85,520.63 L651.21,514.00 L655.93,501.09 L658.30,495.07 L660.66,503.76 L663.02,516.36 L665.38,532.99 L667.75,535.98 L670.11,554.54 L672.47,570.72 L674.84,578.95 L677.20,575.01 L679.56,560.39 L681.92,542.07 L684.29,542.63 L686.65,534.59 L689.01,532.94 L691.37,522.62 L693.74,515.61 L696.10,520.80 L698.46,523.71 L700.82,516.62 L703.19,516.82 L705.55,529.35 L707.91,530.42 L710.27,526.18 L712.64,532.08 L715.00,535.00 L717.36,538.27 L719.73,538.80 L722.09,527.93 L724.45,538.54 L726.81,542.63 L729.18,524.54 L731.54,529.13 L733.90,535.86 L736.26,524.85 L738.63,523.49 L740.99,534.98 L743.35,535.99 L745.71,558.17 L748.08,569.48 L750.44,566.30 L752.80,564.84 L755.16,599.87 L757.53,583.54 L759.89,576.76 L762.25,582.94 L764.62,580.93 L766.98,582.08 L769.34,591.83 L771.70,549.51 L774.07,558.94 L776.43,574.73 L778.79,570.10 L781.15,550.15 L783.52,559.05 L785.88,554.39 L788.24,561.92 L790.60,553.13 L792.97,545.62 L795.33,523.43 L797.69,525.66 L800.05,513.37 L802.42,529.96 L804.78,534.20 L807.14,550.65 L809.51,547.31 L811.87,547.27 L814.23,555.32 L816.59,576.35 L818.96,569.79 L821.32,572.50 L823.68,552.90 L826.04,564.88 L828.41,586.42 L830.77,586.05 L833.13,567.35 L835.49,570.14 L837.86,573.56 L840.22,596.22 L842.58,588.35 L844.95,574.62 L847.31,564.80 L849.67,556.34 L852.03,548.07 L854.40,541.49 L856.76,539.40 L859.12,522.35 L861.48,518.96 L863.85,530.71 L866.21,532.34 L868.57,557.90 L870.93,555.50 L873.30,550.80 L875.66,578.46 L878.02,581.62 L880.38,575.38 L882.75,572.95 L885.11,573.29 L887.47,578.01 L889.84,547.25 L892.20,538.40 L894.56,544.21 L896.92,554.66 L899.29,571.63 L901.65,556.08 L904.01,569.42 L906.37,602.39 L908.74,604.21 L911.10,623.11 L913.46,609.26 L915.82,595.48 L920.55,570.54 L922.91,531.48 L925.27,510.69 L927.64,504.79 L930.00,498.12 L930.00,656.00 Z" fill="#60a5fa" fill-opacity="0.16" stroke="none" />
<path d="M70.00,494.83 L72.36,493.58 L74.73,516.18 L77.09,520.30 L79.45,541.35 L81.81,539.67 L84.18,540.01 L86.54,547.94 L88.90,554.27 L91.26,527.76 L95.99,514.65 L98.35,513.80 L100.71,517.97 L103.08,514.28 L105.44,540.40 L107.80,540.03 L110.16,546.02 L112.53,569.79 L114.89,560.03 L117.25,563.61 L119.62,560.83 L121.98,545.30 L124.34,554.36 L126.70,576.26 L129.07,581.65 L131.43,572.06 L133.79,564.53 L136.15,570.03 L138.52,569.20 L140.88,572.88 L143.24,590.68 L145.60,583.88 L147.97,588.51 L150.33,581.09 L152.69,592.06 L155.05,581.27 L157.42,571.10 L159.78,548.60 L162.14,559.93 L164.51,583.88 L166.87,590.85 L169.23,610.69 L171.59,621.02 L173.96,621.69 L176.32,635.25 L178.68,595.14 L181.04,567.96 L183.41,578.27 L185.77,565.59 L188.13,557.26 L190.49,542.98 L192.86,538.87 L195.22,574.51 L197.58,591.08 L199.95,587.50 L202.31,580.48 L204.67,597.02 L207.03,607.20 L209.40,591.52 L211.76,587.64 L214.12,572.02 L216.48,569.17 L218.85,562.13 L221.21,536.45 L223.57,539.14 L225.93,548.50 L228.30,537.11 L230.66,528.30 L233.02,518.53 L237.75,489.31 L240.11,476.92 L242.47,456.84 L244.84,448.09 L247.20,439.34 L249.56,427.75 L251.92,445.42 L254.29,469.13 L259.01,465.51 L261.37,497.29 L263.74,521.47 L266.10,532.79 L268.46,565.42 L270.82,562.33 L273.19,566.81 L275.55,585.20 L277.91,568.74 L280.27,549.46 L282.64,553.28 L285.00,543.38 L287.36,541.30 L289.73,539.70 L292.09,539.54 L294.45,553.17 L296.81,550.96 L299.18,551.31 L301.54,564.14 L306.26,557.74 L308.63,536.73 L310.99,528.24 L315.71,544.50 L318.08,546.97 L322.80,545.81 L325.16,540.17 L327.53,551.52 L329.89,584.64 L332.25,601.01 L334.62,590.86 L336.98,594.48 L341.70,588.67 L344.07,602.05 L346.43,592.11 L348.79,587.67 L351.15,586.28 L353.52,546.65 L355.88,556.53 L358.24,548.69 L360.60,544.98 L362.97,552.29 L365.33,557.74 L367.69,555.02 L370.05,572.14 L372.42,566.22 L377.14,566.92 L379.51,550.16 L381.87,550.64 L384.23,526.85 L386.59,528.59 L388.96,542.97 L391.32,533.51 L393.68,540.09 L396.04,554.07 L398.41,546.93 L400.77,562.51 L403.13,569.23 L405.49,571.04 L407.86,572.82 L410.22,570.33 L412.58,571.30 L414.95,568.78 L417.31,561.80 L419.67,545.33 L422.03,530.59 L424.40,537.32 L426.76,532.10 L429.12,512.56 L431.48,507.10 L433.85,504.19 L436.21,514.00 L438.57,534.76 L440.93,543.59 L443.30,563.73 L445.66,556.74 L448.02,537.20 L450.38,527.64 L452.75,516.54 L455.11,514.34 L457.47,502.34 L459.84,467.59 L462.20,473.18 L464.56,497.15 L466.92,516.76 L469.29,523.53 L471.65,508.34 L474.01,501.96 L476.37,518.41 L478.74,523.34 L481.10,528.05 L483.46,523.77 L485.82,529.75 L490.55,539.56 L492.91,548.05 L495.27,559.84 L497.64,575.33 L500.00,561.48 L502.36,551.95 L504.73,550.21 L507.09,537.31 L509.45,535.82 L511.81,532.99 L514.18,533.28 L516.54,547.42 L518.90,549.47 L521.26,546.08 L523.63,547.68 L525.99,541.23 L528.35,535.08 L530.71,526.89 L533.08,512.56 L535.44,504.00 L537.80,504.93 L540.16,508.71 L542.53,518.33 L544.89,520.48 L547.25,517.65 L549.62,537.33 L551.98,557.60 L554.34,571.38 L556.70,575.65 L559.07,573.93 L561.43,587.27 L563.79,595.71 L566.15,579.80 L568.52,573.48 L570.88,566.43 L573.24,548.03 L575.60,559.38 L577.97,540.59 L580.33,540.11 L582.69,552.31 L585.05,532.12 L587.42,511.61 L589.78,521.62 L592.14,514.04 L594.51,535.45 L596.87,527.96 L599.23,533.22 L601.59,560.16 L603.96,552.08 L606.32,564.34 L608.68,553.65 L611.04,532.90 L613.41,534.39 L615.77,523.22 L618.13,513.01 L620.49,529.36 L622.86,512.27 L625.22,505.63 L627.58,509.64 L629.95,505.62 L632.31,508.03 L634.67,507.92 L637.03,514.02 L639.40,522.94 L641.76,528.74 L644.12,526.77 L646.48,522.29 L648.85,520.63 L651.21,514.00 L655.93,501.09 L658.30,495.07 L660.66,503.76 L663.02,516.36 L665.38,532.99 L667.75,535.98 L670.11,554.54 L672.47,570.72 L674.84,578.95 L677.20,575.01 L679.56,560.39 L681.92,542.07 L684.29,542.63 L686.65,534.59 L689.01,532.94 L691.37,522.62 L693.74,515.61 L696.10,520.80 L698.46,523.71 L700.82,516.62 L703.19,516.82 L705.55,529.35 L707.91,530.42 L710.27,526.18 L712.64,532.08 L715.00,535.00 L717.36,538.27 L719.73,538.80 L722.09,527.93 L724.45,538.54 L726.81,542.63 L729.18,524.54 L731.54,529.13 L733.90,535.86 L736.26,524.85 L738.63,523.49 L740.99,534.98 L743.35,535.99 L745.71,558.17 L748.08,569.48 L750.44,566.30 L752.80,564.84 L755.16,599.87 L757.53,583.54 L759.89,576.76 L762.25,582.94 L764.62,580.93 L766.98,582.08 L769.34,591.83 L771.70,549.51 L774.07,558.94 L776.43,574.73 L778.79,570.10 L781.15,550.15 L783.52,559.05 L785.88,554.39 L788.24,561.92 L790.60,553.13 L792.97,545.62 L795.33,523.43 L797.69,525.66 L800.05,513.37 L802.42,529.96 L804.78,534.20 L807.14,550.65 L809.51,547.31 L811.87,547.27 L814.23,555.32 L816.59,576.35 L818.96,569.79 L821.32,572.50 L823.68,552.90 L826.04,564.88 L828.41,586.42 L830.77,586.05 L833.13,567.35 L835.49,570.14 L837.86,573.56 L840.22,596.22 L842.58,588.35 L844.95,574.62 L847.31,564.80 L849.67,556.34 L852.03,548.07 L854.40,541.49 L856.76,539.40 L859.12,522.35 L861.48,518.96 L863.85,530.71 L866.21,532.34 L868.57,557.90 L870.93,555.50 L873.30,550.80 L875.66,578.46 L878.02,581.62 L880.38,575.38 L882.75,572.95 L885.11,573.29 L887.47,578.01 L889.84,547.25 L892.20,538.40 L894.56,544.21 L896.92,554.66 L899.29,571.63 L901.65,556.08 L904.01,569.42 L906.37,602.39 L908.74,604.21 L911.10,623.11 L913.46,609.26 L915.82,595.48 L920.55,570.54 L922.91,531.48 L925.27,510.69 L927.64,504.79 L930.00,498.12" fill="none" stroke="#60a5fa" stroke-width="2.2" stroke-linecap="round" />
</svg>
