<svg xmlns="http://www.w3.org/2000/svg" viewBox="0 0 960 720" width="960" height="720">
<rect width="960" height="720" fill="#0f172a" />
<text x="480" y="28" fill="#e2e8f0" font-size="16" font-weight="700" text-anchor="middle">耳机音量均值趋势图</text>
<text x="70" y="70" fill="#e2e8f0" font-size="13" font-weight="600">本月分天指标明细</text>
<line x1="70" y1="323.00" x2="930" y2="323.00" stroke="#94a3b8" stroke-opacity="0.18" stroke-width="1" />
<text x="62" y="327.00" fill="#cbd5f5" font-size="10" text-anchor="end">55.4</text>
<line x1="70" y1="260.75" x2="930" y2="260.75" stroke="#94a3b8" stroke-opacity="0.18" stroke-width="1" />
<text x="62" y="264.75" fill="#cbd5f5" font-size="10" text-anchor="end">62.3</text>
<line x1="70" y1="198.50" x2="930" y2="198.50" stroke="#94a3b8" stroke-opacity="0.18" stroke-width="1" />
<text x="62" y="202.50" fill="#cbd5f5" font-size="10" text-anchor="end">69.2</text>
<line x1="70" y1="136.25" x2="930" y2="136.25" stroke="#94a3b8" stroke-opacity="0.18" stroke-width="1" />
<text x="62" y="140.25" fill="#cbd5f5" font-size="10" text-anchor="end">76.1</text>
<line x1="70" y1="74.00" x2="930" y2="74.00" stroke="#94a3b8" stroke-opacity="0.18" stroke-width="1" />
<text x="62" y="78.00" fill="#cbd5f5" font-size="10" text-anchor="end">83</text>
<line x1="70.00" y1="323" x2="70.00" y2="327" stroke="#94a3b8" stroke-opacity="0.5" stroke-width="1" />
<text x="70.00" y="341" fill="#cbd5f5" font-size="10" text-anchor="middle">11-22</text>
<line x1="242.00" y1="323" x2="242.00" y2="327" stroke="#94a3b8" stroke-opacity="0.5" stroke-width="1" />
<text x="242.00" y="341" fill="#cbd5f5" font-size="10" text-anchor="middle">11-27</text>
<line x1="414.00" y1="323" x2="414.00" y2="327" stroke="#94a3b8" stroke-opacity="0.5" stroke-width="1" />
<text x="414.00" y="341" fill="#cbd5f5" font-size="10" text-anchor="middle">12-03</text>
<line x1="586.00" y1="323" x2="586.00" y2="327" stroke="#94a3b8" stroke-opacity="0.5" stroke-width="1" />
<text x="586.00" y="341" fill="#cbd5f5" font-size="10" text-anchor="middle">12-09</text>
<line x1="758.00" y1="323" x2="758.00" y2="327" stroke="#94a3b8" stroke-opacity="0.5" stroke-width="1" />
<text x="758.00" y="341" fill="#cbd5f5" font-size="10" text-anchor="middle">12-15</text>
<line x1="930.00" y1="323" x2="930.00" y2="327" stroke="#94a3b8" stroke-opacity="0.5" stroke-width="1" />
<text x="930.00" y="341" fill="#cbd5f5" font-size="10" text-anchor="middle">12-21</text>
<line x1="70" y1="74" x2="70" y2="323" stroke="#94a3b8" stroke-width="1" />
<line x1="70" y1="323" x2="930" y2="323" stroke="#94a3b8" stroke-width="1" />
<path d="M70.00,300.58 L99.66,198.74 L129.31,247.84 L158.97,227.65 L188.62,162.64 L218.28,173.58 L247.93,149.89 L277.59,302.25 L307.24,222.11 L336.90,95.55 L366.55,183.84 L396.21,191.44 L425.86,225.27 L455.52,233.89 L485.17,225.29 L514.83,288.13 L544.48,258.77 L574.14,192.87 L603.79,284.99 L633.45,156.69 L663.10,165.70 L722.41,101.84 L752.07,94.75 L781.72,155.88 L811.38,163.67 L841.03,251.98 L870.69,280.55 L900.34,226.36 L930.00,224.20" fill="none" stroke="#60a5fa" stroke-width="2.2" stroke-linecap="round" />
<circle cx="70.00" cy="300.58" r="3" fill="#60a5fa" stroke="#0f172a" stroke-width="1" />
<text x="70.00" y="290.58" fill="#e2e8f0" font-size="9" text-anchor="middle">57.9</text>
<circle cx="99.66" cy="198.74" r="3" fill="#60a5fa" stroke="#0f172a" stroke-width="1" />
<text x="99.66" y="178.74" fill="#e2e8f0" font-size="9" text-anchor="middle">69.1</text>
<circle cx="129.31" cy="247.84" r="3" fill="#60a5fa" stroke="#0f172a" stroke-width="1" />
<text x="129.31" y="237.84" fill="#e2e8f0" font-size="9" text-anchor="middle">63.7</text>
<circle cx="158.97" cy="227.65" r="3" fill="#60a5fa" stroke="#0f172a" stroke-width="1" />
<text x="158.97" y="207.65" fill="#e2e8f0" font-size="9" text-anchor="middle">65.9</text>
<circle cx="188.62" cy="162.64" r="3" fill="#60a5fa" stroke="#0f172a" stroke-width="1" />
<text x="188.62" y="152.64" fill="#e2e8f0" font-size="9" text-anchor="middle">73.1</text>
<circle cx="218.28" cy="173.58" r="3" fill="#60a5fa" stroke="#0f172a" stroke-width="1" />
<text x="218.28" y="153.58" fill="#e2e8f0" font-size="9" text-anchor="middle">71.9</text>
<circle cx="247.93" cy="149.89" r="3" fill="#60a5fa" stroke="#0f172a" stroke-width="1" />
<text x="247.93" y="139.89" fill="#e2e8f0" font-size="9" text-anchor="middle">74.6</text>
<circle cx="277.59" cy="302.25" r="3" fill="#60a5fa" stroke="#0f172a" stroke-width="1" />
<text x="277.59" y="282.25" fill="#e2e8f0" font-size="9" text-anchor="middle">57.7</text>
<circle cx="307.24" cy="222.11" r="3" fill="#60a5fa" stroke="#0f172a" stroke-width="1" />
<text x="307.24" y="212.11" fill="#e2e8f0" font-size="9" text-anchor="middle">66.6</text>
<circle cx="336.90" cy="95.55" r="3" fill="#60a5fa" stroke="#0f172a" stroke-width="1" />
<text x="336.90" y="109.55" fill="#e2e8f0" font-size="9" text-anchor="middle">80.6</text>
<circle cx="366.55" cy="183.84" r="3" fill="#60a5fa" stroke="#0f172a" stroke-width="1" />
<text x="366.55" y="173.84" fill="#e2e8f0" font-size="9" text-anchor="middle">70.8</text>
<circle cx="396.21" cy="191.44" r="3" fill="#60a5fa" stroke="#0f172a" stroke-width="1" />
<text x="396.21" y="171.44" fill="#e2e8f0" font-size="9" text-anchor="middle">70</text>
<circle cx="425.86" cy="225.27" r="3" fill="#60a5fa" stroke="#0f172a" stroke-width="1" />
<text x="425.86" y="215.27" fill="#e2e8f0" font-size="9" text-anchor="middle">66.2</text>
<circle cx="455.52" cy="233.89" r="3" fill="#60a5fa" stroke="#0f172a" stroke-width="1" />
<text x="455.52" y="213.89" fill="#e2e8f0" font-size="9" text-anchor="middle">65.3</text>
<circle cx="485.17" cy="225.29" r="3" fill="#60a5fa" stroke="#0f172a" stroke-width="1" />
<text x="485.17" y="215.29" fill="#e2e8f0" font-size="9" text-anchor="middle">66.2</text>
<circle cx="514.83" cy="288.13" r="3" fill="#60a5fa" stroke="#0f172a" stroke-width="1" />
<text x="514.83" y="268.13" fill="#e2e8f0" font-size="9" text-anchor="middle">59.2</text>
<circle cx="544.48" cy="258.77" r="3" fill="#60a5fa" stroke="#0f172a" stroke-width="1" />
<text x="544.48" y="248.77" fill="#e2e8f0" font-size="9" text-anchor="middle">62.5</text>
<circle cx="574.14" cy="192.87" r="3" fill="#60a5fa" stroke="#0f172a" stroke-width="1" />
<text x="574.14" y="172.87" fill="#e2e8f0" font-size="9" text-anchor="middle">69.8</text>
<circle cx="603.79" cy="284.99" r="3" fill="#60a5fa" stroke="#0f172a" stroke-width="1" />
<text x="603.79" y="274.99" fill="#e2e8f0" font-size="9" text-anchor="middle">59.6</text>
<circle cx="633.45" cy="156.69" r="3" fill="#60a5fa" stroke="#0f172a" stroke-width="1" />
<text x="633.45" y="136.69" fill="#e2e8f0" font-size="9" text-anchor="middle">73.8</text>
<circle cx="663.10" cy="165.70" r="3" fill="#60a5fa" stroke="#0f172a" stroke-width="1" />
<text x="663.10" y="155.70" fill="#e2e8f0" font-size="9" text-anchor="middle">72.8</text>
<circle cx="722.41" cy="101.84" r="3" fill="#60a5fa" stroke="#0f172a" stroke-width="1" />
<text x="722.41" y="115.84" fill="#e2e8f0" font-size="9" text-anchor="middle">79.9</text>
<circle cx="752.07" cy="94.75" r="3" fill="#60a5fa" stroke="#0f172a" stroke-width="1" />
<text x="752.07" y="84.75" fill="#e2e8f0" font-size="9" text-anchor="middle">80.7</text>
<circle cx="781.72" cy="155.88" r="3" fill="#60a5fa" stroke="#0f172a" stroke-width="1" />
<text x="781.72" y="135.88" fill="#e2e8f0" font-size="9" text-anchor="middle">73.9</text>
<circle cx="811.38" cy="163.67" r="3" fill="#60a5fa" stroke="#0f172a" stroke-width="1" />
<text x="811.38" y="153.67" fill="#e2e8f0" font-size="9" text-anchor="middle">73</text>
<circle cx="841.03" cy="251.98" r="3" fill="#60a5fa" stroke="#0f172a" stroke-width="1" />
<text x="841.03" y="231.98" fill="#e2e8f0" font-size="9" text-anchor="middle">63.2</text>
<circle cx="870.69" cy="280.55" r="3" fill="#60a5fa" stroke="#0f172a" stroke-width="1" />
<text x="870.69" y="270.55" fill="#e2e8f0" font-size="9" text-anchor="middle">60.1</text>
<circle cx="900.34" cy="226.36" r="3" fill="#60a5fa" stroke="#0f172a" stroke-width="1" />
<text x="900.34" y="206.36" fill="#e2e8f0" font-size="9" text-anchor="middle">66.1</text>
<circle cx="930.00" cy="224.20" r="3" fill="#60a5fa" stroke="#0f172a" stroke-width="1" />
<text x="930.00" y="214.20" fill="#e2e8f0" font-size="9" text-anchor="middle">66.3</text>
<text x="70" y="403" fill="#e2e8f0" font-size="13" font-weight="600">本年核心指标趋势（滑动7日窗口平均）</text>
<line x1="70" y1="656.00" x2="930" y2="656.00" stroke="#94a3b8" stroke-opacity="0.18" stroke-width="1" />
<text x="62" y="660.00" fill="#cbd5f5" font-size="10" text-anchor="end">61.5</text>
<line x1="70" y1="593.75" x2="930" y2="593.75" stroke="#94a3b8" stroke-opacity="0.18" stroke-width="1" />
<text x="62" y="597.75" fill="#cbd5f5" font-size="10" text-anchor="end">66.4</text>
<line x1="70" y1="531.50" x2="930" y2="531.50" stroke="#94a3b8" stroke-opacity="0.18" stroke-width="1" />
<text x="62" y="535.50" fill="#cbd5f5" font-size="10" text-anchor="end">71.3</text>
<line x1="70" y1="469.25" x2="930" y2="469.25" stroke="#94a3b8" stroke-opacity="0.18" stroke-width="1" />
<text x="62" y="473.25" fill="#cbd5f5" font-size="10" text-anchor="end">76.2</text>
<line x1="70" y1="407.00" x2="930" y2="407.00" stroke="#94a3b8" stroke-opacity="0.18" stroke-width="1" />
<text x="62" y="411.00" fill="#cbd5f5" font-size="10" text-anchor="end">81</text>
<line x1="70.00" y1="656" x2="70.00" y2="660" stroke="#94a3b8" stroke-opacity="0.5" stroke-width="1" />
<text x="70.00" y="674" fill="#cbd5f5" font-size="10" text-anchor="middle">2024-12</text>
<line x1="242.00" y1="656" x2="242.00" y2="660" stroke="#94a3b8" stroke-opacity="0.5" stroke-width="1" />
<text x="242.00" y="674" fill="#cbd5f5" font-size="10" text-anchor="middle">2025-03</text>
<line x1="414.00" y1="656" x2="414.00" y2="660" stroke="#94a3b8" stroke-opacity="0.5" stroke-width="1" />
<text x="414.00" y="674" fill="#cbd5f5" font-size="10" text-anchor="middle">2025-05</text>
<line x1="586.00" y1="656" x2="586.00" y2="660" stroke="#94a3b8" stroke-opacity="0.5" stroke-width="1" />
<text x="586.00" y="674" fill="#cbd5f5" font-size="10" text-anchor="middle">2025-07</text>
<line x1="758.00" y1="656" x2="758.00" y2="660" stroke="#94a3b8" stroke-opacity="0.5" stroke-width="1" />
<text x="758.00" y="674" fill="#cbd5f5" font-size="10" text-anchor="middle">2025-10</text>
<line x1="930.00" y1="656" x2="930.00" y2="660" stroke="#94a3b8" stroke-opacity="0.5" stroke-width="1" />
<text x="930.00" y="674" fill="#cbd5f5" font-size="10" text-anchor="middle">2025-12</text>
<line x1="70" y1="407" x2="70" y2="656" stroke="#94a3b8" stroke-width="1" />
<line x1="70" y1="656" x2="930" y2="656" stroke="#94a3b8" stroke-width="1" />
<path d="M70.00,656.00 L70.00,532.68 L72.36,579.11 L74.73,563.17 L77.09,557.88 L79.45,556.38 L81.81,553.08 L84.18,527.76 L88.90,514.65 L91.26,513.80 L93.63,517.97 L95.99,514.28 L98.35,540.40 L100.71,540.03 L103.08,546.02 L105.44,569.79 L107.80,560.03 L110.16,563.61 L112.53,560.83 L114.89,545.30 L117.25,554.36 L119.62,576.26 L121.98,581.65 L124.34,572.06 L126.70,564.53 L129.07,570.03 L131.43,569.20 L133.79,572.88 L136.15,590.68 L138.52,583.88 L140.88,588.51 L143.24,581.09 L145.60,592.06 L147.97,581.27 L150.33,571.10 L152.69,548.60 L155.05,559.93 L157.42,583.88 L159.78,590.85 L162.14,610.69 L164.51,621.02 L166.87,621.69 L169.23,635.25 L171.59,595.14 L173.96,567.96 L176.32,578.27 L178.68,565.59 L181.04,557.26 L183.41,542.98 L185.77,538.87 L188.13,574.51 L190.49,591.08 L192.86,587.50 L195.22,580.48 L197.58,597.02 L199.95,607.20 L202.31,591.52 L204.67,587.64 L207.03,572.02 L209.40,569.17 L211.76,562.13 L214.12,536.45 L216.48,539.14 L218.85,548.50 L221.21,537.11 L223.57,528.30 L225.93,518.53 L230.66,489.31 L233.02,476.92 L235.38,456.84 L237.75,448.09 L240.11,439.34 L242.47,427.75 L244.84,445.42 L247.20,469.13 L251.92,465.51 L254.29,497.29 L256.65,521.47 L259.01,532.79 L261.37,565.42 L263.74,562.33 L266.10,566.81 L268.46,585.20 L270.82,568.74 L273.19,549.46 L275.55,553.28 L277.91,543.38 L280.27,541.30 L282.64,539.70 L285.00,539.54 L287.36,553.17 L289.73,550.96 L292.09,551.31 L294.45,564.14 L299.18,557.74 L301.54,536.73 L303.90,528.24 L308.63,544.50 L310.99,546.97 L315.71,545.81 L318.08,540.17 L320.44,551.52 L322.80,584.64 L325.16,601.01 L327.53,590.86 L329.89,594.48 L334.62,588.67 L336.98,602.05 L339.34,592.11 L341.70,587.67 L344.07,586.28 L346.43,546.65 L348.79,556.53 L351.15,548.69 L353.52,544.98 L355.88,552.29 L358.24,557.74 L360.60,555.02 L362.97,572.14 L365.33,566.22 L370.05,566.92 L372.42,550.16 L374.78,550.64 L377.14,526.85 L379.51,528.59 L381.87,542.97 L384.23,533.51 L386.59,540.09 L388.96,554.07 L391.32,546.93 L393.68,562.51 L396.04,569.23 L398.41,571.04 L400.77,572.82 L403.13,570.33 L405.49,571.30 L407.86,568.78 L410.22,561.80 L412.58,545.33 L414.95,530.59 L417.31,537.32 L419.67,532.10 L422.03,512.56 L424.40,507.10 L426.76,504.19 L429.12,514.00 L431.48,534.76 L433.85,543.59 L436.21,563.73 L438.57,556.74 L440.93,537.20 L443.30,527.64 L445.66,516.54 L448.02,514.34 L450.38,502.34 L452.75,467.59 L455.11,473.18 L457.47,497.15 L459.84,516.76 L462.20,523.53 L464.56,508.34 L466.92,501.96 L469.29,518.41 L471.65,523.34 L474.01,528.05 L476.37,523.77 L478.74,529.75 L483.46,539.56 L485.82,548.05 L488.19,559.84 L490.55,575.33 L492.91,561.48 L495.27,551.95 L497.64,550.21 L500.00,537.31 L502.36,535.82 L504.73,532.99 L507.09,533.28 L509.45,547.42 L511.81,549.47 L514.18,546.08 L516.54,547.68 L518.90,541.23 L521.26,535.08 L523.63,526.89 L525.99,512.56 L528.35,504.00 L530.71,504.93 L533.08,508.71 L535.44,518.33 L537.80,520.48 L540.16,517.65 L542.53,537.33 L544.89,557.60 L547.25,571.38 L549.62,575.65 L551.98,573.93 L554.34,587.27 L556.70,595.71 L559.07,579.80 L561.43,573.48 L563.79,566.43 L566.15,548.03 L568.52,559.38 L570.88,540.59 L573.24,540.11 L575.60,552.31 L577.97,532.12 L580.33,511.61 L582.69,521.62 L585.05,514.04 L587.42,535.45 L589.78,527.96 L592.14,533.22 L594.51,560.16 L596.87,552.08 L599.23,564.34 L601.59,553.65 L603.96,532.90 L606.32,534.39 L608.68,523.22 L611.04,513.01 L613.41,529.36 L615.77,512.27 L618.13,505.63 L620.49,509.64 L622.86,505.62 L625.22,508.03 L627.58,507.92 L629.95,514.02 L632.31,522.94 L634.67,528.74 L637.03,526.77 L639.40,522.29 L641.76,520.63 L644.12,514.00 L648.85,501.09 L651.21,495.07 L653.57,503.76 L655.93,516.36 L658.30,532.99 L660.66,535.98 L663.02,554.54 L665.38,570.72 L667.75,578.95 L670.11,575.01 L672.47,560.39 L674.84,542.07 L677.20,542.63 L679.56,534.59 L681.92,532.94 L684.29,522.62 L686.65,515.61 L689.01,520.80 L691.37,523.71 L693.74,516.62 L696.10,516.82 L698.46,529.35 L700.82,530.42 L703.19,526.18 L705.55,532.08 L707.91,535.00 L710.27,538.27 L712.64,538.80 L715.00,527.93 L717.36,538.54 L719.73,542.63 L722.09,524.54 L724.45,529.13 L726.81,535.86 L729.18,524.85 L731.54,523.49 L733.90,534.98 L736.26,535.99 L738.63,558.17 L740.99,569.48 L743.35,566.30 L745.71,564.84 L748.08,599.87 L750.44,583.54 L752.80,576.76 L755.16,582.94 L757.53,580.93 L759.89,582.08 L762.25,591.83 L764.62,549.51 L766.98,558.94 L769.34,574.73 L771.70,570.10 L774.07,550.15 L776.43,559.05 L778.79,554.39 L781.15,561.92 L783.52,553.13 L785.88,545.62 L788.24,523.43 L790.60,525.66 L792.97,513.37 L795.33,529.96 L797.69,534.20 L800.05,550.65 L802.42,547.31 L804.78,547.27 L807.14,555.32 L809.51,576.35 L811.87,569.79 L814.23,572.50 L816.59,552.90 L818.96,564.88 L821.32,586.42 L823.68,586.05 L826.04,567.35 L828.41,570.14 L830.77,573.56 L833.13,596.22 L835.49,588.35 L837.86,574.62 L840.22,564.80 L842.58,556.34 L844.95,548.07 L847.31,541.49 L849.67,539.40 L852.03,522.35 L854.40,518.96 L856.76,530.71 L859.12,532.34 L861.48,557.90 L863.85,555.50 L866.21,550.80 L868.57,578.46 L870.93,581.62 L873.30,575.38 L875.66,572.95 L878.02,573.29 L880.38,578.01 L882.75,547.25 L885.11,538.40 L887.47,544.21 L889.84,554.66 L892.20,571.63 L894.56,556.08 L896.92,569.42 L899.29,602.39 L901.65,604.21 L904.01,623.11 L906.37,609.26 L908.74,595.48 L913.46,570.54 L915.82,531.48 L918.19,510.69 L920.55,504.79 L922.91,498.12 L925.27,523.15 L927.64,535.40 L930.00,560.12 L930.00,656.00 Z" fill="#60a5fa" fill-opacity="0.16" stroke="none" />
<path d="M70.00,532.68 L72.36,579.11 L74.73,563.17 L77.09,557.88 L79.45,556.38 L81.81,553.08 L84.18,527.76 L88.90,514.65 L91.26,513.80 L93.63,517.97 L95.99,514.28 L98.35,540.40 L100.71,540.03 L103.08,546.02 L105.44,569.79 L107.80,560.03 L110.16,563.61 L112.53,560.83 L114.89,545.30 L117.25,554.36 L119.62,576.26 L121.98,581.65 L124.34,572.06 L126.70,564.53 L129.07,570.03 L131.43,569.20 L133.79,572.88 L136.15,590.68 L138.52,583.88 L140.88,588.51 L143.24,581.09 L145.60,592.06 L147.97,581.27 L150.33,571.10 L152.69,548.60 L155.05,559.93 L157.42,583.88 L159.78,590.85 L162.14,610.69 L164.51,621.02 L166.87,621.69 L169.23,635.25 L171.59,595.14 L173.96,567.96 L176.32,578.27 L178.68,565.59 L181.04,557.26 L183.41,542.98 L185.77,538.87 L188.13,574.51 L190.49,591.08 L192.86,587.50 L195.22,580.48 L197.58,597.02 L199.95,607.20 L202.31,591.52 L204.67,587.64 L207.03,572.02 L209.40,569.17 L211.76,562.13 L214.12,536.45 L216.48,539.14 L218.85,548.50 L221.21,537.11 L223.57,528.30 L225.93,518.53 L230.66,489.31 L233.02,476.92 L235.38,456.84 L237.75,448.09 L240.11,439.34 L242.47,427.75 L244.84,445.42 L247.20,469.13 L251.92,465.51 L254.29,497.29 L256.65,521.47 L259.01,532.79 L261.37,565.42 L263.74,562.33 L266.10,566.81 L268.46,585.20 L270.82,568.74 L273.19,549.46 L275.55,553.28 L277.91,543.38 L280.27,541.30 L282.64,539.70 L285.00,539.54 L287.36,553.17 L289.73,550.96 L292.09,551.31 L294.45,564.14 L299.18,557.74 L301.54,536.73 L303.90,528.24 L308.63,544.50 L310.99,546.97 L315.71,545.81 L318.08,540.17 L320.44,551.52 L322.80,584.64 L325.16,601.01 L327.53,590.86 L329.89,594.48 L334.62,588.67 L336.98,602.05 L339.34,592.11 L341.70,587.67 L344.07,586.28 L346.43,546.65 L348.79,556.53 L351.15,548.69 L353.52,544.98 L355.88,552.29 L358.24,557.74 L360.60,555.02 L362.97,572.14 L365.33,566.22 L370.05,566.92 L372.42,550.16 L374.78,550.64 L377.14,526.85 L379.51,528.59 L381.87,542.97 L384.23,533.51 L386.59,540.09 L388.96,554.07 L391.32,546.93 L393.68,562.51 L396.04,569.23 L398.41,571.04 L400.77,572.82 L403.13,570.33 L405.49,571.30 L407.86,568.78 L410.22,561.80 L412.58,545.33 L414.95,530.59 L417.31,537.32 L419.67,532.10 L422.03,512.56 L424.40,507.10 L426.76,504.19 L429.12,514.00 L431.48,534.76 L433.85,543.59 L436.21,563.73 L438.57,556.74 L440.93,537.20 L443.30,527.64 L445.66,516.54 L448.02,514.34 L450.38,502.34 L452.75,467.59 L455.11,473.18 L457.47,497.15 L459.84,516.76 L462.20,523.53 L464.56,508.34 L466.92,501.96 L469.29,518.41 L471.65,523.34 L474.01,528.05 L476.37,523.77 L478.74,529.75 L483.46,539.56 L485.82,548.05 L488.19,559.84 L490.55,575.33 L492.91,561.48 L495.27,551.95 L497.64,550.21 L500.00,537.31 L502.36,535.82 L504.73,532.99 L507.09,533.28 L509.45,547.42 L511.81,549.47 L514.18,546.08 L516.54,547.68 L518.90,541.23 L521.26,535.08 L523.63,526.89 L525.99,512.56 L528.35,504.00 L530.71,504.93 L533.08,508.71 L535.44,518.33 L537.80,520.48 L540.16,517.65 L542.53,537.33 L544.89,557.60 L547.25,571.38 L549.62,575.65 L551.98,573.93 L554.34,587.27 L556.70,595.71 L559.07,579.80 L561.43,573.48 L563.79,566.43 L566.15,548.03 L568.52,559.38 L570.88,540.59 L573.24,540.11 L575.60,552.31 L577.97,532.12 L580.33,511.61 L582.69,521.62 L585.05,514.04 L587.42,535.45 L589.78,527.96 L592.14,533.22 L594.51,560.16 L596.87,552.08 L599.23,564.34 L601.59,553.65 L603.96,532.90 L606.32,534.39 L608.68,523.22 L611.04,513.01 L613.41,529.36 L615.77,512.27 L618.13,505.63 L620.49,509.64 L622.86,505.62 L625.22,508.03 L627.58,507.92 L629.95,514.02 L632.31,522.94 L634.67,528.74 L637.03,526.77 L639.40,522.29 L641.76,520.63 L644.12,514.00 L648.85,501.09 L651.21,495.07 L653.57,503.76 L655.93,516.36 L658.30,532.99 L660.66,535.98 L663.02,554.54 L665.38,570.72 L667.75,578.95 L670.11,575.01 L672.47,560.39 L674.84,542.07 L677.20,542.63 L679.56,534.59 L681.92,532.94 L684.29,522.62 L686.65,515.61 L689.01,520.80 L691.37,523.71 L693.74,516.62 L696.10,516.82 L698.46,529.35 L700.82,530.42 L703.19,526.18 L705.55,532.08 L707.91,535.00 L710.27,538.27 L712.64,538.80 L715.00,527.93 L717.36,538.54 L719.73,542.63 L722.09,524.54 L724.45,529.13 L726.81,535.86 L729.18,524.85 L731.54,523.49 L733.90,534.98 L736.26,535.99 L738.63,558.17 L740.99,569.48 L743.35,566.30 L745.71,564.84 L748.08,599.87 L750.44,583.54 L752.80,576.76 L755.16,582.94 L757.53,580.93 L759.89,582.08 L762.25,591.83 L764.62,549.51 L766.98,558.94 L769.34,574.73 L771.70,570.10 L774.07,550.15 L776.43,559.05 L778.79,554.39 L781.15,561.92 L783.52,553.13 L785.88,545.62 L788.24,523.43 L790.60,525.66 L792.97,513.37 L795.33,529.96 L797.69,534.20 L800.05,550.65 L802.42,547.31 L804.78,547.27 L807.14,555.32 L809.51,576.35 L811.87,569.79 L814.23,572.50 L816.59,552.90 L818.96,564.88 L821.32,586.42 L823.68,586.05 L826.04,567.35 L828.41,570.14 L830.77,573.56 L833.13,596.22 L835.49,588.35 L837.86,574.62 L840.22,564.80 L842.58,556.34 L844.95,548.07 L847.31,541.49 L849.67,539.40 L852.03,522.35 L854.40,518.96 L856.76,530.71 L859.12,532.34 L861.48,557.90 L863.85,555.50 L866.21,550.80 L868.57,578.46 L870.93,581.62 L873.30,575.38 L875.66,572.95 L878.02,573.29 L880.38,578.01 L882.75,547.25 L885.11,538.40 L887.47,544.21 L889.84,554.66 L892.20,571.63 L894.56,556.08 L896.92,569.42 L899.29,602.39 L901.65,604.21 L904.01,623.11 L906.37,609.26 L908.74,595.48 L913.46,570.54 L915.82,531.48 L918.19,510.69 L920.55,504.79 L922.91,498.12 L925.27,523.15 L927.64,535.40 L930.00,560.12" fill="none" stroke="#60a5fa" stroke-width="2.2" stroke-linecap="round" />
</svg>
