<svg xmlns="http://www.w3.org/2000/svg" viewBox="0 0 960 640" width="960" height="640">
  <rect width="960" height="640" fill="#0f172a" />
  <line x1="40" y1="40.00" x2="920.00" y2="40.00" stroke="#94a3b8" stroke-opacity="0.18" stroke-width="1" /><line x1="40" y1="128.00" x2="920.00" y2="128.00" stroke="#94a3b8" stroke-opacity="0.18" stroke-width="1" /><line x1="40" y1="216.00" x2="920.00" y2="216.00" stroke="#94a3b8" stroke-opacity="0.18" stroke-width="1" /><line x1="40" y1="304.00" x2="920.00" y2="304.00" stroke="#94a3b8" stroke-opacity="0.18" stroke-width="1" />
  <line x1="40" y1="336.00" x2="920.00" y2="336.00" stroke="#94a3b8" stroke-opacity="0.18" stroke-width="1" /><line x1="40" y1="424.00" x2="920.00" y2="424.00" stroke="#94a3b8" stroke-opacity="0.18" stroke-width="1" /><line x1="40" y1="512.00" x2="920.00" y2="512.00" stroke="#94a3b8" stroke-opacity="0.18" stroke-width="1" /><line x1="40" y1="600.00" x2="920.00" y2="600.00" stroke="#94a3b8" stroke-opacity="0.18" stroke-width="1" />
  <line x1="40" y1="320.00" x2="920.00" y2="320.00" stroke="#1f2937" stroke-width="1" />
  <polyline points="40.00,304.00 70.34,271.00 100.69,238.00 131.03,207.42 161.38,238.00 191.72,172.00 222.07,139.00 252.41,205.00 282.76,271.00 313.10,238.00 343.45,238.00 373.79,205.00 404.14,238.00 434.48,205.00 464.83,271.00 495.17,238.00 525.52,106.00 555.86,139.00 586.21,139.00 616.55,238.00 646.90,238.00 677.24,139.00 707.59,304.00 737.93,304.00 768.28,106.00 798.62,139.00 828.97,106.00 859.31,271.00 889.66,139.00 920.00,40.00" fill="none" stroke="#60a5fa" stroke-width="2" stroke-linecap="round" stroke-linejoin="round" />
  <polyline points="40.00,409.19 42.47,414.42 44.94,419.64 47.42,435.33 49.89,448.40 52.36,451.01 54.83,461.47 57.30,453.62 59.78,464.08 62.25,451.01 64.72,432.71 67.19,422.26 69.66,414.42 72.13,396.12 74.61,406.57 77.08,396.12 79.55,403.96 82.02,417.03 84.49,424.87 86.97,435.33 89.44,440.55 91.91,435.33 94.38,445.78 96.85,445.78 99.33,458.85 101.80,451.01 104.27,440.55 106.74,437.94 109.21,458.85 111.69,469.31 114.16,490.22 116.63,479.76 119.10,503.29 121.57,498.06 124.04,516.36 126.52,511.13 128.99,513.74 131.46,521.58 133.93,542.50 136.40,521.58 138.88,521.58 141.35,503.29 143.82,490.22 146.29,474.53 148.76,458.85 151.24,440.55 153.71,432.71 156.18,430.10 158.65,432.71 161.12,432.71 163.60,385.66 166.07,349.07 168.54,336.00 171.01,356.91 173.48,367.37 175.96,372.59 178.43,390.89 180.90,456.24 183.37,492.83 185.84,518.97 188.31,511.13 190.79,516.36 193.26,532.04 195.73,539.88 198.20,529.43 200.67,524.20 203.15,518.97 205.62,534.65 208.09,542.50 210.56,539.88 213.03,534.65 215.51,542.50 217.98,560.79 220.45,579.09 222.92,566.02 225.39,566.02 227.87,571.25 230.34,573.86 232.81,571.25 235.28,566.02 237.75,558.18 240.22,571.25 242.70,579.09 245.17,576.48 247.64,555.56 250.11,555.56 252.58,568.63 255.06,568.63 257.53,566.02 260.00,563.41 262.47,568.63 264.94,592.16 267.42,600.00 269.89,589.54 272.36,584.32 274.83,571.25 277.30,571.25 279.78,563.41 282.25,558.18 284.72,550.34 287.19,550.34 289.66,555.56 292.13,579.09 294.61,586.93 297.08,597.39 299.55,600.00 302.02,584.32 304.49,584.32 306.97,579.09 309.44,571.25 311.91,566.02 314.38,566.02 316.85,566.02 319.33,581.70 321.80,568.63 324.27,573.86 326.74,576.48 329.21,573.86 331.69,568.63 334.16,566.02 336.63,568.63 339.10,584.32 341.57,579.09 344.04,563.41 346.52,566.02 348.99,568.63 351.46,563.41 353.93,560.79 356.40,545.11 358.88,534.65 361.35,542.50 363.82,542.50 366.29,545.11 368.76,547.72 371.24,547.72 373.71,547.72 376.18,545.11 378.65,537.27 381.12,526.81 383.60,521.58 386.07,524.20 388.54,524.20 391.01,529.43 393.48,539.88 395.96,545.11 398.43,539.88 400.90,532.04 403.37,532.04 405.84,511.13 408.31,513.74 410.79,518.97 413.26,529.43 415.73,526.81 418.20,526.81 420.67,526.81 423.15,542.50 425.62,529.43 428.09,511.13 430.56,482.38 433.03,500.67 435.51,490.22 437.98,484.99 440.45,484.99 442.92,503.29 445.39,524.20 447.87,542.50 450.34,532.04 452.81,539.92 455.28,545.15 457.75,550.37 460.22,555.60 462.70,550.37 465.17,550.37 467.64,552.99 470.11,555.56 472.58,552.95 475.06,542.50 477.53,508.51 480.00,490.22 482.47,477.15 484.94,471.92 487.42,466.69 489.89,461.47 492.36,469.31 494.83,490.22 497.30,511.13 499.78,516.36 502.25,513.74 504.72,532.04 507.19,542.50 509.66,550.34 512.13,563.41 514.61,547.72 517.08,566.02 519.55,579.09 522.02,573.86 524.49,571.25 526.97,571.25 529.44,571.25 531.91,571.25 534.38,563.41 536.85,558.18 539.33,558.18 541.80,558.18 544.27,552.95 546.74,534.65 549.21,555.56 551.69,568.63 554.16,571.25 556.63,573.86 559.10,576.48 561.57,568.63 564.04,579.09 566.52,573.86 568.99,563.41 571.46,558.18 573.93,550.34 576.40,545.11 578.88,550.34 581.35,537.27 583.82,505.90 586.29,498.06 588.76,495.45 591.24,500.67 593.71,492.83 596.18,483.48 598.65,501.77 601.12,527.91 603.60,525.30 606.07,522.69 608.54,512.34 611.01,525.41 613.48,529.54 615.96,519.08 618.43,511.24 620.90,516.47 623.37,526.93 625.84,524.20 628.31,521.58 630.79,524.20 633.26,534.65 635.73,529.43 638.20,529.43 640.67,529.43 643.15,542.50 645.62,500.67 648.09,495.45 650.56,474.53 653.03,464.08 655.51,461.47 657.98,453.62 660.45,456.24 662.92,498.06 665.39,503.29 667.87,511.13 670.34,539.88 672.81,552.95 675.28,555.56 677.75,550.34 680.22,547.72 682.70,558.18 685.17,563.41 687.64,558.18 690.11,552.95 692.58,555.56 695.06,558.18 697.53,566.02 700.00,558.18 702.47,560.79 704.94,558.18 707.42,555.56 709.89,555.56 712.36,555.56 714.83,545.11 717.30,550.34 719.78,552.95 722.25,547.72 724.72,537.27 727.19,532.04 729.66,513.74 732.13,503.29 734.61,482.38 737.08,469.31 739.55,469.31 742.02,461.47 744.49,443.17 746.97,443.17 749.44,435.33 751.91,443.17 754.38,440.55 756.85,443.17 759.33,456.24 761.80,469.31 764.27,479.76 766.74,495.45 769.21,490.22 771.69,498.06 774.16,498.06 776.63,505.90 779.10,513.74 781.57,518.97 784.04,524.20 786.52,534.65 788.99,527.32 791.46,535.16 793.93,524.70 796.40,535.16 798.88,543.00 801.35,548.23 803.82,548.23 806.29,573.86 808.76,560.79 811.24,571.25 813.71,568.63 816.18,566.02 818.65,563.41 821.12,558.18 823.60,521.86 826.07,537.54 828.54,532.31 831.01,527.09 833.48,537.54 835.96,532.31 838.43,545.38 840.90,573.86 843.37,563.41 845.84,568.63 848.31,576.48 850.79,566.02 853.26,571.25 855.73,566.21 858.20,563.60 860.67,566.21 863.15,558.37 865.62,550.53 868.09,550.53 870.56,550.53 873.03,552.95 875.51,550.34 877.98,555.56 880.45,560.79 882.92,566.02 885.39,563.41 887.87,552.95 890.34,545.11 892.81,539.88 895.28,539.88 897.75,542.50 900.22,532.04 902.70,537.27 905.17,552.95 907.64,550.34 910.11,550.34 912.58,539.88 915.06,542.50 917.53,542.50 920.00,521.58" fill="none" stroke="#60a5fa" stroke-width="2" stroke-linecap="round" stroke-linejoin="round" />
  
  
  </svg>