<svg xmlns="http://www.w3.org/2000/svg" viewBox="0 0 960 720" width="960" height="720">
<rect width="960" height="720" fill="#0f172a" />
<text x="480" y="28" fill="#e2e8f0" font-size="16" font-weight="700" text-anchor="middle">心率均值趋势图</text>
<text x="70" y="70" fill="#e2e8f0" font-size="13" font-weight="600">本月分天指标明细</text>
<line x1="70" y1="323.00" x2="930" y2="323.00" stroke="#94a3b8" stroke-opacity="0.18" stroke-width="1" />
<text x="62" y="327.00" fill="#cbd5f5" font-size="10" text-anchor="end">54.1</text>
<line x1="70" y1="260.75" x2="930" y2="260.75" stroke="#94a3b8" stroke-opacity="0.18" stroke-width="1" />
<text x="62" y="264.75" fill="#cbd5f5" font-size="10" text-anchor="end">69.5</text>
<line x1="70" y1="198.50" x2="930" y2="198.50" stroke="#94a3b8" stroke-opacity="0.18" stroke-width="1" />
<text x="62" y="202.50" fill="#cbd5f5" font-size="10" text-anchor="end">84.9</text>
<line x1="70" y1="136.25" x2="930" y2="136.25" stroke="#94a3b8" stroke-opacity="0.18" stroke-width="1" />
<text x="62" y="140.25" fill="#cbd5f5" font-size="10" text-anchor="end">100.4</text>
<line x1="70" y1="74.00" x2="930" y2="74.00" stroke="#94a3b8" stroke-opacity="0.18" stroke-width="1" />
<text x="62" y="78.00" fill="#cbd5f5" font-size="10" text-anchor="end">115.8</text>
<line x1="70.00" y1="323" x2="70.00" y2="327" stroke="#94a3b8" stroke-opacity="0.5" stroke-width="1" />
<text x="70.00" y="341" fill="#cbd5f5" font-size="10" text-anchor="middle">11-19</text>
<line x1="242.00" y1="323" x2="242.00" y2="327" stroke="#94a3b8" stroke-opacity="0.5" stroke-width="1" />
<text x="242.00" y="341" fill="#cbd5f5" font-size="10" text-anchor="middle">11-24</text>
<line x1="414.00" y1="323" x2="414.00" y2="327" stroke="#94a3b8" stroke-opacity="0.5" stroke-width="1" />
<text x="414.00" y="341" fill="#cbd5f5" font-size="10" text-anchor="middle">11-30</text>
<line x1="586.00" y1="323" x2="586.00" y2="327" stroke="#94a3b8" stroke-opacity="0.5" stroke-width="1" />
<text x="586.00" y="341" fill="#cbd5f5" font-size="10" text-anchor="middle">12-06</text>
<line x1="758.00" y1="323" x2="758.00" y2="327" stroke="#94a3b8" stroke-opacity="0.5" stroke-width="1" />
<text x="758.00" y="341" fill="#cbd5f5" font-size="10" text-anchor="middle">12-12</text>
<line x1="930.00" y1="323" x2="930.00" y2="327" stroke="#94a3b8" stroke-opacity="0.5" stroke-width="1" />
<text x="930.00" y="341" fill="#cbd5f5" font-size="10" text-anchor="middle">12-18</text>
<line x1="70" y1="74" x2="70" y2="323" stroke="#94a3b8" stroke-width="1" />
<line x1="70" y1="323" x2="930" y2="323" stroke="#94a3b8" stroke-width="1" />
<path d="M70.00,211.00 L99.66,235.39 L129.31,186.15 L158.97,134.43 L188.62,195.69 L218.28,231.13 L247.93,201.46 L277.59,195.54 L307.24,125.35 L336.90,243.66 L366.55,293.49 L396.21,302.25 L425.86,232.02 L455.52,178.88 L485.17,165.30 L514.83,181.50 L544.48,232.74 L574.14,200.81 L603.79,114.42 L633.45,141.29 L663.10,188.82 L692.76,208.60 L722.41,152.61 L752.07,222.35 L781.72,262.59 L811.38,222.74 L841.03,204.64 L870.69,201.49 L900.34,94.75 L930.00,121.81" fill="none" stroke="#facc15" stroke-width="2.2" stroke-linecap="round" />
<circle cx="70.00" cy="211.00" r="3" fill="#facc15" stroke="#0f172a" stroke-width="1" />
<text x="70.00" y="201.00" fill="#e2e8f0" font-size="9" text-anchor="middle">81.8</text>
<circle cx="99.66" cy="235.39" r="3" fill="#facc15" stroke="#0f172a" stroke-width="1" />
<text x="99.66" y="215.39" fill="#e2e8f0" font-size="9" text-anchor="middle">75.8</text>
<circle cx="129.31" cy="186.15" r="3" fill="#facc15" stroke="#0f172a" stroke-width="1" />
<text x="129.31" y="176.15" fill="#e2e8f0" font-size="9" text-anchor="middle">88</text>
<circle cx="158.97" cy="134.43" r="3" fill="#facc15" stroke="#0f172a" stroke-width="1" />
<text x="158.97" y="114.43" fill="#e2e8f0" font-size="9" text-anchor="middle">100.8</text>
<circle cx="188.62" cy="195.69" r="3" fill="#facc15" stroke="#0f172a" stroke-width="1" />
<text x="188.62" y="185.69" fill="#e2e8f0" font-size="9" text-anchor="middle">85.6</text>
<circle cx="218.28" cy="231.13" r="3" fill="#facc15" stroke="#0f172a" stroke-width="1" />
<text x="218.28" y="211.13" fill="#e2e8f0" font-size="9" text-anchor="middle">76.8</text>
<circle cx="247.93" cy="201.46" r="3" fill="#facc15" stroke="#0f172a" stroke-width="1" />
<text x="247.93" y="191.46" fill="#e2e8f0" font-size="9" text-anchor="middle">84.2</text>
<circle cx="277.59" cy="195.54" r="3" fill="#facc15" stroke="#0f172a" stroke-width="1" />
<text x="277.59" y="175.54" fill="#e2e8f0" font-size="9" text-anchor="middle">85.7</text>
<circle cx="307.24" cy="125.35" r="3" fill="#facc15" stroke="#0f172a" stroke-width="1" />
<text x="307.24" y="115.35" fill="#e2e8f0" font-size="9" text-anchor="middle">103.1</text>
<circle cx="336.90" cy="243.66" r="3" fill="#facc15" stroke="#0f172a" stroke-width="1" />
<text x="336.90" y="223.66" fill="#e2e8f0" font-size="9" text-anchor="middle">73.7</text>
<circle cx="366.55" cy="293.49" r="3" fill="#facc15" stroke="#0f172a" stroke-width="1" />
<text x="366.55" y="283.49" fill="#e2e8f0" font-size="9" text-anchor="middle">61.4</text>
<circle cx="396.21" cy="302.25" r="3" fill="#facc15" stroke="#0f172a" stroke-width="1" />
<text x="396.21" y="282.25" fill="#e2e8f0" font-size="9" text-anchor="middle">59.2</text>
<circle cx="425.86" cy="232.02" r="3" fill="#facc15" stroke="#0f172a" stroke-width="1" />
<text x="425.86" y="222.02" fill="#e2e8f0" font-size="9" text-anchor="middle">76.6</text>
<circle cx="455.52" cy="178.88" r="3" fill="#facc15" stroke="#0f172a" stroke-width="1" />
<text x="455.52" y="158.88" fill="#e2e8f0" font-size="9" text-anchor="middle">89.8</text>
<circle cx="485.17" cy="165.30" r="3" fill="#facc15" stroke="#0f172a" stroke-width="1" />
<text x="485.17" y="155.30" fill="#e2e8f0" font-size="9" text-anchor="middle">93.2</text>
<circle cx="514.83" cy="181.50" r="3" fill="#facc15" stroke="#0f172a" stroke-width="1" />
<text x="514.83" y="161.50" fill="#e2e8f0" font-size="9" text-anchor="middle">89.2</text>
<circle cx="544.48" cy="232.74" r="3" fill="#facc15" stroke="#0f172a" stroke-width="1" />
<text x="544.48" y="222.74" fill="#e2e8f0" font-size="9" text-anchor="middle">76.4</text>
<circle cx="574.14" cy="200.81" r="3" fill="#facc15" stroke="#0f172a" stroke-width="1" />
<text x="574.14" y="180.81" fill="#e2e8f0" font-size="9" text-anchor="middle">84.4</text>
<circle cx="603.79" cy="114.42" r="3" fill="#facc15" stroke="#0f172a" stroke-width="1" />
<text x="603.79" y="104.42" fill="#e2e8f0" font-size="9" text-anchor="middle">105.8</text>
<circle cx="633.45" cy="141.29" r="3" fill="#facc15" stroke="#0f172a" stroke-width="1" />
<text x="633.45" y="121.29" fill="#e2e8f0" font-size="9" text-anchor="middle">99.1</text>
<circle cx="663.10" cy="188.82" r="3" fill="#facc15" stroke="#0f172a" stroke-width="1" />
<text x="663.10" y="178.82" fill="#e2e8f0" font-size="9" text-anchor="middle">87.3</text>
<circle cx="692.76" cy="208.60" r="3" fill="#facc15" stroke="#0f172a" stroke-width="1" />
<text x="692.76" y="188.60" fill="#e2e8f0" font-size="9" text-anchor="middle">82.4</text>
<circle cx="722.41" cy="152.61" r="3" fill="#facc15" stroke="#0f172a" stroke-width="1" />
<text x="722.41" y="142.61" fill="#e2e8f0" font-size="9" text-anchor="middle">96.3</text>
<circle cx="752.07" cy="222.35" r="3" fill="#facc15" stroke="#0f172a" stroke-width="1" />
<text x="752.07" y="202.35" fill="#e2e8f0" font-size="9" text-anchor="middle">79</text>
<circle cx="781.72" cy="262.59" r="3" fill="#facc15" stroke="#0f172a" stroke-width="1" />
<text x="781.72" y="252.59" fill="#e2e8f0" font-size="9" text-anchor="middle">69</text>
<circle cx="811.38" cy="222.74" r="3" fill="#facc15" stroke="#0f172a" stroke-width="1" />
<text x="811.38" y="202.74" fill="#e2e8f0" font-size="9" text-anchor="middle">78.9</text>
<circle cx="841.03" cy="204.64" r="3" fill="#facc15" stroke="#0f172a" stroke-width="1" />
<text x="841.03" y="194.64" fill="#e2e8f0" font-size="9" text-anchor="middle">83.4</text>
<circle cx="870.69" cy="201.49" r="3" fill="#facc15" stroke="#0f172a" stroke-width="1" />
<text x="870.69" y="181.49" fill="#e2e8f0" font-size="9" text-anchor="middle">84.2</text>
<circle cx="900.34" cy="94.75" r="3" fill="#facc15" stroke="#0f172a" stroke-width="1" />
<text x="900.34" y="84.75" fill="#e2e8f0" font-size="9" text-anchor="middle">110.7</text>
<circle cx="930.00" cy="121.81" r="3" fill="#facc15" stroke="#0f172a" stroke-width="1" />
<text x="930.00" y="101.81" fill="#e2e8f0" font-size="9" text-anchor="middle">104</text>
<text x="70" y="403" fill="#e2e8f0" font-size="13" font-weight="600">本年核心指标趋势（滑动7日窗口平均）</text>
<line x1="70" y1="656.00" x2="930" y2="656.00" stroke="#94a3b8" stroke-opacity="0.18" stroke-width="1" />
<text x="62" y="660.00" fill="#cbd5f5" font-size="10" text-anchor="end">67.9</text>
<line x1="70" y1="593.75" x2="930" y2="593.75" stroke="#94a3b8" stroke-opacity="0.18" stroke-width="1" />
<text x="62" y="597.75" fill="#cbd5f5" font-size="10" text-anchor="end">76.9</text>
<line x1="70" y1="531.50" x2="930" y2="531.50" stroke="#94a3b8" stroke-opacity="0.18" stroke-width="1" />
<text x="62" y="535.50" fill="#cbd5f5" font-size="10" text-anchor="end">85.9</text>
<line x1="70" y1="469.25" x2="930" y2="469.25" stroke="#94a3b8" stroke-opacity="0.18" stroke-width="1" />
<text x="62" y="473.25" fill="#cbd5f5" font-size="10" text-anchor="end">94.9</text>
<line x1="70" y1="407.00" x2="930" y2="407.00" stroke="#94a3b8" stroke-opacity="0.18" stroke-width="1" />
<text x="62" y="411.00" fill="#cbd5f5" font-size="10" text-anchor="end">103.9</text>
<line x1="70.00" y1="656" x2="70.00" y2="660" stroke="#94a3b8" stroke-opacity="0.5" stroke-width="1" />
<text x="70.00" y="674" fill="#cbd5f5" font-size="10" text-anchor="middle">2024-12</text>
<line x1="242.00" y1="656" x2="242.00" y2="660" stroke="#94a3b8" stroke-opacity="0.5" stroke-width="1" />
<text x="242.00" y="674" fill="#cbd5f5" font-size="10" text-anchor="middle">2025-03</text>
<line x1="414.00" y1="656" x2="414.00" y2="660" stroke="#94a3b8" stroke-opacity="0.5" stroke-width="1" />
<text x="414.00" y="674" fill="#cbd5f5" font-size="10" text-anchor="middle">2025-05</text>
<line x1="586.00" y1="656" x2="586.00" y2="660" stroke="#94a3b8" stroke-opacity="0.5" stroke-width="1" />
<text x="586.00" y="674" fill="#cbd5f5" font-size="10" text-anchor="middle">2025-07</text>
<line x1="758.00" y1="656" x2="758.00" y2="660" stroke="#94a3b8" stroke-opacity="0.5" stroke-width="1" />
<text x="758.00" y="674" fill="#cbd5f5" font-size="10" text-anchor="middle">2025-10</text>
<line x1="930.00" y1="656" x2="930.00" y2="660" stroke="#94a3b8" stroke-opacity="0.5" stroke-width="1" />
<text x="930.00" y="674" fill="#cbd5f5" font-size="10" text-anchor="middle">2025-12</text>
<line x1="70" y1="407" x2="70" y2="656" stroke="#94a3b8" stroke-width="1" />
<line x1="70" y1="656" x2="930" y2="656" stroke="#94a3b8" stroke-width="1" />
<path d="M70.00,656.00 L70.00,530.28 L72.36,514.25 L74.73,511.25 L77.09,516.76 L79.45,519.55 L81.81,518.63 L84.18,521.37 L86.54,530.55 L88.90,536.40 L91.26,528.92 L93.63,521.31 L95.99,526.41 L98.35,527.35 L100.71,513.44 L103.08,506.77 L105.44,507.24 L107.80,514.74 L110.16,522.44 L112.53,521.58 L114.89,524.72 L117.25,531.58 L119.62,526.31 L121.98,527.32 L124.34,531.17 L126.70,532.11 L129.07,531.04 L131.43,531.90 L133.79,535.81 L136.15,543.99 L138.52,539.07 L140.88,543.64 L143.24,544.13 L145.60,538.97 L147.97,541.73 L150.33,543.07 L152.69,540.52 L155.05,544.45 L157.42,561.62 L159.78,571.53 L162.14,594.09 L164.51,602.23 L166.87,614.24 L169.23,630.41 L171.59,628.90 L173.96,610.62 L176.32,618.61 L178.68,593.39 L181.04,581.45 L183.41,577.42 L185.77,569.53 L188.13,570.87 L190.49,558.37 L192.86,544.19 L195.22,560.04 L197.58,573.96 L199.95,567.24 L202.31,564.66 L204.67,578.74 L207.03,597.92 L209.40,594.77 L211.76,592.52 L214.12,582.43 L216.48,587.08 L218.85,587.73 L221.21,580.05 L223.57,587.07 L225.93,588.76 L228.30,587.74 L230.66,588.17 L233.02,591.41 L235.38,589.78 L237.75,593.86 L240.11,586.80 L242.47,586.83 L244.84,586.63 L247.20,580.98 L249.56,582.92 L251.92,575.66 L254.29,566.87 L256.65,565.26 L259.01,587.86 L261.37,586.87 L263.74,592.46 L266.10,580.81 L268.46,586.20 L270.82,598.22 L273.19,609.41 L275.55,604.58 L277.91,615.65 L280.27,623.14 L282.64,628.64 L285.00,635.25 L287.36,628.72 L289.73,616.70 L292.09,589.04 L294.45,571.62 L296.81,564.17 L299.18,562.13 L301.54,546.00 L303.90,544.51 L306.26,554.30 L308.63,573.91 L310.99,578.22 L313.35,575.00 L315.71,575.14 L318.08,576.12 L320.44,573.15 L322.80,570.10 L325.16,564.87 L327.53,565.99 L329.89,566.53 L332.25,568.01 L334.62,573.18 L336.98,570.71 L339.34,565.32 L341.70,560.37 L344.07,558.72 L346.43,561.80 L348.79,556.78 L351.15,554.48 L353.52,555.17 L355.88,555.52 L358.24,563.20 L360.60,565.37 L362.97,565.44 L365.33,565.94 L367.69,567.96 L370.05,562.96 L372.42,553.18 L374.78,545.69 L377.14,543.21 L379.51,538.41 L381.87,549.35 L384.23,552.97 L386.59,556.82 L388.96,562.73 L391.32,565.60 L393.68,564.45 L396.04,574.36 L398.41,573.66 L400.77,572.17 L403.13,577.41 L405.49,586.81 L407.86,589.17 L410.22,588.27 L412.58,577.70 L414.95,568.12 L417.31,563.91 L419.67,563.23 L422.03,555.88 L424.40,554.90 L426.76,557.12 L429.12,553.37 L431.48,551.82 L433.85,552.09 L436.21,554.06 L438.57,557.47 L440.93,559.36 L443.30,554.20 L445.66,557.98 L448.02,562.16 L450.38,568.00 L452.75,559.95 L455.11,550.42 L457.47,538.76 L459.84,529.83 L462.20,526.23 L464.56,526.56 L466.92,524.41 L469.29,531.79 L471.65,535.04 L474.01,538.24 L476.37,553.16 L478.74,555.79 L481.10,550.54 L483.46,548.59 L485.82,541.78 L488.19,544.75 L490.55,552.50 L492.91,552.10 L495.27,553.81 L497.64,556.63 L500.00,551.45 L502.36,538.59 L504.73,538.33 L507.09,523.91 L509.45,519.80 L511.81,519.75 L514.18,520.69 L516.54,528.06 L518.90,543.78 L521.26,530.18 L523.63,534.07 L525.99,538.94 L528.35,540.57 L530.71,543.07 L533.08,537.09 L535.44,530.95 L537.80,538.61 L540.16,539.40 L542.53,535.01 L544.89,528.57 L547.25,523.08 L549.62,532.45 L551.98,539.26 L554.34,531.86 L556.70,533.92 L559.07,532.42 L561.43,540.33 L563.79,561.40 L566.15,557.01 L568.52,550.38 L570.88,557.07 L573.24,582.36 L575.60,588.86 L577.97,585.08 L580.33,573.43 L582.69,565.00 L585.05,562.62 L587.42,564.62 L589.78,543.36 L592.14,540.09 L594.51,541.65 L596.87,535.60 L599.23,537.10 L601.59,540.28 L603.96,538.12 L606.32,527.20 L608.68,537.02 L611.04,542.84 L613.41,540.67 L615.77,550.06 L618.13,551.93 L620.49,553.47 L622.86,558.27 L625.22,550.91 L627.58,546.75 L629.95,546.54 L632.31,543.53 L634.67,544.54 L637.03,541.38 L639.40,554.98 L641.76,552.26 L644.12,553.06 L646.48,566.95 L648.85,576.12 L651.21,592.71 L653.57,558.65 L674.84,541.24 L677.20,542.00 L679.56,531.72 L681.92,511.94 L684.29,482.39 L686.65,451.18 L689.01,497.85 L691.37,512.48 L693.74,503.67 L696.10,507.53 L698.46,497.27 L700.82,495.95 L703.19,487.08 L705.55,476.90 L707.91,467.34 L710.27,471.37 L712.64,478.38 L715.00,478.91 L717.36,494.89 L719.73,541.16 L722.09,543.44 L724.45,542.68 L726.81,527.93 L729.18,545.94 L731.54,548.21 L733.90,539.47 L736.26,519.82 L738.63,498.72 L740.99,497.52 L743.35,498.45 L745.71,489.64 L748.08,524.48 L750.44,544.32 L752.80,561.28 L755.16,602.58 L757.53,610.50 L759.89,625.47 L762.25,626.26 L764.62,619.74 L766.98,608.53 L769.34,594.09 L771.70,564.74 L774.07,561.16 L776.43,564.94 L778.79,535.81 L781.15,510.14 L783.52,518.01 L785.88,483.18 L788.24,490.96 L790.60,483.39 L792.97,473.32 L795.33,481.55 L797.69,485.49 L800.05,483.18 L802.42,474.01 L804.78,480.08 L807.14,488.88 L809.51,493.94 L811.87,500.97 L814.23,497.40 L816.59,501.52 L818.96,556.13 L821.32,515.66 L823.68,515.50 L826.04,503.74 L828.41,492.64 L830.77,510.21 L833.13,503.36 L835.49,427.75 L837.86,462.07 L840.22,464.97 L842.58,484.74 L844.95,493.55 L847.31,497.23 L849.67,501.00 L852.03,566.20 L854.40,575.93 L856.76,577.85 L859.12,575.74 L861.48,580.63 L863.85,580.49 L866.21,575.13 L868.57,553.68 L870.93,541.85 L873.30,541.83 L875.66,539.46 L878.02,535.67 L880.38,508.70 L882.75,522.80 L885.11,561.79 L887.47,587.91 L889.84,588.13 L892.20,582.60 L894.56,575.19 L896.92,588.95 L899.29,586.27 L901.65,563.55 L904.01,517.51 L906.37,495.26 L908.74,497.70 L911.10,508.31 L913.46,501.23 L915.82,498.68 L918.19,513.83 L920.55,540.38 L922.91,555.92 L925.27,559.02 L927.64,531.11 L930.00,523.56 L930.00,656.00 Z" fill="#facc15" fill-opacity="0.16" stroke="none" />
<path d="M70.00,530.28 L72.36,514.25 L74.73,511.25 L77.09,516.76 L79.45,519.55 L81.81,518.63 L84.18,521.37 L86.54,530.55 L88.90,536.40 L91.26,528.92 L93.63,521.31 L95.99,526.41 L98.35,527.35 L100.71,513.44 L103.08,506.77 L105.44,507.24 L107.80,514.74 L110.16,522.44 L112.53,521.58 L114.89,524.72 L117.25,531.58 L119.62,526.31 L121.98,527.32 L124.34,531.17 L126.70,532.11 L129.07,531.04 L131.43,531.90 L133.79,535.81 L136.15,543.99 L138.52,539.07 L140.88,543.64 L143.24,544.13 L145.60,538.97 L147.97,541.73 L150.33,543.07 L152.69,540.52 L155.05,544.45 L157.42,561.62 L159.78,571.53 L162.14,594.09 L164.51,602.23 L166.87,614.24 L169.23,630.41 L171.59,628.90 L173.96,610.62 L176.32,618.61 L178.68,593.39 L181.04,581.45 L183.41,577.42 L185.77,569.53 L188.13,570.87 L190.49,558.37 L192.86,544.19 L195.22,560.04 L197.58,573.96 L199.95,567.24 L202.31,564.66 L204.67,578.74 L207.03,597.92 L209.40,594.77 L211.76,592.52 L214.12,582.43 L216.48,587.08 L218.85,587.73 L221.21,580.05 L223.57,587.07 L225.93,588.76 L228.30,587.74 L230.66,588.17 L233.02,591.41 L235.38,589.78 L237.75,593.86 L240.11,586.80 L242.47,586.83 L244.84,586.63 L247.20,580.98 L249.56,582.92 L251.92,575.66 L254.29,566.87 L256.65,565.26 L259.01,587.86 L261.37,586.87 L263.74,592.46 L266.10,580.81 L268.46,586.20 L270.82,598.22 L273.19,609.41 L275.55,604.58 L277.91,615.65 L280.27,623.14 L282.64,628.64 L285.00,635.25 L287.36,628.72 L289.73,616.70 L292.09,589.04 L294.45,571.62 L296.81,564.17 L299.18,562.13 L301.54,546.00 L303.90,544.51 L306.26,554.30 L308.63,573.91 L310.99,578.22 L313.35,575.00 L315.71,575.14 L318.08,576.12 L320.44,573.15 L322.80,570.10 L325.16,564.87 L327.53,565.99 L329.89,566.53 L332.25,568.01 L334.62,573.18 L336.98,570.71 L339.34,565.32 L341.70,560.37 L344.07,558.72 L346.43,561.80 L348.79,556.78 L351.15,554.48 L353.52,555.17 L355.88,555.52 L358.24,563.20 L360.60,565.37 L362.97,565.44 L365.33,565.94 L367.69,567.96 L370.05,562.96 L372.42,553.18 L374.78,545.69 L377.14,543.21 L379.51,538.41 L381.87,549.35 L384.23,552.97 L386.59,556.82 L388.96,562.73 L391.32,565.60 L393.68,564.45 L396.04,574.36 L398.41,573.66 L400.77,572.17 L403.13,577.41 L405.49,586.81 L407.86,589.17 L410.22,588.27 L412.58,577.70 L414.95,568.12 L417.31,563.91 L419.67,563.23 L422.03,555.88 L424.40,554.90 L426.76,557.12 L429.12,553.37 L431.48,551.82 L433.85,552.09 L436.21,554.06 L438.57,557.47 L440.93,559.36 L443.30,554.20 L445.66,557.98 L448.02,562.16 L450.38,568.00 L452.75,559.95 L455.11,550.42 L457.47,538.76 L459.84,529.83 L462.20,526.23 L464.56,526.56 L466.92,524.41 L469.29,531.79 L471.65,535.04 L474.01,538.24 L476.37,553.16 L478.74,555.79 L481.10,550.54 L483.46,548.59 L485.82,541.78 L488.19,544.75 L490.55,552.50 L492.91,552.10 L495.27,553.81 L497.64,556.63 L500.00,551.45 L502.36,538.59 L504.73,538.33 L507.09,523.91 L509.45,519.80 L511.81,519.75 L514.18,520.69 L516.54,528.06 L518.90,543.78 L521.26,530.18 L523.63,534.07 L525.99,538.94 L528.35,540.57 L530.71,543.07 L533.08,537.09 L535.44,530.95 L537.80,538.61 L540.16,539.40 L542.53,535.01 L544.89,528.57 L547.25,523.08 L549.62,532.45 L551.98,539.26 L554.34,531.86 L556.70,533.92 L559.07,532.42 L561.43,540.33 L563.79,561.40 L566.15,557.01 L568.52,550.38 L570.88,557.07 L573.24,582.36 L575.60,588.86 L577.97,585.08 L580.33,573.43 L582.69,565.00 L585.05,562.62 L587.42,564.62 L589.78,543.36 L592.14,540.09 L594.51,541.65 L596.87,535.60 L599.23,537.10 L601.59,540.28 L603.96,538.12 L606.32,527.20 L608.68,537.02 L611.04,542.84 L613.41,540.67 L615.77,550.06 L618.13,551.93 L620.49,553.47 L622.86,558.27 L625.22,550.91 L627.58,546.75 L629.95,546.54 L632.31,543.53 L634.67,544.54 L637.03,541.38 L639.40,554.98 L641.76,552.26 L644.12,553.06 L646.48,566.95 L648.85,576.12 L651.21,592.71 L653.57,558.65 L674.84,541.24 L677.20,542.00 L679.56,531.72 L681.92,511.94 L684.29,482.39 L686.65,451.18 L689.01,497.85 L691.37,512.48 L693.74,503.67 L696.10,507.53 L698.46,497.27 L700.82,495.95 L703.19,487.08 L705.55,476.90 L707.91,467.34 L710.27,471.37 L712.64,478.38 L715.00,478.91 L717.36,494.89 L719.73,541.16 L722.09,543.44 L724.45,542.68 L726.81,527.93 L729.18,545.94 L731.54,548.21 L733.90,539.47 L736.26,519.82 L738.63,498.72 L740.99,497.52 L743.35,498.45 L745.71,489.64 L748.08,524.48 L750.44,544.32 L752.80,561.28 L755.16,602.58 L757.53,610.50 L759.89,625.47 L762.25,626.26 L764.62,619.74 L766.98,608.53 L769.34,594.09 L771.70,564.74 L774.07,561.16 L776.43,564.94 L778.79,535.81 L781.15,510.14 L783.52,518.01 L785.88,483.18 L788.24,490.96 L790.60,483.39 L792.97,473.32 L795.33,481.55 L797.69,485.49 L800.05,483.18 L802.42,474.01 L804.78,480.08 L807.14,488.88 L809.51,493.94 L811.87,500.97 L814.23,497.40 L816.59,501.52 L818.96,556.13 L821.32,515.66 L823.68,515.50 L826.04,503.74 L828.41,492.64 L830.77,510.21 L833.13,503.36 L835.49,427.75 L837.86,462.07 L840.22,464.97 L842.58,484.74 L844.95,493.55 L847.31,497.23 L849.67,501.00 L852.03,566.20 L854.40,575.93 L856.76,577.85 L859.12,575.74 L861.48,580.63 L863.85,580.49 L866.21,575.13 L868.57,553.68 L870.93,541.85 L873.30,541.83 L875.66,539.46 L878.02,535.67 L880.38,508.70 L882.75,522.80 L885.11,561.79 L887.47,587.91 L889.84,588.13 L892.20,582.60 L894.56,575.19 L896.92,588.95 L899.29,586.27 L901.65,563.55 L904.01,517.51 L906.37,495.26 L908.74,497.70 L911.10,508.31 L913.46,501.23 L915.82,498.68 L918.19,513.83 L920.55,540.38 L922.91,555.92 L925.27,559.02 L927.64,531.11 L930.00,523.56" fill="none" stroke="#facc15" stroke-width="2.2" stroke-linecap="round" />
</svg>
