<svg xmlns="http://www.w3.org/2000/svg" viewBox="0 0 960 720" width="960" height="720">
<rect width="960" height="720" fill="#0f172a" />
<text x="480" y="28" fill="#e2e8f0" font-size="16" font-weight="700" text-anchor="middle">心率最大值趋势图</text>
<text x="70" y="70" fill="#e2e8f0" font-size="13" font-weight="600">本月分天指标明细</text>
<line x1="70" y1="323.00" x2="930" y2="323.00" stroke="#94a3b8" stroke-opacity="0.18" stroke-width="1" />
<text x="62" y="327.00" fill="#cbd5f5" font-size="10" text-anchor="end">89.5</text>
<line x1="70" y1="260.75" x2="930" y2="260.75" stroke="#94a3b8" stroke-opacity="0.18" stroke-width="1" />
<text x="62" y="264.75" fill="#cbd5f5" font-size="10" text-anchor="end">115</text>
<line x1="70" y1="198.50" x2="930" y2="198.50" stroke="#94a3b8" stroke-opacity="0.18" stroke-width="1" />
<text x="62" y="202.50" fill="#cbd5f5" font-size="10" text-anchor="end">140.5</text>
<line x1="70" y1="136.25" x2="930" y2="136.25" stroke="#94a3b8" stroke-opacity="0.18" stroke-width="1" />
<text x="62" y="140.25" fill="#cbd5f5" font-size="10" text-anchor="end">166</text>
<line x1="70" y1="74.00" x2="930" y2="74.00" stroke="#94a3b8" stroke-opacity="0.18" stroke-width="1" />
<text x="62" y="78.00" fill="#cbd5f5" font-size="10" text-anchor="end">191.5</text>
<line x1="70.00" y1="323" x2="70.00" y2="327" stroke="#94a3b8" stroke-opacity="0.5" stroke-width="1" />
<text x="70.00" y="341" fill="#cbd5f5" font-size="10" text-anchor="middle">11-22</text>
<line x1="242.00" y1="323" x2="242.00" y2="327" stroke="#94a3b8" stroke-opacity="0.5" stroke-width="1" />
<text x="242.00" y="341" fill="#cbd5f5" font-size="10" text-anchor="middle">11-27</text>
<line x1="414.00" y1="323" x2="414.00" y2="327" stroke="#94a3b8" stroke-opacity="0.5" stroke-width="1" />
<text x="414.00" y="341" fill="#cbd5f5" font-size="10" text-anchor="middle">12-03</text>
<line x1="586.00" y1="323" x2="586.00" y2="327" stroke="#94a3b8" stroke-opacity="0.5" stroke-width="1" />
<text x="586.00" y="341" fill="#cbd5f5" font-size="10" text-anchor="middle">12-09</text>
<line x1="758.00" y1="323" x2="758.00" y2="327" stroke="#94a3b8" stroke-opacity="0.5" stroke-width="1" />
<text x="758.00" y="341" fill="#cbd5f5" font-size="10" text-anchor="middle">12-15</text>
<line x1="930.00" y1="323" x2="930.00" y2="327" stroke="#94a3b8" stroke-opacity="0.5" stroke-width="1" />
<text x="930.00" y="341" fill="#cbd5f5" font-size="10" text-anchor="middle">12-21</text>
<line x1="70" y1="74" x2="70" y2="323" stroke="#94a3b8" stroke-width="1" />
<line x1="70" y1="323" x2="930" y2="323" stroke="#94a3b8" stroke-width="1" />
<path d="M70.00,175.31 L99.66,207.04 L129.31,189.96 L158.97,229.01 L188.62,189.96 L218.28,170.43 L247.93,204.60 L277.59,265.63 L307.24,302.25 L336.90,126.49 L366.55,158.22 L396.21,197.28 L425.86,177.75 L455.52,211.93 L485.17,216.81 L514.83,136.25 L544.48,150.90 L574.14,187.51 L603.79,238.78 L633.45,138.69 L663.10,231.46 L692.76,272.96 L722.41,263.19 L752.07,224.13 L781.72,233.90 L811.38,94.75 L841.03,153.34 L870.69,163.10 L900.34,109.40 L930.00,236.34" fill="none" stroke="#60a5fa" stroke-width="2.2" stroke-linecap="round" />
<circle cx="70.00" cy="175.31" r="3" fill="#60a5fa" stroke="#0f172a" stroke-width="1" />
<text x="70.00" y="165.31" fill="#e2e8f0" font-size="9" text-anchor="middle">150</text>
<circle cx="99.66" cy="207.04" r="3" fill="#60a5fa" stroke="#0f172a" stroke-width="1" />
<text x="99.66" y="187.04" fill="#e2e8f0" font-size="9" text-anchor="middle">137</text>
<circle cx="129.31" cy="189.96" r="3" fill="#60a5fa" stroke="#0f172a" stroke-width="1" />
<text x="129.31" y="179.96" fill="#e2e8f0" font-size="9" text-anchor="middle">144</text>
<circle cx="158.97" cy="229.01" r="3" fill="#60a5fa" stroke="#0f172a" stroke-width="1" />
<text x="158.97" y="209.01" fill="#e2e8f0" font-size="9" text-anchor="middle">128</text>
<circle cx="188.62" cy="189.96" r="3" fill="#60a5fa" stroke="#0f172a" stroke-width="1" />
<text x="188.62" y="179.96" fill="#e2e8f0" font-size="9" text-anchor="middle">144</text>
<circle cx="218.28" cy="170.43" r="3" fill="#60a5fa" stroke="#0f172a" stroke-width="1" />
<text x="218.28" y="150.43" fill="#e2e8f0" font-size="9" text-anchor="middle">152</text>
<circle cx="247.93" cy="204.60" r="3" fill="#60a5fa" stroke="#0f172a" stroke-width="1" />
<text x="247.93" y="194.60" fill="#e2e8f0" font-size="9" text-anchor="middle">138</text>
<circle cx="277.59" cy="265.63" r="3" fill="#60a5fa" stroke="#0f172a" stroke-width="1" />
<text x="277.59" y="245.63" fill="#e2e8f0" font-size="9" text-anchor="middle">113</text>
<circle cx="307.24" cy="302.25" r="3" fill="#60a5fa" stroke="#0f172a" stroke-width="1" />
<text x="307.24" y="292.25" fill="#e2e8f0" font-size="9" text-anchor="middle">98</text>
<circle cx="336.90" cy="126.49" r="3" fill="#60a5fa" stroke="#0f172a" stroke-width="1" />
<text x="336.90" y="106.49" fill="#e2e8f0" font-size="9" text-anchor="middle">170</text>
<circle cx="366.55" cy="158.22" r="3" fill="#60a5fa" stroke="#0f172a" stroke-width="1" />
<text x="366.55" y="148.22" fill="#e2e8f0" font-size="9" text-anchor="middle">157</text>
<circle cx="396.21" cy="197.28" r="3" fill="#60a5fa" stroke="#0f172a" stroke-width="1" />
<text x="396.21" y="177.28" fill="#e2e8f0" font-size="9" text-anchor="middle">141</text>
<circle cx="425.86" cy="177.75" r="3" fill="#60a5fa" stroke="#0f172a" stroke-width="1" />
<text x="425.86" y="167.75" fill="#e2e8f0" font-size="9" text-anchor="middle">149</text>
<circle cx="455.52" cy="211.93" r="3" fill="#60a5fa" stroke="#0f172a" stroke-width="1" />
<text x="455.52" y="191.93" fill="#e2e8f0" font-size="9" text-anchor="middle">135</text>
<circle cx="485.17" cy="216.81" r="3" fill="#60a5fa" stroke="#0f172a" stroke-width="1" />
<text x="485.17" y="206.81" fill="#e2e8f0" font-size="9" text-anchor="middle">133</text>
<circle cx="514.83" cy="136.25" r="3" fill="#60a5fa" stroke="#0f172a" stroke-width="1" />
<text x="514.83" y="116.25" fill="#e2e8f0" font-size="9" text-anchor="middle">166</text>
<circle cx="544.48" cy="150.90" r="3" fill="#60a5fa" stroke="#0f172a" stroke-width="1" />
<text x="544.48" y="140.90" fill="#e2e8f0" font-size="9" text-anchor="middle">160</text>
<circle cx="574.14" cy="187.51" r="3" fill="#60a5fa" stroke="#0f172a" stroke-width="1" />
<text x="574.14" y="167.51" fill="#e2e8f0" font-size="9" text-anchor="middle">145</text>
<circle cx="603.79" cy="238.78" r="3" fill="#60a5fa" stroke="#0f172a" stroke-width="1" />
<text x="603.79" y="228.78" fill="#e2e8f0" font-size="9" text-anchor="middle">124</text>
<circle cx="633.45" cy="138.69" r="3" fill="#60a5fa" stroke="#0f172a" stroke-width="1" />
<text x="633.45" y="118.69" fill="#e2e8f0" font-size="9" text-anchor="middle">165</text>
<circle cx="663.10" cy="231.46" r="3" fill="#60a5fa" stroke="#0f172a" stroke-width="1" />
<text x="663.10" y="221.46" fill="#e2e8f0" font-size="9" text-anchor="middle">127</text>
<circle cx="692.76" cy="272.96" r="3" fill="#60a5fa" stroke="#0f172a" stroke-width="1" />
<text x="692.76" y="252.96" fill="#e2e8f0" font-size="9" text-anchor="middle">110</text>
<circle cx="722.41" cy="263.19" r="3" fill="#60a5fa" stroke="#0f172a" stroke-width="1" />
<text x="722.41" y="253.19" fill="#e2e8f0" font-size="9" text-anchor="middle">114</text>
<circle cx="752.07" cy="224.13" r="3" fill="#60a5fa" stroke="#0f172a" stroke-width="1" />
<text x="752.07" y="204.13" fill="#e2e8f0" font-size="9" text-anchor="middle">130</text>
<circle cx="781.72" cy="233.90" r="3" fill="#60a5fa" stroke="#0f172a" stroke-width="1" />
<text x="781.72" y="223.90" fill="#e2e8f0" font-size="9" text-anchor="middle">126</text>
<circle cx="811.38" cy="94.75" r="3" fill="#60a5fa" stroke="#0f172a" stroke-width="1" />
<text x="811.38" y="108.75" fill="#e2e8f0" font-size="9" text-anchor="middle">183</text>
<circle cx="841.03" cy="153.34" r="3" fill="#60a5fa" stroke="#0f172a" stroke-width="1" />
<text x="841.03" y="143.34" fill="#e2e8f0" font-size="9" text-anchor="middle">159</text>
<circle cx="870.69" cy="163.10" r="3" fill="#60a5fa" stroke="#0f172a" stroke-width="1" />
<text x="870.69" y="143.10" fill="#e2e8f0" font-size="9" text-anchor="middle">155</text>
<circle cx="900.34" cy="109.40" r="3" fill="#60a5fa" stroke="#0f172a" stroke-width="1" />
<text x="900.34" y="99.40" fill="#e2e8f0" font-size="9" text-anchor="middle">177</text>
<circle cx="930.00" cy="236.34" r="3" fill="#60a5fa" stroke="#0f172a" stroke-width="1" />
<text x="930.00" y="216.34" fill="#e2e8f0" font-size="9" text-anchor="middle">125</text>
<text x="70" y="403" fill="#e2e8f0" font-size="13" font-weight="600">本年核心指标趋势（滑动7日窗口平均）</text>
<line x1="70" y1="656.00" x2="930" y2="656.00" stroke="#94a3b8" stroke-opacity="0.18" stroke-width="1" />
<text x="62" y="660.00" fill="#cbd5f5" font-size="10" text-anchor="end">101.8</text>
<line x1="70" y1="593.75" x2="930" y2="593.75" stroke="#94a3b8" stroke-opacity="0.18" stroke-width="1" />
<text x="62" y="597.75" fill="#cbd5f5" font-size="10" text-anchor="end">117.5</text>
<line x1="70" y1="531.50" x2="930" y2="531.50" stroke="#94a3b8" stroke-opacity="0.18" stroke-width="1" />
<text x="62" y="535.50" fill="#cbd5f5" font-size="10" text-anchor="end">133.1</text>
<line x1="70" y1="469.25" x2="930" y2="469.25" stroke="#94a3b8" stroke-opacity="0.18" stroke-width="1" />
<text x="62" y="473.25" fill="#cbd5f5" font-size="10" text-anchor="end">148.8</text>
<line x1="70" y1="407.00" x2="930" y2="407.00" stroke="#94a3b8" stroke-opacity="0.18" stroke-width="1" />
<text x="62" y="411.00" fill="#cbd5f5" font-size="10" text-anchor="end">164.5</text>
<line x1="70.00" y1="656" x2="70.00" y2="660" stroke="#94a3b8" stroke-opacity="0.5" stroke-width="1" />
<text x="70.00" y="674" fill="#cbd5f5" font-size="10" text-anchor="middle">2024-12</text>
<line x1="242.00" y1="656" x2="242.00" y2="660" stroke="#94a3b8" stroke-opacity="0.5" stroke-width="1" />
<text x="242.00" y="674" fill="#cbd5f5" font-size="10" text-anchor="middle">2025-03</text>
<line x1="414.00" y1="656" x2="414.00" y2="660" stroke="#94a3b8" stroke-opacity="0.5" stroke-width="1" />
<text x="414.00" y="674" fill="#cbd5f5" font-size="10" text-anchor="middle">2025-05</text>
<line x1="586.00" y1="656" x2="586.00" y2="660" stroke="#94a3b8" stroke-opacity="0.5" stroke-width="1" />
<text x="586.00" y="674" fill="#cbd5f5" font-size="10" text-anchor="middle">2025-07</text>
<line x1="758.00" y1="656" x2="758.00" y2="660" stroke="#94a3b8" stroke-opacity="0.5" stroke-width="1" />
<text x="758.00" y="674" fill="#cbd5f5" font-size="10" text-anchor="middle">2025-10</text>
<line x1="930.00" y1="656" x2="930.00" y2="660" stroke="#94a3b8" stroke-opacity="0.5" stroke-width="1" />
<text x="930.00" y="674" fill="#cbd5f5" font-size="10" text-anchor="middle">2025-12</text>
<line x1="70" y1="407" x2="70" y2="656" stroke="#94a3b8" stroke-width="1" />
<line x1="70" y1="656" x2="930" y2="656" stroke="#94a3b8" stroke-width="1" />
<path d="M70.00,656.00 L70.00,496.35 L72.36,482.46 L74.73,488.41 L77.09,502.30 L79.45,519.37 L81.81,518.18 L84.18,518.46 L86.54,525.26 L88.90,538.30 L91.26,542.84 L93.63,517.89 L95.99,511.66 L98.35,513.36 L100.71,502.02 L103.08,489.55 L105.44,486.71 L107.80,481.04 L110.16,483.31 L112.53,464.60 L114.89,464.03 L117.25,478.77 L119.62,466.87 L121.98,469.70 L124.34,474.24 L126.70,494.08 L129.07,515.63 L131.43,512.79 L133.79,511.09 L136.15,538.87 L138.52,534.33 L140.88,518.46 L143.24,515.63 L145.60,506.55 L147.97,512.22 L150.33,520.73 L152.69,503.72 L155.05,519.59 L157.42,540.57 L159.78,535.47 L162.14,564.38 L164.51,558.15 L166.87,546.81 L169.23,584.23 L171.59,563.82 L173.96,536.60 L176.32,542.27 L178.68,523.00 L181.04,524.13 L183.41,517.33 L185.77,490.68 L188.13,504.29 L190.49,534.33 L192.86,533.20 L195.22,528.10 L197.58,530.93 L199.95,540.00 L202.31,528.22 L204.67,522.55 L207.03,516.88 L209.40,523.68 L211.76,524.81 L214.12,514.04 L216.48,518.01 L218.85,523.58 L221.21,521.32 L223.57,516.21 L225.93,506.84 L228.30,493.80 L230.66,509.67 L233.02,501.74 L235.38,498.31 L237.75,501.15 L240.11,501.15 L242.47,493.52 L244.84,498.34 L247.20,488.70 L249.56,484.73 L251.92,509.68 L254.29,519.32 L256.65,523.99 L259.01,532.63 L261.37,551.05 L263.74,558.57 L266.10,586.01 L268.46,585.45 L270.82,581.48 L273.19,586.44 L275.55,583.11 L277.91,563.31 L280.27,555.04 L282.64,534.40 L285.00,506.79 L287.36,500.55 L289.73,478.96 L292.09,485.12 L294.45,482.70 L296.81,493.66 L299.18,502.17 L301.54,509.93 L303.90,500.81 L306.26,506.83 L308.63,502.53 L310.99,506.61 L313.35,500.38 L315.71,503.21 L318.08,484.50 L320.44,478.32 L322.80,484.43 L325.16,487.56 L327.53,493.50 L329.89,483.73 L332.25,480.89 L334.62,509.81 L336.98,508.11 L339.34,499.99 L341.70,494.41 L344.07,488.91 L346.43,490.18 L348.79,480.54 L351.15,476.56 L353.52,490.71 L355.88,507.72 L358.24,512.79 L360.60,518.64 L362.97,523.74 L365.33,529.61 L367.69,531.33 L370.05,537.01 L372.42,524.54 L374.78,536.29 L377.14,518.66 L379.51,524.32 L381.87,529.23 L384.23,528.10 L386.59,504.92 L388.96,512.85 L391.32,507.18 L393.68,518.90 L396.04,521.17 L398.41,527.98 L400.77,521.17 L403.13,533.02 L405.49,528.48 L407.86,509.34 L410.22,516.00 L412.58,514.86 L414.95,508.63 L417.31,517.13 L419.67,502.39 L422.03,499.56 L424.40,519.04 L426.76,511.99 L429.12,510.29 L431.48,504.62 L433.85,518.23 L436.21,542.61 L438.57,541.48 L440.93,549.08 L443.30,554.18 L445.66,544.54 L448.02,536.60 L450.38,521.30 L452.75,501.31 L455.11,513.79 L457.47,506.42 L459.84,509.25 L462.20,522.86 L464.56,528.53 L466.92,521.16 L469.29,535.47 L471.65,528.10 L474.01,525.23 L476.37,514.54 L478.74,497.53 L481.10,502.07 L483.46,515.11 L485.82,525.31 L488.19,521.34 L490.55,527.05 L492.91,530.93 L495.27,532.63 L497.64,526.96 L500.00,510.72 L502.36,493.71 L504.73,480.67 L507.09,471.80 L509.45,477.35 L511.81,486.42 L514.18,464.88 L516.54,473.19 L518.90,474.32 L521.26,500.97 L523.63,491.70 L525.99,481.61 L528.35,479.34 L530.71,499.75 L533.08,497.48 L535.44,503.15 L537.80,488.41 L540.16,499.75 L542.53,512.22 L544.89,505.99 L547.25,505.42 L549.62,513.36 L551.98,515.65 L554.34,517.92 L556.70,539.46 L559.07,537.19 L561.43,544.89 L563.79,548.86 L566.15,557.93 L568.52,558.25 L570.88,559.38 L573.24,518.56 L575.60,511.76 L577.97,509.73 L580.33,506.89 L582.69,501.79 L585.05,493.52 L587.42,491.25 L589.78,506.55 L592.14,505.42 L594.51,503.72 L596.87,498.05 L599.23,478.78 L601.59,486.15 L603.96,496.36 L606.32,500.89 L608.68,511.10 L611.04,515.63 L613.41,526.40 L615.77,533.77 L618.13,532.07 L620.49,526.40 L622.86,524.13 L625.22,520.73 L627.58,521.86 L629.95,521.86 L632.31,529.80 L634.67,532.07 L637.03,529.80 L639.40,534.33 L641.76,550.21 L644.12,560.41 L646.48,537.74 L667.75,528.10 L670.11,524.13 L672.47,528.67 L674.84,517.89 L677.20,490.11 L679.56,453.83 L681.92,481.04 L684.29,492.95 L686.65,487.85 L689.01,481.61 L691.37,478.21 L693.74,477.07 L696.10,491.25 L698.46,482.74 L700.82,478.77 L703.19,475.94 L705.55,479.34 L707.91,478.21 L710.27,478.21 L712.64,487.28 L715.00,495.78 L717.36,492.38 L719.73,491.25 L722.09,503.72 L724.45,503.15 L726.81,504.85 L729.18,510.52 L731.54,488.41 L733.90,487.28 L736.26,487.85 L738.63,486.14 L740.99,521.30 L743.35,542.84 L745.71,553.61 L748.08,590.46 L750.44,605.77 L752.80,627.88 L755.16,635.25 L757.53,617.67 L759.89,608.04 L762.25,597.83 L764.62,573.45 L766.98,563.25 L769.34,554.18 L771.70,525.26 L774.07,513.92 L776.43,513.92 L778.79,496.92 L781.15,502.59 L783.52,486.14 L785.88,478.21 L788.24,485.58 L790.60,485.01 L792.97,485.58 L795.33,474.81 L797.69,472.54 L800.05,488.98 L802.42,491.25 L804.78,498.05 L807.14,502.02 L809.51,512.22 L811.87,553.04 L814.23,528.67 L816.59,505.99 L818.96,490.68 L821.32,473.67 L823.68,481.61 L826.04,471.40 L828.41,427.75 L830.77,454.40 L833.13,480.48 L835.49,508.26 L837.86,524.70 L840.22,527.53 L842.58,531.50 L844.95,564.38 L847.31,572.89 L849.67,576.29 L852.03,574.02 L854.40,581.96 L856.76,581.39 L859.12,578.56 L861.48,564.38 L863.85,549.08 L866.21,533.20 L868.57,530.37 L870.93,516.19 L873.30,500.89 L875.66,496.92 L878.02,517.89 L880.38,540.00 L882.75,525.26 L885.11,508.82 L887.47,510.52 L889.84,512.22 L892.20,513.92 L894.56,502.59 L896.92,464.03 L899.29,469.70 L901.65,476.51 L904.01,486.14 L906.37,477.07 L908.74,481.61 L911.10,494.65 L913.46,524.13 L915.82,541.14 L918.19,551.91 L920.55,518.46 L922.91,521.86 L925.27,505.99 L927.64,468.00 L930.00,461.77 L930.00,656.00 Z" fill="#60a5fa" fill-opacity="0.16" stroke="none" />
<path d="M70.00,496.35 L72.36,482.46 L74.73,488.41 L77.09,502.30 L79.45,519.37 L81.81,518.18 L84.18,518.46 L86.54,525.26 L88.90,538.30 L91.26,542.84 L93.63,517.89 L95.99,511.66 L98.35,513.36 L100.71,502.02 L103.08,489.55 L105.44,486.71 L107.80,481.04 L110.16,483.31 L112.53,464.60 L114.89,464.03 L117.25,478.77 L119.62,466.87 L121.98,469.70 L124.34,474.24 L126.70,494.08 L129.07,515.63 L131.43,512.79 L133.79,511.09 L136.15,538.87 L138.52,534.33 L140.88,518.46 L143.24,515.63 L145.60,506.55 L147.97,512.22 L150.33,520.73 L152.69,503.72 L155.05,519.59 L157.42,540.57 L159.78,535.47 L162.14,564.38 L164.51,558.15 L166.87,546.81 L169.23,584.23 L171.59,563.82 L173.96,536.60 L176.32,542.27 L178.68,523.00 L181.04,524.13 L183.41,517.33 L185.77,490.68 L188.13,504.29 L190.49,534.33 L192.86,533.20 L195.22,528.10 L197.58,530.93 L199.95,540.00 L202.31,528.22 L204.67,522.55 L207.03,516.88 L209.40,523.68 L211.76,524.81 L214.12,514.04 L216.48,518.01 L218.85,523.58 L221.21,521.32 L223.57,516.21 L225.93,506.84 L228.30,493.80 L230.66,509.67 L233.02,501.74 L235.38,498.31 L237.75,501.15 L240.11,501.15 L242.47,493.52 L244.84,498.34 L247.20,488.70 L249.56,484.73 L251.92,509.68 L254.29,519.32 L256.65,523.99 L259.01,532.63 L261.37,551.05 L263.74,558.57 L266.10,586.01 L268.46,585.45 L270.82,581.48 L273.19,586.44 L275.55,583.11 L277.91,563.31 L280.27,555.04 L282.64,534.40 L285.00,506.79 L287.36,500.55 L289.73,478.96 L292.09,485.12 L294.45,482.70 L296.81,493.66 L299.18,502.17 L301.54,509.93 L303.90,500.81 L306.26,506.83 L308.63,502.53 L310.99,506.61 L313.35,500.38 L315.71,503.21 L318.08,484.50 L320.44,478.32 L322.80,484.43 L325.16,487.56 L327.53,493.50 L329.89,483.73 L332.25,480.89 L334.62,509.81 L336.98,508.11 L339.34,499.99 L341.70,494.41 L344.07,488.91 L346.43,490.18 L348.79,480.54 L351.15,476.56 L353.52,490.71 L355.88,507.72 L358.24,512.79 L360.60,518.64 L362.97,523.74 L365.33,529.61 L367.69,531.33 L370.05,537.01 L372.42,524.54 L374.78,536.29 L377.14,518.66 L379.51,524.32 L381.87,529.23 L384.23,528.10 L386.59,504.92 L388.96,512.85 L391.32,507.18 L393.68,518.90 L396.04,521.17 L398.41,527.98 L400.77,521.17 L403.13,533.02 L405.49,528.48 L407.86,509.34 L410.22,516.00 L412.58,514.86 L414.95,508.63 L417.31,517.13 L419.67,502.39 L422.03,499.56 L424.40,519.04 L426.76,511.99 L429.12,510.29 L431.48,504.62 L433.85,518.23 L436.21,542.61 L438.57,541.48 L440.93,549.08 L443.30,554.18 L445.66,544.54 L448.02,536.60 L450.38,521.30 L452.75,501.31 L455.11,513.79 L457.47,506.42 L459.84,509.25 L462.20,522.86 L464.56,528.53 L466.92,521.16 L469.29,535.47 L471.65,528.10 L474.01,525.23 L476.37,514.54 L478.74,497.53 L481.10,502.07 L483.46,515.11 L485.82,525.31 L488.19,521.34 L490.55,527.05 L492.91,530.93 L495.27,532.63 L497.64,526.96 L500.00,510.72 L502.36,493.71 L504.73,480.67 L507.09,471.80 L509.45,477.35 L511.81,486.42 L514.18,464.88 L516.54,473.19 L518.90,474.32 L521.26,500.97 L523.63,491.70 L525.99,481.61 L528.35,479.34 L530.71,499.75 L533.08,497.48 L535.44,503.15 L537.80,488.41 L540.16,499.75 L542.53,512.22 L544.89,505.99 L547.25,505.42 L549.62,513.36 L551.98,515.65 L554.34,517.92 L556.70,539.46 L559.07,537.19 L561.43,544.89 L563.79,548.86 L566.15,557.93 L568.52,558.25 L570.88,559.38 L573.24,518.56 L575.60,511.76 L577.97,509.73 L580.33,506.89 L582.69,501.79 L585.05,493.52 L587.42,491.25 L589.78,506.55 L592.14,505.42 L594.51,503.72 L596.87,498.05 L599.23,478.78 L601.59,486.15 L603.96,496.36 L606.32,500.89 L608.68,511.10 L611.04,515.63 L613.41,526.40 L615.77,533.77 L618.13,532.07 L620.49,526.40 L622.86,524.13 L625.22,520.73 L627.58,521.86 L629.95,521.86 L632.31,529.80 L634.67,532.07 L637.03,529.80 L639.40,534.33 L641.76,550.21 L644.12,560.41 L646.48,537.74 L667.75,528.10 L670.11,524.13 L672.47,528.67 L674.84,517.89 L677.20,490.11 L679.56,453.83 L681.92,481.04 L684.29,492.95 L686.65,487.85 L689.01,481.61 L691.37,478.21 L693.74,477.07 L696.10,491.25 L698.46,482.74 L700.82,478.77 L703.19,475.94 L705.55,479.34 L707.91,478.21 L710.27,478.21 L712.64,487.28 L715.00,495.78 L717.36,492.38 L719.73,491.25 L722.09,503.72 L724.45,503.15 L726.81,504.85 L729.18,510.52 L731.54,488.41 L733.90,487.28 L736.26,487.85 L738.63,486.14 L740.99,521.30 L743.35,542.84 L745.71,553.61 L748.08,590.46 L750.44,605.77 L752.80,627.88 L755.16,635.25 L757.53,617.67 L759.89,608.04 L762.25,597.83 L764.62,573.45 L766.98,563.25 L769.34,554.18 L771.70,525.26 L774.07,513.92 L776.43,513.92 L778.79,496.92 L781.15,502.59 L783.52,486.14 L785.88,478.21 L788.24,485.58 L790.60,485.01 L792.97,485.58 L795.33,474.81 L797.69,472.54 L800.05,488.98 L802.42,491.25 L804.78,498.05 L807.14,502.02 L809.51,512.22 L811.87,553.04 L814.23,528.67 L816.59,505.99 L818.96,490.68 L821.32,473.67 L823.68,481.61 L826.04,471.40 L828.41,427.75 L830.77,454.40 L833.13,480.48 L835.49,508.26 L837.86,524.70 L840.22,527.53 L842.58,531.50 L844.95,564.38 L847.31,572.89 L849.67,576.29 L852.03,574.02 L854.40,581.96 L856.76,581.39 L859.12,578.56 L861.48,564.38 L863.85,549.08 L866.21,533.20 L868.57,530.37 L870.93,516.19 L873.30,500.89 L875.66,496.92 L878.02,517.89 L880.38,540.00 L882.75,525.26 L885.11,508.82 L887.47,510.52 L889.84,512.22 L892.20,513.92 L894.56,502.59 L896.92,464.03 L899.29,469.70 L901.65,476.51 L904.01,486.14 L906.37,477.07 L908.74,481.61 L911.10,494.65 L913.46,524.13 L915.82,541.14 L918.19,551.91 L920.55,518.46 L922.91,521.86 L925.27,505.99 L927.64,468.00 L930.00,461.77" fill="none" stroke="#60a5fa" stroke-width="2.2" stroke-linecap="round" />
</svg>
