<svg xmlns="http://www.w3.org/2000/svg" viewBox="0 0 960 720" width="960" height="720">
<rect width="960" height="720" fill="#0f172a" />
<text x="480" y="28" fill="#e2e8f0" font-size="16" font-weight="700" text-anchor="middle">心率均值趋势图</text>
<text x="70" y="70" fill="#e2e8f0" font-size="13" font-weight="600">本月分天指标明细</text>
<line x1="70" y1="323.00" x2="930" y2="323.00" stroke="#94a3b8" stroke-opacity="0.18" stroke-width="1" />
<text x="62" y="327.00" fill="#cbd5f5" font-size="10" text-anchor="end">54.1</text>
<line x1="70" y1="260.75" x2="930" y2="260.75" stroke="#94a3b8" stroke-opacity="0.18" stroke-width="1" />
<text x="62" y="264.75" fill="#cbd5f5" font-size="10" text-anchor="end">69.5</text>
<line x1="70" y1="198.50" x2="930" y2="198.50" stroke="#94a3b8" stroke-opacity="0.18" stroke-width="1" />
<text x="62" y="202.50" fill="#cbd5f5" font-size="10" text-anchor="end">84.9</text>
<line x1="70" y1="136.25" x2="930" y2="136.25" stroke="#94a3b8" stroke-opacity="0.18" stroke-width="1" />
<text x="62" y="140.25" fill="#cbd5f5" font-size="10" text-anchor="end">100.4</text>
<line x1="70" y1="74.00" x2="930" y2="74.00" stroke="#94a3b8" stroke-opacity="0.18" stroke-width="1" />
<text x="62" y="78.00" fill="#cbd5f5" font-size="10" text-anchor="end">115.8</text>
<line x1="70.00" y1="323" x2="70.00" y2="327" stroke="#94a3b8" stroke-opacity="0.5" stroke-width="1" />
<text x="70.00" y="341" fill="#cbd5f5" font-size="10" text-anchor="middle">11-22</text>
<line x1="242.00" y1="323" x2="242.00" y2="327" stroke="#94a3b8" stroke-opacity="0.5" stroke-width="1" />
<text x="242.00" y="341" fill="#cbd5f5" font-size="10" text-anchor="middle">11-27</text>
<line x1="414.00" y1="323" x2="414.00" y2="327" stroke="#94a3b8" stroke-opacity="0.5" stroke-width="1" />
<text x="414.00" y="341" fill="#cbd5f5" font-size="10" text-anchor="middle">12-03</text>
<line x1="586.00" y1="323" x2="586.00" y2="327" stroke="#94a3b8" stroke-opacity="0.5" stroke-width="1" />
<text x="586.00" y="341" fill="#cbd5f5" font-size="10" text-anchor="middle">12-09</text>
<line x1="758.00" y1="323" x2="758.00" y2="327" stroke="#94a3b8" stroke-opacity="0.5" stroke-width="1" />
<text x="758.00" y="341" fill="#cbd5f5" font-size="10" text-anchor="middle">12-15</text>
<line x1="930.00" y1="323" x2="930.00" y2="327" stroke="#94a3b8" stroke-opacity="0.5" stroke-width="1" />
<text x="930.00" y="341" fill="#cbd5f5" font-size="10" text-anchor="middle">12-21</text>
<line x1="70" y1="74" x2="70" y2="323" stroke="#94a3b8" stroke-width="1" />
<line x1="70" y1="323" x2="930" y2="323" stroke="#94a3b8" stroke-width="1" />
<path d="M70.00,134.43 L99.66,195.69 L129.31,231.13 L158.97,201.46 L188.62,195.54 L218.28,125.35 L247.93,243.66 L277.59,293.49 L307.24,302.25 L336.90,232.02 L366.55,178.88 L396.21,165.30 L425.86,181.50 L455.52,232.74 L485.17,200.81 L514.83,114.42 L544.48,141.29 L574.14,188.82 L603.79,208.60 L633.45,152.61 L663.10,222.35 L692.76,262.59 L722.41,222.74 L752.07,204.64 L781.72,201.49 L811.38,94.75 L841.03,124.80 L870.69,128.82 L900.34,96.53 L930.00,190.62" fill="none" stroke="#60a5fa" stroke-width="2.2" stroke-linecap="round" />
<circle cx="70.00" cy="134.43" r="3" fill="#60a5fa" stroke="#0f172a" stroke-width="1" />
<text x="70.00" y="124.43" fill="#e2e8f0" font-size="9" text-anchor="middle">100.8</text>
<circle cx="99.66" cy="195.69" r="3" fill="#60a5fa" stroke="#0f172a" stroke-width="1" />
<text x="99.66" y="175.69" fill="#e2e8f0" font-size="9" text-anchor="middle">85.6</text>
<circle cx="129.31" cy="231.13" r="3" fill="#60a5fa" stroke="#0f172a" stroke-width="1" />
<text x="129.31" y="221.13" fill="#e2e8f0" font-size="9" text-anchor="middle">76.8</text>
<circle cx="158.97" cy="201.46" r="3" fill="#60a5fa" stroke="#0f172a" stroke-width="1" />
<text x="158.97" y="181.46" fill="#e2e8f0" font-size="9" text-anchor="middle">84.2</text>
<circle cx="188.62" cy="195.54" r="3" fill="#60a5fa" stroke="#0f172a" stroke-width="1" />
<text x="188.62" y="185.54" fill="#e2e8f0" font-size="9" text-anchor="middle">85.7</text>
<circle cx="218.28" cy="125.35" r="3" fill="#60a5fa" stroke="#0f172a" stroke-width="1" />
<text x="218.28" y="105.35" fill="#e2e8f0" font-size="9" text-anchor="middle">103.1</text>
<circle cx="247.93" cy="243.66" r="3" fill="#60a5fa" stroke="#0f172a" stroke-width="1" />
<text x="247.93" y="233.66" fill="#e2e8f0" font-size="9" text-anchor="middle">73.7</text>
<circle cx="277.59" cy="293.49" r="3" fill="#60a5fa" stroke="#0f172a" stroke-width="1" />
<text x="277.59" y="273.49" fill="#e2e8f0" font-size="9" text-anchor="middle">61.4</text>
<circle cx="307.24" cy="302.25" r="3" fill="#60a5fa" stroke="#0f172a" stroke-width="1" />
<text x="307.24" y="292.25" fill="#e2e8f0" font-size="9" text-anchor="middle">59.2</text>
<circle cx="336.90" cy="232.02" r="3" fill="#60a5fa" stroke="#0f172a" stroke-width="1" />
<text x="336.90" y="212.02" fill="#e2e8f0" font-size="9" text-anchor="middle">76.6</text>
<circle cx="366.55" cy="178.88" r="3" fill="#60a5fa" stroke="#0f172a" stroke-width="1" />
<text x="366.55" y="168.88" fill="#e2e8f0" font-size="9" text-anchor="middle">89.8</text>
<circle cx="396.21" cy="165.30" r="3" fill="#60a5fa" stroke="#0f172a" stroke-width="1" />
<text x="396.21" y="145.30" fill="#e2e8f0" font-size="9" text-anchor="middle">93.2</text>
<circle cx="425.86" cy="181.50" r="3" fill="#60a5fa" stroke="#0f172a" stroke-width="1" />
<text x="425.86" y="171.50" fill="#e2e8f0" font-size="9" text-anchor="middle">89.2</text>
<circle cx="455.52" cy="232.74" r="3" fill="#60a5fa" stroke="#0f172a" stroke-width="1" />
<text x="455.52" y="212.74" fill="#e2e8f0" font-size="9" text-anchor="middle">76.4</text>
<circle cx="485.17" cy="200.81" r="3" fill="#60a5fa" stroke="#0f172a" stroke-width="1" />
<text x="485.17" y="190.81" fill="#e2e8f0" font-size="9" text-anchor="middle">84.4</text>
<circle cx="514.83" cy="114.42" r="3" fill="#60a5fa" stroke="#0f172a" stroke-width="1" />
<text x="514.83" y="94.42" fill="#e2e8f0" font-size="9" text-anchor="middle">105.8</text>
<circle cx="544.48" cy="141.29" r="3" fill="#60a5fa" stroke="#0f172a" stroke-width="1" />
<text x="544.48" y="131.29" fill="#e2e8f0" font-size="9" text-anchor="middle">99.1</text>
<circle cx="574.14" cy="188.82" r="3" fill="#60a5fa" stroke="#0f172a" stroke-width="1" />
<text x="574.14" y="168.82" fill="#e2e8f0" font-size="9" text-anchor="middle">87.3</text>
<circle cx="603.79" cy="208.60" r="3" fill="#60a5fa" stroke="#0f172a" stroke-width="1" />
<text x="603.79" y="198.60" fill="#e2e8f0" font-size="9" text-anchor="middle">82.4</text>
<circle cx="633.45" cy="152.61" r="3" fill="#60a5fa" stroke="#0f172a" stroke-width="1" />
<text x="633.45" y="132.61" fill="#e2e8f0" font-size="9" text-anchor="middle">96.3</text>
<circle cx="663.10" cy="222.35" r="3" fill="#60a5fa" stroke="#0f172a" stroke-width="1" />
<text x="663.10" y="212.35" fill="#e2e8f0" font-size="9" text-anchor="middle">79</text>
<circle cx="692.76" cy="262.59" r="3" fill="#60a5fa" stroke="#0f172a" stroke-width="1" />
<text x="692.76" y="242.59" fill="#e2e8f0" font-size="9" text-anchor="middle">69</text>
<circle cx="722.41" cy="222.74" r="3" fill="#60a5fa" stroke="#0f172a" stroke-width="1" />
<text x="722.41" y="212.74" fill="#e2e8f0" font-size="9" text-anchor="middle">78.9</text>
<circle cx="752.07" cy="204.64" r="3" fill="#60a5fa" stroke="#0f172a" stroke-width="1" />
<text x="752.07" y="184.64" fill="#e2e8f0" font-size="9" text-anchor="middle">83.4</text>
<circle cx="781.72" cy="201.49" r="3" fill="#60a5fa" stroke="#0f172a" stroke-width="1" />
<text x="781.72" y="191.49" fill="#e2e8f0" font-size="9" text-anchor="middle">84.2</text>
<circle cx="811.38" cy="94.75" r="3" fill="#60a5fa" stroke="#0f172a" stroke-width="1" />
<text x="811.38" y="108.75" fill="#e2e8f0" font-size="9" text-anchor="middle">110.7</text>
<circle cx="841.03" cy="124.80" r="3" fill="#60a5fa" stroke="#0f172a" stroke-width="1" />
<text x="841.03" y="114.80" fill="#e2e8f0" font-size="9" text-anchor="middle">103.2</text>
<circle cx="870.69" cy="128.82" r="3" fill="#60a5fa" stroke="#0f172a" stroke-width="1" />
<text x="870.69" y="108.82" fill="#e2e8f0" font-size="9" text-anchor="middle">102.2</text>
<circle cx="900.34" cy="96.53" r="3" fill="#60a5fa" stroke="#0f172a" stroke-width="1" />
<text x="900.34" y="86.53" fill="#e2e8f0" font-size="9" text-anchor="middle">110.2</text>
<circle cx="930.00" cy="190.62" r="3" fill="#60a5fa" stroke="#0f172a" stroke-width="1" />
<text x="930.00" y="170.62" fill="#e2e8f0" font-size="9" text-anchor="middle">86.9</text>
<text x="70" y="403" fill="#e2e8f0" font-size="13" font-weight="600">本年核心指标趋势（滑动7日窗口平均）</text>
<line x1="70" y1="656.00" x2="930" y2="656.00" stroke="#94a3b8" stroke-opacity="0.18" stroke-width="1" />
<text x="62" y="660.00" fill="#cbd5f5" font-size="10" text-anchor="end">67.9</text>
<line x1="70" y1="593.75" x2="930" y2="593.75" stroke="#94a3b8" stroke-opacity="0.18" stroke-width="1" />
<text x="62" y="597.75" fill="#cbd5f5" font-size="10" text-anchor="end">76.9</text>
<line x1="70" y1="531.50" x2="930" y2="531.50" stroke="#94a3b8" stroke-opacity="0.18" stroke-width="1" />
<text x="62" y="535.50" fill="#cbd5f5" font-size="10" text-anchor="end">85.9</text>
<line x1="70" y1="469.25" x2="930" y2="469.25" stroke="#94a3b8" stroke-opacity="0.18" stroke-width="1" />
<text x="62" y="473.25" fill="#cbd5f5" font-size="10" text-anchor="end">94.9</text>
<line x1="70" y1="407.00" x2="930" y2="407.00" stroke="#94a3b8" stroke-opacity="0.18" stroke-width="1" />
<text x="62" y="411.00" fill="#cbd5f5" font-size="10" text-anchor="end">103.9</text>
<line x1="70.00" y1="656" x2="70.00" y2="660" stroke="#94a3b8" stroke-opacity="0.5" stroke-width="1" />
<text x="70.00" y="674" fill="#cbd5f5" font-size="10" text-anchor="middle">2024-12</text>
<line x1="242.00" y1="656" x2="242.00" y2="660" stroke="#94a3b8" stroke-opacity="0.5" stroke-width="1" />
<text x="242.00" y="674" fill="#cbd5f5" font-size="10" text-anchor="middle">2025-03</text>
<line x1="414.00" y1="656" x2="414.00" y2="660" stroke="#94a3b8" stroke-opacity="0.5" stroke-width="1" />
<text x="414.00" y="674" fill="#cbd5f5" font-size="10" text-anchor="middle">2025-05</text>
<line x1="586.00" y1="656" x2="586.00" y2="660" stroke="#94a3b8" stroke-opacity="0.5" stroke-width="1" />
<text x="586.00" y="674" fill="#cbd5f5" font-size="10" text-anchor="middle">2025-07</text>
<line x1="758.00" y1="656" x2="758.00" y2="660" stroke="#94a3b8" stroke-opacity="0.5" stroke-width="1" />
<text x="758.00" y="674" fill="#cbd5f5" font-size="10" text-anchor="middle">2025-10</text>
<line x1="930.00" y1="656" x2="930.00" y2="660" stroke="#94a3b8" stroke-opacity="0.5" stroke-width="1" />
<text x="930.00" y="674" fill="#cbd5f5" font-size="10" text-anchor="middle">2025-12</text>
<line x1="70" y1="407" x2="70" y2="656" stroke="#94a3b8" stroke-width="1" />
<line x1="70" y1="656" x2="930" y2="656" stroke="#94a3b8" stroke-width="1" />
<path d="M70.00,656.00 L70.00,533.29 L72.36,532.00 L74.73,526.01 L77.09,528.95 L79.45,542.07 L81.81,541.59 L84.18,528.92 L86.54,521.31 L88.90,526.41 L91.26,527.35 L93.63,513.44 L95.99,506.77 L98.35,507.24 L100.71,514.74 L103.08,522.44 L105.44,521.58 L107.80,524.72 L110.16,531.58 L112.53,526.31 L114.89,527.32 L117.25,531.17 L119.62,532.11 L121.98,531.04 L124.34,531.90 L126.70,535.81 L129.07,543.99 L131.43,539.07 L133.79,543.64 L136.15,544.13 L138.52,538.97 L140.88,541.73 L143.24,543.07 L145.60,540.52 L147.97,544.45 L150.33,561.62 L152.69,571.53 L155.05,594.09 L157.42,602.23 L159.78,614.24 L162.14,630.41 L164.51,628.90 L166.87,610.62 L169.23,618.61 L171.59,593.39 L173.96,581.45 L176.32,577.42 L178.68,569.53 L181.04,570.87 L183.41,558.37 L185.77,544.19 L188.13,560.04 L190.49,573.96 L192.86,567.24 L195.22,564.66 L197.58,578.74 L199.95,597.92 L202.31,594.77 L204.67,592.52 L207.03,582.43 L209.40,587.08 L211.76,587.73 L214.12,580.05 L216.48,587.07 L218.85,588.76 L221.21,587.74 L223.57,588.17 L225.93,591.41 L228.30,589.78 L230.66,593.86 L233.02,586.80 L235.38,586.83 L237.75,586.63 L240.11,580.98 L242.47,582.92 L244.84,575.66 L247.20,566.87 L249.56,565.26 L251.92,587.86 L254.29,586.87 L256.65,592.46 L259.01,580.81 L261.37,586.20 L263.74,598.22 L266.10,609.41 L268.46,604.58 L270.82,615.65 L273.19,623.14 L275.55,628.64 L277.91,635.25 L280.27,628.72 L282.64,616.70 L285.00,589.04 L287.36,571.62 L289.73,564.17 L292.09,562.13 L294.45,546.00 L296.81,544.51 L299.18,554.30 L301.54,573.91 L303.90,578.22 L306.26,575.00 L308.63,575.14 L310.99,576.12 L313.35,573.15 L315.71,570.10 L318.08,564.87 L320.44,565.99 L322.80,566.53 L325.16,568.01 L327.53,573.18 L329.89,570.71 L332.25,565.32 L334.62,560.37 L336.98,558.72 L339.34,561.80 L341.70,556.78 L344.07,554.48 L346.43,555.17 L348.79,555.52 L351.15,563.20 L353.52,565.37 L355.88,565.44 L358.24,565.94 L360.60,567.96 L362.97,562.96 L365.33,553.18 L367.69,545.69 L370.05,543.21 L372.42,538.41 L374.78,549.35 L377.14,552.97 L379.51,556.82 L381.87,562.73 L384.23,565.60 L386.59,564.45 L388.96,574.36 L391.32,573.66 L393.68,572.17 L396.04,577.41 L398.41,586.81 L400.77,589.17 L403.13,588.27 L405.49,577.70 L407.86,568.12 L410.22,563.91 L412.58,563.23 L414.95,555.88 L417.31,554.90 L419.67,557.12 L422.03,553.37 L424.40,551.82 L426.76,552.09 L429.12,554.06 L431.48,557.47 L433.85,559.36 L436.21,554.20 L438.57,557.98 L440.93,562.16 L443.30,568.00 L445.66,559.95 L448.02,550.42 L450.38,538.76 L452.75,529.83 L455.11,526.23 L457.47,526.56 L459.84,524.41 L462.20,531.79 L464.56,535.04 L466.92,538.24 L469.29,553.16 L471.65,555.79 L474.01,550.54 L476.37,548.59 L478.74,541.78 L481.10,544.75 L483.46,552.50 L485.82,552.10 L488.19,553.81 L490.55,556.63 L492.91,551.45 L495.27,538.59 L497.64,538.33 L500.00,523.91 L502.36,519.80 L504.73,519.75 L507.09,520.69 L509.45,528.06 L511.81,543.78 L514.18,530.18 L516.54,534.07 L518.90,538.94 L521.26,540.57 L523.63,543.07 L525.99,537.09 L528.35,530.95 L530.71,538.61 L533.08,539.40 L535.44,535.01 L537.80,528.57 L540.16,523.08 L542.53,532.45 L544.89,539.26 L547.25,531.86 L549.62,533.92 L551.98,532.42 L554.34,540.33 L556.70,561.40 L559.07,557.01 L561.43,550.38 L563.79,557.07 L566.15,582.36 L568.52,588.86 L570.88,585.08 L573.24,573.43 L575.60,565.00 L577.97,562.62 L580.33,564.62 L582.69,543.36 L585.05,540.09 L587.42,541.65 L589.78,535.60 L592.14,537.10 L594.51,540.28 L596.87,538.12 L599.23,527.20 L601.59,537.02 L603.96,542.84 L606.32,540.67 L608.68,550.06 L611.04,551.93 L613.41,553.47 L615.77,558.27 L618.13,550.91 L620.49,546.75 L622.86,546.54 L625.22,543.53 L627.58,544.54 L629.95,541.38 L632.31,554.98 L634.67,552.26 L637.03,553.06 L639.40,566.95 L641.76,576.12 L644.12,592.71 L646.48,558.65 L667.75,541.24 L670.11,542.00 L672.47,531.72 L674.84,511.94 L677.20,482.39 L679.56,451.18 L681.92,497.85 L684.29,512.48 L686.65,503.67 L689.01,507.53 L691.37,497.27 L693.74,495.95 L696.10,487.08 L698.46,476.90 L700.82,467.34 L703.19,471.37 L705.55,478.38 L707.91,478.91 L710.27,494.89 L712.64,541.16 L715.00,543.44 L717.36,542.68 L719.73,527.93 L722.09,545.94 L724.45,548.21 L726.81,539.47 L729.18,519.82 L731.54,498.72 L733.90,497.52 L736.26,498.45 L738.63,489.64 L740.99,524.48 L743.35,544.32 L745.71,561.28 L748.08,602.58 L750.44,610.50 L752.80,625.47 L755.16,626.26 L757.53,619.74 L759.89,608.53 L762.25,594.09 L764.62,564.74 L766.98,561.16 L769.34,564.94 L771.70,535.81 L774.07,510.14 L776.43,518.01 L778.79,483.18 L781.15,490.96 L783.52,483.39 L785.88,473.32 L788.24,481.55 L790.60,485.49 L792.97,483.18 L795.33,474.01 L797.69,480.08 L800.05,488.88 L802.42,493.94 L804.78,500.97 L807.14,497.40 L809.51,501.52 L811.87,556.13 L814.23,515.66 L816.59,515.50 L818.96,503.74 L821.32,492.64 L823.68,510.21 L826.04,503.36 L828.41,427.75 L830.77,462.07 L833.13,464.97 L835.49,484.74 L837.86,493.55 L840.22,497.23 L842.58,501.00 L844.95,566.20 L847.31,575.93 L849.67,577.85 L852.03,575.74 L854.40,580.63 L856.76,580.49 L859.12,575.13 L861.48,553.68 L863.85,541.85 L866.21,541.83 L868.57,539.46 L870.93,535.67 L873.30,508.70 L875.66,522.80 L878.02,561.79 L880.38,587.91 L882.75,588.13 L885.11,582.60 L887.47,575.19 L889.84,588.95 L892.20,586.27 L894.56,563.55 L896.92,517.51 L899.29,495.26 L901.65,497.70 L904.01,508.31 L906.37,501.23 L908.74,498.68 L911.10,513.83 L913.46,540.38 L915.82,555.92 L918.19,559.02 L920.55,531.11 L922.91,524.30 L925.27,501.37 L927.64,460.66 L930.00,452.78 L930.00,656.00 Z" fill="#60a5fa" fill-opacity="0.16" stroke="none" />
<path d="M70.00,533.29 L72.36,532.00 L74.73,526.01 L77.09,528.95 L79.45,542.07 L81.81,541.59 L84.18,528.92 L86.54,521.31 L88.90,526.41 L91.26,527.35 L93.63,513.44 L95.99,506.77 L98.35,507.24 L100.71,514.74 L103.08,522.44 L105.44,521.58 L107.80,524.72 L110.16,531.58 L112.53,526.31 L114.89,527.32 L117.25,531.17 L119.62,532.11 L121.98,531.04 L124.34,531.90 L126.70,535.81 L129.07,543.99 L131.43,539.07 L133.79,543.64 L136.15,544.13 L138.52,538.97 L140.88,541.73 L143.24,543.07 L145.60,540.52 L147.97,544.45 L150.33,561.62 L152.69,571.53 L155.05,594.09 L157.42,602.23 L159.78,614.24 L162.14,630.41 L164.51,628.90 L166.87,610.62 L169.23,618.61 L171.59,593.39 L173.96,581.45 L176.32,577.42 L178.68,569.53 L181.04,570.87 L183.41,558.37 L185.77,544.19 L188.13,560.04 L190.49,573.96 L192.86,567.24 L195.22,564.66 L197.58,578.74 L199.95,597.92 L202.31,594.77 L204.67,592.52 L207.03,582.43 L209.40,587.08 L211.76,587.73 L214.12,580.05 L216.48,587.07 L218.85,588.76 L221.21,587.74 L223.57,588.17 L225.93,591.41 L228.30,589.78 L230.66,593.86 L233.02,586.80 L235.38,586.83 L237.75,586.63 L240.11,580.98 L242.47,582.92 L244.84,575.66 L247.20,566.87 L249.56,565.26 L251.92,587.86 L254.29,586.87 L256.65,592.46 L259.01,580.81 L261.37,586.20 L263.74,598.22 L266.10,609.41 L268.46,604.58 L270.82,615.65 L273.19,623.14 L275.55,628.64 L277.91,635.25 L280.27,628.72 L282.64,616.70 L285.00,589.04 L287.36,571.62 L289.73,564.17 L292.09,562.13 L294.45,546.00 L296.81,544.51 L299.18,554.30 L301.54,573.91 L303.90,578.22 L306.26,575.00 L308.63,575.14 L310.99,576.12 L313.35,573.15 L315.71,570.10 L318.08,564.87 L320.44,565.99 L322.80,566.53 L325.16,568.01 L327.53,573.18 L329.89,570.71 L332.25,565.32 L334.62,560.37 L336.98,558.72 L339.34,561.80 L341.70,556.78 L344.07,554.48 L346.43,555.17 L348.79,555.52 L351.15,563.20 L353.52,565.37 L355.88,565.44 L358.24,565.94 L360.60,567.96 L362.97,562.96 L365.33,553.18 L367.69,545.69 L370.05,543.21 L372.42,538.41 L374.78,549.35 L377.14,552.97 L379.51,556.82 L381.87,562.73 L384.23,565.60 L386.59,564.45 L388.96,574.36 L391.32,573.66 L393.68,572.17 L396.04,577.41 L398.41,586.81 L400.77,589.17 L403.13,588.27 L405.49,577.70 L407.86,568.12 L410.22,563.91 L412.58,563.23 L414.95,555.88 L417.31,554.90 L419.67,557.12 L422.03,553.37 L424.40,551.82 L426.76,552.09 L429.12,554.06 L431.48,557.47 L433.85,559.36 L436.21,554.20 L438.57,557.98 L440.93,562.16 L443.30,568.00 L445.66,559.95 L448.02,550.42 L450.38,538.76 L452.75,529.83 L455.11,526.23 L457.47,526.56 L459.84,524.41 L462.20,531.79 L464.56,535.04 L466.92,538.24 L469.29,553.16 L471.65,555.79 L474.01,550.54 L476.37,548.59 L478.74,541.78 L481.10,544.75 L483.46,552.50 L485.82,552.10 L488.19,553.81 L490.55,556.63 L492.91,551.45 L495.27,538.59 L497.64,538.33 L500.00,523.91 L502.36,519.80 L504.73,519.75 L507.09,520.69 L509.45,528.06 L511.81,543.78 L514.18,530.18 L516.54,534.07 L518.90,538.94 L521.26,540.57 L523.63,543.07 L525.99,537.09 L528.35,530.95 L530.71,538.61 L533.08,539.40 L535.44,535.01 L537.80,528.57 L540.16,523.08 L542.53,532.45 L544.89,539.26 L547.25,531.86 L549.62,533.92 L551.98,532.42 L554.34,540.33 L556.70,561.40 L559.07,557.01 L561.43,550.38 L563.79,557.07 L566.15,582.36 L568.52,588.86 L570.88,585.08 L573.24,573.43 L575.60,565.00 L577.97,562.62 L580.33,564.62 L582.69,543.36 L585.05,540.09 L587.42,541.65 L589.78,535.60 L592.14,537.10 L594.51,540.28 L596.87,538.12 L599.23,527.20 L601.59,537.02 L603.96,542.84 L606.32,540.67 L608.68,550.06 L611.04,551.93 L613.41,553.47 L615.77,558.27 L618.13,550.91 L620.49,546.75 L622.86,546.54 L625.22,543.53 L627.58,544.54 L629.95,541.38 L632.31,554.98 L634.67,552.26 L637.03,553.06 L639.40,566.95 L641.76,576.12 L644.12,592.71 L646.48,558.65 L667.75,541.24 L670.11,542.00 L672.47,531.72 L674.84,511.94 L677.20,482.39 L679.56,451.18 L681.92,497.85 L684.29,512.48 L686.65,503.67 L689.01,507.53 L691.37,497.27 L693.74,495.95 L696.10,487.08 L698.46,476.90 L700.82,467.34 L703.19,471.37 L705.55,478.38 L707.91,478.91 L710.27,494.89 L712.64,541.16 L715.00,543.44 L717.36,542.68 L719.73,527.93 L722.09,545.94 L724.45,548.21 L726.81,539.47 L729.18,519.82 L731.54,498.72 L733.90,497.52 L736.26,498.45 L738.63,489.64 L740.99,524.48 L743.35,544.32 L745.71,561.28 L748.08,602.58 L750.44,610.50 L752.80,625.47 L755.16,626.26 L757.53,619.74 L759.89,608.53 L762.25,594.09 L764.62,564.74 L766.98,561.16 L769.34,564.94 L771.70,535.81 L774.07,510.14 L776.43,518.01 L778.79,483.18 L781.15,490.96 L783.52,483.39 L785.88,473.32 L788.24,481.55 L790.60,485.49 L792.97,483.18 L795.33,474.01 L797.69,480.08 L800.05,488.88 L802.42,493.94 L804.78,500.97 L807.14,497.40 L809.51,501.52 L811.87,556.13 L814.23,515.66 L816.59,515.50 L818.96,503.74 L821.32,492.64 L823.68,510.21 L826.04,503.36 L828.41,427.75 L830.77,462.07 L833.13,464.97 L835.49,484.74 L837.86,493.55 L840.22,497.23 L842.58,501.00 L844.95,566.20 L847.31,575.93 L849.67,577.85 L852.03,575.74 L854.40,580.63 L856.76,580.49 L859.12,575.13 L861.48,553.68 L863.85,541.85 L866.21,541.83 L868.57,539.46 L870.93,535.67 L873.30,508.70 L875.66,522.80 L878.02,561.79 L880.38,587.91 L882.75,588.13 L885.11,582.60 L887.47,575.19 L889.84,588.95 L892.20,586.27 L894.56,563.55 L896.92,517.51 L899.29,495.26 L901.65,497.70 L904.01,508.31 L906.37,501.23 L908.74,498.68 L911.10,513.83 L913.46,540.38 L915.82,555.92 L918.19,559.02 L920.55,531.11 L922.91,524.30 L925.27,501.37 L927.64,460.66 L930.00,452.78" fill="none" stroke="#60a5fa" stroke-width="2.2" stroke-linecap="round" />
</svg>
