<svg xmlns="http://www.w3.org/2000/svg" viewBox="0 0 960 640" width="960" height="640">
  <rect width="960" height="640" fill="#0f172a" />
  <line x1="40" y1="40.00" x2="920.00" y2="40.00" stroke="#94a3b8" stroke-opacity="0.18" stroke-width="1" /><line x1="40" y1="128.00" x2="920.00" y2="128.00" stroke="#94a3b8" stroke-opacity="0.18" stroke-width="1" /><line x1="40" y1="216.00" x2="920.00" y2="216.00" stroke="#94a3b8" stroke-opacity="0.18" stroke-width="1" /><line x1="40" y1="304.00" x2="920.00" y2="304.00" stroke="#94a3b8" stroke-opacity="0.18" stroke-width="1" />
  <line x1="40" y1="336.00" x2="920.00" y2="336.00" stroke="#94a3b8" stroke-opacity="0.18" stroke-width="1" /><line x1="40" y1="424.00" x2="920.00" y2="424.00" stroke="#94a3b8" stroke-opacity="0.18" stroke-width="1" /><line x1="40" y1="512.00" x2="920.00" y2="512.00" stroke="#94a3b8" stroke-opacity="0.18" stroke-width="1" /><line x1="40" y1="600.00" x2="920.00" y2="600.00" stroke="#94a3b8" stroke-opacity="0.18" stroke-width="1" />
  <line x1="40" y1="320.00" x2="920.00" y2="320.00" stroke="#1f2937" stroke-width="1" />
  <polyline points="40.00,187.90 70.34,218.93 100.69,156.29 131.03,90.48 161.38,168.43 191.72,213.51 222.07,175.76 252.41,168.23 282.76,78.93 313.10,229.46 343.45,292.86 373.79,304.00 404.14,214.65 434.48,147.04 464.83,129.76 495.17,150.37 525.52,215.57 555.86,174.94 586.21,65.03 616.55,99.21 646.90,159.68 677.24,184.85 707.59,113.61 737.93,202.35 768.28,253.54 798.62,202.85 828.97,179.81 859.31,175.81 889.66,40.00 920.00,74.43" fill="none" stroke="#60a5fa" stroke-width="2" stroke-linecap="round" stroke-linejoin="round" />
  <polyline points="40.00,442.17 42.47,439.78 44.94,451.50 47.42,452.03 49.89,457.02 52.36,458.30 54.83,455.11 57.30,466.79 59.78,474.23 62.25,464.72 64.72,455.03 67.19,461.52 69.66,462.72 72.13,445.02 74.61,436.54 77.08,437.14 79.55,446.68 82.02,456.47 84.49,455.37 86.97,459.38 89.44,468.10 91.91,461.40 94.38,462.68 96.85,467.59 99.33,468.77 101.80,467.42 104.27,468.51 106.74,473.48 109.21,483.90 111.69,477.63 114.16,483.45 116.63,484.07 119.10,477.51 121.57,481.01 124.04,482.72 126.52,479.48 128.99,484.47 131.46,506.33 133.93,518.93 136.40,547.63 138.88,557.99 141.35,573.27 143.82,593.84 146.29,591.92 148.76,568.66 151.24,578.84 153.71,546.74 156.18,531.56 158.65,526.43 161.12,516.38 163.60,518.09 166.07,502.18 168.54,484.14 171.01,504.31 173.48,522.02 175.96,513.48 178.43,510.18 180.90,528.10 183.37,552.51 185.84,548.49 188.31,545.64 190.79,532.80 193.26,538.71 195.73,539.54 198.20,529.77 200.67,538.71 203.15,540.85 205.62,539.56 208.09,540.10 210.56,544.22 213.03,542.15 215.51,547.34 217.98,538.35 220.45,538.40 222.92,538.14 225.39,530.95 227.87,533.42 230.34,524.18 232.81,513.00 235.28,510.95 237.75,539.70 240.22,538.44 242.70,545.55 245.17,530.74 247.64,537.60 250.11,552.89 252.58,567.13 255.06,560.98 257.53,575.07 260.00,584.59 262.47,591.60 264.94,600.00 267.42,591.69 269.89,576.39 272.36,541.20 274.83,519.04 277.30,509.56 279.78,506.97 282.25,486.44 284.72,484.55 287.19,497.01 289.66,521.96 292.13,527.45 294.61,523.34 297.08,523.52 299.55,524.77 302.02,520.99 304.49,517.11 306.97,510.45 309.44,511.88 311.91,512.57 314.38,514.45 316.85,521.03 319.33,517.89 321.80,511.03 324.27,504.73 326.74,502.63 329.21,506.55 331.69,500.16 334.16,497.23 336.63,498.11 339.10,498.56 341.57,508.33 344.04,511.10 346.52,511.18 348.99,511.82 351.46,514.39 353.93,508.02 356.40,495.59 358.88,486.05 361.35,482.90 363.82,476.79 366.29,490.71 368.76,495.31 371.24,500.21 373.71,507.74 376.18,511.39 378.65,509.92 381.12,522.54 383.60,521.63 386.07,519.75 388.54,526.41 391.01,538.37 393.48,541.38 395.96,540.22 398.43,526.78 400.90,514.59 403.37,509.24 405.84,508.37 408.31,499.02 410.79,497.78 413.26,500.60 415.73,495.82 418.20,493.85 420.67,494.20 423.15,496.70 425.62,501.04 428.09,503.44 430.56,496.88 433.03,501.69 435.51,507.01 437.98,514.43 440.45,504.19 442.92,492.07 445.39,477.23 447.87,465.88 450.34,461.30 452.81,461.71 455.28,458.98 457.75,468.36 460.22,472.51 462.70,476.58 465.17,495.56 467.64,498.90 470.11,492.22 472.58,489.74 475.06,481.07 477.53,484.86 480.00,494.72 482.47,494.21 484.94,496.39 487.42,499.97 489.89,493.38 492.36,477.01 494.83,476.69 497.30,458.34 499.78,453.12 502.25,453.06 504.72,454.24 507.19,463.62 509.66,483.62 512.13,466.32 514.61,471.27 517.08,477.47 519.55,479.53 522.02,482.73 524.49,475.11 526.97,467.30 529.44,477.05 531.91,478.05 534.38,472.47 536.85,464.27 539.33,457.28 541.80,469.21 544.27,477.87 546.74,468.46 549.21,471.08 551.69,469.17 554.16,479.24 556.63,506.04 559.10,500.45 561.57,492.02 564.04,500.53 566.52,532.71 568.99,540.98 571.46,536.16 573.93,521.34 576.40,510.62 578.88,507.59 581.35,510.14 583.82,483.09 586.29,478.92 588.76,480.91 591.24,473.22 593.71,475.13 596.18,479.18 598.65,476.42 601.12,462.53 603.60,475.03 606.07,482.43 608.54,479.67 611.01,491.62 613.48,493.99 615.96,495.96 618.43,502.06 620.90,492.70 623.37,487.40 625.84,487.13 628.31,483.30 630.79,484.59 633.26,480.57 635.73,497.88 638.20,494.42 640.67,495.43 643.15,513.11 645.62,524.77 648.09,545.88 650.56,502.54 653.03,480.39 655.51,481.36 657.98,468.28 660.45,443.11 662.92,405.52 665.39,365.82 667.87,425.19 670.34,443.80 672.81,432.59 675.28,437.50 677.75,424.45 680.22,422.77 682.70,411.49 685.17,398.53 687.64,386.37 690.11,391.50 692.58,400.42 695.06,401.09 697.53,421.42 700.00,480.29 702.47,483.19 704.94,482.22 707.42,463.45 709.89,486.37 712.36,489.25 714.83,478.14 717.30,453.14 719.78,426.29 722.25,424.77 724.72,425.95 727.19,414.74 729.66,459.07 732.13,484.31 734.61,505.88 737.08,558.43 739.55,568.51 742.02,587.55 744.49,588.57 746.97,580.26 749.44,566.01 751.91,547.63 754.38,510.30 756.85,505.74 759.33,510.55 761.80,473.49 764.27,440.83 766.74,450.83 769.21,406.53 771.69,416.43 774.16,406.79 776.63,393.98 779.10,404.45 781.57,409.46 784.04,406.52 786.52,394.86 788.99,402.58 791.46,413.77 793.93,420.22 796.40,429.15 798.88,424.62 801.35,429.86 803.82,499.34 806.29,447.85 808.76,447.64 811.24,432.68 813.71,418.56 816.18,440.91 818.65,432.20 821.12,336.00 823.60,379.66 826.07,383.35 828.54,408.51 831.01,419.71 833.48,424.40 835.96,429.19 838.43,512.15 840.90,524.52 843.37,526.97 845.84,524.28 848.31,530.51 850.79,530.33 853.26,523.51 855.73,496.23 858.20,481.17 860.67,481.14 863.15,478.13 865.62,473.31 868.09,438.99 870.56,456.93 873.03,506.54 875.51,539.78 877.98,540.05 880.45,533.01 882.92,523.58 885.39,541.09 887.87,537.69 890.34,508.78 892.81,450.20 895.28,421.90 897.75,425.00 900.22,438.50 902.70,429.49 905.17,426.25 907.64,445.52 910.11,479.30 912.58,499.06 915.06,503.02 917.53,467.51 920.00,457.90" fill="none" stroke="#60a5fa" stroke-width="2" stroke-linecap="round" stroke-linejoin="round" />
  
  
  </svg>