<svg xmlns="http://www.w3.org/2000/svg" viewBox="0 0 960 640" width="960" height="640">
  <rect width="960" height="640" fill="#0f172a" />
  <line x1="40" y1="40.00" x2="920.00" y2="40.00" stroke="#94a3b8" stroke-opacity="0.18" stroke-width="1" /><line x1="40" y1="128.00" x2="920.00" y2="128.00" stroke="#94a3b8" stroke-opacity="0.18" stroke-width="1" /><line x1="40" y1="216.00" x2="920.00" y2="216.00" stroke="#94a3b8" stroke-opacity="0.18" stroke-width="1" /><line x1="40" y1="304.00" x2="920.00" y2="304.00" stroke="#94a3b8" stroke-opacity="0.18" stroke-width="1" />
  <line x1="40" y1="336.00" x2="920.00" y2="336.00" stroke="#94a3b8" stroke-opacity="0.18" stroke-width="1" /><line x1="40" y1="424.00" x2="920.00" y2="424.00" stroke="#94a3b8" stroke-opacity="0.18" stroke-width="1" /><line x1="40" y1="512.00" x2="920.00" y2="512.00" stroke="#94a3b8" stroke-opacity="0.18" stroke-width="1" /><line x1="40" y1="600.00" x2="920.00" y2="600.00" stroke="#94a3b8" stroke-opacity="0.18" stroke-width="1" />
  <line x1="40" y1="320.00" x2="920.00" y2="320.00" stroke="#1f2937" stroke-width="1" />
  <polyline points="40.00,238.78 70.34,220.14 100.69,201.51 131.03,142.49 161.38,182.87 191.72,161.13 222.07,210.82 252.41,161.13 282.76,136.28 313.10,179.76 343.45,257.41 373.79,304.00 404.14,80.38 434.48,120.75 464.83,170.45 495.17,145.60 525.52,189.08 555.86,195.29 586.21,92.80 616.55,111.44 646.90,158.02 677.24,223.25 707.59,95.91 737.93,213.93 768.28,266.73 798.62,254.31 828.97,204.61 859.31,217.04 889.66,40.00 920.00,114.54" fill="none" stroke="#60a5fa" stroke-width="2" stroke-linecap="round" stroke-linejoin="round" />
  <polyline points="40.00,337.26 42.47,336.00 44.94,348.57 47.42,374.97 49.89,402.63 52.36,428.40 54.83,428.40 57.30,445.37 59.78,454.80 62.25,470.51 64.72,478.06 67.19,492.51 69.66,497.54 72.13,469.89 74.61,462.97 77.08,464.86 79.55,452.29 82.02,438.46 84.49,435.31 86.97,429.03 89.44,431.54 91.91,410.80 94.38,410.17 96.85,426.51 99.33,413.31 101.80,416.46 104.27,421.49 106.74,443.49 109.21,467.37 111.69,464.23 114.16,462.34 116.63,493.14 119.10,488.11 121.57,470.51 124.04,467.37 126.52,457.31 128.99,463.60 131.46,473.03 133.93,454.17 136.40,471.77 138.88,495.03 141.35,489.37 143.82,521.43 146.29,514.51 148.76,501.94 151.24,543.43 153.71,520.80 156.18,490.63 158.65,496.91 161.12,475.54 163.60,476.80 166.07,469.26 168.54,439.71 171.01,454.80 173.48,488.11 175.96,486.86 178.43,481.20 180.90,484.34 183.37,494.40 185.84,481.33 188.31,475.04 190.79,468.76 193.26,476.30 195.73,477.56 198.20,465.62 200.67,470.02 203.15,476.19 205.62,473.68 208.09,468.02 210.56,457.63 213.03,443.17 215.51,460.77 217.98,451.97 220.45,448.18 222.92,451.32 225.39,451.32 227.87,442.86 230.34,448.21 232.81,437.52 235.28,433.12 237.75,460.78 240.22,471.46 242.70,476.65 245.17,486.23 247.64,506.65 250.11,514.98 252.58,545.41 255.06,544.78 257.53,540.38 260.00,545.88 262.47,542.19 264.94,520.24 267.42,511.07 269.89,488.18 272.36,457.57 274.83,450.66 277.30,426.72 279.78,433.55 282.25,430.87 284.72,443.02 287.19,452.45 289.66,461.06 292.13,450.94 294.61,457.62 297.08,452.85 299.55,457.38 302.02,450.46 304.49,453.61 306.97,432.86 309.44,426.01 311.91,432.79 314.38,436.25 316.85,442.84 319.33,432.01 321.80,428.86 324.27,460.92 326.74,459.04 329.21,450.03 331.69,443.85 334.16,437.75 336.63,439.16 339.10,428.47 341.57,424.05 344.04,439.75 346.52,458.61 348.99,464.22 351.46,470.71 353.93,476.37 356.40,482.87 358.88,484.78 361.35,491.08 363.82,477.25 366.29,490.28 368.76,470.73 371.24,477.02 373.71,482.46 376.18,481.20 378.65,455.50 381.12,464.30 383.60,458.01 386.07,471.01 388.54,473.52 391.01,481.06 393.48,473.52 395.96,486.65 398.43,481.62 400.90,460.40 403.37,467.79 405.84,466.53 408.31,459.61 410.79,469.04 413.26,452.70 415.73,449.56 418.20,471.15 420.67,463.35 423.15,461.46 425.62,455.17 428.09,470.26 430.56,497.29 433.03,496.03 435.51,504.46 437.98,510.11 440.45,499.43 442.92,490.63 445.39,473.66 447.87,451.51 450.34,465.33 452.81,457.16 455.28,460.31 457.75,475.39 460.22,481.68 462.70,473.51 465.17,489.37 467.64,481.20 470.11,478.01 472.58,466.17 475.06,447.31 477.53,452.34 480.00,466.80 482.47,478.11 484.94,473.71 487.42,480.04 489.89,484.34 492.36,486.23 494.83,479.94 497.30,461.93 499.78,443.07 502.25,428.61 504.72,418.78 507.19,424.94 509.66,434.99 512.13,411.11 514.61,420.32 517.08,421.58 519.55,451.12 522.02,440.84 524.49,429.66 526.97,427.14 529.44,449.77 531.91,447.26 534.38,453.54 536.85,437.20 539.33,449.77 541.80,463.60 544.27,456.69 546.74,456.06 549.21,464.86 551.69,467.40 554.16,469.91 556.63,493.80 559.10,491.28 561.57,499.82 564.04,504.22 566.52,514.28 568.99,514.62 571.46,515.88 573.93,470.62 576.40,463.08 578.88,460.83 581.35,457.69 583.82,452.03 586.29,442.86 588.76,440.34 591.24,457.31 593.71,456.06 596.18,454.17 598.65,447.89 601.12,426.52 603.60,434.69 606.07,446.01 608.54,451.04 611.01,462.35 613.48,467.38 615.96,479.32 618.43,487.49 620.90,485.60 623.37,479.31 625.84,476.80 628.31,473.03 630.79,474.29 633.26,474.29 635.73,483.09 638.20,485.60 640.67,483.09 643.15,488.11 645.62,505.71 648.09,517.03 650.56,491.89 653.03,481.20 655.51,476.80 657.98,481.83 660.45,469.89 662.92,439.09 665.39,398.86 667.87,429.03 670.34,442.23 672.81,436.57 675.28,429.66 677.75,425.89 680.22,424.63 682.70,440.34 685.17,430.91 687.64,426.51 690.11,423.37 692.58,427.14 695.06,425.89 697.53,425.89 700.00,435.94 702.47,445.37 704.94,441.60 707.42,440.34 709.89,454.17 712.36,453.54 714.83,455.43 717.30,461.71 719.78,437.20 722.25,435.94 724.72,436.57 727.19,434.69 729.66,473.66 732.13,497.54 734.61,509.49 737.08,550.34 739.55,567.31 742.02,591.83 744.49,600.00 746.97,580.51 749.44,569.83 751.91,558.51 754.38,531.49 756.85,520.17 759.33,510.11 761.80,478.06 764.27,465.49 766.74,465.49 769.21,446.63 771.69,452.91 774.16,434.69 776.63,425.89 779.10,434.06 781.57,433.43 784.04,434.06 786.52,422.11 788.99,419.60 791.46,437.83 793.93,440.34 796.40,447.89 798.88,452.29 801.35,463.60 803.82,508.86 806.29,481.83 808.76,456.69 811.24,439.71 813.71,420.86 816.18,429.66 818.65,418.34 821.12,369.94 823.60,399.49 826.07,428.40 828.54,459.20 831.01,477.43 833.48,480.57 835.96,484.97 838.43,521.43 840.90,530.86 843.37,534.63 845.84,532.11 848.31,540.91 850.79,540.29 853.26,537.14 855.73,521.43 858.20,504.46 860.67,486.86 863.15,483.71 865.62,468.00 868.09,451.03 870.56,446.63 873.03,469.89 875.51,494.40 877.98,478.06 880.45,459.83 882.92,461.71 885.39,463.60 887.87,465.49 890.34,452.91 892.81,410.17 895.28,416.46 897.75,424.00 900.22,434.69 902.70,424.63 905.17,429.66 907.64,444.11 910.11,476.80 912.58,495.66 915.06,507.60 917.53,470.51 920.00,474.29" fill="none" stroke="#60a5fa" stroke-width="2" stroke-linecap="round" stroke-linejoin="round" />
  
  
  </svg>