<svg xmlns="http://www.w3.org/2000/svg" viewBox="0 0 960 720" width="960" height="720">
<rect width="960" height="720" fill="#0f172a" />
<text x="480" y="28" fill="#e2e8f0" font-size="16" font-weight="700" text-anchor="middle">心率最小值趋势图</text>
<text x="70" y="70" fill="#e2e8f0" font-size="13" font-weight="600">本月分天指标明细</text>
<line x1="70" y1="323.00" x2="930" y2="323.00" stroke="#94a3b8" stroke-opacity="0.18" stroke-width="1" />
<text x="62" y="327.00" fill="#cbd5f5" font-size="10" text-anchor="end">39.2</text>
<line x1="70" y1="260.75" x2="930" y2="260.75" stroke="#94a3b8" stroke-opacity="0.18" stroke-width="1" />
<text x="62" y="264.75" fill="#cbd5f5" font-size="10" text-anchor="end">41.6</text>
<line x1="70" y1="198.50" x2="930" y2="198.50" stroke="#94a3b8" stroke-opacity="0.18" stroke-width="1" />
<text x="62" y="202.50" fill="#cbd5f5" font-size="10" text-anchor="end">44</text>
<line x1="70" y1="136.25" x2="930" y2="136.25" stroke="#94a3b8" stroke-opacity="0.18" stroke-width="1" />
<text x="62" y="140.25" fill="#cbd5f5" font-size="10" text-anchor="end">46.4</text>
<line x1="70" y1="74.00" x2="930" y2="74.00" stroke="#94a3b8" stroke-opacity="0.18" stroke-width="1" />
<text x="62" y="78.00" fill="#cbd5f5" font-size="10" text-anchor="end">48.8</text>
<line x1="70.00" y1="323" x2="70.00" y2="327" stroke="#94a3b8" stroke-opacity="0.5" stroke-width="1" />
<text x="70.00" y="341" fill="#cbd5f5" font-size="10" text-anchor="middle">11-22</text>
<line x1="242.00" y1="323" x2="242.00" y2="327" stroke="#94a3b8" stroke-opacity="0.5" stroke-width="1" />
<text x="242.00" y="341" fill="#cbd5f5" font-size="10" text-anchor="middle">11-27</text>
<line x1="414.00" y1="323" x2="414.00" y2="327" stroke="#94a3b8" stroke-opacity="0.5" stroke-width="1" />
<text x="414.00" y="341" fill="#cbd5f5" font-size="10" text-anchor="middle">12-03</text>
<line x1="586.00" y1="323" x2="586.00" y2="327" stroke="#94a3b8" stroke-opacity="0.5" stroke-width="1" />
<text x="586.00" y="341" fill="#cbd5f5" font-size="10" text-anchor="middle">12-09</text>
<line x1="758.00" y1="323" x2="758.00" y2="327" stroke="#94a3b8" stroke-opacity="0.5" stroke-width="1" />
<text x="758.00" y="341" fill="#cbd5f5" font-size="10" text-anchor="middle">12-15</text>
<line x1="930.00" y1="323" x2="930.00" y2="327" stroke="#94a3b8" stroke-opacity="0.5" stroke-width="1" />
<text x="930.00" y="341" fill="#cbd5f5" font-size="10" text-anchor="middle">12-21</text>
<line x1="70" y1="74" x2="70" y2="323" stroke="#94a3b8" stroke-width="1" />
<line x1="70" y1="323" x2="930" y2="323" stroke="#94a3b8" stroke-width="1" />
<path d="M70.00,226.34 L99.66,250.38 L129.31,198.50 L158.97,172.56 L188.62,224.44 L218.28,276.31 L247.93,250.38 L277.59,250.38 L307.24,224.44 L336.90,250.38 L366.55,224.44 L396.21,276.31 L425.86,250.38 L455.52,146.62 L485.17,172.56 L514.83,172.56 L544.48,250.38 L574.14,250.38 L603.79,172.56 L633.45,302.25 L663.10,302.25 L692.76,146.62 L722.41,172.56 L752.07,146.62 L781.72,276.31 L811.38,172.56 L841.03,94.75 L870.69,120.69 L900.34,172.56 L930.00,172.56" fill="none" stroke="#60a5fa" stroke-width="2.2" stroke-linecap="round" />
<circle cx="70.00" cy="226.34" r="3" fill="#60a5fa" stroke="#0f172a" stroke-width="1" />
<text x="70.00" y="216.34" fill="#e2e8f0" font-size="9" text-anchor="middle">42.9</text>
<circle cx="99.66" cy="250.38" r="3" fill="#60a5fa" stroke="#0f172a" stroke-width="1" />
<text x="99.66" y="230.38" fill="#e2e8f0" font-size="9" text-anchor="middle">42</text>
<circle cx="129.31" cy="198.50" r="3" fill="#60a5fa" stroke="#0f172a" stroke-width="1" />
<text x="129.31" y="188.50" fill="#e2e8f0" font-size="9" text-anchor="middle">44</text>
<circle cx="158.97" cy="172.56" r="3" fill="#60a5fa" stroke="#0f172a" stroke-width="1" />
<text x="158.97" y="152.56" fill="#e2e8f0" font-size="9" text-anchor="middle">45</text>
<circle cx="188.62" cy="224.44" r="3" fill="#60a5fa" stroke="#0f172a" stroke-width="1" />
<text x="188.62" y="214.44" fill="#e2e8f0" font-size="9" text-anchor="middle">43</text>
<circle cx="218.28" cy="276.31" r="3" fill="#60a5fa" stroke="#0f172a" stroke-width="1" />
<text x="218.28" y="256.31" fill="#e2e8f0" font-size="9" text-anchor="middle">41</text>
<circle cx="247.93" cy="250.38" r="3" fill="#60a5fa" stroke="#0f172a" stroke-width="1" />
<text x="247.93" y="240.38" fill="#e2e8f0" font-size="9" text-anchor="middle">42</text>
<circle cx="277.59" cy="250.38" r="3" fill="#60a5fa" stroke="#0f172a" stroke-width="1" />
<text x="277.59" y="230.38" fill="#e2e8f0" font-size="9" text-anchor="middle">42</text>
<circle cx="307.24" cy="224.44" r="3" fill="#60a5fa" stroke="#0f172a" stroke-width="1" />
<text x="307.24" y="214.44" fill="#e2e8f0" font-size="9" text-anchor="middle">43</text>
<circle cx="336.90" cy="250.38" r="3" fill="#60a5fa" stroke="#0f172a" stroke-width="1" />
<text x="336.90" y="230.38" fill="#e2e8f0" font-size="9" text-anchor="middle">42</text>
<circle cx="366.55" cy="224.44" r="3" fill="#60a5fa" stroke="#0f172a" stroke-width="1" />
<text x="366.55" y="214.44" fill="#e2e8f0" font-size="9" text-anchor="middle">43</text>
<circle cx="396.21" cy="276.31" r="3" fill="#60a5fa" stroke="#0f172a" stroke-width="1" />
<text x="396.21" y="256.31" fill="#e2e8f0" font-size="9" text-anchor="middle">41</text>
<circle cx="425.86" cy="250.38" r="3" fill="#60a5fa" stroke="#0f172a" stroke-width="1" />
<text x="425.86" y="240.38" fill="#e2e8f0" font-size="9" text-anchor="middle">42</text>
<circle cx="455.52" cy="146.62" r="3" fill="#60a5fa" stroke="#0f172a" stroke-width="1" />
<text x="455.52" y="126.62" fill="#e2e8f0" font-size="9" text-anchor="middle">46</text>
<circle cx="485.17" cy="172.56" r="3" fill="#60a5fa" stroke="#0f172a" stroke-width="1" />
<text x="485.17" y="162.56" fill="#e2e8f0" font-size="9" text-anchor="middle">45</text>
<circle cx="514.83" cy="172.56" r="3" fill="#60a5fa" stroke="#0f172a" stroke-width="1" />
<text x="514.83" y="152.56" fill="#e2e8f0" font-size="9" text-anchor="middle">45</text>
<circle cx="544.48" cy="250.38" r="3" fill="#60a5fa" stroke="#0f172a" stroke-width="1" />
<text x="544.48" y="240.38" fill="#e2e8f0" font-size="9" text-anchor="middle">42</text>
<circle cx="574.14" cy="250.38" r="3" fill="#60a5fa" stroke="#0f172a" stroke-width="1" />
<text x="574.14" y="230.38" fill="#e2e8f0" font-size="9" text-anchor="middle">42</text>
<circle cx="603.79" cy="172.56" r="3" fill="#60a5fa" stroke="#0f172a" stroke-width="1" />
<text x="603.79" y="162.56" fill="#e2e8f0" font-size="9" text-anchor="middle">45</text>
<circle cx="633.45" cy="302.25" r="3" fill="#60a5fa" stroke="#0f172a" stroke-width="1" />
<text x="633.45" y="282.25" fill="#e2e8f0" font-size="9" text-anchor="middle">40</text>
<circle cx="663.10" cy="302.25" r="3" fill="#60a5fa" stroke="#0f172a" stroke-width="1" />
<text x="663.10" y="292.25" fill="#e2e8f0" font-size="9" text-anchor="middle">40</text>
<circle cx="692.76" cy="146.62" r="3" fill="#60a5fa" stroke="#0f172a" stroke-width="1" />
<text x="692.76" y="126.62" fill="#e2e8f0" font-size="9" text-anchor="middle">46</text>
<circle cx="722.41" cy="172.56" r="3" fill="#60a5fa" stroke="#0f172a" stroke-width="1" />
<text x="722.41" y="162.56" fill="#e2e8f0" font-size="9" text-anchor="middle">45</text>
<circle cx="752.07" cy="146.62" r="3" fill="#60a5fa" stroke="#0f172a" stroke-width="1" />
<text x="752.07" y="126.62" fill="#e2e8f0" font-size="9" text-anchor="middle">46</text>
<circle cx="781.72" cy="276.31" r="3" fill="#60a5fa" stroke="#0f172a" stroke-width="1" />
<text x="781.72" y="266.31" fill="#e2e8f0" font-size="9" text-anchor="middle">41</text>
<circle cx="811.38" cy="172.56" r="3" fill="#60a5fa" stroke="#0f172a" stroke-width="1" />
<text x="811.38" y="152.56" fill="#e2e8f0" font-size="9" text-anchor="middle">45</text>
<circle cx="841.03" cy="94.75" r="3" fill="#60a5fa" stroke="#0f172a" stroke-width="1" />
<text x="841.03" y="84.75" fill="#e2e8f0" font-size="9" text-anchor="middle">48</text>
<circle cx="870.69" cy="120.69" r="3" fill="#60a5fa" stroke="#0f172a" stroke-width="1" />
<text x="870.69" y="100.69" fill="#e2e8f0" font-size="9" text-anchor="middle">47</text>
<circle cx="900.34" cy="172.56" r="3" fill="#60a5fa" stroke="#0f172a" stroke-width="1" />
<text x="900.34" y="162.56" fill="#e2e8f0" font-size="9" text-anchor="middle">45</text>
<circle cx="930.00" cy="172.56" r="3" fill="#60a5fa" stroke="#0f172a" stroke-width="1" />
<text x="930.00" y="152.56" fill="#e2e8f0" font-size="9" text-anchor="middle">45</text>
<text x="70" y="403" fill="#e2e8f0" font-size="13" font-weight="600">本年核心指标趋势（滑动7日窗口平均）</text>
<line x1="70" y1="656.00" x2="930" y2="656.00" stroke="#94a3b8" stroke-opacity="0.18" stroke-width="1" />
<text x="62" y="660.00" fill="#cbd5f5" font-size="10" text-anchor="end">38.7</text>
<line x1="70" y1="593.75" x2="930" y2="593.75" stroke="#94a3b8" stroke-opacity="0.18" stroke-width="1" />
<text x="62" y="597.75" fill="#cbd5f5" font-size="10" text-anchor="end">43</text>
<line x1="70" y1="531.50" x2="930" y2="531.50" stroke="#94a3b8" stroke-opacity="0.18" stroke-width="1" />
<text x="62" y="535.50" fill="#cbd5f5" font-size="10" text-anchor="end">47.4</text>
<line x1="70" y1="469.25" x2="930" y2="469.25" stroke="#94a3b8" stroke-opacity="0.18" stroke-width="1" />
<text x="62" y="473.25" fill="#cbd5f5" font-size="10" text-anchor="end">51.7</text>
<line x1="70" y1="407.00" x2="930" y2="407.00" stroke="#94a3b8" stroke-opacity="0.18" stroke-width="1" />
<text x="62" y="411.00" fill="#cbd5f5" font-size="10" text-anchor="end">56</text>
<line x1="70.00" y1="656" x2="70.00" y2="660" stroke="#94a3b8" stroke-opacity="0.5" stroke-width="1" />
<text x="70.00" y="674" fill="#cbd5f5" font-size="10" text-anchor="middle">2024-12</text>
<line x1="242.00" y1="656" x2="242.00" y2="660" stroke="#94a3b8" stroke-opacity="0.5" stroke-width="1" />
<text x="242.00" y="674" fill="#cbd5f5" font-size="10" text-anchor="middle">2025-03</text>
<line x1="414.00" y1="656" x2="414.00" y2="660" stroke="#94a3b8" stroke-opacity="0.5" stroke-width="1" />
<text x="414.00" y="674" fill="#cbd5f5" font-size="10" text-anchor="middle">2025-05</text>
<line x1="586.00" y1="656" x2="586.00" y2="660" stroke="#94a3b8" stroke-opacity="0.5" stroke-width="1" />
<text x="586.00" y="674" fill="#cbd5f5" font-size="10" text-anchor="middle">2025-07</text>
<line x1="758.00" y1="656" x2="758.00" y2="660" stroke="#94a3b8" stroke-opacity="0.5" stroke-width="1" />
<text x="758.00" y="674" fill="#cbd5f5" font-size="10" text-anchor="middle">2025-10</text>
<line x1="930.00" y1="656" x2="930.00" y2="660" stroke="#94a3b8" stroke-opacity="0.5" stroke-width="1" />
<text x="930.00" y="674" fill="#cbd5f5" font-size="10" text-anchor="middle">2025-12</text>
<line x1="70" y1="407" x2="70" y2="656" stroke="#94a3b8" stroke-width="1" />
<line x1="70" y1="656" x2="930" y2="656" stroke="#94a3b8" stroke-width="1" />
<path d="M70.00,656.00 L70.00,536.64 L72.36,543.83 L74.73,546.22 L77.09,547.42 L79.45,528.01 L81.81,531.84 L84.18,518.15 L86.54,503.76 L88.90,495.55 L91.26,489.38 L93.63,475.00 L95.99,483.22 L98.35,475.00 L100.71,481.17 L103.08,491.44 L105.44,497.60 L107.80,505.82 L110.16,509.93 L112.53,505.82 L114.89,514.04 L117.25,514.04 L119.62,524.31 L121.98,518.15 L124.34,509.93 L126.70,507.87 L129.07,524.31 L131.43,532.53 L133.79,548.96 L136.15,540.75 L138.52,559.24 L140.88,555.13 L143.24,569.51 L145.60,565.40 L147.97,567.45 L150.33,573.62 L152.69,590.05 L155.05,573.62 L157.42,573.62 L159.78,559.24 L162.14,548.96 L164.51,536.64 L166.87,524.31 L169.23,509.93 L171.59,503.76 L173.96,501.71 L176.32,503.76 L178.68,503.76 L181.04,466.78 L183.41,438.02 L185.77,427.75 L188.13,444.19 L190.49,452.40 L192.86,456.51 L195.22,470.89 L197.58,522.25 L199.95,551.02 L202.31,571.56 L204.67,565.40 L207.03,569.51 L209.40,581.83 L211.76,588.00 L214.12,579.78 L216.48,575.67 L218.85,571.56 L221.21,583.89 L223.57,590.05 L225.93,588.00 L228.30,583.89 L230.66,590.05 L233.02,604.43 L235.38,618.81 L237.75,608.54 L240.11,608.54 L242.47,612.65 L244.84,614.71 L247.20,612.65 L249.56,608.54 L251.92,602.38 L254.29,612.65 L256.65,618.81 L259.01,616.76 L261.37,600.32 L263.74,600.32 L266.10,610.60 L268.46,610.60 L270.82,608.54 L273.19,606.49 L275.55,610.60 L277.91,629.09 L280.27,635.25 L282.64,627.03 L285.00,622.92 L287.36,612.65 L289.73,612.65 L292.09,606.49 L294.45,602.38 L296.81,596.22 L299.18,596.22 L301.54,600.32 L303.90,618.81 L306.26,624.98 L308.63,633.20 L310.99,635.25 L313.35,622.92 L315.71,622.92 L318.08,618.81 L320.44,612.65 L322.80,608.54 L325.16,608.54 L327.53,608.54 L329.89,620.87 L332.25,610.60 L334.62,614.71 L336.98,616.76 L339.34,614.71 L341.70,610.60 L344.07,608.54 L346.43,610.60 L348.79,622.92 L351.15,618.81 L353.52,606.49 L355.88,608.54 L358.24,610.60 L360.60,606.49 L362.97,604.43 L365.33,592.11 L367.69,583.89 L370.05,590.05 L372.42,590.05 L374.78,592.11 L377.14,594.16 L379.51,594.16 L381.87,594.16 L384.23,592.11 L386.59,585.94 L388.96,577.73 L391.32,573.62 L393.68,575.67 L396.04,575.67 L398.41,579.78 L400.77,588.00 L403.13,592.11 L405.49,588.00 L407.86,581.83 L410.22,581.83 L412.58,565.40 L414.95,567.45 L417.31,571.56 L419.67,579.78 L422.03,577.73 L424.40,577.73 L426.76,577.73 L429.12,590.05 L431.48,579.78 L433.85,565.40 L436.21,542.80 L438.57,557.18 L440.93,548.96 L443.30,544.85 L445.66,544.85 L448.02,559.24 L450.38,575.67 L452.75,590.05 L455.11,581.83 L457.47,588.03 L459.84,592.13 L462.20,596.24 L464.56,600.35 L466.92,596.24 L469.29,596.24 L471.65,598.30 L474.01,600.32 L476.37,598.27 L478.74,590.05 L481.10,563.34 L483.46,548.96 L485.82,538.69 L488.19,534.58 L490.55,530.47 L492.91,526.36 L495.27,532.53 L497.64,548.96 L500.00,565.40 L502.36,569.51 L504.73,567.45 L507.09,581.83 L509.45,590.05 L511.81,596.22 L514.18,606.49 L516.54,594.16 L518.90,608.54 L521.26,618.81 L523.63,614.71 L525.99,612.65 L528.35,612.65 L530.71,612.65 L533.08,612.65 L535.44,606.49 L537.80,602.38 L540.16,602.38 L542.53,602.38 L544.89,598.27 L547.25,583.89 L549.62,600.32 L551.98,610.60 L554.34,612.65 L556.70,614.71 L559.07,616.76 L561.43,610.60 L563.79,618.81 L566.15,614.71 L568.52,606.49 L570.88,602.38 L573.24,596.22 L575.60,592.11 L577.97,596.22 L580.33,585.94 L582.69,561.29 L585.05,555.13 L587.42,553.07 L589.78,557.18 L592.14,551.02 L594.51,543.67 L596.87,558.05 L599.23,578.59 L601.59,576.54 L603.96,574.48 L606.32,566.35 L608.68,576.63 L611.04,579.87 L613.41,571.65 L615.77,565.49 L618.13,569.60 L620.49,577.81 L622.86,575.67 L625.22,573.62 L627.58,575.67 L629.95,583.89 L632.31,579.78 L634.67,579.78 L637.03,579.78 L639.40,590.05 L641.76,557.18 L644.12,553.07 L646.48,536.64 L667.75,528.42 L670.11,526.36 L672.47,520.20 L674.84,522.25 L677.20,555.13 L679.56,559.24 L681.92,565.40 L684.29,588.00 L686.65,598.27 L689.01,600.32 L691.37,596.22 L693.74,594.16 L696.10,602.38 L698.46,606.49 L700.82,602.38 L703.19,598.27 L705.55,600.32 L707.91,602.38 L710.27,608.54 L712.64,602.38 L715.00,604.43 L717.36,602.38 L719.73,600.32 L722.09,600.32 L724.45,600.32 L726.81,592.11 L729.18,596.22 L731.54,598.27 L733.90,594.16 L736.26,585.94 L738.63,581.83 L740.99,567.45 L743.35,559.24 L745.71,542.80 L748.08,532.53 L750.44,532.53 L752.80,526.36 L755.16,511.98 L757.53,511.98 L759.89,505.82 L762.25,511.98 L764.62,509.93 L766.98,511.98 L769.34,522.25 L771.70,532.53 L774.07,540.75 L776.43,553.07 L778.79,548.96 L781.15,555.13 L783.52,555.13 L785.88,561.29 L788.24,567.45 L790.60,571.56 L792.97,575.67 L795.33,583.89 L797.69,578.12 L800.05,584.29 L802.42,576.07 L804.78,584.29 L807.14,590.45 L809.51,594.56 L811.87,594.56 L814.23,614.71 L816.59,604.43 L818.96,612.65 L821.32,610.60 L823.68,608.54 L826.04,606.49 L828.41,602.38 L830.77,573.83 L833.13,586.16 L835.49,582.05 L837.86,577.94 L840.22,586.16 L842.58,582.05 L844.95,592.32 L847.31,614.71 L849.67,606.49 L852.03,610.60 L854.40,616.76 L856.76,608.54 L859.12,612.65 L861.48,608.69 L863.85,606.64 L866.21,608.69 L868.57,602.53 L870.93,596.37 L873.30,596.37 L875.66,596.37 L878.02,598.27 L880.38,596.22 L882.75,600.32 L885.11,604.43 L887.47,608.54 L889.84,606.49 L892.20,598.27 L894.56,592.11 L896.92,588.00 L899.29,588.00 L901.65,590.05 L904.01,581.83 L906.37,585.94 L908.74,598.27 L911.10,596.22 L913.46,596.22 L915.82,588.00 L918.19,590.05 L920.55,590.05 L922.91,573.62 L925.27,559.24 L927.64,561.29 L930.00,561.29 L930.00,656.00 Z" fill="#60a5fa" fill-opacity="0.16" stroke="none" />
<path d="M70.00,536.64 L72.36,543.83 L74.73,546.22 L77.09,547.42 L79.45,528.01 L81.81,531.84 L84.18,518.15 L86.54,503.76 L88.90,495.55 L91.26,489.38 L93.63,475.00 L95.99,483.22 L98.35,475.00 L100.71,481.17 L103.08,491.44 L105.44,497.60 L107.80,505.82 L110.16,509.93 L112.53,505.82 L114.89,514.04 L117.25,514.04 L119.62,524.31 L121.98,518.15 L124.34,509.93 L126.70,507.87 L129.07,524.31 L131.43,532.53 L133.79,548.96 L136.15,540.75 L138.52,559.24 L140.88,555.13 L143.24,569.51 L145.60,565.40 L147.97,567.45 L150.33,573.62 L152.69,590.05 L155.05,573.62 L157.42,573.62 L159.78,559.24 L162.14,548.96 L164.51,536.64 L166.87,524.31 L169.23,509.93 L171.59,503.76 L173.96,501.71 L176.32,503.76 L178.68,503.76 L181.04,466.78 L183.41,438.02 L185.77,427.75 L188.13,444.19 L190.49,452.40 L192.86,456.51 L195.22,470.89 L197.58,522.25 L199.95,551.02 L202.31,571.56 L204.67,565.40 L207.03,569.51 L209.40,581.83 L211.76,588.00 L214.12,579.78 L216.48,575.67 L218.85,571.56 L221.21,583.89 L223.57,590.05 L225.93,588.00 L228.30,583.89 L230.66,590.05 L233.02,604.43 L235.38,618.81 L237.75,608.54 L240.11,608.54 L242.47,612.65 L244.84,614.71 L247.20,612.65 L249.56,608.54 L251.92,602.38 L254.29,612.65 L256.65,618.81 L259.01,616.76 L261.37,600.32 L263.74,600.32 L266.10,610.60 L268.46,610.60 L270.82,608.54 L273.19,606.49 L275.55,610.60 L277.91,629.09 L280.27,635.25 L282.64,627.03 L285.00,622.92 L287.36,612.65 L289.73,612.65 L292.09,606.49 L294.45,602.38 L296.81,596.22 L299.18,596.22 L301.54,600.32 L303.90,618.81 L306.26,624.98 L308.63,633.20 L310.99,635.25 L313.35,622.92 L315.71,622.92 L318.08,618.81 L320.44,612.65 L322.80,608.54 L325.16,608.54 L327.53,608.54 L329.89,620.87 L332.25,610.60 L334.62,614.71 L336.98,616.76 L339.34,614.71 L341.70,610.60 L344.07,608.54 L346.43,610.60 L348.79,622.92 L351.15,618.81 L353.52,606.49 L355.88,608.54 L358.24,610.60 L360.60,606.49 L362.97,604.43 L365.33,592.11 L367.69,583.89 L370.05,590.05 L372.42,590.05 L374.78,592.11 L377.14,594.16 L379.51,594.16 L381.87,594.16 L384.23,592.11 L386.59,585.94 L388.96,577.73 L391.32,573.62 L393.68,575.67 L396.04,575.67 L398.41,579.78 L400.77,588.00 L403.13,592.11 L405.49,588.00 L407.86,581.83 L410.22,581.83 L412.58,565.40 L414.95,567.45 L417.31,571.56 L419.67,579.78 L422.03,577.73 L424.40,577.73 L426.76,577.73 L429.12,590.05 L431.48,579.78 L433.85,565.40 L436.21,542.80 L438.57,557.18 L440.93,548.96 L443.30,544.85 L445.66,544.85 L448.02,559.24 L450.38,575.67 L452.75,590.05 L455.11,581.83 L457.47,588.03 L459.84,592.13 L462.20,596.24 L464.56,600.35 L466.92,596.24 L469.29,596.24 L471.65,598.30 L474.01,600.32 L476.37,598.27 L478.74,590.05 L481.10,563.34 L483.46,548.96 L485.82,538.69 L488.19,534.58 L490.55,530.47 L492.91,526.36 L495.27,532.53 L497.64,548.96 L500.00,565.40 L502.36,569.51 L504.73,567.45 L507.09,581.83 L509.45,590.05 L511.81,596.22 L514.18,606.49 L516.54,594.16 L518.90,608.54 L521.26,618.81 L523.63,614.71 L525.99,612.65 L528.35,612.65 L530.71,612.65 L533.08,612.65 L535.44,606.49 L537.80,602.38 L540.16,602.38 L542.53,602.38 L544.89,598.27 L547.25,583.89 L549.62,600.32 L551.98,610.60 L554.34,612.65 L556.70,614.71 L559.07,616.76 L561.43,610.60 L563.79,618.81 L566.15,614.71 L568.52,606.49 L570.88,602.38 L573.24,596.22 L575.60,592.11 L577.97,596.22 L580.33,585.94 L582.69,561.29 L585.05,555.13 L587.42,553.07 L589.78,557.18 L592.14,551.02 L594.51,543.67 L596.87,558.05 L599.23,578.59 L601.59,576.54 L603.96,574.48 L606.32,566.35 L608.68,576.63 L611.04,579.87 L613.41,571.65 L615.77,565.49 L618.13,569.60 L620.49,577.81 L622.86,575.67 L625.22,573.62 L627.58,575.67 L629.95,583.89 L632.31,579.78 L634.67,579.78 L637.03,579.78 L639.40,590.05 L641.76,557.18 L644.12,553.07 L646.48,536.64 L667.75,528.42 L670.11,526.36 L672.47,520.20 L674.84,522.25 L677.20,555.13 L679.56,559.24 L681.92,565.40 L684.29,588.00 L686.65,598.27 L689.01,600.32 L691.37,596.22 L693.74,594.16 L696.10,602.38 L698.46,606.49 L700.82,602.38 L703.19,598.27 L705.55,600.32 L707.91,602.38 L710.27,608.54 L712.64,602.38 L715.00,604.43 L717.36,602.38 L719.73,600.32 L722.09,600.32 L724.45,600.32 L726.81,592.11 L729.18,596.22 L731.54,598.27 L733.90,594.16 L736.26,585.94 L738.63,581.83 L740.99,567.45 L743.35,559.24 L745.71,542.80 L748.08,532.53 L750.44,532.53 L752.80,526.36 L755.16,511.98 L757.53,511.98 L759.89,505.82 L762.25,511.98 L764.62,509.93 L766.98,511.98 L769.34,522.25 L771.70,532.53 L774.07,540.75 L776.43,553.07 L778.79,548.96 L781.15,555.13 L783.52,555.13 L785.88,561.29 L788.24,567.45 L790.60,571.56 L792.97,575.67 L795.33,583.89 L797.69,578.12 L800.05,584.29 L802.42,576.07 L804.78,584.29 L807.14,590.45 L809.51,594.56 L811.87,594.56 L814.23,614.71 L816.59,604.43 L818.96,612.65 L821.32,610.60 L823.68,608.54 L826.04,606.49 L828.41,602.38 L830.77,573.83 L833.13,586.16 L835.49,582.05 L837.86,577.94 L840.22,586.16 L842.58,582.05 L844.95,592.32 L847.31,614.71 L849.67,606.49 L852.03,610.60 L854.40,616.76 L856.76,608.54 L859.12,612.65 L861.48,608.69 L863.85,606.64 L866.21,608.69 L868.57,602.53 L870.93,596.37 L873.30,596.37 L875.66,596.37 L878.02,598.27 L880.38,596.22 L882.75,600.32 L885.11,604.43 L887.47,608.54 L889.84,606.49 L892.20,598.27 L894.56,592.11 L896.92,588.00 L899.29,588.00 L901.65,590.05 L904.01,581.83 L906.37,585.94 L908.74,598.27 L911.10,596.22 L913.46,596.22 L915.82,588.00 L918.19,590.05 L920.55,590.05 L922.91,573.62 L925.27,559.24 L927.64,561.29 L930.00,561.29" fill="none" stroke="#60a5fa" stroke-width="2.2" stroke-linecap="round" />
</svg>
