<svg xmlns="http://www.w3.org/2000/svg" viewBox="0 0 960 720" width="960" height="720">
<rect width="960" height="720" fill="#0f172a" />
<text x="480" y="28" fill="#e2e8f0" font-size="16" font-weight="700" text-anchor="middle">心率最小值趋势图</text>
<text x="70" y="70" fill="#e2e8f0" font-size="13" font-weight="600">本月分天指标明细</text>
<line x1="70" y1="323.00" x2="930" y2="323.00" stroke="#94a3b8" stroke-opacity="0.18" stroke-width="1" />
<text x="62" y="327.00" fill="#cbd5f5" font-size="10" text-anchor="end">39.2</text>
<line x1="70" y1="260.75" x2="930" y2="260.75" stroke="#94a3b8" stroke-opacity="0.18" stroke-width="1" />
<text x="62" y="264.75" fill="#cbd5f5" font-size="10" text-anchor="end">41.6</text>
<line x1="70" y1="198.50" x2="930" y2="198.50" stroke="#94a3b8" stroke-opacity="0.18" stroke-width="1" />
<text x="62" y="202.50" fill="#cbd5f5" font-size="10" text-anchor="end">44</text>
<line x1="70" y1="136.25" x2="930" y2="136.25" stroke="#94a3b8" stroke-opacity="0.18" stroke-width="1" />
<text x="62" y="140.25" fill="#cbd5f5" font-size="10" text-anchor="end">46.4</text>
<line x1="70" y1="74.00" x2="930" y2="74.00" stroke="#94a3b8" stroke-opacity="0.18" stroke-width="1" />
<text x="62" y="78.00" fill="#cbd5f5" font-size="10" text-anchor="end">48.8</text>
<line x1="70.00" y1="323" x2="70.00" y2="327" stroke="#94a3b8" stroke-opacity="0.5" stroke-width="1" />
<text x="70.00" y="341" fill="#cbd5f5" font-size="10" text-anchor="middle">11-19</text>
<line x1="242.00" y1="323" x2="242.00" y2="327" stroke="#94a3b8" stroke-opacity="0.5" stroke-width="1" />
<text x="242.00" y="341" fill="#cbd5f5" font-size="10" text-anchor="middle">11-24</text>
<line x1="414.00" y1="323" x2="414.00" y2="327" stroke="#94a3b8" stroke-opacity="0.5" stroke-width="1" />
<text x="414.00" y="341" fill="#cbd5f5" font-size="10" text-anchor="middle">11-30</text>
<line x1="586.00" y1="323" x2="586.00" y2="327" stroke="#94a3b8" stroke-opacity="0.5" stroke-width="1" />
<text x="586.00" y="341" fill="#cbd5f5" font-size="10" text-anchor="middle">12-06</text>
<line x1="758.00" y1="323" x2="758.00" y2="327" stroke="#94a3b8" stroke-opacity="0.5" stroke-width="1" />
<text x="758.00" y="341" fill="#cbd5f5" font-size="10" text-anchor="middle">12-12</text>
<line x1="930.00" y1="323" x2="930.00" y2="327" stroke="#94a3b8" stroke-opacity="0.5" stroke-width="1" />
<text x="930.00" y="341" fill="#cbd5f5" font-size="10" text-anchor="middle">12-18</text>
<line x1="70" y1="74" x2="70" y2="323" stroke="#94a3b8" stroke-width="1" />
<line x1="70" y1="323" x2="930" y2="323" stroke="#94a3b8" stroke-width="1" />
<path d="M70.00,302.25 L99.66,276.31 L129.31,250.38 L158.97,226.34 L188.62,250.38 L218.28,198.50 L247.93,172.56 L277.59,224.44 L307.24,276.31 L336.90,250.38 L366.55,250.38 L396.21,224.44 L425.86,250.38 L455.52,224.44 L485.17,276.31 L514.83,250.38 L544.48,146.62 L574.14,172.56 L603.79,172.56 L633.45,250.38 L663.10,250.38 L692.76,172.56 L722.41,302.25 L752.07,302.25 L781.72,146.62 L811.38,172.56 L841.03,146.62 L870.69,276.31 L900.34,172.56 L930.00,94.75" fill="none" stroke="#60a5fa" stroke-width="2.2" stroke-linecap="round" />
<circle cx="70.00" cy="302.25" r="3" fill="#60a5fa" stroke="#0f172a" stroke-width="1" />
<text x="70.00" y="292.25" fill="#e2e8f0" font-size="9" text-anchor="middle">40</text>
<circle cx="99.66" cy="276.31" r="3" fill="#60a5fa" stroke="#0f172a" stroke-width="1" />
<text x="99.66" y="256.31" fill="#e2e8f0" font-size="9" text-anchor="middle">41</text>
<circle cx="129.31" cy="250.38" r="3" fill="#60a5fa" stroke="#0f172a" stroke-width="1" />
<text x="129.31" y="240.38" fill="#e2e8f0" font-size="9" text-anchor="middle">42</text>
<circle cx="158.97" cy="226.34" r="3" fill="#60a5fa" stroke="#0f172a" stroke-width="1" />
<text x="158.97" y="206.34" fill="#e2e8f0" font-size="9" text-anchor="middle">42.9</text>
<circle cx="188.62" cy="250.38" r="3" fill="#60a5fa" stroke="#0f172a" stroke-width="1" />
<text x="188.62" y="240.38" fill="#e2e8f0" font-size="9" text-anchor="middle">42</text>
<circle cx="218.28" cy="198.50" r="3" fill="#60a5fa" stroke="#0f172a" stroke-width="1" />
<text x="218.28" y="178.50" fill="#e2e8f0" font-size="9" text-anchor="middle">44</text>
<circle cx="247.93" cy="172.56" r="3" fill="#60a5fa" stroke="#0f172a" stroke-width="1" />
<text x="247.93" y="162.56" fill="#e2e8f0" font-size="9" text-anchor="middle">45</text>
<circle cx="277.59" cy="224.44" r="3" fill="#60a5fa" stroke="#0f172a" stroke-width="1" />
<text x="277.59" y="204.44" fill="#e2e8f0" font-size="9" text-anchor="middle">43</text>
<circle cx="307.24" cy="276.31" r="3" fill="#60a5fa" stroke="#0f172a" stroke-width="1" />
<text x="307.24" y="266.31" fill="#e2e8f0" font-size="9" text-anchor="middle">41</text>
<circle cx="336.90" cy="250.38" r="3" fill="#60a5fa" stroke="#0f172a" stroke-width="1" />
<text x="336.90" y="230.38" fill="#e2e8f0" font-size="9" text-anchor="middle">42</text>
<circle cx="366.55" cy="250.38" r="3" fill="#60a5fa" stroke="#0f172a" stroke-width="1" />
<text x="366.55" y="240.38" fill="#e2e8f0" font-size="9" text-anchor="middle">42</text>
<circle cx="396.21" cy="224.44" r="3" fill="#60a5fa" stroke="#0f172a" stroke-width="1" />
<text x="396.21" y="204.44" fill="#e2e8f0" font-size="9" text-anchor="middle">43</text>
<circle cx="425.86" cy="250.38" r="3" fill="#60a5fa" stroke="#0f172a" stroke-width="1" />
<text x="425.86" y="240.38" fill="#e2e8f0" font-size="9" text-anchor="middle">42</text>
<circle cx="455.52" cy="224.44" r="3" fill="#60a5fa" stroke="#0f172a" stroke-width="1" />
<text x="455.52" y="204.44" fill="#e2e8f0" font-size="9" text-anchor="middle">43</text>
<circle cx="485.17" cy="276.31" r="3" fill="#60a5fa" stroke="#0f172a" stroke-width="1" />
<text x="485.17" y="266.31" fill="#e2e8f0" font-size="9" text-anchor="middle">41</text>
<circle cx="514.83" cy="250.38" r="3" fill="#60a5fa" stroke="#0f172a" stroke-width="1" />
<text x="514.83" y="230.38" fill="#e2e8f0" font-size="9" text-anchor="middle">42</text>
<circle cx="544.48" cy="146.62" r="3" fill="#60a5fa" stroke="#0f172a" stroke-width="1" />
<text x="544.48" y="136.62" fill="#e2e8f0" font-size="9" text-anchor="middle">46</text>
<circle cx="574.14" cy="172.56" r="3" fill="#60a5fa" stroke="#0f172a" stroke-width="1" />
<text x="574.14" y="152.56" fill="#e2e8f0" font-size="9" text-anchor="middle">45</text>
<circle cx="603.79" cy="172.56" r="3" fill="#60a5fa" stroke="#0f172a" stroke-width="1" />
<text x="603.79" y="162.56" fill="#e2e8f0" font-size="9" text-anchor="middle">45</text>
<circle cx="633.45" cy="250.38" r="3" fill="#60a5fa" stroke="#0f172a" stroke-width="1" />
<text x="633.45" y="230.38" fill="#e2e8f0" font-size="9" text-anchor="middle">42</text>
<circle cx="663.10" cy="250.38" r="3" fill="#60a5fa" stroke="#0f172a" stroke-width="1" />
<text x="663.10" y="240.38" fill="#e2e8f0" font-size="9" text-anchor="middle">42</text>
<circle cx="692.76" cy="172.56" r="3" fill="#60a5fa" stroke="#0f172a" stroke-width="1" />
<text x="692.76" y="152.56" fill="#e2e8f0" font-size="9" text-anchor="middle">45</text>
<circle cx="722.41" cy="302.25" r="3" fill="#60a5fa" stroke="#0f172a" stroke-width="1" />
<text x="722.41" y="292.25" fill="#e2e8f0" font-size="9" text-anchor="middle">40</text>
<circle cx="752.07" cy="302.25" r="3" fill="#60a5fa" stroke="#0f172a" stroke-width="1" />
<text x="752.07" y="282.25" fill="#e2e8f0" font-size="9" text-anchor="middle">40</text>
<circle cx="781.72" cy="146.62" r="3" fill="#60a5fa" stroke="#0f172a" stroke-width="1" />
<text x="781.72" y="136.62" fill="#e2e8f0" font-size="9" text-anchor="middle">46</text>
<circle cx="811.38" cy="172.56" r="3" fill="#60a5fa" stroke="#0f172a" stroke-width="1" />
<text x="811.38" y="152.56" fill="#e2e8f0" font-size="9" text-anchor="middle">45</text>
<circle cx="841.03" cy="146.62" r="3" fill="#60a5fa" stroke="#0f172a" stroke-width="1" />
<text x="841.03" y="136.62" fill="#e2e8f0" font-size="9" text-anchor="middle">46</text>
<circle cx="870.69" cy="276.31" r="3" fill="#60a5fa" stroke="#0f172a" stroke-width="1" />
<text x="870.69" y="256.31" fill="#e2e8f0" font-size="9" text-anchor="middle">41</text>
<circle cx="900.34" cy="172.56" r="3" fill="#60a5fa" stroke="#0f172a" stroke-width="1" />
<text x="900.34" y="162.56" fill="#e2e8f0" font-size="9" text-anchor="middle">45</text>
<circle cx="930.00" cy="94.75" r="3" fill="#60a5fa" stroke="#0f172a" stroke-width="1" />
<text x="930.00" y="108.75" fill="#e2e8f0" font-size="9" text-anchor="middle">48</text>
<text x="70" y="403" fill="#e2e8f0" font-size="13" font-weight="600">本年核心指标趋势（滑动7日窗口平均）</text>
<line x1="70" y1="656.00" x2="930" y2="656.00" stroke="#94a3b8" stroke-opacity="0.18" stroke-width="1" />
<text x="62" y="660.00" fill="#cbd5f5" font-size="10" text-anchor="end">38.7</text>
<line x1="70" y1="593.75" x2="930" y2="593.75" stroke="#94a3b8" stroke-opacity="0.18" stroke-width="1" />
<text x="62" y="597.75" fill="#cbd5f5" font-size="10" text-anchor="end">43</text>
<line x1="70" y1="531.50" x2="930" y2="531.50" stroke="#94a3b8" stroke-opacity="0.18" stroke-width="1" />
<text x="62" y="535.50" fill="#cbd5f5" font-size="10" text-anchor="end">47.4</text>
<line x1="70" y1="469.25" x2="930" y2="469.25" stroke="#94a3b8" stroke-opacity="0.18" stroke-width="1" />
<text x="62" y="473.25" fill="#cbd5f5" font-size="10" text-anchor="end">51.7</text>
<line x1="70" y1="407.00" x2="930" y2="407.00" stroke="#94a3b8" stroke-opacity="0.18" stroke-width="1" />
<text x="62" y="411.00" fill="#cbd5f5" font-size="10" text-anchor="end">56</text>
<line x1="70.00" y1="656" x2="70.00" y2="660" stroke="#94a3b8" stroke-opacity="0.5" stroke-width="1" />
<text x="70.00" y="674" fill="#cbd5f5" font-size="10" text-anchor="middle">2024-12</text>
<line x1="242.00" y1="656" x2="242.00" y2="660" stroke="#94a3b8" stroke-opacity="0.5" stroke-width="1" />
<text x="242.00" y="674" fill="#cbd5f5" font-size="10" text-anchor="middle">2025-03</text>
<line x1="414.00" y1="656" x2="414.00" y2="660" stroke="#94a3b8" stroke-opacity="0.5" stroke-width="1" />
<text x="414.00" y="674" fill="#cbd5f5" font-size="10" text-anchor="middle">2025-05</text>
<line x1="586.00" y1="656" x2="586.00" y2="660" stroke="#94a3b8" stroke-opacity="0.5" stroke-width="1" />
<text x="586.00" y="674" fill="#cbd5f5" font-size="10" text-anchor="middle">2025-07</text>
<line x1="758.00" y1="656" x2="758.00" y2="660" stroke="#94a3b8" stroke-opacity="0.5" stroke-width="1" />
<text x="758.00" y="674" fill="#cbd5f5" font-size="10" text-anchor="middle">2025-10</text>
<line x1="930.00" y1="656" x2="930.00" y2="660" stroke="#94a3b8" stroke-opacity="0.5" stroke-width="1" />
<text x="930.00" y="674" fill="#cbd5f5" font-size="10" text-anchor="middle">2025-12</text>
<line x1="70" y1="407" x2="70" y2="656" stroke="#94a3b8" stroke-width="1" />
<line x1="70" y1="656" x2="930" y2="656" stroke="#94a3b8" stroke-width="1" />
<path d="M70.00,656.00 L70.00,493.49 L72.36,493.49 L74.73,498.29 L77.09,507.87 L79.45,516.50 L81.81,522.25 L84.18,526.36 L86.54,520.20 L88.90,528.42 L91.26,518.15 L93.63,503.76 L95.99,495.55 L98.35,489.38 L100.71,475.00 L103.08,483.22 L105.44,475.00 L107.80,481.17 L110.16,491.44 L112.53,497.60 L114.89,505.82 L117.25,509.93 L119.62,505.82 L121.98,514.04 L124.34,514.04 L126.70,524.31 L129.07,518.15 L131.43,509.93 L133.79,507.87 L136.15,524.31 L138.52,532.53 L140.88,548.96 L143.24,540.75 L145.60,559.24 L147.97,555.13 L150.33,569.51 L152.69,565.40 L155.05,567.45 L157.42,573.62 L159.78,590.05 L162.14,573.62 L164.51,573.62 L166.87,559.24 L169.23,548.96 L171.59,536.64 L173.96,524.31 L176.32,509.93 L178.68,503.76 L181.04,501.71 L183.41,503.76 L185.77,503.76 L188.13,466.78 L190.49,438.02 L192.86,427.75 L195.22,444.19 L197.58,452.40 L199.95,456.51 L202.31,470.89 L204.67,522.25 L207.03,551.02 L209.40,571.56 L211.76,565.40 L214.12,569.51 L216.48,581.83 L218.85,588.00 L221.21,579.78 L223.57,575.67 L225.93,571.56 L228.30,583.89 L230.66,590.05 L233.02,588.00 L235.38,583.89 L237.75,590.05 L240.11,604.43 L242.47,618.81 L244.84,608.54 L247.20,608.54 L249.56,612.65 L251.92,614.71 L254.29,612.65 L256.65,608.54 L259.01,602.38 L261.37,612.65 L263.74,618.81 L266.10,616.76 L268.46,600.32 L270.82,600.32 L273.19,610.60 L275.55,610.60 L277.91,608.54 L280.27,606.49 L282.64,610.60 L285.00,629.09 L287.36,635.25 L289.73,627.03 L292.09,622.92 L294.45,612.65 L296.81,612.65 L299.18,606.49 L301.54,602.38 L303.90,596.22 L306.26,596.22 L308.63,600.32 L310.99,618.81 L313.35,624.98 L315.71,633.20 L318.08,635.25 L320.44,622.92 L322.80,622.92 L325.16,618.81 L327.53,612.65 L329.89,608.54 L332.25,608.54 L334.62,608.54 L336.98,620.87 L339.34,610.60 L341.70,614.71 L344.07,616.76 L346.43,614.71 L348.79,610.60 L351.15,608.54 L353.52,610.60 L355.88,622.92 L358.24,618.81 L360.60,606.49 L362.97,608.54 L365.33,610.60 L367.69,606.49 L370.05,604.43 L372.42,592.11 L374.78,583.89 L377.14,590.05 L379.51,590.05 L381.87,592.11 L384.23,594.16 L386.59,594.16 L388.96,594.16 L391.32,592.11 L393.68,585.94 L396.04,577.73 L398.41,573.62 L400.77,575.67 L403.13,575.67 L405.49,579.78 L407.86,588.00 L410.22,592.11 L412.58,588.00 L414.95,581.83 L417.31,581.83 L419.67,565.40 L422.03,567.45 L424.40,571.56 L426.76,579.78 L429.12,577.73 L431.48,577.73 L433.85,577.73 L436.21,590.05 L438.57,579.78 L440.93,565.40 L443.30,542.80 L445.66,557.18 L448.02,548.96 L450.38,544.85 L452.75,544.85 L455.11,559.24 L457.47,575.67 L459.84,590.05 L462.20,581.83 L464.56,588.03 L466.92,592.13 L469.29,596.24 L471.65,600.35 L474.01,596.24 L476.37,596.24 L478.74,598.30 L481.10,600.32 L483.46,598.27 L485.82,590.05 L488.19,563.34 L490.55,548.96 L492.91,538.69 L495.27,534.58 L497.64,530.47 L500.00,526.36 L502.36,532.53 L504.73,548.96 L507.09,565.40 L509.45,569.51 L511.81,567.45 L514.18,581.83 L516.54,590.05 L518.90,596.22 L521.26,606.49 L523.63,594.16 L525.99,608.54 L528.35,618.81 L530.71,614.71 L533.08,612.65 L535.44,612.65 L537.80,612.65 L540.16,612.65 L542.53,606.49 L544.89,602.38 L547.25,602.38 L549.62,602.38 L551.98,598.27 L554.34,583.89 L556.70,600.32 L559.07,610.60 L561.43,612.65 L563.79,614.71 L566.15,616.76 L568.52,610.60 L570.88,618.81 L573.24,614.71 L575.60,606.49 L577.97,602.38 L580.33,596.22 L582.69,592.11 L585.05,596.22 L587.42,585.94 L589.78,561.29 L592.14,555.13 L594.51,553.07 L596.87,557.18 L599.23,551.02 L601.59,543.67 L603.96,558.05 L606.32,578.59 L608.68,576.54 L611.04,574.48 L613.41,566.35 L615.77,576.63 L618.13,579.87 L620.49,571.65 L622.86,565.49 L625.22,569.60 L627.58,577.81 L629.95,575.67 L632.31,573.62 L634.67,575.67 L637.03,583.89 L639.40,579.78 L641.76,579.78 L644.12,579.78 L646.48,590.05 L648.85,557.18 L651.21,553.07 L653.57,536.64 L674.84,528.42 L677.20,526.36 L679.56,520.20 L681.92,522.25 L684.29,555.13 L686.65,559.24 L689.01,565.40 L691.37,588.00 L693.74,598.27 L696.10,600.32 L698.46,596.22 L700.82,594.16 L703.19,602.38 L705.55,606.49 L707.91,602.38 L710.27,598.27 L712.64,600.32 L715.00,602.38 L717.36,608.54 L719.73,602.38 L722.09,604.43 L724.45,602.38 L726.81,600.32 L729.18,600.32 L731.54,600.32 L733.90,592.11 L736.26,596.22 L738.63,598.27 L740.99,594.16 L743.35,585.94 L745.71,581.83 L748.08,567.45 L750.44,559.24 L752.80,542.80 L755.16,532.53 L757.53,532.53 L759.89,526.36 L762.25,511.98 L764.62,511.98 L766.98,505.82 L769.34,511.98 L771.70,509.93 L774.07,511.98 L776.43,522.25 L778.79,532.53 L781.15,540.75 L783.52,553.07 L785.88,548.96 L788.24,555.13 L790.60,555.13 L792.97,561.29 L795.33,567.45 L797.69,571.56 L800.05,575.67 L802.42,583.89 L804.78,578.12 L807.14,584.29 L809.51,576.07 L811.87,584.29 L814.23,590.45 L816.59,594.56 L818.96,594.56 L821.32,614.71 L823.68,604.43 L826.04,612.65 L828.41,610.60 L830.77,608.54 L833.13,606.49 L835.49,602.38 L837.86,573.83 L840.22,586.16 L842.58,582.05 L844.95,577.94 L847.31,586.16 L849.67,582.05 L852.03,592.32 L854.40,614.71 L856.76,606.49 L859.12,610.60 L861.48,616.76 L863.85,608.54 L866.21,612.65 L868.57,608.69 L870.93,606.64 L873.30,608.69 L875.66,602.53 L878.02,596.37 L880.38,596.37 L882.75,596.37 L885.11,598.27 L887.47,596.22 L889.84,600.32 L892.20,604.43 L894.56,608.54 L896.92,606.49 L899.29,598.27 L901.65,592.11 L904.01,588.00 L906.37,588.00 L908.74,590.05 L911.10,581.83 L913.46,585.94 L915.82,598.27 L918.19,596.22 L920.55,596.22 L922.91,588.00 L925.27,590.05 L927.64,590.05 L930.00,573.62 L930.00,656.00 Z" fill="#60a5fa" fill-opacity="0.16" stroke="none" />
<path d="M70.00,493.49 L72.36,493.49 L74.73,498.29 L77.09,507.87 L79.45,516.50 L81.81,522.25 L84.18,526.36 L86.54,520.20 L88.90,528.42 L91.26,518.15 L93.63,503.76 L95.99,495.55 L98.35,489.38 L100.71,475.00 L103.08,483.22 L105.44,475.00 L107.80,481.17 L110.16,491.44 L112.53,497.60 L114.89,505.82 L117.25,509.93 L119.62,505.82 L121.98,514.04 L124.34,514.04 L126.70,524.31 L129.07,518.15 L131.43,509.93 L133.79,507.87 L136.15,524.31 L138.52,532.53 L140.88,548.96 L143.24,540.75 L145.60,559.24 L147.97,555.13 L150.33,569.51 L152.69,565.40 L155.05,567.45 L157.42,573.62 L159.78,590.05 L162.14,573.62 L164.51,573.62 L166.87,559.24 L169.23,548.96 L171.59,536.64 L173.96,524.31 L176.32,509.93 L178.68,503.76 L181.04,501.71 L183.41,503.76 L185.77,503.76 L188.13,466.78 L190.49,438.02 L192.86,427.75 L195.22,444.19 L197.58,452.40 L199.95,456.51 L202.31,470.89 L204.67,522.25 L207.03,551.02 L209.40,571.56 L211.76,565.40 L214.12,569.51 L216.48,581.83 L218.85,588.00 L221.21,579.78 L223.57,575.67 L225.93,571.56 L228.30,583.89 L230.66,590.05 L233.02,588.00 L235.38,583.89 L237.75,590.05 L240.11,604.43 L242.47,618.81 L244.84,608.54 L247.20,608.54 L249.56,612.65 L251.92,614.71 L254.29,612.65 L256.65,608.54 L259.01,602.38 L261.37,612.65 L263.74,618.81 L266.10,616.76 L268.46,600.32 L270.82,600.32 L273.19,610.60 L275.55,610.60 L277.91,608.54 L280.27,606.49 L282.64,610.60 L285.00,629.09 L287.36,635.25 L289.73,627.03 L292.09,622.92 L294.45,612.65 L296.81,612.65 L299.18,606.49 L301.54,602.38 L303.90,596.22 L306.26,596.22 L308.63,600.32 L310.99,618.81 L313.35,624.98 L315.71,633.20 L318.08,635.25 L320.44,622.92 L322.80,622.92 L325.16,618.81 L327.53,612.65 L329.89,608.54 L332.25,608.54 L334.62,608.54 L336.98,620.87 L339.34,610.60 L341.70,614.71 L344.07,616.76 L346.43,614.71 L348.79,610.60 L351.15,608.54 L353.52,610.60 L355.88,622.92 L358.24,618.81 L360.60,606.49 L362.97,608.54 L365.33,610.60 L367.69,606.49 L370.05,604.43 L372.42,592.11 L374.78,583.89 L377.14,590.05 L379.51,590.05 L381.87,592.11 L384.23,594.16 L386.59,594.16 L388.96,594.16 L391.32,592.11 L393.68,585.94 L396.04,577.73 L398.41,573.62 L400.77,575.67 L403.13,575.67 L405.49,579.78 L407.86,588.00 L410.22,592.11 L412.58,588.00 L414.95,581.83 L417.31,581.83 L419.67,565.40 L422.03,567.45 L424.40,571.56 L426.76,579.78 L429.12,577.73 L431.48,577.73 L433.85,577.73 L436.21,590.05 L438.57,579.78 L440.93,565.40 L443.30,542.80 L445.66,557.18 L448.02,548.96 L450.38,544.85 L452.75,544.85 L455.11,559.24 L457.47,575.67 L459.84,590.05 L462.20,581.83 L464.56,588.03 L466.92,592.13 L469.29,596.24 L471.65,600.35 L474.01,596.24 L476.37,596.24 L478.74,598.30 L481.10,600.32 L483.46,598.27 L485.82,590.05 L488.19,563.34 L490.55,548.96 L492.91,538.69 L495.27,534.58 L497.64,530.47 L500.00,526.36 L502.36,532.53 L504.73,548.96 L507.09,565.40 L509.45,569.51 L511.81,567.45 L514.18,581.83 L516.54,590.05 L518.90,596.22 L521.26,606.49 L523.63,594.16 L525.99,608.54 L528.35,618.81 L530.71,614.71 L533.08,612.65 L535.44,612.65 L537.80,612.65 L540.16,612.65 L542.53,606.49 L544.89,602.38 L547.25,602.38 L549.62,602.38 L551.98,598.27 L554.34,583.89 L556.70,600.32 L559.07,610.60 L561.43,612.65 L563.79,614.71 L566.15,616.76 L568.52,610.60 L570.88,618.81 L573.24,614.71 L575.60,606.49 L577.97,602.38 L580.33,596.22 L582.69,592.11 L585.05,596.22 L587.42,585.94 L589.78,561.29 L592.14,555.13 L594.51,553.07 L596.87,557.18 L599.23,551.02 L601.59,543.67 L603.96,558.05 L606.32,578.59 L608.68,576.54 L611.04,574.48 L613.41,566.35 L615.77,576.63 L618.13,579.87 L620.49,571.65 L622.86,565.49 L625.22,569.60 L627.58,577.81 L629.95,575.67 L632.31,573.62 L634.67,575.67 L637.03,583.89 L639.40,579.78 L641.76,579.78 L644.12,579.78 L646.48,590.05 L648.85,557.18 L651.21,553.07 L653.57,536.64 L674.84,528.42 L677.20,526.36 L679.56,520.20 L681.92,522.25 L684.29,555.13 L686.65,559.24 L689.01,565.40 L691.37,588.00 L693.74,598.27 L696.10,600.32 L698.46,596.22 L700.82,594.16 L703.19,602.38 L705.55,606.49 L707.91,602.38 L710.27,598.27 L712.64,600.32 L715.00,602.38 L717.36,608.54 L719.73,602.38 L722.09,604.43 L724.45,602.38 L726.81,600.32 L729.18,600.32 L731.54,600.32 L733.90,592.11 L736.26,596.22 L738.63,598.27 L740.99,594.16 L743.35,585.94 L745.71,581.83 L748.08,567.45 L750.44,559.24 L752.80,542.80 L755.16,532.53 L757.53,532.53 L759.89,526.36 L762.25,511.98 L764.62,511.98 L766.98,505.82 L769.34,511.98 L771.70,509.93 L774.07,511.98 L776.43,522.25 L778.79,532.53 L781.15,540.75 L783.52,553.07 L785.88,548.96 L788.24,555.13 L790.60,555.13 L792.97,561.29 L795.33,567.45 L797.69,571.56 L800.05,575.67 L802.42,583.89 L804.78,578.12 L807.14,584.29 L809.51,576.07 L811.87,584.29 L814.23,590.45 L816.59,594.56 L818.96,594.56 L821.32,614.71 L823.68,604.43 L826.04,612.65 L828.41,610.60 L830.77,608.54 L833.13,606.49 L835.49,602.38 L837.86,573.83 L840.22,586.16 L842.58,582.05 L844.95,577.94 L847.31,586.16 L849.67,582.05 L852.03,592.32 L854.40,614.71 L856.76,606.49 L859.12,610.60 L861.48,616.76 L863.85,608.54 L866.21,612.65 L868.57,608.69 L870.93,606.64 L873.30,608.69 L875.66,602.53 L878.02,596.37 L880.38,596.37 L882.75,596.37 L885.11,598.27 L887.47,596.22 L889.84,600.32 L892.20,604.43 L894.56,608.54 L896.92,606.49 L899.29,598.27 L901.65,592.11 L904.01,588.00 L906.37,588.00 L908.74,590.05 L911.10,581.83 L913.46,585.94 L915.82,598.27 L918.19,596.22 L920.55,596.22 L922.91,588.00 L925.27,590.05 L927.64,590.05 L930.00,573.62" fill="none" stroke="#60a5fa" stroke-width="2.2" stroke-linecap="round" />
</svg>
