<svg xmlns="http://www.w3.org/2000/svg" viewBox="0 0 960 720" width="960" height="720">
<rect width="960" height="720" fill="#0f172a" />
<text x="480" y="28" fill="#e2e8f0" font-size="16" font-weight="700" text-anchor="middle">心率最大值趋势图</text>
<text x="70" y="70" fill="#e2e8f0" font-size="13" font-weight="600">本月分天指标明细</text>
<line x1="70" y1="323.00" x2="930" y2="323.00" stroke="#94a3b8" stroke-opacity="0.18" stroke-width="1" />
<text x="62" y="327.00" fill="#cbd5f5" font-size="10" text-anchor="end">89.5</text>
<line x1="70" y1="260.75" x2="930" y2="260.75" stroke="#94a3b8" stroke-opacity="0.18" stroke-width="1" />
<text x="62" y="264.75" fill="#cbd5f5" font-size="10" text-anchor="end">115</text>
<line x1="70" y1="198.50" x2="930" y2="198.50" stroke="#94a3b8" stroke-opacity="0.18" stroke-width="1" />
<text x="62" y="202.50" fill="#cbd5f5" font-size="10" text-anchor="end">140.5</text>
<line x1="70" y1="136.25" x2="930" y2="136.25" stroke="#94a3b8" stroke-opacity="0.18" stroke-width="1" />
<text x="62" y="140.25" fill="#cbd5f5" font-size="10" text-anchor="end">166</text>
<line x1="70" y1="74.00" x2="930" y2="74.00" stroke="#94a3b8" stroke-opacity="0.18" stroke-width="1" />
<text x="62" y="78.00" fill="#cbd5f5" font-size="10" text-anchor="end">191.5</text>
<line x1="70.00" y1="323" x2="70.00" y2="327" stroke="#94a3b8" stroke-opacity="0.5" stroke-width="1" />
<text x="70.00" y="341" fill="#cbd5f5" font-size="10" text-anchor="middle">11-19</text>
<line x1="242.00" y1="323" x2="242.00" y2="327" stroke="#94a3b8" stroke-opacity="0.5" stroke-width="1" />
<text x="242.00" y="341" fill="#cbd5f5" font-size="10" text-anchor="middle">11-24</text>
<line x1="414.00" y1="323" x2="414.00" y2="327" stroke="#94a3b8" stroke-opacity="0.5" stroke-width="1" />
<text x="414.00" y="341" fill="#cbd5f5" font-size="10" text-anchor="middle">11-30</text>
<line x1="586.00" y1="323" x2="586.00" y2="327" stroke="#94a3b8" stroke-opacity="0.5" stroke-width="1" />
<text x="586.00" y="341" fill="#cbd5f5" font-size="10" text-anchor="middle">12-06</text>
<line x1="758.00" y1="323" x2="758.00" y2="327" stroke="#94a3b8" stroke-opacity="0.5" stroke-width="1" />
<text x="758.00" y="341" fill="#cbd5f5" font-size="10" text-anchor="middle">12-12</text>
<line x1="930.00" y1="323" x2="930.00" y2="327" stroke="#94a3b8" stroke-opacity="0.5" stroke-width="1" />
<text x="930.00" y="341" fill="#cbd5f5" font-size="10" text-anchor="middle">12-18</text>
<line x1="70" y1="74" x2="70" y2="323" stroke="#94a3b8" stroke-width="1" />
<line x1="70" y1="323" x2="930" y2="323" stroke="#94a3b8" stroke-width="1" />
<path d="M70.00,250.99 L99.66,236.34 L129.31,221.69 L158.97,175.31 L188.62,207.04 L218.28,189.96 L247.93,229.01 L277.59,189.96 L307.24,170.43 L336.90,204.60 L366.55,265.63 L396.21,302.25 L425.86,126.49 L455.52,158.22 L485.17,197.28 L514.83,177.75 L544.48,211.93 L574.14,216.81 L603.79,136.25 L633.45,150.90 L663.10,187.51 L692.76,238.78 L722.41,138.69 L752.07,231.46 L781.72,272.96 L811.38,263.19 L841.03,224.13 L870.69,233.90 L900.34,94.75 L930.00,153.34" fill="none" stroke="#60a5fa" stroke-width="2.2" stroke-linecap="round" />
<circle cx="70.00" cy="250.99" r="3" fill="#60a5fa" stroke="#0f172a" stroke-width="1" />
<text x="70.00" y="240.99" fill="#e2e8f0" font-size="9" text-anchor="middle">119</text>
<circle cx="99.66" cy="236.34" r="3" fill="#60a5fa" stroke="#0f172a" stroke-width="1" />
<text x="99.66" y="216.34" fill="#e2e8f0" font-size="9" text-anchor="middle">125</text>
<circle cx="129.31" cy="221.69" r="3" fill="#60a5fa" stroke="#0f172a" stroke-width="1" />
<text x="129.31" y="211.69" fill="#e2e8f0" font-size="9" text-anchor="middle">131</text>
<circle cx="158.97" cy="175.31" r="3" fill="#60a5fa" stroke="#0f172a" stroke-width="1" />
<text x="158.97" y="155.31" fill="#e2e8f0" font-size="9" text-anchor="middle">150</text>
<circle cx="188.62" cy="207.04" r="3" fill="#60a5fa" stroke="#0f172a" stroke-width="1" />
<text x="188.62" y="197.04" fill="#e2e8f0" font-size="9" text-anchor="middle">137</text>
<circle cx="218.28" cy="189.96" r="3" fill="#60a5fa" stroke="#0f172a" stroke-width="1" />
<text x="218.28" y="169.96" fill="#e2e8f0" font-size="9" text-anchor="middle">144</text>
<circle cx="247.93" cy="229.01" r="3" fill="#60a5fa" stroke="#0f172a" stroke-width="1" />
<text x="247.93" y="219.01" fill="#e2e8f0" font-size="9" text-anchor="middle">128</text>
<circle cx="277.59" cy="189.96" r="3" fill="#60a5fa" stroke="#0f172a" stroke-width="1" />
<text x="277.59" y="169.96" fill="#e2e8f0" font-size="9" text-anchor="middle">144</text>
<circle cx="307.24" cy="170.43" r="3" fill="#60a5fa" stroke="#0f172a" stroke-width="1" />
<text x="307.24" y="160.43" fill="#e2e8f0" font-size="9" text-anchor="middle">152</text>
<circle cx="336.90" cy="204.60" r="3" fill="#60a5fa" stroke="#0f172a" stroke-width="1" />
<text x="336.90" y="184.60" fill="#e2e8f0" font-size="9" text-anchor="middle">138</text>
<circle cx="366.55" cy="265.63" r="3" fill="#60a5fa" stroke="#0f172a" stroke-width="1" />
<text x="366.55" y="255.63" fill="#e2e8f0" font-size="9" text-anchor="middle">113</text>
<circle cx="396.21" cy="302.25" r="3" fill="#60a5fa" stroke="#0f172a" stroke-width="1" />
<text x="396.21" y="282.25" fill="#e2e8f0" font-size="9" text-anchor="middle">98</text>
<circle cx="425.86" cy="126.49" r="3" fill="#60a5fa" stroke="#0f172a" stroke-width="1" />
<text x="425.86" y="116.49" fill="#e2e8f0" font-size="9" text-anchor="middle">170</text>
<circle cx="455.52" cy="158.22" r="3" fill="#60a5fa" stroke="#0f172a" stroke-width="1" />
<text x="455.52" y="138.22" fill="#e2e8f0" font-size="9" text-anchor="middle">157</text>
<circle cx="485.17" cy="197.28" r="3" fill="#60a5fa" stroke="#0f172a" stroke-width="1" />
<text x="485.17" y="187.28" fill="#e2e8f0" font-size="9" text-anchor="middle">141</text>
<circle cx="514.83" cy="177.75" r="3" fill="#60a5fa" stroke="#0f172a" stroke-width="1" />
<text x="514.83" y="157.75" fill="#e2e8f0" font-size="9" text-anchor="middle">149</text>
<circle cx="544.48" cy="211.93" r="3" fill="#60a5fa" stroke="#0f172a" stroke-width="1" />
<text x="544.48" y="201.93" fill="#e2e8f0" font-size="9" text-anchor="middle">135</text>
<circle cx="574.14" cy="216.81" r="3" fill="#60a5fa" stroke="#0f172a" stroke-width="1" />
<text x="574.14" y="196.81" fill="#e2e8f0" font-size="9" text-anchor="middle">133</text>
<circle cx="603.79" cy="136.25" r="3" fill="#60a5fa" stroke="#0f172a" stroke-width="1" />
<text x="603.79" y="126.25" fill="#e2e8f0" font-size="9" text-anchor="middle">166</text>
<circle cx="633.45" cy="150.90" r="3" fill="#60a5fa" stroke="#0f172a" stroke-width="1" />
<text x="633.45" y="130.90" fill="#e2e8f0" font-size="9" text-anchor="middle">160</text>
<circle cx="663.10" cy="187.51" r="3" fill="#60a5fa" stroke="#0f172a" stroke-width="1" />
<text x="663.10" y="177.51" fill="#e2e8f0" font-size="9" text-anchor="middle">145</text>
<circle cx="692.76" cy="238.78" r="3" fill="#60a5fa" stroke="#0f172a" stroke-width="1" />
<text x="692.76" y="218.78" fill="#e2e8f0" font-size="9" text-anchor="middle">124</text>
<circle cx="722.41" cy="138.69" r="3" fill="#60a5fa" stroke="#0f172a" stroke-width="1" />
<text x="722.41" y="128.69" fill="#e2e8f0" font-size="9" text-anchor="middle">165</text>
<circle cx="752.07" cy="231.46" r="3" fill="#60a5fa" stroke="#0f172a" stroke-width="1" />
<text x="752.07" y="211.46" fill="#e2e8f0" font-size="9" text-anchor="middle">127</text>
<circle cx="781.72" cy="272.96" r="3" fill="#60a5fa" stroke="#0f172a" stroke-width="1" />
<text x="781.72" y="262.96" fill="#e2e8f0" font-size="9" text-anchor="middle">110</text>
<circle cx="811.38" cy="263.19" r="3" fill="#60a5fa" stroke="#0f172a" stroke-width="1" />
<text x="811.38" y="243.19" fill="#e2e8f0" font-size="9" text-anchor="middle">114</text>
<circle cx="841.03" cy="224.13" r="3" fill="#60a5fa" stroke="#0f172a" stroke-width="1" />
<text x="841.03" y="214.13" fill="#e2e8f0" font-size="9" text-anchor="middle">130</text>
<circle cx="870.69" cy="233.90" r="3" fill="#60a5fa" stroke="#0f172a" stroke-width="1" />
<text x="870.69" y="213.90" fill="#e2e8f0" font-size="9" text-anchor="middle">126</text>
<circle cx="900.34" cy="94.75" r="3" fill="#60a5fa" stroke="#0f172a" stroke-width="1" />
<text x="900.34" y="84.75" fill="#e2e8f0" font-size="9" text-anchor="middle">183</text>
<circle cx="930.00" cy="153.34" r="3" fill="#60a5fa" stroke="#0f172a" stroke-width="1" />
<text x="930.00" y="133.34" fill="#e2e8f0" font-size="9" text-anchor="middle">159</text>
<text x="70" y="403" fill="#e2e8f0" font-size="13" font-weight="600">本年核心指标趋势（滑动7日窗口平均）</text>
<line x1="70" y1="656.00" x2="930" y2="656.00" stroke="#94a3b8" stroke-opacity="0.18" stroke-width="1" />
<text x="62" y="660.00" fill="#cbd5f5" font-size="10" text-anchor="end">101.8</text>
<line x1="70" y1="593.75" x2="930" y2="593.75" stroke="#94a3b8" stroke-opacity="0.18" stroke-width="1" />
<text x="62" y="597.75" fill="#cbd5f5" font-size="10" text-anchor="end">117.5</text>
<line x1="70" y1="531.50" x2="930" y2="531.50" stroke="#94a3b8" stroke-opacity="0.18" stroke-width="1" />
<text x="62" y="535.50" fill="#cbd5f5" font-size="10" text-anchor="end">133.1</text>
<line x1="70" y1="469.25" x2="930" y2="469.25" stroke="#94a3b8" stroke-opacity="0.18" stroke-width="1" />
<text x="62" y="473.25" fill="#cbd5f5" font-size="10" text-anchor="end">148.8</text>
<line x1="70" y1="407.00" x2="930" y2="407.00" stroke="#94a3b8" stroke-opacity="0.18" stroke-width="1" />
<text x="62" y="411.00" fill="#cbd5f5" font-size="10" text-anchor="end">164.5</text>
<line x1="70.00" y1="656" x2="70.00" y2="660" stroke="#94a3b8" stroke-opacity="0.5" stroke-width="1" />
<text x="70.00" y="674" fill="#cbd5f5" font-size="10" text-anchor="middle">2024-12</text>
<line x1="242.00" y1="656" x2="242.00" y2="660" stroke="#94a3b8" stroke-opacity="0.5" stroke-width="1" />
<text x="242.00" y="674" fill="#cbd5f5" font-size="10" text-anchor="middle">2025-03</text>
<line x1="414.00" y1="656" x2="414.00" y2="660" stroke="#94a3b8" stroke-opacity="0.5" stroke-width="1" />
<text x="414.00" y="674" fill="#cbd5f5" font-size="10" text-anchor="middle">2025-05</text>
<line x1="586.00" y1="656" x2="586.00" y2="660" stroke="#94a3b8" stroke-opacity="0.5" stroke-width="1" />
<text x="586.00" y="674" fill="#cbd5f5" font-size="10" text-anchor="middle">2025-07</text>
<line x1="758.00" y1="656" x2="758.00" y2="660" stroke="#94a3b8" stroke-opacity="0.5" stroke-width="1" />
<text x="758.00" y="674" fill="#cbd5f5" font-size="10" text-anchor="middle">2025-10</text>
<line x1="930.00" y1="656" x2="930.00" y2="660" stroke="#94a3b8" stroke-opacity="0.5" stroke-width="1" />
<text x="930.00" y="674" fill="#cbd5f5" font-size="10" text-anchor="middle">2025-12</text>
<line x1="70" y1="407" x2="70" y2="656" stroke="#94a3b8" stroke-width="1" />
<line x1="70" y1="656" x2="930" y2="656" stroke="#94a3b8" stroke-width="1" />
<path d="M70.00,656.00 L70.00,480.48 L72.36,466.59 L74.73,451.37 L77.09,462.62 L79.45,463.81 L81.81,469.89 L84.18,480.48 L86.54,495.78 L88.90,504.29 L91.26,518.46 L93.63,525.26 L95.99,538.30 L98.35,542.84 L100.71,517.89 L103.08,511.66 L105.44,513.36 L107.80,502.02 L110.16,489.55 L112.53,486.71 L114.89,481.04 L117.25,483.31 L119.62,464.60 L121.98,464.03 L124.34,478.77 L126.70,466.87 L129.07,469.70 L131.43,474.24 L133.79,494.08 L136.15,515.63 L138.52,512.79 L140.88,511.09 L143.24,538.87 L145.60,534.33 L147.97,518.46 L150.33,515.63 L152.69,506.55 L155.05,512.22 L157.42,520.73 L159.78,503.72 L162.14,519.59 L164.51,540.57 L166.87,535.47 L169.23,564.38 L171.59,558.15 L173.96,546.81 L176.32,584.23 L178.68,563.82 L181.04,536.60 L183.41,542.27 L185.77,523.00 L188.13,524.13 L190.49,517.33 L192.86,490.68 L195.22,504.29 L197.58,534.33 L199.95,533.20 L202.31,528.10 L204.67,530.93 L207.03,540.00 L209.40,528.22 L211.76,522.55 L214.12,516.88 L216.48,523.68 L218.85,524.81 L221.21,514.04 L223.57,518.01 L225.93,523.58 L228.30,521.32 L230.66,516.21 L233.02,506.84 L235.38,493.80 L237.75,509.67 L240.11,501.74 L242.47,498.31 L244.84,501.15 L247.20,501.15 L249.56,493.52 L251.92,498.34 L254.29,488.70 L256.65,484.73 L259.01,509.68 L261.37,519.32 L263.74,523.99 L266.10,532.63 L268.46,551.05 L270.82,558.57 L273.19,586.01 L275.55,585.45 L277.91,581.48 L280.27,586.44 L282.64,583.11 L285.00,563.31 L287.36,555.04 L289.73,534.40 L292.09,506.79 L294.45,500.55 L296.81,478.96 L299.18,485.12 L301.54,482.70 L303.90,493.66 L306.26,502.17 L308.63,509.93 L310.99,500.81 L313.35,506.83 L315.71,502.53 L318.08,506.61 L320.44,500.38 L322.80,503.21 L325.16,484.50 L327.53,478.32 L329.89,484.43 L332.25,487.56 L334.62,493.50 L336.98,483.73 L339.34,480.89 L341.70,509.81 L344.07,508.11 L346.43,499.99 L348.79,494.41 L351.15,488.91 L353.52,490.18 L355.88,480.54 L358.24,476.56 L360.60,490.71 L362.97,507.72 L365.33,512.79 L367.69,518.64 L370.05,523.74 L372.42,529.61 L374.78,531.33 L377.14,537.01 L379.51,524.54 L381.87,536.29 L384.23,518.66 L386.59,524.32 L388.96,529.23 L391.32,528.10 L393.68,504.92 L396.04,512.85 L398.41,507.18 L400.77,518.90 L403.13,521.17 L405.49,527.98 L407.86,521.17 L410.22,533.02 L412.58,528.48 L414.95,509.34 L417.31,516.00 L419.67,514.86 L422.03,508.63 L424.40,517.13 L426.76,502.39 L429.12,499.56 L431.48,519.04 L433.85,511.99 L436.21,510.29 L438.57,504.62 L440.93,518.23 L443.30,542.61 L445.66,541.48 L448.02,549.08 L450.38,554.18 L452.75,544.54 L455.11,536.60 L457.47,521.30 L459.84,501.31 L462.20,513.79 L464.56,506.42 L466.92,509.25 L469.29,522.86 L471.65,528.53 L474.01,521.16 L476.37,535.47 L478.74,528.10 L481.10,525.23 L483.46,514.54 L485.82,497.53 L488.19,502.07 L490.55,515.11 L492.91,525.31 L495.27,521.34 L497.64,527.05 L500.00,530.93 L502.36,532.63 L504.73,526.96 L507.09,510.72 L509.45,493.71 L511.81,480.67 L514.18,471.80 L516.54,477.35 L518.90,486.42 L521.26,464.88 L523.63,473.19 L525.99,474.32 L528.35,500.97 L530.71,491.70 L533.08,481.61 L535.44,479.34 L537.80,499.75 L540.16,497.48 L542.53,503.15 L544.89,488.41 L547.25,499.75 L549.62,512.22 L551.98,505.99 L554.34,505.42 L556.70,513.36 L559.07,515.65 L561.43,517.92 L563.79,539.46 L566.15,537.19 L568.52,544.89 L570.88,548.86 L573.24,557.93 L575.60,558.25 L577.97,559.38 L580.33,518.56 L582.69,511.76 L585.05,509.73 L587.42,506.89 L589.78,501.79 L592.14,493.52 L594.51,491.25 L596.87,506.55 L599.23,505.42 L601.59,503.72 L603.96,498.05 L606.32,478.78 L608.68,486.15 L611.04,496.36 L613.41,500.89 L615.77,511.10 L618.13,515.63 L620.49,526.40 L622.86,533.77 L625.22,532.07 L627.58,526.40 L629.95,524.13 L632.31,520.73 L634.67,521.86 L637.03,521.86 L639.40,529.80 L641.76,532.07 L644.12,529.80 L646.48,534.33 L648.85,550.21 L651.21,560.41 L653.57,537.74 L674.84,528.10 L677.20,524.13 L679.56,528.67 L681.92,517.89 L684.29,490.11 L686.65,453.83 L689.01,481.04 L691.37,492.95 L693.74,487.85 L696.10,481.61 L698.46,478.21 L700.82,477.07 L703.19,491.25 L705.55,482.74 L707.91,478.77 L710.27,475.94 L712.64,479.34 L715.00,478.21 L717.36,478.21 L719.73,487.28 L722.09,495.78 L724.45,492.38 L726.81,491.25 L729.18,503.72 L731.54,503.15 L733.90,504.85 L736.26,510.52 L738.63,488.41 L740.99,487.28 L743.35,487.85 L745.71,486.14 L748.08,521.30 L750.44,542.84 L752.80,553.61 L755.16,590.46 L757.53,605.77 L759.89,627.88 L762.25,635.25 L764.62,617.67 L766.98,608.04 L769.34,597.83 L771.70,573.45 L774.07,563.25 L776.43,554.18 L778.79,525.26 L781.15,513.92 L783.52,513.92 L785.88,496.92 L788.24,502.59 L790.60,486.14 L792.97,478.21 L795.33,485.58 L797.69,485.01 L800.05,485.58 L802.42,474.81 L804.78,472.54 L807.14,488.98 L809.51,491.25 L811.87,498.05 L814.23,502.02 L816.59,512.22 L818.96,553.04 L821.32,528.67 L823.68,505.99 L826.04,490.68 L828.41,473.67 L830.77,481.61 L833.13,471.40 L835.49,427.75 L837.86,454.40 L840.22,480.48 L842.58,508.26 L844.95,524.70 L847.31,527.53 L849.67,531.50 L852.03,564.38 L854.40,572.89 L856.76,576.29 L859.12,574.02 L861.48,581.96 L863.85,581.39 L866.21,578.56 L868.57,564.38 L870.93,549.08 L873.30,533.20 L875.66,530.37 L878.02,516.19 L880.38,500.89 L882.75,496.92 L885.11,517.89 L887.47,540.00 L889.84,525.26 L892.20,508.82 L894.56,510.52 L896.92,512.22 L899.29,513.92 L901.65,502.59 L904.01,464.03 L906.37,469.70 L908.74,476.51 L911.10,486.14 L913.46,477.07 L915.82,481.61 L918.19,494.65 L920.55,524.13 L922.91,541.14 L925.27,551.91 L927.64,518.46 L930.00,521.86 L930.00,656.00 Z" fill="#60a5fa" fill-opacity="0.16" stroke="none" />
<path d="M70.00,480.48 L72.36,466.59 L74.73,451.37 L77.09,462.62 L79.45,463.81 L81.81,469.89 L84.18,480.48 L86.54,495.78 L88.90,504.29 L91.26,518.46 L93.63,525.26 L95.99,538.30 L98.35,542.84 L100.71,517.89 L103.08,511.66 L105.44,513.36 L107.80,502.02 L110.16,489.55 L112.53,486.71 L114.89,481.04 L117.25,483.31 L119.62,464.60 L121.98,464.03 L124.34,478.77 L126.70,466.87 L129.07,469.70 L131.43,474.24 L133.79,494.08 L136.15,515.63 L138.52,512.79 L140.88,511.09 L143.24,538.87 L145.60,534.33 L147.97,518.46 L150.33,515.63 L152.69,506.55 L155.05,512.22 L157.42,520.73 L159.78,503.72 L162.14,519.59 L164.51,540.57 L166.87,535.47 L169.23,564.38 L171.59,558.15 L173.96,546.81 L176.32,584.23 L178.68,563.82 L181.04,536.60 L183.41,542.27 L185.77,523.00 L188.13,524.13 L190.49,517.33 L192.86,490.68 L195.22,504.29 L197.58,534.33 L199.95,533.20 L202.31,528.10 L204.67,530.93 L207.03,540.00 L209.40,528.22 L211.76,522.55 L214.12,516.88 L216.48,523.68 L218.85,524.81 L221.21,514.04 L223.57,518.01 L225.93,523.58 L228.30,521.32 L230.66,516.21 L233.02,506.84 L235.38,493.80 L237.75,509.67 L240.11,501.74 L242.47,498.31 L244.84,501.15 L247.20,501.15 L249.56,493.52 L251.92,498.34 L254.29,488.70 L256.65,484.73 L259.01,509.68 L261.37,519.32 L263.74,523.99 L266.10,532.63 L268.46,551.05 L270.82,558.57 L273.19,586.01 L275.55,585.45 L277.91,581.48 L280.27,586.44 L282.64,583.11 L285.00,563.31 L287.36,555.04 L289.73,534.40 L292.09,506.79 L294.45,500.55 L296.81,478.96 L299.18,485.12 L301.54,482.70 L303.90,493.66 L306.26,502.17 L308.63,509.93 L310.99,500.81 L313.35,506.83 L315.71,502.53 L318.08,506.61 L320.44,500.38 L322.80,503.21 L325.16,484.50 L327.53,478.32 L329.89,484.43 L332.25,487.56 L334.62,493.50 L336.98,483.73 L339.34,480.89 L341.70,509.81 L344.07,508.11 L346.43,499.99 L348.79,494.41 L351.15,488.91 L353.52,490.18 L355.88,480.54 L358.24,476.56 L360.60,490.71 L362.97,507.72 L365.33,512.79 L367.69,518.64 L370.05,523.74 L372.42,529.61 L374.78,531.33 L377.14,537.01 L379.51,524.54 L381.87,536.29 L384.23,518.66 L386.59,524.32 L388.96,529.23 L391.32,528.10 L393.68,504.92 L396.04,512.85 L398.41,507.18 L400.77,518.90 L403.13,521.17 L405.49,527.98 L407.86,521.17 L410.22,533.02 L412.58,528.48 L414.95,509.34 L417.31,516.00 L419.67,514.86 L422.03,508.63 L424.40,517.13 L426.76,502.39 L429.12,499.56 L431.48,519.04 L433.85,511.99 L436.21,510.29 L438.57,504.62 L440.93,518.23 L443.30,542.61 L445.66,541.48 L448.02,549.08 L450.38,554.18 L452.75,544.54 L455.11,536.60 L457.47,521.30 L459.84,501.31 L462.20,513.79 L464.56,506.42 L466.92,509.25 L469.29,522.86 L471.65,528.53 L474.01,521.16 L476.37,535.47 L478.74,528.10 L481.10,525.23 L483.46,514.54 L485.82,497.53 L488.19,502.07 L490.55,515.11 L492.91,525.31 L495.27,521.34 L497.64,527.05 L500.00,530.93 L502.36,532.63 L504.73,526.96 L507.09,510.72 L509.45,493.71 L511.81,480.67 L514.18,471.80 L516.54,477.35 L518.90,486.42 L521.26,464.88 L523.63,473.19 L525.99,474.32 L528.35,500.97 L530.71,491.70 L533.08,481.61 L535.44,479.34 L537.80,499.75 L540.16,497.48 L542.53,503.15 L544.89,488.41 L547.25,499.75 L549.62,512.22 L551.98,505.99 L554.34,505.42 L556.70,513.36 L559.07,515.65 L561.43,517.92 L563.79,539.46 L566.15,537.19 L568.52,544.89 L570.88,548.86 L573.24,557.93 L575.60,558.25 L577.97,559.38 L580.33,518.56 L582.69,511.76 L585.05,509.73 L587.42,506.89 L589.78,501.79 L592.14,493.52 L594.51,491.25 L596.87,506.55 L599.23,505.42 L601.59,503.72 L603.96,498.05 L606.32,478.78 L608.68,486.15 L611.04,496.36 L613.41,500.89 L615.77,511.10 L618.13,515.63 L620.49,526.40 L622.86,533.77 L625.22,532.07 L627.58,526.40 L629.95,524.13 L632.31,520.73 L634.67,521.86 L637.03,521.86 L639.40,529.80 L641.76,532.07 L644.12,529.80 L646.48,534.33 L648.85,550.21 L651.21,560.41 L653.57,537.74 L674.84,528.10 L677.20,524.13 L679.56,528.67 L681.92,517.89 L684.29,490.11 L686.65,453.83 L689.01,481.04 L691.37,492.95 L693.74,487.85 L696.10,481.61 L698.46,478.21 L700.82,477.07 L703.19,491.25 L705.55,482.74 L707.91,478.77 L710.27,475.94 L712.64,479.34 L715.00,478.21 L717.36,478.21 L719.73,487.28 L722.09,495.78 L724.45,492.38 L726.81,491.25 L729.18,503.72 L731.54,503.15 L733.90,504.85 L736.26,510.52 L738.63,488.41 L740.99,487.28 L743.35,487.85 L745.71,486.14 L748.08,521.30 L750.44,542.84 L752.80,553.61 L755.16,590.46 L757.53,605.77 L759.89,627.88 L762.25,635.25 L764.62,617.67 L766.98,608.04 L769.34,597.83 L771.70,573.45 L774.07,563.25 L776.43,554.18 L778.79,525.26 L781.15,513.92 L783.52,513.92 L785.88,496.92 L788.24,502.59 L790.60,486.14 L792.97,478.21 L795.33,485.58 L797.69,485.01 L800.05,485.58 L802.42,474.81 L804.78,472.54 L807.14,488.98 L809.51,491.25 L811.87,498.05 L814.23,502.02 L816.59,512.22 L818.96,553.04 L821.32,528.67 L823.68,505.99 L826.04,490.68 L828.41,473.67 L830.77,481.61 L833.13,471.40 L835.49,427.75 L837.86,454.40 L840.22,480.48 L842.58,508.26 L844.95,524.70 L847.31,527.53 L849.67,531.50 L852.03,564.38 L854.40,572.89 L856.76,576.29 L859.12,574.02 L861.48,581.96 L863.85,581.39 L866.21,578.56 L868.57,564.38 L870.93,549.08 L873.30,533.20 L875.66,530.37 L878.02,516.19 L880.38,500.89 L882.75,496.92 L885.11,517.89 L887.47,540.00 L889.84,525.26 L892.20,508.82 L894.56,510.52 L896.92,512.22 L899.29,513.92 L901.65,502.59 L904.01,464.03 L906.37,469.70 L908.74,476.51 L911.10,486.14 L913.46,477.07 L915.82,481.61 L918.19,494.65 L920.55,524.13 L922.91,541.14 L925.27,551.91 L927.64,518.46 L930.00,521.86" fill="none" stroke="#60a5fa" stroke-width="2.2" stroke-linecap="round" />
</svg>
