<svg xmlns="http://www.w3.org/2000/svg" viewBox="0 0 960 640" width="960" height="640">
  <rect width="960" height="640" fill="#0f172a" />
  <line x1="40" y1="40.00" x2="920.00" y2="40.00" stroke="#94a3b8" stroke-opacity="0.18" stroke-width="1" /><line x1="40" y1="128.00" x2="920.00" y2="128.00" stroke="#94a3b8" stroke-opacity="0.18" stroke-width="1" /><line x1="40" y1="216.00" x2="920.00" y2="216.00" stroke="#94a3b8" stroke-opacity="0.18" stroke-width="1" /><line x1="40" y1="304.00" x2="920.00" y2="304.00" stroke="#94a3b8" stroke-opacity="0.18" stroke-width="1" />
  <line x1="40" y1="336.00" x2="920.00" y2="336.00" stroke="#94a3b8" stroke-opacity="0.18" stroke-width="1" /><line x1="40" y1="424.00" x2="920.00" y2="424.00" stroke="#94a3b8" stroke-opacity="0.18" stroke-width="1" /><line x1="40" y1="512.00" x2="920.00" y2="512.00" stroke="#94a3b8" stroke-opacity="0.18" stroke-width="1" /><line x1="40" y1="600.00" x2="920.00" y2="600.00" stroke="#94a3b8" stroke-opacity="0.18" stroke-width="1" />
  <line x1="40" y1="320.00" x2="920.00" y2="320.00" stroke="#1f2937" stroke-width="1" />
  <polyline points="40.00,164.69 70.34,195.07 100.69,290.73 131.03,40.00 161.38,187.85 191.72,89.57 222.07,299.98 252.41,217.47 282.76,168.53 313.10,81.05 343.45,242.19 373.79,92.73 404.14,277.62 434.48,215.64 464.83,146.17 495.17,214.97 525.52,284.59 555.86,137.06 586.21,197.48 616.55,192.80 646.90,198.16 677.24,106.16 707.59,107.31 737.93,206.27 768.28,253.06 798.62,205.60 828.97,172.68 859.31,60.69 889.66,207.75 920.00,304.00" fill="none" stroke="#60a5fa" stroke-width="2" stroke-linecap="round" stroke-linejoin="round" />
  <polyline points="40.00,600.00 42.74,497.41 45.48,416.33 48.22,442.22 50.97,447.82 53.71,452.29 56.45,471.18 59.19,472.63 61.93,488.92 64.67,525.09 67.41,519.49 70.16,541.71 72.90,557.50 75.64,542.10 78.38,536.62 81.12,561.26 83.86,588.46 86.60,587.85 89.35,545.34 92.09,528.96 94.83,543.44 97.57,530.46 100.31,493.36 103.05,460.81 105.79,464.91 108.54,474.41 111.28,480.42 114.02,460.30 116.76,441.33 119.50,427.88 122.24,428.46 124.98,424.15 127.73,412.79 130.47,388.25 133.21,369.41 135.95,360.49 138.69,380.40 141.43,376.32 144.17,378.21 146.92,403.81 149.66,421.16 152.40,430.35 155.14,442.70 157.88,434.26 160.62,418.42 163.36,410.24 166.11,410.34 168.85,410.30 171.59,419.63 174.33,458.02 177.07,467.93 179.81,470.73 182.55,455.32 185.30,445.93 188.04,436.70 190.78,439.03 193.52,409.75 196.26,379.83 199.00,376.59 201.74,392.26 204.49,396.39 207.23,394.09 209.97,384.60 212.71,382.56 215.45,398.77 218.19,415.61 220.93,412.90 223.68,396.26 226.42,398.87 229.16,386.46 231.90,381.46 234.64,376.76 237.38,371.79 240.12,353.25 242.87,357.25 245.61,365.79 248.35,377.31 251.09,392.14 253.83,392.41 256.57,383.04 259.31,395.96 262.06,408.93 264.80,397.26 267.54,413.36 270.28,408.83 273.02,419.72 275.76,409.39 278.50,408.31 281.25,410.09 283.99,426.88 286.73,411.99 289.47,412.61 292.21,420.36 294.95,438.16 297.69,443.96 300.44,428.92 303.18,419.50 305.92,429.84 308.66,382.20 311.40,378.61 314.14,383.72 316.88,398.06 319.63,421.05 322.37,424.61 325.11,431.59 327.85,445.89 330.59,426.20 333.33,429.83 336.07,397.82 338.82,376.06 341.56,379.02 344.30,352.81 347.04,374.53 349.78,384.35 352.52,371.52 355.26,395.56 358.01,387.57 360.75,390.64 363.49,400.89 366.23,389.51 368.97,362.31 371.71,364.58 374.45,358.75 377.20,379.43 379.94,346.67 382.68,373.24 385.42,398.51 388.16,424.65 390.90,408.98 393.64,420.52 396.39,425.59 399.13,457.66 401.87,436.60 404.61,441.58 407.35,422.14 410.09,441.97 412.83,435.19 415.58,417.87 418.32,409.25 421.06,380.09 423.80,384.78 426.54,424.50 429.28,445.67 432.02,454.52 434.77,458.18 437.51,459.64 440.25,493.36 442.99,462.94 445.73,453.36 448.47,427.83 451.21,410.35 453.96,421.67 456.70,420.76 459.44,408.85 462.18,409.41 464.92,392.80 467.66,372.99 470.40,372.84 473.15,359.64 475.89,367.01 478.63,372.15 481.37,381.09 484.11,374.80 486.85,407.63 489.60,425.47 492.34,412.35 495.08,422.03 497.82,433.82 500.56,447.25 503.30,476.60 506.04,473.01 508.79,474.53 511.53,496.03 514.27,487.38 517.01,447.43 519.75,450.05 522.49,440.03 525.23,440.21 527.98,420.22 530.72,423.68 533.46,405.29 536.20,438.24 538.94,410.02 541.68,414.19 544.42,418.49 547.17,442.07 549.91,447.46 552.65,474.71 555.39,467.35 558.13,490.86 560.87,477.53 563.61,462.85 566.36,448.03 569.10,428.13 571.84,402.60 574.58,391.41 577.32,365.79 580.06,392.10 582.80,384.19 585.55,380.99 588.29,364.47 591.03,366.92 593.77,383.29 596.51,406.98 599.25,367.20 601.99,384.08 604.74,390.76 607.48,412.97 610.22,399.06 612.96,382.61 615.70,407.71 618.44,431.08 621.18,441.60 623.93,458.52 626.67,451.05 629.41,432.60 632.15,436.53 634.89,411.01 637.63,408.97 640.37,388.89 643.12,357.35 645.86,360.56 648.60,394.71 651.34,390.10 654.08,377.03 656.82,360.62 659.56,367.63 662.31,389.10 665.05,385.98 667.79,376.09 670.53,399.34 673.27,404.66 676.01,403.70 678.75,413.46 681.50,423.41 684.24,450.07 686.98,464.49 689.72,451.97 692.46,465.47 695.20,483.61 697.94,487.18 700.69,477.89 703.43,434.56 706.17,432.59 708.91,438.33 711.65,431.82 714.39,428.50 717.13,408.64 719.88,389.61 722.62,421.93 725.36,441.13 728.10,434.90 730.84,434.06 733.58,449.93 736.32,454.67 739.07,460.94 741.81,459.07 744.55,454.00 747.29,460.92 750.03,462.22 752.77,467.54 755.51,474.19 758.26,482.56 761.00,472.49 763.74,444.61 766.48,443.28 769.22,440.79 771.96,427.35 774.70,408.16 777.45,392.58 780.19,402.84 782.93,416.48 785.67,422.43 788.41,420.19 791.15,409.10 793.89,432.45 796.64,441.11 799.38,454.81 802.12,449.04 804.86,408.17 807.60,399.29 810.34,433.46 813.08,436.11 815.83,428.81 818.57,408.38 821.31,419.35 824.05,450.98 826.79,467.40 829.53,434.50 832.27,412.48 835.02,425.98 837.76,418.44 840.50,402.42 843.24,399.79 845.98,404.00 848.72,375.58 851.46,379.03 854.21,346.32 856.95,369.58 859.69,379.23 862.43,374.38 865.17,336.00 867.91,373.01 870.65,355.60 873.40,390.01 876.14,374.58 878.88,361.53 881.62,370.03 884.36,407.28 887.10,388.04 889.84,407.21 892.59,391.69 895.33,388.49 898.07,381.17 900.81,361.46 903.55,347.13 906.29,368.36 909.03,369.84 911.78,366.16 914.52,341.00 917.26,359.60 920.00,395.59" fill="none" stroke="#60a5fa" stroke-width="2" stroke-linecap="round" stroke-linejoin="round" />
  
  
  </svg>