<svg xmlns="http://www.w3.org/2000/svg" viewBox="0 0 960 720" width="960" height="720">
<rect width="960" height="720" fill="#0f172a" />
<text x="480" y="28" fill="#e2e8f0" font-size="16" font-weight="700" text-anchor="middle">HRV-SDNN均值趋势图</text>
<text x="70" y="70" fill="#e2e8f0" font-size="13" font-weight="600">本月分天指标明细</text>
<line x1="70" y1="323.00" x2="930" y2="323.00" stroke="#94a3b8" stroke-opacity="0.18" stroke-width="1" />
<text x="62" y="327.00" fill="#cbd5f5" font-size="10" text-anchor="end">43.5</text>
<line x1="70" y1="260.75" x2="930" y2="260.75" stroke="#94a3b8" stroke-opacity="0.18" stroke-width="1" />
<text x="62" y="264.75" fill="#cbd5f5" font-size="10" text-anchor="end">54.1</text>
<line x1="70" y1="198.50" x2="930" y2="198.50" stroke="#94a3b8" stroke-opacity="0.18" stroke-width="1" />
<text x="62" y="202.50" fill="#cbd5f5" font-size="10" text-anchor="end">64.7</text>
<line x1="70" y1="136.25" x2="930" y2="136.25" stroke="#94a3b8" stroke-opacity="0.18" stroke-width="1" />
<text x="62" y="140.25" fill="#cbd5f5" font-size="10" text-anchor="end">75.3</text>
<line x1="70" y1="74.00" x2="930" y2="74.00" stroke="#94a3b8" stroke-opacity="0.18" stroke-width="1" />
<text x="62" y="78.00" fill="#cbd5f5" font-size="10" text-anchor="end">85.9</text>
<line x1="70.00" y1="323" x2="70.00" y2="327" stroke="#94a3b8" stroke-opacity="0.5" stroke-width="1" />
<text x="70.00" y="341" fill="#cbd5f5" font-size="10" text-anchor="middle">11-19</text>
<line x1="242.00" y1="323" x2="242.00" y2="327" stroke="#94a3b8" stroke-opacity="0.5" stroke-width="1" />
<text x="242.00" y="341" fill="#cbd5f5" font-size="10" text-anchor="middle">11-24</text>
<line x1="414.00" y1="323" x2="414.00" y2="327" stroke="#94a3b8" stroke-opacity="0.5" stroke-width="1" />
<text x="414.00" y="341" fill="#cbd5f5" font-size="10" text-anchor="middle">11-30</text>
<line x1="586.00" y1="323" x2="586.00" y2="327" stroke="#94a3b8" stroke-opacity="0.5" stroke-width="1" />
<text x="586.00" y="341" fill="#cbd5f5" font-size="10" text-anchor="middle">12-06</text>
<line x1="758.00" y1="323" x2="758.00" y2="327" stroke="#94a3b8" stroke-opacity="0.5" stroke-width="1" />
<text x="758.00" y="341" fill="#cbd5f5" font-size="10" text-anchor="middle">12-12</text>
<line x1="930.00" y1="323" x2="930.00" y2="327" stroke="#94a3b8" stroke-opacity="0.5" stroke-width="1" />
<text x="930.00" y="341" fill="#cbd5f5" font-size="10" text-anchor="middle">12-18</text>
<line x1="70" y1="74" x2="70" y2="323" stroke="#94a3b8" stroke-width="1" />
<line x1="70" y1="323" x2="930" y2="323" stroke="#94a3b8" stroke-width="1" />
<path d="M70.00,192.75 L99.66,216.64 L129.31,291.82 L158.97,94.75 L188.62,210.96 L218.28,133.71 L247.93,299.09 L277.59,234.24 L307.24,195.77 L336.90,127.01 L366.55,253.67 L396.21,136.19 L425.86,281.52 L455.52,232.80 L485.17,178.20 L514.83,232.28 L544.48,287.00 L574.14,171.04 L603.79,218.53 L633.45,214.85 L663.10,219.06 L692.76,146.75 L722.41,147.65 L752.07,225.44 L781.72,262.21 L811.38,224.91 L841.03,199.03 L870.69,111.01 L900.34,226.60 L930.00,302.25" fill="none" stroke="#60a5fa" stroke-width="2.2" stroke-linecap="round" />
<circle cx="70.00" cy="192.75" r="3" fill="#60a5fa" stroke="#0f172a" stroke-width="1" />
<text x="70.00" y="182.75" fill="#e2e8f0" font-size="9" text-anchor="middle">65.6</text>
<circle cx="99.66" cy="216.64" r="3" fill="#60a5fa" stroke="#0f172a" stroke-width="1" />
<text x="99.66" y="196.64" fill="#e2e8f0" font-size="9" text-anchor="middle">61.6</text>
<circle cx="129.31" cy="291.82" r="3" fill="#60a5fa" stroke="#0f172a" stroke-width="1" />
<text x="129.31" y="281.82" fill="#e2e8f0" font-size="9" text-anchor="middle">48.8</text>
<circle cx="158.97" cy="94.75" r="3" fill="#60a5fa" stroke="#0f172a" stroke-width="1" />
<text x="158.97" y="108.75" fill="#e2e8f0" font-size="9" text-anchor="middle">82.3</text>
<circle cx="188.62" cy="210.96" r="3" fill="#60a5fa" stroke="#0f172a" stroke-width="1" />
<text x="188.62" y="200.96" fill="#e2e8f0" font-size="9" text-anchor="middle">62.5</text>
<circle cx="218.28" cy="133.71" r="3" fill="#60a5fa" stroke="#0f172a" stroke-width="1" />
<text x="218.28" y="113.71" fill="#e2e8f0" font-size="9" text-anchor="middle">75.7</text>
<circle cx="247.93" cy="299.09" r="3" fill="#60a5fa" stroke="#0f172a" stroke-width="1" />
<text x="247.93" y="289.09" fill="#e2e8f0" font-size="9" text-anchor="middle">47.5</text>
<circle cx="277.59" cy="234.24" r="3" fill="#60a5fa" stroke="#0f172a" stroke-width="1" />
<text x="277.59" y="214.24" fill="#e2e8f0" font-size="9" text-anchor="middle">58.6</text>
<circle cx="307.24" cy="195.77" r="3" fill="#60a5fa" stroke="#0f172a" stroke-width="1" />
<text x="307.24" y="185.77" fill="#e2e8f0" font-size="9" text-anchor="middle">65.1</text>
<circle cx="336.90" cy="127.01" r="3" fill="#60a5fa" stroke="#0f172a" stroke-width="1" />
<text x="336.90" y="107.01" fill="#e2e8f0" font-size="9" text-anchor="middle">76.8</text>
<circle cx="366.55" cy="253.67" r="3" fill="#60a5fa" stroke="#0f172a" stroke-width="1" />
<text x="366.55" y="243.67" fill="#e2e8f0" font-size="9" text-anchor="middle">55.3</text>
<circle cx="396.21" cy="136.19" r="3" fill="#60a5fa" stroke="#0f172a" stroke-width="1" />
<text x="396.21" y="116.19" fill="#e2e8f0" font-size="9" text-anchor="middle">75.3</text>
<circle cx="425.86" cy="281.52" r="3" fill="#60a5fa" stroke="#0f172a" stroke-width="1" />
<text x="425.86" y="271.52" fill="#e2e8f0" font-size="9" text-anchor="middle">50.5</text>
<circle cx="455.52" cy="232.80" r="3" fill="#60a5fa" stroke="#0f172a" stroke-width="1" />
<text x="455.52" y="212.80" fill="#e2e8f0" font-size="9" text-anchor="middle">58.8</text>
<circle cx="485.17" cy="178.20" r="3" fill="#60a5fa" stroke="#0f172a" stroke-width="1" />
<text x="485.17" y="168.20" fill="#e2e8f0" font-size="9" text-anchor="middle">68.1</text>
<circle cx="514.83" cy="232.28" r="3" fill="#60a5fa" stroke="#0f172a" stroke-width="1" />
<text x="514.83" y="212.28" fill="#e2e8f0" font-size="9" text-anchor="middle">58.9</text>
<circle cx="544.48" cy="287.00" r="3" fill="#60a5fa" stroke="#0f172a" stroke-width="1" />
<text x="544.48" y="277.00" fill="#e2e8f0" font-size="9" text-anchor="middle">49.6</text>
<circle cx="574.14" cy="171.04" r="3" fill="#60a5fa" stroke="#0f172a" stroke-width="1" />
<text x="574.14" y="151.04" fill="#e2e8f0" font-size="9" text-anchor="middle">69.3</text>
<circle cx="603.79" cy="218.53" r="3" fill="#60a5fa" stroke="#0f172a" stroke-width="1" />
<text x="603.79" y="208.53" fill="#e2e8f0" font-size="9" text-anchor="middle">61.3</text>
<circle cx="633.45" cy="214.85" r="3" fill="#60a5fa" stroke="#0f172a" stroke-width="1" />
<text x="633.45" y="194.85" fill="#e2e8f0" font-size="9" text-anchor="middle">61.9</text>
<circle cx="663.10" cy="219.06" r="3" fill="#60a5fa" stroke="#0f172a" stroke-width="1" />
<text x="663.10" y="209.06" fill="#e2e8f0" font-size="9" text-anchor="middle">61.2</text>
<circle cx="692.76" cy="146.75" r="3" fill="#60a5fa" stroke="#0f172a" stroke-width="1" />
<text x="692.76" y="126.75" fill="#e2e8f0" font-size="9" text-anchor="middle">73.5</text>
<circle cx="722.41" cy="147.65" r="3" fill="#60a5fa" stroke="#0f172a" stroke-width="1" />
<text x="722.41" y="137.65" fill="#e2e8f0" font-size="9" text-anchor="middle">73.3</text>
<circle cx="752.07" cy="225.44" r="3" fill="#60a5fa" stroke="#0f172a" stroke-width="1" />
<text x="752.07" y="205.44" fill="#e2e8f0" font-size="9" text-anchor="middle">60.1</text>
<circle cx="781.72" cy="262.21" r="3" fill="#60a5fa" stroke="#0f172a" stroke-width="1" />
<text x="781.72" y="252.21" fill="#e2e8f0" font-size="9" text-anchor="middle">53.8</text>
<circle cx="811.38" cy="224.91" r="3" fill="#60a5fa" stroke="#0f172a" stroke-width="1" />
<text x="811.38" y="204.91" fill="#e2e8f0" font-size="9" text-anchor="middle">60.2</text>
<circle cx="841.03" cy="199.03" r="3" fill="#60a5fa" stroke="#0f172a" stroke-width="1" />
<text x="841.03" y="189.03" fill="#e2e8f0" font-size="9" text-anchor="middle">64.6</text>
<circle cx="870.69" cy="111.01" r="3" fill="#60a5fa" stroke="#0f172a" stroke-width="1" />
<text x="870.69" y="91.01" fill="#e2e8f0" font-size="9" text-anchor="middle">79.6</text>
<circle cx="900.34" cy="226.60" r="3" fill="#60a5fa" stroke="#0f172a" stroke-width="1" />
<text x="900.34" y="216.60" fill="#e2e8f0" font-size="9" text-anchor="middle">59.9</text>
<circle cx="930.00" cy="302.25" r="3" fill="#60a5fa" stroke="#0f172a" stroke-width="1" />
<text x="930.00" y="282.25" fill="#e2e8f0" font-size="9" text-anchor="middle">47</text>
<text x="70" y="403" fill="#e2e8f0" font-size="13" font-weight="600">本年核心指标趋势（滑动7日窗口平均）</text>
<line x1="70" y1="656.00" x2="930" y2="656.00" stroke="#94a3b8" stroke-opacity="0.18" stroke-width="1" />
<text x="62" y="660.00" fill="#cbd5f5" font-size="10" text-anchor="end">36.6</text>
<line x1="70" y1="593.75" x2="930" y2="593.75" stroke="#94a3b8" stroke-opacity="0.18" stroke-width="1" />
<text x="62" y="597.75" fill="#cbd5f5" font-size="10" text-anchor="end">44.9</text>
<line x1="70" y1="531.50" x2="930" y2="531.50" stroke="#94a3b8" stroke-opacity="0.18" stroke-width="1" />
<text x="62" y="535.50" fill="#cbd5f5" font-size="10" text-anchor="end">53.2</text>
<line x1="70" y1="469.25" x2="930" y2="469.25" stroke="#94a3b8" stroke-opacity="0.18" stroke-width="1" />
<text x="62" y="473.25" fill="#cbd5f5" font-size="10" text-anchor="end">61.4</text>
<line x1="70" y1="407.00" x2="930" y2="407.00" stroke="#94a3b8" stroke-opacity="0.18" stroke-width="1" />
<text x="62" y="411.00" fill="#cbd5f5" font-size="10" text-anchor="end">69.7</text>
<line x1="70.00" y1="656" x2="70.00" y2="660" stroke="#94a3b8" stroke-opacity="0.5" stroke-width="1" />
<text x="70.00" y="674" fill="#cbd5f5" font-size="10" text-anchor="middle">2025-01</text>
<line x1="242.00" y1="656" x2="242.00" y2="660" stroke="#94a3b8" stroke-opacity="0.5" stroke-width="1" />
<text x="242.00" y="674" fill="#cbd5f5" font-size="10" text-anchor="middle">2025-03</text>
<line x1="414.00" y1="656" x2="414.00" y2="660" stroke="#94a3b8" stroke-opacity="0.5" stroke-width="1" />
<text x="414.00" y="674" fill="#cbd5f5" font-size="10" text-anchor="middle">2025-06</text>
<line x1="586.00" y1="656" x2="586.00" y2="660" stroke="#94a3b8" stroke-opacity="0.5" stroke-width="1" />
<text x="586.00" y="674" fill="#cbd5f5" font-size="10" text-anchor="middle">2025-08</text>
<line x1="758.00" y1="656" x2="758.00" y2="660" stroke="#94a3b8" stroke-opacity="0.5" stroke-width="1" />
<text x="758.00" y="674" fill="#cbd5f5" font-size="10" text-anchor="middle">2025-10</text>
<line x1="930.00" y1="656" x2="930.00" y2="660" stroke="#94a3b8" stroke-opacity="0.5" stroke-width="1" />
<text x="930.00" y="674" fill="#cbd5f5" font-size="10" text-anchor="middle">2025-12</text>
<line x1="70" y1="407" x2="70" y2="656" stroke="#94a3b8" stroke-width="1" />
<line x1="70" y1="656" x2="930" y2="656" stroke="#94a3b8" stroke-width="1" />
<path d="M70.00,656.00 L70.00,635.25 L72.61,554.61 L75.23,490.89 L77.84,511.24 L80.46,515.64 L83.07,519.15 L85.68,534.00 L88.30,535.14 L90.91,547.94 L93.53,576.37 L96.14,571.97 L98.75,589.43 L101.37,601.84 L103.98,589.74 L106.60,585.43 L109.21,604.80 L111.82,626.18 L114.44,625.70 L117.05,592.29 L119.67,579.42 L122.28,590.80 L124.89,580.59 L127.51,551.43 L130.12,525.85 L132.74,529.07 L135.35,536.54 L137.96,541.26 L140.58,525.45 L143.19,510.53 L145.81,499.97 L148.42,500.42 L151.03,497.03 L153.65,488.10 L156.26,468.82 L158.88,454.01 L161.49,447.00 L164.10,462.64 L166.72,459.44 L169.33,460.92 L171.95,481.05 L174.56,494.68 L177.17,501.91 L179.79,511.61 L182.40,504.98 L185.02,492.53 L187.63,486.10 L190.24,486.18 L192.86,486.15 L195.47,493.48 L198.09,523.66 L200.70,531.45 L203.31,533.64 L205.93,521.53 L208.54,514.15 L211.16,506.90 L213.77,508.73 L216.38,485.72 L219.00,462.20 L221.61,459.65 L224.22,471.97 L226.84,475.22 L229.45,473.41 L232.07,465.95 L234.68,464.35 L237.29,477.08 L239.91,490.32 L242.52,488.19 L245.14,475.11 L247.75,477.17 L250.36,467.41 L252.98,463.48 L255.59,459.79 L258.21,455.88 L260.82,441.31 L263.43,444.45 L266.05,451.17 L268.66,460.22 L271.28,471.87 L273.89,472.09 L276.50,464.72 L279.12,474.88 L281.73,485.07 L284.35,475.90 L286.96,488.55 L289.57,485.00 L292.19,493.56 L294.80,485.43 L297.42,484.59 L300.03,485.98 L302.64,499.18 L305.26,487.48 L307.87,487.97 L310.49,494.06 L313.10,508.05 L315.71,512.60 L318.33,500.79 L320.94,493.38 L323.56,501.51 L326.17,464.06 L328.78,461.24 L331.40,465.26 L334.01,476.53 L336.63,494.60 L339.24,497.40 L341.85,502.89 L344.47,514.12 L347.08,498.65 L349.70,501.50 L352.31,476.34 L354.92,459.24 L357.54,461.56 L360.15,440.96 L362.77,458.03 L365.38,465.75 L367.99,455.67 L370.61,474.56 L373.22,468.29 L375.84,470.70 L378.45,478.75 L381.06,469.81 L383.68,448.43 L386.29,450.21 L388.91,445.63 L391.52,461.89 L394.13,436.13 L396.75,457.02 L399.36,476.89 L401.98,497.43 L404.59,485.11 L407.20,494.18 L409.82,498.17 L412.43,523.38 L415.05,506.82 L417.66,510.74 L420.27,495.45 L422.89,511.04 L425.50,505.71 L428.12,492.09 L430.73,485.32 L433.34,462.41 L435.96,466.09 L438.57,497.31 L441.19,513.95 L443.80,520.91 L446.41,523.78 L449.03,524.93 L451.64,551.43 L454.26,527.52 L456.87,519.99 L459.48,499.92 L462.10,486.19 L464.71,495.08 L467.33,494.37 L469.94,485.01 L472.55,485.45 L475.17,472.39 L477.78,456.82 L480.40,456.70 L483.01,446.33 L485.62,452.12 L488.24,456.16 L490.85,463.19 L493.47,458.24 L496.08,484.05 L498.69,498.07 L501.31,487.76 L503.92,495.37 L506.53,504.64 L509.15,515.19 L511.76,538.26 L514.38,535.43 L516.99,536.63 L519.60,553.53 L522.22,546.73 L524.83,515.33 L527.45,517.39 L530.06,509.52 L532.67,509.65 L535.29,493.94 L537.90,496.66 L540.52,482.21 L543.13,508.11 L545.74,485.93 L548.36,489.20 L550.97,492.58 L553.59,511.12 L556.20,515.36 L558.81,536.78 L561.43,530.99 L564.04,549.47 L566.66,538.99 L569.27,527.45 L571.88,515.81 L574.50,500.16 L577.11,480.09 L579.73,471.30 L582.34,451.16 L584.95,471.84 L587.57,465.62 L590.18,463.11 L592.80,450.13 L595.41,452.05 L598.02,464.92 L600.64,483.54 L603.25,452.27 L605.87,465.54 L608.48,470.79 L611.09,488.25 L613.71,477.32 L616.32,464.39 L618.94,484.11 L621.55,502.49 L624.16,510.75 L647.69,524.05 L650.30,518.18 L652.92,503.68 L655.53,506.77 L658.15,486.71 L660.76,485.11 L663.37,469.32 L665.99,444.53 L668.60,447.05 L671.22,473.90 L673.83,470.27 L676.44,460.00 L679.06,447.10 L681.67,452.61 L684.29,469.48 L686.90,467.03 L689.51,459.26 L692.13,477.54 L694.74,481.72 L697.36,480.96 L699.97,488.63 L702.58,496.45 L705.20,517.41 L707.81,528.74 L710.43,518.90 L713.04,529.51 L715.65,543.77 L718.27,546.58 L720.88,539.27 L723.50,505.21 L726.11,503.67 L728.72,508.18 L731.34,503.06 L733.95,500.45 L736.57,484.84 L739.18,469.89 L741.79,495.29 L744.41,510.38 L747.02,505.48 L749.64,504.82 L752.25,517.30 L754.86,521.03 L757.48,525.95 L760.09,524.48 L762.71,520.49 L765.32,525.94 L767.93,526.96 L770.55,531.14 L773.16,536.37 L775.78,542.94 L778.39,535.03 L781.00,513.11 L783.62,512.07 L786.23,510.11 L788.84,499.55 L791.46,484.46 L794.07,472.22 L796.69,480.28 L799.30,491.00 L801.91,495.69 L804.53,493.92 L807.14,485.21 L809.76,503.56 L812.37,510.37 L814.98,521.14 L817.60,516.60 L820.21,484.47 L822.83,477.49 L825.44,504.35 L828.05,506.43 L830.67,500.70 L833.28,484.64 L835.90,493.26 L838.51,518.12 L841.12,531.02 L843.74,505.17 L846.35,487.86 L848.97,498.47 L851.58,492.55 L854.19,479.95 L856.81,477.89 L859.42,481.20 L862.04,458.86 L864.65,461.57 L867.26,435.86 L869.88,454.14 L872.49,461.73 L875.11,457.91 L877.72,427.75 L880.33,456.84 L882.95,443.15 L885.56,470.20 L888.18,458.07 L890.79,447.82 L893.40,454.50 L896.02,483.78 L898.63,468.65 L901.25,483.72 L903.86,471.52 L906.47,469.01 L909.09,463.25 L911.70,447.76 L914.32,436.49 L916.93,453.18 L919.54,454.35 L922.16,451.46 L924.77,431.68 L927.39,446.30 L930.00,474.59 L930.00,656.00 Z" fill="#60a5fa" fill-opacity="0.16" stroke="none" />
<path d="M70.00,635.25 L72.61,554.61 L75.23,490.89 L77.84,511.24 L80.46,515.64 L83.07,519.15 L85.68,534.00 L88.30,535.14 L90.91,547.94 L93.53,576.37 L96.14,571.97 L98.75,589.43 L101.37,601.84 L103.98,589.74 L106.60,585.43 L109.21,604.80 L111.82,626.18 L114.44,625.70 L117.05,592.29 L119.67,579.42 L122.28,590.80 L124.89,580.59 L127.51,551.43 L130.12,525.85 L132.74,529.07 L135.35,536.54 L137.96,541.26 L140.58,525.45 L143.19,510.53 L145.81,499.97 L148.42,500.42 L151.03,497.03 L153.65,488.10 L156.26,468.82 L158.88,454.01 L161.49,447.00 L164.10,462.64 L166.72,459.44 L169.33,460.92 L171.95,481.05 L174.56,494.68 L177.17,501.91 L179.79,511.61 L182.40,504.98 L185.02,492.53 L187.63,486.10 L190.24,486.18 L192.86,486.15 L195.47,493.48 L198.09,523.66 L200.70,531.45 L203.31,533.64 L205.93,521.53 L208.54,514.15 L211.16,506.90 L213.77,508.73 L216.38,485.72 L219.00,462.20 L221.61,459.65 L224.22,471.97 L226.84,475.22 L229.45,473.41 L232.07,465.95 L234.68,464.35 L237.29,477.08 L239.91,490.32 L242.52,488.19 L245.14,475.11 L247.75,477.17 L250.36,467.41 L252.98,463.48 L255.59,459.79 L258.21,455.88 L260.82,441.31 L263.43,444.45 L266.05,451.17 L268.66,460.22 L271.28,471.87 L273.89,472.09 L276.50,464.72 L279.12,474.88 L281.73,485.07 L284.35,475.90 L286.96,488.55 L289.57,485.00 L292.19,493.56 L294.80,485.43 L297.42,484.59 L300.03,485.98 L302.64,499.18 L305.26,487.48 L307.87,487.97 L310.49,494.06 L313.10,508.05 L315.71,512.60 L318.33,500.79 L320.94,493.38 L323.56,501.51 L326.17,464.06 L328.78,461.24 L331.40,465.26 L334.01,476.53 L336.63,494.60 L339.24,497.40 L341.85,502.89 L344.47,514.12 L347.08,498.65 L349.70,501.50 L352.31,476.34 L354.92,459.24 L357.54,461.56 L360.15,440.96 L362.77,458.03 L365.38,465.75 L367.99,455.67 L370.61,474.56 L373.22,468.29 L375.84,470.70 L378.45,478.75 L381.06,469.81 L383.68,448.43 L386.29,450.21 L388.91,445.63 L391.52,461.89 L394.13,436.13 L396.75,457.02 L399.36,476.89 L401.98,497.43 L404.59,485.11 L407.20,494.18 L409.82,498.17 L412.43,523.38 L415.05,506.82 L417.66,510.74 L420.27,495.45 L422.89,511.04 L425.50,505.71 L428.12,492.09 L430.73,485.32 L433.34,462.41 L435.96,466.09 L438.57,497.31 L441.19,513.95 L443.80,520.91 L446.41,523.78 L449.03,524.93 L451.64,551.43 L454.26,527.52 L456.87,519.99 L459.48,499.92 L462.10,486.19 L464.71,495.08 L467.33,494.37 L469.94,485.01 L472.55,485.45 L475.17,472.39 L477.78,456.82 L480.40,456.70 L483.01,446.33 L485.62,452.12 L488.24,456.16 L490.85,463.19 L493.47,458.24 L496.08,484.05 L498.69,498.07 L501.31,487.76 L503.92,495.37 L506.53,504.64 L509.15,515.19 L511.76,538.26 L514.38,535.43 L516.99,536.63 L519.60,553.53 L522.22,546.73 L524.83,515.33 L527.45,517.39 L530.06,509.52 L532.67,509.65 L535.29,493.94 L537.90,496.66 L540.52,482.21 L543.13,508.11 L545.74,485.93 L548.36,489.20 L550.97,492.58 L553.59,511.12 L556.20,515.36 L558.81,536.78 L561.43,530.99 L564.04,549.47 L566.66,538.99 L569.27,527.45 L571.88,515.81 L574.50,500.16 L577.11,480.09 L579.73,471.30 L582.34,451.16 L584.95,471.84 L587.57,465.62 L590.18,463.11 L592.80,450.13 L595.41,452.05 L598.02,464.92 L600.64,483.54 L603.25,452.27 L605.87,465.54 L608.48,470.79 L611.09,488.25 L613.71,477.32 L616.32,464.39 L618.94,484.11 L621.55,502.49 L624.16,510.75 L647.69,524.05 L650.30,518.18 L652.92,503.68 L655.53,506.77 L658.15,486.71 L660.76,485.11 L663.37,469.32 L665.99,444.53 L668.60,447.05 L671.22,473.90 L673.83,470.27 L676.44,460.00 L679.06,447.10 L681.67,452.61 L684.29,469.48 L686.90,467.03 L689.51,459.26 L692.13,477.54 L694.74,481.72 L697.36,480.96 L699.97,488.63 L702.58,496.45 L705.20,517.41 L707.81,528.74 L710.43,518.90 L713.04,529.51 L715.65,543.77 L718.27,546.58 L720.88,539.27 L723.50,505.21 L726.11,503.67 L728.72,508.18 L731.34,503.06 L733.95,500.45 L736.57,484.84 L739.18,469.89 L741.79,495.29 L744.41,510.38 L747.02,505.48 L749.64,504.82 L752.25,517.30 L754.86,521.03 L757.48,525.95 L760.09,524.48 L762.71,520.49 L765.32,525.94 L767.93,526.96 L770.55,531.14 L773.16,536.37 L775.78,542.94 L778.39,535.03 L781.00,513.11 L783.62,512.07 L786.23,510.11 L788.84,499.55 L791.46,484.46 L794.07,472.22 L796.69,480.28 L799.30,491.00 L801.91,495.69 L804.53,493.92 L807.14,485.21 L809.76,503.56 L812.37,510.37 L814.98,521.14 L817.60,516.60 L820.21,484.47 L822.83,477.49 L825.44,504.35 L828.05,506.43 L830.67,500.70 L833.28,484.64 L835.90,493.26 L838.51,518.12 L841.12,531.02 L843.74,505.17 L846.35,487.86 L848.97,498.47 L851.58,492.55 L854.19,479.95 L856.81,477.89 L859.42,481.20 L862.04,458.86 L864.65,461.57 L867.26,435.86 L869.88,454.14 L872.49,461.73 L875.11,457.91 L877.72,427.75 L880.33,456.84 L882.95,443.15 L885.56,470.20 L888.18,458.07 L890.79,447.82 L893.40,454.50 L896.02,483.78 L898.63,468.65 L901.25,483.72 L903.86,471.52 L906.47,469.01 L909.09,463.25 L911.70,447.76 L914.32,436.49 L916.93,453.18 L919.54,454.35 L922.16,451.46 L924.77,431.68 L927.39,446.30 L930.00,474.59" fill="none" stroke="#60a5fa" stroke-width="2.2" stroke-linecap="round" />
</svg>
