<svg xmlns="http://www.w3.org/2000/svg" viewBox="0 0 960 720" width="960" height="720">
<rect width="960" height="720" fill="#0f172a" />
<text x="480" y="28" fill="#e2e8f0" font-size="16" font-weight="700" text-anchor="middle">HRV-SDNN均值趋势图</text>
<text x="70" y="70" fill="#e2e8f0" font-size="13" font-weight="600">本月分天指标明细</text>
<line x1="70" y1="323.00" x2="930" y2="323.00" stroke="#94a3b8" stroke-opacity="0.18" stroke-width="1" />
<text x="62" y="327.00" fill="#cbd5f5" font-size="10" text-anchor="end">43.5</text>
<line x1="70" y1="260.75" x2="930" y2="260.75" stroke="#94a3b8" stroke-opacity="0.18" stroke-width="1" />
<text x="62" y="264.75" fill="#cbd5f5" font-size="10" text-anchor="end">54.1</text>
<line x1="70" y1="198.50" x2="930" y2="198.50" stroke="#94a3b8" stroke-opacity="0.18" stroke-width="1" />
<text x="62" y="202.50" fill="#cbd5f5" font-size="10" text-anchor="end">64.7</text>
<line x1="70" y1="136.25" x2="930" y2="136.25" stroke="#94a3b8" stroke-opacity="0.18" stroke-width="1" />
<text x="62" y="140.25" fill="#cbd5f5" font-size="10" text-anchor="end">75.3</text>
<line x1="70" y1="74.00" x2="930" y2="74.00" stroke="#94a3b8" stroke-opacity="0.18" stroke-width="1" />
<text x="62" y="78.00" fill="#cbd5f5" font-size="10" text-anchor="end">85.9</text>
<line x1="70.00" y1="323" x2="70.00" y2="327" stroke="#94a3b8" stroke-opacity="0.5" stroke-width="1" />
<text x="70.00" y="341" fill="#cbd5f5" font-size="10" text-anchor="middle">11-22</text>
<line x1="242.00" y1="323" x2="242.00" y2="327" stroke="#94a3b8" stroke-opacity="0.5" stroke-width="1" />
<text x="242.00" y="341" fill="#cbd5f5" font-size="10" text-anchor="middle">11-27</text>
<line x1="414.00" y1="323" x2="414.00" y2="327" stroke="#94a3b8" stroke-opacity="0.5" stroke-width="1" />
<text x="414.00" y="341" fill="#cbd5f5" font-size="10" text-anchor="middle">12-03</text>
<line x1="586.00" y1="323" x2="586.00" y2="327" stroke="#94a3b8" stroke-opacity="0.5" stroke-width="1" />
<text x="586.00" y="341" fill="#cbd5f5" font-size="10" text-anchor="middle">12-09</text>
<line x1="758.00" y1="323" x2="758.00" y2="327" stroke="#94a3b8" stroke-opacity="0.5" stroke-width="1" />
<text x="758.00" y="341" fill="#cbd5f5" font-size="10" text-anchor="middle">12-15</text>
<line x1="930.00" y1="323" x2="930.00" y2="327" stroke="#94a3b8" stroke-opacity="0.5" stroke-width="1" />
<text x="930.00" y="341" fill="#cbd5f5" font-size="10" text-anchor="middle">12-21</text>
<line x1="70" y1="74" x2="70" y2="323" stroke="#94a3b8" stroke-width="1" />
<line x1="70" y1="323" x2="930" y2="323" stroke="#94a3b8" stroke-width="1" />
<path d="M70.00,94.75 L99.66,210.97 L129.31,133.72 L158.97,299.11 L188.62,234.25 L218.28,195.78 L247.93,127.02 L277.59,253.68 L307.24,136.20 L336.90,281.54 L366.55,232.82 L396.21,178.21 L425.86,232.29 L455.52,287.02 L485.17,171.05 L514.83,218.54 L544.48,214.86 L574.14,219.07 L603.79,146.76 L633.45,147.66 L663.10,225.45 L692.76,262.23 L722.41,224.92 L752.07,199.04 L781.72,111.02 L811.38,226.61 L841.03,302.25 L870.69,253.50 L900.34,198.96 L930.00,178.04" fill="none" stroke="#60a5fa" stroke-width="2.2" stroke-linecap="round" />
<circle cx="70.00" cy="94.75" r="3" fill="#60a5fa" stroke="#0f172a" stroke-width="1" />
<text x="70.00" y="84.75" fill="#e2e8f0" font-size="9" text-anchor="middle">82.3</text>
<circle cx="99.66" cy="210.97" r="3" fill="#60a5fa" stroke="#0f172a" stroke-width="1" />
<text x="99.66" y="190.97" fill="#e2e8f0" font-size="9" text-anchor="middle">62.5</text>
<circle cx="129.31" cy="133.72" r="3" fill="#60a5fa" stroke="#0f172a" stroke-width="1" />
<text x="129.31" y="123.72" fill="#e2e8f0" font-size="9" text-anchor="middle">75.7</text>
<circle cx="158.97" cy="299.11" r="3" fill="#60a5fa" stroke="#0f172a" stroke-width="1" />
<text x="158.97" y="279.11" fill="#e2e8f0" font-size="9" text-anchor="middle">47.5</text>
<circle cx="188.62" cy="234.25" r="3" fill="#60a5fa" stroke="#0f172a" stroke-width="1" />
<text x="188.62" y="224.25" fill="#e2e8f0" font-size="9" text-anchor="middle">58.6</text>
<circle cx="218.28" cy="195.78" r="3" fill="#60a5fa" stroke="#0f172a" stroke-width="1" />
<text x="218.28" y="175.78" fill="#e2e8f0" font-size="9" text-anchor="middle">65.1</text>
<circle cx="247.93" cy="127.02" r="3" fill="#60a5fa" stroke="#0f172a" stroke-width="1" />
<text x="247.93" y="117.02" fill="#e2e8f0" font-size="9" text-anchor="middle">76.8</text>
<circle cx="277.59" cy="253.68" r="3" fill="#60a5fa" stroke="#0f172a" stroke-width="1" />
<text x="277.59" y="233.68" fill="#e2e8f0" font-size="9" text-anchor="middle">55.3</text>
<circle cx="307.24" cy="136.20" r="3" fill="#60a5fa" stroke="#0f172a" stroke-width="1" />
<text x="307.24" y="126.20" fill="#e2e8f0" font-size="9" text-anchor="middle">75.3</text>
<circle cx="336.90" cy="281.54" r="3" fill="#60a5fa" stroke="#0f172a" stroke-width="1" />
<text x="336.90" y="261.54" fill="#e2e8f0" font-size="9" text-anchor="middle">50.5</text>
<circle cx="366.55" cy="232.82" r="3" fill="#60a5fa" stroke="#0f172a" stroke-width="1" />
<text x="366.55" y="222.82" fill="#e2e8f0" font-size="9" text-anchor="middle">58.8</text>
<circle cx="396.21" cy="178.21" r="3" fill="#60a5fa" stroke="#0f172a" stroke-width="1" />
<text x="396.21" y="158.21" fill="#e2e8f0" font-size="9" text-anchor="middle">68.1</text>
<circle cx="425.86" cy="232.29" r="3" fill="#60a5fa" stroke="#0f172a" stroke-width="1" />
<text x="425.86" y="222.29" fill="#e2e8f0" font-size="9" text-anchor="middle">58.9</text>
<circle cx="455.52" cy="287.02" r="3" fill="#60a5fa" stroke="#0f172a" stroke-width="1" />
<text x="455.52" y="267.02" fill="#e2e8f0" font-size="9" text-anchor="middle">49.6</text>
<circle cx="485.17" cy="171.05" r="3" fill="#60a5fa" stroke="#0f172a" stroke-width="1" />
<text x="485.17" y="161.05" fill="#e2e8f0" font-size="9" text-anchor="middle">69.3</text>
<circle cx="514.83" cy="218.54" r="3" fill="#60a5fa" stroke="#0f172a" stroke-width="1" />
<text x="514.83" y="198.54" fill="#e2e8f0" font-size="9" text-anchor="middle">61.3</text>
<circle cx="544.48" cy="214.86" r="3" fill="#60a5fa" stroke="#0f172a" stroke-width="1" />
<text x="544.48" y="204.86" fill="#e2e8f0" font-size="9" text-anchor="middle">61.9</text>
<circle cx="574.14" cy="219.07" r="3" fill="#60a5fa" stroke="#0f172a" stroke-width="1" />
<text x="574.14" y="199.07" fill="#e2e8f0" font-size="9" text-anchor="middle">61.2</text>
<circle cx="603.79" cy="146.76" r="3" fill="#60a5fa" stroke="#0f172a" stroke-width="1" />
<text x="603.79" y="136.76" fill="#e2e8f0" font-size="9" text-anchor="middle">73.5</text>
<circle cx="633.45" cy="147.66" r="3" fill="#60a5fa" stroke="#0f172a" stroke-width="1" />
<text x="633.45" y="127.66" fill="#e2e8f0" font-size="9" text-anchor="middle">73.3</text>
<circle cx="663.10" cy="225.45" r="3" fill="#60a5fa" stroke="#0f172a" stroke-width="1" />
<text x="663.10" y="215.45" fill="#e2e8f0" font-size="9" text-anchor="middle">60.1</text>
<circle cx="692.76" cy="262.23" r="3" fill="#60a5fa" stroke="#0f172a" stroke-width="1" />
<text x="692.76" y="242.23" fill="#e2e8f0" font-size="9" text-anchor="middle">53.8</text>
<circle cx="722.41" cy="224.92" r="3" fill="#60a5fa" stroke="#0f172a" stroke-width="1" />
<text x="722.41" y="214.92" fill="#e2e8f0" font-size="9" text-anchor="middle">60.2</text>
<circle cx="752.07" cy="199.04" r="3" fill="#60a5fa" stroke="#0f172a" stroke-width="1" />
<text x="752.07" y="179.04" fill="#e2e8f0" font-size="9" text-anchor="middle">64.6</text>
<circle cx="781.72" cy="111.02" r="3" fill="#60a5fa" stroke="#0f172a" stroke-width="1" />
<text x="781.72" y="101.02" fill="#e2e8f0" font-size="9" text-anchor="middle">79.6</text>
<circle cx="811.38" cy="226.61" r="3" fill="#60a5fa" stroke="#0f172a" stroke-width="1" />
<text x="811.38" y="206.61" fill="#e2e8f0" font-size="9" text-anchor="middle">59.9</text>
<circle cx="841.03" cy="302.25" r="3" fill="#60a5fa" stroke="#0f172a" stroke-width="1" />
<text x="841.03" y="292.25" fill="#e2e8f0" font-size="9" text-anchor="middle">47</text>
<circle cx="870.69" cy="253.50" r="3" fill="#60a5fa" stroke="#0f172a" stroke-width="1" />
<text x="870.69" y="233.50" fill="#e2e8f0" font-size="9" text-anchor="middle">55.3</text>
<circle cx="900.34" cy="198.96" r="3" fill="#60a5fa" stroke="#0f172a" stroke-width="1" />
<text x="900.34" y="188.96" fill="#e2e8f0" font-size="9" text-anchor="middle">64.6</text>
<circle cx="930.00" cy="178.04" r="3" fill="#60a5fa" stroke="#0f172a" stroke-width="1" />
<text x="930.00" y="158.04" fill="#e2e8f0" font-size="9" text-anchor="middle">68.2</text>
<text x="70" y="403" fill="#e2e8f0" font-size="13" font-weight="600">本年核心指标趋势（滑动7日窗口平均）</text>
<line x1="70" y1="656.00" x2="930" y2="656.00" stroke="#94a3b8" stroke-opacity="0.18" stroke-width="1" />
<text x="62" y="660.00" fill="#cbd5f5" font-size="10" text-anchor="end">36.6</text>
<line x1="70" y1="593.75" x2="930" y2="593.75" stroke="#94a3b8" stroke-opacity="0.18" stroke-width="1" />
<text x="62" y="597.75" fill="#cbd5f5" font-size="10" text-anchor="end">44.9</text>
<line x1="70" y1="531.50" x2="930" y2="531.50" stroke="#94a3b8" stroke-opacity="0.18" stroke-width="1" />
<text x="62" y="535.50" fill="#cbd5f5" font-size="10" text-anchor="end">53.2</text>
<line x1="70" y1="469.25" x2="930" y2="469.25" stroke="#94a3b8" stroke-opacity="0.18" stroke-width="1" />
<text x="62" y="473.25" fill="#cbd5f5" font-size="10" text-anchor="end">61.4</text>
<line x1="70" y1="407.00" x2="930" y2="407.00" stroke="#94a3b8" stroke-opacity="0.18" stroke-width="1" />
<text x="62" y="411.00" fill="#cbd5f5" font-size="10" text-anchor="end">69.7</text>
<line x1="70.00" y1="656" x2="70.00" y2="660" stroke="#94a3b8" stroke-opacity="0.5" stroke-width="1" />
<text x="70.00" y="674" fill="#cbd5f5" font-size="10" text-anchor="middle">2025-01</text>
<line x1="242.00" y1="656" x2="242.00" y2="660" stroke="#94a3b8" stroke-opacity="0.5" stroke-width="1" />
<text x="242.00" y="674" fill="#cbd5f5" font-size="10" text-anchor="middle">2025-03</text>
<line x1="414.00" y1="656" x2="414.00" y2="660" stroke="#94a3b8" stroke-opacity="0.5" stroke-width="1" />
<text x="414.00" y="674" fill="#cbd5f5" font-size="10" text-anchor="middle">2025-06</text>
<line x1="586.00" y1="656" x2="586.00" y2="660" stroke="#94a3b8" stroke-opacity="0.5" stroke-width="1" />
<text x="586.00" y="674" fill="#cbd5f5" font-size="10" text-anchor="middle">2025-08</text>
<line x1="758.00" y1="656" x2="758.00" y2="660" stroke="#94a3b8" stroke-opacity="0.5" stroke-width="1" />
<text x="758.00" y="674" fill="#cbd5f5" font-size="10" text-anchor="middle">2025-10</text>
<line x1="930.00" y1="656" x2="930.00" y2="660" stroke="#94a3b8" stroke-opacity="0.5" stroke-width="1" />
<text x="930.00" y="674" fill="#cbd5f5" font-size="10" text-anchor="middle">2025-12</text>
<line x1="70" y1="407" x2="70" y2="656" stroke="#94a3b8" stroke-width="1" />
<line x1="70" y1="656" x2="930" y2="656" stroke="#94a3b8" stroke-width="1" />
<path d="M70.00,656.00 L70.00,635.25 L72.59,554.61 L75.18,490.89 L77.77,511.24 L80.36,515.64 L82.95,519.15 L85.54,534.00 L88.13,535.14 L90.72,547.94 L93.31,576.37 L95.90,571.97 L98.49,589.43 L101.08,601.84 L103.67,589.74 L106.27,585.43 L108.86,604.80 L111.45,626.18 L114.04,625.70 L116.63,592.29 L119.22,579.42 L121.81,590.80 L124.40,580.59 L126.99,551.43 L129.58,525.85 L132.17,529.07 L134.76,536.54 L137.35,541.26 L139.94,525.45 L142.53,510.53 L145.12,499.97 L147.71,500.42 L150.30,497.03 L152.89,488.10 L155.48,468.82 L158.07,454.01 L160.66,447.00 L163.25,462.64 L165.84,459.44 L168.43,460.92 L171.02,481.05 L173.61,494.68 L176.20,501.91 L178.80,511.61 L181.39,504.98 L183.98,492.53 L186.57,486.10 L189.16,486.18 L191.75,486.15 L194.34,493.48 L196.93,523.66 L199.52,531.45 L202.11,533.64 L204.70,521.53 L207.29,514.15 L209.88,506.90 L212.47,508.73 L215.06,485.72 L217.65,462.20 L220.24,459.65 L222.83,471.97 L225.42,475.22 L228.01,473.41 L230.60,465.95 L233.19,464.35 L235.78,477.08 L238.37,490.32 L240.96,488.19 L243.55,475.11 L246.14,477.17 L248.73,467.41 L251.33,463.48 L253.92,459.79 L256.51,455.88 L259.10,441.31 L261.69,444.45 L264.28,451.17 L266.87,460.22 L269.46,471.87 L272.05,472.09 L274.64,464.72 L277.23,474.88 L279.82,485.07 L282.41,475.90 L285.00,488.55 L287.59,485.00 L290.18,493.56 L292.77,485.43 L295.36,484.59 L297.95,485.98 L300.54,499.18 L303.13,487.48 L305.72,487.97 L308.31,494.06 L310.90,508.05 L313.49,512.60 L316.08,500.79 L318.67,493.38 L321.27,501.51 L323.86,464.06 L326.45,461.24 L329.04,465.26 L331.63,476.53 L334.22,494.60 L336.81,497.40 L339.40,502.89 L341.99,514.12 L344.58,498.65 L347.17,501.50 L349.76,476.34 L352.35,459.24 L354.94,461.56 L357.53,440.96 L360.12,458.03 L362.71,465.75 L365.30,455.67 L367.89,474.56 L370.48,468.29 L373.07,470.70 L375.66,478.75 L378.25,469.81 L380.84,448.43 L383.43,450.21 L386.02,445.63 L388.61,461.89 L391.20,436.13 L393.80,457.02 L396.39,476.89 L398.98,497.43 L401.57,485.11 L404.16,494.18 L406.75,498.17 L409.34,523.38 L411.93,506.82 L414.52,510.74 L417.11,495.45 L419.70,511.04 L422.29,505.71 L424.88,492.09 L427.47,485.32 L430.06,462.41 L432.65,466.09 L435.24,497.31 L437.83,513.95 L440.42,520.91 L443.01,523.78 L445.60,524.93 L448.19,551.43 L450.78,527.52 L453.37,519.99 L455.96,499.92 L458.55,486.19 L461.14,495.08 L463.73,494.37 L466.33,485.01 L468.92,485.45 L471.51,472.39 L474.10,456.82 L476.69,456.70 L479.28,446.33 L481.87,452.12 L484.46,456.16 L487.05,463.19 L489.64,458.24 L492.23,484.05 L494.82,498.07 L497.41,487.76 L500.00,495.37 L502.59,504.64 L505.18,515.19 L507.77,538.26 L510.36,535.43 L512.95,536.63 L515.54,553.53 L518.13,546.73 L520.72,515.33 L523.31,517.39 L525.90,509.52 L528.49,509.65 L531.08,493.94 L533.67,496.66 L536.27,482.21 L538.86,508.11 L541.45,485.93 L544.04,489.20 L546.63,492.58 L549.22,511.12 L551.81,515.36 L554.40,536.78 L556.99,530.99 L559.58,549.47 L562.17,538.99 L564.76,527.45 L567.35,515.81 L569.94,500.16 L572.53,480.09 L575.12,471.30 L577.71,451.16 L580.30,471.84 L582.89,465.62 L585.48,463.11 L588.07,450.13 L590.66,452.05 L593.25,464.92 L595.84,483.54 L598.43,452.27 L601.02,465.54 L603.61,470.79 L606.20,488.25 L608.80,477.32 L611.39,464.39 L613.98,484.11 L616.57,502.49 L619.16,510.75 L642.47,524.05 L645.06,518.18 L647.65,503.68 L650.24,506.77 L652.83,486.71 L655.42,485.11 L658.01,469.32 L660.60,444.53 L663.19,447.05 L665.78,473.90 L668.37,470.27 L670.96,460.00 L673.55,447.10 L676.14,452.61 L678.73,469.48 L681.33,467.03 L683.92,459.26 L686.51,477.54 L689.10,481.72 L691.69,480.96 L694.28,488.63 L696.87,496.45 L699.46,517.41 L702.05,528.74 L704.64,518.90 L707.23,529.51 L709.82,543.77 L712.41,546.58 L715.00,539.27 L717.59,505.21 L720.18,503.67 L722.77,508.18 L725.36,503.06 L727.95,500.45 L730.54,484.84 L733.13,469.89 L735.72,495.29 L738.31,510.38 L740.90,505.48 L743.49,504.82 L746.08,517.30 L748.67,521.03 L751.27,525.95 L753.86,524.48 L756.45,520.49 L759.04,525.94 L761.63,526.96 L764.22,531.14 L766.81,536.37 L769.40,542.94 L771.99,535.03 L774.58,513.11 L777.17,512.07 L779.76,510.11 L782.35,499.55 L784.94,484.46 L787.53,472.22 L790.12,480.28 L792.71,491.00 L795.30,495.69 L797.89,493.92 L800.48,485.21 L803.07,503.56 L805.66,510.37 L808.25,521.14 L810.84,516.60 L813.43,484.47 L816.02,477.49 L818.61,504.35 L821.20,506.43 L823.80,500.70 L826.39,484.64 L828.98,493.26 L831.57,518.12 L834.16,531.02 L836.75,505.17 L839.34,487.86 L841.93,498.47 L844.52,492.55 L847.11,479.95 L849.70,477.89 L852.29,481.20 L854.88,458.86 L857.47,461.57 L860.06,435.86 L862.65,454.14 L865.24,461.73 L867.83,457.91 L870.42,427.75 L873.01,456.84 L875.60,443.15 L878.19,470.20 L880.78,458.07 L883.37,447.82 L885.96,454.50 L888.55,483.78 L891.14,468.65 L893.73,483.72 L896.33,471.52 L898.92,469.01 L901.51,463.25 L904.10,447.76 L906.69,436.49 L909.28,453.18 L911.87,454.35 L914.46,451.46 L917.05,431.68 L919.64,446.30 L922.23,474.59 L924.82,479.72 L927.41,468.14 L930.00,459.56 L930.00,656.00 Z" fill="#60a5fa" fill-opacity="0.16" stroke="none" />
<path d="M70.00,635.25 L72.59,554.61 L75.18,490.89 L77.77,511.24 L80.36,515.64 L82.95,519.15 L85.54,534.00 L88.13,535.14 L90.72,547.94 L93.31,576.37 L95.90,571.97 L98.49,589.43 L101.08,601.84 L103.67,589.74 L106.27,585.43 L108.86,604.80 L111.45,626.18 L114.04,625.70 L116.63,592.29 L119.22,579.42 L121.81,590.80 L124.40,580.59 L126.99,551.43 L129.58,525.85 L132.17,529.07 L134.76,536.54 L137.35,541.26 L139.94,525.45 L142.53,510.53 L145.12,499.97 L147.71,500.42 L150.30,497.03 L152.89,488.10 L155.48,468.82 L158.07,454.01 L160.66,447.00 L163.25,462.64 L165.84,459.44 L168.43,460.92 L171.02,481.05 L173.61,494.68 L176.20,501.91 L178.80,511.61 L181.39,504.98 L183.98,492.53 L186.57,486.10 L189.16,486.18 L191.75,486.15 L194.34,493.48 L196.93,523.66 L199.52,531.45 L202.11,533.64 L204.70,521.53 L207.29,514.15 L209.88,506.90 L212.47,508.73 L215.06,485.72 L217.65,462.20 L220.24,459.65 L222.83,471.97 L225.42,475.22 L228.01,473.41 L230.60,465.95 L233.19,464.35 L235.78,477.08 L238.37,490.32 L240.96,488.19 L243.55,475.11 L246.14,477.17 L248.73,467.41 L251.33,463.48 L253.92,459.79 L256.51,455.88 L259.10,441.31 L261.69,444.45 L264.28,451.17 L266.87,460.22 L269.46,471.87 L272.05,472.09 L274.64,464.72 L277.23,474.88 L279.82,485.07 L282.41,475.90 L285.00,488.55 L287.59,485.00 L290.18,493.56 L292.77,485.43 L295.36,484.59 L297.95,485.98 L300.54,499.18 L303.13,487.48 L305.72,487.97 L308.31,494.06 L310.90,508.05 L313.49,512.60 L316.08,500.79 L318.67,493.38 L321.27,501.51 L323.86,464.06 L326.45,461.24 L329.04,465.26 L331.63,476.53 L334.22,494.60 L336.81,497.40 L339.40,502.89 L341.99,514.12 L344.58,498.65 L347.17,501.50 L349.76,476.34 L352.35,459.24 L354.94,461.56 L357.53,440.96 L360.12,458.03 L362.71,465.75 L365.30,455.67 L367.89,474.56 L370.48,468.29 L373.07,470.70 L375.66,478.75 L378.25,469.81 L380.84,448.43 L383.43,450.21 L386.02,445.63 L388.61,461.89 L391.20,436.13 L393.80,457.02 L396.39,476.89 L398.98,497.43 L401.57,485.11 L404.16,494.18 L406.75,498.17 L409.34,523.38 L411.93,506.82 L414.52,510.74 L417.11,495.45 L419.70,511.04 L422.29,505.71 L424.88,492.09 L427.47,485.32 L430.06,462.41 L432.65,466.09 L435.24,497.31 L437.83,513.95 L440.42,520.91 L443.01,523.78 L445.60,524.93 L448.19,551.43 L450.78,527.52 L453.37,519.99 L455.96,499.92 L458.55,486.19 L461.14,495.08 L463.73,494.37 L466.33,485.01 L468.92,485.45 L471.51,472.39 L474.10,456.82 L476.69,456.70 L479.28,446.33 L481.87,452.12 L484.46,456.16 L487.05,463.19 L489.64,458.24 L492.23,484.05 L494.82,498.07 L497.41,487.76 L500.00,495.37 L502.59,504.64 L505.18,515.19 L507.77,538.26 L510.36,535.43 L512.95,536.63 L515.54,553.53 L518.13,546.73 L520.72,515.33 L523.31,517.39 L525.90,509.52 L528.49,509.65 L531.08,493.94 L533.67,496.66 L536.27,482.21 L538.86,508.11 L541.45,485.93 L544.04,489.20 L546.63,492.58 L549.22,511.12 L551.81,515.36 L554.40,536.78 L556.99,530.99 L559.58,549.47 L562.17,538.99 L564.76,527.45 L567.35,515.81 L569.94,500.16 L572.53,480.09 L575.12,471.30 L577.71,451.16 L580.30,471.84 L582.89,465.62 L585.48,463.11 L588.07,450.13 L590.66,452.05 L593.25,464.92 L595.84,483.54 L598.43,452.27 L601.02,465.54 L603.61,470.79 L606.20,488.25 L608.80,477.32 L611.39,464.39 L613.98,484.11 L616.57,502.49 L619.16,510.75 L642.47,524.05 L645.06,518.18 L647.65,503.68 L650.24,506.77 L652.83,486.71 L655.42,485.11 L658.01,469.32 L660.60,444.53 L663.19,447.05 L665.78,473.90 L668.37,470.27 L670.96,460.00 L673.55,447.10 L676.14,452.61 L678.73,469.48 L681.33,467.03 L683.92,459.26 L686.51,477.54 L689.10,481.72 L691.69,480.96 L694.28,488.63 L696.87,496.45 L699.46,517.41 L702.05,528.74 L704.64,518.90 L707.23,529.51 L709.82,543.77 L712.41,546.58 L715.00,539.27 L717.59,505.21 L720.18,503.67 L722.77,508.18 L725.36,503.06 L727.95,500.45 L730.54,484.84 L733.13,469.89 L735.72,495.29 L738.31,510.38 L740.90,505.48 L743.49,504.82 L746.08,517.30 L748.67,521.03 L751.27,525.95 L753.86,524.48 L756.45,520.49 L759.04,525.94 L761.63,526.96 L764.22,531.14 L766.81,536.37 L769.40,542.94 L771.99,535.03 L774.58,513.11 L777.17,512.07 L779.76,510.11 L782.35,499.55 L784.94,484.46 L787.53,472.22 L790.12,480.28 L792.71,491.00 L795.30,495.69 L797.89,493.92 L800.48,485.21 L803.07,503.56 L805.66,510.37 L808.25,521.14 L810.84,516.60 L813.43,484.47 L816.02,477.49 L818.61,504.35 L821.20,506.43 L823.80,500.70 L826.39,484.64 L828.98,493.26 L831.57,518.12 L834.16,531.02 L836.75,505.17 L839.34,487.86 L841.93,498.47 L844.52,492.55 L847.11,479.95 L849.70,477.89 L852.29,481.20 L854.88,458.86 L857.47,461.57 L860.06,435.86 L862.65,454.14 L865.24,461.73 L867.83,457.91 L870.42,427.75 L873.01,456.84 L875.60,443.15 L878.19,470.20 L880.78,458.07 L883.37,447.82 L885.96,454.50 L888.55,483.78 L891.14,468.65 L893.73,483.72 L896.33,471.52 L898.92,469.01 L901.51,463.25 L904.10,447.76 L906.69,436.49 L909.28,453.18 L911.87,454.35 L914.46,451.46 L917.05,431.68 L919.64,446.30 L922.23,474.59 L924.82,479.72 L927.41,468.14 L930.00,459.56" fill="none" stroke="#60a5fa" stroke-width="2.2" stroke-linecap="round" />
</svg>
