<svg xmlns="http://www.w3.org/2000/svg" viewBox="0 0 960 640" width="960" height="640">
  <rect width="960" height="640" fill="#0f172a" />
  <line x1="40" y1="40.00" x2="920.00" y2="40.00" stroke="#94a3b8" stroke-opacity="0.18" stroke-width="1" /><line x1="40" y1="128.00" x2="920.00" y2="128.00" stroke="#94a3b8" stroke-opacity="0.18" stroke-width="1" /><line x1="40" y1="216.00" x2="920.00" y2="216.00" stroke="#94a3b8" stroke-opacity="0.18" stroke-width="1" /><line x1="40" y1="304.00" x2="920.00" y2="304.00" stroke="#94a3b8" stroke-opacity="0.18" stroke-width="1" />
  <line x1="40" y1="336.00" x2="920.00" y2="336.00" stroke="#94a3b8" stroke-opacity="0.18" stroke-width="1" /><line x1="40" y1="424.00" x2="920.00" y2="424.00" stroke="#94a3b8" stroke-opacity="0.18" stroke-width="1" /><line x1="40" y1="512.00" x2="920.00" y2="512.00" stroke="#94a3b8" stroke-opacity="0.18" stroke-width="1" /><line x1="40" y1="600.00" x2="920.00" y2="600.00" stroke="#94a3b8" stroke-opacity="0.18" stroke-width="1" />
  <line x1="40" y1="320.00" x2="920.00" y2="320.00" stroke="#1f2937" stroke-width="1" />
  <polyline points="40.00,250.45 70.34,290.19 100.69,250.99 131.03,236.37 161.38,282.07 191.72,168.11 222.07,153.72 252.41,204.94 282.76,260.95 313.10,215.46 343.45,201.77 373.79,191.83 404.14,250.07 434.48,210.58 464.83,304.00 495.17,277.96 525.52,236.22 555.86,261.78 586.21,219.24 616.55,216.58 646.90,215.12 677.24,211.87 707.59,194.58 737.93,227.27 768.28,40.00 798.62,247.69 828.97,237.05 859.31,260.95 889.66,236.84 920.00,197.14" fill="none" stroke="#60a5fa" stroke-width="2" stroke-linecap="round" stroke-linejoin="round" />
  <polyline points="40.00,471.40 42.75,479.43 45.50,492.91 48.25,492.64 51.00,486.96 53.75,486.88 56.50,495.57 59.25,508.18 62.00,510.60 64.75,495.54 67.50,493.00 70.25,502.90 73.00,499.55 75.75,492.71 78.50,394.87 81.25,342.52 84.00,336.06 86.75,341.75 89.50,336.00 92.25,341.86 95.00,344.22 97.75,447.93 100.50,500.74 103.25,519.63 106.00,505.68 108.75,512.48 111.50,500.58 114.25,508.39 117.00,499.21 119.75,486.60 122.50,491.07 125.25,504.47 128.00,508.01 130.75,518.91 133.50,512.74 136.25,516.49 139.00,535.15 141.75,525.96 144.50,511.27 147.25,501.84 150.00,496.32 152.75,508.89 155.50,517.75 158.25,517.93 161.00,547.78 163.75,573.79 166.50,580.39 169.25,586.80 172.00,436.70 174.75,392.21 177.50,390.76 180.25,370.48 183.00,357.01 185.75,365.70 188.50,368.45 191.25,511.94 194.00,546.22 196.75,543.12 199.50,533.88 202.25,522.17 205.00,510.04 207.75,499.09 210.50,480.02 213.25,472.62 216.00,446.89 218.75,447.33 221.50,463.32 224.25,468.78 227.00,499.38 229.75,520.84 232.50,528.61 235.25,552.43 238.00,563.97 240.75,559.64 243.50,562.45 246.25,546.13 249.00,553.26 251.75,560.65 254.50,545.27 257.25,562.24 260.00,562.98 262.75,562.74 265.50,571.46 268.25,565.91 271.00,568.69 273.75,600.00 276.50,581.42 279.25,557.58 282.00,554.85 284.75,545.56 287.50,532.39 290.25,529.50 293.00,510.98 295.75,504.95 298.50,531.73 301.25,527.59 304.00,529.78 306.75,526.65 309.50,511.48 312.25,507.66 315.00,513.20 317.75,497.88 320.50,492.63 323.25,496.93 326.00,512.25 328.75,510.63 331.50,519.61 334.25,513.46 337.00,519.10 339.75,521.27 342.50,518.88 345.25,512.99 348.00,510.56 350.75,486.08 353.50,490.61 356.25,500.75 359.00,494.46 361.75,492.51 364.50,496.43 367.25,509.62 370.00,533.01 372.75,520.66 375.50,504.88 378.25,516.74 381.00,491.43 383.75,489.54 386.50,480.44 389.25,480.13 392.00,488.14 394.75,486.45 397.50,475.72 400.25,473.15 403.00,462.03 405.75,459.11 408.50,457.74 411.25,461.35 414.00,470.05 416.75,479.11 419.50,493.41 422.25,497.12 425.00,500.75 427.75,486.37 430.50,466.24 433.25,464.08 436.00,439.67 438.75,439.48 441.50,447.73 444.25,447.27 447.00,460.80 449.75,487.06 452.50,481.39 455.25,493.63 458.00,508.78 460.75,511.14 463.50,531.48 466.25,523.85 469.00,498.82 471.75,510.16 474.50,518.40 477.25,509.75 480.00,499.54 482.75,474.42 485.50,483.64 488.25,475.61 491.00,460.28 493.75,451.49 496.50,447.53 499.25,442.40 502.00,453.61 504.75,436.06 507.50,446.62 510.25,466.46 513.00,472.58 515.75,480.07 518.50,494.53 521.25,484.71 524.00,505.88 526.75,505.47 529.50,503.63 532.25,509.14 535.00,511.29 537.75,509.49 540.50,511.51 543.25,504.89 546.00,494.35 548.75,486.82 551.50,484.89 554.25,474.91 557.00,458.97 559.75,462.87 562.50,470.85 565.25,502.29 568.00,487.35 570.75,475.78 573.50,479.81 576.25,498.32 579.00,491.76 581.75,479.63 584.50,458.62 587.25,460.48 590.00,462.28 592.75,458.07 595.50,438.79 598.25,444.62 601.00,455.35 603.75,463.09 606.50,478.27 609.25,494.86 612.00,509.15 614.75,503.43 617.50,500.47 620.25,483.10 623.00,478.47 625.75,487.44 628.50,478.81 631.25,481.05 634.00,504.53 636.75,506.47 639.50,516.81 642.25,528.24 645.00,535.94 647.75,535.55 650.50,532.94 653.25,526.31 656.00,530.31 658.75,513.88 661.50,488.51 664.25,482.45 667.00,485.88 669.75,477.39 672.50,479.07 675.25,470.40 678.00,478.95 680.75,494.58 683.50,494.42 686.25,494.51 689.00,487.68 691.75,480.82 694.50,486.30 697.25,501.50 700.00,507.70 702.75,491.19 705.50,478.04 708.25,462.80 711.00,446.65 713.75,436.12 716.50,412.48 719.25,410.27 722.00,410.56 724.75,416.91 727.50,428.62 730.25,436.02 733.00,465.48 735.75,486.15 738.50,501.14 741.25,529.80 744.00,541.16 746.75,564.15 749.50,586.81 752.25,562.12 755.00,561.08 757.75,532.63 760.50,523.40 763.25,522.54 766.00,515.27 768.75,501.92 771.50,497.86 774.25,488.14 777.00,510.31 779.75,501.81 782.50,504.19 785.25,503.90 788.00,522.77 790.75,533.58 793.50,541.48 796.25,547.31 799.00,553.37 801.75,557.21 804.50,560.31 807.25,536.98 810.00,534.96 812.75,520.20 815.50,504.14 818.25,494.86 821.00,489.93 823.75,485.79 826.50,492.23 829.25,499.89 832.00,510.25 834.75,504.92 837.50,511.23 840.25,508.09 843.00,516.42 845.75,520.41 848.50,513.86 851.25,531.17 854.00,529.55 856.75,509.40 859.50,499.18 862.25,492.61 865.00,484.63 867.75,476.86 870.50,456.58 873.25,474.99 876.00,487.77 878.75,510.02 881.50,513.84 884.25,518.51 887.00,531.99 889.75,538.14 892.50,530.62 895.25,531.64 898.00,510.94 900.75,492.21 903.50,490.20 906.25,440.38 909.00,446.78 911.75,451.37 914.50,461.67 917.25,467.28 920.00,467.86" fill="none" stroke="#60a5fa" stroke-width="2" stroke-linecap="round" stroke-linejoin="round" />
  
  
  </svg>