<svg xmlns="http://www.w3.org/2000/svg" viewBox="0 0 960 720" width="960" height="720">
<rect width="960" height="720" fill="#0f172a" />
<text x="480" y="28" fill="#e2e8f0" font-size="16" font-weight="700" text-anchor="middle">呼吸频率均值趋势图</text>
<text x="70" y="70" fill="#e2e8f0" font-size="13" font-weight="600">本月分天指标明细</text>
<line x1="70" y1="323.00" x2="930" y2="323.00" stroke="#94a3b8" stroke-opacity="0.18" stroke-width="1" />
<text x="62" y="327.00" fill="#cbd5f5" font-size="10" text-anchor="end">15.6</text>
<line x1="70" y1="260.75" x2="930" y2="260.75" stroke="#94a3b8" stroke-opacity="0.18" stroke-width="1" />
<text x="62" y="264.75" fill="#cbd5f5" font-size="10" text-anchor="end">16.6</text>
<line x1="70" y1="198.50" x2="930" y2="198.50" stroke="#94a3b8" stroke-opacity="0.18" stroke-width="1" />
<text x="62" y="202.50" fill="#cbd5f5" font-size="10" text-anchor="end">17.6</text>
<line x1="70" y1="136.25" x2="930" y2="136.25" stroke="#94a3b8" stroke-opacity="0.18" stroke-width="1" />
<text x="62" y="140.25" fill="#cbd5f5" font-size="10" text-anchor="end">18.7</text>
<line x1="70" y1="74.00" x2="930" y2="74.00" stroke="#94a3b8" stroke-opacity="0.18" stroke-width="1" />
<text x="62" y="78.00" fill="#cbd5f5" font-size="10" text-anchor="end">19.7</text>
<line x1="70.00" y1="323" x2="70.00" y2="327" stroke="#94a3b8" stroke-opacity="0.5" stroke-width="1" />
<text x="70.00" y="341" fill="#cbd5f5" font-size="10" text-anchor="middle">11-19</text>
<line x1="242.00" y1="323" x2="242.00" y2="327" stroke="#94a3b8" stroke-opacity="0.5" stroke-width="1" />
<text x="242.00" y="341" fill="#cbd5f5" font-size="10" text-anchor="middle">11-24</text>
<line x1="414.00" y1="323" x2="414.00" y2="327" stroke="#94a3b8" stroke-opacity="0.5" stroke-width="1" />
<text x="414.00" y="341" fill="#cbd5f5" font-size="10" text-anchor="middle">11-30</text>
<line x1="586.00" y1="323" x2="586.00" y2="327" stroke="#94a3b8" stroke-opacity="0.5" stroke-width="1" />
<text x="586.00" y="341" fill="#cbd5f5" font-size="10" text-anchor="middle">12-06</text>
<line x1="758.00" y1="323" x2="758.00" y2="327" stroke="#94a3b8" stroke-opacity="0.5" stroke-width="1" />
<text x="758.00" y="341" fill="#cbd5f5" font-size="10" text-anchor="middle">12-12</text>
<line x1="930.00" y1="323" x2="930.00" y2="327" stroke="#94a3b8" stroke-opacity="0.5" stroke-width="1" />
<text x="930.00" y="341" fill="#cbd5f5" font-size="10" text-anchor="middle">12-18</text>
<line x1="70" y1="74" x2="70" y2="323" stroke="#94a3b8" stroke-width="1" />
<line x1="70" y1="323" x2="930" y2="323" stroke="#94a3b8" stroke-width="1" />
<path d="M70.00,260.16 L99.66,291.40 L129.31,260.59 L158.97,249.09 L188.62,285.01 L218.28,195.44 L247.93,184.13 L277.59,224.39 L307.24,268.41 L336.90,232.66 L366.55,221.90 L396.21,214.08 L425.86,259.86 L455.52,228.83 L485.17,302.25 L514.83,281.78 L544.48,248.98 L574.14,269.06 L603.79,235.63 L633.45,233.54 L663.10,232.39 L692.76,229.84 L722.41,216.25 L752.07,241.94 L781.72,94.75 L811.38,257.99 L841.03,249.63 L870.69,268.41 L900.34,249.47 L930.00,218.26" fill="none" stroke="#60a5fa" stroke-width="2.2" stroke-linecap="round" />
<circle cx="70.00" cy="260.16" r="3" fill="#60a5fa" stroke="#0f172a" stroke-width="1" />
<text x="70.00" y="250.16" fill="#e2e8f0" font-size="9" text-anchor="middle">16.6</text>
<circle cx="99.66" cy="291.40" r="3" fill="#60a5fa" stroke="#0f172a" stroke-width="1" />
<text x="99.66" y="271.40" fill="#e2e8f0" font-size="9" text-anchor="middle">16.1</text>
<circle cx="129.31" cy="260.59" r="3" fill="#60a5fa" stroke="#0f172a" stroke-width="1" />
<text x="129.31" y="250.59" fill="#e2e8f0" font-size="9" text-anchor="middle">16.6</text>
<circle cx="158.97" cy="249.09" r="3" fill="#60a5fa" stroke="#0f172a" stroke-width="1" />
<text x="158.97" y="229.09" fill="#e2e8f0" font-size="9" text-anchor="middle">16.8</text>
<circle cx="188.62" cy="285.01" r="3" fill="#60a5fa" stroke="#0f172a" stroke-width="1" />
<text x="188.62" y="275.01" fill="#e2e8f0" font-size="9" text-anchor="middle">16.2</text>
<circle cx="218.28" cy="195.44" r="3" fill="#60a5fa" stroke="#0f172a" stroke-width="1" />
<text x="218.28" y="175.44" fill="#e2e8f0" font-size="9" text-anchor="middle">17.7</text>
<circle cx="247.93" cy="184.13" r="3" fill="#60a5fa" stroke="#0f172a" stroke-width="1" />
<text x="247.93" y="174.13" fill="#e2e8f0" font-size="9" text-anchor="middle">17.9</text>
<circle cx="277.59" cy="224.39" r="3" fill="#60a5fa" stroke="#0f172a" stroke-width="1" />
<text x="277.59" y="204.39" fill="#e2e8f0" font-size="9" text-anchor="middle">17.2</text>
<circle cx="307.24" cy="268.41" r="3" fill="#60a5fa" stroke="#0f172a" stroke-width="1" />
<text x="307.24" y="258.41" fill="#e2e8f0" font-size="9" text-anchor="middle">16.5</text>
<circle cx="336.90" cy="232.66" r="3" fill="#60a5fa" stroke="#0f172a" stroke-width="1" />
<text x="336.90" y="212.66" fill="#e2e8f0" font-size="9" text-anchor="middle">17.1</text>
<circle cx="366.55" cy="221.90" r="3" fill="#60a5fa" stroke="#0f172a" stroke-width="1" />
<text x="366.55" y="211.90" fill="#e2e8f0" font-size="9" text-anchor="middle">17.3</text>
<circle cx="396.21" cy="214.08" r="3" fill="#60a5fa" stroke="#0f172a" stroke-width="1" />
<text x="396.21" y="194.08" fill="#e2e8f0" font-size="9" text-anchor="middle">17.4</text>
<circle cx="425.86" cy="259.86" r="3" fill="#60a5fa" stroke="#0f172a" stroke-width="1" />
<text x="425.86" y="249.86" fill="#e2e8f0" font-size="9" text-anchor="middle">16.6</text>
<circle cx="455.52" cy="228.83" r="3" fill="#60a5fa" stroke="#0f172a" stroke-width="1" />
<text x="455.52" y="208.83" fill="#e2e8f0" font-size="9" text-anchor="middle">17.1</text>
<circle cx="485.17" cy="302.25" r="3" fill="#60a5fa" stroke="#0f172a" stroke-width="1" />
<text x="485.17" y="292.25" fill="#e2e8f0" font-size="9" text-anchor="middle">15.9</text>
<circle cx="514.83" cy="281.78" r="3" fill="#60a5fa" stroke="#0f172a" stroke-width="1" />
<text x="514.83" y="261.78" fill="#e2e8f0" font-size="9" text-anchor="middle">16.3</text>
<circle cx="544.48" cy="248.98" r="3" fill="#60a5fa" stroke="#0f172a" stroke-width="1" />
<text x="544.48" y="238.98" fill="#e2e8f0" font-size="9" text-anchor="middle">16.8</text>
<circle cx="574.14" cy="269.06" r="3" fill="#60a5fa" stroke="#0f172a" stroke-width="1" />
<text x="574.14" y="249.06" fill="#e2e8f0" font-size="9" text-anchor="middle">16.5</text>
<circle cx="603.79" cy="235.63" r="3" fill="#60a5fa" stroke="#0f172a" stroke-width="1" />
<text x="603.79" y="225.63" fill="#e2e8f0" font-size="9" text-anchor="middle">17</text>
<circle cx="633.45" cy="233.54" r="3" fill="#60a5fa" stroke="#0f172a" stroke-width="1" />
<text x="633.45" y="213.54" fill="#e2e8f0" font-size="9" text-anchor="middle">17.1</text>
<circle cx="663.10" cy="232.39" r="3" fill="#60a5fa" stroke="#0f172a" stroke-width="1" />
<text x="663.10" y="222.39" fill="#e2e8f0" font-size="9" text-anchor="middle">17.1</text>
<circle cx="692.76" cy="229.84" r="3" fill="#60a5fa" stroke="#0f172a" stroke-width="1" />
<text x="692.76" y="209.84" fill="#e2e8f0" font-size="9" text-anchor="middle">17.1</text>
<circle cx="722.41" cy="216.25" r="3" fill="#60a5fa" stroke="#0f172a" stroke-width="1" />
<text x="722.41" y="206.25" fill="#e2e8f0" font-size="9" text-anchor="middle">17.4</text>
<circle cx="752.07" cy="241.94" r="3" fill="#60a5fa" stroke="#0f172a" stroke-width="1" />
<text x="752.07" y="221.94" fill="#e2e8f0" font-size="9" text-anchor="middle">16.9</text>
<circle cx="781.72" cy="94.75" r="3" fill="#60a5fa" stroke="#0f172a" stroke-width="1" />
<text x="781.72" y="84.75" fill="#e2e8f0" font-size="9" text-anchor="middle">19.3</text>
<circle cx="811.38" cy="257.99" r="3" fill="#60a5fa" stroke="#0f172a" stroke-width="1" />
<text x="811.38" y="237.99" fill="#e2e8f0" font-size="9" text-anchor="middle">16.7</text>
<circle cx="841.03" cy="249.63" r="3" fill="#60a5fa" stroke="#0f172a" stroke-width="1" />
<text x="841.03" y="239.63" fill="#e2e8f0" font-size="9" text-anchor="middle">16.8</text>
<circle cx="870.69" cy="268.41" r="3" fill="#60a5fa" stroke="#0f172a" stroke-width="1" />
<text x="870.69" y="248.41" fill="#e2e8f0" font-size="9" text-anchor="middle">16.5</text>
<circle cx="900.34" cy="249.47" r="3" fill="#60a5fa" stroke="#0f172a" stroke-width="1" />
<text x="900.34" y="239.47" fill="#e2e8f0" font-size="9" text-anchor="middle">16.8</text>
<circle cx="930.00" cy="218.26" r="3" fill="#60a5fa" stroke="#0f172a" stroke-width="1" />
<text x="930.00" y="198.26" fill="#e2e8f0" font-size="9" text-anchor="middle">17.3</text>
<text x="70" y="403" fill="#e2e8f0" font-size="13" font-weight="600">本年核心指标趋势（滑动7日窗口平均）</text>
<line x1="70" y1="656.00" x2="930" y2="656.00" stroke="#94a3b8" stroke-opacity="0.18" stroke-width="1" />
<text x="62" y="660.00" fill="#cbd5f5" font-size="10" text-anchor="end">15.9</text>
<line x1="70" y1="593.75" x2="930" y2="593.75" stroke="#94a3b8" stroke-opacity="0.18" stroke-width="1" />
<text x="62" y="597.75" fill="#cbd5f5" font-size="10" text-anchor="end">16.5</text>
<line x1="70" y1="531.50" x2="930" y2="531.50" stroke="#94a3b8" stroke-opacity="0.18" stroke-width="1" />
<text x="62" y="535.50" fill="#cbd5f5" font-size="10" text-anchor="end">17.2</text>
<line x1="70" y1="469.25" x2="930" y2="469.25" stroke="#94a3b8" stroke-opacity="0.18" stroke-width="1" />
<text x="62" y="473.25" fill="#cbd5f5" font-size="10" text-anchor="end">17.8</text>
<line x1="70" y1="407.00" x2="930" y2="407.00" stroke="#94a3b8" stroke-opacity="0.18" stroke-width="1" />
<text x="62" y="411.00" fill="#cbd5f5" font-size="10" text-anchor="end">18.5</text>
<line x1="70.00" y1="656" x2="70.00" y2="660" stroke="#94a3b8" stroke-opacity="0.5" stroke-width="1" />
<text x="70.00" y="674" fill="#cbd5f5" font-size="10" text-anchor="middle">2025-01</text>
<line x1="242.00" y1="656" x2="242.00" y2="660" stroke="#94a3b8" stroke-opacity="0.5" stroke-width="1" />
<text x="242.00" y="674" fill="#cbd5f5" font-size="10" text-anchor="middle">2025-03</text>
<line x1="414.00" y1="656" x2="414.00" y2="660" stroke="#94a3b8" stroke-opacity="0.5" stroke-width="1" />
<text x="414.00" y="674" fill="#cbd5f5" font-size="10" text-anchor="middle">2025-06</text>
<line x1="586.00" y1="656" x2="586.00" y2="660" stroke="#94a3b8" stroke-opacity="0.5" stroke-width="1" />
<text x="586.00" y="674" fill="#cbd5f5" font-size="10" text-anchor="middle">2025-08</text>
<line x1="758.00" y1="656" x2="758.00" y2="660" stroke="#94a3b8" stroke-opacity="0.5" stroke-width="1" />
<text x="758.00" y="674" fill="#cbd5f5" font-size="10" text-anchor="middle">2025-10</text>
<line x1="930.00" y1="656" x2="930.00" y2="660" stroke="#94a3b8" stroke-opacity="0.5" stroke-width="1" />
<text x="930.00" y="674" fill="#cbd5f5" font-size="10" text-anchor="middle">2025-12</text>
<line x1="70" y1="407" x2="70" y2="656" stroke="#94a3b8" stroke-width="1" />
<line x1="70" y1="656" x2="930" y2="656" stroke="#94a3b8" stroke-width="1" />
<path d="M70.00,656.00 L70.00,534.17 L72.62,540.48 L75.24,551.08 L77.87,550.86 L80.49,546.40 L83.11,546.34 L85.73,553.17 L88.35,563.08 L90.98,564.99 L93.60,553.14 L96.22,551.15 L98.84,558.93 L101.46,556.30 L104.09,550.93 L106.71,474.02 L109.33,432.87 L111.95,427.80 L114.57,432.27 L117.20,427.75 L119.82,432.36 L122.44,434.21 L125.06,515.73 L127.68,557.23 L130.30,572.08 L132.93,561.12 L135.55,566.46 L138.17,557.10 L140.79,563.24 L143.41,556.03 L146.04,546.12 L148.66,549.63 L151.28,560.17 L153.90,562.95 L156.52,571.51 L159.15,566.66 L161.77,569.61 L164.39,584.28 L167.01,577.05 L169.63,565.51 L172.26,558.10 L174.88,553.76 L177.50,563.64 L180.12,570.60 L182.74,570.74 L185.37,594.20 L187.99,614.65 L190.61,619.84 L193.23,624.87 L195.85,506.90 L198.48,471.93 L201.10,470.79 L203.72,454.85 L206.34,444.27 L208.96,451.09 L211.59,453.26 L214.21,566.04 L216.83,592.98 L219.45,590.54 L222.07,583.28 L224.70,574.08 L227.32,564.54 L229.94,555.94 L232.56,540.95 L235.18,535.13 L237.80,514.91 L240.43,515.25 L243.05,527.82 L245.67,532.11 L248.29,556.16 L250.91,573.03 L253.54,579.14 L256.16,597.86 L258.78,606.93 L261.40,603.53 L264.02,605.73 L266.65,592.91 L269.27,598.51 L271.89,604.32 L274.51,592.24 L277.13,605.57 L279.76,606.15 L282.38,605.96 L285.00,612.82 L287.62,608.45 L290.24,610.64 L292.87,635.25 L295.49,620.65 L298.11,601.91 L300.73,599.77 L303.35,592.46 L305.98,582.11 L308.60,579.84 L311.22,565.28 L313.84,560.54 L316.46,581.59 L319.09,578.34 L321.71,580.06 L324.33,577.60 L326.95,565.68 L329.57,562.67 L332.20,567.03 L334.82,554.98 L337.44,550.86 L340.06,554.24 L342.68,566.28 L345.30,565.01 L347.93,572.06 L350.55,567.23 L353.17,571.66 L355.79,573.37 L358.41,571.49 L361.04,566.86 L363.66,564.95 L366.28,545.71 L368.90,549.27 L371.52,557.24 L374.15,552.30 L376.77,550.77 L379.39,553.84 L382.01,564.22 L384.63,582.60 L387.26,572.89 L389.88,560.49 L392.50,569.81 L395.12,549.92 L397.74,548.43 L400.37,541.28 L402.99,541.04 L405.61,547.33 L408.23,546.00 L410.85,537.57 L413.48,535.55 L416.10,526.80 L418.72,524.51 L421.34,523.44 L423.96,526.27 L426.59,533.11 L429.21,540.23 L431.83,551.47 L434.45,554.39 L437.07,557.24 L439.70,545.94 L442.32,530.12 L444.94,528.42 L447.56,509.23 L450.18,509.09 L452.80,515.57 L455.43,515.21 L458.05,525.84 L460.67,546.48 L463.29,542.02 L465.91,551.65 L468.54,563.55 L471.16,565.41 L473.78,581.39 L476.40,575.40 L479.02,555.72 L481.65,564.63 L484.27,571.11 L486.89,564.31 L489.51,556.29 L492.13,536.55 L494.76,543.79 L497.38,537.48 L500.00,525.43 L502.62,518.52 L505.24,515.41 L507.87,511.38 L510.49,520.19 L513.11,506.40 L515.73,514.70 L518.35,530.29 L520.98,535.10 L523.60,540.98 L526.22,552.35 L528.84,544.64 L531.46,561.27 L534.09,560.95 L536.71,559.50 L539.33,563.84 L541.95,565.52 L544.57,564.11 L547.20,565.70 L549.82,560.50 L552.44,552.21 L555.06,546.29 L557.68,544.77 L560.30,536.93 L562.93,524.41 L565.55,527.47 L568.17,533.74 L570.79,558.45 L573.41,546.71 L576.04,537.62 L578.66,540.78 L581.28,555.33 L583.90,550.17 L586.52,540.64 L589.15,524.13 L591.77,525.59 L594.39,527.00 L597.01,523.69 L599.63,508.54 L602.26,513.12 L604.88,521.56 L607.50,527.64 L610.12,539.57 L612.74,552.61 L615.37,563.85 L617.99,559.35 L620.61,557.02 L623.23,543.37 L646.83,539.73 L649.45,546.78 L652.07,539.99 L654.70,541.76 L657.32,560.21 L659.94,561.74 L662.56,569.87 L665.18,578.84 L667.80,584.90 L670.43,584.60 L673.05,582.54 L675.67,577.33 L678.29,580.48 L680.91,567.56 L683.54,547.62 L686.16,542.86 L688.78,545.55 L691.40,538.88 L694.02,540.20 L696.65,533.38 L699.27,540.11 L701.89,552.39 L704.51,552.26 L707.13,552.33 L709.76,546.97 L712.38,541.58 L715.00,545.89 L717.62,557.83 L720.24,562.70 L722.87,549.72 L725.49,539.39 L728.11,527.42 L730.73,514.72 L733.35,506.44 L735.98,487.86 L738.60,486.13 L741.22,486.35 L743.84,491.34 L746.46,500.55 L749.09,506.36 L751.71,529.52 L754.33,545.76 L756.95,557.54 L759.57,580.07 L762.20,589.00 L764.82,607.07 L767.44,624.88 L770.06,605.47 L772.68,604.66 L775.30,582.30 L777.93,575.05 L780.55,574.37 L783.17,568.65 L785.79,558.16 L788.41,554.97 L791.04,547.33 L793.66,564.76 L796.28,558.08 L798.90,559.95 L801.52,559.71 L804.15,574.55 L806.77,583.05 L809.39,589.25 L812.01,593.83 L814.63,598.60 L817.26,601.62 L819.88,604.06 L822.50,585.72 L825.12,584.13 L827.74,572.53 L830.37,559.91 L832.99,552.61 L835.61,548.74 L838.23,545.48 L840.85,550.55 L843.48,556.57 L846.10,564.71 L848.72,560.52 L851.34,565.48 L853.96,563.01 L856.59,569.55 L859.21,572.69 L861.83,567.54 L864.45,581.15 L867.07,579.88 L869.70,564.04 L872.32,556.01 L874.94,550.84 L877.56,544.57 L880.18,538.46 L882.80,522.53 L885.43,537.00 L888.05,547.04 L890.67,564.53 L893.29,567.53 L895.91,571.20 L898.54,581.79 L901.16,586.63 L903.78,580.72 L906.40,581.52 L909.02,565.25 L911.65,550.53 L914.27,548.95 L916.89,509.79 L919.51,514.82 L922.13,518.43 L924.76,526.52 L927.38,530.93 L930.00,531.39 L930.00,656.00 Z" fill="#60a5fa" fill-opacity="0.16" stroke="none" />
<path d="M70.00,534.17 L72.62,540.48 L75.24,551.08 L77.87,550.86 L80.49,546.40 L83.11,546.34 L85.73,553.17 L88.35,563.08 L90.98,564.99 L93.60,553.14 L96.22,551.15 L98.84,558.93 L101.46,556.30 L104.09,550.93 L106.71,474.02 L109.33,432.87 L111.95,427.80 L114.57,432.27 L117.20,427.75 L119.82,432.36 L122.44,434.21 L125.06,515.73 L127.68,557.23 L130.30,572.08 L132.93,561.12 L135.55,566.46 L138.17,557.10 L140.79,563.24 L143.41,556.03 L146.04,546.12 L148.66,549.63 L151.28,560.17 L153.90,562.95 L156.52,571.51 L159.15,566.66 L161.77,569.61 L164.39,584.28 L167.01,577.05 L169.63,565.51 L172.26,558.10 L174.88,553.76 L177.50,563.64 L180.12,570.60 L182.74,570.74 L185.37,594.20 L187.99,614.65 L190.61,619.84 L193.23,624.87 L195.85,506.90 L198.48,471.93 L201.10,470.79 L203.72,454.85 L206.34,444.27 L208.96,451.09 L211.59,453.26 L214.21,566.04 L216.83,592.98 L219.45,590.54 L222.07,583.28 L224.70,574.08 L227.32,564.54 L229.94,555.94 L232.56,540.95 L235.18,535.13 L237.80,514.91 L240.43,515.25 L243.05,527.82 L245.67,532.11 L248.29,556.16 L250.91,573.03 L253.54,579.14 L256.16,597.86 L258.78,606.93 L261.40,603.53 L264.02,605.73 L266.65,592.91 L269.27,598.51 L271.89,604.32 L274.51,592.24 L277.13,605.57 L279.76,606.15 L282.38,605.96 L285.00,612.82 L287.62,608.45 L290.24,610.64 L292.87,635.25 L295.49,620.65 L298.11,601.91 L300.73,599.77 L303.35,592.46 L305.98,582.11 L308.60,579.84 L311.22,565.28 L313.84,560.54 L316.46,581.59 L319.09,578.34 L321.71,580.06 L324.33,577.60 L326.95,565.68 L329.57,562.67 L332.20,567.03 L334.82,554.98 L337.44,550.86 L340.06,554.24 L342.68,566.28 L345.30,565.01 L347.93,572.06 L350.55,567.23 L353.17,571.66 L355.79,573.37 L358.41,571.49 L361.04,566.86 L363.66,564.95 L366.28,545.71 L368.90,549.27 L371.52,557.24 L374.15,552.30 L376.77,550.77 L379.39,553.84 L382.01,564.22 L384.63,582.60 L387.26,572.89 L389.88,560.49 L392.50,569.81 L395.12,549.92 L397.74,548.43 L400.37,541.28 L402.99,541.04 L405.61,547.33 L408.23,546.00 L410.85,537.57 L413.48,535.55 L416.10,526.80 L418.72,524.51 L421.34,523.44 L423.96,526.27 L426.59,533.11 L429.21,540.23 L431.83,551.47 L434.45,554.39 L437.07,557.24 L439.70,545.94 L442.32,530.12 L444.94,528.42 L447.56,509.23 L450.18,509.09 L452.80,515.57 L455.43,515.21 L458.05,525.84 L460.67,546.48 L463.29,542.02 L465.91,551.65 L468.54,563.55 L471.16,565.41 L473.78,581.39 L476.40,575.40 L479.02,555.72 L481.65,564.63 L484.27,571.11 L486.89,564.31 L489.51,556.29 L492.13,536.55 L494.76,543.79 L497.38,537.48 L500.00,525.43 L502.62,518.52 L505.24,515.41 L507.87,511.38 L510.49,520.19 L513.11,506.40 L515.73,514.70 L518.35,530.29 L520.98,535.10 L523.60,540.98 L526.22,552.35 L528.84,544.64 L531.46,561.27 L534.09,560.95 L536.71,559.50 L539.33,563.84 L541.95,565.52 L544.57,564.11 L547.20,565.70 L549.82,560.50 L552.44,552.21 L555.06,546.29 L557.68,544.77 L560.30,536.93 L562.93,524.41 L565.55,527.47 L568.17,533.74 L570.79,558.45 L573.41,546.71 L576.04,537.62 L578.66,540.78 L581.28,555.33 L583.90,550.17 L586.52,540.64 L589.15,524.13 L591.77,525.59 L594.39,527.00 L597.01,523.69 L599.63,508.54 L602.26,513.12 L604.88,521.56 L607.50,527.64 L610.12,539.57 L612.74,552.61 L615.37,563.85 L617.99,559.35 L620.61,557.02 L623.23,543.37 L646.83,539.73 L649.45,546.78 L652.07,539.99 L654.70,541.76 L657.32,560.21 L659.94,561.74 L662.56,569.87 L665.18,578.84 L667.80,584.90 L670.43,584.60 L673.05,582.54 L675.67,577.33 L678.29,580.48 L680.91,567.56 L683.54,547.62 L686.16,542.86 L688.78,545.55 L691.40,538.88 L694.02,540.20 L696.65,533.38 L699.27,540.11 L701.89,552.39 L704.51,552.26 L707.13,552.33 L709.76,546.97 L712.38,541.58 L715.00,545.89 L717.62,557.83 L720.24,562.70 L722.87,549.72 L725.49,539.39 L728.11,527.42 L730.73,514.72 L733.35,506.44 L735.98,487.86 L738.60,486.13 L741.22,486.35 L743.84,491.34 L746.46,500.55 L749.09,506.36 L751.71,529.52 L754.33,545.76 L756.95,557.54 L759.57,580.07 L762.20,589.00 L764.82,607.07 L767.44,624.88 L770.06,605.47 L772.68,604.66 L775.30,582.30 L777.93,575.05 L780.55,574.37 L783.17,568.65 L785.79,558.16 L788.41,554.97 L791.04,547.33 L793.66,564.76 L796.28,558.08 L798.90,559.95 L801.52,559.71 L804.15,574.55 L806.77,583.05 L809.39,589.25 L812.01,593.83 L814.63,598.60 L817.26,601.62 L819.88,604.06 L822.50,585.72 L825.12,584.13 L827.74,572.53 L830.37,559.91 L832.99,552.61 L835.61,548.74 L838.23,545.48 L840.85,550.55 L843.48,556.57 L846.10,564.71 L848.72,560.52 L851.34,565.48 L853.96,563.01 L856.59,569.55 L859.21,572.69 L861.83,567.54 L864.45,581.15 L867.07,579.88 L869.70,564.04 L872.32,556.01 L874.94,550.84 L877.56,544.57 L880.18,538.46 L882.80,522.53 L885.43,537.00 L888.05,547.04 L890.67,564.53 L893.29,567.53 L895.91,571.20 L898.54,581.79 L901.16,586.63 L903.78,580.72 L906.40,581.52 L909.02,565.25 L911.65,550.53 L914.27,548.95 L916.89,509.79 L919.51,514.82 L922.13,518.43 L924.76,526.52 L927.38,530.93 L930.00,531.39" fill="none" stroke="#60a5fa" stroke-width="2.2" stroke-linecap="round" />
</svg>
