<svg xmlns="http://www.w3.org/2000/svg" viewBox="0 0 960 720" width="960" height="720">
<rect width="960" height="720" fill="#0f172a" />
<text x="480" y="28" fill="#e2e8f0" font-size="16" font-weight="700" text-anchor="middle">呼吸频率均值趋势图</text>
<text x="70" y="70" fill="#e2e8f0" font-size="13" font-weight="600">本月分天指标明细</text>
<line x1="70" y1="323.00" x2="930" y2="323.00" stroke="#94a3b8" stroke-opacity="0.18" stroke-width="1" />
<text x="62" y="327.00" fill="#cbd5f5" font-size="10" text-anchor="end">15.6</text>
<line x1="70" y1="260.75" x2="930" y2="260.75" stroke="#94a3b8" stroke-opacity="0.18" stroke-width="1" />
<text x="62" y="264.75" fill="#cbd5f5" font-size="10" text-anchor="end">16.6</text>
<line x1="70" y1="198.50" x2="930" y2="198.50" stroke="#94a3b8" stroke-opacity="0.18" stroke-width="1" />
<text x="62" y="202.50" fill="#cbd5f5" font-size="10" text-anchor="end">17.6</text>
<line x1="70" y1="136.25" x2="930" y2="136.25" stroke="#94a3b8" stroke-opacity="0.18" stroke-width="1" />
<text x="62" y="140.25" fill="#cbd5f5" font-size="10" text-anchor="end">18.7</text>
<line x1="70" y1="74.00" x2="930" y2="74.00" stroke="#94a3b8" stroke-opacity="0.18" stroke-width="1" />
<text x="62" y="78.00" fill="#cbd5f5" font-size="10" text-anchor="end">19.7</text>
<line x1="70.00" y1="323" x2="70.00" y2="327" stroke="#94a3b8" stroke-opacity="0.5" stroke-width="1" />
<text x="70.00" y="341" fill="#cbd5f5" font-size="10" text-anchor="middle">11-21</text>
<line x1="242.00" y1="323" x2="242.00" y2="327" stroke="#94a3b8" stroke-opacity="0.5" stroke-width="1" />
<text x="242.00" y="341" fill="#cbd5f5" font-size="10" text-anchor="middle">11-26</text>
<line x1="414.00" y1="323" x2="414.00" y2="327" stroke="#94a3b8" stroke-opacity="0.5" stroke-width="1" />
<text x="414.00" y="341" fill="#cbd5f5" font-size="10" text-anchor="middle">12-02</text>
<line x1="586.00" y1="323" x2="586.00" y2="327" stroke="#94a3b8" stroke-opacity="0.5" stroke-width="1" />
<text x="586.00" y="341" fill="#cbd5f5" font-size="10" text-anchor="middle">12-08</text>
<line x1="758.00" y1="323" x2="758.00" y2="327" stroke="#94a3b8" stroke-opacity="0.5" stroke-width="1" />
<text x="758.00" y="341" fill="#cbd5f5" font-size="10" text-anchor="middle">12-14</text>
<line x1="930.00" y1="323" x2="930.00" y2="327" stroke="#94a3b8" stroke-opacity="0.5" stroke-width="1" />
<text x="930.00" y="341" fill="#cbd5f5" font-size="10" text-anchor="middle">12-20</text>
<line x1="70" y1="74" x2="70" y2="323" stroke="#94a3b8" stroke-width="1" />
<line x1="70" y1="323" x2="930" y2="323" stroke="#94a3b8" stroke-width="1" />
<path d="M70.00,260.59 L99.66,249.09 L129.31,285.01 L158.97,195.44 L188.62,184.13 L218.28,224.39 L247.93,268.41 L277.59,232.66 L307.24,221.90 L336.90,214.08 L366.55,259.86 L396.21,228.83 L425.86,302.25 L455.52,281.78 L485.17,248.98 L514.83,269.06 L544.48,235.63 L574.14,233.54 L603.79,232.39 L633.45,229.84 L663.10,216.25 L692.76,241.94 L722.41,94.75 L752.07,257.99 L781.72,249.63 L811.38,268.41 L841.03,249.47 L870.69,215.60 L900.34,235.77 L930.00,251.81" fill="none" stroke="#60a5fa" stroke-width="2.2" stroke-linecap="round" />
<circle cx="70.00" cy="260.59" r="3" fill="#60a5fa" stroke="#0f172a" stroke-width="1" />
<text x="70.00" y="250.59" fill="#e2e8f0" font-size="9" text-anchor="middle">16.6</text>
<circle cx="99.66" cy="249.09" r="3" fill="#60a5fa" stroke="#0f172a" stroke-width="1" />
<text x="99.66" y="229.09" fill="#e2e8f0" font-size="9" text-anchor="middle">16.8</text>
<circle cx="129.31" cy="285.01" r="3" fill="#60a5fa" stroke="#0f172a" stroke-width="1" />
<text x="129.31" y="275.01" fill="#e2e8f0" font-size="9" text-anchor="middle">16.2</text>
<circle cx="158.97" cy="195.44" r="3" fill="#60a5fa" stroke="#0f172a" stroke-width="1" />
<text x="158.97" y="175.44" fill="#e2e8f0" font-size="9" text-anchor="middle">17.7</text>
<circle cx="188.62" cy="184.13" r="3" fill="#60a5fa" stroke="#0f172a" stroke-width="1" />
<text x="188.62" y="174.13" fill="#e2e8f0" font-size="9" text-anchor="middle">17.9</text>
<circle cx="218.28" cy="224.39" r="3" fill="#60a5fa" stroke="#0f172a" stroke-width="1" />
<text x="218.28" y="204.39" fill="#e2e8f0" font-size="9" text-anchor="middle">17.2</text>
<circle cx="247.93" cy="268.41" r="3" fill="#60a5fa" stroke="#0f172a" stroke-width="1" />
<text x="247.93" y="258.41" fill="#e2e8f0" font-size="9" text-anchor="middle">16.5</text>
<circle cx="277.59" cy="232.66" r="3" fill="#60a5fa" stroke="#0f172a" stroke-width="1" />
<text x="277.59" y="212.66" fill="#e2e8f0" font-size="9" text-anchor="middle">17.1</text>
<circle cx="307.24" cy="221.90" r="3" fill="#60a5fa" stroke="#0f172a" stroke-width="1" />
<text x="307.24" y="211.90" fill="#e2e8f0" font-size="9" text-anchor="middle">17.3</text>
<circle cx="336.90" cy="214.08" r="3" fill="#60a5fa" stroke="#0f172a" stroke-width="1" />
<text x="336.90" y="194.08" fill="#e2e8f0" font-size="9" text-anchor="middle">17.4</text>
<circle cx="366.55" cy="259.86" r="3" fill="#60a5fa" stroke="#0f172a" stroke-width="1" />
<text x="366.55" y="249.86" fill="#e2e8f0" font-size="9" text-anchor="middle">16.6</text>
<circle cx="396.21" cy="228.83" r="3" fill="#60a5fa" stroke="#0f172a" stroke-width="1" />
<text x="396.21" y="208.83" fill="#e2e8f0" font-size="9" text-anchor="middle">17.1</text>
<circle cx="425.86" cy="302.25" r="3" fill="#60a5fa" stroke="#0f172a" stroke-width="1" />
<text x="425.86" y="292.25" fill="#e2e8f0" font-size="9" text-anchor="middle">15.9</text>
<circle cx="455.52" cy="281.78" r="3" fill="#60a5fa" stroke="#0f172a" stroke-width="1" />
<text x="455.52" y="261.78" fill="#e2e8f0" font-size="9" text-anchor="middle">16.3</text>
<circle cx="485.17" cy="248.98" r="3" fill="#60a5fa" stroke="#0f172a" stroke-width="1" />
<text x="485.17" y="238.98" fill="#e2e8f0" font-size="9" text-anchor="middle">16.8</text>
<circle cx="514.83" cy="269.06" r="3" fill="#60a5fa" stroke="#0f172a" stroke-width="1" />
<text x="514.83" y="249.06" fill="#e2e8f0" font-size="9" text-anchor="middle">16.5</text>
<circle cx="544.48" cy="235.63" r="3" fill="#60a5fa" stroke="#0f172a" stroke-width="1" />
<text x="544.48" y="225.63" fill="#e2e8f0" font-size="9" text-anchor="middle">17</text>
<circle cx="574.14" cy="233.54" r="3" fill="#60a5fa" stroke="#0f172a" stroke-width="1" />
<text x="574.14" y="213.54" fill="#e2e8f0" font-size="9" text-anchor="middle">17.1</text>
<circle cx="603.79" cy="232.39" r="3" fill="#60a5fa" stroke="#0f172a" stroke-width="1" />
<text x="603.79" y="222.39" fill="#e2e8f0" font-size="9" text-anchor="middle">17.1</text>
<circle cx="633.45" cy="229.84" r="3" fill="#60a5fa" stroke="#0f172a" stroke-width="1" />
<text x="633.45" y="209.84" fill="#e2e8f0" font-size="9" text-anchor="middle">17.1</text>
<circle cx="663.10" cy="216.25" r="3" fill="#60a5fa" stroke="#0f172a" stroke-width="1" />
<text x="663.10" y="206.25" fill="#e2e8f0" font-size="9" text-anchor="middle">17.4</text>
<circle cx="692.76" cy="241.94" r="3" fill="#60a5fa" stroke="#0f172a" stroke-width="1" />
<text x="692.76" y="221.94" fill="#e2e8f0" font-size="9" text-anchor="middle">16.9</text>
<circle cx="722.41" cy="94.75" r="3" fill="#60a5fa" stroke="#0f172a" stroke-width="1" />
<text x="722.41" y="84.75" fill="#e2e8f0" font-size="9" text-anchor="middle">19.3</text>
<circle cx="752.07" cy="257.99" r="3" fill="#60a5fa" stroke="#0f172a" stroke-width="1" />
<text x="752.07" y="237.99" fill="#e2e8f0" font-size="9" text-anchor="middle">16.7</text>
<circle cx="781.72" cy="249.63" r="3" fill="#60a5fa" stroke="#0f172a" stroke-width="1" />
<text x="781.72" y="239.63" fill="#e2e8f0" font-size="9" text-anchor="middle">16.8</text>
<circle cx="811.38" cy="268.41" r="3" fill="#60a5fa" stroke="#0f172a" stroke-width="1" />
<text x="811.38" y="248.41" fill="#e2e8f0" font-size="9" text-anchor="middle">16.5</text>
<circle cx="841.03" cy="249.47" r="3" fill="#60a5fa" stroke="#0f172a" stroke-width="1" />
<text x="841.03" y="239.47" fill="#e2e8f0" font-size="9" text-anchor="middle">16.8</text>
<circle cx="870.69" cy="215.60" r="3" fill="#60a5fa" stroke="#0f172a" stroke-width="1" />
<text x="870.69" y="195.60" fill="#e2e8f0" font-size="9" text-anchor="middle">17.4</text>
<circle cx="900.34" cy="235.77" r="3" fill="#60a5fa" stroke="#0f172a" stroke-width="1" />
<text x="900.34" y="225.77" fill="#e2e8f0" font-size="9" text-anchor="middle">17</text>
<circle cx="930.00" cy="251.81" r="3" fill="#60a5fa" stroke="#0f172a" stroke-width="1" />
<text x="930.00" y="231.81" fill="#e2e8f0" font-size="9" text-anchor="middle">16.8</text>
<text x="70" y="403" fill="#e2e8f0" font-size="13" font-weight="600">本年核心指标趋势（滑动7日窗口平均）</text>
<line x1="70" y1="656.00" x2="930" y2="656.00" stroke="#94a3b8" stroke-opacity="0.18" stroke-width="1" />
<text x="62" y="660.00" fill="#cbd5f5" font-size="10" text-anchor="end">15.9</text>
<line x1="70" y1="593.75" x2="930" y2="593.75" stroke="#94a3b8" stroke-opacity="0.18" stroke-width="1" />
<text x="62" y="597.75" fill="#cbd5f5" font-size="10" text-anchor="end">16.5</text>
<line x1="70" y1="531.50" x2="930" y2="531.50" stroke="#94a3b8" stroke-opacity="0.18" stroke-width="1" />
<text x="62" y="535.50" fill="#cbd5f5" font-size="10" text-anchor="end">17.2</text>
<line x1="70" y1="469.25" x2="930" y2="469.25" stroke="#94a3b8" stroke-opacity="0.18" stroke-width="1" />
<text x="62" y="473.25" fill="#cbd5f5" font-size="10" text-anchor="end">17.8</text>
<line x1="70" y1="407.00" x2="930" y2="407.00" stroke="#94a3b8" stroke-opacity="0.18" stroke-width="1" />
<text x="62" y="411.00" fill="#cbd5f5" font-size="10" text-anchor="end">18.5</text>
<line x1="70.00" y1="656" x2="70.00" y2="660" stroke="#94a3b8" stroke-opacity="0.5" stroke-width="1" />
<text x="70.00" y="674" fill="#cbd5f5" font-size="10" text-anchor="middle">2025-01</text>
<line x1="242.00" y1="656" x2="242.00" y2="660" stroke="#94a3b8" stroke-opacity="0.5" stroke-width="1" />
<text x="242.00" y="674" fill="#cbd5f5" font-size="10" text-anchor="middle">2025-03</text>
<line x1="414.00" y1="656" x2="414.00" y2="660" stroke="#94a3b8" stroke-opacity="0.5" stroke-width="1" />
<text x="414.00" y="674" fill="#cbd5f5" font-size="10" text-anchor="middle">2025-06</text>
<line x1="586.00" y1="656" x2="586.00" y2="660" stroke="#94a3b8" stroke-opacity="0.5" stroke-width="1" />
<text x="586.00" y="674" fill="#cbd5f5" font-size="10" text-anchor="middle">2025-08</text>
<line x1="758.00" y1="656" x2="758.00" y2="660" stroke="#94a3b8" stroke-opacity="0.5" stroke-width="1" />
<text x="758.00" y="674" fill="#cbd5f5" font-size="10" text-anchor="middle">2025-10</text>
<line x1="930.00" y1="656" x2="930.00" y2="660" stroke="#94a3b8" stroke-opacity="0.5" stroke-width="1" />
<text x="930.00" y="674" fill="#cbd5f5" font-size="10" text-anchor="middle">2025-12</text>
<line x1="70" y1="407" x2="70" y2="656" stroke="#94a3b8" stroke-width="1" />
<line x1="70" y1="656" x2="930" y2="656" stroke="#94a3b8" stroke-width="1" />
<path d="M70.00,656.00 L70.00,534.17 L72.61,540.48 L75.21,551.08 L77.82,550.86 L80.42,546.40 L83.03,546.34 L85.64,553.17 L88.24,563.08 L90.85,564.99 L93.45,553.14 L96.06,551.15 L98.67,558.93 L101.27,556.30 L103.88,550.93 L106.48,474.02 L109.09,432.87 L111.70,427.80 L114.30,432.27 L116.91,427.75 L119.52,432.36 L122.12,434.21 L124.73,515.73 L127.33,557.23 L129.94,572.08 L132.55,561.12 L135.15,566.46 L137.76,557.10 L140.36,563.24 L142.97,556.03 L145.58,546.12 L148.18,549.63 L150.79,560.17 L153.39,562.95 L156.00,571.51 L158.61,566.66 L161.21,569.61 L163.82,584.28 L166.42,577.05 L169.03,565.51 L171.64,558.10 L174.24,553.76 L176.85,563.64 L179.45,570.60 L182.06,570.74 L184.67,594.20 L187.27,614.65 L189.88,619.84 L192.48,624.87 L195.09,506.90 L197.70,471.93 L200.30,470.79 L202.91,454.85 L205.52,444.27 L208.12,451.09 L210.73,453.26 L213.33,566.04 L215.94,592.98 L218.55,590.54 L221.15,583.28 L223.76,574.08 L226.36,564.54 L228.97,555.94 L231.58,540.95 L234.18,535.13 L236.79,514.91 L239.39,515.25 L242.00,527.82 L244.61,532.11 L247.21,556.16 L249.82,573.03 L252.42,579.14 L255.03,597.86 L257.64,606.93 L260.24,603.53 L262.85,605.73 L265.45,592.91 L268.06,598.51 L270.67,604.32 L273.27,592.24 L275.88,605.57 L278.48,606.15 L281.09,605.96 L283.70,612.82 L286.30,608.45 L288.91,610.64 L291.52,635.25 L294.12,620.65 L296.73,601.91 L299.33,599.77 L301.94,592.46 L304.55,582.11 L307.15,579.84 L309.76,565.28 L312.36,560.54 L314.97,581.59 L317.58,578.34 L320.18,580.06 L322.79,577.60 L325.39,565.68 L328.00,562.67 L330.61,567.03 L333.21,554.98 L335.82,550.86 L338.42,554.24 L341.03,566.28 L343.64,565.01 L346.24,572.06 L348.85,567.23 L351.45,571.66 L354.06,573.37 L356.67,571.49 L359.27,566.86 L361.88,564.95 L364.48,545.71 L367.09,549.27 L369.70,557.24 L372.30,552.30 L374.91,550.77 L377.52,553.84 L380.12,564.22 L382.73,582.60 L385.33,572.89 L387.94,560.49 L390.55,569.81 L393.15,549.92 L395.76,548.43 L398.36,541.28 L400.97,541.04 L403.58,547.33 L406.18,546.00 L408.79,537.57 L411.39,535.55 L414.00,526.80 L416.61,524.51 L419.21,523.44 L421.82,526.27 L424.42,533.11 L427.03,540.23 L429.64,551.47 L432.24,554.39 L434.85,557.24 L437.45,545.94 L440.06,530.12 L442.67,528.42 L445.27,509.23 L447.88,509.09 L450.48,515.57 L453.09,515.21 L455.70,525.84 L458.30,546.48 L460.91,542.02 L463.52,551.65 L466.12,563.55 L468.73,565.41 L471.33,581.39 L473.94,575.40 L476.55,555.72 L479.15,564.63 L481.76,571.11 L484.36,564.31 L486.97,556.29 L489.58,536.55 L492.18,543.79 L494.79,537.48 L497.39,525.43 L500.00,518.52 L502.61,515.41 L505.21,511.38 L507.82,520.19 L510.42,506.40 L513.03,514.70 L515.64,530.29 L518.24,535.10 L520.85,540.98 L523.45,552.35 L526.06,544.64 L528.67,561.27 L531.27,560.95 L533.88,559.50 L536.48,563.84 L539.09,565.52 L541.70,564.11 L544.30,565.70 L546.91,560.50 L549.52,552.21 L552.12,546.29 L554.73,544.77 L557.33,536.93 L559.94,524.41 L562.55,527.47 L565.15,533.74 L567.76,558.45 L570.36,546.71 L572.97,537.62 L575.58,540.78 L578.18,555.33 L580.79,550.17 L583.39,540.64 L586.00,524.13 L588.61,525.59 L591.21,527.00 L593.82,523.69 L596.42,508.54 L599.03,513.12 L601.64,521.56 L604.24,527.64 L606.85,539.57 L609.45,552.61 L612.06,563.85 L614.67,559.35 L617.27,557.02 L619.88,543.37 L643.33,539.73 L645.94,546.78 L648.55,539.99 L651.15,541.76 L653.76,560.21 L656.36,561.74 L658.97,569.87 L661.58,578.84 L664.18,584.90 L666.79,584.60 L669.39,582.54 L672.00,577.33 L674.61,580.48 L677.21,567.56 L679.82,547.62 L682.42,542.86 L685.03,545.55 L687.64,538.88 L690.24,540.20 L692.85,533.38 L695.45,540.11 L698.06,552.39 L700.67,552.26 L703.27,552.33 L705.88,546.97 L708.48,541.58 L711.09,545.89 L713.70,557.83 L716.30,562.70 L718.91,549.72 L721.52,539.39 L724.12,527.42 L726.73,514.72 L729.33,506.44 L731.94,487.86 L734.55,486.13 L737.15,486.35 L739.76,491.34 L742.36,500.55 L744.97,506.36 L747.58,529.52 L750.18,545.76 L752.79,557.54 L755.39,580.07 L758.00,589.00 L760.61,607.07 L763.21,624.88 L765.82,605.47 L768.42,604.66 L771.03,582.30 L773.64,575.05 L776.24,574.37 L778.85,568.65 L781.45,558.16 L784.06,554.97 L786.67,547.33 L789.27,564.76 L791.88,558.08 L794.48,559.95 L797.09,559.71 L799.70,574.55 L802.30,583.05 L804.91,589.25 L807.52,593.83 L810.12,598.60 L812.73,601.62 L815.33,604.06 L817.94,585.72 L820.55,584.13 L823.15,572.53 L825.76,559.91 L828.36,552.61 L830.97,548.74 L833.58,545.48 L836.18,550.55 L838.79,556.57 L841.39,564.71 L844.00,560.52 L846.61,565.48 L849.21,563.01 L851.82,569.55 L854.42,572.69 L857.03,567.54 L859.64,581.15 L862.24,579.88 L864.85,564.04 L867.45,556.01 L870.06,550.84 L872.67,544.57 L875.27,538.46 L877.88,522.53 L880.48,537.00 L883.09,547.04 L885.70,564.53 L888.30,567.53 L890.91,571.20 L893.52,581.79 L896.12,586.63 L898.73,580.72 L901.33,581.52 L903.94,565.25 L906.55,550.53 L909.15,548.95 L911.76,509.79 L914.36,514.82 L916.97,518.43 L919.58,526.52 L922.18,530.93 L924.79,530.79 L927.39,529.40 L930.00,564.68 L930.00,656.00 Z" fill="#60a5fa" fill-opacity="0.16" stroke="none" />
<path d="M70.00,534.17 L72.61,540.48 L75.21,551.08 L77.82,550.86 L80.42,546.40 L83.03,546.34 L85.64,553.17 L88.24,563.08 L90.85,564.99 L93.45,553.14 L96.06,551.15 L98.67,558.93 L101.27,556.30 L103.88,550.93 L106.48,474.02 L109.09,432.87 L111.70,427.80 L114.30,432.27 L116.91,427.75 L119.52,432.36 L122.12,434.21 L124.73,515.73 L127.33,557.23 L129.94,572.08 L132.55,561.12 L135.15,566.46 L137.76,557.10 L140.36,563.24 L142.97,556.03 L145.58,546.12 L148.18,549.63 L150.79,560.17 L153.39,562.95 L156.00,571.51 L158.61,566.66 L161.21,569.61 L163.82,584.28 L166.42,577.05 L169.03,565.51 L171.64,558.10 L174.24,553.76 L176.85,563.64 L179.45,570.60 L182.06,570.74 L184.67,594.20 L187.27,614.65 L189.88,619.84 L192.48,624.87 L195.09,506.90 L197.70,471.93 L200.30,470.79 L202.91,454.85 L205.52,444.27 L208.12,451.09 L210.73,453.26 L213.33,566.04 L215.94,592.98 L218.55,590.54 L221.15,583.28 L223.76,574.08 L226.36,564.54 L228.97,555.94 L231.58,540.95 L234.18,535.13 L236.79,514.91 L239.39,515.25 L242.00,527.82 L244.61,532.11 L247.21,556.16 L249.82,573.03 L252.42,579.14 L255.03,597.86 L257.64,606.93 L260.24,603.53 L262.85,605.73 L265.45,592.91 L268.06,598.51 L270.67,604.32 L273.27,592.24 L275.88,605.57 L278.48,606.15 L281.09,605.96 L283.70,612.82 L286.30,608.45 L288.91,610.64 L291.52,635.25 L294.12,620.65 L296.73,601.91 L299.33,599.77 L301.94,592.46 L304.55,582.11 L307.15,579.84 L309.76,565.28 L312.36,560.54 L314.97,581.59 L317.58,578.34 L320.18,580.06 L322.79,577.60 L325.39,565.68 L328.00,562.67 L330.61,567.03 L333.21,554.98 L335.82,550.86 L338.42,554.24 L341.03,566.28 L343.64,565.01 L346.24,572.06 L348.85,567.23 L351.45,571.66 L354.06,573.37 L356.67,571.49 L359.27,566.86 L361.88,564.95 L364.48,545.71 L367.09,549.27 L369.70,557.24 L372.30,552.30 L374.91,550.77 L377.52,553.84 L380.12,564.22 L382.73,582.60 L385.33,572.89 L387.94,560.49 L390.55,569.81 L393.15,549.92 L395.76,548.43 L398.36,541.28 L400.97,541.04 L403.58,547.33 L406.18,546.00 L408.79,537.57 L411.39,535.55 L414.00,526.80 L416.61,524.51 L419.21,523.44 L421.82,526.27 L424.42,533.11 L427.03,540.23 L429.64,551.47 L432.24,554.39 L434.85,557.24 L437.45,545.94 L440.06,530.12 L442.67,528.42 L445.27,509.23 L447.88,509.09 L450.48,515.57 L453.09,515.21 L455.70,525.84 L458.30,546.48 L460.91,542.02 L463.52,551.65 L466.12,563.55 L468.73,565.41 L471.33,581.39 L473.94,575.40 L476.55,555.72 L479.15,564.63 L481.76,571.11 L484.36,564.31 L486.97,556.29 L489.58,536.55 L492.18,543.79 L494.79,537.48 L497.39,525.43 L500.00,518.52 L502.61,515.41 L505.21,511.38 L507.82,520.19 L510.42,506.40 L513.03,514.70 L515.64,530.29 L518.24,535.10 L520.85,540.98 L523.45,552.35 L526.06,544.64 L528.67,561.27 L531.27,560.95 L533.88,559.50 L536.48,563.84 L539.09,565.52 L541.70,564.11 L544.30,565.70 L546.91,560.50 L549.52,552.21 L552.12,546.29 L554.73,544.77 L557.33,536.93 L559.94,524.41 L562.55,527.47 L565.15,533.74 L567.76,558.45 L570.36,546.71 L572.97,537.62 L575.58,540.78 L578.18,555.33 L580.79,550.17 L583.39,540.64 L586.00,524.13 L588.61,525.59 L591.21,527.00 L593.82,523.69 L596.42,508.54 L599.03,513.12 L601.64,521.56 L604.24,527.64 L606.85,539.57 L609.45,552.61 L612.06,563.85 L614.67,559.35 L617.27,557.02 L619.88,543.37 L643.33,539.73 L645.94,546.78 L648.55,539.99 L651.15,541.76 L653.76,560.21 L656.36,561.74 L658.97,569.87 L661.58,578.84 L664.18,584.90 L666.79,584.60 L669.39,582.54 L672.00,577.33 L674.61,580.48 L677.21,567.56 L679.82,547.62 L682.42,542.86 L685.03,545.55 L687.64,538.88 L690.24,540.20 L692.85,533.38 L695.45,540.11 L698.06,552.39 L700.67,552.26 L703.27,552.33 L705.88,546.97 L708.48,541.58 L711.09,545.89 L713.70,557.83 L716.30,562.70 L718.91,549.72 L721.52,539.39 L724.12,527.42 L726.73,514.72 L729.33,506.44 L731.94,487.86 L734.55,486.13 L737.15,486.35 L739.76,491.34 L742.36,500.55 L744.97,506.36 L747.58,529.52 L750.18,545.76 L752.79,557.54 L755.39,580.07 L758.00,589.00 L760.61,607.07 L763.21,624.88 L765.82,605.47 L768.42,604.66 L771.03,582.30 L773.64,575.05 L776.24,574.37 L778.85,568.65 L781.45,558.16 L784.06,554.97 L786.67,547.33 L789.27,564.76 L791.88,558.08 L794.48,559.95 L797.09,559.71 L799.70,574.55 L802.30,583.05 L804.91,589.25 L807.52,593.83 L810.12,598.60 L812.73,601.62 L815.33,604.06 L817.94,585.72 L820.55,584.13 L823.15,572.53 L825.76,559.91 L828.36,552.61 L830.97,548.74 L833.58,545.48 L836.18,550.55 L838.79,556.57 L841.39,564.71 L844.00,560.52 L846.61,565.48 L849.21,563.01 L851.82,569.55 L854.42,572.69 L857.03,567.54 L859.64,581.15 L862.24,579.88 L864.85,564.04 L867.45,556.01 L870.06,550.84 L872.67,544.57 L875.27,538.46 L877.88,522.53 L880.48,537.00 L883.09,547.04 L885.70,564.53 L888.30,567.53 L890.91,571.20 L893.52,581.79 L896.12,586.63 L898.73,580.72 L901.33,581.52 L903.94,565.25 L906.55,550.53 L909.15,548.95 L911.76,509.79 L914.36,514.82 L916.97,518.43 L919.58,526.52 L922.18,530.93 L924.79,530.79 L927.39,529.40 L930.00,564.68" fill="none" stroke="#60a5fa" stroke-width="2.2" stroke-linecap="round" />
</svg>
