<svg xmlns="http://www.w3.org/2000/svg" viewBox="0 0 960 720" width="960" height="720">
<rect width="960" height="720" fill="#0f172a" />
<text x="480" y="28" fill="#e2e8f0" font-size="16" font-weight="700" text-anchor="middle">静息心率趋势图</text>
<text x="70" y="70" fill="#e2e8f0" font-size="13" font-weight="600">本月分天指标明细</text>
<line x1="70" y1="323.00" x2="930" y2="323.00" stroke="#94a3b8" stroke-opacity="0.18" stroke-width="1" />
<text x="62" y="327.00" fill="#cbd5f5" font-size="10" text-anchor="end">48.3</text>
<line x1="70" y1="260.75" x2="930" y2="260.75" stroke="#94a3b8" stroke-opacity="0.18" stroke-width="1" />
<text x="62" y="264.75" fill="#cbd5f5" font-size="10" text-anchor="end">53.4</text>
<line x1="70" y1="198.50" x2="930" y2="198.50" stroke="#94a3b8" stroke-opacity="0.18" stroke-width="1" />
<text x="62" y="202.50" fill="#cbd5f5" font-size="10" text-anchor="end">58.5</text>
<line x1="70" y1="136.25" x2="930" y2="136.25" stroke="#94a3b8" stroke-opacity="0.18" stroke-width="1" />
<text x="62" y="140.25" fill="#cbd5f5" font-size="10" text-anchor="end">63.6</text>
<line x1="70" y1="74.00" x2="930" y2="74.00" stroke="#94a3b8" stroke-opacity="0.18" stroke-width="1" />
<text x="62" y="78.00" fill="#cbd5f5" font-size="10" text-anchor="end">68.7</text>
<line x1="70.00" y1="323" x2="70.00" y2="327" stroke="#94a3b8" stroke-opacity="0.5" stroke-width="1" />
<text x="70.00" y="341" fill="#cbd5f5" font-size="10" text-anchor="middle">11-22</text>
<line x1="242.00" y1="323" x2="242.00" y2="327" stroke="#94a3b8" stroke-opacity="0.5" stroke-width="1" />
<text x="242.00" y="341" fill="#cbd5f5" font-size="10" text-anchor="middle">11-27</text>
<line x1="414.00" y1="323" x2="414.00" y2="327" stroke="#94a3b8" stroke-opacity="0.5" stroke-width="1" />
<text x="414.00" y="341" fill="#cbd5f5" font-size="10" text-anchor="middle">12-03</text>
<line x1="586.00" y1="323" x2="586.00" y2="327" stroke="#94a3b8" stroke-opacity="0.5" stroke-width="1" />
<text x="586.00" y="341" fill="#cbd5f5" font-size="10" text-anchor="middle">12-09</text>
<line x1="758.00" y1="323" x2="758.00" y2="327" stroke="#94a3b8" stroke-opacity="0.5" stroke-width="1" />
<text x="758.00" y="341" fill="#cbd5f5" font-size="10" text-anchor="middle">12-15</text>
<line x1="930.00" y1="323" x2="930.00" y2="327" stroke="#94a3b8" stroke-opacity="0.5" stroke-width="1" />
<text x="930.00" y="341" fill="#cbd5f5" font-size="10" text-anchor="middle">12-21</text>
<line x1="70" y1="74" x2="70" y2="323" stroke="#94a3b8" stroke-width="1" />
<line x1="70" y1="323" x2="930" y2="323" stroke="#94a3b8" stroke-width="1" />
<path d="M70.00,277.84 L99.66,277.84 L129.31,180.19 L158.97,155.78 L188.62,180.19 L218.28,94.75 L247.93,253.43 L277.59,253.43 L307.24,253.43 L336.90,229.01 L366.55,155.78 L396.21,241.22 L425.86,143.57 L455.52,216.81 L485.17,253.43 L514.83,277.84 L544.48,180.19 L574.14,106.96 L603.79,216.81 L633.45,180.19 L663.10,241.22 L692.76,302.25 L722.41,290.04 L752.07,180.19 L781.72,277.84 L811.38,131.37 L841.03,192.40 L870.69,167.99 L900.34,241.22 L930.00,290.04" fill="none" stroke="#60a5fa" stroke-width="2.2" stroke-linecap="round" />
<circle cx="70.00" cy="277.84" r="3" fill="#60a5fa" stroke="#0f172a" stroke-width="1" />
<text x="70.00" y="267.84" fill="#e2e8f0" font-size="9" text-anchor="middle">52</text>
<circle cx="99.66" cy="277.84" r="3" fill="#60a5fa" stroke="#0f172a" stroke-width="1" />
<text x="99.66" y="257.84" fill="#e2e8f0" font-size="9" text-anchor="middle">52</text>
<circle cx="129.31" cy="180.19" r="3" fill="#60a5fa" stroke="#0f172a" stroke-width="1" />
<text x="129.31" y="170.19" fill="#e2e8f0" font-size="9" text-anchor="middle">60</text>
<circle cx="158.97" cy="155.78" r="3" fill="#60a5fa" stroke="#0f172a" stroke-width="1" />
<text x="158.97" y="135.78" fill="#e2e8f0" font-size="9" text-anchor="middle">62</text>
<circle cx="188.62" cy="180.19" r="3" fill="#60a5fa" stroke="#0f172a" stroke-width="1" />
<text x="188.62" y="170.19" fill="#e2e8f0" font-size="9" text-anchor="middle">60</text>
<circle cx="218.28" cy="94.75" r="3" fill="#60a5fa" stroke="#0f172a" stroke-width="1" />
<text x="218.28" y="108.75" fill="#e2e8f0" font-size="9" text-anchor="middle">67</text>
<circle cx="247.93" cy="253.43" r="3" fill="#60a5fa" stroke="#0f172a" stroke-width="1" />
<text x="247.93" y="243.43" fill="#e2e8f0" font-size="9" text-anchor="middle">54</text>
<circle cx="277.59" cy="253.43" r="3" fill="#60a5fa" stroke="#0f172a" stroke-width="1" />
<text x="277.59" y="233.43" fill="#e2e8f0" font-size="9" text-anchor="middle">54</text>
<circle cx="307.24" cy="253.43" r="3" fill="#60a5fa" stroke="#0f172a" stroke-width="1" />
<text x="307.24" y="243.43" fill="#e2e8f0" font-size="9" text-anchor="middle">54</text>
<circle cx="336.90" cy="229.01" r="3" fill="#60a5fa" stroke="#0f172a" stroke-width="1" />
<text x="336.90" y="209.01" fill="#e2e8f0" font-size="9" text-anchor="middle">56</text>
<circle cx="366.55" cy="155.78" r="3" fill="#60a5fa" stroke="#0f172a" stroke-width="1" />
<text x="366.55" y="145.78" fill="#e2e8f0" font-size="9" text-anchor="middle">62</text>
<circle cx="396.21" cy="241.22" r="3" fill="#60a5fa" stroke="#0f172a" stroke-width="1" />
<text x="396.21" y="221.22" fill="#e2e8f0" font-size="9" text-anchor="middle">55</text>
<circle cx="425.86" cy="143.57" r="3" fill="#60a5fa" stroke="#0f172a" stroke-width="1" />
<text x="425.86" y="133.57" fill="#e2e8f0" font-size="9" text-anchor="middle">63</text>
<circle cx="455.52" cy="216.81" r="3" fill="#60a5fa" stroke="#0f172a" stroke-width="1" />
<text x="455.52" y="196.81" fill="#e2e8f0" font-size="9" text-anchor="middle">57</text>
<circle cx="485.17" cy="253.43" r="3" fill="#60a5fa" stroke="#0f172a" stroke-width="1" />
<text x="485.17" y="243.43" fill="#e2e8f0" font-size="9" text-anchor="middle">54</text>
<circle cx="514.83" cy="277.84" r="3" fill="#60a5fa" stroke="#0f172a" stroke-width="1" />
<text x="514.83" y="257.84" fill="#e2e8f0" font-size="9" text-anchor="middle">52</text>
<circle cx="544.48" cy="180.19" r="3" fill="#60a5fa" stroke="#0f172a" stroke-width="1" />
<text x="544.48" y="170.19" fill="#e2e8f0" font-size="9" text-anchor="middle">60</text>
<circle cx="574.14" cy="106.96" r="3" fill="#60a5fa" stroke="#0f172a" stroke-width="1" />
<text x="574.14" y="86.96" fill="#e2e8f0" font-size="9" text-anchor="middle">66</text>
<circle cx="603.79" cy="216.81" r="3" fill="#60a5fa" stroke="#0f172a" stroke-width="1" />
<text x="603.79" y="206.81" fill="#e2e8f0" font-size="9" text-anchor="middle">57</text>
<circle cx="633.45" cy="180.19" r="3" fill="#60a5fa" stroke="#0f172a" stroke-width="1" />
<text x="633.45" y="160.19" fill="#e2e8f0" font-size="9" text-anchor="middle">60</text>
<circle cx="663.10" cy="241.22" r="3" fill="#60a5fa" stroke="#0f172a" stroke-width="1" />
<text x="663.10" y="231.22" fill="#e2e8f0" font-size="9" text-anchor="middle">55</text>
<circle cx="692.76" cy="302.25" r="3" fill="#60a5fa" stroke="#0f172a" stroke-width="1" />
<text x="692.76" y="282.25" fill="#e2e8f0" font-size="9" text-anchor="middle">50</text>
<circle cx="722.41" cy="290.04" r="3" fill="#60a5fa" stroke="#0f172a" stroke-width="1" />
<text x="722.41" y="280.04" fill="#e2e8f0" font-size="9" text-anchor="middle">51</text>
<circle cx="752.07" cy="180.19" r="3" fill="#60a5fa" stroke="#0f172a" stroke-width="1" />
<text x="752.07" y="160.19" fill="#e2e8f0" font-size="9" text-anchor="middle">60</text>
<circle cx="781.72" cy="277.84" r="3" fill="#60a5fa" stroke="#0f172a" stroke-width="1" />
<text x="781.72" y="267.84" fill="#e2e8f0" font-size="9" text-anchor="middle">52</text>
<circle cx="811.38" cy="131.37" r="3" fill="#60a5fa" stroke="#0f172a" stroke-width="1" />
<text x="811.38" y="111.37" fill="#e2e8f0" font-size="9" text-anchor="middle">64</text>
<circle cx="841.03" cy="192.40" r="3" fill="#60a5fa" stroke="#0f172a" stroke-width="1" />
<text x="841.03" y="182.40" fill="#e2e8f0" font-size="9" text-anchor="middle">59</text>
<circle cx="870.69" cy="167.99" r="3" fill="#60a5fa" stroke="#0f172a" stroke-width="1" />
<text x="870.69" y="147.99" fill="#e2e8f0" font-size="9" text-anchor="middle">61</text>
<circle cx="900.34" cy="241.22" r="3" fill="#60a5fa" stroke="#0f172a" stroke-width="1" />
<text x="900.34" y="231.22" fill="#e2e8f0" font-size="9" text-anchor="middle">55</text>
<circle cx="930.00" cy="290.04" r="3" fill="#60a5fa" stroke="#0f172a" stroke-width="1" />
<text x="930.00" y="270.04" fill="#e2e8f0" font-size="9" text-anchor="middle">51</text>
<text x="70" y="403" fill="#e2e8f0" font-size="13" font-weight="600">本年核心指标趋势（滑动7日窗口平均）</text>
<line x1="70" y1="656.00" x2="930" y2="656.00" stroke="#94a3b8" stroke-opacity="0.18" stroke-width="1" />
<text x="62" y="660.00" fill="#cbd5f5" font-size="10" text-anchor="end">48.1</text>
<line x1="70" y1="593.75" x2="930" y2="593.75" stroke="#94a3b8" stroke-opacity="0.18" stroke-width="1" />
<text x="62" y="597.75" fill="#cbd5f5" font-size="10" text-anchor="end">52.9</text>
<line x1="70" y1="531.50" x2="930" y2="531.50" stroke="#94a3b8" stroke-opacity="0.18" stroke-width="1" />
<text x="62" y="535.50" fill="#cbd5f5" font-size="10" text-anchor="end">57.6</text>
<line x1="70" y1="469.25" x2="930" y2="469.25" stroke="#94a3b8" stroke-opacity="0.18" stroke-width="1" />
<text x="62" y="473.25" fill="#cbd5f5" font-size="10" text-anchor="end">62.3</text>
<line x1="70" y1="407.00" x2="930" y2="407.00" stroke="#94a3b8" stroke-opacity="0.18" stroke-width="1" />
<text x="62" y="411.00" fill="#cbd5f5" font-size="10" text-anchor="end">67</text>
<line x1="70.00" y1="656" x2="70.00" y2="660" stroke="#94a3b8" stroke-opacity="0.5" stroke-width="1" />
<text x="70.00" y="674" fill="#cbd5f5" font-size="10" text-anchor="middle">2025-01</text>
<line x1="242.00" y1="656" x2="242.00" y2="660" stroke="#94a3b8" stroke-opacity="0.5" stroke-width="1" />
<text x="242.00" y="674" fill="#cbd5f5" font-size="10" text-anchor="middle">2025-03</text>
<line x1="414.00" y1="656" x2="414.00" y2="660" stroke="#94a3b8" stroke-opacity="0.5" stroke-width="1" />
<text x="414.00" y="674" fill="#cbd5f5" font-size="10" text-anchor="middle">2025-06</text>
<line x1="586.00" y1="656" x2="586.00" y2="660" stroke="#94a3b8" stroke-opacity="0.5" stroke-width="1" />
<text x="586.00" y="674" fill="#cbd5f5" font-size="10" text-anchor="middle">2025-08</text>
<line x1="758.00" y1="656" x2="758.00" y2="660" stroke="#94a3b8" stroke-opacity="0.5" stroke-width="1" />
<text x="758.00" y="674" fill="#cbd5f5" font-size="10" text-anchor="middle">2025-10</text>
<line x1="930.00" y1="656" x2="930.00" y2="660" stroke="#94a3b8" stroke-opacity="0.5" stroke-width="1" />
<text x="930.00" y="674" fill="#cbd5f5" font-size="10" text-anchor="middle">2025-12</text>
<line x1="70" y1="407" x2="70" y2="656" stroke="#94a3b8" stroke-width="1" />
<line x1="70" y1="656" x2="930" y2="656" stroke="#94a3b8" stroke-width="1" />
<path d="M70.00,656.00 L70.00,552.25 L72.59,578.66 L75.18,613.87 L77.77,585.26 L80.36,589.22 L82.95,583.06 L85.54,571.11 L88.13,561.68 L90.72,540.93 L93.31,514.52 L95.90,516.41 L98.49,490.00 L101.08,484.34 L103.67,486.23 L106.27,484.34 L108.86,474.91 L111.45,469.25 L114.04,473.02 L116.63,488.11 L119.22,490.00 L121.81,488.11 L124.40,495.66 L126.99,533.39 L129.58,556.02 L132.17,563.57 L134.76,561.68 L137.35,550.36 L139.94,552.25 L142.53,548.48 L145.12,523.95 L147.71,523.95 L150.30,518.30 L152.89,518.30 L155.48,527.73 L158.07,544.70 L160.66,556.02 L163.25,569.23 L165.84,576.77 L168.43,576.77 L171.02,591.86 L173.61,595.64 L176.20,595.64 L178.80,597.52 L181.39,601.30 L183.98,597.52 L186.57,614.50 L189.16,622.05 L191.75,625.82 L194.34,606.95 L196.93,589.98 L199.52,578.66 L202.11,586.20 L204.70,582.43 L207.29,578.66 L209.88,582.43 L212.47,595.64 L215.06,601.30 L217.65,618.27 L220.24,614.50 L222.83,588.09 L225.42,574.89 L228.01,559.80 L230.60,556.02 L233.19,565.45 L235.78,569.23 L238.37,569.23 L240.96,605.07 L243.55,601.30 L246.14,620.16 L248.73,622.05 L251.33,635.25 L253.92,612.61 L256.51,595.64 L259.10,578.66 L261.69,597.52 L264.28,603.18 L266.87,606.95 L269.46,603.18 L272.05,616.39 L274.64,623.93 L277.23,635.25 L279.82,623.93 L282.41,610.73 L285.00,605.07 L287.59,589.98 L290.18,582.43 L292.77,567.34 L295.36,563.57 L297.95,550.36 L300.54,539.05 L303.13,527.73 L305.72,527.73 L308.31,522.07 L310.90,537.16 L313.49,522.07 L316.08,523.95 L318.67,520.18 L321.27,529.61 L323.86,544.70 L326.45,561.68 L329.04,539.05 L331.63,529.61 L334.22,544.70 L336.81,554.14 L339.40,539.05 L341.99,516.41 L344.58,506.98 L347.17,523.95 L349.76,522.07 L352.35,512.64 L354.94,505.09 L357.53,506.98 L360.12,505.09 L362.71,499.43 L365.30,499.43 L367.89,525.84 L370.48,533.39 L373.07,539.05 L375.66,540.93 L378.25,544.70 L380.84,540.93 L383.43,535.27 L386.02,523.95 L388.61,512.64 L391.20,512.64 L393.80,512.64 L396.39,522.07 L398.98,514.52 L401.57,510.75 L404.16,512.64 L406.75,493.77 L409.34,497.55 L411.93,508.86 L414.52,501.32 L417.11,518.30 L419.70,537.16 L422.29,535.27 L424.88,546.59 L427.47,542.82 L430.06,522.07 L432.65,510.75 L435.24,505.09 L437.83,490.00 L440.42,493.77 L443.01,514.52 L445.60,520.18 L448.19,527.73 L450.78,529.61 L453.37,520.18 L455.96,531.50 L458.55,503.20 L461.14,490.00 L463.73,476.80 L466.33,478.68 L468.92,486.23 L471.51,505.09 L474.10,510.75 L476.69,537.16 L479.28,529.61 L481.87,533.39 L484.46,529.61 L487.05,523.95 L489.64,506.98 L492.23,488.11 L494.82,476.80 L497.41,486.23 L500.00,471.14 L502.59,467.36 L505.18,467.36 L507.77,463.59 L510.36,474.91 L512.95,469.25 L515.54,459.82 L518.13,478.68 L520.72,493.77 L523.31,501.32 L525.90,505.09 L528.49,501.32 L531.08,523.95 L533.67,529.61 L536.27,522.07 L538.86,522.07 L541.45,505.09 L544.04,505.09 L546.63,474.91 L549.22,456.05 L551.81,444.73 L554.40,442.84 L556.99,427.75 L559.58,429.64 L562.17,435.30 L564.76,440.95 L567.35,457.93 L569.94,473.02 L572.53,482.45 L575.12,493.77 L577.71,510.75 L580.30,503.20 L582.89,533.39 L585.48,535.27 L588.07,548.48 L590.66,561.68 L593.25,548.48 L595.84,537.16 L598.43,540.93 L601.02,527.73 L603.61,516.41 L606.20,491.89 L608.80,480.57 L611.39,486.23 L613.98,491.89 L616.57,508.86 L642.47,518.30 L645.06,508.86 L647.65,493.77 L650.24,478.68 L652.83,473.02 L655.42,486.23 L658.01,482.45 L660.60,474.91 L663.19,473.02 L665.78,493.77 L668.37,499.43 L670.96,512.64 L673.55,497.55 L676.14,508.86 L678.73,514.52 L681.33,514.52 L683.92,520.18 L686.51,520.18 L689.10,514.52 L691.69,529.61 L694.28,510.75 L696.87,508.86 L699.46,510.75 L702.05,501.32 L704.64,510.75 L707.23,516.41 L709.82,503.20 L712.41,490.00 L715.00,484.34 L717.59,480.57 L720.18,486.23 L722.77,474.91 L725.36,469.25 L727.95,471.14 L730.54,482.45 L733.13,474.91 L735.72,486.23 L738.31,478.68 L740.90,488.11 L743.49,482.45 L746.08,490.00 L748.67,486.23 L751.27,495.66 L753.86,495.66 L756.45,491.89 L759.04,480.57 L761.63,490.00 L764.22,491.89 L766.81,505.09 L769.40,495.66 L771.99,491.89 L774.58,497.55 L777.17,493.77 L779.76,491.89 L782.35,486.23 L784.94,488.11 L787.53,488.11 L790.12,484.34 L792.71,495.66 L795.30,508.86 L797.89,516.41 L800.48,525.84 L803.07,525.84 L805.66,544.70 L808.25,550.36 L810.84,539.05 L813.43,548.48 L816.02,540.93 L818.61,525.84 L821.20,516.41 L823.80,514.52 L826.39,522.07 L828.98,529.61 L831.57,525.84 L834.16,527.73 L836.75,540.93 L839.34,559.80 L841.93,552.25 L844.52,544.70 L847.11,550.36 L849.70,552.25 L852.29,561.68 L854.88,565.45 L857.47,557.91 L860.06,554.14 L862.65,548.48 L865.24,540.93 L867.83,520.18 L870.42,523.95 L873.01,520.18 L875.60,516.41 L878.19,523.95 L880.78,523.95 L883.37,533.39 L885.96,540.93 L888.55,535.27 L891.14,535.27 L893.73,539.05 L896.33,531.50 L898.92,523.95 L901.51,520.18 L904.10,525.84 L906.69,529.61 L909.28,537.16 L911.87,539.05 L914.46,539.05 L917.05,565.45 L919.64,552.25 L922.23,554.14 L924.82,542.82 L927.41,533.39 L930.00,533.39 L930.00,656.00 Z" fill="#60a5fa" fill-opacity="0.16" stroke="none" />
<path d="M70.00,552.25 L72.59,578.66 L75.18,613.87 L77.77,585.26 L80.36,589.22 L82.95,583.06 L85.54,571.11 L88.13,561.68 L90.72,540.93 L93.31,514.52 L95.90,516.41 L98.49,490.00 L101.08,484.34 L103.67,486.23 L106.27,484.34 L108.86,474.91 L111.45,469.25 L114.04,473.02 L116.63,488.11 L119.22,490.00 L121.81,488.11 L124.40,495.66 L126.99,533.39 L129.58,556.02 L132.17,563.57 L134.76,561.68 L137.35,550.36 L139.94,552.25 L142.53,548.48 L145.12,523.95 L147.71,523.95 L150.30,518.30 L152.89,518.30 L155.48,527.73 L158.07,544.70 L160.66,556.02 L163.25,569.23 L165.84,576.77 L168.43,576.77 L171.02,591.86 L173.61,595.64 L176.20,595.64 L178.80,597.52 L181.39,601.30 L183.98,597.52 L186.57,614.50 L189.16,622.05 L191.75,625.82 L194.34,606.95 L196.93,589.98 L199.52,578.66 L202.11,586.20 L204.70,582.43 L207.29,578.66 L209.88,582.43 L212.47,595.64 L215.06,601.30 L217.65,618.27 L220.24,614.50 L222.83,588.09 L225.42,574.89 L228.01,559.80 L230.60,556.02 L233.19,565.45 L235.78,569.23 L238.37,569.23 L240.96,605.07 L243.55,601.30 L246.14,620.16 L248.73,622.05 L251.33,635.25 L253.92,612.61 L256.51,595.64 L259.10,578.66 L261.69,597.52 L264.28,603.18 L266.87,606.95 L269.46,603.18 L272.05,616.39 L274.64,623.93 L277.23,635.25 L279.82,623.93 L282.41,610.73 L285.00,605.07 L287.59,589.98 L290.18,582.43 L292.77,567.34 L295.36,563.57 L297.95,550.36 L300.54,539.05 L303.13,527.73 L305.72,527.73 L308.31,522.07 L310.90,537.16 L313.49,522.07 L316.08,523.95 L318.67,520.18 L321.27,529.61 L323.86,544.70 L326.45,561.68 L329.04,539.05 L331.63,529.61 L334.22,544.70 L336.81,554.14 L339.40,539.05 L341.99,516.41 L344.58,506.98 L347.17,523.95 L349.76,522.07 L352.35,512.64 L354.94,505.09 L357.53,506.98 L360.12,505.09 L362.71,499.43 L365.30,499.43 L367.89,525.84 L370.48,533.39 L373.07,539.05 L375.66,540.93 L378.25,544.70 L380.84,540.93 L383.43,535.27 L386.02,523.95 L388.61,512.64 L391.20,512.64 L393.80,512.64 L396.39,522.07 L398.98,514.52 L401.57,510.75 L404.16,512.64 L406.75,493.77 L409.34,497.55 L411.93,508.86 L414.52,501.32 L417.11,518.30 L419.70,537.16 L422.29,535.27 L424.88,546.59 L427.47,542.82 L430.06,522.07 L432.65,510.75 L435.24,505.09 L437.83,490.00 L440.42,493.77 L443.01,514.52 L445.60,520.18 L448.19,527.73 L450.78,529.61 L453.37,520.18 L455.96,531.50 L458.55,503.20 L461.14,490.00 L463.73,476.80 L466.33,478.68 L468.92,486.23 L471.51,505.09 L474.10,510.75 L476.69,537.16 L479.28,529.61 L481.87,533.39 L484.46,529.61 L487.05,523.95 L489.64,506.98 L492.23,488.11 L494.82,476.80 L497.41,486.23 L500.00,471.14 L502.59,467.36 L505.18,467.36 L507.77,463.59 L510.36,474.91 L512.95,469.25 L515.54,459.82 L518.13,478.68 L520.72,493.77 L523.31,501.32 L525.90,505.09 L528.49,501.32 L531.08,523.95 L533.67,529.61 L536.27,522.07 L538.86,522.07 L541.45,505.09 L544.04,505.09 L546.63,474.91 L549.22,456.05 L551.81,444.73 L554.40,442.84 L556.99,427.75 L559.58,429.64 L562.17,435.30 L564.76,440.95 L567.35,457.93 L569.94,473.02 L572.53,482.45 L575.12,493.77 L577.71,510.75 L580.30,503.20 L582.89,533.39 L585.48,535.27 L588.07,548.48 L590.66,561.68 L593.25,548.48 L595.84,537.16 L598.43,540.93 L601.02,527.73 L603.61,516.41 L606.20,491.89 L608.80,480.57 L611.39,486.23 L613.98,491.89 L616.57,508.86 L642.47,518.30 L645.06,508.86 L647.65,493.77 L650.24,478.68 L652.83,473.02 L655.42,486.23 L658.01,482.45 L660.60,474.91 L663.19,473.02 L665.78,493.77 L668.37,499.43 L670.96,512.64 L673.55,497.55 L676.14,508.86 L678.73,514.52 L681.33,514.52 L683.92,520.18 L686.51,520.18 L689.10,514.52 L691.69,529.61 L694.28,510.75 L696.87,508.86 L699.46,510.75 L702.05,501.32 L704.64,510.75 L707.23,516.41 L709.82,503.20 L712.41,490.00 L715.00,484.34 L717.59,480.57 L720.18,486.23 L722.77,474.91 L725.36,469.25 L727.95,471.14 L730.54,482.45 L733.13,474.91 L735.72,486.23 L738.31,478.68 L740.90,488.11 L743.49,482.45 L746.08,490.00 L748.67,486.23 L751.27,495.66 L753.86,495.66 L756.45,491.89 L759.04,480.57 L761.63,490.00 L764.22,491.89 L766.81,505.09 L769.40,495.66 L771.99,491.89 L774.58,497.55 L777.17,493.77 L779.76,491.89 L782.35,486.23 L784.94,488.11 L787.53,488.11 L790.12,484.34 L792.71,495.66 L795.30,508.86 L797.89,516.41 L800.48,525.84 L803.07,525.84 L805.66,544.70 L808.25,550.36 L810.84,539.05 L813.43,548.48 L816.02,540.93 L818.61,525.84 L821.20,516.41 L823.80,514.52 L826.39,522.07 L828.98,529.61 L831.57,525.84 L834.16,527.73 L836.75,540.93 L839.34,559.80 L841.93,552.25 L844.52,544.70 L847.11,550.36 L849.70,552.25 L852.29,561.68 L854.88,565.45 L857.47,557.91 L860.06,554.14 L862.65,548.48 L865.24,540.93 L867.83,520.18 L870.42,523.95 L873.01,520.18 L875.60,516.41 L878.19,523.95 L880.78,523.95 L883.37,533.39 L885.96,540.93 L888.55,535.27 L891.14,535.27 L893.73,539.05 L896.33,531.50 L898.92,523.95 L901.51,520.18 L904.10,525.84 L906.69,529.61 L909.28,537.16 L911.87,539.05 L914.46,539.05 L917.05,565.45 L919.64,552.25 L922.23,554.14 L924.82,542.82 L927.41,533.39 L930.00,533.39" fill="none" stroke="#60a5fa" stroke-width="2.2" stroke-linecap="round" />
</svg>
