<svg xmlns="http://www.w3.org/2000/svg" viewBox="0 0 960 640" width="960" height="640">
  <rect width="960" height="640" fill="#0f172a" />
  <line x1="40" y1="40.00" x2="920.00" y2="40.00" stroke="#94a3b8" stroke-opacity="0.18" stroke-width="1" /><line x1="40" y1="128.00" x2="920.00" y2="128.00" stroke="#94a3b8" stroke-opacity="0.18" stroke-width="1" /><line x1="40" y1="216.00" x2="920.00" y2="216.00" stroke="#94a3b8" stroke-opacity="0.18" stroke-width="1" /><line x1="40" y1="304.00" x2="920.00" y2="304.00" stroke="#94a3b8" stroke-opacity="0.18" stroke-width="1" />
  <line x1="40" y1="336.00" x2="920.00" y2="336.00" stroke="#94a3b8" stroke-opacity="0.18" stroke-width="1" /><line x1="40" y1="424.00" x2="920.00" y2="424.00" stroke="#94a3b8" stroke-opacity="0.18" stroke-width="1" /><line x1="40" y1="512.00" x2="920.00" y2="512.00" stroke="#94a3b8" stroke-opacity="0.18" stroke-width="1" /><line x1="40" y1="600.00" x2="920.00" y2="600.00" stroke="#94a3b8" stroke-opacity="0.18" stroke-width="1" />
  <line x1="40" y1="320.00" x2="920.00" y2="320.00" stroke="#1f2937" stroke-width="1" />
  <polyline points="40.00,210.82 70.34,210.82 100.69,210.82 131.03,272.94 161.38,272.94 191.72,148.71 222.07,117.65 252.41,148.71 282.76,40.00 313.10,241.88 343.45,241.88 373.79,241.88 404.14,210.82 434.48,117.65 464.83,226.35 495.17,102.12 525.52,195.29 555.86,241.88 586.21,272.94 616.55,148.71 646.90,55.53 677.24,195.29 707.59,148.71 737.93,226.35 768.28,304.00 798.62,288.47 828.97,148.71 859.31,272.94 889.66,86.59 920.00,164.24" fill="none" stroke="#60a5fa" stroke-width="2" stroke-linecap="round" stroke-linejoin="round" />
  <polyline points="40.00,494.40 42.75,528.00 45.50,572.80 48.25,536.40 51.00,541.44 53.75,533.60 56.50,518.40 59.25,506.40 62.00,480.00 64.75,446.40 67.50,448.80 70.25,415.20 73.00,408.00 75.75,410.40 78.50,408.00 81.25,396.00 84.00,388.80 86.75,393.60 89.50,412.80 92.25,415.20 95.00,412.80 97.75,422.40 100.50,470.40 103.25,499.20 106.00,508.80 108.75,506.40 111.50,492.00 114.25,494.40 117.00,489.60 119.75,458.40 122.50,458.40 125.25,451.20 128.00,451.20 130.75,463.20 133.50,484.80 136.25,499.20 139.00,516.00 141.75,525.60 144.50,525.60 147.25,544.80 150.00,549.60 152.75,549.60 155.50,552.00 158.25,556.80 161.00,552.00 163.75,573.60 166.50,583.20 169.25,588.00 172.00,564.00 174.75,542.40 177.50,528.00 180.25,537.60 183.00,532.80 185.75,528.00 188.50,532.80 191.25,549.60 194.00,556.80 196.75,578.40 199.50,573.60 202.25,540.00 205.00,523.20 207.75,504.00 210.50,499.20 213.25,511.20 216.00,516.00 218.75,516.00 221.50,561.60 224.25,556.80 227.00,580.80 229.75,583.20 232.50,600.00 235.25,571.20 238.00,549.60 240.75,528.00 243.50,552.00 246.25,559.20 249.00,564.00 251.75,559.20 254.50,576.00 257.25,585.60 260.00,600.00 262.75,585.60 265.50,568.80 268.25,561.60 271.00,542.40 273.75,532.80 276.50,513.60 279.25,508.80 282.00,492.00 284.75,477.60 287.50,463.20 290.25,463.20 293.00,456.00 295.75,475.20 298.50,456.00 301.25,458.40 304.00,453.60 306.75,465.60 309.50,484.80 312.25,506.40 315.00,477.60 317.75,465.60 320.50,484.80 323.25,496.80 326.00,477.60 328.75,448.80 331.50,436.80 334.25,458.40 337.00,456.00 339.75,444.00 342.50,434.40 345.25,436.80 348.00,434.40 350.75,427.20 353.50,427.20 356.25,460.80 359.00,470.40 361.75,477.60 364.50,480.00 367.25,484.80 370.00,480.00 372.75,472.80 375.50,458.40 378.25,444.00 381.00,444.00 383.75,444.00 386.50,456.00 389.25,446.40 392.00,441.60 394.75,444.00 397.50,420.00 400.25,424.80 403.00,439.20 405.75,429.60 408.50,451.20 411.25,475.20 414.00,472.80 416.75,487.20 419.50,482.40 422.25,456.00 425.00,441.60 427.75,434.40 430.50,415.20 433.25,420.00 436.00,446.40 438.75,453.60 441.50,463.20 444.25,465.60 447.00,453.60 449.75,468.00 452.50,432.00 455.25,415.20 458.00,398.40 460.75,400.80 463.50,410.40 466.25,434.40 469.00,441.60 471.75,475.20 474.50,465.60 477.25,470.40 480.00,465.60 482.75,458.40 485.50,436.80 488.25,412.80 491.00,398.40 493.75,410.40 496.50,391.20 499.25,386.40 502.00,386.40 504.75,381.60 507.50,396.00 510.25,388.80 513.00,376.80 515.75,400.80 518.50,420.00 521.25,429.60 524.00,434.40 526.75,429.60 529.50,458.40 532.25,465.60 535.00,456.00 537.75,456.00 540.50,434.40 543.25,434.40 546.00,396.00 548.75,372.00 551.50,357.60 554.25,355.20 557.00,336.00 559.75,338.40 562.50,345.60 565.25,352.80 568.00,374.40 570.75,393.60 573.50,405.60 576.25,420.00 579.00,441.60 581.75,432.00 584.50,470.40 587.25,472.80 590.00,489.60 592.75,506.40 595.50,489.60 598.25,475.20 601.00,480.00 603.75,463.20 606.50,448.80 609.25,417.60 612.00,403.20 614.75,410.40 617.50,417.60 620.25,439.20 623.00,451.20 625.75,439.20 628.50,420.00 631.25,400.80 634.00,393.60 636.75,410.40 639.50,405.60 642.25,396.00 645.00,393.60 647.75,420.00 650.50,427.20 653.25,444.00 656.00,424.80 658.75,439.20 661.50,446.40 664.25,446.40 667.00,453.60 669.75,453.60 672.50,446.40 675.25,465.60 678.00,441.60 680.75,439.20 683.50,441.60 686.25,429.60 689.00,441.60 691.75,448.80 694.50,432.00 697.25,415.20 700.00,408.00 702.75,403.20 705.50,410.40 708.25,396.00 711.00,388.80 713.75,391.20 716.50,405.60 719.25,396.00 722.00,410.40 724.75,400.80 727.50,412.80 730.25,405.60 733.00,415.20 735.75,410.40 738.50,422.40 741.25,422.40 744.00,417.60 746.75,403.20 749.50,415.20 752.25,417.60 755.00,434.40 757.75,422.40 760.50,417.60 763.25,424.80 766.00,420.00 768.75,417.60 771.50,410.40 774.25,412.80 777.00,412.80 779.75,408.00 782.50,422.40 785.25,439.20 788.00,448.80 790.75,460.80 793.50,460.80 796.25,484.80 799.00,492.00 801.75,477.60 804.50,489.60 807.25,480.00 810.00,460.80 812.75,448.80 815.50,446.40 818.25,456.00 821.00,465.60 823.75,460.80 826.50,463.20 829.25,480.00 832.00,504.00 834.75,494.40 837.50,484.80 840.25,492.00 843.00,494.40 845.75,506.40 848.50,511.20 851.25,501.60 854.00,496.80 856.75,489.60 859.50,480.00 862.25,453.60 865.00,458.40 867.75,453.60 870.50,448.80 873.25,458.40 876.00,458.40 878.75,470.40 881.50,480.00 884.25,472.80 887.00,472.80 889.75,477.60 892.50,468.00 895.25,458.40 898.00,453.60 900.75,460.80 903.50,465.60 906.25,475.20 909.00,477.60 911.75,477.60 914.50,511.20 917.25,494.40 920.00,496.80" fill="none" stroke="#60a5fa" stroke-width="2" stroke-linecap="round" stroke-linejoin="round" />
  
  
  </svg>