<svg xmlns="http://www.w3.org/2000/svg" viewBox="0 0 960 720" width="960" height="720">
<rect width="960" height="720" fill="#0f172a" />
<text x="480" y="28" fill="#e2e8f0" font-size="16" font-weight="700" text-anchor="middle">静息心率趋势图</text>
<text x="70" y="70" fill="#e2e8f0" font-size="13" font-weight="600">本月分天指标明细</text>
<line x1="70" y1="323.00" x2="930" y2="323.00" stroke="#94a3b8" stroke-opacity="0.18" stroke-width="1" />
<text x="62" y="327.00" fill="#cbd5f5" font-size="10" text-anchor="end">48.3</text>
<line x1="70" y1="260.75" x2="930" y2="260.75" stroke="#94a3b8" stroke-opacity="0.18" stroke-width="1" />
<text x="62" y="264.75" fill="#cbd5f5" font-size="10" text-anchor="end">53.4</text>
<line x1="70" y1="198.50" x2="930" y2="198.50" stroke="#94a3b8" stroke-opacity="0.18" stroke-width="1" />
<text x="62" y="202.50" fill="#cbd5f5" font-size="10" text-anchor="end">58.5</text>
<line x1="70" y1="136.25" x2="930" y2="136.25" stroke="#94a3b8" stroke-opacity="0.18" stroke-width="1" />
<text x="62" y="140.25" fill="#cbd5f5" font-size="10" text-anchor="end">63.6</text>
<line x1="70" y1="74.00" x2="930" y2="74.00" stroke="#94a3b8" stroke-opacity="0.18" stroke-width="1" />
<text x="62" y="78.00" fill="#cbd5f5" font-size="10" text-anchor="end">68.7</text>
<line x1="70.00" y1="323" x2="70.00" y2="327" stroke="#94a3b8" stroke-opacity="0.5" stroke-width="1" />
<text x="70.00" y="341" fill="#cbd5f5" font-size="10" text-anchor="middle">11-19</text>
<line x1="242.00" y1="323" x2="242.00" y2="327" stroke="#94a3b8" stroke-opacity="0.5" stroke-width="1" />
<text x="242.00" y="341" fill="#cbd5f5" font-size="10" text-anchor="middle">11-24</text>
<line x1="414.00" y1="323" x2="414.00" y2="327" stroke="#94a3b8" stroke-opacity="0.5" stroke-width="1" />
<text x="414.00" y="341" fill="#cbd5f5" font-size="10" text-anchor="middle">11-30</text>
<line x1="586.00" y1="323" x2="586.00" y2="327" stroke="#94a3b8" stroke-opacity="0.5" stroke-width="1" />
<text x="586.00" y="341" fill="#cbd5f5" font-size="10" text-anchor="middle">12-06</text>
<line x1="758.00" y1="323" x2="758.00" y2="327" stroke="#94a3b8" stroke-opacity="0.5" stroke-width="1" />
<text x="758.00" y="341" fill="#cbd5f5" font-size="10" text-anchor="middle">12-12</text>
<line x1="930.00" y1="323" x2="930.00" y2="327" stroke="#94a3b8" stroke-opacity="0.5" stroke-width="1" />
<text x="930.00" y="341" fill="#cbd5f5" font-size="10" text-anchor="middle">12-18</text>
<line x1="70" y1="74" x2="70" y2="323" stroke="#94a3b8" stroke-width="1" />
<line x1="70" y1="323" x2="930" y2="323" stroke="#94a3b8" stroke-width="1" />
<path d="M70.00,229.01 L99.66,229.01 L129.31,229.01 L158.97,277.84 L188.62,277.84 L218.28,180.19 L247.93,155.78 L277.59,180.19 L307.24,94.75 L336.90,253.43 L366.55,253.43 L396.21,253.43 L425.86,229.01 L455.52,155.78 L485.17,241.22 L514.83,143.57 L544.48,216.81 L574.14,253.43 L603.79,277.84 L633.45,180.19 L663.10,106.96 L692.76,216.81 L722.41,180.19 L752.07,241.22 L781.72,302.25 L811.38,290.04 L841.03,180.19 L870.69,277.84 L900.34,131.37 L930.00,192.40" fill="none" stroke="#60a5fa" stroke-width="2.2" stroke-linecap="round" />
<circle cx="70.00" cy="229.01" r="3" fill="#60a5fa" stroke="#0f172a" stroke-width="1" />
<text x="70.00" y="219.01" fill="#e2e8f0" font-size="9" text-anchor="middle">56</text>
<circle cx="99.66" cy="229.01" r="3" fill="#60a5fa" stroke="#0f172a" stroke-width="1" />
<text x="99.66" y="209.01" fill="#e2e8f0" font-size="9" text-anchor="middle">56</text>
<circle cx="129.31" cy="229.01" r="3" fill="#60a5fa" stroke="#0f172a" stroke-width="1" />
<text x="129.31" y="219.01" fill="#e2e8f0" font-size="9" text-anchor="middle">56</text>
<circle cx="158.97" cy="277.84" r="3" fill="#60a5fa" stroke="#0f172a" stroke-width="1" />
<text x="158.97" y="257.84" fill="#e2e8f0" font-size="9" text-anchor="middle">52</text>
<circle cx="188.62" cy="277.84" r="3" fill="#60a5fa" stroke="#0f172a" stroke-width="1" />
<text x="188.62" y="267.84" fill="#e2e8f0" font-size="9" text-anchor="middle">52</text>
<circle cx="218.28" cy="180.19" r="3" fill="#60a5fa" stroke="#0f172a" stroke-width="1" />
<text x="218.28" y="160.19" fill="#e2e8f0" font-size="9" text-anchor="middle">60</text>
<circle cx="247.93" cy="155.78" r="3" fill="#60a5fa" stroke="#0f172a" stroke-width="1" />
<text x="247.93" y="145.78" fill="#e2e8f0" font-size="9" text-anchor="middle">62</text>
<circle cx="277.59" cy="180.19" r="3" fill="#60a5fa" stroke="#0f172a" stroke-width="1" />
<text x="277.59" y="160.19" fill="#e2e8f0" font-size="9" text-anchor="middle">60</text>
<circle cx="307.24" cy="94.75" r="3" fill="#60a5fa" stroke="#0f172a" stroke-width="1" />
<text x="307.24" y="84.75" fill="#e2e8f0" font-size="9" text-anchor="middle">67</text>
<circle cx="336.90" cy="253.43" r="3" fill="#60a5fa" stroke="#0f172a" stroke-width="1" />
<text x="336.90" y="233.43" fill="#e2e8f0" font-size="9" text-anchor="middle">54</text>
<circle cx="366.55" cy="253.43" r="3" fill="#60a5fa" stroke="#0f172a" stroke-width="1" />
<text x="366.55" y="243.43" fill="#e2e8f0" font-size="9" text-anchor="middle">54</text>
<circle cx="396.21" cy="253.43" r="3" fill="#60a5fa" stroke="#0f172a" stroke-width="1" />
<text x="396.21" y="233.43" fill="#e2e8f0" font-size="9" text-anchor="middle">54</text>
<circle cx="425.86" cy="229.01" r="3" fill="#60a5fa" stroke="#0f172a" stroke-width="1" />
<text x="425.86" y="219.01" fill="#e2e8f0" font-size="9" text-anchor="middle">56</text>
<circle cx="455.52" cy="155.78" r="3" fill="#60a5fa" stroke="#0f172a" stroke-width="1" />
<text x="455.52" y="135.78" fill="#e2e8f0" font-size="9" text-anchor="middle">62</text>
<circle cx="485.17" cy="241.22" r="3" fill="#60a5fa" stroke="#0f172a" stroke-width="1" />
<text x="485.17" y="231.22" fill="#e2e8f0" font-size="9" text-anchor="middle">55</text>
<circle cx="514.83" cy="143.57" r="3" fill="#60a5fa" stroke="#0f172a" stroke-width="1" />
<text x="514.83" y="123.57" fill="#e2e8f0" font-size="9" text-anchor="middle">63</text>
<circle cx="544.48" cy="216.81" r="3" fill="#60a5fa" stroke="#0f172a" stroke-width="1" />
<text x="544.48" y="206.81" fill="#e2e8f0" font-size="9" text-anchor="middle">57</text>
<circle cx="574.14" cy="253.43" r="3" fill="#60a5fa" stroke="#0f172a" stroke-width="1" />
<text x="574.14" y="233.43" fill="#e2e8f0" font-size="9" text-anchor="middle">54</text>
<circle cx="603.79" cy="277.84" r="3" fill="#60a5fa" stroke="#0f172a" stroke-width="1" />
<text x="603.79" y="267.84" fill="#e2e8f0" font-size="9" text-anchor="middle">52</text>
<circle cx="633.45" cy="180.19" r="3" fill="#60a5fa" stroke="#0f172a" stroke-width="1" />
<text x="633.45" y="160.19" fill="#e2e8f0" font-size="9" text-anchor="middle">60</text>
<circle cx="663.10" cy="106.96" r="3" fill="#60a5fa" stroke="#0f172a" stroke-width="1" />
<text x="663.10" y="96.96" fill="#e2e8f0" font-size="9" text-anchor="middle">66</text>
<circle cx="692.76" cy="216.81" r="3" fill="#60a5fa" stroke="#0f172a" stroke-width="1" />
<text x="692.76" y="196.81" fill="#e2e8f0" font-size="9" text-anchor="middle">57</text>
<circle cx="722.41" cy="180.19" r="3" fill="#60a5fa" stroke="#0f172a" stroke-width="1" />
<text x="722.41" y="170.19" fill="#e2e8f0" font-size="9" text-anchor="middle">60</text>
<circle cx="752.07" cy="241.22" r="3" fill="#60a5fa" stroke="#0f172a" stroke-width="1" />
<text x="752.07" y="221.22" fill="#e2e8f0" font-size="9" text-anchor="middle">55</text>
<circle cx="781.72" cy="302.25" r="3" fill="#60a5fa" stroke="#0f172a" stroke-width="1" />
<text x="781.72" y="292.25" fill="#e2e8f0" font-size="9" text-anchor="middle">50</text>
<circle cx="811.38" cy="290.04" r="3" fill="#60a5fa" stroke="#0f172a" stroke-width="1" />
<text x="811.38" y="270.04" fill="#e2e8f0" font-size="9" text-anchor="middle">51</text>
<circle cx="841.03" cy="180.19" r="3" fill="#60a5fa" stroke="#0f172a" stroke-width="1" />
<text x="841.03" y="170.19" fill="#e2e8f0" font-size="9" text-anchor="middle">60</text>
<circle cx="870.69" cy="277.84" r="3" fill="#60a5fa" stroke="#0f172a" stroke-width="1" />
<text x="870.69" y="257.84" fill="#e2e8f0" font-size="9" text-anchor="middle">52</text>
<circle cx="900.34" cy="131.37" r="3" fill="#60a5fa" stroke="#0f172a" stroke-width="1" />
<text x="900.34" y="121.37" fill="#e2e8f0" font-size="9" text-anchor="middle">64</text>
<circle cx="930.00" cy="192.40" r="3" fill="#60a5fa" stroke="#0f172a" stroke-width="1" />
<text x="930.00" y="172.40" fill="#e2e8f0" font-size="9" text-anchor="middle">59</text>
<text x="70" y="403" fill="#e2e8f0" font-size="13" font-weight="600">本年核心指标趋势（滑动7日窗口平均）</text>
<line x1="70" y1="656.00" x2="930" y2="656.00" stroke="#94a3b8" stroke-opacity="0.18" stroke-width="1" />
<text x="62" y="660.00" fill="#cbd5f5" font-size="10" text-anchor="end">48.1</text>
<line x1="70" y1="593.75" x2="930" y2="593.75" stroke="#94a3b8" stroke-opacity="0.18" stroke-width="1" />
<text x="62" y="597.75" fill="#cbd5f5" font-size="10" text-anchor="end">52.9</text>
<line x1="70" y1="531.50" x2="930" y2="531.50" stroke="#94a3b8" stroke-opacity="0.18" stroke-width="1" />
<text x="62" y="535.50" fill="#cbd5f5" font-size="10" text-anchor="end">57.6</text>
<line x1="70" y1="469.25" x2="930" y2="469.25" stroke="#94a3b8" stroke-opacity="0.18" stroke-width="1" />
<text x="62" y="473.25" fill="#cbd5f5" font-size="10" text-anchor="end">62.3</text>
<line x1="70" y1="407.00" x2="930" y2="407.00" stroke="#94a3b8" stroke-opacity="0.18" stroke-width="1" />
<text x="62" y="411.00" fill="#cbd5f5" font-size="10" text-anchor="end">67</text>
<line x1="70.00" y1="656" x2="70.00" y2="660" stroke="#94a3b8" stroke-opacity="0.5" stroke-width="1" />
<text x="70.00" y="674" fill="#cbd5f5" font-size="10" text-anchor="middle">2025-01</text>
<line x1="242.00" y1="656" x2="242.00" y2="660" stroke="#94a3b8" stroke-opacity="0.5" stroke-width="1" />
<text x="242.00" y="674" fill="#cbd5f5" font-size="10" text-anchor="middle">2025-03</text>
<line x1="414.00" y1="656" x2="414.00" y2="660" stroke="#94a3b8" stroke-opacity="0.5" stroke-width="1" />
<text x="414.00" y="674" fill="#cbd5f5" font-size="10" text-anchor="middle">2025-06</text>
<line x1="586.00" y1="656" x2="586.00" y2="660" stroke="#94a3b8" stroke-opacity="0.5" stroke-width="1" />
<text x="586.00" y="674" fill="#cbd5f5" font-size="10" text-anchor="middle">2025-08</text>
<line x1="758.00" y1="656" x2="758.00" y2="660" stroke="#94a3b8" stroke-opacity="0.5" stroke-width="1" />
<text x="758.00" y="674" fill="#cbd5f5" font-size="10" text-anchor="middle">2025-10</text>
<line x1="930.00" y1="656" x2="930.00" y2="660" stroke="#94a3b8" stroke-opacity="0.5" stroke-width="1" />
<text x="930.00" y="674" fill="#cbd5f5" font-size="10" text-anchor="middle">2025-12</text>
<line x1="70" y1="407" x2="70" y2="656" stroke="#94a3b8" stroke-width="1" />
<line x1="70" y1="656" x2="930" y2="656" stroke="#94a3b8" stroke-width="1" />
<path d="M70.00,656.00 L70.00,552.25 L72.61,578.66 L75.23,613.87 L77.84,585.26 L80.46,589.22 L83.07,583.06 L85.68,571.11 L88.30,561.68 L90.91,540.93 L93.53,514.52 L96.14,516.41 L98.75,490.00 L101.37,484.34 L103.98,486.23 L106.60,484.34 L109.21,474.91 L111.82,469.25 L114.44,473.02 L117.05,488.11 L119.67,490.00 L122.28,488.11 L124.89,495.66 L127.51,533.39 L130.12,556.02 L132.74,563.57 L135.35,561.68 L137.96,550.36 L140.58,552.25 L143.19,548.48 L145.81,523.95 L148.42,523.95 L151.03,518.30 L153.65,518.30 L156.26,527.73 L158.88,544.70 L161.49,556.02 L164.10,569.23 L166.72,576.77 L169.33,576.77 L171.95,591.86 L174.56,595.64 L177.17,595.64 L179.79,597.52 L182.40,601.30 L185.02,597.52 L187.63,614.50 L190.24,622.05 L192.86,625.82 L195.47,606.95 L198.09,589.98 L200.70,578.66 L203.31,586.20 L205.93,582.43 L208.54,578.66 L211.16,582.43 L213.77,595.64 L216.38,601.30 L219.00,618.27 L221.61,614.50 L224.22,588.09 L226.84,574.89 L229.45,559.80 L232.07,556.02 L234.68,565.45 L237.29,569.23 L239.91,569.23 L242.52,605.07 L245.14,601.30 L247.75,620.16 L250.36,622.05 L252.98,635.25 L255.59,612.61 L258.21,595.64 L260.82,578.66 L263.43,597.52 L266.05,603.18 L268.66,606.95 L271.28,603.18 L273.89,616.39 L276.50,623.93 L279.12,635.25 L281.73,623.93 L284.35,610.73 L286.96,605.07 L289.57,589.98 L292.19,582.43 L294.80,567.34 L297.42,563.57 L300.03,550.36 L302.64,539.05 L305.26,527.73 L307.87,527.73 L310.49,522.07 L313.10,537.16 L315.71,522.07 L318.33,523.95 L320.94,520.18 L323.56,529.61 L326.17,544.70 L328.78,561.68 L331.40,539.05 L334.01,529.61 L336.63,544.70 L339.24,554.14 L341.85,539.05 L344.47,516.41 L347.08,506.98 L349.70,523.95 L352.31,522.07 L354.92,512.64 L357.54,505.09 L360.15,506.98 L362.77,505.09 L365.38,499.43 L367.99,499.43 L370.61,525.84 L373.22,533.39 L375.84,539.05 L378.45,540.93 L381.06,544.70 L383.68,540.93 L386.29,535.27 L388.91,523.95 L391.52,512.64 L394.13,512.64 L396.75,512.64 L399.36,522.07 L401.98,514.52 L404.59,510.75 L407.20,512.64 L409.82,493.77 L412.43,497.55 L415.05,508.86 L417.66,501.32 L420.27,518.30 L422.89,537.16 L425.50,535.27 L428.12,546.59 L430.73,542.82 L433.34,522.07 L435.96,510.75 L438.57,505.09 L441.19,490.00 L443.80,493.77 L446.41,514.52 L449.03,520.18 L451.64,527.73 L454.26,529.61 L456.87,520.18 L459.48,531.50 L462.10,503.20 L464.71,490.00 L467.33,476.80 L469.94,478.68 L472.55,486.23 L475.17,505.09 L477.78,510.75 L480.40,537.16 L483.01,529.61 L485.62,533.39 L488.24,529.61 L490.85,523.95 L493.47,506.98 L496.08,488.11 L498.69,476.80 L501.31,486.23 L503.92,471.14 L506.53,467.36 L509.15,467.36 L511.76,463.59 L514.38,474.91 L516.99,469.25 L519.60,459.82 L522.22,478.68 L524.83,493.77 L527.45,501.32 L530.06,505.09 L532.67,501.32 L535.29,523.95 L537.90,529.61 L540.52,522.07 L543.13,522.07 L545.74,505.09 L548.36,505.09 L550.97,474.91 L553.59,456.05 L556.20,444.73 L558.81,442.84 L561.43,427.75 L564.04,429.64 L566.66,435.30 L569.27,440.95 L571.88,457.93 L574.50,473.02 L577.11,482.45 L579.73,493.77 L582.34,510.75 L584.95,503.20 L587.57,533.39 L590.18,535.27 L592.80,548.48 L595.41,561.68 L598.02,548.48 L600.64,537.16 L603.25,540.93 L605.87,527.73 L608.48,516.41 L611.09,491.89 L613.71,480.57 L616.32,486.23 L618.94,491.89 L621.55,508.86 L647.69,518.30 L650.30,508.86 L652.92,493.77 L655.53,478.68 L658.15,473.02 L660.76,486.23 L663.37,482.45 L665.99,474.91 L668.60,473.02 L671.22,493.77 L673.83,499.43 L676.44,512.64 L679.06,497.55 L681.67,508.86 L684.29,514.52 L686.90,514.52 L689.51,520.18 L692.13,520.18 L694.74,514.52 L697.36,529.61 L699.97,510.75 L702.58,508.86 L705.20,510.75 L707.81,501.32 L710.43,510.75 L713.04,516.41 L715.65,503.20 L718.27,490.00 L720.88,484.34 L723.50,480.57 L726.11,486.23 L728.72,474.91 L731.34,469.25 L733.95,471.14 L736.57,482.45 L739.18,474.91 L741.79,486.23 L744.41,478.68 L747.02,488.11 L749.64,482.45 L752.25,490.00 L754.86,486.23 L757.48,495.66 L760.09,495.66 L762.71,491.89 L765.32,480.57 L767.93,490.00 L770.55,491.89 L773.16,505.09 L775.78,495.66 L778.39,491.89 L781.00,497.55 L783.62,493.77 L786.23,491.89 L788.84,486.23 L791.46,488.11 L794.07,488.11 L796.69,484.34 L799.30,495.66 L801.91,508.86 L804.53,516.41 L807.14,525.84 L809.76,525.84 L812.37,544.70 L814.98,550.36 L817.60,539.05 L820.21,548.48 L822.83,540.93 L825.44,525.84 L828.05,516.41 L830.67,514.52 L833.28,522.07 L835.90,529.61 L838.51,525.84 L841.12,527.73 L843.74,540.93 L846.35,559.80 L848.97,552.25 L851.58,544.70 L854.19,550.36 L856.81,552.25 L859.42,561.68 L862.04,565.45 L864.65,557.91 L867.26,554.14 L869.88,548.48 L872.49,540.93 L875.11,520.18 L877.72,523.95 L880.33,520.18 L882.95,516.41 L885.56,523.95 L888.18,523.95 L890.79,533.39 L893.40,540.93 L896.02,535.27 L898.63,535.27 L901.25,539.05 L903.86,531.50 L906.47,523.95 L909.09,520.18 L911.70,525.84 L914.32,529.61 L916.93,537.16 L919.54,539.05 L922.16,539.05 L924.77,565.45 L927.39,552.25 L930.00,554.14 L930.00,656.00 Z" fill="#60a5fa" fill-opacity="0.16" stroke="none" />
<path d="M70.00,552.25 L72.61,578.66 L75.23,613.87 L77.84,585.26 L80.46,589.22 L83.07,583.06 L85.68,571.11 L88.30,561.68 L90.91,540.93 L93.53,514.52 L96.14,516.41 L98.75,490.00 L101.37,484.34 L103.98,486.23 L106.60,484.34 L109.21,474.91 L111.82,469.25 L114.44,473.02 L117.05,488.11 L119.67,490.00 L122.28,488.11 L124.89,495.66 L127.51,533.39 L130.12,556.02 L132.74,563.57 L135.35,561.68 L137.96,550.36 L140.58,552.25 L143.19,548.48 L145.81,523.95 L148.42,523.95 L151.03,518.30 L153.65,518.30 L156.26,527.73 L158.88,544.70 L161.49,556.02 L164.10,569.23 L166.72,576.77 L169.33,576.77 L171.95,591.86 L174.56,595.64 L177.17,595.64 L179.79,597.52 L182.40,601.30 L185.02,597.52 L187.63,614.50 L190.24,622.05 L192.86,625.82 L195.47,606.95 L198.09,589.98 L200.70,578.66 L203.31,586.20 L205.93,582.43 L208.54,578.66 L211.16,582.43 L213.77,595.64 L216.38,601.30 L219.00,618.27 L221.61,614.50 L224.22,588.09 L226.84,574.89 L229.45,559.80 L232.07,556.02 L234.68,565.45 L237.29,569.23 L239.91,569.23 L242.52,605.07 L245.14,601.30 L247.75,620.16 L250.36,622.05 L252.98,635.25 L255.59,612.61 L258.21,595.64 L260.82,578.66 L263.43,597.52 L266.05,603.18 L268.66,606.95 L271.28,603.18 L273.89,616.39 L276.50,623.93 L279.12,635.25 L281.73,623.93 L284.35,610.73 L286.96,605.07 L289.57,589.98 L292.19,582.43 L294.80,567.34 L297.42,563.57 L300.03,550.36 L302.64,539.05 L305.26,527.73 L307.87,527.73 L310.49,522.07 L313.10,537.16 L315.71,522.07 L318.33,523.95 L320.94,520.18 L323.56,529.61 L326.17,544.70 L328.78,561.68 L331.40,539.05 L334.01,529.61 L336.63,544.70 L339.24,554.14 L341.85,539.05 L344.47,516.41 L347.08,506.98 L349.70,523.95 L352.31,522.07 L354.92,512.64 L357.54,505.09 L360.15,506.98 L362.77,505.09 L365.38,499.43 L367.99,499.43 L370.61,525.84 L373.22,533.39 L375.84,539.05 L378.45,540.93 L381.06,544.70 L383.68,540.93 L386.29,535.27 L388.91,523.95 L391.52,512.64 L394.13,512.64 L396.75,512.64 L399.36,522.07 L401.98,514.52 L404.59,510.75 L407.20,512.64 L409.82,493.77 L412.43,497.55 L415.05,508.86 L417.66,501.32 L420.27,518.30 L422.89,537.16 L425.50,535.27 L428.12,546.59 L430.73,542.82 L433.34,522.07 L435.96,510.75 L438.57,505.09 L441.19,490.00 L443.80,493.77 L446.41,514.52 L449.03,520.18 L451.64,527.73 L454.26,529.61 L456.87,520.18 L459.48,531.50 L462.10,503.20 L464.71,490.00 L467.33,476.80 L469.94,478.68 L472.55,486.23 L475.17,505.09 L477.78,510.75 L480.40,537.16 L483.01,529.61 L485.62,533.39 L488.24,529.61 L490.85,523.95 L493.47,506.98 L496.08,488.11 L498.69,476.80 L501.31,486.23 L503.92,471.14 L506.53,467.36 L509.15,467.36 L511.76,463.59 L514.38,474.91 L516.99,469.25 L519.60,459.82 L522.22,478.68 L524.83,493.77 L527.45,501.32 L530.06,505.09 L532.67,501.32 L535.29,523.95 L537.90,529.61 L540.52,522.07 L543.13,522.07 L545.74,505.09 L548.36,505.09 L550.97,474.91 L553.59,456.05 L556.20,444.73 L558.81,442.84 L561.43,427.75 L564.04,429.64 L566.66,435.30 L569.27,440.95 L571.88,457.93 L574.50,473.02 L577.11,482.45 L579.73,493.77 L582.34,510.75 L584.95,503.20 L587.57,533.39 L590.18,535.27 L592.80,548.48 L595.41,561.68 L598.02,548.48 L600.64,537.16 L603.25,540.93 L605.87,527.73 L608.48,516.41 L611.09,491.89 L613.71,480.57 L616.32,486.23 L618.94,491.89 L621.55,508.86 L647.69,518.30 L650.30,508.86 L652.92,493.77 L655.53,478.68 L658.15,473.02 L660.76,486.23 L663.37,482.45 L665.99,474.91 L668.60,473.02 L671.22,493.77 L673.83,499.43 L676.44,512.64 L679.06,497.55 L681.67,508.86 L684.29,514.52 L686.90,514.52 L689.51,520.18 L692.13,520.18 L694.74,514.52 L697.36,529.61 L699.97,510.75 L702.58,508.86 L705.20,510.75 L707.81,501.32 L710.43,510.75 L713.04,516.41 L715.65,503.20 L718.27,490.00 L720.88,484.34 L723.50,480.57 L726.11,486.23 L728.72,474.91 L731.34,469.25 L733.95,471.14 L736.57,482.45 L739.18,474.91 L741.79,486.23 L744.41,478.68 L747.02,488.11 L749.64,482.45 L752.25,490.00 L754.86,486.23 L757.48,495.66 L760.09,495.66 L762.71,491.89 L765.32,480.57 L767.93,490.00 L770.55,491.89 L773.16,505.09 L775.78,495.66 L778.39,491.89 L781.00,497.55 L783.62,493.77 L786.23,491.89 L788.84,486.23 L791.46,488.11 L794.07,488.11 L796.69,484.34 L799.30,495.66 L801.91,508.86 L804.53,516.41 L807.14,525.84 L809.76,525.84 L812.37,544.70 L814.98,550.36 L817.60,539.05 L820.21,548.48 L822.83,540.93 L825.44,525.84 L828.05,516.41 L830.67,514.52 L833.28,522.07 L835.90,529.61 L838.51,525.84 L841.12,527.73 L843.74,540.93 L846.35,559.80 L848.97,552.25 L851.58,544.70 L854.19,550.36 L856.81,552.25 L859.42,561.68 L862.04,565.45 L864.65,557.91 L867.26,554.14 L869.88,548.48 L872.49,540.93 L875.11,520.18 L877.72,523.95 L880.33,520.18 L882.95,516.41 L885.56,523.95 L888.18,523.95 L890.79,533.39 L893.40,540.93 L896.02,535.27 L898.63,535.27 L901.25,539.05 L903.86,531.50 L906.47,523.95 L909.09,520.18 L911.70,525.84 L914.32,529.61 L916.93,537.16 L919.54,539.05 L922.16,539.05 L924.77,565.45 L927.39,552.25 L930.00,554.14" fill="none" stroke="#60a5fa" stroke-width="2.2" stroke-linecap="round" />
</svg>
