<svg xmlns="http://www.w3.org/2000/svg" viewBox="0 0 960 720" width="960" height="720">
<rect width="960" height="720" fill="#0f172a" />
<text x="480" y="28" fill="#e2e8f0" font-size="16" font-weight="700" text-anchor="middle">入睡时间趋势图</text>
<text x="70" y="70" fill="#e2e8f0" font-size="13" font-weight="600">本月分天指标明细</text>
<line x1="70" y1="323.00" x2="930" y2="323.00" stroke="#94a3b8" stroke-opacity="0.18" stroke-width="1" />
<text x="62" y="327.00" fill="#cbd5f5" font-size="10" text-anchor="end">21:42</text>
<line x1="70" y1="260.75" x2="930" y2="260.75" stroke="#94a3b8" stroke-opacity="0.18" stroke-width="1" />
<text x="62" y="264.75" fill="#cbd5f5" font-size="10" text-anchor="end">04:51</text>
<line x1="70" y1="198.50" x2="930" y2="198.50" stroke="#94a3b8" stroke-opacity="0.18" stroke-width="1" />
<text x="62" y="202.50" fill="#cbd5f5" font-size="10" text-anchor="end">12:00</text>
<line x1="70" y1="136.25" x2="930" y2="136.25" stroke="#94a3b8" stroke-opacity="0.18" stroke-width="1" />
<text x="62" y="140.25" fill="#cbd5f5" font-size="10" text-anchor="end">19:10</text>
<line x1="70" y1="74.00" x2="930" y2="74.00" stroke="#94a3b8" stroke-opacity="0.18" stroke-width="1" />
<text x="62" y="78.00" fill="#cbd5f5" font-size="10" text-anchor="end">02:19</text>
<line x1="70.00" y1="323" x2="70.00" y2="327" stroke="#94a3b8" stroke-opacity="0.5" stroke-width="1" />
<text x="70.00" y="341" fill="#cbd5f5" font-size="10" text-anchor="middle">11-19</text>
<line x1="242.00" y1="323" x2="242.00" y2="327" stroke="#94a3b8" stroke-opacity="0.5" stroke-width="1" />
<text x="242.00" y="341" fill="#cbd5f5" font-size="10" text-anchor="middle">11-24</text>
<line x1="414.00" y1="323" x2="414.00" y2="327" stroke="#94a3b8" stroke-opacity="0.5" stroke-width="1" />
<text x="414.00" y="341" fill="#cbd5f5" font-size="10" text-anchor="middle">11-30</text>
<line x1="586.00" y1="323" x2="586.00" y2="327" stroke="#94a3b8" stroke-opacity="0.5" stroke-width="1" />
<text x="586.00" y="341" fill="#cbd5f5" font-size="10" text-anchor="middle">12-06</text>
<line x1="758.00" y1="323" x2="758.00" y2="327" stroke="#94a3b8" stroke-opacity="0.5" stroke-width="1" />
<text x="758.00" y="341" fill="#cbd5f5" font-size="10" text-anchor="middle">12-12</text>
<line x1="930.00" y1="323" x2="930.00" y2="327" stroke="#94a3b8" stroke-opacity="0.5" stroke-width="1" />
<text x="930.00" y="341" fill="#cbd5f5" font-size="10" text-anchor="middle">12-18</text>
<line x1="70" y1="74" x2="70" y2="323" stroke="#94a3b8" stroke-width="1" />
<line x1="70" y1="323" x2="930" y2="323" stroke="#94a3b8" stroke-width="1" />
<path d="M70.00,95.62 L99.66,96.49 L129.31,95.19 L158.97,299.64 L188.62,300.51 L218.28,301.96 L247.93,108.67 L277.59,103.16 L307.24,99.68 L336.90,290.36 L366.55,109.98 L396.21,127.09 L425.86,109.11 L455.52,299.06 L485.17,282.67 L514.83,108.96 L544.48,101.28 L574.14,296.45 L603.79,297.17 L633.45,94.75 L663.10,100.12 L692.76,106.93 L722.41,108.82 L752.07,300.94 L781.72,176.97 L811.38,96.35 L841.03,297.90 L870.69,95.33 L900.34,302.25 L930.00,95.62" fill="none" stroke="#60a5fa" stroke-width="2.2" stroke-linecap="round" />
<circle cx="70.00" cy="95.62" r="3" fill="#60a5fa" stroke="#0f172a" stroke-width="1" />
<text x="70.00" y="85.62" fill="#e2e8f0" font-size="9" text-anchor="middle">23:50</text>
<circle cx="99.66" cy="96.49" r="3" fill="#60a5fa" stroke="#0f172a" stroke-width="1" />
<text x="99.66" y="110.49" fill="#e2e8f0" font-size="9" text-anchor="middle">23:44</text>
<circle cx="129.31" cy="95.19" r="3" fill="#60a5fa" stroke="#0f172a" stroke-width="1" />
<text x="129.31" y="85.19" fill="#e2e8f0" font-size="9" text-anchor="middle">23:53</text>
<circle cx="158.97" cy="299.64" r="3" fill="#60a5fa" stroke="#0f172a" stroke-width="1" />
<text x="158.97" y="279.64" fill="#e2e8f0" font-size="9" text-anchor="middle">00:23</text>
<circle cx="188.62" cy="300.51" r="3" fill="#60a5fa" stroke="#0f172a" stroke-width="1" />
<text x="188.62" y="290.51" fill="#e2e8f0" font-size="9" text-anchor="middle">00:17</text>
<circle cx="218.28" cy="301.96" r="3" fill="#60a5fa" stroke="#0f172a" stroke-width="1" />
<text x="218.28" y="281.96" fill="#e2e8f0" font-size="9" text-anchor="middle">00:07</text>
<circle cx="247.93" cy="108.67" r="3" fill="#60a5fa" stroke="#0f172a" stroke-width="1" />
<text x="247.93" y="98.67" fill="#e2e8f0" font-size="9" text-anchor="middle">22:20</text>
<circle cx="277.59" cy="103.16" r="3" fill="#60a5fa" stroke="#0f172a" stroke-width="1" />
<text x="277.59" y="117.16" fill="#e2e8f0" font-size="9" text-anchor="middle">22:58</text>
<circle cx="307.24" cy="99.68" r="3" fill="#60a5fa" stroke="#0f172a" stroke-width="1" />
<text x="307.24" y="89.68" fill="#e2e8f0" font-size="9" text-anchor="middle">23:22</text>
<circle cx="336.90" cy="290.36" r="3" fill="#60a5fa" stroke="#0f172a" stroke-width="1" />
<text x="336.90" y="270.36" fill="#e2e8f0" font-size="9" text-anchor="middle">01:27</text>
<circle cx="366.55" cy="109.98" r="3" fill="#60a5fa" stroke="#0f172a" stroke-width="1" />
<text x="366.55" y="99.98" fill="#e2e8f0" font-size="9" text-anchor="middle">22:11</text>
<circle cx="396.21" cy="127.09" r="3" fill="#60a5fa" stroke="#0f172a" stroke-width="1" />
<text x="396.21" y="107.09" fill="#e2e8f0" font-size="9" text-anchor="middle">20:13</text>
<circle cx="425.86" cy="109.11" r="3" fill="#60a5fa" stroke="#0f172a" stroke-width="1" />
<text x="425.86" y="99.11" fill="#e2e8f0" font-size="9" text-anchor="middle">22:17</text>
<circle cx="455.52" cy="299.06" r="3" fill="#60a5fa" stroke="#0f172a" stroke-width="1" />
<text x="455.52" y="279.06" fill="#e2e8f0" font-size="9" text-anchor="middle">00:27</text>
<circle cx="485.17" cy="282.67" r="3" fill="#60a5fa" stroke="#0f172a" stroke-width="1" />
<text x="485.17" y="272.67" fill="#e2e8f0" font-size="9" text-anchor="middle">02:20</text>
<circle cx="514.83" cy="108.96" r="3" fill="#60a5fa" stroke="#0f172a" stroke-width="1" />
<text x="514.83" y="88.96" fill="#e2e8f0" font-size="9" text-anchor="middle">22:18</text>
<circle cx="544.48" cy="101.28" r="3" fill="#60a5fa" stroke="#0f172a" stroke-width="1" />
<text x="544.48" y="91.28" fill="#e2e8f0" font-size="9" text-anchor="middle">23:11</text>
<circle cx="574.14" cy="296.45" r="3" fill="#60a5fa" stroke="#0f172a" stroke-width="1" />
<text x="574.14" y="276.45" fill="#e2e8f0" font-size="9" text-anchor="middle">00:45</text>
<circle cx="603.79" cy="297.17" r="3" fill="#60a5fa" stroke="#0f172a" stroke-width="1" />
<text x="603.79" y="287.17" fill="#e2e8f0" font-size="9" text-anchor="middle">00:40</text>
<circle cx="633.45" cy="94.75" r="3" fill="#60a5fa" stroke="#0f172a" stroke-width="1" />
<text x="633.45" y="108.75" fill="#e2e8f0" font-size="9" text-anchor="middle">23:56</text>
<circle cx="663.10" cy="100.12" r="3" fill="#60a5fa" stroke="#0f172a" stroke-width="1" />
<text x="663.10" y="90.12" fill="#e2e8f0" font-size="9" text-anchor="middle">23:19</text>
<circle cx="692.76" cy="106.93" r="3" fill="#60a5fa" stroke="#0f172a" stroke-width="1" />
<text x="692.76" y="86.93" fill="#e2e8f0" font-size="9" text-anchor="middle">22:32</text>
<circle cx="722.41" cy="108.82" r="3" fill="#60a5fa" stroke="#0f172a" stroke-width="1" />
<text x="722.41" y="98.82" fill="#e2e8f0" font-size="9" text-anchor="middle">22:19</text>
<circle cx="752.07" cy="300.94" r="3" fill="#60a5fa" stroke="#0f172a" stroke-width="1" />
<text x="752.07" y="280.94" fill="#e2e8f0" font-size="9" text-anchor="middle">00:14</text>
<circle cx="781.72" cy="176.97" r="3" fill="#60a5fa" stroke="#0f172a" stroke-width="1" />
<text x="781.72" y="166.97" fill="#e2e8f0" font-size="9" text-anchor="middle">14:29</text>
<circle cx="811.38" cy="96.35" r="3" fill="#60a5fa" stroke="#0f172a" stroke-width="1" />
<text x="811.38" y="110.35" fill="#e2e8f0" font-size="9" text-anchor="middle">23:45</text>
<circle cx="841.03" cy="297.90" r="3" fill="#60a5fa" stroke="#0f172a" stroke-width="1" />
<text x="841.03" y="287.90" fill="#e2e8f0" font-size="9" text-anchor="middle">00:35</text>
<circle cx="870.69" cy="95.33" r="3" fill="#60a5fa" stroke="#0f172a" stroke-width="1" />
<text x="870.69" y="109.33" fill="#e2e8f0" font-size="9" text-anchor="middle">23:52</text>
<circle cx="900.34" cy="302.25" r="3" fill="#60a5fa" stroke="#0f172a" stroke-width="1" />
<text x="900.34" y="292.25" fill="#e2e8f0" font-size="9" text-anchor="middle">00:05</text>
<circle cx="930.00" cy="95.62" r="3" fill="#60a5fa" stroke="#0f172a" stroke-width="1" />
<text x="930.00" y="109.62" fill="#e2e8f0" font-size="9" text-anchor="middle">23:50</text>
<text x="70" y="403" fill="#e2e8f0" font-size="13" font-weight="600">本年核心指标趋势（滑动7日窗口平均）</text>
<line x1="70" y1="656.00" x2="930" y2="656.00" stroke="#94a3b8" stroke-opacity="0.18" stroke-width="1" />
<text x="62" y="660.00" fill="#cbd5f5" font-size="10" text-anchor="end">22:58</text>
<line x1="70" y1="593.75" x2="930" y2="593.75" stroke="#94a3b8" stroke-opacity="0.18" stroke-width="1" />
<text x="62" y="597.75" fill="#cbd5f5" font-size="10" text-anchor="end">04:44</text>
<line x1="70" y1="531.50" x2="930" y2="531.50" stroke="#94a3b8" stroke-opacity="0.18" stroke-width="1" />
<text x="62" y="535.50" fill="#cbd5f5" font-size="10" text-anchor="end">10:30</text>
<line x1="70" y1="469.25" x2="930" y2="469.25" stroke="#94a3b8" stroke-opacity="0.18" stroke-width="1" />
<text x="62" y="473.25" fill="#cbd5f5" font-size="10" text-anchor="end">16:16</text>
<line x1="70" y1="407.00" x2="930" y2="407.00" stroke="#94a3b8" stroke-opacity="0.18" stroke-width="1" />
<text x="62" y="411.00" fill="#cbd5f5" font-size="10" text-anchor="end">22:01</text>
<line x1="70.00" y1="656" x2="70.00" y2="660" stroke="#94a3b8" stroke-opacity="0.5" stroke-width="1" />
<text x="70.00" y="674" fill="#cbd5f5" font-size="10" text-anchor="middle">2025-01</text>
<line x1="242.00" y1="656" x2="242.00" y2="660" stroke="#94a3b8" stroke-opacity="0.5" stroke-width="1" />
<text x="242.00" y="674" fill="#cbd5f5" font-size="10" text-anchor="middle">2025-03</text>
<line x1="414.00" y1="656" x2="414.00" y2="660" stroke="#94a3b8" stroke-opacity="0.5" stroke-width="1" />
<text x="414.00" y="674" fill="#cbd5f5" font-size="10" text-anchor="middle">2025-06</text>
<line x1="586.00" y1="656" x2="586.00" y2="660" stroke="#94a3b8" stroke-opacity="0.5" stroke-width="1" />
<text x="586.00" y="674" fill="#cbd5f5" font-size="10" text-anchor="middle">2025-08</text>
<line x1="758.00" y1="656" x2="758.00" y2="660" stroke="#94a3b8" stroke-opacity="0.5" stroke-width="1" />
<text x="758.00" y="674" fill="#cbd5f5" font-size="10" text-anchor="middle">2025-10</text>
<line x1="930.00" y1="656" x2="930.00" y2="660" stroke="#94a3b8" stroke-opacity="0.5" stroke-width="1" />
<text x="930.00" y="674" fill="#cbd5f5" font-size="10" text-anchor="middle">2025-12</text>
<line x1="70" y1="407" x2="70" y2="656" stroke="#94a3b8" stroke-width="1" />
<line x1="70" y1="656" x2="930" y2="656" stroke="#94a3b8" stroke-width="1" />
<path d="M70.00,656.00 L70.00,635.25 L72.62,515.14 L75.24,554.04 L77.87,513.92 L80.49,489.89 L83.11,514.27 L85.73,531.94 L88.35,532.99 L90.98,567.51 L93.60,567.46 L96.22,566.41 L98.84,601.86 L101.46,601.60 L104.09,566.87 L106.71,532.50 L109.33,497.80 L111.95,498.44 L114.57,499.03 L117.20,463.48 L119.82,464.36 L122.44,499.68 L125.06,497.75 L127.68,529.39 L130.30,529.78 L132.93,530.34 L135.55,530.09 L138.17,530.55 L140.79,530.86 L143.41,566.15 L146.04,567.39 L148.66,567.31 L151.28,566.82 L153.90,566.82 L156.52,530.73 L159.15,494.12 L161.77,459.03 L164.39,461.99 L167.01,462.53 L169.63,462.45 L172.26,463.22 L174.88,498.11 L177.50,532.55 L180.12,533.92 L182.74,531.60 L185.37,531.14 L187.99,567.49 L190.61,601.83 L193.23,603.04 L195.85,570.21 L198.48,569.21 L201.10,570.50 L203.72,571.27 L206.34,534.74 L208.96,500.78 L211.59,465.67 L214.21,464.10 L216.83,499.88 L219.45,464.41 L222.07,429.73 L224.70,430.81 L227.32,465.10 L229.94,498.42 L232.56,534.56 L235.18,498.00 L237.80,532.91 L240.43,567.15 L243.05,602.11 L245.67,602.81 L248.29,603.09 L250.91,603.22 L253.54,604.07 L256.16,570.75 L258.78,570.50 L261.40,535.69 L264.02,534.74 L266.65,499.73 L269.27,463.74 L271.89,499.37 L274.51,533.81 L277.13,534.02 L279.76,532.63 L282.38,533.58 L285.00,533.69 L287.62,533.69 L290.24,533.94 L292.87,533.92 L295.49,534.30 L298.11,534.30 L300.73,497.80 L303.35,498.39 L305.98,534.58 L308.60,533.58 L311.22,532.17 L313.84,495.43 L316.46,495.82 L319.09,495.56 L321.71,527.28 L324.33,523.76 L326.95,520.37 L329.57,486.62 L332.20,486.67 L334.82,522.40 L337.44,525.36 L340.06,494.17 L342.68,497.47 L345.30,501.66 L347.93,537.18 L350.55,573.43 L353.17,538.36 L355.79,571.73 L358.41,605.35 L361.04,570.73 L363.66,534.04 L366.28,529.03 L368.90,528.29 L371.52,528.80 L374.15,529.14 L376.77,496.10 L379.39,530.14 L382.01,530.21 L384.63,532.89 L387.26,533.27 L389.88,565.07 L392.50,531.06 L395.12,560.16 L397.74,560.16 L400.37,595.87 L402.99,598.10 L405.61,595.46 L408.23,562.27 L410.85,561.60 L413.48,530.88 L416.10,529.34 L418.72,496.67 L421.34,496.41 L423.96,496.36 L426.59,496.90 L429.21,496.18 L431.83,531.32 L434.45,497.98 L437.07,530.39 L439.70,526.38 L442.32,527.28 L444.94,557.18 L447.56,556.61 L450.18,557.08 L452.80,556.61 L455.43,553.94 L458.05,556.64 L460.67,522.76 L463.29,528.26 L465.91,529.08 L468.54,494.25 L471.16,494.10 L473.78,498.18 L476.40,499.03 L479.02,529.73 L481.65,495.20 L484.27,496.10 L486.89,531.42 L489.51,566.10 L492.13,564.76 L494.76,531.17 L497.38,535.69 L500.00,535.95 L502.62,535.25 L505.24,500.60 L507.87,466.08 L510.49,430.99 L513.11,463.66 L515.73,461.22 L518.35,461.30 L520.98,460.42 L523.60,459.01 L526.22,460.22 L528.84,496.62 L531.46,498.44 L534.09,465.98 L536.71,464.25 L539.33,499.32 L541.95,498.93 L544.57,498.80 L547.20,498.11 L549.82,498.18 L552.44,533.45 L555.06,537.70 L557.68,502.25 L560.30,538.77 L562.93,573.27 L565.55,537.10 L568.17,534.30 L570.79,534.30 L573.41,531.04 L576.04,531.24 L578.66,496.75 L581.28,497.21 L583.90,533.48 L586.52,534.69 L589.15,534.43 L591.77,533.15 L594.39,569.24 L597.01,603.71 L599.63,568.70 L602.26,532.89 L604.88,532.45 L607.50,533.58 L610.12,535.41 L612.74,535.12 L615.37,535.12 L620.61,535.00 L623.23,569.08 L649.45,537.88 L652.07,501.94 L654.70,500.34 L657.32,465.95 L659.94,464.46 L662.56,463.28 L665.18,429.24 L667.80,427.75 L670.43,428.11 L673.05,429.50 L675.67,429.24 L678.29,430.35 L680.91,430.63 L683.54,430.73 L686.16,430.91 L688.78,466.54 L691.40,501.53 L694.02,500.06 L696.65,500.78 L699.27,536.49 L701.89,536.77 L704.51,535.46 L707.13,500.73 L709.76,499.96 L712.38,500.19 L715.00,499.19 L717.62,497.54 L720.24,532.76 L722.87,531.78 L725.49,530.65 L728.11,496.90 L730.73,532.81 L733.35,532.94 L735.98,499.32 L738.60,464.66 L741.22,465.67 L743.84,500.01 L746.46,531.40 L751.71,495.07 L754.33,494.20 L756.95,529.21 L759.57,528.72 L762.20,528.00 L764.82,529.14 L767.44,531.71 L770.06,567.54 L772.68,567.98 L775.30,532.79 L777.93,535.02 L780.55,538.54 L783.17,504.02 L785.79,504.53 L788.41,468.73 L791.04,469.09 L793.66,470.86 L796.28,468.06 L798.90,500.22 L801.52,498.83 L804.15,498.60 L806.77,534.04 L809.39,533.38 L812.01,566.49 L814.63,568.00 L817.26,568.11 L819.88,603.32 L822.50,569.34 L825.12,568.23 L827.74,567.03 L830.37,532.45 L832.99,531.01 L835.61,495.79 L838.23,460.06 L840.85,493.69 L843.48,495.85 L846.10,498.67 L848.72,498.98 L851.34,498.52 L853.96,497.75 L856.59,498.13 L859.21,462.12 L861.83,461.66 L864.45,461.22 L867.07,496.49 L869.70,498.93 L872.32,500.27 L874.94,500.83 L877.56,535.43 L880.18,501.81 L882.80,471.06 L885.43,436.88 L888.05,470.63 L890.67,502.45 L893.29,504.10 L895.91,470.58 L898.54,503.63 L901.16,533.79 L903.78,531.24 L906.40,495.97 L909.02,464.82 L911.65,464.79 L914.27,500.19 L916.89,479.01 L919.51,443.41 L922.13,479.42 L924.76,478.57 L927.38,513.20 L930.00,510.86 L930.00,656.00 Z" fill="#60a5fa" fill-opacity="0.16" stroke="none" />
<path d="M70.00,635.25 L72.62,515.14 L75.24,554.04 L77.87,513.92 L80.49,489.89 L83.11,514.27 L85.73,531.94 L88.35,532.99 L90.98,567.51 L93.60,567.46 L96.22,566.41 L98.84,601.86 L101.46,601.60 L104.09,566.87 L106.71,532.50 L109.33,497.80 L111.95,498.44 L114.57,499.03 L117.20,463.48 L119.82,464.36 L122.44,499.68 L125.06,497.75 L127.68,529.39 L130.30,529.78 L132.93,530.34 L135.55,530.09 L138.17,530.55 L140.79,530.86 L143.41,566.15 L146.04,567.39 L148.66,567.31 L151.28,566.82 L153.90,566.82 L156.52,530.73 L159.15,494.12 L161.77,459.03 L164.39,461.99 L167.01,462.53 L169.63,462.45 L172.26,463.22 L174.88,498.11 L177.50,532.55 L180.12,533.92 L182.74,531.60 L185.37,531.14 L187.99,567.49 L190.61,601.83 L193.23,603.04 L195.85,570.21 L198.48,569.21 L201.10,570.50 L203.72,571.27 L206.34,534.74 L208.96,500.78 L211.59,465.67 L214.21,464.10 L216.83,499.88 L219.45,464.41 L222.07,429.73 L224.70,430.81 L227.32,465.10 L229.94,498.42 L232.56,534.56 L235.18,498.00 L237.80,532.91 L240.43,567.15 L243.05,602.11 L245.67,602.81 L248.29,603.09 L250.91,603.22 L253.54,604.07 L256.16,570.75 L258.78,570.50 L261.40,535.69 L264.02,534.74 L266.65,499.73 L269.27,463.74 L271.89,499.37 L274.51,533.81 L277.13,534.02 L279.76,532.63 L282.38,533.58 L285.00,533.69 L287.62,533.69 L290.24,533.94 L292.87,533.92 L295.49,534.30 L298.11,534.30 L300.73,497.80 L303.35,498.39 L305.98,534.58 L308.60,533.58 L311.22,532.17 L313.84,495.43 L316.46,495.82 L319.09,495.56 L321.71,527.28 L324.33,523.76 L326.95,520.37 L329.57,486.62 L332.20,486.67 L334.82,522.40 L337.44,525.36 L340.06,494.17 L342.68,497.47 L345.30,501.66 L347.93,537.18 L350.55,573.43 L353.17,538.36 L355.79,571.73 L358.41,605.35 L361.04,570.73 L363.66,534.04 L366.28,529.03 L368.90,528.29 L371.52,528.80 L374.15,529.14 L376.77,496.10 L379.39,530.14 L382.01,530.21 L384.63,532.89 L387.26,533.27 L389.88,565.07 L392.50,531.06 L395.12,560.16 L397.74,560.16 L400.37,595.87 L402.99,598.10 L405.61,595.46 L408.23,562.27 L410.85,561.60 L413.48,530.88 L416.10,529.34 L418.72,496.67 L421.34,496.41 L423.96,496.36 L426.59,496.90 L429.21,496.18 L431.83,531.32 L434.45,497.98 L437.07,530.39 L439.70,526.38 L442.32,527.28 L444.94,557.18 L447.56,556.61 L450.18,557.08 L452.80,556.61 L455.43,553.94 L458.05,556.64 L460.67,522.76 L463.29,528.26 L465.91,529.08 L468.54,494.25 L471.16,494.10 L473.78,498.18 L476.40,499.03 L479.02,529.73 L481.65,495.20 L484.27,496.10 L486.89,531.42 L489.51,566.10 L492.13,564.76 L494.76,531.17 L497.38,535.69 L500.00,535.95 L502.62,535.25 L505.24,500.60 L507.87,466.08 L510.49,430.99 L513.11,463.66 L515.73,461.22 L518.35,461.30 L520.98,460.42 L523.60,459.01 L526.22,460.22 L528.84,496.62 L531.46,498.44 L534.09,465.98 L536.71,464.25 L539.33,499.32 L541.95,498.93 L544.57,498.80 L547.20,498.11 L549.82,498.18 L552.44,533.45 L555.06,537.70 L557.68,502.25 L560.30,538.77 L562.93,573.27 L565.55,537.10 L568.17,534.30 L570.79,534.30 L573.41,531.04 L576.04,531.24 L578.66,496.75 L581.28,497.21 L583.90,533.48 L586.52,534.69 L589.15,534.43 L591.77,533.15 L594.39,569.24 L597.01,603.71 L599.63,568.70 L602.26,532.89 L604.88,532.45 L607.50,533.58 L610.12,535.41 L612.74,535.12 L615.37,535.12 L620.61,535.00 L623.23,569.08 L649.45,537.88 L652.07,501.94 L654.70,500.34 L657.32,465.95 L659.94,464.46 L662.56,463.28 L665.18,429.24 L667.80,427.75 L670.43,428.11 L673.05,429.50 L675.67,429.24 L678.29,430.35 L680.91,430.63 L683.54,430.73 L686.16,430.91 L688.78,466.54 L691.40,501.53 L694.02,500.06 L696.65,500.78 L699.27,536.49 L701.89,536.77 L704.51,535.46 L707.13,500.73 L709.76,499.96 L712.38,500.19 L715.00,499.19 L717.62,497.54 L720.24,532.76 L722.87,531.78 L725.49,530.65 L728.11,496.90 L730.73,532.81 L733.35,532.94 L735.98,499.32 L738.60,464.66 L741.22,465.67 L743.84,500.01 L746.46,531.40 L751.71,495.07 L754.33,494.20 L756.95,529.21 L759.57,528.72 L762.20,528.00 L764.82,529.14 L767.44,531.71 L770.06,567.54 L772.68,567.98 L775.30,532.79 L777.93,535.02 L780.55,538.54 L783.17,504.02 L785.79,504.53 L788.41,468.73 L791.04,469.09 L793.66,470.86 L796.28,468.06 L798.90,500.22 L801.52,498.83 L804.15,498.60 L806.77,534.04 L809.39,533.38 L812.01,566.49 L814.63,568.00 L817.26,568.11 L819.88,603.32 L822.50,569.34 L825.12,568.23 L827.74,567.03 L830.37,532.45 L832.99,531.01 L835.61,495.79 L838.23,460.06 L840.85,493.69 L843.48,495.85 L846.10,498.67 L848.72,498.98 L851.34,498.52 L853.96,497.75 L856.59,498.13 L859.21,462.12 L861.83,461.66 L864.45,461.22 L867.07,496.49 L869.70,498.93 L872.32,500.27 L874.94,500.83 L877.56,535.43 L880.18,501.81 L882.80,471.06 L885.43,436.88 L888.05,470.63 L890.67,502.45 L893.29,504.10 L895.91,470.58 L898.54,503.63 L901.16,533.79 L903.78,531.24 L906.40,495.97 L909.02,464.82 L911.65,464.79 L914.27,500.19 L916.89,479.01 L919.51,443.41 L922.13,479.42 L924.76,478.57 L927.38,513.20 L930.00,510.86" fill="none" stroke="#60a5fa" stroke-width="2.2" stroke-linecap="round" />
</svg>
