<svg xmlns="http://www.w3.org/2000/svg" viewBox="0 0 960 640" width="960" height="640">
  <rect width="960" height="640" fill="#0f172a" />
  <line x1="40" y1="40.00" x2="920.00" y2="40.00" stroke="#94a3b8" stroke-opacity="0.18" stroke-width="1" /><line x1="40" y1="128.00" x2="920.00" y2="128.00" stroke="#94a3b8" stroke-opacity="0.18" stroke-width="1" /><line x1="40" y1="216.00" x2="920.00" y2="216.00" stroke="#94a3b8" stroke-opacity="0.18" stroke-width="1" /><line x1="40" y1="304.00" x2="920.00" y2="304.00" stroke="#94a3b8" stroke-opacity="0.18" stroke-width="1" />
  <line x1="40" y1="336.00" x2="920.00" y2="336.00" stroke="#94a3b8" stroke-opacity="0.18" stroke-width="1" /><line x1="40" y1="424.00" x2="920.00" y2="424.00" stroke="#94a3b8" stroke-opacity="0.18" stroke-width="1" /><line x1="40" y1="512.00" x2="920.00" y2="512.00" stroke="#94a3b8" stroke-opacity="0.18" stroke-width="1" /><line x1="40" y1="600.00" x2="920.00" y2="600.00" stroke="#94a3b8" stroke-opacity="0.18" stroke-width="1" />
  <line x1="40" y1="320.00" x2="920.00" y2="320.00" stroke="#1f2937" stroke-width="1" />
  <polyline points="40.00,50.91 70.34,81.39 100.69,86.42 131.03,111.31 161.38,114.67 191.72,49.79 222.07,84.47 252.41,83.91 282.76,86.42 313.10,79.15 343.45,143.47 373.79,81.39 404.14,74.68 434.48,80.27 464.83,42.24 495.17,58.18 525.52,57.06 555.86,86.70 586.21,131.73 616.55,48.67 646.90,107.96 677.24,43.08 707.59,138.16 737.93,134.53 768.28,304.00 798.62,40.00 828.97,95.37 859.31,112.99 889.66,139.56 920.00,88.66" fill="none" stroke="#60a5fa" stroke-width="2" stroke-linecap="round" stroke-linejoin="round" />
  <polyline points="40.00,544.10 42.49,533.56 44.97,526.32 47.46,529.54 49.94,515.14 52.43,517.31 54.92,513.61 57.40,513.13 59.89,520.61 62.37,513.45 64.86,524.87 67.34,583.75 69.83,583.51 72.32,592.76 74.80,580.86 77.29,587.13 79.77,595.90 82.26,583.19 84.75,531.47 87.23,529.05 89.72,520.04 92.20,526.00 94.69,521.97 97.18,528.33 99.66,532.99 102.15,536.94 104.63,542.00 107.12,545.38 109.60,550.13 112.09,546.19 114.58,545.78 117.06,540.96 119.55,531.06 122.03,527.28 124.52,498.81 127.01,499.37 129.49,550.05 131.98,600.00 134.46,581.90 136.95,553.75 139.44,534.68 141.92,552.70 144.41,535.73 146.89,471.62 149.38,403.41 151.86,384.83 154.35,403.73 156.84,432.61 159.32,422.63 161.81,421.59 164.29,414.75 166.78,427.94 169.27,431.08 171.75,428.26 174.24,394.48 176.72,386.44 179.21,377.10 181.69,362.06 184.18,359.25 186.67,383.94 189.15,387.24 191.64,384.18 194.12,393.76 196.61,394.08 199.10,414.27 201.58,409.28 204.07,399.63 206.55,389.09 209.04,406.06 211.53,402.12 214.01,404.69 216.50,396.65 218.98,385.79 221.47,396.01 223.95,412.90 226.44,397.70 228.93,393.84 231.41,400.99 233.90,399.95 236.38,397.62 238.87,388.93 241.36,375.74 243.84,407.43 246.33,402.12 248.81,406.14 251.30,413.14 253.79,426.90 256.27,441.46 258.76,447.97 261.24,424.32 263.73,447.73 266.21,435.58 268.70,445.48 271.19,451.11 273.67,436.31 276.16,440.57 278.64,445.16 281.13,428.75 283.62,401.24 286.10,406.79 288.59,408.72 291.07,400.27 293.56,393.84 296.05,385.71 298.53,405.98 301.02,459.96 303.50,454.33 305.99,444.03 308.47,449.18 310.96,444.27 313.45,463.58 315.93,444.51 318.42,431.96 320.90,423.60 323.39,430.35 325.88,446.52 328.36,452.72 330.85,441.62 333.33,449.90 335.82,450.06 338.31,436.63 340.79,425.61 343.28,420.14 345.76,432.61 348.25,422.71 350.73,426.90 353.22,430.84 355.71,449.50 358.19,465.99 360.68,474.60 363.16,457.14 365.65,435.90 368.14,419.50 370.62,418.53 373.11,427.38 375.59,416.44 378.08,393.35 380.56,386.60 383.05,410.16 385.54,417.73 388.02,408.39 390.51,387.48 392.99,399.95 395.48,419.50 397.97,420.30 400.45,442.90 402.94,452.48 405.42,418.13 407.91,411.85 410.40,388.20 412.88,373.08 415.37,391.82 417.85,384.59 420.34,385.15 422.82,412.01 425.31,419.66 427.80,429.15 430.28,432.77 432.77,414.67 435.25,397.46 437.74,377.02 440.23,378.07 442.71,377.51 445.20,381.45 447.68,378.71 450.17,397.94 452.66,390.94 455.14,414.51 457.63,419.58 460.11,414.75 462.60,424.64 465.08,427.62 467.57,413.30 470.06,421.67 472.54,401.40 475.03,389.17 477.51,389.81 480.00,357.72 482.49,343.00 484.97,344.04 487.46,341.87 489.94,336.00 492.43,337.77 494.92,362.63 497.40,383.70 499.89,400.03 502.37,397.94 504.86,405.90 507.34,406.38 509.83,404.21 512.32,379.12 514.80,362.87 517.29,363.27 519.77,373.16 522.26,361.66 524.75,383.06 527.23,409.84 529.72,421.18 532.20,443.95 534.69,445.80 537.18,450.79 539.66,478.22 542.15,479.26 544.63,475.80 547.12,464.86 549.60,455.77 552.09,450.14 554.58,456.82 557.06,452.56 559.55,452.72 562.03,442.74 564.52,470.41 567.01,466.79 569.49,479.66 571.98,448.21 574.46,455.93 576.95,451.35 579.44,456.18 581.92,436.07 584.41,450.46 586.89,426.17 589.38,428.67 591.86,416.68 594.35,422.95 596.84,407.11 599.32,404.86 601.81,393.51 604.29,404.78 606.78,421.99 609.27,401.16 611.75,386.11 614.24,400.99 616.72,408.48 619.21,414.83 621.69,401.72 624.18,396.09 626.67,414.83 629.15,431.16 631.64,414.03 634.12,429.07 636.61,413.30 639.10,416.84 641.58,422.87 644.07,440.01 646.55,427.30 649.04,443.06 651.53,449.34 654.01,464.30 656.50,474.52 658.98,473.47 661.47,457.54 663.95,444.19 666.44,445.96 668.93,419.33 671.41,413.95 673.90,406.71 676.38,396.33 678.87,390.94 681.36,392.71 683.84,381.45 686.33,402.36 688.81,397.05 691.30,404.21 693.79,400.43 696.27,391.02 698.76,395.77 701.24,400.27 703.73,385.31 706.21,383.78 708.70,391.82 711.19,413.54 713.67,429.47 716.16,424.32 718.64,422.55 721.13,422.87 723.62,423.68 726.10,430.35 728.59,421.02 731.07,402.04 733.56,400.03 736.05,423.36 738.53,417.73 741.02,483.61 743.50,472.67 745.99,463.50 748.47,493.42 750.96,492.45 753.45,484.01 755.93,474.52 758.42,429.79 760.90,432.37 763.39,435.18 765.88,405.66 768.36,419.50 770.85,396.97 773.33,407.83 775.82,414.83 778.31,398.42 780.79,407.83 783.28,429.55 785.76,414.99 788.25,438.64 790.73,447.41 793.22,422.23 795.71,440.89 798.19,439.28 800.68,440.33 803.16,448.05 805.65,444.27 808.14,426.98 810.62,428.83 813.11,422.47 815.59,403.97 818.08,396.01 820.56,403.57 823.05,385.07 825.54,398.34 828.02,392.63 830.51,386.11 832.99,393.84 835.48,392.79 837.97,382.82 840.45,400.83 842.94,392.63 845.42,403.25 847.91,398.18 850.40,403.09 852.88,398.98 855.37,413.78 857.85,415.80 860.34,409.04 862.82,402.04 865.31,411.53 867.80,412.98 870.28,410.89 872.77,420.14 875.25,410.57 877.74,417.73 880.23,416.52 882.71,404.53 885.20,396.41 887.68,390.05 890.17,373.73 892.66,388.20 895.14,380.72 897.63,388.69 900.11,388.93 902.60,411.93 905.08,434.22 907.57,496.72 910.06,470.33 912.54,483.77 915.03,485.21 917.51,512.97 920.00,498.73" fill="none" stroke="#60a5fa" stroke-width="2" stroke-linecap="round" stroke-linejoin="round" />
  
  
  </svg>