<svg xmlns="http://www.w3.org/2000/svg" viewBox="0 0 960 720" width="960" height="720">
<rect width="960" height="720" fill="#0f172a" />
<text x="480" y="28" fill="#e2e8f0" font-size="16" font-weight="700" text-anchor="middle">睡眠手腕温度均值趋势图</text>
<text x="70" y="70" fill="#e2e8f0" font-size="13" font-weight="600">本月分天指标明细</text>
<line x1="70" y1="323.00" x2="930" y2="323.00" stroke="#94a3b8" stroke-opacity="0.18" stroke-width="1" />
<text x="62" y="327.00" fill="#cbd5f5" font-size="10" text-anchor="end">34.8</text>
<line x1="70" y1="260.75" x2="930" y2="260.75" stroke="#94a3b8" stroke-opacity="0.18" stroke-width="1" />
<text x="62" y="264.75" fill="#cbd5f5" font-size="10" text-anchor="end">35.1</text>
<line x1="70" y1="198.50" x2="930" y2="198.50" stroke="#94a3b8" stroke-opacity="0.18" stroke-width="1" />
<text x="62" y="202.50" fill="#cbd5f5" font-size="10" text-anchor="end">35.5</text>
<line x1="70" y1="136.25" x2="930" y2="136.25" stroke="#94a3b8" stroke-opacity="0.18" stroke-width="1" />
<text x="62" y="140.25" fill="#cbd5f5" font-size="10" text-anchor="end">35.8</text>
<line x1="70" y1="74.00" x2="930" y2="74.00" stroke="#94a3b8" stroke-opacity="0.18" stroke-width="1" />
<text x="62" y="78.00" fill="#cbd5f5" font-size="10" text-anchor="end">36.1</text>
<line x1="70.00" y1="323" x2="70.00" y2="327" stroke="#94a3b8" stroke-opacity="0.5" stroke-width="1" />
<text x="70.00" y="341" fill="#cbd5f5" font-size="10" text-anchor="middle">11-21</text>
<line x1="242.00" y1="323" x2="242.00" y2="327" stroke="#94a3b8" stroke-opacity="0.5" stroke-width="1" />
<text x="242.00" y="341" fill="#cbd5f5" font-size="10" text-anchor="middle">11-26</text>
<line x1="414.00" y1="323" x2="414.00" y2="327" stroke="#94a3b8" stroke-opacity="0.5" stroke-width="1" />
<text x="414.00" y="341" fill="#cbd5f5" font-size="10" text-anchor="middle">12-02</text>
<line x1="586.00" y1="323" x2="586.00" y2="327" stroke="#94a3b8" stroke-opacity="0.5" stroke-width="1" />
<text x="586.00" y="341" fill="#cbd5f5" font-size="10" text-anchor="middle">12-08</text>
<line x1="758.00" y1="323" x2="758.00" y2="327" stroke="#94a3b8" stroke-opacity="0.5" stroke-width="1" />
<text x="758.00" y="341" fill="#cbd5f5" font-size="10" text-anchor="middle">12-14</text>
<line x1="930.00" y1="323" x2="930.00" y2="327" stroke="#94a3b8" stroke-opacity="0.5" stroke-width="1" />
<text x="930.00" y="341" fill="#cbd5f5" font-size="10" text-anchor="middle">12-20</text>
<line x1="70" y1="74" x2="70" y2="323" stroke="#94a3b8" stroke-width="1" />
<line x1="70" y1="323" x2="930" y2="323" stroke="#94a3b8" stroke-width="1" />
<path d="M70.00,239.22 L99.66,243.60 L129.31,126.61 L158.97,166.45 L188.62,230.61 L218.28,219.18 L247.93,199.39 L277.59,158.73 L307.24,164.53 L336.90,183.14 L366.55,252.86 L396.21,229.94 L425.86,276.02 L455.52,258.54 L485.17,285.73 L514.83,179.81 L544.48,239.78 L574.14,182.38 L603.79,232.83 L633.45,247.45 L663.10,186.61 L722.41,175.93 L752.07,111.27 L781.72,280.98 L811.38,164.75 L841.03,196.92 L870.69,147.70 L900.34,235.40 L930.00,125.60" fill="none" stroke="#60a5fa" stroke-width="2.2" stroke-linecap="round" />
<circle cx="70.00" cy="239.22" r="3" fill="#60a5fa" stroke="#0f172a" stroke-width="1" />
<text x="70.00" y="229.22" fill="#e2e8f0" font-size="9" text-anchor="middle">35.3</text>
<circle cx="99.66" cy="243.60" r="3" fill="#60a5fa" stroke="#0f172a" stroke-width="1" />
<text x="99.66" y="223.60" fill="#e2e8f0" font-size="9" text-anchor="middle">35.2</text>
<circle cx="129.31" cy="126.61" r="3" fill="#60a5fa" stroke="#0f172a" stroke-width="1" />
<text x="129.31" y="116.61" fill="#e2e8f0" font-size="9" text-anchor="middle">35.9</text>
<circle cx="158.97" cy="166.45" r="3" fill="#60a5fa" stroke="#0f172a" stroke-width="1" />
<text x="158.97" y="146.45" fill="#e2e8f0" font-size="9" text-anchor="middle">35.6</text>
<circle cx="188.62" cy="230.61" r="3" fill="#60a5fa" stroke="#0f172a" stroke-width="1" />
<text x="188.62" y="220.61" fill="#e2e8f0" font-size="9" text-anchor="middle">35.3</text>
<circle cx="218.28" cy="219.18" r="3" fill="#60a5fa" stroke="#0f172a" stroke-width="1" />
<text x="218.28" y="199.18" fill="#e2e8f0" font-size="9" text-anchor="middle">35.4</text>
<circle cx="247.93" cy="199.39" r="3" fill="#60a5fa" stroke="#0f172a" stroke-width="1" />
<text x="247.93" y="189.39" fill="#e2e8f0" font-size="9" text-anchor="middle">35.5</text>
<circle cx="277.59" cy="158.73" r="3" fill="#60a5fa" stroke="#0f172a" stroke-width="1" />
<text x="277.59" y="138.73" fill="#e2e8f0" font-size="9" text-anchor="middle">35.7</text>
<circle cx="307.24" cy="164.53" r="3" fill="#60a5fa" stroke="#0f172a" stroke-width="1" />
<text x="307.24" y="154.53" fill="#e2e8f0" font-size="9" text-anchor="middle">35.7</text>
<circle cx="336.90" cy="183.14" r="3" fill="#60a5fa" stroke="#0f172a" stroke-width="1" />
<text x="336.90" y="163.14" fill="#e2e8f0" font-size="9" text-anchor="middle">35.6</text>
<circle cx="366.55" cy="252.86" r="3" fill="#60a5fa" stroke="#0f172a" stroke-width="1" />
<text x="366.55" y="242.86" fill="#e2e8f0" font-size="9" text-anchor="middle">35.2</text>
<circle cx="396.21" cy="229.94" r="3" fill="#60a5fa" stroke="#0f172a" stroke-width="1" />
<text x="396.21" y="209.94" fill="#e2e8f0" font-size="9" text-anchor="middle">35.3</text>
<circle cx="425.86" cy="276.02" r="3" fill="#60a5fa" stroke="#0f172a" stroke-width="1" />
<text x="425.86" y="266.02" fill="#e2e8f0" font-size="9" text-anchor="middle">35.1</text>
<circle cx="455.52" cy="258.54" r="3" fill="#60a5fa" stroke="#0f172a" stroke-width="1" />
<text x="455.52" y="238.54" fill="#e2e8f0" font-size="9" text-anchor="middle">35.1</text>
<circle cx="485.17" cy="285.73" r="3" fill="#60a5fa" stroke="#0f172a" stroke-width="1" />
<text x="485.17" y="275.73" fill="#e2e8f0" font-size="9" text-anchor="middle">35</text>
<circle cx="514.83" cy="179.81" r="3" fill="#60a5fa" stroke="#0f172a" stroke-width="1" />
<text x="514.83" y="159.81" fill="#e2e8f0" font-size="9" text-anchor="middle">35.6</text>
<circle cx="544.48" cy="239.78" r="3" fill="#60a5fa" stroke="#0f172a" stroke-width="1" />
<text x="544.48" y="229.78" fill="#e2e8f0" font-size="9" text-anchor="middle">35.2</text>
<circle cx="574.14" cy="182.38" r="3" fill="#60a5fa" stroke="#0f172a" stroke-width="1" />
<text x="574.14" y="162.38" fill="#e2e8f0" font-size="9" text-anchor="middle">35.6</text>
<circle cx="603.79" cy="232.83" r="3" fill="#60a5fa" stroke="#0f172a" stroke-width="1" />
<text x="603.79" y="222.83" fill="#e2e8f0" font-size="9" text-anchor="middle">35.3</text>
<circle cx="633.45" cy="247.45" r="3" fill="#60a5fa" stroke="#0f172a" stroke-width="1" />
<text x="633.45" y="227.45" fill="#e2e8f0" font-size="9" text-anchor="middle">35.2</text>
<circle cx="663.10" cy="186.61" r="3" fill="#60a5fa" stroke="#0f172a" stroke-width="1" />
<text x="663.10" y="176.61" fill="#e2e8f0" font-size="9" text-anchor="middle">35.5</text>
<circle cx="722.41" cy="175.93" r="3" fill="#60a5fa" stroke="#0f172a" stroke-width="1" />
<text x="722.41" y="155.93" fill="#e2e8f0" font-size="9" text-anchor="middle">35.6</text>
<circle cx="752.07" cy="111.27" r="3" fill="#60a5fa" stroke="#0f172a" stroke-width="1" />
<text x="752.07" y="101.27" fill="#e2e8f0" font-size="9" text-anchor="middle">35.9</text>
<circle cx="781.72" cy="280.98" r="3" fill="#60a5fa" stroke="#0f172a" stroke-width="1" />
<text x="781.72" y="260.98" fill="#e2e8f0" font-size="9" text-anchor="middle">35</text>
<circle cx="811.38" cy="164.75" r="3" fill="#60a5fa" stroke="#0f172a" stroke-width="1" />
<text x="811.38" y="154.75" fill="#e2e8f0" font-size="9" text-anchor="middle">35.7</text>
<circle cx="841.03" cy="196.92" r="3" fill="#60a5fa" stroke="#0f172a" stroke-width="1" />
<text x="841.03" y="176.92" fill="#e2e8f0" font-size="9" text-anchor="middle">35.5</text>
<circle cx="870.69" cy="147.70" r="3" fill="#60a5fa" stroke="#0f172a" stroke-width="1" />
<text x="870.69" y="137.70" fill="#e2e8f0" font-size="9" text-anchor="middle">35.7</text>
<circle cx="900.34" cy="235.40" r="3" fill="#60a5fa" stroke="#0f172a" stroke-width="1" />
<text x="900.34" y="215.40" fill="#e2e8f0" font-size="9" text-anchor="middle">35.3</text>
<circle cx="930.00" cy="125.60" r="3" fill="#60a5fa" stroke="#0f172a" stroke-width="1" />
<text x="930.00" y="115.60" fill="#e2e8f0" font-size="9" text-anchor="middle">35.9</text>
<text x="70" y="403" fill="#e2e8f0" font-size="13" font-weight="600">本年核心指标趋势（滑动7日窗口平均）</text>
<line x1="70" y1="656.00" x2="930" y2="656.00" stroke="#94a3b8" stroke-opacity="0.18" stroke-width="1" />
<text x="62" y="660.00" fill="#cbd5f5" font-size="10" text-anchor="end">34.8</text>
<line x1="70" y1="593.75" x2="930" y2="593.75" stroke="#94a3b8" stroke-opacity="0.18" stroke-width="1" />
<text x="62" y="597.75" fill="#cbd5f5" font-size="10" text-anchor="end">35.1</text>
<line x1="70" y1="531.50" x2="930" y2="531.50" stroke="#94a3b8" stroke-opacity="0.18" stroke-width="1" />
<text x="62" y="535.50" fill="#cbd5f5" font-size="10" text-anchor="end">35.5</text>
<line x1="70" y1="469.25" x2="930" y2="469.25" stroke="#94a3b8" stroke-opacity="0.18" stroke-width="1" />
<text x="62" y="473.25" fill="#cbd5f5" font-size="10" text-anchor="end">35.8</text>
<line x1="70" y1="407.00" x2="930" y2="407.00" stroke="#94a3b8" stroke-opacity="0.18" stroke-width="1" />
<text x="62" y="411.00" fill="#cbd5f5" font-size="10" text-anchor="end">36.2</text>
<line x1="70.00" y1="656" x2="70.00" y2="660" stroke="#94a3b8" stroke-opacity="0.5" stroke-width="1" />
<text x="70.00" y="674" fill="#cbd5f5" font-size="10" text-anchor="middle">2025-02</text>
<line x1="242.00" y1="656" x2="242.00" y2="660" stroke="#94a3b8" stroke-opacity="0.5" stroke-width="1" />
<text x="242.00" y="674" fill="#cbd5f5" font-size="10" text-anchor="middle">2025-04</text>
<line x1="414.00" y1="656" x2="414.00" y2="660" stroke="#94a3b8" stroke-opacity="0.5" stroke-width="1" />
<text x="414.00" y="674" fill="#cbd5f5" font-size="10" text-anchor="middle">2025-06</text>
<line x1="586.00" y1="656" x2="586.00" y2="660" stroke="#94a3b8" stroke-opacity="0.5" stroke-width="1" />
<text x="586.00" y="674" fill="#cbd5f5" font-size="10" text-anchor="middle">2025-08</text>
<line x1="758.00" y1="656" x2="758.00" y2="660" stroke="#94a3b8" stroke-opacity="0.5" stroke-width="1" />
<text x="758.00" y="674" fill="#cbd5f5" font-size="10" text-anchor="middle">2025-10</text>
<line x1="930.00" y1="656" x2="930.00" y2="660" stroke="#94a3b8" stroke-opacity="0.5" stroke-width="1" />
<text x="930.00" y="674" fill="#cbd5f5" font-size="10" text-anchor="middle">2025-12</text>
<line x1="70" y1="407" x2="70" y2="656" stroke="#94a3b8" stroke-width="1" />
<line x1="70" y1="656" x2="930" y2="656" stroke="#94a3b8" stroke-width="1" />
<path d="M70.00,656.00 L70.00,442.94 L72.72,442.04 L75.44,502.56 L78.16,524.71 L80.89,512.43 L83.61,520.65 L86.33,535.56 L91.77,545.42 L94.49,557.23 L97.22,548.66 L99.94,540.70 L102.66,559.10 L105.38,568.31 L108.10,547.99 L110.82,549.69 L113.54,560.95 L116.27,571.52 L118.99,582.10 L121.71,582.58 L124.43,582.16 L127.15,603.94 L129.87,602.76 L132.59,587.08 L135.32,571.12 L138.04,565.66 L140.76,554.16 L143.48,543.51 L146.20,541.83 L151.65,551.37 L154.37,555.23 L157.09,549.50 L159.81,481.86 L162.53,482.29 L165.25,504.47 L167.97,507.86 L170.70,511.84 L173.42,523.60 L176.14,544.72 L178.86,612.09 L181.58,620.96 L184.30,611.54 L187.03,606.01 L189.75,589.74 L192.47,582.09 L195.19,572.61 L197.91,567.29 L200.63,560.51 L203.35,530.85 L206.08,521.35 L208.80,517.32 L211.52,526.91 L214.24,539.86 L219.68,528.84 L222.41,534.18 L225.13,564.15 L227.85,564.73 L230.57,590.87 L233.29,579.59 L236.01,572.79 L238.73,589.64 L241.46,587.43 L244.18,584.99 L246.90,591.18 L249.62,575.74 L252.34,565.34 L255.06,563.31 L257.78,558.20 L260.51,548.04 L263.23,546.77 L265.95,531.36 L268.67,525.56 L271.39,548.22 L274.11,542.06 L276.84,551.91 L279.56,556.49 L282.28,538.25 L285.00,547.91 L287.72,560.53 L290.44,556.20 L295.89,545.18 L298.61,529.39 L301.33,532.54 L304.05,539.59 L306.77,532.48 L309.49,531.79 L312.22,530.84 L314.94,548.49 L317.66,556.03 L320.38,548.87 L323.10,545.02 L325.82,554.35 L328.54,556.67 L331.27,552.84 L333.99,541.17 L336.71,521.95 L339.43,530.69 L342.15,526.91 L344.87,526.36 L347.59,518.28 L350.32,517.78 L353.04,525.80 L355.76,532.28 L358.48,515.97 L361.20,505.96 L363.92,495.67 L366.65,478.72 L372.09,473.83 L377.53,467.04 L380.25,471.87 L382.97,489.79 L388.42,511.98 L391.14,519.70 L393.86,529.77 L396.58,539.63 L399.30,539.59 L402.03,545.79 L404.75,539.34 L407.47,537.49 L410.19,535.94 L412.91,520.70 L415.63,509.86 L418.35,495.34 L421.08,492.80 L423.80,490.26 L426.52,494.29 L429.24,494.20 L431.96,505.19 L434.68,508.51 L437.41,516.36 L440.13,518.03 L442.85,512.43 L445.57,501.19 L448.29,507.16 L451.01,521.75 L453.73,514.43 L456.46,518.39 L459.18,518.11 L461.90,530.11 L464.62,548.03 L467.34,547.09 L470.06,543.76 L472.78,549.44 L475.51,551.04 L478.23,541.77 L480.95,547.53 L483.67,542.35 L486.39,545.85 L489.11,537.44 L491.84,522.96 L494.56,532.86 L497.28,545.46 L500.00,548.04 L502.72,540.23 L505.44,524.09 L508.16,537.70 L510.89,540.81 L513.61,535.80 L516.33,537.25 L519.05,533.28 L521.77,537.32 L524.49,540.97 L527.22,525.85 L529.94,534.02 L532.66,530.52 L535.38,524.57 L538.10,512.41 L540.82,504.76 L543.54,522.95 L546.27,525.65 L548.99,545.71 L551.71,542.05 L554.43,538.66 L557.15,548.18 L559.87,565.36 L562.59,548.38 L565.32,558.32 L568.04,536.56 L570.76,538.11 L573.48,546.17 L576.20,547.44 L578.92,540.71 L581.65,545.25 L584.37,536.05 L587.09,528.50 L589.81,514.66 L592.53,513.86 L595.25,514.24 L600.70,509.27 L606.14,501.28 L630.63,511.73 L633.35,524.81 L636.08,552.14 L638.80,553.65 L644.24,540.55 L646.96,543.96 L649.68,559.50 L652.41,549.64 L655.13,558.79 L657.85,548.84 L660.57,554.74 L663.29,560.36 L666.01,548.16 L668.73,541.58 L671.46,551.14 L674.18,557.00 L676.90,562.29 L679.62,556.22 L682.34,550.00 L685.06,547.65 L687.78,561.27 L690.51,551.92 L693.23,544.53 L695.95,532.66 L698.67,532.97 L701.39,527.32 L704.11,538.71 L706.84,520.68 L709.56,533.50 L712.28,522.90 L715.00,528.92 L717.72,518.57 L720.44,531.40 L723.16,527.90 L725.89,529.36 L728.61,516.02 L731.33,505.70 L736.77,511.55 L739.49,517.65 L742.22,517.32 L744.94,524.68 L747.66,523.63 L750.38,540.42 L753.10,548.34 L755.82,541.13 L758.54,534.31 L761.27,523.87 L763.99,521.49 L766.71,526.39 L769.43,523.63 L772.15,527.57 L774.87,528.41 L777.59,535.97 L780.32,542.34 L783.04,539.01 L785.76,525.14 L788.48,512.03 L791.20,530.89 L793.92,535.92 L796.65,540.40 L799.37,553.93 L802.09,554.89 L804.81,567.14 L807.53,581.84 L810.25,569.33 L815.70,570.15 L818.42,567.72 L821.14,562.34 L823.86,570.23 L826.58,570.30 L829.30,571.42 L832.03,577.35 L834.75,573.98 L837.47,571.99 L840.19,572.60 L842.91,569.58 L845.63,585.28 L848.35,579.87 L851.08,574.44 L853.80,577.95 L856.52,567.64 L859.24,560.47 L861.96,557.44 L864.68,542.23 L867.41,534.87 L870.13,524.06 L872.85,513.44 L875.57,521.03 L878.29,532.64 L881.01,532.55 L883.73,540.18 L886.46,548.12 L889.18,565.18 L891.90,567.23 L894.62,574.84 L897.34,565.37 L900.06,565.76 L902.78,561.92 L905.51,552.26 L910.95,537.52 L913.67,528.31 L916.39,533.85 L919.11,531.48 L921.84,526.66 L924.56,513.26 L927.28,519.81 L930.00,513.05 L930.00,656.00 Z" fill="#60a5fa" fill-opacity="0.16" stroke="none" />
<path d="M70.00,442.94 L72.72,442.04 L75.44,502.56 L78.16,524.71 L80.89,512.43 L83.61,520.65 L86.33,535.56 L91.77,545.42 L94.49,557.23 L97.22,548.66 L99.94,540.70 L102.66,559.10 L105.38,568.31 L108.10,547.99 L110.82,549.69 L113.54,560.95 L116.27,571.52 L118.99,582.10 L121.71,582.58 L124.43,582.16 L127.15,603.94 L129.87,602.76 L132.59,587.08 L135.32,571.12 L138.04,565.66 L140.76,554.16 L143.48,543.51 L146.20,541.83 L151.65,551.37 L154.37,555.23 L157.09,549.50 L159.81,481.86 L162.53,482.29 L165.25,504.47 L167.97,507.86 L170.70,511.84 L173.42,523.60 L176.14,544.72 L178.86,612.09 L181.58,620.96 L184.30,611.54 L187.03,606.01 L189.75,589.74 L192.47,582.09 L195.19,572.61 L197.91,567.29 L200.63,560.51 L203.35,530.85 L206.08,521.35 L208.80,517.32 L211.52,526.91 L214.24,539.86 L219.68,528.84 L222.41,534.18 L225.13,564.15 L227.85,564.73 L230.57,590.87 L233.29,579.59 L236.01,572.79 L238.73,589.64 L241.46,587.43 L244.18,584.99 L246.90,591.18 L249.62,575.74 L252.34,565.34 L255.06,563.31 L257.78,558.20 L260.51,548.04 L263.23,546.77 L265.95,531.36 L268.67,525.56 L271.39,548.22 L274.11,542.06 L276.84,551.91 L279.56,556.49 L282.28,538.25 L285.00,547.91 L287.72,560.53 L290.44,556.20 L295.89,545.18 L298.61,529.39 L301.33,532.54 L304.05,539.59 L306.77,532.48 L309.49,531.79 L312.22,530.84 L314.94,548.49 L317.66,556.03 L320.38,548.87 L323.10,545.02 L325.82,554.35 L328.54,556.67 L331.27,552.84 L333.99,541.17 L336.71,521.95 L339.43,530.69 L342.15,526.91 L344.87,526.36 L347.59,518.28 L350.32,517.78 L353.04,525.80 L355.76,532.28 L358.48,515.97 L361.20,505.96 L363.92,495.67 L366.65,478.72 L372.09,473.83 L377.53,467.04 L380.25,471.87 L382.97,489.79 L388.42,511.98 L391.14,519.70 L393.86,529.77 L396.58,539.63 L399.30,539.59 L402.03,545.79 L404.75,539.34 L407.47,537.49 L410.19,535.94 L412.91,520.70 L415.63,509.86 L418.35,495.34 L421.08,492.80 L423.80,490.26 L426.52,494.29 L429.24,494.20 L431.96,505.19 L434.68,508.51 L437.41,516.36 L440.13,518.03 L442.85,512.43 L445.57,501.19 L448.29,507.16 L451.01,521.75 L453.73,514.43 L456.46,518.39 L459.18,518.11 L461.90,530.11 L464.62,548.03 L467.34,547.09 L470.06,543.76 L472.78,549.44 L475.51,551.04 L478.23,541.77 L480.95,547.53 L483.67,542.35 L486.39,545.85 L489.11,537.44 L491.84,522.96 L494.56,532.86 L497.28,545.46 L500.00,548.04 L502.72,540.23 L505.44,524.09 L508.16,537.70 L510.89,540.81 L513.61,535.80 L516.33,537.25 L519.05,533.28 L521.77,537.32 L524.49,540.97 L527.22,525.85 L529.94,534.02 L532.66,530.52 L535.38,524.57 L538.10,512.41 L540.82,504.76 L543.54,522.95 L546.27,525.65 L548.99,545.71 L551.71,542.05 L554.43,538.66 L557.15,548.18 L559.87,565.36 L562.59,548.38 L565.32,558.32 L568.04,536.56 L570.76,538.11 L573.48,546.17 L576.20,547.44 L578.92,540.71 L581.65,545.25 L584.37,536.05 L587.09,528.50 L589.81,514.66 L592.53,513.86 L595.25,514.24 L600.70,509.27 L606.14,501.28 L630.63,511.73 L633.35,524.81 L636.08,552.14 L638.80,553.65 L644.24,540.55 L646.96,543.96 L649.68,559.50 L652.41,549.64 L655.13,558.79 L657.85,548.84 L660.57,554.74 L663.29,560.36 L666.01,548.16 L668.73,541.58 L671.46,551.14 L674.18,557.00 L676.90,562.29 L679.62,556.22 L682.34,550.00 L685.06,547.65 L687.78,561.27 L690.51,551.92 L693.23,544.53 L695.95,532.66 L698.67,532.97 L701.39,527.32 L704.11,538.71 L706.84,520.68 L709.56,533.50 L712.28,522.90 L715.00,528.92 L717.72,518.57 L720.44,531.40 L723.16,527.90 L725.89,529.36 L728.61,516.02 L731.33,505.70 L736.77,511.55 L739.49,517.65 L742.22,517.32 L744.94,524.68 L747.66,523.63 L750.38,540.42 L753.10,548.34 L755.82,541.13 L758.54,534.31 L761.27,523.87 L763.99,521.49 L766.71,526.39 L769.43,523.63 L772.15,527.57 L774.87,528.41 L777.59,535.97 L780.32,542.34 L783.04,539.01 L785.76,525.14 L788.48,512.03 L791.20,530.89 L793.92,535.92 L796.65,540.40 L799.37,553.93 L802.09,554.89 L804.81,567.14 L807.53,581.84 L810.25,569.33 L815.70,570.15 L818.42,567.72 L821.14,562.34 L823.86,570.23 L826.58,570.30 L829.30,571.42 L832.03,577.35 L834.75,573.98 L837.47,571.99 L840.19,572.60 L842.91,569.58 L845.63,585.28 L848.35,579.87 L851.08,574.44 L853.80,577.95 L856.52,567.64 L859.24,560.47 L861.96,557.44 L864.68,542.23 L867.41,534.87 L870.13,524.06 L872.85,513.44 L875.57,521.03 L878.29,532.64 L881.01,532.55 L883.73,540.18 L886.46,548.12 L889.18,565.18 L891.90,567.23 L894.62,574.84 L897.34,565.37 L900.06,565.76 L902.78,561.92 L905.51,552.26 L910.95,537.52 L913.67,528.31 L916.39,533.85 L919.11,531.48 L921.84,526.66 L924.56,513.26 L927.28,519.81 L930.00,513.05" fill="none" stroke="#60a5fa" stroke-width="2.2" stroke-linecap="round" />
</svg>
