<svg xmlns="http://www.w3.org/2000/svg" viewBox="0 0 960 640" width="960" height="640">
  <rect width="960" height="640" fill="#0f172a" />
  <line x1="40" y1="40.00" x2="920.00" y2="40.00" stroke="#94a3b8" stroke-opacity="0.18" stroke-width="1" /><line x1="40" y1="128.00" x2="920.00" y2="128.00" stroke="#94a3b8" stroke-opacity="0.18" stroke-width="1" /><line x1="40" y1="216.00" x2="920.00" y2="216.00" stroke="#94a3b8" stroke-opacity="0.18" stroke-width="1" /><line x1="40" y1="304.00" x2="920.00" y2="304.00" stroke="#94a3b8" stroke-opacity="0.18" stroke-width="1" />
  <line x1="40" y1="336.00" x2="920.00" y2="336.00" stroke="#94a3b8" stroke-opacity="0.18" stroke-width="1" /><line x1="40" y1="424.00" x2="920.00" y2="424.00" stroke="#94a3b8" stroke-opacity="0.18" stroke-width="1" /><line x1="40" y1="512.00" x2="920.00" y2="512.00" stroke="#94a3b8" stroke-opacity="0.18" stroke-width="1" /><line x1="40" y1="600.00" x2="920.00" y2="600.00" stroke="#94a3b8" stroke-opacity="0.18" stroke-width="1" />
  <line x1="40" y1="320.00" x2="920.00" y2="320.00" stroke="#1f2937" stroke-width="1" />
  <polyline points="40.00,134.82 70.34,109.17 100.69,192.34 131.03,159.18 161.38,115.65 191.72,64.09 222.07,109.17 252.41,106.32 282.76,173.68 313.10,157.10 343.45,40.00 373.79,161.25 404.14,171.09 434.48,149.85 464.83,149.33 495.17,102.44 525.52,183.53 555.86,176.27 586.21,159.69 616.55,139.23 646.90,96.22 677.24,87.67 707.59,154.51 737.93,171.61 768.28,304.00 798.62,123.42 828.97,230.16 859.31,150.89 889.66,155.81 920.00,148.55" fill="none" stroke="#60a5fa" stroke-width="2" stroke-linecap="round" stroke-linejoin="round" />
  <polyline points="40.00,485.42 42.52,489.77 45.04,497.39 47.56,535.98 50.09,497.59 52.61,536.08 55.13,525.89 57.65,523.91 60.17,551.02 62.69,545.48 65.21,600.00 67.74,545.38 70.26,506.89 72.78,492.14 75.30,496.40 77.82,460.68 80.34,417.14 82.87,336.00 85.39,424.76 87.91,423.08 90.43,432.48 92.95,454.05 95.47,460.28 97.99,497.69 100.52,530.73 103.04,493.63 105.56,554.38 108.08,536.87 110.60,515.99 113.12,512.82 115.64,515.74 118.17,526.53 120.69,511.59 123.21,513.07 125.73,503.52 128.25,499.66 130.77,495.71 133.30,499.32 135.82,484.08 138.34,501.40 140.86,490.36 143.38,488.19 145.90,484.33 148.42,498.13 150.95,504.22 153.47,523.21 155.99,515.84 158.51,516.88 161.03,520.74 163.55,520.49 166.07,509.16 168.60,505.45 171.12,484.97 173.64,478.93 176.16,481.80 178.68,486.70 181.20,486.80 183.72,492.89 186.25,498.67 188.77,505.90 191.29,508.87 193.81,503.77 196.33,501.40 198.85,505.01 201.38,499.66 203.90,475.27 206.42,478.69 208.94,476.26 211.46,483.24 213.98,486.06 216.50,483.04 219.03,485.17 221.55,501.20 224.07,505.60 226.59,512.08 229.11,514.56 231.63,499.42 234.15,510.15 236.68,505.90 239.20,509.21 241.72,503.37 244.24,499.71 246.76,485.96 249.28,501.59 251.81,504.71 254.33,506.24 256.85,491.70 259.37,492.89 261.89,498.28 264.41,512.78 266.93,514.70 269.46,503.92 271.98,503.82 274.50,507.09 277.02,507.33 279.54,509.76 282.06,505.50 284.58,507.68 287.11,507.33 289.63,504.02 292.15,510.55 294.67,510.70 297.19,511.69 299.71,513.86 302.23,501.89 304.76,504.36 307.28,508.52 309.80,495.56 312.32,497.29 314.84,496.10 317.36,492.89 319.89,492.69 322.41,492.19 324.93,491.55 327.45,506.89 329.97,491.15 332.49,488.43 335.01,479.43 337.54,483.78 340.06,483.34 342.58,479.48 345.10,478.54 347.62,486.06 350.14,490.21 352.66,496.65 355.19,513.62 357.71,510.45 360.23,520.64 362.75,518.12 365.27,526.73 367.79,522.03 370.32,515.00 372.84,499.91 375.36,501.45 377.88,491.90 380.40,495.66 382.92,489.47 385.44,493.18 387.97,510.25 390.49,506.10 393.01,502.73 395.53,503.57 398.05,506.10 400.57,503.33 403.09,501.64 405.62,486.40 408.14,487.15 410.66,492.64 413.18,493.88 415.70,497.49 418.22,508.32 420.74,530.83 423.27,539.64 425.79,563.98 428.31,560.96 430.83,563.39 433.35,536.52 435.87,540.04 438.40,505.35 440.92,501.05 443.44,475.87 445.96,472.50 448.48,465.13 451.00,479.23 453.52,479.82 456.05,490.07 458.57,488.53 461.09,491.65 463.61,495.71 466.13,508.87 468.65,525.34 471.17,520.59 473.70,537.27 476.22,537.17 478.74,529.10 481.26,529.60 483.78,531.77 486.30,516.78 488.83,514.85 491.35,494.57 493.87,502.04 496.39,501.00 498.91,499.47 501.43,489.18 503.95,484.72 506.48,495.76 509.00,493.68 511.52,489.97 514.04,501.15 516.56,507.88 519.08,504.02 521.60,506.19 524.13,499.81 526.65,496.55 529.17,490.07 531.69,485.32 534.21,477.99 536.73,484.92 539.26,500.21 541.78,500.46 544.30,515.45 546.82,526.38 549.34,526.08 551.86,529.25 554.38,524.65 556.91,512.58 559.43,497.44 561.95,502.78 564.47,506.84 566.99,492.84 569.51,493.97 572.03,503.42 574.56,506.10 577.08,508.57 579.60,500.95 582.12,486.21 584.64,501.84 587.16,498.82 589.68,492.14 592.21,481.90 594.73,478.74 597.25,473.99 599.77,473.49 602.29,473.00 604.81,473.29 607.34,479.97 609.86,495.16 612.38,514.21 614.90,510.40 617.42,513.47 619.94,504.22 622.46,503.67 624.99,501.49 627.51,490.76 630.03,503.33 632.55,522.32 635.07,525.04 637.59,539.29 640.11,576.50 642.64,572.74 645.16,588.42 647.68,596.64 650.20,575.96 652.72,576.80 655.24,562.30 657.77,535.29 660.29,536.33 662.81,518.22 665.33,474.53 667.85,475.12 670.37,463.70 672.89,464.24 675.42,456.03 677.94,450.58 680.46,463.00 682.98,466.02 685.50,479.03 688.02,486.90 690.54,491.01 693.07,495.11 695.59,492.54 698.11,484.33 700.63,488.63 703.15,482.89 705.67,490.02 708.19,494.52 710.72,494.12 713.24,507.18 715.76,521.58 718.28,523.96 720.80,526.53 723.32,519.01 725.85,511.79 728.37,503.13 730.89,495.46 733.41,472.01 735.93,474.18 738.45,473.05 740.97,481.70 743.50,503.47 746.02,548.20 748.54,546.02 751.06,561.41 753.58,556.07 756.10,549.68 758.62,548.55 761.15,533.65 763.67,490.46 766.19,498.23 768.71,490.07 771.23,487.20 773.75,479.03 776.28,468.40 778.80,468.30 781.32,472.55 783.84,459.29 786.36,457.71 788.88,462.36 791.40,472.40 793.93,484.62 796.45,485.51 798.97,482.74 801.49,497.19 804.01,504.61 806.53,500.01 809.05,507.43 811.58,507.38 814.10,491.95 816.62,496.00 819.14,498.87 821.66,493.43 824.18,498.13 826.70,497.19 829.23,497.54 831.75,512.78 834.27,514.06 836.79,505.40 839.31,493.63 841.83,496.20 844.36,499.81 846.88,492.14 849.40,482.10 851.92,483.34 854.44,481.95 856.96,486.11 859.48,471.51 862.01,457.07 864.53,451.62 867.05,463.94 869.57,457.21 872.09,434.46 874.61,443.16 877.13,463.60 879.66,471.36 882.18,479.58 884.70,465.97 887.22,471.02 889.74,497.04 892.26,496.75 894.79,490.66 897.31,480.42 899.83,468.64 902.35,478.59 904.87,476.31 907.39,500.70 909.91,493.78 912.44,511.14 914.96,521.58 917.48,534.59 920.00,533.46" fill="none" stroke="#60a5fa" stroke-width="2" stroke-linecap="round" stroke-linejoin="round" />
  
  
  </svg>