<svg xmlns="http://www.w3.org/2000/svg" viewBox="0 0 960 720" width="960" height="720">
<rect width="960" height="720" fill="#0f172a" />
<text x="480" y="28" fill="#e2e8f0" font-size="16" font-weight="700" text-anchor="middle">起床时间趋势图</text>
<text x="70" y="70" fill="#e2e8f0" font-size="13" font-weight="600">本月分天指标明细</text>
<line x1="70" y1="323.00" x2="930" y2="323.00" stroke="#94a3b8" stroke-opacity="0.18" stroke-width="1" />
<text x="62" y="327.00" fill="#cbd5f5" font-size="10" text-anchor="end">04:21</text>
<line x1="70" y1="260.75" x2="930" y2="260.75" stroke="#94a3b8" stroke-opacity="0.18" stroke-width="1" />
<text x="62" y="264.75" fill="#cbd5f5" font-size="10" text-anchor="end">07:45</text>
<line x1="70" y1="198.50" x2="930" y2="198.50" stroke="#94a3b8" stroke-opacity="0.18" stroke-width="1" />
<text x="62" y="202.50" fill="#cbd5f5" font-size="10" text-anchor="end">11:08</text>
<line x1="70" y1="136.25" x2="930" y2="136.25" stroke="#94a3b8" stroke-opacity="0.18" stroke-width="1" />
<text x="62" y="140.25" fill="#cbd5f5" font-size="10" text-anchor="end">14:31</text>
<line x1="70" y1="74.00" x2="930" y2="74.00" stroke="#94a3b8" stroke-opacity="0.18" stroke-width="1" />
<text x="62" y="78.00" fill="#cbd5f5" font-size="10" text-anchor="end">17:55</text>
<line x1="70.00" y1="323" x2="70.00" y2="327" stroke="#94a3b8" stroke-opacity="0.5" stroke-width="1" />
<text x="70.00" y="341" fill="#cbd5f5" font-size="10" text-anchor="middle">11-19</text>
<line x1="242.00" y1="323" x2="242.00" y2="327" stroke="#94a3b8" stroke-opacity="0.5" stroke-width="1" />
<text x="242.00" y="341" fill="#cbd5f5" font-size="10" text-anchor="middle">11-24</text>
<line x1="414.00" y1="323" x2="414.00" y2="327" stroke="#94a3b8" stroke-opacity="0.5" stroke-width="1" />
<text x="414.00" y="341" fill="#cbd5f5" font-size="10" text-anchor="middle">11-30</text>
<line x1="586.00" y1="323" x2="586.00" y2="327" stroke="#94a3b8" stroke-opacity="0.5" stroke-width="1" />
<text x="586.00" y="341" fill="#cbd5f5" font-size="10" text-anchor="middle">12-06</text>
<line x1="758.00" y1="323" x2="758.00" y2="327" stroke="#94a3b8" stroke-opacity="0.5" stroke-width="1" />
<text x="758.00" y="341" fill="#cbd5f5" font-size="10" text-anchor="middle">12-12</text>
<line x1="930.00" y1="323" x2="930.00" y2="327" stroke="#94a3b8" stroke-opacity="0.5" stroke-width="1" />
<text x="930.00" y="341" fill="#cbd5f5" font-size="10" text-anchor="middle">12-18</text>
<line x1="70" y1="74" x2="70" y2="323" stroke="#94a3b8" stroke-width="1" />
<line x1="70" y1="323" x2="930" y2="323" stroke="#94a3b8" stroke-width="1" />
<path d="M70.00,257.57 L99.66,248.08 L129.31,277.77 L158.97,260.02 L188.62,208.29 L218.28,240.12 L247.93,256.65 L277.59,259.40 L307.24,262.77 L336.90,272.56 L366.55,269.20 L396.21,298.58 L425.86,272.26 L455.52,253.28 L485.17,253.59 L514.83,251.75 L544.48,274.40 L574.14,263.38 L603.79,259.71 L633.45,265.22 L663.10,260.63 L692.76,255.12 L722.41,260.32 L752.07,270.12 L781.72,94.75 L811.38,242.57 L841.03,302.25 L870.69,260.63 L900.34,268.58 L930.00,258.79" fill="none" stroke="#60a5fa" stroke-width="2.2" stroke-linecap="round" />
<circle cx="70.00" cy="257.57" r="3" fill="#60a5fa" stroke="#0f172a" stroke-width="1" />
<text x="70.00" y="247.57" fill="#e2e8f0" font-size="9" text-anchor="middle">07:55</text>
<circle cx="99.66" cy="248.08" r="3" fill="#60a5fa" stroke="#0f172a" stroke-width="1" />
<text x="99.66" y="228.08" fill="#e2e8f0" font-size="9" text-anchor="middle">08:26</text>
<circle cx="129.31" cy="277.77" r="3" fill="#60a5fa" stroke="#0f172a" stroke-width="1" />
<text x="129.31" y="267.77" fill="#e2e8f0" font-size="9" text-anchor="middle">06:49</text>
<circle cx="158.97" cy="260.02" r="3" fill="#60a5fa" stroke="#0f172a" stroke-width="1" />
<text x="158.97" y="240.02" fill="#e2e8f0" font-size="9" text-anchor="middle">07:47</text>
<circle cx="188.62" cy="208.29" r="3" fill="#60a5fa" stroke="#0f172a" stroke-width="1" />
<text x="188.62" y="198.29" fill="#e2e8f0" font-size="9" text-anchor="middle">10:36</text>
<circle cx="218.28" cy="240.12" r="3" fill="#60a5fa" stroke="#0f172a" stroke-width="1" />
<text x="218.28" y="220.12" fill="#e2e8f0" font-size="9" text-anchor="middle">08:52</text>
<circle cx="247.93" cy="256.65" r="3" fill="#60a5fa" stroke="#0f172a" stroke-width="1" />
<text x="247.93" y="246.65" fill="#e2e8f0" font-size="9" text-anchor="middle">07:58</text>
<circle cx="277.59" cy="259.40" r="3" fill="#60a5fa" stroke="#0f172a" stroke-width="1" />
<text x="277.59" y="239.40" fill="#e2e8f0" font-size="9" text-anchor="middle">07:49</text>
<circle cx="307.24" cy="262.77" r="3" fill="#60a5fa" stroke="#0f172a" stroke-width="1" />
<text x="307.24" y="252.77" fill="#e2e8f0" font-size="9" text-anchor="middle">07:38</text>
<circle cx="336.90" cy="272.56" r="3" fill="#60a5fa" stroke="#0f172a" stroke-width="1" />
<text x="336.90" y="252.56" fill="#e2e8f0" font-size="9" text-anchor="middle">07:06</text>
<circle cx="366.55" cy="269.20" r="3" fill="#60a5fa" stroke="#0f172a" stroke-width="1" />
<text x="366.55" y="259.20" fill="#e2e8f0" font-size="9" text-anchor="middle">07:17</text>
<circle cx="396.21" cy="298.58" r="3" fill="#60a5fa" stroke="#0f172a" stroke-width="1" />
<text x="396.21" y="278.58" fill="#e2e8f0" font-size="9" text-anchor="middle">05:41</text>
<circle cx="425.86" cy="272.26" r="3" fill="#60a5fa" stroke="#0f172a" stroke-width="1" />
<text x="425.86" y="262.26" fill="#e2e8f0" font-size="9" text-anchor="middle">07:07</text>
<circle cx="455.52" cy="253.28" r="3" fill="#60a5fa" stroke="#0f172a" stroke-width="1" />
<text x="455.52" y="233.28" fill="#e2e8f0" font-size="9" text-anchor="middle">08:09</text>
<circle cx="485.17" cy="253.59" r="3" fill="#60a5fa" stroke="#0f172a" stroke-width="1" />
<text x="485.17" y="243.59" fill="#e2e8f0" font-size="9" text-anchor="middle">08:08</text>
<circle cx="514.83" cy="251.75" r="3" fill="#60a5fa" stroke="#0f172a" stroke-width="1" />
<text x="514.83" y="231.75" fill="#e2e8f0" font-size="9" text-anchor="middle">08:14</text>
<circle cx="544.48" cy="274.40" r="3" fill="#60a5fa" stroke="#0f172a" stroke-width="1" />
<text x="544.48" y="264.40" fill="#e2e8f0" font-size="9" text-anchor="middle">07:00</text>
<circle cx="574.14" cy="263.38" r="3" fill="#60a5fa" stroke="#0f172a" stroke-width="1" />
<text x="574.14" y="243.38" fill="#e2e8f0" font-size="9" text-anchor="middle">07:36</text>
<circle cx="603.79" cy="259.71" r="3" fill="#60a5fa" stroke="#0f172a" stroke-width="1" />
<text x="603.79" y="249.71" fill="#e2e8f0" font-size="9" text-anchor="middle">07:48</text>
<circle cx="633.45" cy="265.22" r="3" fill="#60a5fa" stroke="#0f172a" stroke-width="1" />
<text x="633.45" y="245.22" fill="#e2e8f0" font-size="9" text-anchor="middle">07:30</text>
<circle cx="663.10" cy="260.63" r="3" fill="#60a5fa" stroke="#0f172a" stroke-width="1" />
<text x="663.10" y="250.63" fill="#e2e8f0" font-size="9" text-anchor="middle">07:45</text>
<circle cx="692.76" cy="255.12" r="3" fill="#60a5fa" stroke="#0f172a" stroke-width="1" />
<text x="692.76" y="235.12" fill="#e2e8f0" font-size="9" text-anchor="middle">08:03</text>
<circle cx="722.41" cy="260.32" r="3" fill="#60a5fa" stroke="#0f172a" stroke-width="1" />
<text x="722.41" y="250.32" fill="#e2e8f0" font-size="9" text-anchor="middle">07:46</text>
<circle cx="752.07" cy="270.12" r="3" fill="#60a5fa" stroke="#0f172a" stroke-width="1" />
<text x="752.07" y="250.12" fill="#e2e8f0" font-size="9" text-anchor="middle">07:14</text>
<circle cx="781.72" cy="94.75" r="3" fill="#60a5fa" stroke="#0f172a" stroke-width="1" />
<text x="781.72" y="84.75" fill="#e2e8f0" font-size="9" text-anchor="middle">16:47</text>
<circle cx="811.38" cy="242.57" r="3" fill="#60a5fa" stroke="#0f172a" stroke-width="1" />
<text x="811.38" y="222.57" fill="#e2e8f0" font-size="9" text-anchor="middle">08:44</text>
<circle cx="841.03" cy="302.25" r="3" fill="#60a5fa" stroke="#0f172a" stroke-width="1" />
<text x="841.03" y="292.25" fill="#e2e8f0" font-size="9" text-anchor="middle">05:29</text>
<circle cx="870.69" cy="260.63" r="3" fill="#60a5fa" stroke="#0f172a" stroke-width="1" />
<text x="870.69" y="240.63" fill="#e2e8f0" font-size="9" text-anchor="middle">07:45</text>
<circle cx="900.34" cy="268.58" r="3" fill="#60a5fa" stroke="#0f172a" stroke-width="1" />
<text x="900.34" y="258.58" fill="#e2e8f0" font-size="9" text-anchor="middle">07:19</text>
<circle cx="930.00" cy="258.79" r="3" fill="#60a5fa" stroke="#0f172a" stroke-width="1" />
<text x="930.00" y="238.79" fill="#e2e8f0" font-size="9" text-anchor="middle">07:51</text>
<text x="70" y="403" fill="#e2e8f0" font-size="13" font-weight="600">本年核心指标趋势（滑动7日窗口平均）</text>
<line x1="70" y1="656.00" x2="930" y2="656.00" stroke="#94a3b8" stroke-opacity="0.18" stroke-width="1" />
<text x="62" y="660.00" fill="#cbd5f5" font-size="10" text-anchor="end">05:55</text>
<line x1="70" y1="593.75" x2="930" y2="593.75" stroke="#94a3b8" stroke-opacity="0.18" stroke-width="1" />
<text x="62" y="597.75" fill="#cbd5f5" font-size="10" text-anchor="end">06:51</text>
<line x1="70" y1="531.50" x2="930" y2="531.50" stroke="#94a3b8" stroke-opacity="0.18" stroke-width="1" />
<text x="62" y="535.50" fill="#cbd5f5" font-size="10" text-anchor="end">07:46</text>
<line x1="70" y1="469.25" x2="930" y2="469.25" stroke="#94a3b8" stroke-opacity="0.18" stroke-width="1" />
<text x="62" y="473.25" fill="#cbd5f5" font-size="10" text-anchor="end">08:42</text>
<line x1="70" y1="407.00" x2="930" y2="407.00" stroke="#94a3b8" stroke-opacity="0.18" stroke-width="1" />
<text x="62" y="411.00" fill="#cbd5f5" font-size="10" text-anchor="end">09:37</text>
<line x1="70.00" y1="656" x2="70.00" y2="660" stroke="#94a3b8" stroke-opacity="0.5" stroke-width="1" />
<text x="70.00" y="674" fill="#cbd5f5" font-size="10" text-anchor="middle">2025-01</text>
<line x1="242.00" y1="656" x2="242.00" y2="660" stroke="#94a3b8" stroke-opacity="0.5" stroke-width="1" />
<text x="242.00" y="674" fill="#cbd5f5" font-size="10" text-anchor="middle">2025-03</text>
<line x1="414.00" y1="656" x2="414.00" y2="660" stroke="#94a3b8" stroke-opacity="0.5" stroke-width="1" />
<text x="414.00" y="674" fill="#cbd5f5" font-size="10" text-anchor="middle">2025-06</text>
<line x1="586.00" y1="656" x2="586.00" y2="660" stroke="#94a3b8" stroke-opacity="0.5" stroke-width="1" />
<text x="586.00" y="674" fill="#cbd5f5" font-size="10" text-anchor="middle">2025-08</text>
<line x1="758.00" y1="656" x2="758.00" y2="660" stroke="#94a3b8" stroke-opacity="0.5" stroke-width="1" />
<text x="758.00" y="674" fill="#cbd5f5" font-size="10" text-anchor="middle">2025-10</text>
<line x1="930.00" y1="656" x2="930.00" y2="660" stroke="#94a3b8" stroke-opacity="0.5" stroke-width="1" />
<text x="930.00" y="674" fill="#cbd5f5" font-size="10" text-anchor="middle">2025-12</text>
<line x1="70" y1="407" x2="70" y2="656" stroke="#94a3b8" stroke-width="1" />
<line x1="70" y1="656" x2="930" y2="656" stroke="#94a3b8" stroke-width="1" />
<path d="M70.00,656.00 L70.00,587.58 L72.62,577.49 L75.24,622.35 L77.87,608.61 L80.49,608.44 L83.11,586.65 L85.73,578.29 L88.35,569.15 L90.98,568.83 L93.60,555.53 L96.22,554.09 L98.84,530.70 L101.46,539.03 L104.09,545.12 L106.71,554.73 L109.33,569.64 L111.95,572.36 L114.57,571.56 L117.20,574.76 L119.82,573.16 L122.44,568.03 L125.06,563.07 L127.68,546.72 L130.30,519.16 L132.93,505.38 L135.55,516.44 L138.17,527.17 L140.79,525.41 L143.41,528.46 L146.04,531.82 L148.66,539.03 L151.28,544.80 L153.90,544.48 L156.52,541.59 L159.15,551.05 L161.77,550.09 L164.39,527.65 L167.01,535.99 L169.63,567.71 L172.26,569.15 L174.88,565.31 L177.50,559.06 L180.12,559.38 L182.74,553.77 L185.37,553.61 L187.99,523.65 L190.61,522.85 L193.23,524.29 L195.85,526.05 L198.48,520.92 L201.10,552.65 L203.72,552.33 L206.34,558.58 L208.96,555.05 L211.59,565.31 L214.21,581.49 L216.83,589.50 L219.45,587.90 L222.07,592.39 L224.70,588.70 L227.32,595.43 L229.94,583.90 L232.56,567.87 L235.18,563.39 L237.80,561.14 L240.43,551.85 L243.05,552.97 L245.67,550.57 L248.29,555.86 L250.91,562.10 L253.54,570.28 L256.16,571.72 L258.78,582.93 L261.40,585.66 L264.02,585.98 L266.65,584.22 L269.27,578.77 L271.89,570.44 L274.51,566.27 L277.13,560.02 L279.76,560.02 L282.38,561.78 L285.00,558.26 L287.62,560.34 L290.24,560.98 L292.87,567.23 L295.49,554.89 L298.11,553.77 L300.73,543.04 L303.35,544.64 L305.98,543.84 L308.60,531.34 L311.22,523.97 L313.84,526.85 L316.46,532.62 L319.09,534.22 L321.71,536.63 L324.33,497.05 L326.95,501.38 L329.57,508.75 L332.20,528.94 L334.82,535.83 L337.44,537.59 L340.06,536.95 L342.68,572.52 L345.30,574.12 L347.93,576.85 L350.55,563.71 L353.17,552.17 L355.79,564.99 L358.41,562.10 L361.04,561.62 L363.66,562.58 L366.28,548.64 L368.90,544.80 L371.52,539.83 L374.15,532.46 L376.77,530.86 L379.39,533.42 L382.01,536.15 L384.63,496.25 L387.26,487.44 L389.88,524.29 L392.50,524.13 L395.12,529.26 L397.74,522.05 L400.37,519.96 L402.99,515.00 L405.61,521.57 L408.23,485.99 L410.85,481.51 L413.48,473.18 L416.10,479.42 L418.72,473.34 L421.34,519.16 L423.96,525.89 L426.59,530.54 L429.21,525.73 L431.83,538.39 L434.45,534.06 L437.07,548.00 L439.70,549.61 L442.32,538.07 L444.94,527.17 L447.56,526.69 L450.18,508.91 L452.80,514.36 L455.43,501.22 L458.05,500.74 L460.67,510.03 L463.29,516.44 L465.91,537.11 L468.54,542.24 L471.16,537.27 L473.78,546.08 L476.40,537.11 L479.02,540.95 L481.65,541.43 L484.27,526.05 L486.89,535.67 L489.51,538.39 L492.13,543.52 L494.76,562.58 L497.38,575.88 L500.00,572.68 L502.62,578.29 L505.24,575.56 L507.87,576.36 L510.49,576.20 L513.11,579.73 L515.73,571.56 L518.35,582.77 L520.98,590.95 L523.60,598.32 L526.22,601.68 L528.84,593.99 L531.46,591.59 L534.09,593.19 L536.71,596.39 L539.33,594.15 L541.95,576.69 L544.57,573.16 L547.20,584.22 L549.82,583.25 L552.44,592.55 L555.06,586.62 L557.68,564.51 L560.30,572.20 L562.93,570.28 L565.55,562.75 L568.17,527.17 L570.79,499.93 L573.41,494.65 L576.04,508.11 L578.66,509.23 L581.28,510.67 L583.90,518.84 L586.52,552.49 L589.15,572.20 L591.77,571.88 L594.39,564.03 L597.01,559.22 L599.63,562.42 L602.26,562.75 L604.88,542.56 L607.50,580.69 L610.12,588.70 L612.74,591.27 L615.37,602.16 L620.61,602.16 L623.23,602.00 L649.45,607.93 L652.07,558.74 L654.70,558.26 L657.32,577.33 L659.94,566.43 L662.56,563.23 L665.18,544.64 L667.80,546.40 L670.43,538.07 L673.05,533.90 L675.67,524.29 L678.29,531.18 L680.91,522.37 L683.54,529.26 L686.16,540.95 L688.78,541.92 L691.40,541.11 L694.02,545.28 L696.65,534.06 L699.27,548.16 L701.89,548.48 L704.51,551.69 L707.13,563.55 L709.76,565.79 L712.38,566.75 L715.00,581.65 L717.62,588.22 L720.24,579.57 L722.87,578.13 L725.49,581.97 L728.11,540.31 L730.73,525.89 L733.35,522.37 L735.98,507.63 L738.60,522.37 L741.22,526.21 L743.84,514.36 L746.46,558.42 L751.71,561.14 L754.33,558.42 L756.95,552.49 L759.57,538.71 L762.20,530.06 L764.82,533.26 L767.44,522.37 L770.06,531.66 L772.68,529.26 L775.30,541.27 L777.93,551.05 L780.55,547.84 L783.17,548.81 L785.79,562.75 L788.41,544.96 L791.04,553.61 L793.66,547.36 L796.28,536.95 L798.90,541.43 L801.52,544.48 L804.15,534.86 L806.77,552.33 L809.39,543.20 L812.01,537.59 L814.63,549.77 L817.26,546.08 L819.88,535.51 L822.50,539.35 L825.12,536.95 L827.74,528.78 L830.37,536.31 L832.99,541.43 L835.61,549.45 L838.23,556.02 L840.85,558.58 L843.48,558.10 L846.10,558.26 L848.72,557.30 L851.34,559.22 L853.96,546.72 L856.59,540.47 L859.21,542.88 L861.83,537.75 L864.45,517.40 L867.07,506.82 L869.70,492.88 L872.32,493.85 L874.94,501.54 L877.56,498.81 L880.18,503.62 L882.80,550.89 L885.43,567.71 L888.05,565.95 L890.67,562.91 L893.29,557.14 L895.91,558.10 L898.54,555.05 L901.16,534.70 L903.78,531.02 L906.40,534.86 L909.02,535.67 L911.65,540.15 L914.27,537.91 L916.89,449.62 L919.51,440.65 L922.13,460.04 L924.76,460.04 L927.38,467.09 L930.00,466.29 L930.00,656.00 Z" fill="#60a5fa" fill-opacity="0.16" stroke="none" />
<path d="M70.00,587.58 L72.62,577.49 L75.24,622.35 L77.87,608.61 L80.49,608.44 L83.11,586.65 L85.73,578.29 L88.35,569.15 L90.98,568.83 L93.60,555.53 L96.22,554.09 L98.84,530.70 L101.46,539.03 L104.09,545.12 L106.71,554.73 L109.33,569.64 L111.95,572.36 L114.57,571.56 L117.20,574.76 L119.82,573.16 L122.44,568.03 L125.06,563.07 L127.68,546.72 L130.30,519.16 L132.93,505.38 L135.55,516.44 L138.17,527.17 L140.79,525.41 L143.41,528.46 L146.04,531.82 L148.66,539.03 L151.28,544.80 L153.90,544.48 L156.52,541.59 L159.15,551.05 L161.77,550.09 L164.39,527.65 L167.01,535.99 L169.63,567.71 L172.26,569.15 L174.88,565.31 L177.50,559.06 L180.12,559.38 L182.74,553.77 L185.37,553.61 L187.99,523.65 L190.61,522.85 L193.23,524.29 L195.85,526.05 L198.48,520.92 L201.10,552.65 L203.72,552.33 L206.34,558.58 L208.96,555.05 L211.59,565.31 L214.21,581.49 L216.83,589.50 L219.45,587.90 L222.07,592.39 L224.70,588.70 L227.32,595.43 L229.94,583.90 L232.56,567.87 L235.18,563.39 L237.80,561.14 L240.43,551.85 L243.05,552.97 L245.67,550.57 L248.29,555.86 L250.91,562.10 L253.54,570.28 L256.16,571.72 L258.78,582.93 L261.40,585.66 L264.02,585.98 L266.65,584.22 L269.27,578.77 L271.89,570.44 L274.51,566.27 L277.13,560.02 L279.76,560.02 L282.38,561.78 L285.00,558.26 L287.62,560.34 L290.24,560.98 L292.87,567.23 L295.49,554.89 L298.11,553.77 L300.73,543.04 L303.35,544.64 L305.98,543.84 L308.60,531.34 L311.22,523.97 L313.84,526.85 L316.46,532.62 L319.09,534.22 L321.71,536.63 L324.33,497.05 L326.95,501.38 L329.57,508.75 L332.20,528.94 L334.82,535.83 L337.44,537.59 L340.06,536.95 L342.68,572.52 L345.30,574.12 L347.93,576.85 L350.55,563.71 L353.17,552.17 L355.79,564.99 L358.41,562.10 L361.04,561.62 L363.66,562.58 L366.28,548.64 L368.90,544.80 L371.52,539.83 L374.15,532.46 L376.77,530.86 L379.39,533.42 L382.01,536.15 L384.63,496.25 L387.26,487.44 L389.88,524.29 L392.50,524.13 L395.12,529.26 L397.74,522.05 L400.37,519.96 L402.99,515.00 L405.61,521.57 L408.23,485.99 L410.85,481.51 L413.48,473.18 L416.10,479.42 L418.72,473.34 L421.34,519.16 L423.96,525.89 L426.59,530.54 L429.21,525.73 L431.83,538.39 L434.45,534.06 L437.07,548.00 L439.70,549.61 L442.32,538.07 L444.94,527.17 L447.56,526.69 L450.18,508.91 L452.80,514.36 L455.43,501.22 L458.05,500.74 L460.67,510.03 L463.29,516.44 L465.91,537.11 L468.54,542.24 L471.16,537.27 L473.78,546.08 L476.40,537.11 L479.02,540.95 L481.65,541.43 L484.27,526.05 L486.89,535.67 L489.51,538.39 L492.13,543.52 L494.76,562.58 L497.38,575.88 L500.00,572.68 L502.62,578.29 L505.24,575.56 L507.87,576.36 L510.49,576.20 L513.11,579.73 L515.73,571.56 L518.35,582.77 L520.98,590.95 L523.60,598.32 L526.22,601.68 L528.84,593.99 L531.46,591.59 L534.09,593.19 L536.71,596.39 L539.33,594.15 L541.95,576.69 L544.57,573.16 L547.20,584.22 L549.82,583.25 L552.44,592.55 L555.06,586.62 L557.68,564.51 L560.30,572.20 L562.93,570.28 L565.55,562.75 L568.17,527.17 L570.79,499.93 L573.41,494.65 L576.04,508.11 L578.66,509.23 L581.28,510.67 L583.90,518.84 L586.52,552.49 L589.15,572.20 L591.77,571.88 L594.39,564.03 L597.01,559.22 L599.63,562.42 L602.26,562.75 L604.88,542.56 L607.50,580.69 L610.12,588.70 L612.74,591.27 L615.37,602.16 L620.61,602.16 L623.23,602.00 L649.45,607.93 L652.07,558.74 L654.70,558.26 L657.32,577.33 L659.94,566.43 L662.56,563.23 L665.18,544.64 L667.80,546.40 L670.43,538.07 L673.05,533.90 L675.67,524.29 L678.29,531.18 L680.91,522.37 L683.54,529.26 L686.16,540.95 L688.78,541.92 L691.40,541.11 L694.02,545.28 L696.65,534.06 L699.27,548.16 L701.89,548.48 L704.51,551.69 L707.13,563.55 L709.76,565.79 L712.38,566.75 L715.00,581.65 L717.62,588.22 L720.24,579.57 L722.87,578.13 L725.49,581.97 L728.11,540.31 L730.73,525.89 L733.35,522.37 L735.98,507.63 L738.60,522.37 L741.22,526.21 L743.84,514.36 L746.46,558.42 L751.71,561.14 L754.33,558.42 L756.95,552.49 L759.57,538.71 L762.20,530.06 L764.82,533.26 L767.44,522.37 L770.06,531.66 L772.68,529.26 L775.30,541.27 L777.93,551.05 L780.55,547.84 L783.17,548.81 L785.79,562.75 L788.41,544.96 L791.04,553.61 L793.66,547.36 L796.28,536.95 L798.90,541.43 L801.52,544.48 L804.15,534.86 L806.77,552.33 L809.39,543.20 L812.01,537.59 L814.63,549.77 L817.26,546.08 L819.88,535.51 L822.50,539.35 L825.12,536.95 L827.74,528.78 L830.37,536.31 L832.99,541.43 L835.61,549.45 L838.23,556.02 L840.85,558.58 L843.48,558.10 L846.10,558.26 L848.72,557.30 L851.34,559.22 L853.96,546.72 L856.59,540.47 L859.21,542.88 L861.83,537.75 L864.45,517.40 L867.07,506.82 L869.70,492.88 L872.32,493.85 L874.94,501.54 L877.56,498.81 L880.18,503.62 L882.80,550.89 L885.43,567.71 L888.05,565.95 L890.67,562.91 L893.29,557.14 L895.91,558.10 L898.54,555.05 L901.16,534.70 L903.78,531.02 L906.40,534.86 L909.02,535.67 L911.65,540.15 L914.27,537.91 L916.89,449.62 L919.51,440.65 L922.13,460.04 L924.76,460.04 L927.38,467.09 L930.00,466.29" fill="none" stroke="#60a5fa" stroke-width="2.2" stroke-linecap="round" />
</svg>
