<svg xmlns="http://www.w3.org/2000/svg" viewBox="0 0 960 720" width="960" height="720">
<rect width="960" height="720" fill="#0f172a" />
<text x="480" y="28" fill="#e2e8f0" font-size="16" font-weight="700" text-anchor="middle">入睡时间趋势图</text>
<text x="70" y="70" fill="#e2e8f0" font-size="13" font-weight="600">本月分天指标明细</text>
<line x1="70" y1="323.00" x2="930" y2="323.00" stroke="#94a3b8" stroke-opacity="0.18" stroke-width="1" />
<text x="62" y="327.00" fill="#cbd5f5" font-size="10" text-anchor="end">13:18</text>
<line x1="70" y1="260.75" x2="930" y2="260.75" stroke="#94a3b8" stroke-opacity="0.18" stroke-width="1" />
<text x="62" y="264.75" fill="#cbd5f5" font-size="10" text-anchor="end">16:51</text>
<line x1="70" y1="198.50" x2="930" y2="198.50" stroke="#94a3b8" stroke-opacity="0.18" stroke-width="1" />
<text x="62" y="202.50" fill="#cbd5f5" font-size="10" text-anchor="end">20:25</text>
<line x1="70" y1="136.25" x2="930" y2="136.25" stroke="#94a3b8" stroke-opacity="0.18" stroke-width="1" />
<text x="62" y="140.25" fill="#cbd5f5" font-size="10" text-anchor="end">23:58</text>
<line x1="70" y1="74.00" x2="930" y2="74.00" stroke="#94a3b8" stroke-opacity="0.18" stroke-width="1" />
<text x="62" y="78.00" fill="#cbd5f5" font-size="10" text-anchor="end">03:31</text>
<line x1="70.00" y1="323" x2="70.00" y2="327" stroke="#94a3b8" stroke-opacity="0.5" stroke-width="1" />
<text x="70.00" y="341" fill="#cbd5f5" font-size="10" text-anchor="middle">11-19</text>
<line x1="242.00" y1="323" x2="242.00" y2="327" stroke="#94a3b8" stroke-opacity="0.5" stroke-width="1" />
<text x="242.00" y="341" fill="#cbd5f5" font-size="10" text-anchor="middle">11-24</text>
<line x1="414.00" y1="323" x2="414.00" y2="327" stroke="#94a3b8" stroke-opacity="0.5" stroke-width="1" />
<text x="414.00" y="341" fill="#cbd5f5" font-size="10" text-anchor="middle">11-30</text>
<line x1="586.00" y1="323" x2="586.00" y2="327" stroke="#94a3b8" stroke-opacity="0.5" stroke-width="1" />
<text x="586.00" y="341" fill="#cbd5f5" font-size="10" text-anchor="middle">12-06</text>
<line x1="758.00" y1="323" x2="758.00" y2="327" stroke="#94a3b8" stroke-opacity="0.5" stroke-width="1" />
<text x="758.00" y="341" fill="#cbd5f5" font-size="10" text-anchor="middle">12-12</text>
<line x1="930.00" y1="323" x2="930.00" y2="327" stroke="#94a3b8" stroke-opacity="0.5" stroke-width="1" />
<text x="930.00" y="341" fill="#cbd5f5" font-size="10" text-anchor="middle">12-18</text>
<line x1="70" y1="74" x2="70" y2="323" stroke="#94a3b8" stroke-width="1" />
<line x1="70" y1="323" x2="930" y2="323" stroke="#94a3b8" stroke-width="1" />
<path d="M70.00,138.53 L99.66,140.28 L129.31,137.65 L158.97,128.90 L188.62,130.65 L218.28,133.57 L247.93,164.79 L277.59,153.70 L307.24,146.70 L336.90,110.22 L366.55,167.42 L396.21,201.86 L425.86,165.67 L455.52,127.73 L485.17,94.75 L514.83,165.38 L544.48,149.91 L574.14,122.48 L603.79,123.93 L633.45,136.78 L663.10,147.57 L692.76,161.29 L722.41,165.08 L752.07,131.52 L781.72,302.25 L811.38,139.99 L841.03,125.39 L870.69,137.94 L900.34,134.15 L930.00,138.53" fill="none" stroke="#60a5fa" stroke-width="2.2" stroke-linecap="round" />
<circle cx="70.00" cy="138.53" r="3" fill="#60a5fa" stroke="#0f172a" stroke-width="1" />
<text x="70.00" y="128.53" fill="#e2e8f0" font-size="9" text-anchor="middle">23:50</text>
<circle cx="99.66" cy="140.28" r="3" fill="#60a5fa" stroke="#0f172a" stroke-width="1" />
<text x="99.66" y="120.28" fill="#e2e8f0" font-size="9" text-anchor="middle">23:44</text>
<circle cx="129.31" cy="137.65" r="3" fill="#60a5fa" stroke="#0f172a" stroke-width="1" />
<text x="129.31" y="127.65" fill="#e2e8f0" font-size="9" text-anchor="middle">23:53</text>
<circle cx="158.97" cy="128.90" r="3" fill="#60a5fa" stroke="#0f172a" stroke-width="1" />
<text x="158.97" y="108.90" fill="#e2e8f0" font-size="9" text-anchor="middle">00:23</text>
<circle cx="188.62" cy="130.65" r="3" fill="#60a5fa" stroke="#0f172a" stroke-width="1" />
<text x="188.62" y="120.65" fill="#e2e8f0" font-size="9" text-anchor="middle">00:17</text>
<circle cx="218.28" cy="133.57" r="3" fill="#60a5fa" stroke="#0f172a" stroke-width="1" />
<text x="218.28" y="113.57" fill="#e2e8f0" font-size="9" text-anchor="middle">00:07</text>
<circle cx="247.93" cy="164.79" r="3" fill="#60a5fa" stroke="#0f172a" stroke-width="1" />
<text x="247.93" y="154.79" fill="#e2e8f0" font-size="9" text-anchor="middle">22:20</text>
<circle cx="277.59" cy="153.70" r="3" fill="#60a5fa" stroke="#0f172a" stroke-width="1" />
<text x="277.59" y="133.70" fill="#e2e8f0" font-size="9" text-anchor="middle">22:58</text>
<circle cx="307.24" cy="146.70" r="3" fill="#60a5fa" stroke="#0f172a" stroke-width="1" />
<text x="307.24" y="136.70" fill="#e2e8f0" font-size="9" text-anchor="middle">23:22</text>
<circle cx="336.90" cy="110.22" r="3" fill="#60a5fa" stroke="#0f172a" stroke-width="1" />
<text x="336.90" y="90.22" fill="#e2e8f0" font-size="9" text-anchor="middle">01:27</text>
<circle cx="366.55" cy="167.42" r="3" fill="#60a5fa" stroke="#0f172a" stroke-width="1" />
<text x="366.55" y="157.42" fill="#e2e8f0" font-size="9" text-anchor="middle">22:11</text>
<circle cx="396.21" cy="201.86" r="3" fill="#60a5fa" stroke="#0f172a" stroke-width="1" />
<text x="396.21" y="181.86" fill="#e2e8f0" font-size="9" text-anchor="middle">20:13</text>
<circle cx="425.86" cy="165.67" r="3" fill="#60a5fa" stroke="#0f172a" stroke-width="1" />
<text x="425.86" y="155.67" fill="#e2e8f0" font-size="9" text-anchor="middle">22:17</text>
<circle cx="455.52" cy="127.73" r="3" fill="#60a5fa" stroke="#0f172a" stroke-width="1" />
<text x="455.52" y="107.73" fill="#e2e8f0" font-size="9" text-anchor="middle">00:27</text>
<circle cx="485.17" cy="94.75" r="3" fill="#60a5fa" stroke="#0f172a" stroke-width="1" />
<text x="485.17" y="84.75" fill="#e2e8f0" font-size="9" text-anchor="middle">02:20</text>
<circle cx="514.83" cy="165.38" r="3" fill="#60a5fa" stroke="#0f172a" stroke-width="1" />
<text x="514.83" y="145.38" fill="#e2e8f0" font-size="9" text-anchor="middle">22:18</text>
<circle cx="544.48" cy="149.91" r="3" fill="#60a5fa" stroke="#0f172a" stroke-width="1" />
<text x="544.48" y="139.91" fill="#e2e8f0" font-size="9" text-anchor="middle">23:11</text>
<circle cx="574.14" cy="122.48" r="3" fill="#60a5fa" stroke="#0f172a" stroke-width="1" />
<text x="574.14" y="102.48" fill="#e2e8f0" font-size="9" text-anchor="middle">00:45</text>
<circle cx="603.79" cy="123.93" r="3" fill="#60a5fa" stroke="#0f172a" stroke-width="1" />
<text x="603.79" y="113.93" fill="#e2e8f0" font-size="9" text-anchor="middle">00:40</text>
<circle cx="633.45" cy="136.78" r="3" fill="#60a5fa" stroke="#0f172a" stroke-width="1" />
<text x="633.45" y="116.78" fill="#e2e8f0" font-size="9" text-anchor="middle">23:56</text>
<circle cx="663.10" cy="147.57" r="3" fill="#60a5fa" stroke="#0f172a" stroke-width="1" />
<text x="663.10" y="137.57" fill="#e2e8f0" font-size="9" text-anchor="middle">23:19</text>
<circle cx="692.76" cy="161.29" r="3" fill="#60a5fa" stroke="#0f172a" stroke-width="1" />
<text x="692.76" y="141.29" fill="#e2e8f0" font-size="9" text-anchor="middle">22:32</text>
<circle cx="722.41" cy="165.08" r="3" fill="#60a5fa" stroke="#0f172a" stroke-width="1" />
<text x="722.41" y="155.08" fill="#e2e8f0" font-size="9" text-anchor="middle">22:19</text>
<circle cx="752.07" cy="131.52" r="3" fill="#60a5fa" stroke="#0f172a" stroke-width="1" />
<text x="752.07" y="111.52" fill="#e2e8f0" font-size="9" text-anchor="middle">00:14</text>
<circle cx="781.72" cy="302.25" r="3" fill="#60a5fa" stroke="#0f172a" stroke-width="1" />
<text x="781.72" y="292.25" fill="#e2e8f0" font-size="9" text-anchor="middle">14:29</text>
<circle cx="811.38" cy="139.99" r="3" fill="#60a5fa" stroke="#0f172a" stroke-width="1" />
<text x="811.38" y="119.99" fill="#e2e8f0" font-size="9" text-anchor="middle">23:45</text>
<circle cx="841.03" cy="125.39" r="3" fill="#60a5fa" stroke="#0f172a" stroke-width="1" />
<text x="841.03" y="115.39" fill="#e2e8f0" font-size="9" text-anchor="middle">00:35</text>
<circle cx="870.69" cy="137.94" r="3" fill="#60a5fa" stroke="#0f172a" stroke-width="1" />
<text x="870.69" y="117.94" fill="#e2e8f0" font-size="9" text-anchor="middle">23:52</text>
<circle cx="900.34" cy="134.15" r="3" fill="#60a5fa" stroke="#0f172a" stroke-width="1" />
<text x="900.34" y="124.15" fill="#e2e8f0" font-size="9" text-anchor="middle">00:05</text>
<circle cx="930.00" cy="138.53" r="3" fill="#60a5fa" stroke="#0f172a" stroke-width="1" />
<text x="930.00" y="118.53" fill="#e2e8f0" font-size="9" text-anchor="middle">23:50</text>
<text x="70" y="403" fill="#e2e8f0" font-size="13" font-weight="600">本年核心指标趋势（滑动7日窗口平均）</text>
<line x1="70" y1="656.00" x2="930" y2="656.00" stroke="#94a3b8" stroke-opacity="0.18" stroke-width="1" />
<text x="62" y="660.00" fill="#cbd5f5" font-size="10" text-anchor="end">21:35</text>
<line x1="70" y1="593.75" x2="930" y2="593.75" stroke="#94a3b8" stroke-opacity="0.18" stroke-width="1" />
<text x="62" y="597.75" fill="#cbd5f5" font-size="10" text-anchor="end">22:42</text>
<line x1="70" y1="531.50" x2="930" y2="531.50" stroke="#94a3b8" stroke-opacity="0.18" stroke-width="1" />
<text x="62" y="535.50" fill="#cbd5f5" font-size="10" text-anchor="end">23:49</text>
<line x1="70" y1="469.25" x2="930" y2="469.25" stroke="#94a3b8" stroke-opacity="0.18" stroke-width="1" />
<text x="62" y="473.25" fill="#cbd5f5" font-size="10" text-anchor="end">00:56</text>
<line x1="70" y1="407.00" x2="930" y2="407.00" stroke="#94a3b8" stroke-opacity="0.18" stroke-width="1" />
<text x="62" y="411.00" fill="#cbd5f5" font-size="10" text-anchor="end">02:03</text>
<line x1="70.00" y1="656" x2="70.00" y2="660" stroke="#94a3b8" stroke-opacity="0.5" stroke-width="1" />
<text x="70.00" y="674" fill="#cbd5f5" font-size="10" text-anchor="middle">2025-01</text>
<line x1="242.00" y1="656" x2="242.00" y2="660" stroke="#94a3b8" stroke-opacity="0.5" stroke-width="1" />
<text x="242.00" y="674" fill="#cbd5f5" font-size="10" text-anchor="middle">2025-03</text>
<line x1="414.00" y1="656" x2="414.00" y2="660" stroke="#94a3b8" stroke-opacity="0.5" stroke-width="1" />
<text x="414.00" y="674" fill="#cbd5f5" font-size="10" text-anchor="middle">2025-06</text>
<line x1="586.00" y1="656" x2="586.00" y2="660" stroke="#94a3b8" stroke-opacity="0.5" stroke-width="1" />
<text x="586.00" y="674" fill="#cbd5f5" font-size="10" text-anchor="middle">2025-08</text>
<line x1="758.00" y1="656" x2="758.00" y2="660" stroke="#94a3b8" stroke-opacity="0.5" stroke-width="1" />
<text x="758.00" y="674" fill="#cbd5f5" font-size="10" text-anchor="middle">2025-10</text>
<line x1="930.00" y1="656" x2="930.00" y2="660" stroke="#94a3b8" stroke-opacity="0.5" stroke-width="1" />
<text x="930.00" y="674" fill="#cbd5f5" font-size="10" text-anchor="middle">2025-12</text>
<line x1="70" y1="407" x2="70" y2="656" stroke="#94a3b8" stroke-width="1" />
<line x1="70" y1="656" x2="930" y2="656" stroke="#94a3b8" stroke-width="1" />
<path d="M70.00,656.00 L70.00,472.30 L72.62,520.97 L75.24,498.87 L77.87,514.71 L80.49,524.40 L83.11,516.49 L85.73,512.16 L88.35,517.59 L90.98,504.75 L93.60,504.48 L96.22,499.05 L98.84,490.97 L101.46,489.65 L104.09,501.43 L106.71,515.08 L109.33,527.00 L111.95,530.31 L114.57,533.35 L117.20,540.90 L119.82,545.41 L122.44,536.67 L125.06,526.73 L127.68,499.05 L130.30,501.04 L132.93,503.95 L135.55,502.63 L138.17,505.01 L140.79,506.60 L143.41,497.73 L146.04,504.08 L148.66,503.69 L151.28,501.17 L153.90,501.17 L156.52,505.94 L159.15,508.06 L161.77,517.99 L164.39,533.22 L167.01,536.00 L169.63,535.61 L172.26,539.58 L174.88,528.59 L177.50,515.34 L180.12,522.36 L182.74,510.44 L185.37,508.06 L187.99,504.61 L190.61,490.84 L193.23,497.06 L195.85,518.65 L198.48,513.49 L201.10,520.11 L203.72,524.08 L206.34,526.60 L208.96,542.36 L211.59,552.16 L214.21,544.08 L216.83,537.73 L219.45,545.67 L222.07,557.72 L224.70,563.29 L227.32,549.25 L229.94,530.18 L232.56,525.67 L235.18,528.06 L237.80,517.20 L240.43,502.89 L243.05,492.30 L245.67,495.87 L248.29,497.33 L250.91,497.99 L253.54,502.36 L256.16,521.43 L258.78,520.11 L261.40,531.50 L264.02,526.60 L266.65,536.93 L269.27,542.23 L271.89,535.08 L274.51,521.83 L277.13,522.89 L279.76,515.74 L282.38,520.64 L285.00,521.17 L287.62,521.17 L290.24,522.49 L292.87,522.36 L295.49,524.35 L298.11,524.35 L300.73,527.00 L303.35,530.04 L305.98,525.80 L308.60,520.64 L311.22,513.35 L313.84,514.81 L316.46,516.80 L319.09,515.47 L321.71,488.19 L324.33,470.04 L326.95,452.56 L329.57,469.38 L332.20,469.65 L334.82,463.02 L337.44,478.26 L340.06,508.32 L342.68,525.27 L345.30,546.86 L347.93,539.18 L350.55,535.21 L353.17,545.27 L355.79,526.47 L358.41,508.98 L361.04,521.30 L363.66,523.02 L366.28,497.20 L368.90,493.36 L371.52,496.00 L374.15,497.73 L376.77,518.26 L379.39,502.89 L382.01,503.29 L384.63,517.06 L387.26,519.05 L389.88,492.16 L392.50,507.66 L395.12,466.87 L397.74,466.87 L400.37,460.11 L402.99,471.63 L405.61,457.99 L408.23,477.73 L410.85,474.28 L413.48,506.73 L416.10,498.79 L418.72,521.17 L421.34,519.84 L423.96,519.58 L426.59,522.36 L429.21,518.65 L431.83,508.98 L434.45,527.92 L437.07,504.22 L439.70,483.55 L442.32,488.19 L444.94,451.50 L447.56,448.59 L450.18,450.97 L452.80,448.59 L455.43,434.81 L458.05,448.72 L460.67,464.88 L463.29,493.22 L465.91,497.46 L468.54,508.72 L471.16,507.92 L473.78,528.98 L476.40,533.35 L479.02,500.77 L481.65,513.62 L484.27,518.26 L486.89,509.51 L489.51,497.46 L492.13,490.57 L494.76,508.19 L497.38,531.50 L500.00,532.82 L502.62,529.25 L505.24,541.43 L507.87,554.28 L510.49,564.21 L513.11,541.83 L515.73,529.25 L518.35,529.65 L520.98,525.14 L523.60,517.86 L526.22,524.08 L528.84,520.90 L531.46,530.31 L534.09,553.75 L536.71,544.88 L539.33,534.81 L541.95,532.82 L544.57,532.16 L547.20,528.59 L549.82,528.98 L552.44,519.98 L555.06,541.83 L557.68,549.91 L560.30,547.39 L562.93,534.41 L565.55,538.78 L568.17,524.35 L570.79,524.35 L573.41,507.53 L576.04,508.59 L578.66,521.57 L581.28,523.95 L583.90,520.11 L586.52,526.33 L589.15,525.01 L591.77,518.39 L594.39,513.62 L597.01,500.51 L599.63,510.84 L602.26,517.06 L604.88,514.81 L607.50,520.64 L610.12,530.04 L612.74,528.59 L615.37,528.59 L620.61,527.92 L623.23,512.83 L649.45,542.76 L652.07,548.32 L654.70,540.11 L657.32,553.62 L659.94,545.94 L662.56,539.84 L665.18,555.21 L667.80,547.53 L670.43,549.38 L673.05,556.53 L675.67,555.21 L678.29,560.90 L680.91,562.36 L683.54,562.89 L686.16,563.82 L688.78,556.66 L691.40,546.20 L694.02,538.65 L696.65,542.36 L699.27,535.61 L701.89,537.06 L704.51,530.31 L707.13,542.10 L709.76,538.12 L712.38,539.31 L715.00,534.15 L717.62,525.67 L720.24,516.40 L722.87,511.37 L725.49,505.54 L728.11,522.36 L730.73,516.67 L733.35,517.33 L735.98,534.81 L738.60,547.00 L741.22,552.16 L743.84,538.39 L746.46,509.38 L751.71,512.96 L754.33,508.45 L756.95,498.12 L759.57,495.61 L762.20,491.90 L764.82,497.73 L767.44,510.97 L770.06,504.88 L772.68,507.13 L775.30,516.53 L777.93,528.06 L780.55,546.20 L783.17,559.05 L785.79,561.70 L788.41,567.92 L791.04,569.78 L793.66,578.92 L796.28,564.48 L798.90,539.45 L801.52,532.29 L804.15,531.10 L806.77,523.02 L809.39,519.58 L812.01,499.45 L814.63,507.26 L817.26,507.79 L819.88,498.52 L822.50,514.15 L825.12,508.45 L827.74,502.23 L830.37,514.81 L832.99,507.39 L835.61,516.67 L838.23,523.29 L840.85,505.81 L843.48,516.93 L846.10,531.50 L848.72,533.09 L851.34,530.71 L853.96,526.73 L856.59,528.72 L859.21,533.88 L861.83,531.50 L864.45,529.25 L867.07,520.24 L869.70,532.82 L872.32,539.71 L874.94,542.63 L877.56,530.18 L880.18,547.66 L882.80,579.98 L885.43,594.54 L888.05,577.72 L890.67,550.97 L893.29,559.45 L895.91,577.46 L898.54,557.06 L901.16,521.70 L903.78,508.59 L906.40,517.59 L909.02,547.79 L911.65,547.66 L914.27,539.31 L916.89,620.90 L919.51,628.19 L922.13,623.02 L924.76,618.65 L927.38,606.33 L930.00,594.28 L930.00,656.00 Z" fill="#60a5fa" fill-opacity="0.16" stroke="none" />
<path d="M70.00,472.30 L72.62,520.97 L75.24,498.87 L77.87,514.71 L80.49,524.40 L83.11,516.49 L85.73,512.16 L88.35,517.59 L90.98,504.75 L93.60,504.48 L96.22,499.05 L98.84,490.97 L101.46,489.65 L104.09,501.43 L106.71,515.08 L109.33,527.00 L111.95,530.31 L114.57,533.35 L117.20,540.90 L119.82,545.41 L122.44,536.67 L125.06,526.73 L127.68,499.05 L130.30,501.04 L132.93,503.95 L135.55,502.63 L138.17,505.01 L140.79,506.60 L143.41,497.73 L146.04,504.08 L148.66,503.69 L151.28,501.17 L153.90,501.17 L156.52,505.94 L159.15,508.06 L161.77,517.99 L164.39,533.22 L167.01,536.00 L169.63,535.61 L172.26,539.58 L174.88,528.59 L177.50,515.34 L180.12,522.36 L182.74,510.44 L185.37,508.06 L187.99,504.61 L190.61,490.84 L193.23,497.06 L195.85,518.65 L198.48,513.49 L201.10,520.11 L203.72,524.08 L206.34,526.60 L208.96,542.36 L211.59,552.16 L214.21,544.08 L216.83,537.73 L219.45,545.67 L222.07,557.72 L224.70,563.29 L227.32,549.25 L229.94,530.18 L232.56,525.67 L235.18,528.06 L237.80,517.20 L240.43,502.89 L243.05,492.30 L245.67,495.87 L248.29,497.33 L250.91,497.99 L253.54,502.36 L256.16,521.43 L258.78,520.11 L261.40,531.50 L264.02,526.60 L266.65,536.93 L269.27,542.23 L271.89,535.08 L274.51,521.83 L277.13,522.89 L279.76,515.74 L282.38,520.64 L285.00,521.17 L287.62,521.17 L290.24,522.49 L292.87,522.36 L295.49,524.35 L298.11,524.35 L300.73,527.00 L303.35,530.04 L305.98,525.80 L308.60,520.64 L311.22,513.35 L313.84,514.81 L316.46,516.80 L319.09,515.47 L321.71,488.19 L324.33,470.04 L326.95,452.56 L329.57,469.38 L332.20,469.65 L334.82,463.02 L337.44,478.26 L340.06,508.32 L342.68,525.27 L345.30,546.86 L347.93,539.18 L350.55,535.21 L353.17,545.27 L355.79,526.47 L358.41,508.98 L361.04,521.30 L363.66,523.02 L366.28,497.20 L368.90,493.36 L371.52,496.00 L374.15,497.73 L376.77,518.26 L379.39,502.89 L382.01,503.29 L384.63,517.06 L387.26,519.05 L389.88,492.16 L392.50,507.66 L395.12,466.87 L397.74,466.87 L400.37,460.11 L402.99,471.63 L405.61,457.99 L408.23,477.73 L410.85,474.28 L413.48,506.73 L416.10,498.79 L418.72,521.17 L421.34,519.84 L423.96,519.58 L426.59,522.36 L429.21,518.65 L431.83,508.98 L434.45,527.92 L437.07,504.22 L439.70,483.55 L442.32,488.19 L444.94,451.50 L447.56,448.59 L450.18,450.97 L452.80,448.59 L455.43,434.81 L458.05,448.72 L460.67,464.88 L463.29,493.22 L465.91,497.46 L468.54,508.72 L471.16,507.92 L473.78,528.98 L476.40,533.35 L479.02,500.77 L481.65,513.62 L484.27,518.26 L486.89,509.51 L489.51,497.46 L492.13,490.57 L494.76,508.19 L497.38,531.50 L500.00,532.82 L502.62,529.25 L505.24,541.43 L507.87,554.28 L510.49,564.21 L513.11,541.83 L515.73,529.25 L518.35,529.65 L520.98,525.14 L523.60,517.86 L526.22,524.08 L528.84,520.90 L531.46,530.31 L534.09,553.75 L536.71,544.88 L539.33,534.81 L541.95,532.82 L544.57,532.16 L547.20,528.59 L549.82,528.98 L552.44,519.98 L555.06,541.83 L557.68,549.91 L560.30,547.39 L562.93,534.41 L565.55,538.78 L568.17,524.35 L570.79,524.35 L573.41,507.53 L576.04,508.59 L578.66,521.57 L581.28,523.95 L583.90,520.11 L586.52,526.33 L589.15,525.01 L591.77,518.39 L594.39,513.62 L597.01,500.51 L599.63,510.84 L602.26,517.06 L604.88,514.81 L607.50,520.64 L610.12,530.04 L612.74,528.59 L615.37,528.59 L620.61,527.92 L623.23,512.83 L649.45,542.76 L652.07,548.32 L654.70,540.11 L657.32,553.62 L659.94,545.94 L662.56,539.84 L665.18,555.21 L667.80,547.53 L670.43,549.38 L673.05,556.53 L675.67,555.21 L678.29,560.90 L680.91,562.36 L683.54,562.89 L686.16,563.82 L688.78,556.66 L691.40,546.20 L694.02,538.65 L696.65,542.36 L699.27,535.61 L701.89,537.06 L704.51,530.31 L707.13,542.10 L709.76,538.12 L712.38,539.31 L715.00,534.15 L717.62,525.67 L720.24,516.40 L722.87,511.37 L725.49,505.54 L728.11,522.36 L730.73,516.67 L733.35,517.33 L735.98,534.81 L738.60,547.00 L741.22,552.16 L743.84,538.39 L746.46,509.38 L751.71,512.96 L754.33,508.45 L756.95,498.12 L759.57,495.61 L762.20,491.90 L764.82,497.73 L767.44,510.97 L770.06,504.88 L772.68,507.13 L775.30,516.53 L777.93,528.06 L780.55,546.20 L783.17,559.05 L785.79,561.70 L788.41,567.92 L791.04,569.78 L793.66,578.92 L796.28,564.48 L798.90,539.45 L801.52,532.29 L804.15,531.10 L806.77,523.02 L809.39,519.58 L812.01,499.45 L814.63,507.26 L817.26,507.79 L819.88,498.52 L822.50,514.15 L825.12,508.45 L827.74,502.23 L830.37,514.81 L832.99,507.39 L835.61,516.67 L838.23,523.29 L840.85,505.81 L843.48,516.93 L846.10,531.50 L848.72,533.09 L851.34,530.71 L853.96,526.73 L856.59,528.72 L859.21,533.88 L861.83,531.50 L864.45,529.25 L867.07,520.24 L869.70,532.82 L872.32,539.71 L874.94,542.63 L877.56,530.18 L880.18,547.66 L882.80,579.98 L885.43,594.54 L888.05,577.72 L890.67,550.97 L893.29,559.45 L895.91,577.46 L898.54,557.06 L901.16,521.70 L903.78,508.59 L906.40,517.59 L909.02,547.79 L911.65,547.66 L914.27,539.31 L916.89,620.90 L919.51,628.19 L922.13,623.02 L924.76,618.65 L927.38,606.33 L930.00,594.28" fill="none" stroke="#60a5fa" stroke-width="2.2" stroke-linecap="round" />
</svg>
