<svg xmlns="http://www.w3.org/2000/svg" viewBox="0 0 960 720" width="960" height="720">
<rect width="960" height="720" fill="#0f172a" />
<text x="480" y="28" fill="#e2e8f0" font-size="16" font-weight="700" text-anchor="middle">睡眠时长趋势图</text>
<text x="70" y="70" fill="#e2e8f0" font-size="13" font-weight="600">本月分天指标明细</text>
<line x1="70" y1="323.00" x2="930" y2="323.00" stroke="#94a3b8" stroke-opacity="0.18" stroke-width="1" />
<text x="62" y="327.00" fill="#cbd5f5" font-size="10" text-anchor="end">1.89</text>
<line x1="70" y1="260.75" x2="930" y2="260.75" stroke="#94a3b8" stroke-opacity="0.18" stroke-width="1" />
<text x="62" y="264.75" fill="#cbd5f5" font-size="10" text-anchor="end">4.44</text>
<line x1="70" y1="198.50" x2="930" y2="198.50" stroke="#94a3b8" stroke-opacity="0.18" stroke-width="1" />
<text x="62" y="202.50" fill="#cbd5f5" font-size="10" text-anchor="end">6.99</text>
<line x1="70" y1="136.25" x2="930" y2="136.25" stroke="#94a3b8" stroke-opacity="0.18" stroke-width="1" />
<text x="62" y="140.25" fill="#cbd5f5" font-size="10" text-anchor="end">9.54</text>
<line x1="70" y1="74.00" x2="930" y2="74.00" stroke="#94a3b8" stroke-opacity="0.18" stroke-width="1" />
<text x="62" y="78.00" fill="#cbd5f5" font-size="10" text-anchor="end">12.1</text>
<line x1="70.00" y1="323" x2="70.00" y2="327" stroke="#94a3b8" stroke-opacity="0.5" stroke-width="1" />
<text x="70.00" y="341" fill="#cbd5f5" font-size="10" text-anchor="middle">11-19</text>
<line x1="242.00" y1="323" x2="242.00" y2="327" stroke="#94a3b8" stroke-opacity="0.5" stroke-width="1" />
<text x="242.00" y="341" fill="#cbd5f5" font-size="10" text-anchor="middle">11-24</text>
<line x1="414.00" y1="323" x2="414.00" y2="327" stroke="#94a3b8" stroke-opacity="0.5" stroke-width="1" />
<text x="414.00" y="341" fill="#cbd5f5" font-size="10" text-anchor="middle">11-30</text>
<line x1="586.00" y1="323" x2="586.00" y2="327" stroke="#94a3b8" stroke-opacity="0.5" stroke-width="1" />
<text x="586.00" y="341" fill="#cbd5f5" font-size="10" text-anchor="middle">12-06</text>
<line x1="758.00" y1="323" x2="758.00" y2="327" stroke="#94a3b8" stroke-opacity="0.5" stroke-width="1" />
<text x="758.00" y="341" fill="#cbd5f5" font-size="10" text-anchor="middle">12-12</text>
<line x1="930.00" y1="323" x2="930.00" y2="327" stroke="#94a3b8" stroke-opacity="0.5" stroke-width="1" />
<text x="930.00" y="341" fill="#cbd5f5" font-size="10" text-anchor="middle">12-18</text>
<line x1="70" y1="74" x2="70" y2="323" stroke="#94a3b8" stroke-width="1" />
<line x1="70" y1="323" x2="930" y2="323" stroke="#94a3b8" stroke-width="1" />
<line x1="70" y1="173.76" x2="930" y2="173.76" stroke="#22d3ee" stroke-width="1" stroke-dasharray="4 4" stroke-opacity="0.9" />
<text x="926" y="167.76" fill="#22d3ee" font-size="10" text-anchor="end">目标 8h</text>
<line x1="70" y1="222.63" x2="930" y2="222.63" stroke="#f97316" stroke-width="1" stroke-dasharray="4 4" stroke-opacity="0.9" />
<text x="926" y="216.63" fill="#f97316" font-size="10" text-anchor="end">预警 6h</text>
<path d="M70.00,169.28 L99.66,149.12 L129.31,214.49 L158.97,188.42 L188.62,154.21 L218.28,113.69 L247.93,149.12 L277.59,146.88 L307.24,199.82 L336.90,186.79 L366.55,94.75 L396.21,190.05 L425.86,197.79 L455.52,181.09 L485.17,180.68 L514.83,143.83 L544.48,207.56 L574.14,201.86 L603.79,188.83 L633.45,172.74 L663.10,138.94 L692.76,132.22 L722.41,184.75 L752.07,198.19 L781.72,302.25 L811.38,160.32 L841.03,244.22 L870.69,181.90 L900.34,185.77 L930.00,180.07" fill="none" stroke="#34d399" stroke-width="2.2" stroke-linecap="round" />
<circle cx="70.00" cy="169.28" r="3" fill="#34d399" stroke="#0f172a" stroke-width="1" />
<text x="70.00" y="159.28" fill="#e2e8f0" font-size="9" text-anchor="middle">8.18</text>
<circle cx="99.66" cy="149.12" r="3" fill="#34d399" stroke="#0f172a" stroke-width="1" />
<text x="99.66" y="129.12" fill="#e2e8f0" font-size="9" text-anchor="middle">9.01</text>
<circle cx="129.31" cy="214.49" r="3" fill="#34d399" stroke="#0f172a" stroke-width="1" />
<text x="129.31" y="204.49" fill="#e2e8f0" font-size="9" text-anchor="middle">6.33</text>
<circle cx="158.97" cy="188.42" r="3" fill="#34d399" stroke="#0f172a" stroke-width="1" />
<text x="158.97" y="168.42" fill="#e2e8f0" font-size="9" text-anchor="middle">7.4</text>
<circle cx="188.62" cy="154.21" r="3" fill="#34d399" stroke="#0f172a" stroke-width="1" />
<text x="188.62" y="144.21" fill="#e2e8f0" font-size="9" text-anchor="middle">8.8</text>
<circle cx="218.28" cy="113.69" r="3" fill="#34d399" stroke="#0f172a" stroke-width="1" />
<text x="218.28" y="93.69" fill="#e2e8f0" font-size="9" text-anchor="middle">10.5</text>
<circle cx="247.93" cy="149.12" r="3" fill="#34d399" stroke="#0f172a" stroke-width="1" />
<text x="247.93" y="139.12" fill="#e2e8f0" font-size="9" text-anchor="middle">9.01</text>
<circle cx="277.59" cy="146.88" r="3" fill="#34d399" stroke="#0f172a" stroke-width="1" />
<text x="277.59" y="126.88" fill="#e2e8f0" font-size="9" text-anchor="middle">9.1</text>
<circle cx="307.24" cy="199.82" r="3" fill="#34d399" stroke="#0f172a" stroke-width="1" />
<text x="307.24" y="189.82" fill="#e2e8f0" font-size="9" text-anchor="middle">6.93</text>
<circle cx="336.90" cy="186.79" r="3" fill="#34d399" stroke="#0f172a" stroke-width="1" />
<text x="336.90" y="166.79" fill="#e2e8f0" font-size="9" text-anchor="middle">7.47</text>
<circle cx="366.55" cy="94.75" r="3" fill="#34d399" stroke="#0f172a" stroke-width="1" />
<text x="366.55" y="84.75" fill="#e2e8f0" font-size="9" text-anchor="middle">11.2</text>
<circle cx="396.21" cy="190.05" r="3" fill="#34d399" stroke="#0f172a" stroke-width="1" />
<text x="396.21" y="170.05" fill="#e2e8f0" font-size="9" text-anchor="middle">7.33</text>
<circle cx="425.86" cy="197.79" r="3" fill="#34d399" stroke="#0f172a" stroke-width="1" />
<text x="425.86" y="187.79" fill="#e2e8f0" font-size="9" text-anchor="middle">7.02</text>
<circle cx="455.52" cy="181.09" r="3" fill="#34d399" stroke="#0f172a" stroke-width="1" />
<text x="455.52" y="161.09" fill="#e2e8f0" font-size="9" text-anchor="middle">7.7</text>
<circle cx="485.17" cy="180.68" r="3" fill="#34d399" stroke="#0f172a" stroke-width="1" />
<text x="485.17" y="170.68" fill="#e2e8f0" font-size="9" text-anchor="middle">7.72</text>
<circle cx="514.83" cy="143.83" r="3" fill="#34d399" stroke="#0f172a" stroke-width="1" />
<text x="514.83" y="123.83" fill="#e2e8f0" font-size="9" text-anchor="middle">9.23</text>
<circle cx="544.48" cy="207.56" r="3" fill="#34d399" stroke="#0f172a" stroke-width="1" />
<text x="544.48" y="197.56" fill="#e2e8f0" font-size="9" text-anchor="middle">6.62</text>
<circle cx="574.14" cy="201.86" r="3" fill="#34d399" stroke="#0f172a" stroke-width="1" />
<text x="574.14" y="181.86" fill="#e2e8f0" font-size="9" text-anchor="middle">6.85</text>
<circle cx="603.79" cy="188.83" r="3" fill="#34d399" stroke="#0f172a" stroke-width="1" />
<text x="603.79" y="178.83" fill="#e2e8f0" font-size="9" text-anchor="middle">7.38</text>
<circle cx="633.45" cy="172.74" r="3" fill="#34d399" stroke="#0f172a" stroke-width="1" />
<text x="633.45" y="152.74" fill="#e2e8f0" font-size="9" text-anchor="middle">8.04</text>
<circle cx="663.10" cy="138.94" r="3" fill="#34d399" stroke="#0f172a" stroke-width="1" />
<text x="663.10" y="128.94" fill="#e2e8f0" font-size="9" text-anchor="middle">9.42</text>
<circle cx="692.76" cy="132.22" r="3" fill="#34d399" stroke="#0f172a" stroke-width="1" />
<text x="692.76" y="112.22" fill="#e2e8f0" font-size="9" text-anchor="middle">9.7</text>
<circle cx="722.41" cy="184.75" r="3" fill="#34d399" stroke="#0f172a" stroke-width="1" />
<text x="722.41" y="174.75" fill="#e2e8f0" font-size="9" text-anchor="middle">7.55</text>
<circle cx="752.07" cy="198.19" r="3" fill="#34d399" stroke="#0f172a" stroke-width="1" />
<text x="752.07" y="178.19" fill="#e2e8f0" font-size="9" text-anchor="middle">7</text>
<circle cx="781.72" cy="302.25" r="3" fill="#34d399" stroke="#0f172a" stroke-width="1" />
<text x="781.72" y="292.25" fill="#e2e8f0" font-size="9" text-anchor="middle">2.74</text>
<circle cx="811.38" cy="160.32" r="3" fill="#34d399" stroke="#0f172a" stroke-width="1" />
<text x="811.38" y="140.32" fill="#e2e8f0" font-size="9" text-anchor="middle">8.55</text>
<circle cx="841.03" cy="244.22" r="3" fill="#34d399" stroke="#0f172a" stroke-width="1" />
<text x="841.03" y="234.22" fill="#e2e8f0" font-size="9" text-anchor="middle">5.12</text>
<circle cx="870.69" cy="181.90" r="3" fill="#34d399" stroke="#0f172a" stroke-width="1" />
<text x="870.69" y="161.90" fill="#e2e8f0" font-size="9" text-anchor="middle">7.67</text>
<circle cx="900.34" cy="185.77" r="3" fill="#34d399" stroke="#0f172a" stroke-width="1" />
<text x="900.34" y="175.77" fill="#e2e8f0" font-size="9" text-anchor="middle">7.51</text>
<circle cx="930.00" cy="180.07" r="3" fill="#34d399" stroke="#0f172a" stroke-width="1" />
<text x="930.00" y="160.07" fill="#e2e8f0" font-size="9" text-anchor="middle">7.74</text>
<text x="70" y="403" fill="#e2e8f0" font-size="13" font-weight="600">本年核心指标趋势（滑动7日窗口平均）</text>
<line x1="70" y1="656.00" x2="930" y2="656.00" stroke="#94a3b8" stroke-opacity="0.18" stroke-width="1" />
<text x="62" y="660.00" fill="#cbd5f5" font-size="10" text-anchor="end">4.38</text>
<line x1="70" y1="593.75" x2="930" y2="593.75" stroke="#94a3b8" stroke-opacity="0.18" stroke-width="1" />
<text x="62" y="597.75" fill="#cbd5f5" font-size="10" text-anchor="end">6.29</text>
<line x1="70" y1="531.50" x2="930" y2="531.50" stroke="#94a3b8" stroke-opacity="0.18" stroke-width="1" />
<text x="62" y="535.50" fill="#cbd5f5" font-size="10" text-anchor="end">8.19</text>
<line x1="70" y1="469.25" x2="930" y2="469.25" stroke="#94a3b8" stroke-opacity="0.18" stroke-width="1" />
<text x="62" y="473.25" fill="#cbd5f5" font-size="10" text-anchor="end">10.1</text>
<line x1="70" y1="407.00" x2="930" y2="407.00" stroke="#94a3b8" stroke-opacity="0.18" stroke-width="1" />
<text x="62" y="411.00" fill="#cbd5f5" font-size="10" text-anchor="end">12</text>
<line x1="70.00" y1="656" x2="70.00" y2="660" stroke="#94a3b8" stroke-opacity="0.5" stroke-width="1" />
<text x="70.00" y="674" fill="#cbd5f5" font-size="10" text-anchor="middle">2024-12</text>
<line x1="242.00" y1="656" x2="242.00" y2="660" stroke="#94a3b8" stroke-opacity="0.5" stroke-width="1" />
<text x="242.00" y="674" fill="#cbd5f5" font-size="10" text-anchor="middle">2025-03</text>
<line x1="414.00" y1="656" x2="414.00" y2="660" stroke="#94a3b8" stroke-opacity="0.5" stroke-width="1" />
<text x="414.00" y="674" fill="#cbd5f5" font-size="10" text-anchor="middle">2025-05</text>
<line x1="586.00" y1="656" x2="586.00" y2="660" stroke="#94a3b8" stroke-opacity="0.5" stroke-width="1" />
<text x="586.00" y="674" fill="#cbd5f5" font-size="10" text-anchor="middle">2025-07</text>
<line x1="758.00" y1="656" x2="758.00" y2="660" stroke="#94a3b8" stroke-opacity="0.5" stroke-width="1" />
<text x="758.00" y="674" fill="#cbd5f5" font-size="10" text-anchor="middle">2025-10</text>
<line x1="930.00" y1="656" x2="930.00" y2="660" stroke="#94a3b8" stroke-opacity="0.5" stroke-width="1" />
<text x="930.00" y="674" fill="#cbd5f5" font-size="10" text-anchor="middle">2025-12</text>
<line x1="70" y1="407" x2="70" y2="656" stroke="#94a3b8" stroke-width="1" />
<line x1="70" y1="656" x2="930" y2="656" stroke="#94a3b8" stroke-width="1" />
<line x1="70" y1="537.80" x2="930" y2="537.80" stroke="#22d3ee" stroke-width="1" stroke-dasharray="4 4" stroke-opacity="0.9" />
<text x="926" y="531.80" fill="#22d3ee" font-size="10" text-anchor="end">目标 8h</text>
<line x1="70" y1="603.13" x2="930" y2="603.13" stroke="#f97316" stroke-width="1" stroke-dasharray="4 4" stroke-opacity="0.9" />
<text x="926" y="597.13" fill="#f97316" font-size="10" text-anchor="end">预警 6h</text>
<path d="M70.00,656.00 L70.00,569.38 L72.36,584.89 L74.73,594.78 L77.09,568.29 L79.45,569.05 L81.81,552.50 L86.54,577.00 L88.90,575.44 L91.26,596.75 L93.63,592.40 L100.71,635.25 L103.08,592.32 L107.80,562.07 L112.53,550.48 L114.89,553.82 L117.25,525.74 L119.62,491.52 L124.34,427.75 L126.70,497.51 L129.07,496.19 L131.43,503.58 L133.79,520.53 L136.15,525.43 L140.88,554.83 L143.24,580.81 L145.60,551.64 L147.97,599.40 L150.33,585.63 L152.69,569.22 L155.05,566.73 L157.42,569.03 L159.78,577.50 L162.14,565.76 L164.51,566.93 L166.87,559.42 L169.23,556.39 L171.59,553.28 L173.96,556.12 L176.32,544.14 L178.68,557.75 L181.04,549.08 L183.41,547.37 L185.77,544.33 L188.13,555.18 L190.49,559.97 L192.86,574.90 L195.22,569.10 L197.58,569.92 L199.95,572.95 L202.31,572.76 L204.67,563.85 L207.03,560.94 L209.40,544.84 L211.76,540.09 L214.12,542.35 L216.48,546.20 L218.85,546.28 L221.21,551.06 L223.57,555.61 L225.93,561.29 L228.30,563.62 L230.66,559.62 L233.02,557.75 L235.38,560.59 L237.75,556.39 L240.11,537.22 L242.47,539.90 L244.84,537.99 L247.20,543.48 L249.56,545.69 L251.92,543.32 L254.29,544.99 L256.65,557.59 L259.01,561.05 L261.37,566.15 L263.74,568.09 L266.10,556.19 L268.46,564.63 L270.82,561.29 L273.19,563.89 L275.55,559.30 L277.91,556.43 L280.27,545.62 L282.64,557.90 L285.00,560.35 L287.36,561.56 L289.73,550.13 L292.09,551.06 L294.45,555.30 L296.81,566.69 L299.18,568.21 L301.54,559.73 L303.90,559.65 L306.26,562.22 L308.63,562.42 L310.99,564.32 L313.35,560.98 L315.71,562.69 L318.08,562.42 L320.44,559.81 L322.80,564.94 L325.16,565.06 L327.53,565.84 L329.89,567.55 L332.25,558.14 L334.62,560.08 L336.98,563.35 L339.34,553.16 L341.70,554.52 L344.07,553.59 L346.43,551.06 L348.79,550.90 L351.15,550.52 L353.52,550.01 L355.88,562.07 L358.24,549.70 L360.60,547.56 L362.97,540.48 L365.33,543.90 L367.69,543.55 L370.05,540.52 L372.42,539.78 L374.78,545.69 L377.14,548.96 L379.51,554.02 L381.87,567.35 L384.23,564.86 L386.59,572.88 L388.96,570.89 L391.32,577.66 L393.68,573.96 L396.04,568.44 L398.41,556.58 L400.77,557.79 L403.13,550.28 L405.49,553.24 L407.86,548.38 L410.22,551.29 L412.58,564.71 L414.95,561.44 L417.31,558.80 L419.67,559.46 L422.03,561.44 L424.40,559.27 L426.76,557.94 L429.12,545.97 L431.48,546.55 L433.85,550.87 L436.21,551.84 L438.57,554.68 L440.93,563.19 L443.30,580.89 L445.66,587.81 L448.02,606.94 L450.38,604.57 L452.75,606.47 L455.11,585.36 L457.47,588.12 L459.84,560.86 L462.20,557.48 L464.56,537.68 L466.92,535.04 L469.29,529.24 L471.65,540.33 L474.01,540.79 L476.37,548.84 L478.74,547.64 L481.10,550.09 L483.46,553.28 L485.82,563.62 L488.19,576.57 L490.55,572.84 L492.91,585.94 L495.27,585.86 L497.64,579.53 L500.00,579.91 L502.36,581.63 L504.73,569.84 L507.09,568.33 L509.45,552.38 L511.81,558.25 L514.18,557.44 L516.54,556.23 L518.90,548.14 L521.26,544.64 L523.63,553.32 L525.99,551.68 L528.35,548.77 L530.71,557.55 L533.08,562.84 L535.44,559.81 L537.80,561.52 L540.16,556.50 L542.53,553.94 L544.89,548.84 L547.25,545.11 L549.62,539.36 L551.98,544.80 L554.34,556.82 L556.70,557.01 L559.07,568.79 L561.43,577.39 L563.79,577.15 L566.15,579.64 L568.52,576.03 L570.88,566.54 L573.24,554.64 L575.60,558.84 L577.97,562.03 L580.33,551.02 L582.69,551.92 L585.05,559.34 L587.42,561.44 L589.78,563.39 L592.14,557.40 L594.51,545.81 L596.87,558.10 L599.23,555.73 L601.59,550.48 L603.96,542.43 L606.32,539.94 L608.68,536.21 L611.04,535.82 L613.41,535.43 L615.77,535.66 L618.13,540.91 L620.49,552.85 L622.86,567.82 L625.22,564.83 L627.58,567.24 L629.95,559.97 L632.31,559.54 L634.67,557.83 L637.03,549.39 L639.40,559.27 L641.76,574.20 L644.12,576.34 L646.48,587.54 L648.85,616.78 L651.21,613.82 L653.57,626.15 L674.84,632.61 L677.20,616.35 L679.56,617.01 L681.92,605.62 L684.29,584.39 L686.65,585.20 L689.01,570.97 L691.37,536.63 L693.74,537.10 L696.10,528.12 L698.46,528.54 L700.82,522.09 L703.19,517.81 L705.55,527.57 L707.91,529.94 L710.27,540.17 L712.64,546.35 L715.00,549.58 L717.36,552.81 L719.73,550.79 L722.09,544.33 L724.45,547.72 L726.81,543.20 L729.18,548.80 L731.54,552.34 L733.90,552.03 L736.26,562.30 L738.63,573.61 L740.99,575.48 L743.35,577.50 L745.71,571.59 L748.08,565.91 L750.44,559.11 L752.80,553.08 L755.16,534.65 L757.53,536.36 L759.89,535.47 L762.25,542.27 L764.62,559.38 L766.98,594.54 L769.34,592.82 L771.70,604.92 L774.07,600.72 L776.43,595.70 L778.79,594.81 L781.15,583.10 L783.52,549.15 L785.88,555.26 L788.24,548.84 L790.60,546.59 L792.97,540.17 L795.33,531.81 L797.69,531.73 L800.05,535.08 L802.42,524.66 L804.78,523.41 L807.14,527.07 L809.51,534.96 L811.87,544.57 L814.23,545.27 L816.59,543.09 L818.96,554.44 L821.32,560.28 L823.68,556.66 L826.04,562.49 L828.41,562.45 L830.77,550.32 L833.13,553.51 L835.49,555.77 L837.86,551.49 L840.22,555.18 L842.58,554.44 L844.95,554.72 L847.31,566.69 L849.67,567.70 L852.03,560.90 L854.40,551.64 L856.76,553.67 L859.12,556.50 L861.48,550.48 L863.85,542.58 L866.21,543.55 L868.57,542.47 L870.93,545.73 L873.30,534.26 L875.66,522.91 L878.02,518.63 L880.38,528.31 L882.75,523.02 L885.11,505.13 L887.47,511.98 L889.84,528.04 L892.20,534.14 L894.56,540.60 L896.92,529.91 L899.29,533.87 L901.65,554.33 L904.01,554.09 L906.37,549.31 L908.74,541.26 L911.10,532.01 L913.46,539.82 L915.82,538.03 L918.19,557.20 L920.55,551.76 L922.91,565.41 L925.27,573.61 L927.64,583.84 L930.00,582.95 L930.00,656.00 Z" fill="#34d399" fill-opacity="0.16" stroke="none" />
<path d="M70.00,569.38 L72.36,584.89 L74.73,594.78 L77.09,568.29 L79.45,569.05 L81.81,552.50 L86.54,577.00 L88.90,575.44 L91.26,596.75 L93.63,592.40 L100.71,635.25 L103.08,592.32 L107.80,562.07 L112.53,550.48 L114.89,553.82 L117.25,525.74 L119.62,491.52 L124.34,427.75 L126.70,497.51 L129.07,496.19 L131.43,503.58 L133.79,520.53 L136.15,525.43 L140.88,554.83 L143.24,580.81 L145.60,551.64 L147.97,599.40 L150.33,585.63 L152.69,569.22 L155.05,566.73 L157.42,569.03 L159.78,577.50 L162.14,565.76 L164.51,566.93 L166.87,559.42 L169.23,556.39 L171.59,553.28 L173.96,556.12 L176.32,544.14 L178.68,557.75 L181.04,549.08 L183.41,547.37 L185.77,544.33 L188.13,555.18 L190.49,559.97 L192.86,574.90 L195.22,569.10 L197.58,569.92 L199.95,572.95 L202.31,572.76 L204.67,563.85 L207.03,560.94 L209.40,544.84 L211.76,540.09 L214.12,542.35 L216.48,546.20 L218.85,546.28 L221.21,551.06 L223.57,555.61 L225.93,561.29 L228.30,563.62 L230.66,559.62 L233.02,557.75 L235.38,560.59 L237.75,556.39 L240.11,537.22 L242.47,539.90 L244.84,537.99 L247.20,543.48 L249.56,545.69 L251.92,543.32 L254.29,544.99 L256.65,557.59 L259.01,561.05 L261.37,566.15 L263.74,568.09 L266.10,556.19 L268.46,564.63 L270.82,561.29 L273.19,563.89 L275.55,559.30 L277.91,556.43 L280.27,545.62 L282.64,557.90 L285.00,560.35 L287.36,561.56 L289.73,550.13 L292.09,551.06 L294.45,555.30 L296.81,566.69 L299.18,568.21 L301.54,559.73 L303.90,559.65 L306.26,562.22 L308.63,562.42 L310.99,564.32 L313.35,560.98 L315.71,562.69 L318.08,562.42 L320.44,559.81 L322.80,564.94 L325.16,565.06 L327.53,565.84 L329.89,567.55 L332.25,558.14 L334.62,560.08 L336.98,563.35 L339.34,553.16 L341.70,554.52 L344.07,553.59 L346.43,551.06 L348.79,550.90 L351.15,550.52 L353.52,550.01 L355.88,562.07 L358.24,549.70 L360.60,547.56 L362.97,540.48 L365.33,543.90 L367.69,543.55 L370.05,540.52 L372.42,539.78 L374.78,545.69 L377.14,548.96 L379.51,554.02 L381.87,567.35 L384.23,564.86 L386.59,572.88 L388.96,570.89 L391.32,577.66 L393.68,573.96 L396.04,568.44 L398.41,556.58 L400.77,557.79 L403.13,550.28 L405.49,553.24 L407.86,548.38 L410.22,551.29 L412.58,564.71 L414.95,561.44 L417.31,558.80 L419.67,559.46 L422.03,561.44 L424.40,559.27 L426.76,557.94 L429.12,545.97 L431.48,546.55 L433.85,550.87 L436.21,551.84 L438.57,554.68 L440.93,563.19 L443.30,580.89 L445.66,587.81 L448.02,606.94 L450.38,604.57 L452.75,606.47 L455.11,585.36 L457.47,588.12 L459.84,560.86 L462.20,557.48 L464.56,537.68 L466.92,535.04 L469.29,529.24 L471.65,540.33 L474.01,540.79 L476.37,548.84 L478.74,547.64 L481.10,550.09 L483.46,553.28 L485.82,563.62 L488.19,576.57 L490.55,572.84 L492.91,585.94 L495.27,585.86 L497.64,579.53 L500.00,579.91 L502.36,581.63 L504.73,569.84 L507.09,568.33 L509.45,552.38 L511.81,558.25 L514.18,557.44 L516.54,556.23 L518.90,548.14 L521.26,544.64 L523.63,553.32 L525.99,551.68 L528.35,548.77 L530.71,557.55 L533.08,562.84 L535.44,559.81 L537.80,561.52 L540.16,556.50 L542.53,553.94 L544.89,548.84 L547.25,545.11 L549.62,539.36 L551.98,544.80 L554.34,556.82 L556.70,557.01 L559.07,568.79 L561.43,577.39 L563.79,577.15 L566.15,579.64 L568.52,576.03 L570.88,566.54 L573.24,554.64 L575.60,558.84 L577.97,562.03 L580.33,551.02 L582.69,551.92 L585.05,559.34 L587.42,561.44 L589.78,563.39 L592.14,557.40 L594.51,545.81 L596.87,558.10 L599.23,555.73 L601.59,550.48 L603.96,542.43 L606.32,539.94 L608.68,536.21 L611.04,535.82 L613.41,535.43 L615.77,535.66 L618.13,540.91 L620.49,552.85 L622.86,567.82 L625.22,564.83 L627.58,567.24 L629.95,559.97 L632.31,559.54 L634.67,557.83 L637.03,549.39 L639.40,559.27 L641.76,574.20 L644.12,576.34 L646.48,587.54 L648.85,616.78 L651.21,613.82 L653.57,626.15 L674.84,632.61 L677.20,616.35 L679.56,617.01 L681.92,605.62 L684.29,584.39 L686.65,585.20 L689.01,570.97 L691.37,536.63 L693.74,537.10 L696.10,528.12 L698.46,528.54 L700.82,522.09 L703.19,517.81 L705.55,527.57 L707.91,529.94 L710.27,540.17 L712.64,546.35 L715.00,549.58 L717.36,552.81 L719.73,550.79 L722.09,544.33 L724.45,547.72 L726.81,543.20 L729.18,548.80 L731.54,552.34 L733.90,552.03 L736.26,562.30 L738.63,573.61 L740.99,575.48 L743.35,577.50 L745.71,571.59 L748.08,565.91 L750.44,559.11 L752.80,553.08 L755.16,534.65 L757.53,536.36 L759.89,535.47 L762.25,542.27 L764.62,559.38 L766.98,594.54 L769.34,592.82 L771.70,604.92 L774.07,600.72 L776.43,595.70 L778.79,594.81 L781.15,583.10 L783.52,549.15 L785.88,555.26 L788.24,548.84 L790.60,546.59 L792.97,540.17 L795.33,531.81 L797.69,531.73 L800.05,535.08 L802.42,524.66 L804.78,523.41 L807.14,527.07 L809.51,534.96 L811.87,544.57 L814.23,545.27 L816.59,543.09 L818.96,554.44 L821.32,560.28 L823.68,556.66 L826.04,562.49 L828.41,562.45 L830.77,550.32 L833.13,553.51 L835.49,555.77 L837.86,551.49 L840.22,555.18 L842.58,554.44 L844.95,554.72 L847.31,566.69 L849.67,567.70 L852.03,560.90 L854.40,551.64 L856.76,553.67 L859.12,556.50 L861.48,550.48 L863.85,542.58 L866.21,543.55 L868.57,542.47 L870.93,545.73 L873.30,534.26 L875.66,522.91 L878.02,518.63 L880.38,528.31 L882.75,523.02 L885.11,505.13 L887.47,511.98 L889.84,528.04 L892.20,534.14 L894.56,540.60 L896.92,529.91 L899.29,533.87 L901.65,554.33 L904.01,554.09 L906.37,549.31 L908.74,541.26 L911.10,532.01 L913.46,539.82 L915.82,538.03 L918.19,557.20 L920.55,551.76 L922.91,565.41 L925.27,573.61 L927.64,583.84 L930.00,582.95" fill="none" stroke="#34d399" stroke-width="2.2" stroke-linecap="round" />
</svg>
