<svg xmlns="http://www.w3.org/2000/svg" viewBox="0 0 960 720" width="960" height="720">
<rect width="960" height="720" fill="#0f172a" />
<text x="480" y="28" fill="#e2e8f0" font-size="16" font-weight="700" text-anchor="middle">睡眠时长趋势图</text>
<text x="70" y="70" fill="#e2e8f0" font-size="13" font-weight="600">本月分天指标明细</text>
<line x1="70" y1="323.00" x2="930" y2="323.00" stroke="#94a3b8" stroke-opacity="0.18" stroke-width="1" />
<text x="62" y="327.00" fill="#cbd5f5" font-size="10" text-anchor="end">1.89</text>
<line x1="70" y1="260.75" x2="930" y2="260.75" stroke="#94a3b8" stroke-opacity="0.18" stroke-width="1" />
<text x="62" y="264.75" fill="#cbd5f5" font-size="10" text-anchor="end">4.44</text>
<line x1="70" y1="198.50" x2="930" y2="198.50" stroke="#94a3b8" stroke-opacity="0.18" stroke-width="1" />
<text x="62" y="202.50" fill="#cbd5f5" font-size="10" text-anchor="end">6.99</text>
<line x1="70" y1="136.25" x2="930" y2="136.25" stroke="#94a3b8" stroke-opacity="0.18" stroke-width="1" />
<text x="62" y="140.25" fill="#cbd5f5" font-size="10" text-anchor="end">9.54</text>
<line x1="70" y1="74.00" x2="930" y2="74.00" stroke="#94a3b8" stroke-opacity="0.18" stroke-width="1" />
<text x="62" y="78.00" fill="#cbd5f5" font-size="10" text-anchor="end">12.1</text>
<line x1="70.00" y1="323" x2="70.00" y2="327" stroke="#94a3b8" stroke-opacity="0.5" stroke-width="1" />
<text x="70.00" y="341" fill="#cbd5f5" font-size="10" text-anchor="middle">11-22</text>
<line x1="242.00" y1="323" x2="242.00" y2="327" stroke="#94a3b8" stroke-opacity="0.5" stroke-width="1" />
<text x="242.00" y="341" fill="#cbd5f5" font-size="10" text-anchor="middle">11-27</text>
<line x1="414.00" y1="323" x2="414.00" y2="327" stroke="#94a3b8" stroke-opacity="0.5" stroke-width="1" />
<text x="414.00" y="341" fill="#cbd5f5" font-size="10" text-anchor="middle">12-03</text>
<line x1="586.00" y1="323" x2="586.00" y2="327" stroke="#94a3b8" stroke-opacity="0.5" stroke-width="1" />
<text x="586.00" y="341" fill="#cbd5f5" font-size="10" text-anchor="middle">12-09</text>
<line x1="758.00" y1="323" x2="758.00" y2="327" stroke="#94a3b8" stroke-opacity="0.5" stroke-width="1" />
<text x="758.00" y="341" fill="#cbd5f5" font-size="10" text-anchor="middle">12-15</text>
<line x1="930.00" y1="323" x2="930.00" y2="327" stroke="#94a3b8" stroke-opacity="0.5" stroke-width="1" />
<text x="930.00" y="341" fill="#cbd5f5" font-size="10" text-anchor="middle">12-21</text>
<line x1="70" y1="74" x2="70" y2="323" stroke="#94a3b8" stroke-width="1" />
<line x1="70" y1="323" x2="930" y2="323" stroke="#94a3b8" stroke-width="1" />
<line x1="70" y1="173.76" x2="930" y2="173.76" stroke="#22d3ee" stroke-width="1" stroke-dasharray="4 4" stroke-opacity="0.9" />
<text x="926" y="167.76" fill="#22d3ee" font-size="10" text-anchor="end">目标 8h</text>
<line x1="70" y1="222.63" x2="930" y2="222.63" stroke="#f97316" stroke-width="1" stroke-dasharray="4 4" stroke-opacity="0.9" />
<text x="926" y="216.63" fill="#f97316" font-size="10" text-anchor="end">预警 6h</text>
<path d="M70.00,188.42 L99.66,154.21 L129.31,113.69 L158.97,149.12 L188.62,146.88 L218.28,199.82 L247.93,186.79 L277.59,94.75 L307.24,190.05 L336.90,197.79 L366.55,181.09 L396.21,180.68 L425.86,143.83 L455.52,207.56 L485.17,201.86 L514.83,188.83 L544.48,172.74 L574.14,138.94 L603.79,132.22 L633.45,184.75 L663.10,198.19 L692.76,302.25 L722.41,160.32 L752.07,244.22 L781.72,181.90 L811.38,185.77 L841.03,168.06 L870.69,192.49 L900.34,203.90 L930.00,271.50" fill="none" stroke="#60a5fa" stroke-width="2.2" stroke-linecap="round" />
<circle cx="70.00" cy="188.42" r="3" fill="#60a5fa" stroke="#0f172a" stroke-width="1" />
<text x="70.00" y="178.42" fill="#e2e8f0" font-size="9" text-anchor="middle">7.4</text>
<circle cx="99.66" cy="154.21" r="3" fill="#60a5fa" stroke="#0f172a" stroke-width="1" />
<text x="99.66" y="134.21" fill="#e2e8f0" font-size="9" text-anchor="middle">8.8</text>
<circle cx="129.31" cy="113.69" r="3" fill="#60a5fa" stroke="#0f172a" stroke-width="1" />
<text x="129.31" y="103.69" fill="#e2e8f0" font-size="9" text-anchor="middle">10.5</text>
<circle cx="158.97" cy="149.12" r="3" fill="#60a5fa" stroke="#0f172a" stroke-width="1" />
<text x="158.97" y="129.12" fill="#e2e8f0" font-size="9" text-anchor="middle">9.01</text>
<circle cx="188.62" cy="146.88" r="3" fill="#60a5fa" stroke="#0f172a" stroke-width="1" />
<text x="188.62" y="136.88" fill="#e2e8f0" font-size="9" text-anchor="middle">9.1</text>
<circle cx="218.28" cy="199.82" r="3" fill="#60a5fa" stroke="#0f172a" stroke-width="1" />
<text x="218.28" y="179.82" fill="#e2e8f0" font-size="9" text-anchor="middle">6.93</text>
<circle cx="247.93" cy="186.79" r="3" fill="#60a5fa" stroke="#0f172a" stroke-width="1" />
<text x="247.93" y="176.79" fill="#e2e8f0" font-size="9" text-anchor="middle">7.47</text>
<circle cx="277.59" cy="94.75" r="3" fill="#60a5fa" stroke="#0f172a" stroke-width="1" />
<text x="277.59" y="108.75" fill="#e2e8f0" font-size="9" text-anchor="middle">11.2</text>
<circle cx="307.24" cy="190.05" r="3" fill="#60a5fa" stroke="#0f172a" stroke-width="1" />
<text x="307.24" y="180.05" fill="#e2e8f0" font-size="9" text-anchor="middle">7.33</text>
<circle cx="336.90" cy="197.79" r="3" fill="#60a5fa" stroke="#0f172a" stroke-width="1" />
<text x="336.90" y="177.79" fill="#e2e8f0" font-size="9" text-anchor="middle">7.02</text>
<circle cx="366.55" cy="181.09" r="3" fill="#60a5fa" stroke="#0f172a" stroke-width="1" />
<text x="366.55" y="171.09" fill="#e2e8f0" font-size="9" text-anchor="middle">7.7</text>
<circle cx="396.21" cy="180.68" r="3" fill="#60a5fa" stroke="#0f172a" stroke-width="1" />
<text x="396.21" y="160.68" fill="#e2e8f0" font-size="9" text-anchor="middle">7.72</text>
<circle cx="425.86" cy="143.83" r="3" fill="#60a5fa" stroke="#0f172a" stroke-width="1" />
<text x="425.86" y="133.83" fill="#e2e8f0" font-size="9" text-anchor="middle">9.23</text>
<circle cx="455.52" cy="207.56" r="3" fill="#60a5fa" stroke="#0f172a" stroke-width="1" />
<text x="455.52" y="187.56" fill="#e2e8f0" font-size="9" text-anchor="middle">6.62</text>
<circle cx="485.17" cy="201.86" r="3" fill="#60a5fa" stroke="#0f172a" stroke-width="1" />
<text x="485.17" y="191.86" fill="#e2e8f0" font-size="9" text-anchor="middle">6.85</text>
<circle cx="514.83" cy="188.83" r="3" fill="#60a5fa" stroke="#0f172a" stroke-width="1" />
<text x="514.83" y="168.83" fill="#e2e8f0" font-size="9" text-anchor="middle">7.38</text>
<circle cx="544.48" cy="172.74" r="3" fill="#60a5fa" stroke="#0f172a" stroke-width="1" />
<text x="544.48" y="162.74" fill="#e2e8f0" font-size="9" text-anchor="middle">8.04</text>
<circle cx="574.14" cy="138.94" r="3" fill="#60a5fa" stroke="#0f172a" stroke-width="1" />
<text x="574.14" y="118.94" fill="#e2e8f0" font-size="9" text-anchor="middle">9.42</text>
<circle cx="603.79" cy="132.22" r="3" fill="#60a5fa" stroke="#0f172a" stroke-width="1" />
<text x="603.79" y="122.22" fill="#e2e8f0" font-size="9" text-anchor="middle">9.7</text>
<circle cx="633.45" cy="184.75" r="3" fill="#60a5fa" stroke="#0f172a" stroke-width="1" />
<text x="633.45" y="164.75" fill="#e2e8f0" font-size="9" text-anchor="middle">7.55</text>
<circle cx="663.10" cy="198.19" r="3" fill="#60a5fa" stroke="#0f172a" stroke-width="1" />
<text x="663.10" y="188.19" fill="#e2e8f0" font-size="9" text-anchor="middle">7</text>
<circle cx="692.76" cy="302.25" r="3" fill="#60a5fa" stroke="#0f172a" stroke-width="1" />
<text x="692.76" y="282.25" fill="#e2e8f0" font-size="9" text-anchor="middle">2.74</text>
<circle cx="722.41" cy="160.32" r="3" fill="#60a5fa" stroke="#0f172a" stroke-width="1" />
<text x="722.41" y="150.32" fill="#e2e8f0" font-size="9" text-anchor="middle">8.55</text>
<circle cx="752.07" cy="244.22" r="3" fill="#60a5fa" stroke="#0f172a" stroke-width="1" />
<text x="752.07" y="224.22" fill="#e2e8f0" font-size="9" text-anchor="middle">5.12</text>
<circle cx="781.72" cy="181.90" r="3" fill="#60a5fa" stroke="#0f172a" stroke-width="1" />
<text x="781.72" y="171.90" fill="#e2e8f0" font-size="9" text-anchor="middle">7.67</text>
<circle cx="811.38" cy="185.77" r="3" fill="#60a5fa" stroke="#0f172a" stroke-width="1" />
<text x="811.38" y="165.77" fill="#e2e8f0" font-size="9" text-anchor="middle">7.51</text>
<circle cx="841.03" cy="168.06" r="3" fill="#60a5fa" stroke="#0f172a" stroke-width="1" />
<text x="841.03" y="158.06" fill="#e2e8f0" font-size="9" text-anchor="middle">8.23</text>
<circle cx="870.69" cy="192.49" r="3" fill="#60a5fa" stroke="#0f172a" stroke-width="1" />
<text x="870.69" y="172.49" fill="#e2e8f0" font-size="9" text-anchor="middle">7.23</text>
<circle cx="900.34" cy="203.90" r="3" fill="#60a5fa" stroke="#0f172a" stroke-width="1" />
<text x="900.34" y="193.90" fill="#e2e8f0" font-size="9" text-anchor="middle">6.77</text>
<circle cx="930.00" cy="271.50" r="3" fill="#60a5fa" stroke="#0f172a" stroke-width="1" />
<text x="930.00" y="251.50" fill="#e2e8f0" font-size="9" text-anchor="middle">4</text>
<text x="70" y="403" fill="#e2e8f0" font-size="13" font-weight="600">本年核心指标趋势（滑动7日窗口平均）</text>
<line x1="70" y1="656.00" x2="930" y2="656.00" stroke="#94a3b8" stroke-opacity="0.18" stroke-width="1" />
<text x="62" y="660.00" fill="#cbd5f5" font-size="10" text-anchor="end">4.38</text>
<line x1="70" y1="593.75" x2="930" y2="593.75" stroke="#94a3b8" stroke-opacity="0.18" stroke-width="1" />
<text x="62" y="597.75" fill="#cbd5f5" font-size="10" text-anchor="end">6.29</text>
<line x1="70" y1="531.50" x2="930" y2="531.50" stroke="#94a3b8" stroke-opacity="0.18" stroke-width="1" />
<text x="62" y="535.50" fill="#cbd5f5" font-size="10" text-anchor="end">8.19</text>
<line x1="70" y1="469.25" x2="930" y2="469.25" stroke="#94a3b8" stroke-opacity="0.18" stroke-width="1" />
<text x="62" y="473.25" fill="#cbd5f5" font-size="10" text-anchor="end">10.1</text>
<line x1="70" y1="407.00" x2="930" y2="407.00" stroke="#94a3b8" stroke-opacity="0.18" stroke-width="1" />
<text x="62" y="411.00" fill="#cbd5f5" font-size="10" text-anchor="end">12</text>
<line x1="70.00" y1="656" x2="70.00" y2="660" stroke="#94a3b8" stroke-opacity="0.5" stroke-width="1" />
<text x="70.00" y="674" fill="#cbd5f5" font-size="10" text-anchor="middle">2024-12</text>
<line x1="242.00" y1="656" x2="242.00" y2="660" stroke="#94a3b8" stroke-opacity="0.5" stroke-width="1" />
<text x="242.00" y="674" fill="#cbd5f5" font-size="10" text-anchor="middle">2025-03</text>
<line x1="414.00" y1="656" x2="414.00" y2="660" stroke="#94a3b8" stroke-opacity="0.5" stroke-width="1" />
<text x="414.00" y="674" fill="#cbd5f5" font-size="10" text-anchor="middle">2025-05</text>
<line x1="586.00" y1="656" x2="586.00" y2="660" stroke="#94a3b8" stroke-opacity="0.5" stroke-width="1" />
<text x="586.00" y="674" fill="#cbd5f5" font-size="10" text-anchor="middle">2025-07</text>
<line x1="758.00" y1="656" x2="758.00" y2="660" stroke="#94a3b8" stroke-opacity="0.5" stroke-width="1" />
<text x="758.00" y="674" fill="#cbd5f5" font-size="10" text-anchor="middle">2025-10</text>
<line x1="930.00" y1="656" x2="930.00" y2="660" stroke="#94a3b8" stroke-opacity="0.5" stroke-width="1" />
<text x="930.00" y="674" fill="#cbd5f5" font-size="10" text-anchor="middle">2025-12</text>
<line x1="70" y1="407" x2="70" y2="656" stroke="#94a3b8" stroke-width="1" />
<line x1="70" y1="656" x2="930" y2="656" stroke="#94a3b8" stroke-width="1" />
<line x1="70" y1="537.80" x2="930" y2="537.80" stroke="#22d3ee" stroke-width="1" stroke-dasharray="4 4" stroke-opacity="0.9" />
<text x="926" y="531.80" fill="#22d3ee" font-size="10" text-anchor="end">目标 8h</text>
<line x1="70" y1="603.13" x2="930" y2="603.13" stroke="#f97316" stroke-width="1" stroke-dasharray="4 4" stroke-opacity="0.9" />
<text x="926" y="597.13" fill="#f97316" font-size="10" text-anchor="end">预警 6h</text>
<path d="M70.00,656.00 L70.00,488.80 L72.36,530.45 L74.73,510.22 L79.45,563.66 L81.81,562.63 L84.18,593.78 L86.54,592.40 L93.63,635.25 L95.99,592.32 L100.71,562.07 L105.44,550.48 L107.80,553.82 L110.16,525.74 L112.53,491.52 L117.25,427.75 L119.62,497.51 L121.98,496.19 L124.34,503.58 L126.70,520.53 L129.07,525.43 L133.79,554.83 L136.15,580.81 L138.52,551.64 L140.88,599.40 L143.24,585.63 L145.60,569.22 L147.97,566.73 L150.33,569.03 L152.69,577.50 L155.05,565.76 L157.42,566.93 L159.78,559.42 L162.14,556.39 L164.51,553.28 L166.87,556.12 L169.23,544.14 L171.59,557.75 L173.96,549.08 L176.32,547.37 L178.68,544.33 L181.04,555.18 L183.41,559.97 L185.77,574.90 L188.13,569.10 L190.49,569.92 L192.86,572.95 L195.22,572.76 L197.58,563.85 L199.95,560.94 L202.31,544.84 L204.67,540.09 L207.03,542.35 L209.40,546.20 L211.76,546.28 L214.12,551.06 L216.48,555.61 L218.85,561.29 L221.21,563.62 L223.57,559.62 L225.93,557.75 L228.30,560.59 L230.66,556.39 L233.02,537.22 L235.38,539.90 L237.75,537.99 L240.11,543.48 L242.47,545.69 L244.84,543.32 L247.20,544.99 L249.56,557.59 L251.92,561.05 L254.29,566.15 L256.65,568.09 L259.01,556.19 L261.37,564.63 L263.74,561.29 L266.10,563.89 L268.46,559.30 L270.82,556.43 L273.19,545.62 L275.55,557.90 L277.91,560.35 L280.27,561.56 L282.64,550.13 L285.00,551.06 L287.36,555.30 L289.73,566.69 L292.09,568.21 L294.45,559.73 L296.81,559.65 L299.18,562.22 L301.54,562.42 L303.90,564.32 L306.26,560.98 L308.63,562.69 L310.99,562.42 L313.35,559.81 L315.71,564.94 L318.08,565.06 L320.44,565.84 L322.80,567.55 L325.16,558.14 L327.53,560.08 L329.89,563.35 L332.25,553.16 L334.62,554.52 L336.98,553.59 L339.34,551.06 L341.70,550.90 L344.07,550.52 L346.43,550.01 L348.79,562.07 L351.15,549.70 L353.52,547.56 L355.88,540.48 L358.24,543.90 L360.60,543.55 L362.97,540.52 L365.33,539.78 L367.69,545.69 L370.05,548.96 L372.42,554.02 L374.78,567.35 L377.14,564.86 L379.51,572.88 L381.87,570.89 L384.23,577.66 L386.59,573.96 L388.96,568.44 L391.32,556.58 L393.68,557.79 L396.04,550.28 L398.41,553.24 L400.77,548.38 L403.13,551.29 L405.49,564.71 L407.86,561.44 L410.22,558.80 L412.58,559.46 L414.95,561.44 L417.31,559.27 L419.67,557.94 L422.03,545.97 L424.40,546.55 L426.76,550.87 L429.12,551.84 L431.48,554.68 L433.85,563.19 L436.21,580.89 L438.57,587.81 L440.93,606.94 L443.30,604.57 L445.66,606.47 L448.02,585.36 L450.38,588.12 L452.75,560.86 L455.11,557.48 L457.47,537.68 L459.84,535.04 L462.20,529.24 L464.56,540.33 L466.92,540.79 L469.29,548.84 L471.65,547.64 L474.01,550.09 L476.37,553.28 L478.74,563.62 L481.10,576.57 L483.46,572.84 L485.82,585.94 L488.19,585.86 L490.55,579.53 L492.91,579.91 L495.27,581.63 L497.64,569.84 L500.00,568.33 L502.36,552.38 L504.73,558.25 L507.09,557.44 L509.45,556.23 L511.81,548.14 L514.18,544.64 L516.54,553.32 L518.90,551.68 L521.26,548.77 L523.63,557.55 L525.99,562.84 L528.35,559.81 L530.71,561.52 L533.08,556.50 L535.44,553.94 L537.80,548.84 L540.16,545.11 L542.53,539.36 L544.89,544.80 L547.25,556.82 L549.62,557.01 L551.98,568.79 L554.34,577.39 L556.70,577.15 L559.07,579.64 L561.43,576.03 L563.79,566.54 L566.15,554.64 L568.52,558.84 L570.88,562.03 L573.24,551.02 L575.60,551.92 L577.97,559.34 L580.33,561.44 L582.69,563.39 L585.05,557.40 L587.42,545.81 L589.78,558.10 L592.14,555.73 L594.51,550.48 L596.87,542.43 L599.23,539.94 L601.59,536.21 L603.96,535.82 L606.32,535.43 L608.68,535.66 L611.04,540.91 L613.41,552.85 L615.77,567.82 L618.13,564.83 L620.49,567.24 L622.86,559.97 L625.22,559.54 L627.58,557.83 L629.95,549.39 L632.31,559.27 L634.67,574.20 L637.03,576.34 L639.40,587.54 L641.76,616.78 L644.12,613.82 L646.48,626.15 L667.75,632.61 L670.11,616.35 L672.47,617.01 L674.84,605.62 L677.20,584.39 L679.56,585.20 L681.92,570.97 L684.29,536.63 L686.65,537.10 L689.01,528.12 L691.37,528.54 L693.74,522.09 L696.10,517.81 L698.46,527.57 L700.82,529.94 L703.19,540.17 L705.55,546.35 L707.91,549.58 L710.27,552.81 L712.64,550.79 L715.00,544.33 L717.36,547.72 L719.73,543.20 L722.09,548.80 L724.45,552.34 L726.81,552.03 L729.18,562.30 L731.54,573.61 L733.90,575.48 L736.26,577.50 L738.63,571.59 L740.99,565.91 L743.35,559.11 L745.71,553.08 L748.08,534.65 L750.44,536.36 L752.80,535.47 L755.16,542.27 L757.53,559.38 L759.89,594.54 L762.25,592.82 L764.62,604.92 L766.98,600.72 L769.34,595.70 L771.70,594.81 L774.07,583.10 L776.43,549.15 L778.79,555.26 L781.15,548.84 L783.52,546.59 L785.88,540.17 L788.24,531.81 L790.60,531.73 L792.97,535.08 L795.33,524.66 L797.69,523.41 L800.05,527.07 L802.42,534.96 L804.78,544.57 L807.14,545.27 L809.51,543.09 L811.87,554.44 L814.23,560.28 L816.59,556.66 L818.96,562.49 L821.32,562.45 L823.68,550.32 L826.04,553.51 L828.41,555.77 L830.77,551.49 L833.13,555.18 L835.49,554.44 L837.86,554.72 L840.22,566.69 L842.58,567.70 L844.95,560.90 L847.31,551.64 L849.67,553.67 L852.03,556.50 L854.40,550.48 L856.76,542.58 L859.12,543.55 L861.48,542.47 L863.85,545.73 L866.21,534.26 L868.57,522.91 L870.93,518.63 L873.30,528.31 L875.66,523.02 L878.02,505.13 L880.38,511.98 L882.75,528.04 L885.11,534.14 L887.47,540.60 L889.84,529.91 L892.20,533.87 L894.56,554.33 L896.92,554.09 L899.29,549.31 L901.65,541.26 L904.01,532.01 L906.37,539.82 L908.74,538.03 L911.10,557.20 L913.46,551.76 L915.82,565.41 L918.19,573.61 L920.55,583.84 L922.91,580.65 L925.27,579.56 L927.64,560.78 L930.00,582.01 L930.00,656.00 Z" fill="#60a5fa" fill-opacity="0.16" stroke="none" />
<path d="M70.00,488.80 L72.36,530.45 L74.73,510.22 L79.45,563.66 L81.81,562.63 L84.18,593.78 L86.54,592.40 L93.63,635.25 L95.99,592.32 L100.71,562.07 L105.44,550.48 L107.80,553.82 L110.16,525.74 L112.53,491.52 L117.25,427.75 L119.62,497.51 L121.98,496.19 L124.34,503.58 L126.70,520.53 L129.07,525.43 L133.79,554.83 L136.15,580.81 L138.52,551.64 L140.88,599.40 L143.24,585.63 L145.60,569.22 L147.97,566.73 L150.33,569.03 L152.69,577.50 L155.05,565.76 L157.42,566.93 L159.78,559.42 L162.14,556.39 L164.51,553.28 L166.87,556.12 L169.23,544.14 L171.59,557.75 L173.96,549.08 L176.32,547.37 L178.68,544.33 L181.04,555.18 L183.41,559.97 L185.77,574.90 L188.13,569.10 L190.49,569.92 L192.86,572.95 L195.22,572.76 L197.58,563.85 L199.95,560.94 L202.31,544.84 L204.67,540.09 L207.03,542.35 L209.40,546.20 L211.76,546.28 L214.12,551.06 L216.48,555.61 L218.85,561.29 L221.21,563.62 L223.57,559.62 L225.93,557.75 L228.30,560.59 L230.66,556.39 L233.02,537.22 L235.38,539.90 L237.75,537.99 L240.11,543.48 L242.47,545.69 L244.84,543.32 L247.20,544.99 L249.56,557.59 L251.92,561.05 L254.29,566.15 L256.65,568.09 L259.01,556.19 L261.37,564.63 L263.74,561.29 L266.10,563.89 L268.46,559.30 L270.82,556.43 L273.19,545.62 L275.55,557.90 L277.91,560.35 L280.27,561.56 L282.64,550.13 L285.00,551.06 L287.36,555.30 L289.73,566.69 L292.09,568.21 L294.45,559.73 L296.81,559.65 L299.18,562.22 L301.54,562.42 L303.90,564.32 L306.26,560.98 L308.63,562.69 L310.99,562.42 L313.35,559.81 L315.71,564.94 L318.08,565.06 L320.44,565.84 L322.80,567.55 L325.16,558.14 L327.53,560.08 L329.89,563.35 L332.25,553.16 L334.62,554.52 L336.98,553.59 L339.34,551.06 L341.70,550.90 L344.07,550.52 L346.43,550.01 L348.79,562.07 L351.15,549.70 L353.52,547.56 L355.88,540.48 L358.24,543.90 L360.60,543.55 L362.97,540.52 L365.33,539.78 L367.69,545.69 L370.05,548.96 L372.42,554.02 L374.78,567.35 L377.14,564.86 L379.51,572.88 L381.87,570.89 L384.23,577.66 L386.59,573.96 L388.96,568.44 L391.32,556.58 L393.68,557.79 L396.04,550.28 L398.41,553.24 L400.77,548.38 L403.13,551.29 L405.49,564.71 L407.86,561.44 L410.22,558.80 L412.58,559.46 L414.95,561.44 L417.31,559.27 L419.67,557.94 L422.03,545.97 L424.40,546.55 L426.76,550.87 L429.12,551.84 L431.48,554.68 L433.85,563.19 L436.21,580.89 L438.57,587.81 L440.93,606.94 L443.30,604.57 L445.66,606.47 L448.02,585.36 L450.38,588.12 L452.75,560.86 L455.11,557.48 L457.47,537.68 L459.84,535.04 L462.20,529.24 L464.56,540.33 L466.92,540.79 L469.29,548.84 L471.65,547.64 L474.01,550.09 L476.37,553.28 L478.74,563.62 L481.10,576.57 L483.46,572.84 L485.82,585.94 L488.19,585.86 L490.55,579.53 L492.91,579.91 L495.27,581.63 L497.64,569.84 L500.00,568.33 L502.36,552.38 L504.73,558.25 L507.09,557.44 L509.45,556.23 L511.81,548.14 L514.18,544.64 L516.54,553.32 L518.90,551.68 L521.26,548.77 L523.63,557.55 L525.99,562.84 L528.35,559.81 L530.71,561.52 L533.08,556.50 L535.44,553.94 L537.80,548.84 L540.16,545.11 L542.53,539.36 L544.89,544.80 L547.25,556.82 L549.62,557.01 L551.98,568.79 L554.34,577.39 L556.70,577.15 L559.07,579.64 L561.43,576.03 L563.79,566.54 L566.15,554.64 L568.52,558.84 L570.88,562.03 L573.24,551.02 L575.60,551.92 L577.97,559.34 L580.33,561.44 L582.69,563.39 L585.05,557.40 L587.42,545.81 L589.78,558.10 L592.14,555.73 L594.51,550.48 L596.87,542.43 L599.23,539.94 L601.59,536.21 L603.96,535.82 L606.32,535.43 L608.68,535.66 L611.04,540.91 L613.41,552.85 L615.77,567.82 L618.13,564.83 L620.49,567.24 L622.86,559.97 L625.22,559.54 L627.58,557.83 L629.95,549.39 L632.31,559.27 L634.67,574.20 L637.03,576.34 L639.40,587.54 L641.76,616.78 L644.12,613.82 L646.48,626.15 L667.75,632.61 L670.11,616.35 L672.47,617.01 L674.84,605.62 L677.20,584.39 L679.56,585.20 L681.92,570.97 L684.29,536.63 L686.65,537.10 L689.01,528.12 L691.37,528.54 L693.74,522.09 L696.10,517.81 L698.46,527.57 L700.82,529.94 L703.19,540.17 L705.55,546.35 L707.91,549.58 L710.27,552.81 L712.64,550.79 L715.00,544.33 L717.36,547.72 L719.73,543.20 L722.09,548.80 L724.45,552.34 L726.81,552.03 L729.18,562.30 L731.54,573.61 L733.90,575.48 L736.26,577.50 L738.63,571.59 L740.99,565.91 L743.35,559.11 L745.71,553.08 L748.08,534.65 L750.44,536.36 L752.80,535.47 L755.16,542.27 L757.53,559.38 L759.89,594.54 L762.25,592.82 L764.62,604.92 L766.98,600.72 L769.34,595.70 L771.70,594.81 L774.07,583.10 L776.43,549.15 L778.79,555.26 L781.15,548.84 L783.52,546.59 L785.88,540.17 L788.24,531.81 L790.60,531.73 L792.97,535.08 L795.33,524.66 L797.69,523.41 L800.05,527.07 L802.42,534.96 L804.78,544.57 L807.14,545.27 L809.51,543.09 L811.87,554.44 L814.23,560.28 L816.59,556.66 L818.96,562.49 L821.32,562.45 L823.68,550.32 L826.04,553.51 L828.41,555.77 L830.77,551.49 L833.13,555.18 L835.49,554.44 L837.86,554.72 L840.22,566.69 L842.58,567.70 L844.95,560.90 L847.31,551.64 L849.67,553.67 L852.03,556.50 L854.40,550.48 L856.76,542.58 L859.12,543.55 L861.48,542.47 L863.85,545.73 L866.21,534.26 L868.57,522.91 L870.93,518.63 L873.30,528.31 L875.66,523.02 L878.02,505.13 L880.38,511.98 L882.75,528.04 L885.11,534.14 L887.47,540.60 L889.84,529.91 L892.20,533.87 L894.56,554.33 L896.92,554.09 L899.29,549.31 L901.65,541.26 L904.01,532.01 L906.37,539.82 L908.74,538.03 L911.10,557.20 L913.46,551.76 L915.82,565.41 L918.19,573.61 L920.55,583.84 L922.91,580.65 L925.27,579.56 L927.64,560.78 L930.00,582.01" fill="none" stroke="#60a5fa" stroke-width="2.2" stroke-linecap="round" />
</svg>
