<svg xmlns="http://www.w3.org/2000/svg" viewBox="0 0 960 640" width="960" height="640">
  <rect width="960" height="640" fill="#0f172a" />
  <line x1="40" y1="40.00" x2="920.00" y2="40.00" stroke="#94a3b8" stroke-opacity="0.18" stroke-width="1" /><line x1="40" y1="128.00" x2="920.00" y2="128.00" stroke="#94a3b8" stroke-opacity="0.18" stroke-width="1" /><line x1="40" y1="216.00" x2="920.00" y2="216.00" stroke="#94a3b8" stroke-opacity="0.18" stroke-width="1" /><line x1="40" y1="304.00" x2="920.00" y2="304.00" stroke="#94a3b8" stroke-opacity="0.18" stroke-width="1" />
  <line x1="40" y1="336.00" x2="920.00" y2="336.00" stroke="#94a3b8" stroke-opacity="0.18" stroke-width="1" /><line x1="40" y1="424.00" x2="920.00" y2="424.00" stroke="#94a3b8" stroke-opacity="0.18" stroke-width="1" /><line x1="40" y1="512.00" x2="920.00" y2="512.00" stroke="#94a3b8" stroke-opacity="0.18" stroke-width="1" /><line x1="40" y1="600.00" x2="920.00" y2="600.00" stroke="#94a3b8" stroke-opacity="0.18" stroke-width="1" />
  <line x1="40" y1="320.00" x2="920.00" y2="320.00" stroke="#1f2937" stroke-width="1" />
  <polyline points="40.00,209.45 71.43,304.00 102.86,210.68 134.29,192.74 165.71,197.97 197.14,58.31 228.57,105.87 260.00,182.47 291.43,168.83 322.86,145.20 354.29,96.66 385.71,103.58 417.14,125.81 448.57,209.03 480.00,181.67 511.43,236.68 542.86,215.81 574.29,248.27 605.71,121.82 637.14,193.41 668.57,124.89 700.00,185.11 731.43,202.58 762.86,129.94 794.29,117.20 825.71,40.00 857.14,242.60 888.57,103.85 920.00,142.25" fill="none" stroke="#60a5fa" stroke-width="2" stroke-linecap="round" stroke-linejoin="round" />
  <polyline points="40.00,337.33 43.01,336.00 46.03,425.30 49.04,457.99 52.05,439.87 55.07,451.99 58.08,473.99 61.10,488.54 64.11,505.97 67.12,493.33 70.14,481.58 73.15,508.73 76.16,522.31 79.18,492.33 82.19,494.83 85.21,511.45 88.22,527.05 91.23,542.66 94.25,543.36 97.26,542.74 100.27,574.88 103.29,573.14 106.30,550.00 109.32,526.46 112.33,518.40 115.34,501.43 118.36,485.72 121.37,483.24 124.38,497.32 127.40,503.01 130.41,494.56 133.42,394.75 136.44,395.40 139.45,428.11 142.47,433.12 145.48,438.99 148.49,456.34 151.51,487.50 154.52,586.91 157.53,600.00 160.55,586.09 163.56,577.94 166.58,553.93 169.59,542.64 172.60,528.66 175.62,520.80 178.63,510.80 181.64,467.05 184.66,453.02 187.67,447.08 190.68,461.23 193.70,480.34 196.71,464.08 199.73,471.95 202.74,516.18 205.75,517.03 208.77,555.61 211.78,538.96 214.79,528.92 217.81,553.78 220.82,550.52 223.84,546.92 226.85,556.06 229.86,533.28 232.88,517.93 235.89,514.94 238.90,507.39 241.92,492.40 244.93,490.53 247.95,467.79 250.96,459.24 253.97,492.66 256.99,483.58 260.00,498.11 263.01,504.88 266.03,477.96 269.04,492.21 272.05,510.84 275.07,504.44 278.08,488.19 281.10,464.88 284.11,469.53 287.12,479.94 290.14,469.45 293.15,468.43 296.16,467.03 299.18,493.07 302.19,504.20 305.21,493.63 308.22,487.94 311.23,501.71 314.25,505.13 317.26,499.49 320.27,482.27 323.29,453.91 326.30,466.80 329.32,461.23 332.33,460.41 335.34,448.50 338.36,447.76 341.37,459.59 344.38,469.15 347.40,445.09 350.41,430.32 353.42,415.13 356.44,390.13 359.45,382.91 362.47,372.89 365.48,380.02 368.49,406.46 371.51,439.20 374.52,450.58 377.53,465.45 380.55,480.00 383.56,479.94 386.58,489.09 389.59,479.57 392.60,476.84 395.62,474.56 398.63,452.06 401.64,436.07 404.66,414.65 407.67,410.90 410.68,407.15 413.70,413.10 416.71,412.97 419.73,429.19 422.74,434.07 425.75,445.67 428.77,448.13 431.78,439.87 434.79,423.28 437.81,432.09 440.82,453.61 443.84,442.81 446.85,448.65 449.86,448.24 452.88,465.96 455.89,492.39 458.90,491.01 461.92,486.09 464.93,494.48 467.95,496.84 470.96,483.15 473.97,491.66 476.99,484.00 480.00,489.17 483.01,476.76 486.03,455.40 489.04,470.01 492.05,488.60 495.07,492.41 498.08,480.89 501.10,457.06 504.11,477.15 507.12,481.74 510.14,474.34 513.15,476.49 516.16,470.63 519.18,476.59 522.19,481.97 525.21,459.66 528.22,471.72 531.23,466.56 534.25,457.78 537.26,439.83 540.27,428.54 543.29,455.39 546.30,459.37 549.32,488.97 552.33,483.56 555.34,478.57 558.36,492.62 561.37,517.95 564.38,492.91 567.40,507.58 570.41,475.47 573.42,477.76 576.44,489.65 579.45,491.52 582.47,481.59 585.48,488.29 588.49,474.72 591.51,463.57 594.52,443.15 597.53,441.97 600.55,442.53 603.56,435.19 606.58,423.41 609.59,438.83 612.60,458.12 615.62,498.45 618.63,500.68 621.64,481.35 624.66,486.39 627.67,509.31 630.68,494.76 633.70,508.27 636.71,493.58 639.73,502.30 642.74,510.58 645.75,492.59 648.77,482.87 651.78,496.98 654.79,505.63 657.81,513.42 660.82,504.47 663.84,495.30 666.85,491.83 669.86,511.92 672.88,498.12 675.89,487.23 678.90,469.72 681.92,470.17 684.93,461.84 687.95,478.64 690.96,452.04 693.97,470.95 696.99,455.32 700.00,464.19 703.01,448.93 706.03,467.85 709.04,462.69 712.05,464.84 715.07,445.16 718.08,429.94 721.10,438.57 724.11,447.57 727.12,447.08 730.14,457.93 733.15,456.38 736.16,481.17 739.18,492.85 742.19,482.21 745.21,472.15 748.22,456.74 751.23,453.23 754.25,460.46 757.26,456.39 760.27,462.20 763.29,463.44 766.30,474.60 769.32,483.99 772.33,479.07 775.34,458.61 778.36,439.27 781.37,467.10 784.38,474.53 787.40,481.14 790.41,501.09 793.42,502.51 796.44,520.59 799.45,542.27 802.47,523.81 805.48,525.03 808.49,521.44 811.51,513.50 814.52,525.14 817.53,525.24 820.55,526.90 823.56,535.66 826.58,530.68 829.59,527.73 832.60,528.64 835.62,524.19 838.63,547.35 841.64,539.37 844.66,531.36 847.67,536.53 850.68,521.33 853.70,510.75 856.71,506.27 859.73,483.83 862.74,472.97 865.75,457.02 868.77,441.35 871.78,452.56 874.79,469.68 877.81,469.54 880.82,480.81 883.84,492.53 886.85,517.69 889.86,520.72 892.88,531.94 895.89,517.98 898.90,518.55 901.92,512.89 904.93,498.63 907.95,476.88 910.96,463.30 913.97,471.46 916.99,467.97 920.00,460.85" fill="none" stroke="#60a5fa" stroke-width="2" stroke-linecap="round" stroke-linejoin="round" />
  
  
  </svg>