<svg xmlns="http://www.w3.org/2000/svg" viewBox="0 0 960 720" width="960" height="720">
<rect width="960" height="720" fill="#0f172a" />
<text x="480" y="28" fill="#e2e8f0" font-size="16" font-weight="700" text-anchor="middle">起床时间趋势图</text>
<text x="70" y="70" fill="#e2e8f0" font-size="13" font-weight="600">本月分天指标明细</text>
<line x1="70" y1="323.00" x2="930" y2="323.00" stroke="#94a3b8" stroke-opacity="0.18" stroke-width="1" />
<text x="62" y="327.00" fill="#cbd5f5" font-size="10" text-anchor="end">00:04</text>
<line x1="70" y1="260.75" x2="930" y2="260.75" stroke="#94a3b8" stroke-opacity="0.18" stroke-width="1" />
<text x="62" y="264.75" fill="#cbd5f5" font-size="10" text-anchor="end">04:37</text>
<line x1="70" y1="198.50" x2="930" y2="198.50" stroke="#94a3b8" stroke-opacity="0.18" stroke-width="1" />
<text x="62" y="202.50" fill="#cbd5f5" font-size="10" text-anchor="end">09:11</text>
<line x1="70" y1="136.25" x2="930" y2="136.25" stroke="#94a3b8" stroke-opacity="0.18" stroke-width="1" />
<text x="62" y="140.25" fill="#cbd5f5" font-size="10" text-anchor="end">13:45</text>
<line x1="70" y1="74.00" x2="930" y2="74.00" stroke="#94a3b8" stroke-opacity="0.18" stroke-width="1" />
<text x="62" y="78.00" fill="#cbd5f5" font-size="10" text-anchor="end">18:18</text>
<line x1="70.00" y1="323" x2="70.00" y2="327" stroke="#94a3b8" stroke-opacity="0.5" stroke-width="1" />
<text x="70.00" y="341" fill="#cbd5f5" font-size="10" text-anchor="middle">11-19</text>
<line x1="242.00" y1="323" x2="242.00" y2="327" stroke="#94a3b8" stroke-opacity="0.5" stroke-width="1" />
<text x="242.00" y="341" fill="#cbd5f5" font-size="10" text-anchor="middle">11-24</text>
<line x1="414.00" y1="323" x2="414.00" y2="327" stroke="#94a3b8" stroke-opacity="0.5" stroke-width="1" />
<text x="414.00" y="341" fill="#cbd5f5" font-size="10" text-anchor="middle">11-30</text>
<line x1="586.00" y1="323" x2="586.00" y2="327" stroke="#94a3b8" stroke-opacity="0.5" stroke-width="1" />
<text x="586.00" y="341" fill="#cbd5f5" font-size="10" text-anchor="middle">12-06</text>
<line x1="758.00" y1="323" x2="758.00" y2="327" stroke="#94a3b8" stroke-opacity="0.5" stroke-width="1" />
<text x="758.00" y="341" fill="#cbd5f5" font-size="10" text-anchor="middle">12-12</text>
<line x1="930.00" y1="323" x2="930.00" y2="327" stroke="#94a3b8" stroke-opacity="0.5" stroke-width="1" />
<text x="930.00" y="341" fill="#cbd5f5" font-size="10" text-anchor="middle">12-18</text>
<line x1="70" y1="74" x2="70" y2="323" stroke="#94a3b8" stroke-width="1" />
<line x1="70" y1="323" x2="930" y2="323" stroke="#94a3b8" stroke-width="1" />
<path d="M70.00,217.84 L99.66,254.93 L129.31,260.61 L158.97,279.95 L188.62,279.73 L218.28,228.53 L247.93,249.24 L277.59,252.88 L307.24,256.75 L336.90,251.74 L366.55,302.25 L396.21,251.74 L425.86,249.92 L455.52,250.15 L485.17,220.11 L514.83,239.00 L544.48,236.04 L574.14,252.20 L603.79,295.42 L633.45,224.44 L663.10,270.85 L692.76,224.21 L722.41,296.56 L752.07,292.24 L781.72,94.75 L811.38,216.02 L841.03,268.12 L870.69,274.72 L900.34,300.66 L930.00,246.96" fill="none" stroke="#60a5fa" stroke-width="2.2" stroke-linecap="round" />
<circle cx="70.00" cy="217.84" r="3" fill="#60a5fa" stroke="#0f172a" stroke-width="1" />
<text x="70.00" y="207.84" fill="#e2e8f0" font-size="9" text-anchor="middle">07:46</text>
<circle cx="99.66" cy="254.93" r="3" fill="#60a5fa" stroke="#0f172a" stroke-width="1" />
<text x="99.66" y="234.93" fill="#e2e8f0" font-size="9" text-anchor="middle">05:03</text>
<circle cx="129.31" cy="260.61" r="3" fill="#60a5fa" stroke="#0f172a" stroke-width="1" />
<text x="129.31" y="250.61" fill="#e2e8f0" font-size="9" text-anchor="middle">04:38</text>
<circle cx="158.97" cy="279.95" r="3" fill="#60a5fa" stroke="#0f172a" stroke-width="1" />
<text x="158.97" y="259.95" fill="#e2e8f0" font-size="9" text-anchor="middle">03:13</text>
<circle cx="188.62" cy="279.73" r="3" fill="#60a5fa" stroke="#0f172a" stroke-width="1" />
<text x="188.62" y="269.73" fill="#e2e8f0" font-size="9" text-anchor="middle">03:14</text>
<circle cx="218.28" cy="228.53" r="3" fill="#60a5fa" stroke="#0f172a" stroke-width="1" />
<text x="218.28" y="208.53" fill="#e2e8f0" font-size="9" text-anchor="middle">06:59</text>
<circle cx="247.93" cy="249.24" r="3" fill="#60a5fa" stroke="#0f172a" stroke-width="1" />
<text x="247.93" y="239.24" fill="#e2e8f0" font-size="9" text-anchor="middle">05:28</text>
<circle cx="277.59" cy="252.88" r="3" fill="#60a5fa" stroke="#0f172a" stroke-width="1" />
<text x="277.59" y="232.88" fill="#e2e8f0" font-size="9" text-anchor="middle">05:12</text>
<circle cx="307.24" cy="256.75" r="3" fill="#60a5fa" stroke="#0f172a" stroke-width="1" />
<text x="307.24" y="246.75" fill="#e2e8f0" font-size="9" text-anchor="middle">04:55</text>
<circle cx="336.90" cy="251.74" r="3" fill="#60a5fa" stroke="#0f172a" stroke-width="1" />
<text x="336.90" y="231.74" fill="#e2e8f0" font-size="9" text-anchor="middle">05:17</text>
<circle cx="366.55" cy="302.25" r="3" fill="#60a5fa" stroke="#0f172a" stroke-width="1" />
<text x="366.55" y="292.25" fill="#e2e8f0" font-size="9" text-anchor="middle">01:35</text>
<circle cx="396.21" cy="251.74" r="3" fill="#60a5fa" stroke="#0f172a" stroke-width="1" />
<text x="396.21" y="231.74" fill="#e2e8f0" font-size="9" text-anchor="middle">05:17</text>
<circle cx="425.86" cy="249.92" r="3" fill="#60a5fa" stroke="#0f172a" stroke-width="1" />
<text x="425.86" y="239.92" fill="#e2e8f0" font-size="9" text-anchor="middle">05:25</text>
<circle cx="455.52" cy="250.15" r="3" fill="#60a5fa" stroke="#0f172a" stroke-width="1" />
<text x="455.52" y="230.15" fill="#e2e8f0" font-size="9" text-anchor="middle">05:24</text>
<circle cx="485.17" cy="220.11" r="3" fill="#60a5fa" stroke="#0f172a" stroke-width="1" />
<text x="485.17" y="210.11" fill="#e2e8f0" font-size="9" text-anchor="middle">07:36</text>
<circle cx="514.83" cy="239.00" r="3" fill="#60a5fa" stroke="#0f172a" stroke-width="1" />
<text x="514.83" y="219.00" fill="#e2e8f0" font-size="9" text-anchor="middle">06:13</text>
<circle cx="544.48" cy="236.04" r="3" fill="#60a5fa" stroke="#0f172a" stroke-width="1" />
<text x="544.48" y="226.04" fill="#e2e8f0" font-size="9" text-anchor="middle">06:26</text>
<circle cx="574.14" cy="252.20" r="3" fill="#60a5fa" stroke="#0f172a" stroke-width="1" />
<text x="574.14" y="232.20" fill="#e2e8f0" font-size="9" text-anchor="middle">05:15</text>
<circle cx="603.79" cy="295.42" r="3" fill="#60a5fa" stroke="#0f172a" stroke-width="1" />
<text x="603.79" y="285.42" fill="#e2e8f0" font-size="9" text-anchor="middle">02:05</text>
<circle cx="633.45" cy="224.44" r="3" fill="#60a5fa" stroke="#0f172a" stroke-width="1" />
<text x="633.45" y="204.44" fill="#e2e8f0" font-size="9" text-anchor="middle">07:17</text>
<circle cx="663.10" cy="270.85" r="3" fill="#60a5fa" stroke="#0f172a" stroke-width="1" />
<text x="663.10" y="260.85" fill="#e2e8f0" font-size="9" text-anchor="middle">03:53</text>
<circle cx="692.76" cy="224.21" r="3" fill="#60a5fa" stroke="#0f172a" stroke-width="1" />
<text x="692.76" y="204.21" fill="#e2e8f0" font-size="9" text-anchor="middle">07:18</text>
<circle cx="722.41" cy="296.56" r="3" fill="#60a5fa" stroke="#0f172a" stroke-width="1" />
<text x="722.41" y="286.56" fill="#e2e8f0" font-size="9" text-anchor="middle">02:00</text>
<circle cx="752.07" cy="292.24" r="3" fill="#60a5fa" stroke="#0f172a" stroke-width="1" />
<text x="752.07" y="272.24" fill="#e2e8f0" font-size="9" text-anchor="middle">02:19</text>
<circle cx="781.72" cy="94.75" r="3" fill="#60a5fa" stroke="#0f172a" stroke-width="1" />
<text x="781.72" y="84.75" fill="#e2e8f0" font-size="9" text-anchor="middle">16:47</text>
<circle cx="811.38" cy="216.02" r="3" fill="#60a5fa" stroke="#0f172a" stroke-width="1" />
<text x="811.38" y="196.02" fill="#e2e8f0" font-size="9" text-anchor="middle">07:54</text>
<circle cx="841.03" cy="268.12" r="3" fill="#60a5fa" stroke="#0f172a" stroke-width="1" />
<text x="841.03" y="258.12" fill="#e2e8f0" font-size="9" text-anchor="middle">04:05</text>
<circle cx="870.69" cy="274.72" r="3" fill="#60a5fa" stroke="#0f172a" stroke-width="1" />
<text x="870.69" y="254.72" fill="#e2e8f0" font-size="9" text-anchor="middle">03:36</text>
<circle cx="900.34" cy="300.66" r="3" fill="#60a5fa" stroke="#0f172a" stroke-width="1" />
<text x="900.34" y="290.66" fill="#e2e8f0" font-size="9" text-anchor="middle">01:42</text>
<circle cx="930.00" cy="246.96" r="3" fill="#60a5fa" stroke="#0f172a" stroke-width="1" />
<text x="930.00" y="226.96" fill="#e2e8f0" font-size="9" text-anchor="middle">05:38</text>
<text x="70" y="403" fill="#e2e8f0" font-size="13" font-weight="600">本年核心指标趋势（滑动7日窗口平均）</text>
<line x1="70" y1="656.00" x2="930" y2="656.00" stroke="#94a3b8" stroke-opacity="0.18" stroke-width="1" />
<text x="62" y="660.00" fill="#cbd5f5" font-size="10" text-anchor="end">02:11</text>
<line x1="70" y1="593.75" x2="930" y2="593.75" stroke="#94a3b8" stroke-opacity="0.18" stroke-width="1" />
<text x="62" y="597.75" fill="#cbd5f5" font-size="10" text-anchor="end">04:26</text>
<line x1="70" y1="531.50" x2="930" y2="531.50" stroke="#94a3b8" stroke-opacity="0.18" stroke-width="1" />
<text x="62" y="535.50" fill="#cbd5f5" font-size="10" text-anchor="end">06:42</text>
<line x1="70" y1="469.25" x2="930" y2="469.25" stroke="#94a3b8" stroke-opacity="0.18" stroke-width="1" />
<text x="62" y="473.25" fill="#cbd5f5" font-size="10" text-anchor="end">08:57</text>
<line x1="70" y1="407.00" x2="930" y2="407.00" stroke="#94a3b8" stroke-opacity="0.18" stroke-width="1" />
<text x="62" y="411.00" fill="#cbd5f5" font-size="10" text-anchor="end">11:13</text>
<line x1="70.00" y1="656" x2="70.00" y2="660" stroke="#94a3b8" stroke-opacity="0.5" stroke-width="1" />
<text x="70.00" y="674" fill="#cbd5f5" font-size="10" text-anchor="middle">2024-12</text>
<line x1="242.00" y1="656" x2="242.00" y2="660" stroke="#94a3b8" stroke-opacity="0.5" stroke-width="1" />
<text x="242.00" y="674" fill="#cbd5f5" font-size="10" text-anchor="middle">2025-03</text>
<line x1="414.00" y1="656" x2="414.00" y2="660" stroke="#94a3b8" stroke-opacity="0.5" stroke-width="1" />
<text x="414.00" y="674" fill="#cbd5f5" font-size="10" text-anchor="middle">2025-05</text>
<line x1="586.00" y1="656" x2="586.00" y2="660" stroke="#94a3b8" stroke-opacity="0.5" stroke-width="1" />
<text x="586.00" y="674" fill="#cbd5f5" font-size="10" text-anchor="middle">2025-07</text>
<line x1="758.00" y1="656" x2="758.00" y2="660" stroke="#94a3b8" stroke-opacity="0.5" stroke-width="1" />
<text x="758.00" y="674" fill="#cbd5f5" font-size="10" text-anchor="middle">2025-10</text>
<line x1="930.00" y1="656" x2="930.00" y2="660" stroke="#94a3b8" stroke-opacity="0.5" stroke-width="1" />
<text x="930.00" y="674" fill="#cbd5f5" font-size="10" text-anchor="middle">2025-12</text>
<line x1="70" y1="407" x2="70" y2="656" stroke="#94a3b8" stroke-width="1" />
<line x1="70" y1="656" x2="930" y2="656" stroke="#94a3b8" stroke-width="1" />
<path d="M70.00,656.00 L70.00,535.97 L72.36,517.81 L74.73,516.81 L77.09,503.21 L79.45,501.22 L81.81,515.97 L84.18,525.06 L86.54,540.82 L88.90,543.84 L91.26,555.66 L95.99,574.64 L100.71,552.25 L103.08,542.40 L105.44,534.00 L107.80,512.19 L110.16,507.66 L112.53,500.57 L114.89,489.93 L117.25,516.27 L119.62,516.27 L121.98,516.27 L124.34,512.13 L126.70,520.60 L129.07,512.19 L131.43,508.25 L133.79,530.45 L136.15,550.28 L138.52,556.98 L140.88,564.99 L143.24,553.56 L145.60,556.32 L147.97,560.26 L150.33,538.07 L152.69,518.24 L155.05,516.59 L157.42,539.18 L159.78,515.87 L162.14,484.88 L164.51,492.50 L166.87,487.96 L169.23,494.86 L171.59,509.04 L173.96,494.33 L176.32,536.10 L178.68,577.86 L181.04,562.43 L183.41,577.86 L185.77,507.20 L188.13,499.65 L190.49,498.86 L192.86,493.28 L195.22,503.66 L197.58,506.02 L199.95,504.18 L202.31,569.91 L204.67,563.41 L207.03,556.26 L209.40,544.57 L211.76,540.56 L214.12,560.72 L216.48,562.69 L218.85,560.66 L221.21,566.96 L223.57,568.08 L225.93,583.51 L228.30,579.89 L230.66,572.08 L233.02,564.07 L235.38,576.81 L237.75,573.33 L240.11,570.90 L242.47,563.94 L244.84,548.57 L247.20,555.86 L249.56,569.32 L251.92,557.04 L254.29,554.94 L256.65,566.37 L259.01,565.58 L261.37,570.90 L263.74,564.92 L266.10,554.48 L268.46,579.37 L270.82,574.84 L273.19,576.55 L275.55,582.00 L277.91,593.42 L280.27,604.58 L282.64,609.44 L285.00,592.70 L287.36,609.38 L289.73,599.79 L292.09,608.26 L294.45,611.22 L296.81,600.25 L299.18,605.31 L301.54,607.87 L303.90,596.38 L306.26,572.87 L308.63,579.37 L310.99,584.49 L313.35,576.94 L315.71,570.64 L318.08,564.00 L320.44,579.37 L322.80,624.55 L325.16,619.95 L327.53,610.10 L329.89,615.42 L332.25,611.22 L334.62,626.19 L336.98,612.07 L339.34,601.63 L341.70,593.36 L344.07,595.39 L346.43,607.21 L348.79,611.28 L351.15,602.68 L353.52,608.66 L355.88,608.33 L358.24,597.49 L360.60,592.17 L362.97,586.07 L365.33,598.22 L367.69,590.01 L370.05,592.11 L372.42,596.90 L374.78,610.95 L377.14,623.63 L379.51,632.82 L381.87,618.57 L384.23,601.10 L386.59,591.25 L388.96,588.30 L391.32,595.72 L393.68,589.02 L396.04,565.71 L398.41,560.06 L400.77,581.14 L403.13,584.75 L405.49,578.91 L407.86,563.02 L410.22,571.42 L412.58,592.70 L414.95,592.77 L417.31,609.44 L419.67,618.05 L422.03,588.50 L424.40,582.59 L426.76,563.02 L429.12,549.16 L431.48,563.08 L433.85,556.85 L436.21,556.65 L438.57,575.76 L440.93,581.80 L443.30,590.53 L445.66,593.88 L448.02,579.96 L450.38,566.50 L452.75,550.35 L455.11,554.09 L457.47,553.17 L459.84,553.37 L462.20,549.89 L464.56,564.46 L466.92,559.80 L469.29,578.45 L471.65,582.00 L474.01,579.76 L476.37,589.61 L478.74,593.55 L481.10,582.52 L483.46,589.02 L485.82,572.87 L488.19,565.05 L490.55,566.17 L492.91,540.76 L495.27,529.40 L497.64,531.76 L500.00,530.45 L502.36,526.84 L504.73,527.49 L507.09,545.36 L509.45,562.36 L511.81,575.17 L514.18,571.82 L516.54,577.40 L518.90,577.79 L521.26,575.69 L523.63,557.50 L525.99,544.50 L528.35,545.29 L530.71,554.61 L533.08,545.88 L535.44,562.56 L537.80,583.24 L540.16,590.66 L542.53,608.20 L544.89,607.67 L547.25,610.69 L549.62,632.69 L551.98,632.82 L554.34,630.46 L556.70,623.76 L559.07,616.73 L561.43,614.63 L563.79,620.67 L566.15,616.80 L568.52,618.37 L570.88,610.49 L573.24,630.78 L575.60,627.24 L577.97,635.25 L580.33,609.44 L582.69,616.27 L585.05,612.53 L587.42,617.45 L589.78,602.35 L592.14,615.48 L594.51,595.52 L596.87,598.15 L599.23,589.22 L601.59,593.62 L603.96,576.94 L606.32,574.12 L608.68,564.79 L611.04,574.71 L613.41,586.66 L615.77,569.52 L618.13,557.37 L620.49,572.87 L622.86,580.22 L625.22,585.61 L627.58,574.90 L629.95,572.02 L632.31,582.19 L634.67,596.38 L637.03,580.03 L639.40,585.67 L641.76,572.87 L644.12,574.77 L646.48,580.55 L648.85,507.20 L651.21,495.32 L653.57,510.03 L674.84,427.75 L677.20,437.47 L679.56,447.38 L681.92,444.03 L684.29,522.83 L686.65,512.92 L689.01,513.44 L691.37,585.94 L693.74,583.11 L696.10,577.01 L698.46,570.50 L700.82,565.25 L703.19,566.89 L705.55,557.17 L707.91,572.47 L710.27,568.60 L712.64,574.71 L715.00,572.15 L717.36,565.78 L719.73,565.65 L722.09,572.34 L724.45,560.66 L726.81,559.01 L729.18,564.59 L731.54,580.42 L733.90,592.77 L736.26,592.31 L738.63,590.20 L740.99,589.55 L743.35,591.45 L745.71,596.97 L748.08,589.55 L750.44,572.74 L752.80,571.29 L755.16,590.27 L757.53,586.86 L759.89,545.09 L762.25,538.26 L764.62,531.76 L766.98,466.16 L769.34,465.18 L771.70,458.55 L774.07,451.72 L776.43,511.08 L778.79,513.25 L781.15,514.82 L783.52,583.51 L785.88,593.62 L788.24,575.17 L790.60,583.31 L792.97,586.40 L795.33,572.15 L797.69,579.37 L800.05,595.59 L802.42,583.77 L804.78,604.06 L807.14,611.15 L809.51,591.85 L811.87,605.83 L814.23,605.70 L816.59,606.95 L818.96,614.24 L821.32,609.31 L823.68,594.87 L826.04,594.60 L828.41,590.73 L830.77,574.25 L833.13,567.35 L835.49,573.53 L837.86,556.65 L840.22,568.08 L842.58,565.51 L844.95,560.39 L847.31,567.42 L849.67,566.70 L852.03,557.63 L854.40,572.67 L856.76,565.71 L859.12,575.56 L861.48,568.01 L863.85,572.87 L866.21,570.57 L868.57,584.03 L870.93,587.18 L873.30,581.86 L875.66,572.93 L878.02,583.05 L880.38,583.57 L882.75,581.01 L885.11,587.45 L887.47,579.37 L889.84,585.54 L892.20,585.80 L894.56,576.35 L896.92,571.23 L899.29,566.70 L901.65,552.25 L904.01,564.86 L906.37,557.50 L908.74,563.48 L911.10,564.66 L913.46,581.27 L915.82,597.49 L918.19,552.05 L920.55,529.14 L922.91,541.74 L925.27,542.86 L927.64,564.92 L930.00,550.61 L930.00,656.00 Z" fill="#60a5fa" fill-opacity="0.16" stroke="none" />
<path d="M70.00,535.97 L72.36,517.81 L74.73,516.81 L77.09,503.21 L79.45,501.22 L81.81,515.97 L84.18,525.06 L86.54,540.82 L88.90,543.84 L91.26,555.66 L95.99,574.64 L100.71,552.25 L103.08,542.40 L105.44,534.00 L107.80,512.19 L110.16,507.66 L112.53,500.57 L114.89,489.93 L117.25,516.27 L119.62,516.27 L121.98,516.27 L124.34,512.13 L126.70,520.60 L129.07,512.19 L131.43,508.25 L133.79,530.45 L136.15,550.28 L138.52,556.98 L140.88,564.99 L143.24,553.56 L145.60,556.32 L147.97,560.26 L150.33,538.07 L152.69,518.24 L155.05,516.59 L157.42,539.18 L159.78,515.87 L162.14,484.88 L164.51,492.50 L166.87,487.96 L169.23,494.86 L171.59,509.04 L173.96,494.33 L176.32,536.10 L178.68,577.86 L181.04,562.43 L183.41,577.86 L185.77,507.20 L188.13,499.65 L190.49,498.86 L192.86,493.28 L195.22,503.66 L197.58,506.02 L199.95,504.18 L202.31,569.91 L204.67,563.41 L207.03,556.26 L209.40,544.57 L211.76,540.56 L214.12,560.72 L216.48,562.69 L218.85,560.66 L221.21,566.96 L223.57,568.08 L225.93,583.51 L228.30,579.89 L230.66,572.08 L233.02,564.07 L235.38,576.81 L237.75,573.33 L240.11,570.90 L242.47,563.94 L244.84,548.57 L247.20,555.86 L249.56,569.32 L251.92,557.04 L254.29,554.94 L256.65,566.37 L259.01,565.58 L261.37,570.90 L263.74,564.92 L266.10,554.48 L268.46,579.37 L270.82,574.84 L273.19,576.55 L275.55,582.00 L277.91,593.42 L280.27,604.58 L282.64,609.44 L285.00,592.70 L287.36,609.38 L289.73,599.79 L292.09,608.26 L294.45,611.22 L296.81,600.25 L299.18,605.31 L301.54,607.87 L303.90,596.38 L306.26,572.87 L308.63,579.37 L310.99,584.49 L313.35,576.94 L315.71,570.64 L318.08,564.00 L320.44,579.37 L322.80,624.55 L325.16,619.95 L327.53,610.10 L329.89,615.42 L332.25,611.22 L334.62,626.19 L336.98,612.07 L339.34,601.63 L341.70,593.36 L344.07,595.39 L346.43,607.21 L348.79,611.28 L351.15,602.68 L353.52,608.66 L355.88,608.33 L358.24,597.49 L360.60,592.17 L362.97,586.07 L365.33,598.22 L367.69,590.01 L370.05,592.11 L372.42,596.90 L374.78,610.95 L377.14,623.63 L379.51,632.82 L381.87,618.57 L384.23,601.10 L386.59,591.25 L388.96,588.30 L391.32,595.72 L393.68,589.02 L396.04,565.71 L398.41,560.06 L400.77,581.14 L403.13,584.75 L405.49,578.91 L407.86,563.02 L410.22,571.42 L412.58,592.70 L414.95,592.77 L417.31,609.44 L419.67,618.05 L422.03,588.50 L424.40,582.59 L426.76,563.02 L429.12,549.16 L431.48,563.08 L433.85,556.85 L436.21,556.65 L438.57,575.76 L440.93,581.80 L443.30,590.53 L445.66,593.88 L448.02,579.96 L450.38,566.50 L452.75,550.35 L455.11,554.09 L457.47,553.17 L459.84,553.37 L462.20,549.89 L464.56,564.46 L466.92,559.80 L469.29,578.45 L471.65,582.00 L474.01,579.76 L476.37,589.61 L478.74,593.55 L481.10,582.52 L483.46,589.02 L485.82,572.87 L488.19,565.05 L490.55,566.17 L492.91,540.76 L495.27,529.40 L497.64,531.76 L500.00,530.45 L502.36,526.84 L504.73,527.49 L507.09,545.36 L509.45,562.36 L511.81,575.17 L514.18,571.82 L516.54,577.40 L518.90,577.79 L521.26,575.69 L523.63,557.50 L525.99,544.50 L528.35,545.29 L530.71,554.61 L533.08,545.88 L535.44,562.56 L537.80,583.24 L540.16,590.66 L542.53,608.20 L544.89,607.67 L547.25,610.69 L549.62,632.69 L551.98,632.82 L554.34,630.46 L556.70,623.76 L559.07,616.73 L561.43,614.63 L563.79,620.67 L566.15,616.80 L568.52,618.37 L570.88,610.49 L573.24,630.78 L575.60,627.24 L577.97,635.25 L580.33,609.44 L582.69,616.27 L585.05,612.53 L587.42,617.45 L589.78,602.35 L592.14,615.48 L594.51,595.52 L596.87,598.15 L599.23,589.22 L601.59,593.62 L603.96,576.94 L606.32,574.12 L608.68,564.79 L611.04,574.71 L613.41,586.66 L615.77,569.52 L618.13,557.37 L620.49,572.87 L622.86,580.22 L625.22,585.61 L627.58,574.90 L629.95,572.02 L632.31,582.19 L634.67,596.38 L637.03,580.03 L639.40,585.67 L641.76,572.87 L644.12,574.77 L646.48,580.55 L648.85,507.20 L651.21,495.32 L653.57,510.03 L674.84,427.75 L677.20,437.47 L679.56,447.38 L681.92,444.03 L684.29,522.83 L686.65,512.92 L689.01,513.44 L691.37,585.94 L693.74,583.11 L696.10,577.01 L698.46,570.50 L700.82,565.25 L703.19,566.89 L705.55,557.17 L707.91,572.47 L710.27,568.60 L712.64,574.71 L715.00,572.15 L717.36,565.78 L719.73,565.65 L722.09,572.34 L724.45,560.66 L726.81,559.01 L729.18,564.59 L731.54,580.42 L733.90,592.77 L736.26,592.31 L738.63,590.20 L740.99,589.55 L743.35,591.45 L745.71,596.97 L748.08,589.55 L750.44,572.74 L752.80,571.29 L755.16,590.27 L757.53,586.86 L759.89,545.09 L762.25,538.26 L764.62,531.76 L766.98,466.16 L769.34,465.18 L771.70,458.55 L774.07,451.72 L776.43,511.08 L778.79,513.25 L781.15,514.82 L783.52,583.51 L785.88,593.62 L788.24,575.17 L790.60,583.31 L792.97,586.40 L795.33,572.15 L797.69,579.37 L800.05,595.59 L802.42,583.77 L804.78,604.06 L807.14,611.15 L809.51,591.85 L811.87,605.83 L814.23,605.70 L816.59,606.95 L818.96,614.24 L821.32,609.31 L823.68,594.87 L826.04,594.60 L828.41,590.73 L830.77,574.25 L833.13,567.35 L835.49,573.53 L837.86,556.65 L840.22,568.08 L842.58,565.51 L844.95,560.39 L847.31,567.42 L849.67,566.70 L852.03,557.63 L854.40,572.67 L856.76,565.71 L859.12,575.56 L861.48,568.01 L863.85,572.87 L866.21,570.57 L868.57,584.03 L870.93,587.18 L873.30,581.86 L875.66,572.93 L878.02,583.05 L880.38,583.57 L882.75,581.01 L885.11,587.45 L887.47,579.37 L889.84,585.54 L892.20,585.80 L894.56,576.35 L896.92,571.23 L899.29,566.70 L901.65,552.25 L904.01,564.86 L906.37,557.50 L908.74,563.48 L911.10,564.66 L913.46,581.27 L915.82,597.49 L918.19,552.05 L920.55,529.14 L922.91,541.74 L925.27,542.86 L927.64,564.92 L930.00,550.61" fill="none" stroke="#60a5fa" stroke-width="2.2" stroke-linecap="round" />
</svg>
