<svg xmlns="http://www.w3.org/2000/svg" viewBox="0 0 960 640" width="960" height="640">
  <rect width="960" height="640" fill="#0f172a" />
  <line x1="40" y1="40.00" x2="920.00" y2="40.00" stroke="#94a3b8" stroke-opacity="0.18" stroke-width="1" /><line x1="40" y1="128.00" x2="920.00" y2="128.00" stroke="#94a3b8" stroke-opacity="0.18" stroke-width="1" /><line x1="40" y1="216.00" x2="920.00" y2="216.00" stroke="#94a3b8" stroke-opacity="0.18" stroke-width="1" /><line x1="40" y1="304.00" x2="920.00" y2="304.00" stroke="#94a3b8" stroke-opacity="0.18" stroke-width="1" />
  <line x1="40" y1="336.00" x2="920.00" y2="336.00" stroke="#94a3b8" stroke-opacity="0.18" stroke-width="1" /><line x1="40" y1="424.00" x2="920.00" y2="424.00" stroke="#94a3b8" stroke-opacity="0.18" stroke-width="1" /><line x1="40" y1="512.00" x2="920.00" y2="512.00" stroke="#94a3b8" stroke-opacity="0.18" stroke-width="1" /><line x1="40" y1="600.00" x2="920.00" y2="600.00" stroke="#94a3b8" stroke-opacity="0.18" stroke-width="1" />
  <line x1="40" y1="320.00" x2="920.00" y2="320.00" stroke="#1f2937" stroke-width="1" />
  <polyline points="40.00,196.61 70.34,243.79 100.69,251.03 131.03,275.63 161.38,275.34 191.72,210.21 222.07,236.55 252.41,241.18 282.76,246.11 313.10,239.74 343.45,304.00 373.79,239.74 404.14,237.42 434.48,237.71 464.83,199.50 495.17,223.53 525.52,219.76 555.86,240.32 586.21,295.32 616.55,205.00 646.90,264.05 677.24,204.71 707.59,296.76 737.93,291.26 768.28,40.00 798.62,194.29 828.97,260.58 859.31,268.97 889.66,301.97 920.00,233.66" fill="none" stroke="#60a5fa" stroke-width="2" stroke-linecap="round" stroke-linejoin="round" />
  <polyline points="40.00,448.03 42.49,440.76 44.97,439.68 47.46,428.23 49.94,428.23 52.43,443.77 54.92,459.81 57.40,479.86 59.89,483.71 62.37,498.74 64.86,522.89 67.34,494.40 69.83,481.87 72.32,471.17 74.80,443.44 77.29,437.67 79.77,428.65 82.26,415.12 84.75,448.62 87.23,448.62 89.72,448.62 92.20,443.35 94.69,454.13 97.18,443.44 99.66,438.43 102.15,466.66 104.63,491.89 107.12,500.42 109.60,510.61 112.09,496.07 114.58,499.58 117.06,504.59 119.55,476.35 122.03,451.12 124.52,449.04 127.01,477.77 129.49,448.12 131.98,408.68 134.46,418.37 136.95,412.61 139.44,421.38 141.92,439.43 144.41,420.71 146.89,473.85 149.38,526.98 151.86,507.35 154.35,526.98 156.84,437.09 159.32,427.48 161.81,426.48 164.29,419.38 166.78,432.58 169.27,435.58 171.75,433.25 174.24,516.87 176.72,508.60 179.21,499.50 181.69,484.63 184.18,479.53 186.67,505.18 189.15,507.68 191.64,505.09 194.12,513.11 196.61,514.53 199.10,534.17 201.58,529.57 204.07,519.63 206.55,509.44 209.04,525.65 211.53,521.22 214.01,518.13 216.50,509.27 218.98,489.72 221.47,498.99 223.95,516.12 226.44,500.50 228.93,497.83 231.41,512.36 233.90,511.36 236.38,518.13 238.87,510.52 241.36,497.24 243.84,528.90 246.33,523.14 248.81,525.31 251.30,532.25 253.79,546.78 256.27,560.98 258.76,567.17 261.24,545.86 263.73,567.08 266.21,554.89 268.70,565.66 271.19,569.42 273.67,555.47 276.16,561.90 278.64,565.16 281.13,550.54 283.62,520.63 286.10,528.90 288.59,535.42 291.07,525.81 293.56,517.79 296.05,509.35 298.53,528.90 301.02,586.38 303.50,580.53 305.99,568.00 308.47,574.77 310.96,569.42 313.45,588.47 315.93,570.51 318.42,557.23 320.90,546.70 323.39,549.29 325.88,564.33 328.36,569.51 330.85,558.56 333.33,566.16 335.82,565.75 338.31,551.96 340.79,545.19 343.28,537.43 345.76,552.88 348.25,542.44 350.73,545.11 353.22,551.21 355.71,569.09 358.19,585.21 360.68,596.91 363.16,578.78 365.65,556.56 368.14,544.03 370.62,540.27 373.11,549.71 375.59,541.18 378.08,511.53 380.56,504.34 383.05,531.16 385.54,535.75 388.02,528.32 390.51,508.10 392.99,518.79 395.48,545.86 397.97,545.95 400.45,567.17 402.94,578.11 405.42,540.52 407.91,533.00 410.40,508.10 412.88,490.47 415.37,508.18 417.85,500.25 420.34,500.00 422.82,524.31 425.31,531.99 427.80,543.11 430.28,547.37 432.77,529.66 435.25,512.53 437.74,491.98 440.23,496.74 442.71,495.57 445.20,495.82 447.68,491.39 450.17,509.94 452.66,504.01 455.14,527.73 457.63,532.25 460.11,529.41 462.60,541.94 465.08,546.95 467.57,532.91 470.06,541.18 472.54,520.63 475.03,510.69 477.51,512.11 480.00,479.78 482.49,465.33 484.97,468.33 487.46,466.66 489.94,462.07 492.43,462.90 494.92,485.63 497.40,507.27 499.89,523.56 502.37,519.30 504.86,526.40 507.34,526.90 509.83,524.23 512.32,501.08 514.80,484.54 517.29,485.54 519.77,497.41 522.26,486.30 524.75,507.52 527.23,533.83 529.72,543.27 532.20,565.58 534.69,564.91 537.18,568.75 539.66,596.74 542.15,596.91 544.63,593.90 547.12,585.38 549.60,576.44 552.09,573.77 554.58,581.45 557.06,576.52 559.55,578.53 562.03,568.50 564.52,594.32 567.01,589.81 569.49,600.00 571.98,567.17 574.46,575.86 576.95,571.09 579.44,577.36 581.92,558.14 584.41,574.85 586.89,549.46 589.38,552.80 591.86,541.44 594.35,547.03 596.84,525.81 599.32,522.22 601.81,510.36 604.29,522.97 606.78,538.18 609.27,516.37 611.75,500.92 614.24,520.63 616.72,529.99 619.21,536.84 621.69,523.22 624.18,519.55 626.67,532.50 629.15,550.54 631.64,529.74 634.12,536.92 636.61,520.63 639.10,523.06 641.58,530.41 644.07,437.09 646.55,421.97 649.04,440.68 651.53,336.00 654.01,348.36 656.50,360.98 658.98,356.72 661.47,456.97 663.95,444.36 666.44,445.03 668.93,537.26 671.41,533.67 673.90,525.90 676.38,517.63 678.87,510.94 681.36,513.03 683.84,500.67 686.33,520.13 688.81,515.20 691.30,522.97 693.79,519.71 696.27,511.61 698.76,511.44 701.24,519.96 703.73,505.09 706.21,503.01 708.70,510.11 711.19,530.24 713.67,545.95 716.16,545.36 718.64,542.69 721.13,541.85 723.62,544.28 726.10,551.29 728.59,541.85 731.07,520.47 733.56,518.63 736.05,542.77 738.53,538.43 741.02,485.29 743.50,476.61 745.99,468.33 748.47,384.87 750.96,383.62 753.45,375.18 755.93,366.49 758.42,442.02 760.90,444.77 763.39,446.78 765.88,534.17 768.36,547.03 770.85,523.56 773.33,533.92 775.82,537.84 778.31,519.71 780.79,528.90 783.28,549.54 785.76,534.50 788.25,560.32 790.73,569.34 793.22,544.78 795.71,562.57 798.19,562.41 800.68,563.99 803.16,573.27 805.65,567.00 808.14,548.62 810.62,548.29 813.11,543.36 815.59,522.39 818.08,513.62 820.56,521.47 823.05,500.00 825.54,514.53 828.02,511.28 830.51,504.76 832.99,513.70 835.48,512.78 837.97,501.25 840.45,520.38 842.94,511.53 845.42,524.06 847.91,514.45 850.40,520.63 852.88,517.71 855.37,534.84 857.85,538.85 860.34,532.08 862.82,520.72 865.31,533.58 867.80,534.25 870.28,530.99 872.77,539.18 875.25,528.90 877.74,536.76 880.23,537.09 882.71,525.06 885.20,518.54 887.68,512.78 890.17,494.40 892.66,510.44 895.14,501.08 897.63,508.69 900.11,510.19 902.60,531.33 905.08,551.96 907.57,494.15 910.06,464.99 912.54,481.03 915.03,482.45 917.51,510.52 920.00,492.31" fill="none" stroke="#60a5fa" stroke-width="2" stroke-linecap="round" stroke-linejoin="round" />
  
  
  </svg>