<svg xmlns="http://www.w3.org/2000/svg" viewBox="0 0 960 720" width="960" height="720">
<rect width="960" height="720" fill="#0f172a" />
<text x="480" y="28" fill="#e2e8f0" font-size="16" font-weight="700" text-anchor="middle">入睡时间趋势图</text>
<text x="70" y="70" fill="#e2e8f0" font-size="13" font-weight="600">本月分天指标明细</text>
<line x1="70" y1="323.00" x2="930" y2="323.00" stroke="#94a3b8" stroke-opacity="0.18" stroke-width="1" />
<text x="62" y="327.00" fill="#cbd5f5" font-size="10" text-anchor="end">23:02</text>
<line x1="70" y1="260.75" x2="930" y2="260.75" stroke="#94a3b8" stroke-opacity="0.18" stroke-width="1" />
<text x="62" y="264.75" fill="#cbd5f5" font-size="10" text-anchor="end">03:22</text>
<line x1="70" y1="198.50" x2="930" y2="198.50" stroke="#94a3b8" stroke-opacity="0.18" stroke-width="1" />
<text x="62" y="202.50" fill="#cbd5f5" font-size="10" text-anchor="end">07:42</text>
<line x1="70" y1="136.25" x2="930" y2="136.25" stroke="#94a3b8" stroke-opacity="0.18" stroke-width="1" />
<text x="62" y="140.25" fill="#cbd5f5" font-size="10" text-anchor="end">12:02</text>
<line x1="70" y1="74.00" x2="930" y2="74.00" stroke="#94a3b8" stroke-opacity="0.18" stroke-width="1" />
<text x="62" y="78.00" fill="#cbd5f5" font-size="10" text-anchor="end">16:22</text>
<line x1="70.00" y1="323" x2="70.00" y2="327" stroke="#94a3b8" stroke-opacity="0.5" stroke-width="1" />
<text x="70.00" y="341" fill="#cbd5f5" font-size="10" text-anchor="middle">11-19</text>
<line x1="242.00" y1="323" x2="242.00" y2="327" stroke="#94a3b8" stroke-opacity="0.5" stroke-width="1" />
<text x="242.00" y="341" fill="#cbd5f5" font-size="10" text-anchor="middle">11-24</text>
<line x1="414.00" y1="323" x2="414.00" y2="327" stroke="#94a3b8" stroke-opacity="0.5" stroke-width="1" />
<text x="414.00" y="341" fill="#cbd5f5" font-size="10" text-anchor="middle">11-30</text>
<line x1="586.00" y1="323" x2="586.00" y2="327" stroke="#94a3b8" stroke-opacity="0.5" stroke-width="1" />
<text x="586.00" y="341" fill="#cbd5f5" font-size="10" text-anchor="middle">12-06</text>
<line x1="758.00" y1="323" x2="758.00" y2="327" stroke="#94a3b8" stroke-opacity="0.5" stroke-width="1" />
<text x="758.00" y="341" fill="#cbd5f5" font-size="10" text-anchor="middle">12-12</text>
<line x1="930.00" y1="323" x2="930.00" y2="327" stroke="#94a3b8" stroke-opacity="0.5" stroke-width="1" />
<text x="930.00" y="341" fill="#cbd5f5" font-size="10" text-anchor="middle">12-18</text>
<line x1="70" y1="74" x2="70" y2="323" stroke="#94a3b8" stroke-width="1" />
<line x1="70" y1="323" x2="930" y2="323" stroke="#94a3b8" stroke-width="1" />
<path d="M70.00,222.94 L99.66,249.06 L129.31,253.37 L158.97,274.70 L188.62,277.57 L218.28,221.98 L247.93,251.69 L277.59,251.21 L307.24,253.37 L336.90,247.14 L366.55,302.25 L396.21,249.06 L425.86,243.31 L455.52,248.10 L485.17,215.51 L514.83,229.17 L544.48,228.21 L574.14,253.61 L603.79,292.19 L633.45,221.02 L663.10,271.82 L692.76,216.23 L722.41,297.70 L752.07,294.58 L781.72,94.75 L811.38,213.60 L841.03,261.04 L870.69,276.13 L900.34,298.90 L930.00,255.29" fill="none" stroke="#a855f7" stroke-width="2.2" stroke-linecap="round" />
<circle cx="70.00" cy="222.94" r="3" fill="#a855f7" stroke="#0f172a" stroke-width="1" />
<text x="70.00" y="212.94" fill="#e2e8f0" font-size="9" text-anchor="middle">06:00</text>
<circle cx="99.66" cy="249.06" r="3" fill="#a855f7" stroke="#0f172a" stroke-width="1" />
<text x="99.66" y="229.06" fill="#e2e8f0" font-size="9" text-anchor="middle">04:11</text>
<circle cx="129.31" cy="253.37" r="3" fill="#a855f7" stroke="#0f172a" stroke-width="1" />
<text x="129.31" y="243.37" fill="#e2e8f0" font-size="9" text-anchor="middle">03:53</text>
<circle cx="158.97" cy="274.70" r="3" fill="#a855f7" stroke="#0f172a" stroke-width="1" />
<text x="158.97" y="254.70" fill="#e2e8f0" font-size="9" text-anchor="middle">02:24</text>
<circle cx="188.62" cy="277.57" r="3" fill="#a855f7" stroke="#0f172a" stroke-width="1" />
<text x="188.62" y="267.57" fill="#e2e8f0" font-size="9" text-anchor="middle">02:12</text>
<circle cx="218.28" cy="221.98" r="3" fill="#a855f7" stroke="#0f172a" stroke-width="1" />
<text x="218.28" y="201.98" fill="#e2e8f0" font-size="9" text-anchor="middle">06:04</text>
<circle cx="247.93" cy="251.69" r="3" fill="#a855f7" stroke="#0f172a" stroke-width="1" />
<text x="247.93" y="241.69" fill="#e2e8f0" font-size="9" text-anchor="middle">04:00</text>
<circle cx="277.59" cy="251.21" r="3" fill="#a855f7" stroke="#0f172a" stroke-width="1" />
<text x="277.59" y="231.21" fill="#e2e8f0" font-size="9" text-anchor="middle">04:02</text>
<circle cx="307.24" cy="253.37" r="3" fill="#a855f7" stroke="#0f172a" stroke-width="1" />
<text x="307.24" y="243.37" fill="#e2e8f0" font-size="9" text-anchor="middle">03:53</text>
<circle cx="336.90" cy="247.14" r="3" fill="#a855f7" stroke="#0f172a" stroke-width="1" />
<text x="336.90" y="227.14" fill="#e2e8f0" font-size="9" text-anchor="middle">04:19</text>
<circle cx="366.55" cy="302.25" r="3" fill="#a855f7" stroke="#0f172a" stroke-width="1" />
<text x="366.55" y="292.25" fill="#e2e8f0" font-size="9" text-anchor="middle">00:29</text>
<circle cx="396.21" cy="249.06" r="3" fill="#a855f7" stroke="#0f172a" stroke-width="1" />
<text x="396.21" y="229.06" fill="#e2e8f0" font-size="9" text-anchor="middle">04:11</text>
<circle cx="425.86" cy="243.31" r="3" fill="#a855f7" stroke="#0f172a" stroke-width="1" />
<text x="425.86" y="233.31" fill="#e2e8f0" font-size="9" text-anchor="middle">04:35</text>
<circle cx="455.52" cy="248.10" r="3" fill="#a855f7" stroke="#0f172a" stroke-width="1" />
<text x="455.52" y="228.10" fill="#e2e8f0" font-size="9" text-anchor="middle">04:15</text>
<circle cx="485.17" cy="215.51" r="3" fill="#a855f7" stroke="#0f172a" stroke-width="1" />
<text x="485.17" y="205.51" fill="#e2e8f0" font-size="9" text-anchor="middle">06:31</text>
<circle cx="514.83" cy="229.17" r="3" fill="#a855f7" stroke="#0f172a" stroke-width="1" />
<text x="514.83" y="209.17" fill="#e2e8f0" font-size="9" text-anchor="middle">05:34</text>
<circle cx="544.48" cy="228.21" r="3" fill="#a855f7" stroke="#0f172a" stroke-width="1" />
<text x="544.48" y="218.21" fill="#e2e8f0" font-size="9" text-anchor="middle">05:38</text>
<circle cx="574.14" cy="253.61" r="3" fill="#a855f7" stroke="#0f172a" stroke-width="1" />
<text x="574.14" y="233.61" fill="#e2e8f0" font-size="9" text-anchor="middle">03:52</text>
<circle cx="603.79" cy="292.19" r="3" fill="#a855f7" stroke="#0f172a" stroke-width="1" />
<text x="603.79" y="282.19" fill="#e2e8f0" font-size="9" text-anchor="middle">01:11</text>
<circle cx="633.45" cy="221.02" r="3" fill="#a855f7" stroke="#0f172a" stroke-width="1" />
<text x="633.45" y="201.02" fill="#e2e8f0" font-size="9" text-anchor="middle">06:08</text>
<circle cx="663.10" cy="271.82" r="3" fill="#a855f7" stroke="#0f172a" stroke-width="1" />
<text x="663.10" y="261.82" fill="#e2e8f0" font-size="9" text-anchor="middle">02:36</text>
<circle cx="692.76" cy="216.23" r="3" fill="#a855f7" stroke="#0f172a" stroke-width="1" />
<text x="692.76" y="196.23" fill="#e2e8f0" font-size="9" text-anchor="middle">06:28</text>
<circle cx="722.41" cy="297.70" r="3" fill="#a855f7" stroke="#0f172a" stroke-width="1" />
<text x="722.41" y="287.70" fill="#e2e8f0" font-size="9" text-anchor="middle">00:48</text>
<circle cx="752.07" cy="294.58" r="3" fill="#a855f7" stroke="#0f172a" stroke-width="1" />
<text x="752.07" y="274.58" fill="#e2e8f0" font-size="9" text-anchor="middle">01:01</text>
<circle cx="781.72" cy="94.75" r="3" fill="#a855f7" stroke="#0f172a" stroke-width="1" />
<text x="781.72" y="84.75" fill="#e2e8f0" font-size="9" text-anchor="middle">14:55</text>
<circle cx="811.38" cy="213.60" r="3" fill="#a855f7" stroke="#0f172a" stroke-width="1" />
<text x="811.38" y="193.60" fill="#e2e8f0" font-size="9" text-anchor="middle">06:39</text>
<circle cx="841.03" cy="261.04" r="3" fill="#a855f7" stroke="#0f172a" stroke-width="1" />
<text x="841.03" y="251.04" fill="#e2e8f0" font-size="9" text-anchor="middle">03:21</text>
<circle cx="870.69" cy="276.13" r="3" fill="#a855f7" stroke="#0f172a" stroke-width="1" />
<text x="870.69" y="256.13" fill="#e2e8f0" font-size="9" text-anchor="middle">02:18</text>
<circle cx="900.34" cy="298.90" r="3" fill="#a855f7" stroke="#0f172a" stroke-width="1" />
<text x="900.34" y="288.90" fill="#e2e8f0" font-size="9" text-anchor="middle">00:43</text>
<circle cx="930.00" cy="255.29" r="3" fill="#a855f7" stroke="#0f172a" stroke-width="1" />
<text x="930.00" y="235.29" fill="#e2e8f0" font-size="9" text-anchor="middle">03:45</text>
<text x="70" y="403" fill="#e2e8f0" font-size="13" font-weight="600">本年核心指标趋势（滑动7日窗口平均）</text>
<line x1="70" y1="656.00" x2="930" y2="656.00" stroke="#94a3b8" stroke-opacity="0.18" stroke-width="1" />
<text x="62" y="660.00" fill="#cbd5f5" font-size="10" text-anchor="end">22:26</text>
<line x1="70" y1="593.75" x2="930" y2="593.75" stroke="#94a3b8" stroke-opacity="0.18" stroke-width="1" />
<text x="62" y="597.75" fill="#cbd5f5" font-size="10" text-anchor="end">03:32</text>
<line x1="70" y1="531.50" x2="930" y2="531.50" stroke="#94a3b8" stroke-opacity="0.18" stroke-width="1" />
<text x="62" y="535.50" fill="#cbd5f5" font-size="10" text-anchor="end">08:37</text>
<line x1="70" y1="469.25" x2="930" y2="469.25" stroke="#94a3b8" stroke-opacity="0.18" stroke-width="1" />
<text x="62" y="473.25" fill="#cbd5f5" font-size="10" text-anchor="end">13:43</text>
<line x1="70" y1="407.00" x2="930" y2="407.00" stroke="#94a3b8" stroke-opacity="0.18" stroke-width="1" />
<text x="62" y="411.00" fill="#cbd5f5" font-size="10" text-anchor="end">18:48</text>
<line x1="70.00" y1="656" x2="70.00" y2="660" stroke="#94a3b8" stroke-opacity="0.5" stroke-width="1" />
<text x="70.00" y="674" fill="#cbd5f5" font-size="10" text-anchor="middle">2024-12</text>
<line x1="242.00" y1="656" x2="242.00" y2="660" stroke="#94a3b8" stroke-opacity="0.5" stroke-width="1" />
<text x="242.00" y="674" fill="#cbd5f5" font-size="10" text-anchor="middle">2025-03</text>
<line x1="414.00" y1="656" x2="414.00" y2="660" stroke="#94a3b8" stroke-opacity="0.5" stroke-width="1" />
<text x="414.00" y="674" fill="#cbd5f5" font-size="10" text-anchor="middle">2025-05</text>
<line x1="586.00" y1="656" x2="586.00" y2="660" stroke="#94a3b8" stroke-opacity="0.5" stroke-width="1" />
<text x="586.00" y="674" fill="#cbd5f5" font-size="10" text-anchor="middle">2025-07</text>
<line x1="758.00" y1="656" x2="758.00" y2="660" stroke="#94a3b8" stroke-opacity="0.5" stroke-width="1" />
<text x="758.00" y="674" fill="#cbd5f5" font-size="10" text-anchor="middle">2025-10</text>
<line x1="930.00" y1="656" x2="930.00" y2="660" stroke="#94a3b8" stroke-opacity="0.5" stroke-width="1" />
<text x="930.00" y="674" fill="#cbd5f5" font-size="10" text-anchor="middle">2025-12</text>
<line x1="70" y1="407" x2="70" y2="656" stroke="#94a3b8" stroke-width="1" />
<line x1="70" y1="656" x2="930" y2="656" stroke="#94a3b8" stroke-width="1" />
<path d="M70.00,656.00 L70.00,635.25 L72.36,625.27 L74.73,622.41 L77.09,625.52 L79.45,623.76 L81.81,625.40 L84.18,585.15 L86.54,584.98 L88.90,587.68 L91.26,585.09 L95.99,547.31 L100.71,526.70 L103.08,526.61 L105.44,529.96 L107.80,525.65 L110.16,486.00 L112.53,489.17 L114.89,526.49 L117.25,549.69 L119.62,548.82 L121.98,545.56 L124.34,547.71 L126.70,546.26 L129.07,548.56 L131.43,508.33 L133.79,467.84 L136.15,427.75 L138.52,428.97 L140.88,430.69 L143.24,471.18 L145.60,471.04 L147.97,511.21 L150.33,549.55 L152.69,590.10 L155.05,621.71 L157.42,621.92 L159.78,598.34 L162.14,574.50 L164.51,567.95 L166.87,557.76 L169.23,550.86 L171.59,557.38 L173.96,551.24 L176.32,569.96 L178.68,587.19 L181.04,580.46 L183.41,587.30 L185.77,555.84 L188.13,552.23 L190.49,551.85 L192.86,549.37 L195.22,554.15 L197.58,555.28 L199.95,554.26 L202.31,583.96 L204.67,581.05 L207.03,577.67 L209.40,572.23 L211.76,571.21 L214.12,580.14 L216.48,581.34 L218.85,580.23 L221.21,583.70 L223.57,583.81 L225.93,591.12 L228.30,589.31 L230.66,585.82 L233.02,582.01 L235.38,588.15 L237.75,586.72 L240.11,587.65 L242.47,584.74 L244.84,580.81 L247.20,584.51 L249.56,590.62 L251.92,585.12 L254.29,583.72 L256.65,586.32 L259.01,585.94 L261.37,585.09 L263.74,581.95 L266.10,577.17 L268.46,546.72 L270.82,544.80 L273.19,546.26 L275.55,548.79 L277.91,553.77 L280.27,559.04 L282.64,561.40 L285.00,594.76 L287.36,603.23 L289.73,598.83 L292.09,602.41 L294.45,604.45 L296.81,599.09 L299.18,600.64 L301.54,602.30 L303.90,596.36 L306.26,586.40 L308.63,588.41 L310.99,589.11 L313.35,586.05 L315.71,583.72 L318.08,580.78 L320.44,588.12 L322.80,607.65 L325.16,605.62 L327.53,601.89 L329.89,603.75 L332.25,601.98 L334.62,608.96 L336.98,602.06 L339.34,597.52 L341.70,594.50 L344.07,596.94 L346.43,602.79 L348.79,605.03 L351.15,601.02 L353.52,604.01 L355.88,604.07 L358.24,599.21 L360.60,595.22 L362.97,593.24 L365.33,597.76 L367.69,594.18 L370.05,595.69 L372.42,597.12 L374.78,603.87 L377.14,609.84 L379.51,612.95 L381.87,606.63 L384.23,598.95 L386.59,593.01 L388.96,592.66 L391.32,595.86 L393.68,591.90 L396.04,583.55 L398.41,581.10 L400.77,589.63 L403.13,592.37 L405.49,588.99 L407.86,581.42 L410.22,585.94 L412.58,593.01 L414.95,593.30 L417.31,601.48 L419.67,604.95 L422.03,592.52 L424.40,590.25 L426.76,581.69 L429.12,576.21 L431.48,583.00 L433.85,580.38 L436.21,580.58 L438.57,590.30 L440.93,593.07 L443.30,596.50 L445.66,597.81 L448.02,591.26 L450.38,585.03 L452.75,577.64 L455.11,578.02 L457.47,577.81 L459.84,579.24 L462.20,578.25 L464.56,585.21 L466.92,582.68 L469.29,591.21 L471.65,593.04 L474.01,591.29 L476.37,594.87 L478.74,595.95 L481.10,590.77 L483.46,593.80 L485.82,586.46 L488.19,582.04 L490.55,582.27 L492.91,570.65 L495.27,565.33 L497.64,565.70 L500.00,564.92 L502.36,562.79 L504.73,563.43 L507.09,572.43 L509.45,580.06 L511.81,585.97 L514.18,585.21 L516.54,588.09 L518.90,588.27 L521.26,587.48 L523.63,578.40 L525.99,572.52 L528.35,572.66 L530.71,576.24 L533.08,572.08 L535.44,579.82 L537.80,589.52 L540.16,593.62 L542.53,601.86 L544.89,602.53 L547.25,604.33 L549.62,614.26 L551.98,614.64 L554.34,613.39 L556.70,609.43 L559.07,606.14 L561.43,604.10 L563.79,606.52 L566.15,604.98 L568.52,605.03 L570.88,601.42 L573.24,611.44 L575.60,610.13 L577.97,614.79 L580.33,603.40 L582.69,564.28 L585.05,562.62 L587.42,564.37 L589.78,557.09 L592.14,562.30 L594.51,553.51 L596.87,554.41 L599.23,591.99 L601.59,594.26 L603.96,588.53 L606.32,587.71 L608.68,583.61 L611.04,587.68 L613.41,593.91 L615.77,586.37 L618.13,580.93 L620.49,586.32 L622.86,589.02 L625.22,591.32 L627.58,586.58 L629.95,584.54 L632.31,591.32 L634.67,597.23 L637.03,591.03 L639.40,596.47 L641.76,590.77 L644.12,592.05 L646.48,594.23 L648.85,558.51 L651.21,553.92 L653.57,559.62 L674.84,519.97 L677.20,525.39 L679.56,529.08 L681.92,528.71 L684.29,564.86 L686.65,560.03 L689.01,560.67 L691.37,592.95 L693.74,591.00 L696.10,588.38 L698.46,584.63 L700.82,582.68 L703.19,583.32 L705.55,579.24 L707.91,586.81 L710.27,584.89 L712.64,587.48 L715.00,586.11 L717.36,582.71 L719.73,584.42 L722.09,586.05 L724.45,580.64 L726.81,580.09 L729.18,583.00 L731.54,590.86 L733.90,596.62 L736.26,594.76 L738.63,594.12 L740.99,594.23 L743.35,594.52 L745.71,596.94 L748.08,593.56 L750.44,586.69 L752.80,585.97 L755.16,594.41 L757.53,592.37 L759.89,574.29 L762.25,570.33 L764.62,567.01 L766.98,535.92 L769.34,535.58 L771.70,532.52 L774.07,529.08 L776.43,554.82 L778.79,555.75 L781.15,556.77 L783.52,588.00 L785.88,593.01 L788.24,584.86 L790.60,588.79 L792.97,549.40 L795.33,543.46 L797.69,546.87 L800.05,554.73 L802.42,549.46 L804.78,558.02 L807.14,561.19 L809.51,594.00 L811.87,600.75 L814.23,600.17 L816.59,600.55 L818.96,603.34 L821.32,601.98 L823.68,595.72 L826.04,596.39 L828.41,594.09 L830.77,587.39 L833.13,584.51 L835.49,587.25 L837.86,580.55 L840.22,585.35 L842.58,583.29 L844.95,580.93 L847.31,583.72 L849.67,583.35 L852.03,579.74 L854.40,586.26 L856.76,583.29 L859.12,587.13 L861.48,585.30 L863.85,587.07 L866.21,585.59 L868.57,590.94 L870.93,591.67 L873.30,589.23 L875.66,586.69 L878.02,590.13 L880.38,590.65 L882.75,589.90 L885.11,593.24 L887.47,589.78 L889.84,592.37 L892.20,591.93 L894.56,587.60 L896.92,584.66 L899.29,582.36 L901.65,576.45 L904.01,581.69 L906.37,578.98 L908.74,581.86 L911.10,581.95 L913.46,590.27 L915.82,598.34 L918.19,579.04 L920.55,569.49 L922.91,574.35 L925.27,574.87 L927.64,584.92 L930.00,579.77 L930.00,656.00 Z" fill="#a855f7" fill-opacity="0.16" stroke="none" />
<path d="M70.00,635.25 L72.36,625.27 L74.73,622.41 L77.09,625.52 L79.45,623.76 L81.81,625.40 L84.18,585.15 L86.54,584.98 L88.90,587.68 L91.26,585.09 L95.99,547.31 L100.71,526.70 L103.08,526.61 L105.44,529.96 L107.80,525.65 L110.16,486.00 L112.53,489.17 L114.89,526.49 L117.25,549.69 L119.62,548.82 L121.98,545.56 L124.34,547.71 L126.70,546.26 L129.07,548.56 L131.43,508.33 L133.79,467.84 L136.15,427.75 L138.52,428.97 L140.88,430.69 L143.24,471.18 L145.60,471.04 L147.97,511.21 L150.33,549.55 L152.69,590.10 L155.05,621.71 L157.42,621.92 L159.78,598.34 L162.14,574.50 L164.51,567.95 L166.87,557.76 L169.23,550.86 L171.59,557.38 L173.96,551.24 L176.32,569.96 L178.68,587.19 L181.04,580.46 L183.41,587.30 L185.77,555.84 L188.13,552.23 L190.49,551.85 L192.86,549.37 L195.22,554.15 L197.58,555.28 L199.95,554.26 L202.31,583.96 L204.67,581.05 L207.03,577.67 L209.40,572.23 L211.76,571.21 L214.12,580.14 L216.48,581.34 L218.85,580.23 L221.21,583.70 L223.57,583.81 L225.93,591.12 L228.30,589.31 L230.66,585.82 L233.02,582.01 L235.38,588.15 L237.75,586.72 L240.11,587.65 L242.47,584.74 L244.84,580.81 L247.20,584.51 L249.56,590.62 L251.92,585.12 L254.29,583.72 L256.65,586.32 L259.01,585.94 L261.37,585.09 L263.74,581.95 L266.10,577.17 L268.46,546.72 L270.82,544.80 L273.19,546.26 L275.55,548.79 L277.91,553.77 L280.27,559.04 L282.64,561.40 L285.00,594.76 L287.36,603.23 L289.73,598.83 L292.09,602.41 L294.45,604.45 L296.81,599.09 L299.18,600.64 L301.54,602.30 L303.90,596.36 L306.26,586.40 L308.63,588.41 L310.99,589.11 L313.35,586.05 L315.71,583.72 L318.08,580.78 L320.44,588.12 L322.80,607.65 L325.16,605.62 L327.53,601.89 L329.89,603.75 L332.25,601.98 L334.62,608.96 L336.98,602.06 L339.34,597.52 L341.70,594.50 L344.07,596.94 L346.43,602.79 L348.79,605.03 L351.15,601.02 L353.52,604.01 L355.88,604.07 L358.24,599.21 L360.60,595.22 L362.97,593.24 L365.33,597.76 L367.69,594.18 L370.05,595.69 L372.42,597.12 L374.78,603.87 L377.14,609.84 L379.51,612.95 L381.87,606.63 L384.23,598.95 L386.59,593.01 L388.96,592.66 L391.32,595.86 L393.68,591.90 L396.04,583.55 L398.41,581.10 L400.77,589.63 L403.13,592.37 L405.49,588.99 L407.86,581.42 L410.22,585.94 L412.58,593.01 L414.95,593.30 L417.31,601.48 L419.67,604.95 L422.03,592.52 L424.40,590.25 L426.76,581.69 L429.12,576.21 L431.48,583.00 L433.85,580.38 L436.21,580.58 L438.57,590.30 L440.93,593.07 L443.30,596.50 L445.66,597.81 L448.02,591.26 L450.38,585.03 L452.75,577.64 L455.11,578.02 L457.47,577.81 L459.84,579.24 L462.20,578.25 L464.56,585.21 L466.92,582.68 L469.29,591.21 L471.65,593.04 L474.01,591.29 L476.37,594.87 L478.74,595.95 L481.10,590.77 L483.46,593.80 L485.82,586.46 L488.19,582.04 L490.55,582.27 L492.91,570.65 L495.27,565.33 L497.64,565.70 L500.00,564.92 L502.36,562.79 L504.73,563.43 L507.09,572.43 L509.45,580.06 L511.81,585.97 L514.18,585.21 L516.54,588.09 L518.90,588.27 L521.26,587.48 L523.63,578.40 L525.99,572.52 L528.35,572.66 L530.71,576.24 L533.08,572.08 L535.44,579.82 L537.80,589.52 L540.16,593.62 L542.53,601.86 L544.89,602.53 L547.25,604.33 L549.62,614.26 L551.98,614.64 L554.34,613.39 L556.70,609.43 L559.07,606.14 L561.43,604.10 L563.79,606.52 L566.15,604.98 L568.52,605.03 L570.88,601.42 L573.24,611.44 L575.60,610.13 L577.97,614.79 L580.33,603.40 L582.69,564.28 L585.05,562.62 L587.42,564.37 L589.78,557.09 L592.14,562.30 L594.51,553.51 L596.87,554.41 L599.23,591.99 L601.59,594.26 L603.96,588.53 L606.32,587.71 L608.68,583.61 L611.04,587.68 L613.41,593.91 L615.77,586.37 L618.13,580.93 L620.49,586.32 L622.86,589.02 L625.22,591.32 L627.58,586.58 L629.95,584.54 L632.31,591.32 L634.67,597.23 L637.03,591.03 L639.40,596.47 L641.76,590.77 L644.12,592.05 L646.48,594.23 L648.85,558.51 L651.21,553.92 L653.57,559.62 L674.84,519.97 L677.20,525.39 L679.56,529.08 L681.92,528.71 L684.29,564.86 L686.65,560.03 L689.01,560.67 L691.37,592.95 L693.74,591.00 L696.10,588.38 L698.46,584.63 L700.82,582.68 L703.19,583.32 L705.55,579.24 L707.91,586.81 L710.27,584.89 L712.64,587.48 L715.00,586.11 L717.36,582.71 L719.73,584.42 L722.09,586.05 L724.45,580.64 L726.81,580.09 L729.18,583.00 L731.54,590.86 L733.90,596.62 L736.26,594.76 L738.63,594.12 L740.99,594.23 L743.35,594.52 L745.71,596.94 L748.08,593.56 L750.44,586.69 L752.80,585.97 L755.16,594.41 L757.53,592.37 L759.89,574.29 L762.25,570.33 L764.62,567.01 L766.98,535.92 L769.34,535.58 L771.70,532.52 L774.07,529.08 L776.43,554.82 L778.79,555.75 L781.15,556.77 L783.52,588.00 L785.88,593.01 L788.24,584.86 L790.60,588.79 L792.97,549.40 L795.33,543.46 L797.69,546.87 L800.05,554.73 L802.42,549.46 L804.78,558.02 L807.14,561.19 L809.51,594.00 L811.87,600.75 L814.23,600.17 L816.59,600.55 L818.96,603.34 L821.32,601.98 L823.68,595.72 L826.04,596.39 L828.41,594.09 L830.77,587.39 L833.13,584.51 L835.49,587.25 L837.86,580.55 L840.22,585.35 L842.58,583.29 L844.95,580.93 L847.31,583.72 L849.67,583.35 L852.03,579.74 L854.40,586.26 L856.76,583.29 L859.12,587.13 L861.48,585.30 L863.85,587.07 L866.21,585.59 L868.57,590.94 L870.93,591.67 L873.30,589.23 L875.66,586.69 L878.02,590.13 L880.38,590.65 L882.75,589.90 L885.11,593.24 L887.47,589.78 L889.84,592.37 L892.20,591.93 L894.56,587.60 L896.92,584.66 L899.29,582.36 L901.65,576.45 L904.01,581.69 L906.37,578.98 L908.74,581.86 L911.10,581.95 L913.46,590.27 L915.82,598.34 L918.19,579.04 L920.55,569.49 L922.91,574.35 L925.27,574.87 L927.64,584.92 L930.00,579.77" fill="none" stroke="#a855f7" stroke-width="2.2" stroke-linecap="round" />
</svg>
