<svg xmlns="http://www.w3.org/2000/svg" viewBox="0 0 960 720" width="960" height="720">
<rect width="960" height="720" fill="#0f172a" />
<text x="480" y="28" fill="#e2e8f0" font-size="16" font-weight="700" text-anchor="middle">起床时间趋势图</text>
<text x="70" y="70" fill="#e2e8f0" font-size="13" font-weight="600">本月分天指标明细</text>
<line x1="70" y1="323.00" x2="930" y2="323.00" stroke="#94a3b8" stroke-opacity="0.18" stroke-width="1" />
<text x="62" y="327.00" fill="#cbd5f5" font-size="10" text-anchor="end">04:21</text>
<line x1="70" y1="260.75" x2="930" y2="260.75" stroke="#94a3b8" stroke-opacity="0.18" stroke-width="1" />
<text x="62" y="264.75" fill="#cbd5f5" font-size="10" text-anchor="end">07:45</text>
<line x1="70" y1="198.50" x2="930" y2="198.50" stroke="#94a3b8" stroke-opacity="0.18" stroke-width="1" />
<text x="62" y="202.50" fill="#cbd5f5" font-size="10" text-anchor="end">11:08</text>
<line x1="70" y1="136.25" x2="930" y2="136.25" stroke="#94a3b8" stroke-opacity="0.18" stroke-width="1" />
<text x="62" y="140.25" fill="#cbd5f5" font-size="10" text-anchor="end">14:31</text>
<line x1="70" y1="74.00" x2="930" y2="74.00" stroke="#94a3b8" stroke-opacity="0.18" stroke-width="1" />
<text x="62" y="78.00" fill="#cbd5f5" font-size="10" text-anchor="end">17:55</text>
<line x1="70.00" y1="323" x2="70.00" y2="327" stroke="#94a3b8" stroke-opacity="0.5" stroke-width="1" />
<text x="70.00" y="341" fill="#cbd5f5" font-size="10" text-anchor="middle">11-22</text>
<line x1="242.00" y1="323" x2="242.00" y2="327" stroke="#94a3b8" stroke-opacity="0.5" stroke-width="1" />
<text x="242.00" y="341" fill="#cbd5f5" font-size="10" text-anchor="middle">11-27</text>
<line x1="414.00" y1="323" x2="414.00" y2="327" stroke="#94a3b8" stroke-opacity="0.5" stroke-width="1" />
<text x="414.00" y="341" fill="#cbd5f5" font-size="10" text-anchor="middle">12-03</text>
<line x1="586.00" y1="323" x2="586.00" y2="327" stroke="#94a3b8" stroke-opacity="0.5" stroke-width="1" />
<text x="586.00" y="341" fill="#cbd5f5" font-size="10" text-anchor="middle">12-09</text>
<line x1="758.00" y1="323" x2="758.00" y2="327" stroke="#94a3b8" stroke-opacity="0.5" stroke-width="1" />
<text x="758.00" y="341" fill="#cbd5f5" font-size="10" text-anchor="middle">12-15</text>
<line x1="930.00" y1="323" x2="930.00" y2="327" stroke="#94a3b8" stroke-opacity="0.5" stroke-width="1" />
<text x="930.00" y="341" fill="#cbd5f5" font-size="10" text-anchor="middle">12-21</text>
<line x1="70" y1="74" x2="70" y2="323" stroke="#94a3b8" stroke-width="1" />
<line x1="70" y1="323" x2="930" y2="323" stroke="#94a3b8" stroke-width="1" />
<path d="M70.00,260.02 L99.66,208.29 L129.31,240.12 L158.97,256.65 L188.62,259.40 L218.28,262.77 L247.93,272.56 L277.59,269.20 L307.24,298.58 L336.90,272.26 L366.55,253.28 L396.21,253.59 L425.86,251.75 L455.52,274.40 L485.17,263.38 L514.83,259.71 L544.48,265.22 L574.14,260.63 L603.79,255.12 L633.45,260.32 L663.10,270.12 L692.76,94.75 L722.41,242.57 L752.07,302.25 L781.72,260.63 L811.38,268.58 L841.03,258.79 L870.69,266.14 L900.34,267.97 L930.00,231.86" fill="none" stroke="#60a5fa" stroke-width="2.2" stroke-linecap="round" />
<circle cx="70.00" cy="260.02" r="3" fill="#60a5fa" stroke="#0f172a" stroke-width="1" />
<text x="70.00" y="250.02" fill="#e2e8f0" font-size="9" text-anchor="middle">07:47</text>
<circle cx="99.66" cy="208.29" r="3" fill="#60a5fa" stroke="#0f172a" stroke-width="1" />
<text x="99.66" y="188.29" fill="#e2e8f0" font-size="9" text-anchor="middle">10:36</text>
<circle cx="129.31" cy="240.12" r="3" fill="#60a5fa" stroke="#0f172a" stroke-width="1" />
<text x="129.31" y="230.12" fill="#e2e8f0" font-size="9" text-anchor="middle">08:52</text>
<circle cx="158.97" cy="256.65" r="3" fill="#60a5fa" stroke="#0f172a" stroke-width="1" />
<text x="158.97" y="236.65" fill="#e2e8f0" font-size="9" text-anchor="middle">07:58</text>
<circle cx="188.62" cy="259.40" r="3" fill="#60a5fa" stroke="#0f172a" stroke-width="1" />
<text x="188.62" y="249.40" fill="#e2e8f0" font-size="9" text-anchor="middle">07:49</text>
<circle cx="218.28" cy="262.77" r="3" fill="#60a5fa" stroke="#0f172a" stroke-width="1" />
<text x="218.28" y="242.77" fill="#e2e8f0" font-size="9" text-anchor="middle">07:38</text>
<circle cx="247.93" cy="272.56" r="3" fill="#60a5fa" stroke="#0f172a" stroke-width="1" />
<text x="247.93" y="262.56" fill="#e2e8f0" font-size="9" text-anchor="middle">07:06</text>
<circle cx="277.59" cy="269.20" r="3" fill="#60a5fa" stroke="#0f172a" stroke-width="1" />
<text x="277.59" y="249.20" fill="#e2e8f0" font-size="9" text-anchor="middle">07:17</text>
<circle cx="307.24" cy="298.58" r="3" fill="#60a5fa" stroke="#0f172a" stroke-width="1" />
<text x="307.24" y="288.58" fill="#e2e8f0" font-size="9" text-anchor="middle">05:41</text>
<circle cx="336.90" cy="272.26" r="3" fill="#60a5fa" stroke="#0f172a" stroke-width="1" />
<text x="336.90" y="252.26" fill="#e2e8f0" font-size="9" text-anchor="middle">07:07</text>
<circle cx="366.55" cy="253.28" r="3" fill="#60a5fa" stroke="#0f172a" stroke-width="1" />
<text x="366.55" y="243.28" fill="#e2e8f0" font-size="9" text-anchor="middle">08:09</text>
<circle cx="396.21" cy="253.59" r="3" fill="#60a5fa" stroke="#0f172a" stroke-width="1" />
<text x="396.21" y="233.59" fill="#e2e8f0" font-size="9" text-anchor="middle">08:08</text>
<circle cx="425.86" cy="251.75" r="3" fill="#60a5fa" stroke="#0f172a" stroke-width="1" />
<text x="425.86" y="241.75" fill="#e2e8f0" font-size="9" text-anchor="middle">08:14</text>
<circle cx="455.52" cy="274.40" r="3" fill="#60a5fa" stroke="#0f172a" stroke-width="1" />
<text x="455.52" y="254.40" fill="#e2e8f0" font-size="9" text-anchor="middle">07:00</text>
<circle cx="485.17" cy="263.38" r="3" fill="#60a5fa" stroke="#0f172a" stroke-width="1" />
<text x="485.17" y="253.38" fill="#e2e8f0" font-size="9" text-anchor="middle">07:36</text>
<circle cx="514.83" cy="259.71" r="3" fill="#60a5fa" stroke="#0f172a" stroke-width="1" />
<text x="514.83" y="239.71" fill="#e2e8f0" font-size="9" text-anchor="middle">07:48</text>
<circle cx="544.48" cy="265.22" r="3" fill="#60a5fa" stroke="#0f172a" stroke-width="1" />
<text x="544.48" y="255.22" fill="#e2e8f0" font-size="9" text-anchor="middle">07:30</text>
<circle cx="574.14" cy="260.63" r="3" fill="#60a5fa" stroke="#0f172a" stroke-width="1" />
<text x="574.14" y="240.63" fill="#e2e8f0" font-size="9" text-anchor="middle">07:45</text>
<circle cx="603.79" cy="255.12" r="3" fill="#60a5fa" stroke="#0f172a" stroke-width="1" />
<text x="603.79" y="245.12" fill="#e2e8f0" font-size="9" text-anchor="middle">08:03</text>
<circle cx="633.45" cy="260.32" r="3" fill="#60a5fa" stroke="#0f172a" stroke-width="1" />
<text x="633.45" y="240.32" fill="#e2e8f0" font-size="9" text-anchor="middle">07:46</text>
<circle cx="663.10" cy="270.12" r="3" fill="#60a5fa" stroke="#0f172a" stroke-width="1" />
<text x="663.10" y="260.12" fill="#e2e8f0" font-size="9" text-anchor="middle">07:14</text>
<circle cx="692.76" cy="94.75" r="3" fill="#60a5fa" stroke="#0f172a" stroke-width="1" />
<text x="692.76" y="108.75" fill="#e2e8f0" font-size="9" text-anchor="middle">16:47</text>
<circle cx="722.41" cy="242.57" r="3" fill="#60a5fa" stroke="#0f172a" stroke-width="1" />
<text x="722.41" y="232.57" fill="#e2e8f0" font-size="9" text-anchor="middle">08:44</text>
<circle cx="752.07" cy="302.25" r="3" fill="#60a5fa" stroke="#0f172a" stroke-width="1" />
<text x="752.07" y="282.25" fill="#e2e8f0" font-size="9" text-anchor="middle">05:29</text>
<circle cx="781.72" cy="260.63" r="3" fill="#60a5fa" stroke="#0f172a" stroke-width="1" />
<text x="781.72" y="250.63" fill="#e2e8f0" font-size="9" text-anchor="middle">07:45</text>
<circle cx="811.38" cy="268.58" r="3" fill="#60a5fa" stroke="#0f172a" stroke-width="1" />
<text x="811.38" y="248.58" fill="#e2e8f0" font-size="9" text-anchor="middle">07:19</text>
<circle cx="841.03" cy="258.79" r="3" fill="#60a5fa" stroke="#0f172a" stroke-width="1" />
<text x="841.03" y="248.79" fill="#e2e8f0" font-size="9" text-anchor="middle">07:51</text>
<circle cx="870.69" cy="266.14" r="3" fill="#60a5fa" stroke="#0f172a" stroke-width="1" />
<text x="870.69" y="246.14" fill="#e2e8f0" font-size="9" text-anchor="middle">07:27</text>
<circle cx="900.34" cy="267.97" r="3" fill="#60a5fa" stroke="#0f172a" stroke-width="1" />
<text x="900.34" y="257.97" fill="#e2e8f0" font-size="9" text-anchor="middle">07:21</text>
<circle cx="930.00" cy="231.86" r="3" fill="#60a5fa" stroke="#0f172a" stroke-width="1" />
<text x="930.00" y="211.86" fill="#e2e8f0" font-size="9" text-anchor="middle">09:19</text>
<text x="70" y="403" fill="#e2e8f0" font-size="13" font-weight="600">本年核心指标趋势（滑动7日窗口平均）</text>
<line x1="70" y1="656.00" x2="930" y2="656.00" stroke="#94a3b8" stroke-opacity="0.18" stroke-width="1" />
<text x="62" y="660.00" fill="#cbd5f5" font-size="10" text-anchor="end">05:55</text>
<line x1="70" y1="593.75" x2="930" y2="593.75" stroke="#94a3b8" stroke-opacity="0.18" stroke-width="1" />
<text x="62" y="597.75" fill="#cbd5f5" font-size="10" text-anchor="end">06:51</text>
<line x1="70" y1="531.50" x2="930" y2="531.50" stroke="#94a3b8" stroke-opacity="0.18" stroke-width="1" />
<text x="62" y="535.50" fill="#cbd5f5" font-size="10" text-anchor="end">07:46</text>
<line x1="70" y1="469.25" x2="930" y2="469.25" stroke="#94a3b8" stroke-opacity="0.18" stroke-width="1" />
<text x="62" y="473.25" fill="#cbd5f5" font-size="10" text-anchor="end">08:42</text>
<line x1="70" y1="407.00" x2="930" y2="407.00" stroke="#94a3b8" stroke-opacity="0.18" stroke-width="1" />
<text x="62" y="411.00" fill="#cbd5f5" font-size="10" text-anchor="end">09:37</text>
<line x1="70.00" y1="656" x2="70.00" y2="660" stroke="#94a3b8" stroke-opacity="0.5" stroke-width="1" />
<text x="70.00" y="674" fill="#cbd5f5" font-size="10" text-anchor="middle">2025-01</text>
<line x1="242.00" y1="656" x2="242.00" y2="660" stroke="#94a3b8" stroke-opacity="0.5" stroke-width="1" />
<text x="242.00" y="674" fill="#cbd5f5" font-size="10" text-anchor="middle">2025-03</text>
<line x1="414.00" y1="656" x2="414.00" y2="660" stroke="#94a3b8" stroke-opacity="0.5" stroke-width="1" />
<text x="414.00" y="674" fill="#cbd5f5" font-size="10" text-anchor="middle">2025-06</text>
<line x1="586.00" y1="656" x2="586.00" y2="660" stroke="#94a3b8" stroke-opacity="0.5" stroke-width="1" />
<text x="586.00" y="674" fill="#cbd5f5" font-size="10" text-anchor="middle">2025-08</text>
<line x1="758.00" y1="656" x2="758.00" y2="660" stroke="#94a3b8" stroke-opacity="0.5" stroke-width="1" />
<text x="758.00" y="674" fill="#cbd5f5" font-size="10" text-anchor="middle">2025-10</text>
<line x1="930.00" y1="656" x2="930.00" y2="660" stroke="#94a3b8" stroke-opacity="0.5" stroke-width="1" />
<text x="930.00" y="674" fill="#cbd5f5" font-size="10" text-anchor="middle">2025-12</text>
<line x1="70" y1="407" x2="70" y2="656" stroke="#94a3b8" stroke-width="1" />
<line x1="70" y1="656" x2="930" y2="656" stroke="#94a3b8" stroke-width="1" />
<path d="M70.00,656.00 L70.00,587.58 L72.60,577.49 L75.20,622.35 L77.79,608.61 L80.39,608.44 L82.99,586.65 L85.59,578.29 L88.19,569.15 L90.79,568.83 L93.38,555.53 L95.98,554.09 L98.58,530.70 L101.18,539.03 L103.78,545.12 L106.37,554.73 L108.97,569.64 L111.57,572.36 L114.17,571.56 L116.77,574.76 L119.37,573.16 L121.96,568.03 L124.56,563.07 L127.16,546.72 L129.76,519.16 L132.36,505.38 L134.95,516.44 L137.55,527.17 L140.15,525.41 L142.75,528.46 L145.35,531.82 L147.95,539.03 L150.54,544.80 L153.14,544.48 L155.74,541.59 L158.34,551.05 L160.94,550.09 L163.53,527.65 L166.13,535.99 L168.73,567.71 L171.33,569.15 L173.93,565.31 L176.53,559.06 L179.12,559.38 L181.72,553.77 L184.32,553.61 L186.92,523.65 L189.52,522.85 L192.11,524.29 L194.71,526.05 L197.31,520.92 L199.91,552.65 L202.51,552.33 L205.11,558.58 L207.70,555.05 L210.30,565.31 L212.90,581.49 L215.50,589.50 L218.10,587.90 L220.69,592.39 L223.29,588.70 L225.89,595.43 L228.49,583.90 L231.09,567.87 L233.69,563.39 L236.28,561.14 L238.88,551.85 L241.48,552.97 L244.08,550.57 L246.68,555.86 L249.27,562.10 L251.87,570.28 L254.47,571.72 L257.07,582.93 L259.67,585.66 L262.27,585.98 L264.86,584.22 L267.46,578.77 L270.06,570.44 L272.66,566.27 L275.26,560.02 L277.85,560.02 L280.45,561.78 L283.05,558.26 L285.65,560.34 L288.25,560.98 L290.85,567.23 L293.44,554.89 L296.04,553.77 L298.64,543.04 L301.24,544.64 L303.84,543.84 L306.44,531.34 L309.03,523.97 L311.63,526.85 L314.23,532.62 L316.83,534.22 L319.43,536.63 L322.02,497.05 L324.62,501.38 L327.22,508.75 L329.82,528.94 L332.42,535.83 L335.02,537.59 L337.61,536.95 L340.21,572.52 L342.81,574.12 L345.41,576.85 L348.01,563.71 L350.60,552.17 L353.20,564.99 L355.80,562.10 L358.40,561.62 L361.00,562.58 L363.60,548.64 L366.19,544.80 L368.79,539.83 L371.39,532.46 L373.99,530.86 L376.59,533.42 L379.18,536.15 L381.78,496.25 L384.38,487.44 L386.98,524.29 L389.58,524.13 L392.18,529.26 L394.77,522.05 L397.37,519.96 L399.97,515.00 L402.57,521.57 L405.17,485.99 L407.76,481.51 L410.36,473.18 L412.96,479.42 L415.56,473.34 L418.16,519.16 L420.76,525.89 L423.35,530.54 L425.95,525.73 L428.55,538.39 L431.15,534.06 L433.75,548.00 L436.34,549.61 L438.94,538.07 L441.54,527.17 L444.14,526.69 L446.74,508.91 L449.34,514.36 L451.93,501.22 L454.53,500.74 L457.13,510.03 L459.73,516.44 L462.33,537.11 L464.92,542.24 L467.52,537.27 L470.12,546.08 L472.72,537.11 L475.32,540.95 L477.92,541.43 L480.51,526.05 L483.11,535.67 L485.71,538.39 L488.31,543.52 L490.91,562.58 L493.50,575.88 L496.10,572.68 L498.70,578.29 L501.30,575.56 L503.90,576.36 L506.50,576.20 L509.09,579.73 L511.69,571.56 L514.29,582.77 L516.89,590.95 L519.49,598.32 L522.08,601.68 L524.68,593.99 L527.28,591.59 L529.88,593.19 L532.48,596.39 L535.08,594.15 L537.67,576.69 L540.27,573.16 L542.87,584.22 L545.47,583.25 L548.07,592.55 L550.66,586.62 L553.26,564.51 L555.86,572.20 L558.46,570.28 L561.06,562.75 L563.66,527.17 L566.25,499.93 L568.85,494.65 L571.45,508.11 L574.05,509.23 L576.65,510.67 L579.24,518.84 L581.84,552.49 L584.44,572.20 L587.04,571.88 L589.64,564.03 L592.24,559.22 L594.83,562.42 L597.43,562.75 L600.03,542.56 L602.63,580.69 L605.23,588.70 L607.82,591.27 L610.42,602.16 L615.62,602.16 L618.22,602.00 L644.20,607.93 L646.80,558.74 L649.40,558.26 L651.99,577.33 L654.59,566.43 L657.19,563.23 L659.79,544.64 L662.39,546.40 L664.98,538.07 L667.58,533.90 L670.18,524.29 L672.78,531.18 L675.38,522.37 L677.98,529.26 L680.57,540.95 L683.17,541.92 L685.77,541.11 L688.37,545.28 L690.97,534.06 L693.56,548.16 L696.16,548.48 L698.76,551.69 L701.36,563.55 L703.96,565.79 L706.56,566.75 L709.15,581.65 L711.75,588.22 L714.35,579.57 L716.95,578.13 L719.55,581.97 L722.15,540.31 L724.74,525.89 L727.34,522.37 L729.94,507.63 L732.54,522.37 L735.14,526.21 L737.73,514.36 L740.33,558.42 L745.53,561.14 L748.13,558.42 L750.73,552.49 L753.32,538.71 L755.92,530.06 L758.52,533.26 L761.12,522.37 L763.72,531.66 L766.31,529.26 L768.91,541.27 L771.51,551.05 L774.11,547.84 L776.71,548.81 L779.31,562.75 L781.90,544.96 L784.50,553.61 L787.10,547.36 L789.70,536.95 L792.30,541.43 L794.89,544.48 L797.49,534.86 L800.09,552.33 L802.69,543.20 L805.29,537.59 L807.89,549.77 L810.48,546.08 L813.08,535.51 L815.68,539.35 L818.28,536.95 L820.88,528.78 L823.47,536.31 L826.07,541.43 L828.67,549.45 L831.27,556.02 L833.87,558.58 L836.47,558.10 L839.06,558.26 L841.66,557.30 L844.26,559.22 L846.86,546.72 L849.46,540.47 L852.05,542.88 L854.65,537.75 L857.25,517.40 L859.85,506.82 L862.45,492.88 L865.05,493.85 L867.64,501.54 L870.24,498.81 L872.84,503.62 L875.44,550.89 L878.04,567.71 L880.63,565.95 L883.23,562.91 L885.83,557.14 L888.43,558.10 L891.03,555.05 L893.63,534.70 L896.22,531.02 L898.82,534.86 L901.42,535.67 L904.02,540.15 L906.62,537.91 L909.21,449.62 L911.81,440.65 L914.41,460.04 L917.01,460.04 L919.61,467.09 L922.21,466.29 L924.80,464.20 L927.40,554.89 L930.00,549.29 L930.00,656.00 Z" fill="#60a5fa" fill-opacity="0.16" stroke="none" />
<path d="M70.00,587.58 L72.60,577.49 L75.20,622.35 L77.79,608.61 L80.39,608.44 L82.99,586.65 L85.59,578.29 L88.19,569.15 L90.79,568.83 L93.38,555.53 L95.98,554.09 L98.58,530.70 L101.18,539.03 L103.78,545.12 L106.37,554.73 L108.97,569.64 L111.57,572.36 L114.17,571.56 L116.77,574.76 L119.37,573.16 L121.96,568.03 L124.56,563.07 L127.16,546.72 L129.76,519.16 L132.36,505.38 L134.95,516.44 L137.55,527.17 L140.15,525.41 L142.75,528.46 L145.35,531.82 L147.95,539.03 L150.54,544.80 L153.14,544.48 L155.74,541.59 L158.34,551.05 L160.94,550.09 L163.53,527.65 L166.13,535.99 L168.73,567.71 L171.33,569.15 L173.93,565.31 L176.53,559.06 L179.12,559.38 L181.72,553.77 L184.32,553.61 L186.92,523.65 L189.52,522.85 L192.11,524.29 L194.71,526.05 L197.31,520.92 L199.91,552.65 L202.51,552.33 L205.11,558.58 L207.70,555.05 L210.30,565.31 L212.90,581.49 L215.50,589.50 L218.10,587.90 L220.69,592.39 L223.29,588.70 L225.89,595.43 L228.49,583.90 L231.09,567.87 L233.69,563.39 L236.28,561.14 L238.88,551.85 L241.48,552.97 L244.08,550.57 L246.68,555.86 L249.27,562.10 L251.87,570.28 L254.47,571.72 L257.07,582.93 L259.67,585.66 L262.27,585.98 L264.86,584.22 L267.46,578.77 L270.06,570.44 L272.66,566.27 L275.26,560.02 L277.85,560.02 L280.45,561.78 L283.05,558.26 L285.65,560.34 L288.25,560.98 L290.85,567.23 L293.44,554.89 L296.04,553.77 L298.64,543.04 L301.24,544.64 L303.84,543.84 L306.44,531.34 L309.03,523.97 L311.63,526.85 L314.23,532.62 L316.83,534.22 L319.43,536.63 L322.02,497.05 L324.62,501.38 L327.22,508.75 L329.82,528.94 L332.42,535.83 L335.02,537.59 L337.61,536.95 L340.21,572.52 L342.81,574.12 L345.41,576.85 L348.01,563.71 L350.60,552.17 L353.20,564.99 L355.80,562.10 L358.40,561.62 L361.00,562.58 L363.60,548.64 L366.19,544.80 L368.79,539.83 L371.39,532.46 L373.99,530.86 L376.59,533.42 L379.18,536.15 L381.78,496.25 L384.38,487.44 L386.98,524.29 L389.58,524.13 L392.18,529.26 L394.77,522.05 L397.37,519.96 L399.97,515.00 L402.57,521.57 L405.17,485.99 L407.76,481.51 L410.36,473.18 L412.96,479.42 L415.56,473.34 L418.16,519.16 L420.76,525.89 L423.35,530.54 L425.95,525.73 L428.55,538.39 L431.15,534.06 L433.75,548.00 L436.34,549.61 L438.94,538.07 L441.54,527.17 L444.14,526.69 L446.74,508.91 L449.34,514.36 L451.93,501.22 L454.53,500.74 L457.13,510.03 L459.73,516.44 L462.33,537.11 L464.92,542.24 L467.52,537.27 L470.12,546.08 L472.72,537.11 L475.32,540.95 L477.92,541.43 L480.51,526.05 L483.11,535.67 L485.71,538.39 L488.31,543.52 L490.91,562.58 L493.50,575.88 L496.10,572.68 L498.70,578.29 L501.30,575.56 L503.90,576.36 L506.50,576.20 L509.09,579.73 L511.69,571.56 L514.29,582.77 L516.89,590.95 L519.49,598.32 L522.08,601.68 L524.68,593.99 L527.28,591.59 L529.88,593.19 L532.48,596.39 L535.08,594.15 L537.67,576.69 L540.27,573.16 L542.87,584.22 L545.47,583.25 L548.07,592.55 L550.66,586.62 L553.26,564.51 L555.86,572.20 L558.46,570.28 L561.06,562.75 L563.66,527.17 L566.25,499.93 L568.85,494.65 L571.45,508.11 L574.05,509.23 L576.65,510.67 L579.24,518.84 L581.84,552.49 L584.44,572.20 L587.04,571.88 L589.64,564.03 L592.24,559.22 L594.83,562.42 L597.43,562.75 L600.03,542.56 L602.63,580.69 L605.23,588.70 L607.82,591.27 L610.42,602.16 L615.62,602.16 L618.22,602.00 L644.20,607.93 L646.80,558.74 L649.40,558.26 L651.99,577.33 L654.59,566.43 L657.19,563.23 L659.79,544.64 L662.39,546.40 L664.98,538.07 L667.58,533.90 L670.18,524.29 L672.78,531.18 L675.38,522.37 L677.98,529.26 L680.57,540.95 L683.17,541.92 L685.77,541.11 L688.37,545.28 L690.97,534.06 L693.56,548.16 L696.16,548.48 L698.76,551.69 L701.36,563.55 L703.96,565.79 L706.56,566.75 L709.15,581.65 L711.75,588.22 L714.35,579.57 L716.95,578.13 L719.55,581.97 L722.15,540.31 L724.74,525.89 L727.34,522.37 L729.94,507.63 L732.54,522.37 L735.14,526.21 L737.73,514.36 L740.33,558.42 L745.53,561.14 L748.13,558.42 L750.73,552.49 L753.32,538.71 L755.92,530.06 L758.52,533.26 L761.12,522.37 L763.72,531.66 L766.31,529.26 L768.91,541.27 L771.51,551.05 L774.11,547.84 L776.71,548.81 L779.31,562.75 L781.90,544.96 L784.50,553.61 L787.10,547.36 L789.70,536.95 L792.30,541.43 L794.89,544.48 L797.49,534.86 L800.09,552.33 L802.69,543.20 L805.29,537.59 L807.89,549.77 L810.48,546.08 L813.08,535.51 L815.68,539.35 L818.28,536.95 L820.88,528.78 L823.47,536.31 L826.07,541.43 L828.67,549.45 L831.27,556.02 L833.87,558.58 L836.47,558.10 L839.06,558.26 L841.66,557.30 L844.26,559.22 L846.86,546.72 L849.46,540.47 L852.05,542.88 L854.65,537.75 L857.25,517.40 L859.85,506.82 L862.45,492.88 L865.05,493.85 L867.64,501.54 L870.24,498.81 L872.84,503.62 L875.44,550.89 L878.04,567.71 L880.63,565.95 L883.23,562.91 L885.83,557.14 L888.43,558.10 L891.03,555.05 L893.63,534.70 L896.22,531.02 L898.82,534.86 L901.42,535.67 L904.02,540.15 L906.62,537.91 L909.21,449.62 L911.81,440.65 L914.41,460.04 L917.01,460.04 L919.61,467.09 L922.21,466.29 L924.80,464.20 L927.40,554.89 L930.00,549.29" fill="none" stroke="#60a5fa" stroke-width="2.2" stroke-linecap="round" />
</svg>
