<svg xmlns="http://www.w3.org/2000/svg" viewBox="0 0 960 720" width="960" height="720">
<rect width="960" height="720" fill="#0f172a" />
<text x="480" y="28" fill="#e2e8f0" font-size="16" font-weight="700" text-anchor="middle">入睡时间趋势图</text>
<text x="70" y="70" fill="#e2e8f0" font-size="13" font-weight="600">本月分天指标明细</text>
<line x1="70" y1="323.00" x2="930" y2="323.00" stroke="#94a3b8" stroke-opacity="0.18" stroke-width="1" />
<text x="62" y="327.00" fill="#cbd5f5" font-size="10" text-anchor="end">13:14</text>
<line x1="70" y1="260.75" x2="930" y2="260.75" stroke="#94a3b8" stroke-opacity="0.18" stroke-width="1" />
<text x="62" y="264.75" fill="#cbd5f5" font-size="10" text-anchor="end">16:59</text>
<line x1="70" y1="198.50" x2="930" y2="198.50" stroke="#94a3b8" stroke-opacity="0.18" stroke-width="1" />
<text x="62" y="202.50" fill="#cbd5f5" font-size="10" text-anchor="end">20:44</text>
<line x1="70" y1="136.25" x2="930" y2="136.25" stroke="#94a3b8" stroke-opacity="0.18" stroke-width="1" />
<text x="62" y="140.25" fill="#cbd5f5" font-size="10" text-anchor="end">00:29</text>
<line x1="70" y1="74.00" x2="930" y2="74.00" stroke="#94a3b8" stroke-opacity="0.18" stroke-width="1" />
<text x="62" y="78.00" fill="#cbd5f5" font-size="10" text-anchor="end">04:14</text>
<line x1="70.00" y1="323" x2="70.00" y2="327" stroke="#94a3b8" stroke-opacity="0.5" stroke-width="1" />
<text x="70.00" y="341" fill="#cbd5f5" font-size="10" text-anchor="middle">11-22</text>
<line x1="242.00" y1="323" x2="242.00" y2="327" stroke="#94a3b8" stroke-opacity="0.5" stroke-width="1" />
<text x="242.00" y="341" fill="#cbd5f5" font-size="10" text-anchor="middle">11-27</text>
<line x1="414.00" y1="323" x2="414.00" y2="327" stroke="#94a3b8" stroke-opacity="0.5" stroke-width="1" />
<text x="414.00" y="341" fill="#cbd5f5" font-size="10" text-anchor="middle">12-03</text>
<line x1="586.00" y1="323" x2="586.00" y2="327" stroke="#94a3b8" stroke-opacity="0.5" stroke-width="1" />
<text x="586.00" y="341" fill="#cbd5f5" font-size="10" text-anchor="middle">12-09</text>
<line x1="758.00" y1="323" x2="758.00" y2="327" stroke="#94a3b8" stroke-opacity="0.5" stroke-width="1" />
<text x="758.00" y="341" fill="#cbd5f5" font-size="10" text-anchor="middle">12-15</text>
<line x1="930.00" y1="323" x2="930.00" y2="327" stroke="#94a3b8" stroke-opacity="0.5" stroke-width="1" />
<text x="930.00" y="341" fill="#cbd5f5" font-size="10" text-anchor="middle">12-21</text>
<line x1="70" y1="74" x2="70" y2="323" stroke="#94a3b8" stroke-width="1" />
<line x1="70" y1="323" x2="930" y2="323" stroke="#94a3b8" stroke-width="1" />
<path d="M70.00,137.91 L99.66,139.57 L129.31,142.34 L158.97,171.94 L188.62,161.43 L218.28,154.79 L247.93,120.20 L277.59,174.43 L307.24,207.08 L336.90,172.77 L366.55,136.80 L396.21,105.54 L425.86,172.49 L455.52,157.83 L485.17,131.82 L514.83,133.21 L544.48,145.38 L574.14,155.62 L603.79,168.62 L633.45,172.22 L663.10,140.40 L692.76,302.25 L722.41,148.42 L752.07,134.59 L781.72,146.49 L811.38,142.89 L841.03,147.04 L870.69,148.70 L900.34,134.59 L930.00,94.75" fill="none" stroke="#60a5fa" stroke-width="2.2" stroke-linecap="round" />
<circle cx="70.00" cy="137.91" r="3" fill="#60a5fa" stroke="#0f172a" stroke-width="1" />
<text x="70.00" y="127.91" fill="#e2e8f0" font-size="9" text-anchor="middle">00:23</text>
<circle cx="99.66" cy="139.57" r="3" fill="#60a5fa" stroke="#0f172a" stroke-width="1" />
<text x="99.66" y="119.57" fill="#e2e8f0" font-size="9" text-anchor="middle">00:17</text>
<circle cx="129.31" cy="142.34" r="3" fill="#60a5fa" stroke="#0f172a" stroke-width="1" />
<text x="129.31" y="132.34" fill="#e2e8f0" font-size="9" text-anchor="middle">00:07</text>
<circle cx="158.97" cy="171.94" r="3" fill="#60a5fa" stroke="#0f172a" stroke-width="1" />
<text x="158.97" y="151.94" fill="#e2e8f0" font-size="9" text-anchor="middle">22:20</text>
<circle cx="188.62" cy="161.43" r="3" fill="#60a5fa" stroke="#0f172a" stroke-width="1" />
<text x="188.62" y="151.43" fill="#e2e8f0" font-size="9" text-anchor="middle">22:58</text>
<circle cx="218.28" cy="154.79" r="3" fill="#60a5fa" stroke="#0f172a" stroke-width="1" />
<text x="218.28" y="134.79" fill="#e2e8f0" font-size="9" text-anchor="middle">23:22</text>
<circle cx="247.93" cy="120.20" r="3" fill="#60a5fa" stroke="#0f172a" stroke-width="1" />
<text x="247.93" y="110.20" fill="#e2e8f0" font-size="9" text-anchor="middle">01:27</text>
<circle cx="277.59" cy="174.43" r="3" fill="#60a5fa" stroke="#0f172a" stroke-width="1" />
<text x="277.59" y="154.43" fill="#e2e8f0" font-size="9" text-anchor="middle">22:11</text>
<circle cx="307.24" cy="207.08" r="3" fill="#60a5fa" stroke="#0f172a" stroke-width="1" />
<text x="307.24" y="197.08" fill="#e2e8f0" font-size="9" text-anchor="middle">20:13</text>
<circle cx="336.90" cy="172.77" r="3" fill="#60a5fa" stroke="#0f172a" stroke-width="1" />
<text x="336.90" y="152.77" fill="#e2e8f0" font-size="9" text-anchor="middle">22:17</text>
<circle cx="366.55" cy="136.80" r="3" fill="#60a5fa" stroke="#0f172a" stroke-width="1" />
<text x="366.55" y="126.80" fill="#e2e8f0" font-size="9" text-anchor="middle">00:27</text>
<circle cx="396.21" cy="105.54" r="3" fill="#60a5fa" stroke="#0f172a" stroke-width="1" />
<text x="396.21" y="85.54" fill="#e2e8f0" font-size="9" text-anchor="middle">02:20</text>
<circle cx="425.86" cy="172.49" r="3" fill="#60a5fa" stroke="#0f172a" stroke-width="1" />
<text x="425.86" y="162.49" fill="#e2e8f0" font-size="9" text-anchor="middle">22:18</text>
<circle cx="455.52" cy="157.83" r="3" fill="#60a5fa" stroke="#0f172a" stroke-width="1" />
<text x="455.52" y="137.83" fill="#e2e8f0" font-size="9" text-anchor="middle">23:11</text>
<circle cx="485.17" cy="131.82" r="3" fill="#60a5fa" stroke="#0f172a" stroke-width="1" />
<text x="485.17" y="121.82" fill="#e2e8f0" font-size="9" text-anchor="middle">00:45</text>
<circle cx="514.83" cy="133.21" r="3" fill="#60a5fa" stroke="#0f172a" stroke-width="1" />
<text x="514.83" y="113.21" fill="#e2e8f0" font-size="9" text-anchor="middle">00:40</text>
<circle cx="544.48" cy="145.38" r="3" fill="#60a5fa" stroke="#0f172a" stroke-width="1" />
<text x="544.48" y="135.38" fill="#e2e8f0" font-size="9" text-anchor="middle">23:56</text>
<circle cx="574.14" cy="155.62" r="3" fill="#60a5fa" stroke="#0f172a" stroke-width="1" />
<text x="574.14" y="135.62" fill="#e2e8f0" font-size="9" text-anchor="middle">23:19</text>
<circle cx="603.79" cy="168.62" r="3" fill="#60a5fa" stroke="#0f172a" stroke-width="1" />
<text x="603.79" y="158.62" fill="#e2e8f0" font-size="9" text-anchor="middle">22:32</text>
<circle cx="633.45" cy="172.22" r="3" fill="#60a5fa" stroke="#0f172a" stroke-width="1" />
<text x="633.45" y="152.22" fill="#e2e8f0" font-size="9" text-anchor="middle">22:19</text>
<circle cx="663.10" cy="140.40" r="3" fill="#60a5fa" stroke="#0f172a" stroke-width="1" />
<text x="663.10" y="130.40" fill="#e2e8f0" font-size="9" text-anchor="middle">00:14</text>
<circle cx="692.76" cy="302.25" r="3" fill="#60a5fa" stroke="#0f172a" stroke-width="1" />
<text x="692.76" y="282.25" fill="#e2e8f0" font-size="9" text-anchor="middle">14:29</text>
<circle cx="722.41" cy="148.42" r="3" fill="#60a5fa" stroke="#0f172a" stroke-width="1" />
<text x="722.41" y="138.42" fill="#e2e8f0" font-size="9" text-anchor="middle">23:45</text>
<circle cx="752.07" cy="134.59" r="3" fill="#60a5fa" stroke="#0f172a" stroke-width="1" />
<text x="752.07" y="114.59" fill="#e2e8f0" font-size="9" text-anchor="middle">00:35</text>
<circle cx="781.72" cy="146.49" r="3" fill="#60a5fa" stroke="#0f172a" stroke-width="1" />
<text x="781.72" y="136.49" fill="#e2e8f0" font-size="9" text-anchor="middle">23:52</text>
<circle cx="811.38" cy="142.89" r="3" fill="#60a5fa" stroke="#0f172a" stroke-width="1" />
<text x="811.38" y="122.89" fill="#e2e8f0" font-size="9" text-anchor="middle">00:05</text>
<circle cx="841.03" cy="147.04" r="3" fill="#60a5fa" stroke="#0f172a" stroke-width="1" />
<text x="841.03" y="137.04" fill="#e2e8f0" font-size="9" text-anchor="middle">23:50</text>
<circle cx="870.69" cy="148.70" r="3" fill="#60a5fa" stroke="#0f172a" stroke-width="1" />
<text x="870.69" y="128.70" fill="#e2e8f0" font-size="9" text-anchor="middle">23:44</text>
<circle cx="900.34" cy="134.59" r="3" fill="#60a5fa" stroke="#0f172a" stroke-width="1" />
<text x="900.34" y="124.59" fill="#e2e8f0" font-size="9" text-anchor="middle">00:35</text>
<circle cx="930.00" cy="94.75" r="3" fill="#60a5fa" stroke="#0f172a" stroke-width="1" />
<text x="930.00" y="108.75" fill="#e2e8f0" font-size="9" text-anchor="middle">02:59</text>
<text x="70" y="403" fill="#e2e8f0" font-size="13" font-weight="600">本年核心指标趋势（滑动7日窗口平均）</text>
<line x1="70" y1="656.00" x2="930" y2="656.00" stroke="#94a3b8" stroke-opacity="0.18" stroke-width="1" />
<text x="62" y="660.00" fill="#cbd5f5" font-size="10" text-anchor="end">21:35</text>
<line x1="70" y1="593.75" x2="930" y2="593.75" stroke="#94a3b8" stroke-opacity="0.18" stroke-width="1" />
<text x="62" y="597.75" fill="#cbd5f5" font-size="10" text-anchor="end">22:42</text>
<line x1="70" y1="531.50" x2="930" y2="531.50" stroke="#94a3b8" stroke-opacity="0.18" stroke-width="1" />
<text x="62" y="535.50" fill="#cbd5f5" font-size="10" text-anchor="end">23:49</text>
<line x1="70" y1="469.25" x2="930" y2="469.25" stroke="#94a3b8" stroke-opacity="0.18" stroke-width="1" />
<text x="62" y="473.25" fill="#cbd5f5" font-size="10" text-anchor="end">00:56</text>
<line x1="70" y1="407.00" x2="930" y2="407.00" stroke="#94a3b8" stroke-opacity="0.18" stroke-width="1" />
<text x="62" y="411.00" fill="#cbd5f5" font-size="10" text-anchor="end">02:03</text>
<line x1="70.00" y1="656" x2="70.00" y2="660" stroke="#94a3b8" stroke-opacity="0.5" stroke-width="1" />
<text x="70.00" y="674" fill="#cbd5f5" font-size="10" text-anchor="middle">2025-01</text>
<line x1="242.00" y1="656" x2="242.00" y2="660" stroke="#94a3b8" stroke-opacity="0.5" stroke-width="1" />
<text x="242.00" y="674" fill="#cbd5f5" font-size="10" text-anchor="middle">2025-03</text>
<line x1="414.00" y1="656" x2="414.00" y2="660" stroke="#94a3b8" stroke-opacity="0.5" stroke-width="1" />
<text x="414.00" y="674" fill="#cbd5f5" font-size="10" text-anchor="middle">2025-06</text>
<line x1="586.00" y1="656" x2="586.00" y2="660" stroke="#94a3b8" stroke-opacity="0.5" stroke-width="1" />
<text x="586.00" y="674" fill="#cbd5f5" font-size="10" text-anchor="middle">2025-08</text>
<line x1="758.00" y1="656" x2="758.00" y2="660" stroke="#94a3b8" stroke-opacity="0.5" stroke-width="1" />
<text x="758.00" y="674" fill="#cbd5f5" font-size="10" text-anchor="middle">2025-10</text>
<line x1="930.00" y1="656" x2="930.00" y2="660" stroke="#94a3b8" stroke-opacity="0.5" stroke-width="1" />
<text x="930.00" y="674" fill="#cbd5f5" font-size="10" text-anchor="middle">2025-12</text>
<line x1="70" y1="407" x2="70" y2="656" stroke="#94a3b8" stroke-width="1" />
<line x1="70" y1="656" x2="930" y2="656" stroke="#94a3b8" stroke-width="1" />
<path d="M70.00,656.00 L70.00,472.30 L72.60,520.97 L75.20,498.87 L77.79,514.71 L80.39,524.40 L82.99,516.49 L85.59,512.16 L88.19,517.59 L90.79,504.75 L93.38,504.48 L95.98,499.05 L98.58,490.97 L101.18,489.65 L103.78,501.43 L106.37,515.08 L108.97,527.00 L111.57,530.31 L114.17,533.35 L116.77,540.90 L119.37,545.41 L121.96,536.67 L124.56,526.73 L127.16,499.05 L129.76,501.04 L132.36,503.95 L134.95,502.63 L137.55,505.01 L140.15,506.60 L142.75,497.73 L145.35,504.08 L147.95,503.69 L150.54,501.17 L153.14,501.17 L155.74,505.94 L158.34,508.06 L160.94,517.99 L163.53,533.22 L166.13,536.00 L168.73,535.61 L171.33,539.58 L173.93,528.59 L176.53,515.34 L179.12,522.36 L181.72,510.44 L184.32,508.06 L186.92,504.61 L189.52,490.84 L192.11,497.06 L194.71,518.65 L197.31,513.49 L199.91,520.11 L202.51,524.08 L205.11,526.60 L207.70,542.36 L210.30,552.16 L212.90,544.08 L215.50,537.73 L218.10,545.67 L220.69,557.72 L223.29,563.29 L225.89,549.25 L228.49,530.18 L231.09,525.67 L233.69,528.06 L236.28,517.20 L238.88,502.89 L241.48,492.30 L244.08,495.87 L246.68,497.33 L249.27,497.99 L251.87,502.36 L254.47,521.43 L257.07,520.11 L259.67,531.50 L262.27,526.60 L264.86,536.93 L267.46,542.23 L270.06,535.08 L272.66,521.83 L275.26,522.89 L277.85,515.74 L280.45,520.64 L283.05,521.17 L285.65,521.17 L288.25,522.49 L290.85,522.36 L293.44,524.35 L296.04,524.35 L298.64,527.00 L301.24,530.04 L303.84,525.80 L306.44,520.64 L309.03,513.35 L311.63,514.81 L314.23,516.80 L316.83,515.47 L319.43,488.19 L322.02,470.04 L324.62,452.56 L327.22,469.38 L329.82,469.65 L332.42,463.02 L335.02,478.26 L337.61,508.32 L340.21,525.27 L342.81,546.86 L345.41,539.18 L348.01,535.21 L350.60,545.27 L353.20,526.47 L355.80,508.98 L358.40,521.30 L361.00,523.02 L363.60,497.20 L366.19,493.36 L368.79,496.00 L371.39,497.73 L373.99,518.26 L376.59,502.89 L379.18,503.29 L381.78,517.06 L384.38,519.05 L386.98,492.16 L389.58,507.66 L392.18,466.87 L394.77,466.87 L397.37,460.11 L399.97,471.63 L402.57,457.99 L405.17,477.73 L407.76,474.28 L410.36,506.73 L412.96,498.79 L415.56,521.17 L418.16,519.84 L420.76,519.58 L423.35,522.36 L425.95,518.65 L428.55,508.98 L431.15,527.92 L433.75,504.22 L436.34,483.55 L438.94,488.19 L441.54,451.50 L444.14,448.59 L446.74,450.97 L449.34,448.59 L451.93,434.81 L454.53,448.72 L457.13,464.88 L459.73,493.22 L462.33,497.46 L464.92,508.72 L467.52,507.92 L470.12,528.98 L472.72,533.35 L475.32,500.77 L477.92,513.62 L480.51,518.26 L483.11,509.51 L485.71,497.46 L488.31,490.57 L490.91,508.19 L493.50,531.50 L496.10,532.82 L498.70,529.25 L501.30,541.43 L503.90,554.28 L506.50,564.21 L509.09,541.83 L511.69,529.25 L514.29,529.65 L516.89,525.14 L519.49,517.86 L522.08,524.08 L524.68,520.90 L527.28,530.31 L529.88,553.75 L532.48,544.88 L535.08,534.81 L537.67,532.82 L540.27,532.16 L542.87,528.59 L545.47,528.98 L548.07,519.98 L550.66,541.83 L553.26,549.91 L555.86,547.39 L558.46,534.41 L561.06,538.78 L563.66,524.35 L566.25,524.35 L568.85,507.53 L571.45,508.59 L574.05,521.57 L576.65,523.95 L579.24,520.11 L581.84,526.33 L584.44,525.01 L587.04,518.39 L589.64,513.62 L592.24,500.51 L594.83,510.84 L597.43,517.06 L600.03,514.81 L602.63,520.64 L605.23,530.04 L607.82,528.59 L610.42,528.59 L615.62,527.92 L618.22,512.83 L644.20,542.76 L646.80,548.32 L649.40,540.11 L651.99,553.62 L654.59,545.94 L657.19,539.84 L659.79,555.21 L662.39,547.53 L664.98,549.38 L667.58,556.53 L670.18,555.21 L672.78,560.90 L675.38,562.36 L677.98,562.89 L680.57,563.82 L683.17,556.66 L685.77,546.20 L688.37,538.65 L690.97,542.36 L693.56,535.61 L696.16,537.06 L698.76,530.31 L701.36,542.10 L703.96,538.12 L706.56,539.31 L709.15,534.15 L711.75,525.67 L714.35,516.40 L716.95,511.37 L719.55,505.54 L722.15,522.36 L724.74,516.67 L727.34,517.33 L729.94,534.81 L732.54,547.00 L735.14,552.16 L737.73,538.39 L740.33,509.38 L745.53,512.96 L748.13,508.45 L750.73,498.12 L753.32,495.61 L755.92,491.90 L758.52,497.73 L761.12,510.97 L763.72,504.88 L766.31,507.13 L768.91,516.53 L771.51,528.06 L774.11,546.20 L776.71,559.05 L779.31,561.70 L781.90,567.92 L784.50,569.78 L787.10,578.92 L789.70,564.48 L792.30,539.45 L794.89,532.29 L797.49,531.10 L800.09,523.02 L802.69,519.58 L805.29,499.45 L807.89,507.26 L810.48,507.79 L813.08,498.52 L815.68,514.15 L818.28,508.45 L820.88,502.23 L823.47,514.81 L826.07,507.39 L828.67,516.67 L831.27,523.29 L833.87,505.81 L836.47,516.93 L839.06,531.50 L841.66,533.09 L844.26,530.71 L846.86,526.73 L849.46,528.72 L852.05,533.88 L854.65,531.50 L857.25,529.25 L859.85,520.24 L862.45,532.82 L865.05,539.71 L867.64,542.63 L870.24,530.18 L872.84,547.66 L875.44,579.98 L878.04,594.54 L880.63,577.72 L883.23,550.97 L885.83,559.45 L888.43,577.46 L891.03,557.06 L893.63,521.70 L896.22,508.59 L898.82,517.59 L901.42,547.79 L904.02,547.66 L906.62,539.31 L909.21,620.90 L911.81,628.19 L914.41,623.02 L917.01,618.65 L919.61,606.33 L922.21,594.28 L924.80,598.25 L927.40,517.99 L930.00,492.30 L930.00,656.00 Z" fill="#60a5fa" fill-opacity="0.16" stroke="none" />
<path d="M70.00,472.30 L72.60,520.97 L75.20,498.87 L77.79,514.71 L80.39,524.40 L82.99,516.49 L85.59,512.16 L88.19,517.59 L90.79,504.75 L93.38,504.48 L95.98,499.05 L98.58,490.97 L101.18,489.65 L103.78,501.43 L106.37,515.08 L108.97,527.00 L111.57,530.31 L114.17,533.35 L116.77,540.90 L119.37,545.41 L121.96,536.67 L124.56,526.73 L127.16,499.05 L129.76,501.04 L132.36,503.95 L134.95,502.63 L137.55,505.01 L140.15,506.60 L142.75,497.73 L145.35,504.08 L147.95,503.69 L150.54,501.17 L153.14,501.17 L155.74,505.94 L158.34,508.06 L160.94,517.99 L163.53,533.22 L166.13,536.00 L168.73,535.61 L171.33,539.58 L173.93,528.59 L176.53,515.34 L179.12,522.36 L181.72,510.44 L184.32,508.06 L186.92,504.61 L189.52,490.84 L192.11,497.06 L194.71,518.65 L197.31,513.49 L199.91,520.11 L202.51,524.08 L205.11,526.60 L207.70,542.36 L210.30,552.16 L212.90,544.08 L215.50,537.73 L218.10,545.67 L220.69,557.72 L223.29,563.29 L225.89,549.25 L228.49,530.18 L231.09,525.67 L233.69,528.06 L236.28,517.20 L238.88,502.89 L241.48,492.30 L244.08,495.87 L246.68,497.33 L249.27,497.99 L251.87,502.36 L254.47,521.43 L257.07,520.11 L259.67,531.50 L262.27,526.60 L264.86,536.93 L267.46,542.23 L270.06,535.08 L272.66,521.83 L275.26,522.89 L277.85,515.74 L280.45,520.64 L283.05,521.17 L285.65,521.17 L288.25,522.49 L290.85,522.36 L293.44,524.35 L296.04,524.35 L298.64,527.00 L301.24,530.04 L303.84,525.80 L306.44,520.64 L309.03,513.35 L311.63,514.81 L314.23,516.80 L316.83,515.47 L319.43,488.19 L322.02,470.04 L324.62,452.56 L327.22,469.38 L329.82,469.65 L332.42,463.02 L335.02,478.26 L337.61,508.32 L340.21,525.27 L342.81,546.86 L345.41,539.18 L348.01,535.21 L350.60,545.27 L353.20,526.47 L355.80,508.98 L358.40,521.30 L361.00,523.02 L363.60,497.20 L366.19,493.36 L368.79,496.00 L371.39,497.73 L373.99,518.26 L376.59,502.89 L379.18,503.29 L381.78,517.06 L384.38,519.05 L386.98,492.16 L389.58,507.66 L392.18,466.87 L394.77,466.87 L397.37,460.11 L399.97,471.63 L402.57,457.99 L405.17,477.73 L407.76,474.28 L410.36,506.73 L412.96,498.79 L415.56,521.17 L418.16,519.84 L420.76,519.58 L423.35,522.36 L425.95,518.65 L428.55,508.98 L431.15,527.92 L433.75,504.22 L436.34,483.55 L438.94,488.19 L441.54,451.50 L444.14,448.59 L446.74,450.97 L449.34,448.59 L451.93,434.81 L454.53,448.72 L457.13,464.88 L459.73,493.22 L462.33,497.46 L464.92,508.72 L467.52,507.92 L470.12,528.98 L472.72,533.35 L475.32,500.77 L477.92,513.62 L480.51,518.26 L483.11,509.51 L485.71,497.46 L488.31,490.57 L490.91,508.19 L493.50,531.50 L496.10,532.82 L498.70,529.25 L501.30,541.43 L503.90,554.28 L506.50,564.21 L509.09,541.83 L511.69,529.25 L514.29,529.65 L516.89,525.14 L519.49,517.86 L522.08,524.08 L524.68,520.90 L527.28,530.31 L529.88,553.75 L532.48,544.88 L535.08,534.81 L537.67,532.82 L540.27,532.16 L542.87,528.59 L545.47,528.98 L548.07,519.98 L550.66,541.83 L553.26,549.91 L555.86,547.39 L558.46,534.41 L561.06,538.78 L563.66,524.35 L566.25,524.35 L568.85,507.53 L571.45,508.59 L574.05,521.57 L576.65,523.95 L579.24,520.11 L581.84,526.33 L584.44,525.01 L587.04,518.39 L589.64,513.62 L592.24,500.51 L594.83,510.84 L597.43,517.06 L600.03,514.81 L602.63,520.64 L605.23,530.04 L607.82,528.59 L610.42,528.59 L615.62,527.92 L618.22,512.83 L644.20,542.76 L646.80,548.32 L649.40,540.11 L651.99,553.62 L654.59,545.94 L657.19,539.84 L659.79,555.21 L662.39,547.53 L664.98,549.38 L667.58,556.53 L670.18,555.21 L672.78,560.90 L675.38,562.36 L677.98,562.89 L680.57,563.82 L683.17,556.66 L685.77,546.20 L688.37,538.65 L690.97,542.36 L693.56,535.61 L696.16,537.06 L698.76,530.31 L701.36,542.10 L703.96,538.12 L706.56,539.31 L709.15,534.15 L711.75,525.67 L714.35,516.40 L716.95,511.37 L719.55,505.54 L722.15,522.36 L724.74,516.67 L727.34,517.33 L729.94,534.81 L732.54,547.00 L735.14,552.16 L737.73,538.39 L740.33,509.38 L745.53,512.96 L748.13,508.45 L750.73,498.12 L753.32,495.61 L755.92,491.90 L758.52,497.73 L761.12,510.97 L763.72,504.88 L766.31,507.13 L768.91,516.53 L771.51,528.06 L774.11,546.20 L776.71,559.05 L779.31,561.70 L781.90,567.92 L784.50,569.78 L787.10,578.92 L789.70,564.48 L792.30,539.45 L794.89,532.29 L797.49,531.10 L800.09,523.02 L802.69,519.58 L805.29,499.45 L807.89,507.26 L810.48,507.79 L813.08,498.52 L815.68,514.15 L818.28,508.45 L820.88,502.23 L823.47,514.81 L826.07,507.39 L828.67,516.67 L831.27,523.29 L833.87,505.81 L836.47,516.93 L839.06,531.50 L841.66,533.09 L844.26,530.71 L846.86,526.73 L849.46,528.72 L852.05,533.88 L854.65,531.50 L857.25,529.25 L859.85,520.24 L862.45,532.82 L865.05,539.71 L867.64,542.63 L870.24,530.18 L872.84,547.66 L875.44,579.98 L878.04,594.54 L880.63,577.72 L883.23,550.97 L885.83,559.45 L888.43,577.46 L891.03,557.06 L893.63,521.70 L896.22,508.59 L898.82,517.59 L901.42,547.79 L904.02,547.66 L906.62,539.31 L909.21,620.90 L911.81,628.19 L914.41,623.02 L917.01,618.65 L919.61,606.33 L922.21,594.28 L924.80,598.25 L927.40,517.99 L930.00,492.30" fill="none" stroke="#60a5fa" stroke-width="2.2" stroke-linecap="round" />
</svg>
