<svg xmlns="http://www.w3.org/2000/svg" viewBox="0 0 960 720" width="960" height="720">
<rect width="960" height="720" fill="#0f172a" />
<text x="480" y="28" fill="#e2e8f0" font-size="16" font-weight="700" text-anchor="middle">睡眠手腕温度均值趋势图</text>
<text x="70" y="70" fill="#e2e8f0" font-size="13" font-weight="600">本月分天指标明细</text>
<line x1="70" y1="323.00" x2="930" y2="323.00" stroke="#94a3b8" stroke-opacity="0.18" stroke-width="1" />
<text x="62" y="327.00" fill="#cbd5f5" font-size="10" text-anchor="end">34.6</text>
<line x1="70" y1="260.75" x2="930" y2="260.75" stroke="#94a3b8" stroke-opacity="0.18" stroke-width="1" />
<text x="62" y="264.75" fill="#cbd5f5" font-size="10" text-anchor="end">34.9</text>
<line x1="70" y1="198.50" x2="930" y2="198.50" stroke="#94a3b8" stroke-opacity="0.18" stroke-width="1" />
<text x="62" y="202.50" fill="#cbd5f5" font-size="10" text-anchor="end">35.3</text>
<line x1="70" y1="136.25" x2="930" y2="136.25" stroke="#94a3b8" stroke-opacity="0.18" stroke-width="1" />
<text x="62" y="140.25" fill="#cbd5f5" font-size="10" text-anchor="end">35.7</text>
<line x1="70" y1="74.00" x2="930" y2="74.00" stroke="#94a3b8" stroke-opacity="0.18" stroke-width="1" />
<text x="62" y="78.00" fill="#cbd5f5" font-size="10" text-anchor="end">36.1</text>
<line x1="70.00" y1="323" x2="70.00" y2="327" stroke="#94a3b8" stroke-opacity="0.5" stroke-width="1" />
<text x="70.00" y="341" fill="#cbd5f5" font-size="10" text-anchor="middle">11-18</text>
<line x1="242.00" y1="323" x2="242.00" y2="327" stroke="#94a3b8" stroke-opacity="0.5" stroke-width="1" />
<text x="242.00" y="341" fill="#cbd5f5" font-size="10" text-anchor="middle">11-23</text>
<line x1="414.00" y1="323" x2="414.00" y2="327" stroke="#94a3b8" stroke-opacity="0.5" stroke-width="1" />
<text x="414.00" y="341" fill="#cbd5f5" font-size="10" text-anchor="middle">11-29</text>
<line x1="586.00" y1="323" x2="586.00" y2="327" stroke="#94a3b8" stroke-opacity="0.5" stroke-width="1" />
<text x="586.00" y="341" fill="#cbd5f5" font-size="10" text-anchor="middle">12-05</text>
<line x1="758.00" y1="323" x2="758.00" y2="327" stroke="#94a3b8" stroke-opacity="0.5" stroke-width="1" />
<text x="758.00" y="341" fill="#cbd5f5" font-size="10" text-anchor="middle">12-11</text>
<line x1="930.00" y1="323" x2="930.00" y2="327" stroke="#94a3b8" stroke-opacity="0.5" stroke-width="1" />
<text x="930.00" y="341" fill="#cbd5f5" font-size="10" text-anchor="middle">12-17</text>
<line x1="70" y1="74" x2="70" y2="323" stroke="#94a3b8" stroke-width="1" />
<line x1="70" y1="323" x2="930" y2="323" stroke="#94a3b8" stroke-width="1" />
<path d="M70.00,224.92 L99.66,291.61 L129.31,225.78 L158.97,213.13 L188.62,216.82 L218.28,118.30 L247.93,151.85 L277.59,205.88 L307.24,196.26 L336.90,179.60 L366.55,145.36 L396.21,150.24 L425.86,165.91 L455.52,224.62 L485.17,205.32 L514.83,244.13 L544.48,229.41 L574.14,252.30 L603.79,163.10 L633.45,213.60 L663.10,165.27 L692.76,207.75 L722.41,220.07 L752.07,168.83 L811.38,159.84 L841.03,105.39 L870.69,248.30 L900.34,150.42 L930.00,177.51" fill="none" stroke="#60a5fa" stroke-width="2.2" stroke-linecap="round" />
<circle cx="70.00" cy="224.92" r="3" fill="#60a5fa" stroke="#0f172a" stroke-width="1" />
<text x="70.00" y="214.92" fill="#e2e8f0" font-size="9" text-anchor="middle">35.2</text>
<circle cx="99.66" cy="291.61" r="3" fill="#60a5fa" stroke="#0f172a" stroke-width="1" />
<text x="99.66" y="271.61" fill="#e2e8f0" font-size="9" text-anchor="middle">34.8</text>
<circle cx="129.31" cy="225.78" r="3" fill="#60a5fa" stroke="#0f172a" stroke-width="1" />
<text x="129.31" y="215.78" fill="#e2e8f0" font-size="9" text-anchor="middle">35.2</text>
<circle cx="158.97" cy="213.13" r="3" fill="#60a5fa" stroke="#0f172a" stroke-width="1" />
<text x="158.97" y="193.13" fill="#e2e8f0" font-size="9" text-anchor="middle">35.3</text>
<circle cx="188.62" cy="216.82" r="3" fill="#60a5fa" stroke="#0f172a" stroke-width="1" />
<text x="188.62" y="206.82" fill="#e2e8f0" font-size="9" text-anchor="middle">35.2</text>
<circle cx="218.28" cy="118.30" r="3" fill="#60a5fa" stroke="#0f172a" stroke-width="1" />
<text x="218.28" y="98.30" fill="#e2e8f0" font-size="9" text-anchor="middle">35.9</text>
<circle cx="247.93" cy="151.85" r="3" fill="#60a5fa" stroke="#0f172a" stroke-width="1" />
<text x="247.93" y="141.85" fill="#e2e8f0" font-size="9" text-anchor="middle">35.6</text>
<circle cx="277.59" cy="205.88" r="3" fill="#60a5fa" stroke="#0f172a" stroke-width="1" />
<text x="277.59" y="185.88" fill="#e2e8f0" font-size="9" text-anchor="middle">35.3</text>
<circle cx="307.24" cy="196.26" r="3" fill="#60a5fa" stroke="#0f172a" stroke-width="1" />
<text x="307.24" y="186.26" fill="#e2e8f0" font-size="9" text-anchor="middle">35.4</text>
<circle cx="336.90" cy="179.60" r="3" fill="#60a5fa" stroke="#0f172a" stroke-width="1" />
<text x="336.90" y="159.60" fill="#e2e8f0" font-size="9" text-anchor="middle">35.5</text>
<circle cx="366.55" cy="145.36" r="3" fill="#60a5fa" stroke="#0f172a" stroke-width="1" />
<text x="366.55" y="135.36" fill="#e2e8f0" font-size="9" text-anchor="middle">35.7</text>
<circle cx="396.21" cy="150.24" r="3" fill="#60a5fa" stroke="#0f172a" stroke-width="1" />
<text x="396.21" y="130.24" fill="#e2e8f0" font-size="9" text-anchor="middle">35.7</text>
<circle cx="425.86" cy="165.91" r="3" fill="#60a5fa" stroke="#0f172a" stroke-width="1" />
<text x="425.86" y="155.91" fill="#e2e8f0" font-size="9" text-anchor="middle">35.6</text>
<circle cx="455.52" cy="224.62" r="3" fill="#60a5fa" stroke="#0f172a" stroke-width="1" />
<text x="455.52" y="204.62" fill="#e2e8f0" font-size="9" text-anchor="middle">35.2</text>
<circle cx="485.17" cy="205.32" r="3" fill="#60a5fa" stroke="#0f172a" stroke-width="1" />
<text x="485.17" y="195.32" fill="#e2e8f0" font-size="9" text-anchor="middle">35.3</text>
<circle cx="514.83" cy="244.13" r="3" fill="#60a5fa" stroke="#0f172a" stroke-width="1" />
<text x="514.83" y="224.13" fill="#e2e8f0" font-size="9" text-anchor="middle">35.1</text>
<circle cx="544.48" cy="229.41" r="3" fill="#60a5fa" stroke="#0f172a" stroke-width="1" />
<text x="544.48" y="219.41" fill="#e2e8f0" font-size="9" text-anchor="middle">35.1</text>
<circle cx="574.14" cy="252.30" r="3" fill="#60a5fa" stroke="#0f172a" stroke-width="1" />
<text x="574.14" y="232.30" fill="#e2e8f0" font-size="9" text-anchor="middle">35</text>
<circle cx="603.79" cy="163.10" r="3" fill="#60a5fa" stroke="#0f172a" stroke-width="1" />
<text x="603.79" y="153.10" fill="#e2e8f0" font-size="9" text-anchor="middle">35.6</text>
<circle cx="633.45" cy="213.60" r="3" fill="#60a5fa" stroke="#0f172a" stroke-width="1" />
<text x="633.45" y="193.60" fill="#e2e8f0" font-size="9" text-anchor="middle">35.2</text>
<circle cx="663.10" cy="165.27" r="3" fill="#60a5fa" stroke="#0f172a" stroke-width="1" />
<text x="663.10" y="155.27" fill="#e2e8f0" font-size="9" text-anchor="middle">35.6</text>
<circle cx="692.76" cy="207.75" r="3" fill="#60a5fa" stroke="#0f172a" stroke-width="1" />
<text x="692.76" y="187.75" fill="#e2e8f0" font-size="9" text-anchor="middle">35.3</text>
<circle cx="722.41" cy="220.07" r="3" fill="#60a5fa" stroke="#0f172a" stroke-width="1" />
<text x="722.41" y="210.07" fill="#e2e8f0" font-size="9" text-anchor="middle">35.2</text>
<circle cx="752.07" cy="168.83" r="3" fill="#60a5fa" stroke="#0f172a" stroke-width="1" />
<text x="752.07" y="148.83" fill="#e2e8f0" font-size="9" text-anchor="middle">35.5</text>
<circle cx="811.38" cy="159.84" r="3" fill="#60a5fa" stroke="#0f172a" stroke-width="1" />
<text x="811.38" y="149.84" fill="#e2e8f0" font-size="9" text-anchor="middle">35.6</text>
<circle cx="841.03" cy="105.39" r="3" fill="#60a5fa" stroke="#0f172a" stroke-width="1" />
<text x="841.03" y="85.39" fill="#e2e8f0" font-size="9" text-anchor="middle">35.9</text>
<circle cx="870.69" cy="248.30" r="3" fill="#60a5fa" stroke="#0f172a" stroke-width="1" />
<text x="870.69" y="238.30" fill="#e2e8f0" font-size="9" text-anchor="middle">35</text>
<circle cx="900.34" cy="150.42" r="3" fill="#60a5fa" stroke="#0f172a" stroke-width="1" />
<text x="900.34" y="130.42" fill="#e2e8f0" font-size="9" text-anchor="middle">35.7</text>
<circle cx="930.00" cy="177.51" r="3" fill="#60a5fa" stroke="#0f172a" stroke-width="1" />
<text x="930.00" y="167.51" fill="#e2e8f0" font-size="9" text-anchor="middle">35.5</text>
<text x="70" y="403" fill="#e2e8f0" font-size="13" font-weight="600">本年核心指标趋势（滑动7日窗口平均）</text>
<line x1="70" y1="656.00" x2="930" y2="656.00" stroke="#94a3b8" stroke-opacity="0.18" stroke-width="1" />
<text x="62" y="660.00" fill="#cbd5f5" font-size="10" text-anchor="end">34.8</text>
<line x1="70" y1="593.75" x2="930" y2="593.75" stroke="#94a3b8" stroke-opacity="0.18" stroke-width="1" />
<text x="62" y="597.75" fill="#cbd5f5" font-size="10" text-anchor="end">35.1</text>
<line x1="70" y1="531.50" x2="930" y2="531.50" stroke="#94a3b8" stroke-opacity="0.18" stroke-width="1" />
<text x="62" y="535.50" fill="#cbd5f5" font-size="10" text-anchor="end">35.5</text>
<line x1="70" y1="469.25" x2="930" y2="469.25" stroke="#94a3b8" stroke-opacity="0.18" stroke-width="1" />
<text x="62" y="473.25" fill="#cbd5f5" font-size="10" text-anchor="end">35.8</text>
<line x1="70" y1="407.00" x2="930" y2="407.00" stroke="#94a3b8" stroke-opacity="0.18" stroke-width="1" />
<text x="62" y="411.00" fill="#cbd5f5" font-size="10" text-anchor="end">36.2</text>
<line x1="70.00" y1="656" x2="70.00" y2="660" stroke="#94a3b8" stroke-opacity="0.5" stroke-width="1" />
<text x="70.00" y="674" fill="#cbd5f5" font-size="10" text-anchor="middle">2025-02</text>
<line x1="242.00" y1="656" x2="242.00" y2="660" stroke="#94a3b8" stroke-opacity="0.5" stroke-width="1" />
<text x="242.00" y="674" fill="#cbd5f5" font-size="10" text-anchor="middle">2025-04</text>
<line x1="414.00" y1="656" x2="414.00" y2="660" stroke="#94a3b8" stroke-opacity="0.5" stroke-width="1" />
<text x="414.00" y="674" fill="#cbd5f5" font-size="10" text-anchor="middle">2025-06</text>
<line x1="586.00" y1="656" x2="586.00" y2="660" stroke="#94a3b8" stroke-opacity="0.5" stroke-width="1" />
<text x="586.00" y="674" fill="#cbd5f5" font-size="10" text-anchor="middle">2025-08</text>
<line x1="758.00" y1="656" x2="758.00" y2="660" stroke="#94a3b8" stroke-opacity="0.5" stroke-width="1" />
<text x="758.00" y="674" fill="#cbd5f5" font-size="10" text-anchor="middle">2025-10</text>
<line x1="930.00" y1="656" x2="930.00" y2="660" stroke="#94a3b8" stroke-opacity="0.5" stroke-width="1" />
<text x="930.00" y="674" fill="#cbd5f5" font-size="10" text-anchor="middle">2025-12</text>
<line x1="70" y1="407" x2="70" y2="656" stroke="#94a3b8" stroke-width="1" />
<line x1="70" y1="656" x2="930" y2="656" stroke="#94a3b8" stroke-width="1" />
<path d="M70.00,656.00 L70.00,442.94 L72.75,442.04 L75.50,502.56 L78.24,524.71 L80.99,512.43 L83.74,520.65 L86.49,535.56 L91.98,545.42 L94.73,557.23 L97.48,548.66 L100.22,540.70 L102.97,559.10 L105.72,568.31 L108.47,547.99 L111.21,549.69 L113.96,560.95 L116.71,571.52 L119.46,582.10 L122.20,582.58 L124.95,582.16 L127.70,603.94 L130.45,602.76 L133.19,587.08 L135.94,571.12 L138.69,565.66 L141.44,554.16 L144.19,543.51 L146.93,541.83 L152.43,551.37 L155.18,555.23 L157.92,549.50 L160.67,481.86 L163.42,482.29 L166.17,504.47 L168.91,507.86 L171.66,511.84 L174.41,523.60 L177.16,544.72 L179.90,612.09 L182.65,620.96 L185.40,611.54 L188.15,606.01 L190.89,589.74 L193.64,582.09 L196.39,572.61 L199.14,567.29 L201.88,560.51 L204.63,530.85 L207.38,521.35 L210.13,517.32 L212.88,526.91 L215.62,539.86 L221.12,528.84 L223.87,534.18 L226.61,564.15 L229.36,564.73 L232.11,590.87 L234.86,579.59 L237.60,572.79 L240.35,589.64 L243.10,587.43 L245.85,584.99 L248.59,591.18 L251.34,575.74 L254.09,565.34 L256.84,563.31 L259.58,558.20 L262.33,548.04 L265.08,546.77 L267.83,531.36 L270.58,525.56 L273.32,548.22 L276.07,542.06 L278.82,551.91 L281.57,556.49 L284.31,538.25 L287.06,547.91 L289.81,560.53 L292.56,556.20 L298.05,545.18 L300.80,529.39 L303.55,532.54 L306.29,539.59 L309.04,532.48 L311.79,531.79 L314.54,530.84 L317.28,548.49 L320.03,556.03 L322.78,548.87 L325.53,545.02 L328.27,554.35 L331.02,556.67 L333.77,552.84 L336.52,541.17 L339.27,521.95 L342.01,530.69 L344.76,526.91 L347.51,526.36 L350.26,518.28 L353.00,517.78 L355.75,525.80 L358.50,532.28 L361.25,515.97 L363.99,505.96 L366.74,495.67 L369.49,478.72 L374.98,473.83 L380.48,467.04 L383.23,471.87 L385.97,489.79 L391.47,511.98 L394.22,519.70 L396.96,529.77 L399.71,539.63 L402.46,539.59 L405.21,545.79 L407.96,539.34 L410.70,537.49 L413.45,535.94 L416.20,520.70 L418.95,509.86 L421.69,495.34 L424.44,492.80 L427.19,490.26 L429.94,494.29 L432.68,494.20 L435.43,505.19 L438.18,508.51 L440.93,516.36 L443.67,518.03 L446.42,512.43 L449.17,501.19 L451.92,507.16 L454.66,521.75 L457.41,514.43 L460.16,518.39 L462.91,518.11 L465.65,530.11 L468.40,548.03 L471.15,547.09 L473.90,543.76 L476.65,549.44 L479.39,551.04 L482.14,541.77 L484.89,547.53 L487.64,542.35 L490.38,545.85 L493.13,537.44 L495.88,522.96 L498.63,532.86 L501.37,545.46 L504.12,548.04 L506.87,540.23 L509.62,524.09 L512.36,537.70 L515.11,540.81 L517.86,535.80 L520.61,537.25 L523.35,533.28 L526.10,537.32 L528.85,540.97 L531.60,525.85 L534.35,534.02 L537.09,530.52 L539.84,524.57 L542.59,512.41 L545.34,504.76 L548.08,522.95 L550.83,525.65 L553.58,545.71 L556.33,542.05 L559.07,538.66 L561.82,548.18 L564.57,565.36 L567.32,548.38 L570.06,558.32 L572.81,536.56 L575.56,538.11 L578.31,546.17 L581.05,547.44 L583.80,540.71 L586.55,545.25 L589.30,536.05 L592.04,528.50 L594.79,514.66 L597.54,513.86 L600.29,514.24 L605.78,509.27 L611.28,501.28 L636.01,511.73 L638.75,524.81 L641.50,552.14 L644.25,553.65 L649.74,540.55 L652.49,543.96 L655.24,559.50 L657.99,549.64 L660.73,558.79 L663.48,548.84 L666.23,554.74 L668.98,560.36 L671.73,548.16 L674.47,541.58 L677.22,551.14 L679.97,557.00 L682.72,562.29 L685.46,556.22 L688.21,550.00 L690.96,547.65 L693.71,561.27 L696.45,551.92 L699.20,544.53 L701.95,532.66 L704.70,532.97 L707.44,527.32 L710.19,538.71 L712.94,520.68 L715.69,533.50 L718.43,522.90 L721.18,528.92 L723.93,518.57 L726.68,531.40 L729.42,527.90 L732.17,529.36 L734.92,516.02 L737.67,505.70 L743.16,511.55 L745.91,517.65 L748.66,517.32 L751.41,524.68 L754.15,523.63 L756.90,540.42 L759.65,548.34 L762.40,541.13 L765.14,534.31 L767.89,523.87 L770.64,521.49 L773.39,526.39 L776.13,523.63 L778.88,527.57 L781.63,528.41 L784.38,535.97 L787.12,542.34 L789.87,539.01 L792.62,525.14 L795.37,512.03 L798.12,530.89 L800.86,535.92 L803.61,540.40 L806.36,553.93 L809.11,554.89 L811.85,567.14 L814.60,581.84 L817.35,569.33 L822.84,570.15 L825.59,567.72 L828.34,562.34 L831.09,570.23 L833.83,570.30 L836.58,571.42 L839.33,577.35 L842.08,573.98 L844.82,571.99 L847.57,572.60 L850.32,569.58 L853.07,585.28 L855.81,579.87 L858.56,574.44 L861.31,577.95 L864.06,567.64 L866.81,560.47 L869.55,557.44 L872.30,542.23 L875.05,534.87 L877.80,524.06 L880.54,513.44 L883.29,521.03 L886.04,532.64 L888.79,532.55 L891.53,540.18 L894.28,548.12 L897.03,565.18 L899.78,567.23 L902.52,574.84 L905.27,565.37 L908.02,565.76 L910.77,561.92 L913.51,552.26 L919.01,537.52 L921.76,528.31 L924.50,533.85 L927.25,531.48 L930.00,526.66 L930.00,656.00 Z" fill="#60a5fa" fill-opacity="0.16" stroke="none" />
<path d="M70.00,442.94 L72.75,442.04 L75.50,502.56 L78.24,524.71 L80.99,512.43 L83.74,520.65 L86.49,535.56 L91.98,545.42 L94.73,557.23 L97.48,548.66 L100.22,540.70 L102.97,559.10 L105.72,568.31 L108.47,547.99 L111.21,549.69 L113.96,560.95 L116.71,571.52 L119.46,582.10 L122.20,582.58 L124.95,582.16 L127.70,603.94 L130.45,602.76 L133.19,587.08 L135.94,571.12 L138.69,565.66 L141.44,554.16 L144.19,543.51 L146.93,541.83 L152.43,551.37 L155.18,555.23 L157.92,549.50 L160.67,481.86 L163.42,482.29 L166.17,504.47 L168.91,507.86 L171.66,511.84 L174.41,523.60 L177.16,544.72 L179.90,612.09 L182.65,620.96 L185.40,611.54 L188.15,606.01 L190.89,589.74 L193.64,582.09 L196.39,572.61 L199.14,567.29 L201.88,560.51 L204.63,530.85 L207.38,521.35 L210.13,517.32 L212.88,526.91 L215.62,539.86 L221.12,528.84 L223.87,534.18 L226.61,564.15 L229.36,564.73 L232.11,590.87 L234.86,579.59 L237.60,572.79 L240.35,589.64 L243.10,587.43 L245.85,584.99 L248.59,591.18 L251.34,575.74 L254.09,565.34 L256.84,563.31 L259.58,558.20 L262.33,548.04 L265.08,546.77 L267.83,531.36 L270.58,525.56 L273.32,548.22 L276.07,542.06 L278.82,551.91 L281.57,556.49 L284.31,538.25 L287.06,547.91 L289.81,560.53 L292.56,556.20 L298.05,545.18 L300.80,529.39 L303.55,532.54 L306.29,539.59 L309.04,532.48 L311.79,531.79 L314.54,530.84 L317.28,548.49 L320.03,556.03 L322.78,548.87 L325.53,545.02 L328.27,554.35 L331.02,556.67 L333.77,552.84 L336.52,541.17 L339.27,521.95 L342.01,530.69 L344.76,526.91 L347.51,526.36 L350.26,518.28 L353.00,517.78 L355.75,525.80 L358.50,532.28 L361.25,515.97 L363.99,505.96 L366.74,495.67 L369.49,478.72 L374.98,473.83 L380.48,467.04 L383.23,471.87 L385.97,489.79 L391.47,511.98 L394.22,519.70 L396.96,529.77 L399.71,539.63 L402.46,539.59 L405.21,545.79 L407.96,539.34 L410.70,537.49 L413.45,535.94 L416.20,520.70 L418.95,509.86 L421.69,495.34 L424.44,492.80 L427.19,490.26 L429.94,494.29 L432.68,494.20 L435.43,505.19 L438.18,508.51 L440.93,516.36 L443.67,518.03 L446.42,512.43 L449.17,501.19 L451.92,507.16 L454.66,521.75 L457.41,514.43 L460.16,518.39 L462.91,518.11 L465.65,530.11 L468.40,548.03 L471.15,547.09 L473.90,543.76 L476.65,549.44 L479.39,551.04 L482.14,541.77 L484.89,547.53 L487.64,542.35 L490.38,545.85 L493.13,537.44 L495.88,522.96 L498.63,532.86 L501.37,545.46 L504.12,548.04 L506.87,540.23 L509.62,524.09 L512.36,537.70 L515.11,540.81 L517.86,535.80 L520.61,537.25 L523.35,533.28 L526.10,537.32 L528.85,540.97 L531.60,525.85 L534.35,534.02 L537.09,530.52 L539.84,524.57 L542.59,512.41 L545.34,504.76 L548.08,522.95 L550.83,525.65 L553.58,545.71 L556.33,542.05 L559.07,538.66 L561.82,548.18 L564.57,565.36 L567.32,548.38 L570.06,558.32 L572.81,536.56 L575.56,538.11 L578.31,546.17 L581.05,547.44 L583.80,540.71 L586.55,545.25 L589.30,536.05 L592.04,528.50 L594.79,514.66 L597.54,513.86 L600.29,514.24 L605.78,509.27 L611.28,501.28 L636.01,511.73 L638.75,524.81 L641.50,552.14 L644.25,553.65 L649.74,540.55 L652.49,543.96 L655.24,559.50 L657.99,549.64 L660.73,558.79 L663.48,548.84 L666.23,554.74 L668.98,560.36 L671.73,548.16 L674.47,541.58 L677.22,551.14 L679.97,557.00 L682.72,562.29 L685.46,556.22 L688.21,550.00 L690.96,547.65 L693.71,561.27 L696.45,551.92 L699.20,544.53 L701.95,532.66 L704.70,532.97 L707.44,527.32 L710.19,538.71 L712.94,520.68 L715.69,533.50 L718.43,522.90 L721.18,528.92 L723.93,518.57 L726.68,531.40 L729.42,527.90 L732.17,529.36 L734.92,516.02 L737.67,505.70 L743.16,511.55 L745.91,517.65 L748.66,517.32 L751.41,524.68 L754.15,523.63 L756.90,540.42 L759.65,548.34 L762.40,541.13 L765.14,534.31 L767.89,523.87 L770.64,521.49 L773.39,526.39 L776.13,523.63 L778.88,527.57 L781.63,528.41 L784.38,535.97 L787.12,542.34 L789.87,539.01 L792.62,525.14 L795.37,512.03 L798.12,530.89 L800.86,535.92 L803.61,540.40 L806.36,553.93 L809.11,554.89 L811.85,567.14 L814.60,581.84 L817.35,569.33 L822.84,570.15 L825.59,567.72 L828.34,562.34 L831.09,570.23 L833.83,570.30 L836.58,571.42 L839.33,577.35 L842.08,573.98 L844.82,571.99 L847.57,572.60 L850.32,569.58 L853.07,585.28 L855.81,579.87 L858.56,574.44 L861.31,577.95 L864.06,567.64 L866.81,560.47 L869.55,557.44 L872.30,542.23 L875.05,534.87 L877.80,524.06 L880.54,513.44 L883.29,521.03 L886.04,532.64 L888.79,532.55 L891.53,540.18 L894.28,548.12 L897.03,565.18 L899.78,567.23 L902.52,574.84 L905.27,565.37 L908.02,565.76 L910.77,561.92 L913.51,552.26 L919.01,537.52 L921.76,528.31 L924.50,533.85 L927.25,531.48 L930.00,526.66" fill="none" stroke="#60a5fa" stroke-width="2.2" stroke-linecap="round" />
</svg>
