<svg xmlns="http://www.w3.org/2000/svg" viewBox="0 0 960 720" width="960" height="720">
<rect width="960" height="720" fill="#0f172a" />
<text x="480" y="28" fill="#e2e8f0" font-size="16" font-weight="700" text-anchor="middle">血氧均值趋势图</text>
<text x="70" y="70" fill="#e2e8f0" font-size="13" font-weight="600">本月分天指标明细</text>
<line x1="70" y1="323.00" x2="930" y2="323.00" stroke="#94a3b8" stroke-opacity="0.18" stroke-width="1" />
<text x="62" y="327.00" fill="#cbd5f5" font-size="10" text-anchor="end">0.76</text>
<line x1="70" y1="260.75" x2="930" y2="260.75" stroke="#94a3b8" stroke-opacity="0.18" stroke-width="1" />
<text x="62" y="264.75" fill="#cbd5f5" font-size="10" text-anchor="end">0.87</text>
<line x1="70" y1="198.50" x2="930" y2="198.50" stroke="#94a3b8" stroke-opacity="0.18" stroke-width="1" />
<text x="62" y="202.50" fill="#cbd5f5" font-size="10" text-anchor="end">0.97</text>
<line x1="70" y1="136.25" x2="930" y2="136.25" stroke="#94a3b8" stroke-opacity="0.18" stroke-width="1" />
<text x="62" y="140.25" fill="#cbd5f5" font-size="10" text-anchor="end">1.08</text>
<line x1="70" y1="74.00" x2="930" y2="74.00" stroke="#94a3b8" stroke-opacity="0.18" stroke-width="1" />
<text x="62" y="78.00" fill="#cbd5f5" font-size="10" text-anchor="end">1.18</text>
<line x1="70.00" y1="323" x2="70.00" y2="327" stroke="#94a3b8" stroke-opacity="0.5" stroke-width="1" />
<text x="70.00" y="341" fill="#cbd5f5" font-size="10" text-anchor="middle">11-22</text>
<line x1="242.00" y1="323" x2="242.00" y2="327" stroke="#94a3b8" stroke-opacity="0.5" stroke-width="1" />
<text x="242.00" y="341" fill="#cbd5f5" font-size="10" text-anchor="middle">11-27</text>
<line x1="414.00" y1="323" x2="414.00" y2="327" stroke="#94a3b8" stroke-opacity="0.5" stroke-width="1" />
<text x="414.00" y="341" fill="#cbd5f5" font-size="10" text-anchor="middle">12-03</text>
<line x1="586.00" y1="323" x2="586.00" y2="327" stroke="#94a3b8" stroke-opacity="0.5" stroke-width="1" />
<text x="586.00" y="341" fill="#cbd5f5" font-size="10" text-anchor="middle">12-09</text>
<line x1="758.00" y1="323" x2="758.00" y2="327" stroke="#94a3b8" stroke-opacity="0.5" stroke-width="1" />
<text x="758.00" y="341" fill="#cbd5f5" font-size="10" text-anchor="middle">12-15</text>
<line x1="930.00" y1="323" x2="930.00" y2="327" stroke="#94a3b8" stroke-opacity="0.5" stroke-width="1" />
<text x="930.00" y="341" fill="#cbd5f5" font-size="10" text-anchor="middle">12-21</text>
<line x1="70" y1="74" x2="70" y2="323" stroke="#94a3b8" stroke-width="1" />
<line x1="70" y1="323" x2="930" y2="323" stroke="#94a3b8" stroke-width="1" />
<path d="M70.00,195.89 L99.66,197.72 L129.31,198.92 L158.97,199.87 L188.62,193.47 L218.28,201.26 L247.93,199.59 L277.59,201.26 L307.24,202.47 L336.90,196.55 L366.55,201.53 L396.21,196.28 L425.86,196.60 L455.52,198.20 L485.17,198.20 L514.83,194.04 L544.48,198.20 L574.14,197.07 L603.79,196.43 L633.45,200.18 L663.10,195.03 L692.76,192.11 L722.41,197.11 L752.07,201.95 L781.72,195.44 L811.38,199.64 L841.03,199.38 L870.69,199.89 L900.34,204.89 L930.00,196.69" fill="none" stroke="#60a5fa" stroke-width="2.2" stroke-linecap="round" />
<circle cx="70.00" cy="195.89" r="3" fill="#60a5fa" stroke="#0f172a" stroke-width="1" />
<text x="70.00" y="185.89" fill="#e2e8f0" font-size="9" text-anchor="middle">0.98</text>
<circle cx="99.66" cy="197.72" r="3" fill="#60a5fa" stroke="#0f172a" stroke-width="1" />
<text x="99.66" y="177.72" fill="#e2e8f0" font-size="9" text-anchor="middle">0.97</text>
<circle cx="129.31" cy="198.92" r="3" fill="#60a5fa" stroke="#0f172a" stroke-width="1" />
<text x="129.31" y="188.92" fill="#e2e8f0" font-size="9" text-anchor="middle">0.97</text>
<circle cx="158.97" cy="199.87" r="3" fill="#60a5fa" stroke="#0f172a" stroke-width="1" />
<text x="158.97" y="179.87" fill="#e2e8f0" font-size="9" text-anchor="middle">0.97</text>
<circle cx="188.62" cy="193.47" r="3" fill="#60a5fa" stroke="#0f172a" stroke-width="1" />
<text x="188.62" y="183.47" fill="#e2e8f0" font-size="9" text-anchor="middle">0.98</text>
<circle cx="218.28" cy="201.26" r="3" fill="#60a5fa" stroke="#0f172a" stroke-width="1" />
<text x="218.28" y="181.26" fill="#e2e8f0" font-size="9" text-anchor="middle">0.97</text>
<circle cx="247.93" cy="199.59" r="3" fill="#60a5fa" stroke="#0f172a" stroke-width="1" />
<text x="247.93" y="189.59" fill="#e2e8f0" font-size="9" text-anchor="middle">0.97</text>
<circle cx="277.59" cy="201.26" r="3" fill="#60a5fa" stroke="#0f172a" stroke-width="1" />
<text x="277.59" y="181.26" fill="#e2e8f0" font-size="9" text-anchor="middle">0.97</text>
<circle cx="307.24" cy="202.47" r="3" fill="#60a5fa" stroke="#0f172a" stroke-width="1" />
<text x="307.24" y="192.47" fill="#e2e8f0" font-size="9" text-anchor="middle">0.96</text>
<circle cx="336.90" cy="196.55" r="3" fill="#60a5fa" stroke="#0f172a" stroke-width="1" />
<text x="336.90" y="176.55" fill="#e2e8f0" font-size="9" text-anchor="middle">0.97</text>
<circle cx="366.55" cy="201.53" r="3" fill="#60a5fa" stroke="#0f172a" stroke-width="1" />
<text x="366.55" y="191.53" fill="#e2e8f0" font-size="9" text-anchor="middle">0.97</text>
<circle cx="396.21" cy="196.28" r="3" fill="#60a5fa" stroke="#0f172a" stroke-width="1" />
<text x="396.21" y="176.28" fill="#e2e8f0" font-size="9" text-anchor="middle">0.98</text>
<circle cx="425.86" cy="196.60" r="3" fill="#60a5fa" stroke="#0f172a" stroke-width="1" />
<text x="425.86" y="186.60" fill="#e2e8f0" font-size="9" text-anchor="middle">0.97</text>
<circle cx="455.52" cy="198.20" r="3" fill="#60a5fa" stroke="#0f172a" stroke-width="1" />
<text x="455.52" y="178.20" fill="#e2e8f0" font-size="9" text-anchor="middle">0.97</text>
<circle cx="485.17" cy="198.20" r="3" fill="#60a5fa" stroke="#0f172a" stroke-width="1" />
<text x="485.17" y="188.20" fill="#e2e8f0" font-size="9" text-anchor="middle">0.97</text>
<circle cx="514.83" cy="194.04" r="3" fill="#60a5fa" stroke="#0f172a" stroke-width="1" />
<text x="514.83" y="174.04" fill="#e2e8f0" font-size="9" text-anchor="middle">0.98</text>
<circle cx="544.48" cy="198.20" r="3" fill="#60a5fa" stroke="#0f172a" stroke-width="1" />
<text x="544.48" y="188.20" fill="#e2e8f0" font-size="9" text-anchor="middle">0.97</text>
<circle cx="574.14" cy="197.07" r="3" fill="#60a5fa" stroke="#0f172a" stroke-width="1" />
<text x="574.14" y="177.07" fill="#e2e8f0" font-size="9" text-anchor="middle">0.97</text>
<circle cx="603.79" cy="196.43" r="3" fill="#60a5fa" stroke="#0f172a" stroke-width="1" />
<text x="603.79" y="186.43" fill="#e2e8f0" font-size="9" text-anchor="middle">0.97</text>
<circle cx="633.45" cy="200.18" r="3" fill="#60a5fa" stroke="#0f172a" stroke-width="1" />
<text x="633.45" y="180.18" fill="#e2e8f0" font-size="9" text-anchor="middle">0.97</text>
<circle cx="663.10" cy="195.03" r="3" fill="#60a5fa" stroke="#0f172a" stroke-width="1" />
<text x="663.10" y="185.03" fill="#e2e8f0" font-size="9" text-anchor="middle">0.98</text>
<circle cx="692.76" cy="192.11" r="3" fill="#60a5fa" stroke="#0f172a" stroke-width="1" />
<text x="692.76" y="172.11" fill="#e2e8f0" font-size="9" text-anchor="middle">0.98</text>
<circle cx="722.41" cy="197.11" r="3" fill="#60a5fa" stroke="#0f172a" stroke-width="1" />
<text x="722.41" y="187.11" fill="#e2e8f0" font-size="9" text-anchor="middle">0.97</text>
<circle cx="752.07" cy="201.95" r="3" fill="#60a5fa" stroke="#0f172a" stroke-width="1" />
<text x="752.07" y="181.95" fill="#e2e8f0" font-size="9" text-anchor="middle">0.97</text>
<circle cx="781.72" cy="195.44" r="3" fill="#60a5fa" stroke="#0f172a" stroke-width="1" />
<text x="781.72" y="185.44" fill="#e2e8f0" font-size="9" text-anchor="middle">0.98</text>
<circle cx="811.38" cy="199.64" r="3" fill="#60a5fa" stroke="#0f172a" stroke-width="1" />
<text x="811.38" y="179.64" fill="#e2e8f0" font-size="9" text-anchor="middle">0.97</text>
<circle cx="841.03" cy="199.38" r="3" fill="#60a5fa" stroke="#0f172a" stroke-width="1" />
<text x="841.03" y="189.38" fill="#e2e8f0" font-size="9" text-anchor="middle">0.97</text>
<circle cx="870.69" cy="199.89" r="3" fill="#60a5fa" stroke="#0f172a" stroke-width="1" />
<text x="870.69" y="179.89" fill="#e2e8f0" font-size="9" text-anchor="middle">0.97</text>
<circle cx="900.34" cy="204.89" r="3" fill="#60a5fa" stroke="#0f172a" stroke-width="1" />
<text x="900.34" y="194.89" fill="#e2e8f0" font-size="9" text-anchor="middle">0.96</text>
<circle cx="930.00" cy="196.69" r="3" fill="#60a5fa" stroke="#0f172a" stroke-width="1" />
<text x="930.00" y="176.69" fill="#e2e8f0" font-size="9" text-anchor="middle">0.97</text>
<text x="70" y="403" fill="#e2e8f0" font-size="13" font-weight="600">本年核心指标趋势（滑动7日窗口平均）</text>
<line x1="70" y1="656.00" x2="930" y2="656.00" stroke="#94a3b8" stroke-opacity="0.18" stroke-width="1" />
<text x="62" y="660.00" fill="#cbd5f5" font-size="10" text-anchor="end">0.75</text>
<line x1="70" y1="593.75" x2="930" y2="593.75" stroke="#94a3b8" stroke-opacity="0.18" stroke-width="1" />
<text x="62" y="597.75" fill="#cbd5f5" font-size="10" text-anchor="end">0.86</text>
<line x1="70" y1="531.50" x2="930" y2="531.50" stroke="#94a3b8" stroke-opacity="0.18" stroke-width="1" />
<text x="62" y="535.50" fill="#cbd5f5" font-size="10" text-anchor="end">0.96</text>
<line x1="70" y1="469.25" x2="930" y2="469.25" stroke="#94a3b8" stroke-opacity="0.18" stroke-width="1" />
<text x="62" y="473.25" fill="#cbd5f5" font-size="10" text-anchor="end">1.07</text>
<line x1="70" y1="407.00" x2="930" y2="407.00" stroke="#94a3b8" stroke-opacity="0.18" stroke-width="1" />
<text x="62" y="411.00" fill="#cbd5f5" font-size="10" text-anchor="end">1.18</text>
<line x1="70.00" y1="656" x2="70.00" y2="660" stroke="#94a3b8" stroke-opacity="0.5" stroke-width="1" />
<text x="70.00" y="674" fill="#cbd5f5" font-size="10" text-anchor="middle">2025-01</text>
<line x1="242.00" y1="656" x2="242.00" y2="660" stroke="#94a3b8" stroke-opacity="0.5" stroke-width="1" />
<text x="242.00" y="674" fill="#cbd5f5" font-size="10" text-anchor="middle">2025-03</text>
<line x1="414.00" y1="656" x2="414.00" y2="660" stroke="#94a3b8" stroke-opacity="0.5" stroke-width="1" />
<text x="414.00" y="674" fill="#cbd5f5" font-size="10" text-anchor="middle">2025-06</text>
<line x1="586.00" y1="656" x2="586.00" y2="660" stroke="#94a3b8" stroke-opacity="0.5" stroke-width="1" />
<text x="586.00" y="674" fill="#cbd5f5" font-size="10" text-anchor="middle">2025-08</text>
<line x1="758.00" y1="656" x2="758.00" y2="660" stroke="#94a3b8" stroke-opacity="0.5" stroke-width="1" />
<text x="758.00" y="674" fill="#cbd5f5" font-size="10" text-anchor="middle">2025-10</text>
<line x1="930.00" y1="656" x2="930.00" y2="660" stroke="#94a3b8" stroke-opacity="0.5" stroke-width="1" />
<text x="930.00" y="674" fill="#cbd5f5" font-size="10" text-anchor="middle">2025-12</text>
<line x1="70" y1="407" x2="70" y2="656" stroke="#94a3b8" stroke-width="1" />
<line x1="70" y1="656" x2="930" y2="656" stroke="#94a3b8" stroke-width="1" />
<path d="M70.00,656.00 L70.00,530.40 L72.59,527.77 L75.18,529.12 L77.77,530.93 L80.36,531.80 L82.95,532.75 L85.54,533.60 L88.13,535.00 L90.72,535.94 L93.31,535.81 L95.90,537.32 L98.49,537.32 L101.08,537.99 L103.67,537.65 L106.27,536.44 L108.86,537.21 L111.45,537.49 L114.04,535.17 L116.63,534.27 L119.22,531.73 L121.81,530.40 L124.40,530.42 L126.99,528.82 L129.58,529.88 L132.17,530.53 L134.76,530.72 L137.35,531.22 L139.94,531.74 L142.53,531.87 L145.12,531.80 L147.71,531.80 L150.30,530.81 L152.89,530.22 L155.48,530.63 L158.07,530.68 L160.66,529.50 L163.25,529.58 L165.84,527.79 L168.43,528.86 L171.02,529.86 L173.61,530.07 L176.20,529.85 L178.80,530.40 L181.39,531.02 L183.98,531.72 L186.57,530.20 L189.16,529.31 L191.75,528.76 L194.34,529.40 L196.93,530.44 L199.52,531.81 L202.11,530.38 L204.70,530.44 L207.29,530.56 L209.88,529.95 L212.47,528.88 L215.06,527.62 L217.65,525.37 L220.24,525.01 L222.83,525.73 L225.42,526.38 L228.01,527.19 L230.60,528.92 L233.19,528.99 L235.78,529.78 L238.37,532.73 L240.96,532.25 L243.55,532.03 L246.14,531.47 L248.73,528.98 L251.33,528.32 L253.92,529.13 L256.51,527.75 L259.10,527.36 L261.69,526.27 L264.28,526.79 L266.87,528.38 L269.46,529.19 L272.05,529.49 L274.64,529.87 L277.23,531.08 L279.82,532.02 L282.41,532.05 L285.00,531.23 L287.59,532.53 L290.18,531.92 L292.77,531.13 L295.36,530.47 L297.95,531.30 L300.54,530.91 L303.13,531.52 L305.72,530.31 L308.31,530.89 L310.90,531.03 L313.49,531.28 L316.08,530.00 L318.67,530.41 L321.27,529.71 L323.86,529.19 L326.45,529.23 L329.04,529.85 L331.63,529.71 L334.22,530.34 L336.81,530.99 L339.40,530.47 L341.99,530.40 L344.58,529.44 L347.17,528.51 L349.76,528.62 L352.35,528.56 L354.94,527.80 L357.53,528.64 L360.12,528.82 L362.71,528.82 L365.30,530.23 L367.89,531.28 L370.48,531.87 L373.07,532.00 L375.66,532.89 L378.25,533.79 L380.84,533.34 L383.43,533.90 L386.02,533.73 L388.61,534.21 L391.20,534.00 L393.80,533.06 L396.39,532.97 L398.98,533.27 L401.57,531.53 L404.16,530.53 L406.75,529.54 L409.34,529.05 L411.93,529.24 L414.52,529.26 L417.11,529.01 L419.70,528.66 L422.29,528.32 L424.88,527.60 L427.47,527.35 L430.06,526.78 L432.65,525.86 L435.24,525.95 L437.83,527.47 L440.42,528.21 L443.01,529.09 L445.60,529.78 L448.19,529.86 L450.78,530.59 L453.37,531.35 L455.96,530.47 L458.55,529.80 L461.14,529.67 L463.73,529.47 L466.33,529.94 L468.92,529.58 L471.51,528.24 L474.10,527.30 L476.69,527.48 L479.28,526.80 L481.87,526.94 L484.46,526.59 L487.05,525.95 L489.64,526.80 L492.23,527.32 L494.82,527.90 L497.41,528.53 L500.00,528.47 L502.59,528.59 L505.18,529.34 L507.77,529.19 L510.36,530.23 L512.95,530.23 L515.54,529.61 L518.13,529.92 L520.72,529.80 L523.31,530.49 L525.90,530.64 L528.49,531.03 L531.08,532.23 L533.67,532.21 L536.27,531.55 L538.86,531.52 L541.45,530.88 L544.04,530.08 L546.63,529.83 L549.22,529.31 L551.81,529.61 L554.40,530.95 L556.99,531.56 L559.58,531.18 L562.17,532.21 L564.76,532.44 L567.35,530.98 L569.94,530.90 L572.53,529.68 L575.12,529.15 L577.71,529.03 L580.30,529.06 L582.89,527.96 L585.48,527.96 L588.07,528.13 L590.66,528.36 L593.25,528.46 L595.84,528.44 L598.43,527.65 L601.02,527.60 L603.61,527.75 L606.20,528.70 L608.80,528.85 L611.39,529.74 L613.98,530.89 L616.57,531.42 L619.16,531.89 L642.47,531.89 L645.06,530.54 L647.65,530.58 L650.24,529.49 L652.83,529.27 L655.42,529.93 L658.01,529.38 L660.60,529.42 L663.19,529.73 L665.78,530.11 L668.37,530.52 L670.96,529.06 L673.55,528.37 L676.14,528.82 L678.73,528.71 L681.33,528.42 L683.92,527.81 L686.51,527.65 L689.10,528.09 L691.69,528.07 L694.28,527.99 L696.87,528.40 L699.46,528.63 L702.05,528.40 L704.64,528.13 L707.23,528.87 L709.82,528.83 L712.41,529.15 L715.00,528.78 L717.59,529.43 L720.18,530.31 L722.77,531.20 L725.36,530.67 L727.95,531.18 L730.54,530.09 L733.13,529.82 L735.72,530.23 L738.31,530.19 L740.90,530.12 L743.49,530.20 L746.08,529.05 L748.67,529.80 L751.27,530.29 L753.86,529.11 L756.45,529.53 L759.04,529.08 L761.63,530.14 L764.22,531.09 L766.81,531.36 L769.40,532.10 L771.99,531.77 L774.58,530.79 L777.17,530.66 L779.76,528.81 L782.35,528.00 L784.94,527.30 L787.53,526.47 L790.12,527.16 L792.71,526.69 L795.30,526.41 L797.89,526.74 L800.48,526.44 L803.07,526.31 L805.66,526.17 L808.25,525.61 L810.84,525.85 L813.43,525.78 L816.02,526.42 L818.61,526.33 L821.20,526.90 L823.80,526.58 L826.39,526.21 L828.98,526.10 L831.57,525.90 L834.16,525.61 L836.75,525.88 L839.34,525.37 L841.93,525.16 L844.52,525.95 L847.11,525.91 L849.70,525.73 L852.29,525.84 L854.88,525.74 L857.47,525.62 L860.06,526.13 L862.65,526.16 L865.24,525.84 L867.83,526.95 L870.42,527.16 L873.01,527.93 L875.60,528.61 L878.19,528.27 L880.78,528.51 L883.37,528.91 L885.96,528.24 L888.55,528.04 L891.14,527.61 L893.73,526.40 L896.33,526.64 L898.92,526.00 L901.51,526.02 L904.10,526.53 L906.69,526.08 L909.28,525.21 L911.87,525.65 L914.46,526.18 L917.05,525.95 L919.64,526.41 L922.23,526.30 L924.82,526.99 L927.41,528.81 L930.00,528.76 L930.00,656.00 Z" fill="#60a5fa" fill-opacity="0.16" stroke="none" />
<path d="M70.00,530.40 L72.59,527.77 L75.18,529.12 L77.77,530.93 L80.36,531.80 L82.95,532.75 L85.54,533.60 L88.13,535.00 L90.72,535.94 L93.31,535.81 L95.90,537.32 L98.49,537.32 L101.08,537.99 L103.67,537.65 L106.27,536.44 L108.86,537.21 L111.45,537.49 L114.04,535.17 L116.63,534.27 L119.22,531.73 L121.81,530.40 L124.40,530.42 L126.99,528.82 L129.58,529.88 L132.17,530.53 L134.76,530.72 L137.35,531.22 L139.94,531.74 L142.53,531.87 L145.12,531.80 L147.71,531.80 L150.30,530.81 L152.89,530.22 L155.48,530.63 L158.07,530.68 L160.66,529.50 L163.25,529.58 L165.84,527.79 L168.43,528.86 L171.02,529.86 L173.61,530.07 L176.20,529.85 L178.80,530.40 L181.39,531.02 L183.98,531.72 L186.57,530.20 L189.16,529.31 L191.75,528.76 L194.34,529.40 L196.93,530.44 L199.52,531.81 L202.11,530.38 L204.70,530.44 L207.29,530.56 L209.88,529.95 L212.47,528.88 L215.06,527.62 L217.65,525.37 L220.24,525.01 L222.83,525.73 L225.42,526.38 L228.01,527.19 L230.60,528.92 L233.19,528.99 L235.78,529.78 L238.37,532.73 L240.96,532.25 L243.55,532.03 L246.14,531.47 L248.73,528.98 L251.33,528.32 L253.92,529.13 L256.51,527.75 L259.10,527.36 L261.69,526.27 L264.28,526.79 L266.87,528.38 L269.46,529.19 L272.05,529.49 L274.64,529.87 L277.23,531.08 L279.82,532.02 L282.41,532.05 L285.00,531.23 L287.59,532.53 L290.18,531.92 L292.77,531.13 L295.36,530.47 L297.95,531.30 L300.54,530.91 L303.13,531.52 L305.72,530.31 L308.31,530.89 L310.90,531.03 L313.49,531.28 L316.08,530.00 L318.67,530.41 L321.27,529.71 L323.86,529.19 L326.45,529.23 L329.04,529.85 L331.63,529.71 L334.22,530.34 L336.81,530.99 L339.40,530.47 L341.99,530.40 L344.58,529.44 L347.17,528.51 L349.76,528.62 L352.35,528.56 L354.94,527.80 L357.53,528.64 L360.12,528.82 L362.71,528.82 L365.30,530.23 L367.89,531.28 L370.48,531.87 L373.07,532.00 L375.66,532.89 L378.25,533.79 L380.84,533.34 L383.43,533.90 L386.02,533.73 L388.61,534.21 L391.20,534.00 L393.80,533.06 L396.39,532.97 L398.98,533.27 L401.57,531.53 L404.16,530.53 L406.75,529.54 L409.34,529.05 L411.93,529.24 L414.52,529.26 L417.11,529.01 L419.70,528.66 L422.29,528.32 L424.88,527.60 L427.47,527.35 L430.06,526.78 L432.65,525.86 L435.24,525.95 L437.83,527.47 L440.42,528.21 L443.01,529.09 L445.60,529.78 L448.19,529.86 L450.78,530.59 L453.37,531.35 L455.96,530.47 L458.55,529.80 L461.14,529.67 L463.73,529.47 L466.33,529.94 L468.92,529.58 L471.51,528.24 L474.10,527.30 L476.69,527.48 L479.28,526.80 L481.87,526.94 L484.46,526.59 L487.05,525.95 L489.64,526.80 L492.23,527.32 L494.82,527.90 L497.41,528.53 L500.00,528.47 L502.59,528.59 L505.18,529.34 L507.77,529.19 L510.36,530.23 L512.95,530.23 L515.54,529.61 L518.13,529.92 L520.72,529.80 L523.31,530.49 L525.90,530.64 L528.49,531.03 L531.08,532.23 L533.67,532.21 L536.27,531.55 L538.86,531.52 L541.45,530.88 L544.04,530.08 L546.63,529.83 L549.22,529.31 L551.81,529.61 L554.40,530.95 L556.99,531.56 L559.58,531.18 L562.17,532.21 L564.76,532.44 L567.35,530.98 L569.94,530.90 L572.53,529.68 L575.12,529.15 L577.71,529.03 L580.30,529.06 L582.89,527.96 L585.48,527.96 L588.07,528.13 L590.66,528.36 L593.25,528.46 L595.84,528.44 L598.43,527.65 L601.02,527.60 L603.61,527.75 L606.20,528.70 L608.80,528.85 L611.39,529.74 L613.98,530.89 L616.57,531.42 L619.16,531.89 L642.47,531.89 L645.06,530.54 L647.65,530.58 L650.24,529.49 L652.83,529.27 L655.42,529.93 L658.01,529.38 L660.60,529.42 L663.19,529.73 L665.78,530.11 L668.37,530.52 L670.96,529.06 L673.55,528.37 L676.14,528.82 L678.73,528.71 L681.33,528.42 L683.92,527.81 L686.51,527.65 L689.10,528.09 L691.69,528.07 L694.28,527.99 L696.87,528.40 L699.46,528.63 L702.05,528.40 L704.64,528.13 L707.23,528.87 L709.82,528.83 L712.41,529.15 L715.00,528.78 L717.59,529.43 L720.18,530.31 L722.77,531.20 L725.36,530.67 L727.95,531.18 L730.54,530.09 L733.13,529.82 L735.72,530.23 L738.31,530.19 L740.90,530.12 L743.49,530.20 L746.08,529.05 L748.67,529.80 L751.27,530.29 L753.86,529.11 L756.45,529.53 L759.04,529.08 L761.63,530.14 L764.22,531.09 L766.81,531.36 L769.40,532.10 L771.99,531.77 L774.58,530.79 L777.17,530.66 L779.76,528.81 L782.35,528.00 L784.94,527.30 L787.53,526.47 L790.12,527.16 L792.71,526.69 L795.30,526.41 L797.89,526.74 L800.48,526.44 L803.07,526.31 L805.66,526.17 L808.25,525.61 L810.84,525.85 L813.43,525.78 L816.02,526.42 L818.61,526.33 L821.20,526.90 L823.80,526.58 L826.39,526.21 L828.98,526.10 L831.57,525.90 L834.16,525.61 L836.75,525.88 L839.34,525.37 L841.93,525.16 L844.52,525.95 L847.11,525.91 L849.70,525.73 L852.29,525.84 L854.88,525.74 L857.47,525.62 L860.06,526.13 L862.65,526.16 L865.24,525.84 L867.83,526.95 L870.42,527.16 L873.01,527.93 L875.60,528.61 L878.19,528.27 L880.78,528.51 L883.37,528.91 L885.96,528.24 L888.55,528.04 L891.14,527.61 L893.73,526.40 L896.33,526.64 L898.92,526.00 L901.51,526.02 L904.10,526.53 L906.69,526.08 L909.28,525.21 L911.87,525.65 L914.46,526.18 L917.05,525.95 L919.64,526.41 L922.23,526.30 L924.82,526.99 L927.41,528.81 L930.00,528.76" fill="none" stroke="#60a5fa" stroke-width="2.2" stroke-linecap="round" />
</svg>
