<svg xmlns="http://www.w3.org/2000/svg" viewBox="0 0 960 720" width="960" height="720">
<rect width="960" height="720" fill="#0f172a" />
<text x="480" y="28" fill="#e2e8f0" font-size="16" font-weight="700" text-anchor="middle">血氧均值趋势图</text>
<text x="70" y="70" fill="#e2e8f0" font-size="13" font-weight="600">本月分天指标明细</text>
<line x1="70" y1="323.00" x2="930" y2="323.00" stroke="#94a3b8" stroke-opacity="0.18" stroke-width="1" />
<text x="62" y="327.00" fill="#cbd5f5" font-size="10" text-anchor="end">0.76</text>
<line x1="70" y1="260.75" x2="930" y2="260.75" stroke="#94a3b8" stroke-opacity="0.18" stroke-width="1" />
<text x="62" y="264.75" fill="#cbd5f5" font-size="10" text-anchor="end">0.87</text>
<line x1="70" y1="198.50" x2="930" y2="198.50" stroke="#94a3b8" stroke-opacity="0.18" stroke-width="1" />
<text x="62" y="202.50" fill="#cbd5f5" font-size="10" text-anchor="end">0.97</text>
<line x1="70" y1="136.25" x2="930" y2="136.25" stroke="#94a3b8" stroke-opacity="0.18" stroke-width="1" />
<text x="62" y="140.25" fill="#cbd5f5" font-size="10" text-anchor="end">1.08</text>
<line x1="70" y1="74.00" x2="930" y2="74.00" stroke="#94a3b8" stroke-opacity="0.18" stroke-width="1" />
<text x="62" y="78.00" fill="#cbd5f5" font-size="10" text-anchor="end">1.18</text>
<line x1="70.00" y1="323" x2="70.00" y2="327" stroke="#94a3b8" stroke-opacity="0.5" stroke-width="1" />
<text x="70.00" y="341" fill="#cbd5f5" font-size="10" text-anchor="middle">11-19</text>
<line x1="242.00" y1="323" x2="242.00" y2="327" stroke="#94a3b8" stroke-opacity="0.5" stroke-width="1" />
<text x="242.00" y="341" fill="#cbd5f5" font-size="10" text-anchor="middle">11-24</text>
<line x1="414.00" y1="323" x2="414.00" y2="327" stroke="#94a3b8" stroke-opacity="0.5" stroke-width="1" />
<text x="414.00" y="341" fill="#cbd5f5" font-size="10" text-anchor="middle">11-30</text>
<line x1="586.00" y1="323" x2="586.00" y2="327" stroke="#94a3b8" stroke-opacity="0.5" stroke-width="1" />
<text x="586.00" y="341" fill="#cbd5f5" font-size="10" text-anchor="middle">12-06</text>
<line x1="758.00" y1="323" x2="758.00" y2="327" stroke="#94a3b8" stroke-opacity="0.5" stroke-width="1" />
<text x="758.00" y="341" fill="#cbd5f5" font-size="10" text-anchor="middle">12-12</text>
<line x1="930.00" y1="323" x2="930.00" y2="327" stroke="#94a3b8" stroke-opacity="0.5" stroke-width="1" />
<text x="930.00" y="341" fill="#cbd5f5" font-size="10" text-anchor="middle">12-18</text>
<line x1="70" y1="74" x2="70" y2="323" stroke="#94a3b8" stroke-width="1" />
<line x1="70" y1="323" x2="930" y2="323" stroke="#94a3b8" stroke-width="1" />
<path d="M70.00,196.88 L99.66,194.64 L129.31,199.31 L158.97,197.08 L188.62,198.94 L218.28,200.15 L247.93,201.10 L277.59,194.64 L307.24,202.51 L336.90,200.82 L366.55,202.51 L396.21,203.73 L425.86,197.76 L455.52,202.78 L485.17,197.48 L514.83,197.80 L544.48,199.42 L574.14,199.42 L603.79,195.21 L633.45,199.42 L663.10,198.27 L692.76,197.63 L722.41,201.42 L752.07,196.21 L781.72,193.27 L811.38,198.31 L841.03,203.20 L870.69,196.63 L900.34,200.87 L930.00,200.92" fill="none" stroke="#a855f7" stroke-width="2.2" stroke-linecap="round" />
<circle cx="70.00" cy="196.88" r="3" fill="#a855f7" stroke="#0f172a" stroke-width="1" />
<text x="70.00" y="186.88" fill="#e2e8f0" font-size="9" text-anchor="middle">0.98</text>
<circle cx="99.66" cy="194.64" r="3" fill="#a855f7" stroke="#0f172a" stroke-width="1" />
<text x="99.66" y="174.64" fill="#e2e8f0" font-size="9" text-anchor="middle">0.98</text>
<circle cx="129.31" cy="199.31" r="3" fill="#a855f7" stroke="#0f172a" stroke-width="1" />
<text x="129.31" y="189.31" fill="#e2e8f0" font-size="9" text-anchor="middle">0.97</text>
<circle cx="158.97" cy="197.08" r="3" fill="#a855f7" stroke="#0f172a" stroke-width="1" />
<text x="158.97" y="177.08" fill="#e2e8f0" font-size="9" text-anchor="middle">0.98</text>
<circle cx="188.62" cy="198.94" r="3" fill="#a855f7" stroke="#0f172a" stroke-width="1" />
<text x="188.62" y="188.94" fill="#e2e8f0" font-size="9" text-anchor="middle">0.97</text>
<circle cx="218.28" cy="200.15" r="3" fill="#a855f7" stroke="#0f172a" stroke-width="1" />
<text x="218.28" y="180.15" fill="#e2e8f0" font-size="9" text-anchor="middle">0.97</text>
<circle cx="247.93" cy="201.10" r="3" fill="#a855f7" stroke="#0f172a" stroke-width="1" />
<text x="247.93" y="191.10" fill="#e2e8f0" font-size="9" text-anchor="middle">0.97</text>
<circle cx="277.59" cy="194.64" r="3" fill="#a855f7" stroke="#0f172a" stroke-width="1" />
<text x="277.59" y="174.64" fill="#e2e8f0" font-size="9" text-anchor="middle">0.98</text>
<circle cx="307.24" cy="202.51" r="3" fill="#a855f7" stroke="#0f172a" stroke-width="1" />
<text x="307.24" y="192.51" fill="#e2e8f0" font-size="9" text-anchor="middle">0.97</text>
<circle cx="336.90" cy="200.82" r="3" fill="#a855f7" stroke="#0f172a" stroke-width="1" />
<text x="336.90" y="180.82" fill="#e2e8f0" font-size="9" text-anchor="middle">0.97</text>
<circle cx="366.55" cy="202.51" r="3" fill="#a855f7" stroke="#0f172a" stroke-width="1" />
<text x="366.55" y="192.51" fill="#e2e8f0" font-size="9" text-anchor="middle">0.97</text>
<circle cx="396.21" cy="203.73" r="3" fill="#a855f7" stroke="#0f172a" stroke-width="1" />
<text x="396.21" y="183.73" fill="#e2e8f0" font-size="9" text-anchor="middle">0.96</text>
<circle cx="425.86" cy="197.76" r="3" fill="#a855f7" stroke="#0f172a" stroke-width="1" />
<text x="425.86" y="187.76" fill="#e2e8f0" font-size="9" text-anchor="middle">0.97</text>
<circle cx="455.52" cy="202.78" r="3" fill="#a855f7" stroke="#0f172a" stroke-width="1" />
<text x="455.52" y="182.78" fill="#e2e8f0" font-size="9" text-anchor="middle">0.97</text>
<circle cx="485.17" cy="197.48" r="3" fill="#a855f7" stroke="#0f172a" stroke-width="1" />
<text x="485.17" y="187.48" fill="#e2e8f0" font-size="9" text-anchor="middle">0.98</text>
<circle cx="514.83" cy="197.80" r="3" fill="#a855f7" stroke="#0f172a" stroke-width="1" />
<text x="514.83" y="177.80" fill="#e2e8f0" font-size="9" text-anchor="middle">0.97</text>
<circle cx="544.48" cy="199.42" r="3" fill="#a855f7" stroke="#0f172a" stroke-width="1" />
<text x="544.48" y="189.42" fill="#e2e8f0" font-size="9" text-anchor="middle">0.97</text>
<circle cx="574.14" cy="199.42" r="3" fill="#a855f7" stroke="#0f172a" stroke-width="1" />
<text x="574.14" y="179.42" fill="#e2e8f0" font-size="9" text-anchor="middle">0.97</text>
<circle cx="603.79" cy="195.21" r="3" fill="#a855f7" stroke="#0f172a" stroke-width="1" />
<text x="603.79" y="185.21" fill="#e2e8f0" font-size="9" text-anchor="middle">0.98</text>
<circle cx="633.45" cy="199.42" r="3" fill="#a855f7" stroke="#0f172a" stroke-width="1" />
<text x="633.45" y="179.42" fill="#e2e8f0" font-size="9" text-anchor="middle">0.97</text>
<circle cx="663.10" cy="198.27" r="3" fill="#a855f7" stroke="#0f172a" stroke-width="1" />
<text x="663.10" y="188.27" fill="#e2e8f0" font-size="9" text-anchor="middle">0.97</text>
<circle cx="692.76" cy="197.63" r="3" fill="#a855f7" stroke="#0f172a" stroke-width="1" />
<text x="692.76" y="177.63" fill="#e2e8f0" font-size="9" text-anchor="middle">0.97</text>
<circle cx="722.41" cy="201.42" r="3" fill="#a855f7" stroke="#0f172a" stroke-width="1" />
<text x="722.41" y="191.42" fill="#e2e8f0" font-size="9" text-anchor="middle">0.97</text>
<circle cx="752.07" cy="196.21" r="3" fill="#a855f7" stroke="#0f172a" stroke-width="1" />
<text x="752.07" y="176.21" fill="#e2e8f0" font-size="9" text-anchor="middle">0.98</text>
<circle cx="781.72" cy="193.27" r="3" fill="#a855f7" stroke="#0f172a" stroke-width="1" />
<text x="781.72" y="183.27" fill="#e2e8f0" font-size="9" text-anchor="middle">0.98</text>
<circle cx="811.38" cy="198.31" r="3" fill="#a855f7" stroke="#0f172a" stroke-width="1" />
<text x="811.38" y="178.31" fill="#e2e8f0" font-size="9" text-anchor="middle">0.97</text>
<circle cx="841.03" cy="203.20" r="3" fill="#a855f7" stroke="#0f172a" stroke-width="1" />
<text x="841.03" y="193.20" fill="#e2e8f0" font-size="9" text-anchor="middle">0.97</text>
<circle cx="870.69" cy="196.63" r="3" fill="#a855f7" stroke="#0f172a" stroke-width="1" />
<text x="870.69" y="176.63" fill="#e2e8f0" font-size="9" text-anchor="middle">0.98</text>
<circle cx="900.34" cy="200.87" r="3" fill="#a855f7" stroke="#0f172a" stroke-width="1" />
<text x="900.34" y="190.87" fill="#e2e8f0" font-size="9" text-anchor="middle">0.97</text>
<circle cx="930.00" cy="200.92" r="3" fill="#a855f7" stroke="#0f172a" stroke-width="1" />
<text x="930.00" y="180.92" fill="#e2e8f0" font-size="9" text-anchor="middle">0.97</text>
<text x="70" y="403" fill="#e2e8f0" font-size="13" font-weight="600">本年核心指标趋势（滑动7日窗口平均）</text>
<line x1="70" y1="656.00" x2="930" y2="656.00" stroke="#94a3b8" stroke-opacity="0.18" stroke-width="1" />
<text x="62" y="660.00" fill="#cbd5f5" font-size="10" text-anchor="end">0.75</text>
<line x1="70" y1="593.75" x2="930" y2="593.75" stroke="#94a3b8" stroke-opacity="0.18" stroke-width="1" />
<text x="62" y="597.75" fill="#cbd5f5" font-size="10" text-anchor="end">0.86</text>
<line x1="70" y1="531.50" x2="930" y2="531.50" stroke="#94a3b8" stroke-opacity="0.18" stroke-width="1" />
<text x="62" y="535.50" fill="#cbd5f5" font-size="10" text-anchor="end">0.96</text>
<line x1="70" y1="469.25" x2="930" y2="469.25" stroke="#94a3b8" stroke-opacity="0.18" stroke-width="1" />
<text x="62" y="473.25" fill="#cbd5f5" font-size="10" text-anchor="end">1.07</text>
<line x1="70" y1="407.00" x2="930" y2="407.00" stroke="#94a3b8" stroke-opacity="0.18" stroke-width="1" />
<text x="62" y="411.00" fill="#cbd5f5" font-size="10" text-anchor="end">1.18</text>
<line x1="70.00" y1="656" x2="70.00" y2="660" stroke="#94a3b8" stroke-opacity="0.5" stroke-width="1" />
<text x="70.00" y="674" fill="#cbd5f5" font-size="10" text-anchor="middle">2025-01</text>
<line x1="242.00" y1="656" x2="242.00" y2="660" stroke="#94a3b8" stroke-opacity="0.5" stroke-width="1" />
<text x="242.00" y="674" fill="#cbd5f5" font-size="10" text-anchor="middle">2025-03</text>
<line x1="414.00" y1="656" x2="414.00" y2="660" stroke="#94a3b8" stroke-opacity="0.5" stroke-width="1" />
<text x="414.00" y="674" fill="#cbd5f5" font-size="10" text-anchor="middle">2025-06</text>
<line x1="586.00" y1="656" x2="586.00" y2="660" stroke="#94a3b8" stroke-opacity="0.5" stroke-width="1" />
<text x="586.00" y="674" fill="#cbd5f5" font-size="10" text-anchor="middle">2025-08</text>
<line x1="758.00" y1="656" x2="758.00" y2="660" stroke="#94a3b8" stroke-opacity="0.5" stroke-width="1" />
<text x="758.00" y="674" fill="#cbd5f5" font-size="10" text-anchor="middle">2025-10</text>
<line x1="930.00" y1="656" x2="930.00" y2="660" stroke="#94a3b8" stroke-opacity="0.5" stroke-width="1" />
<text x="930.00" y="674" fill="#cbd5f5" font-size="10" text-anchor="middle">2025-12</text>
<line x1="70" y1="407" x2="70" y2="656" stroke="#94a3b8" stroke-width="1" />
<line x1="70" y1="656" x2="930" y2="656" stroke="#94a3b8" stroke-width="1" />
<path d="M70.00,656.00 L70.00,530.40 L72.61,527.77 L75.23,529.12 L77.84,530.93 L80.46,531.80 L83.07,532.75 L85.68,533.60 L88.30,535.00 L90.91,535.94 L93.53,535.81 L96.14,537.32 L98.75,537.32 L101.37,537.99 L103.98,537.65 L106.60,536.44 L109.21,537.21 L111.82,537.49 L114.44,535.17 L117.05,534.27 L119.67,531.73 L122.28,530.40 L124.89,530.42 L127.51,528.82 L130.12,529.88 L132.74,530.53 L135.35,530.72 L137.96,531.22 L140.58,531.74 L143.19,531.87 L145.81,531.80 L148.42,531.80 L151.03,530.81 L153.65,530.22 L156.26,530.63 L158.88,530.68 L161.49,529.50 L164.10,529.58 L166.72,527.79 L169.33,528.86 L171.95,529.86 L174.56,530.07 L177.17,529.85 L179.79,530.40 L182.40,531.02 L185.02,531.72 L187.63,530.20 L190.24,529.31 L192.86,528.76 L195.47,529.40 L198.09,530.44 L200.70,531.81 L203.31,530.38 L205.93,530.44 L208.54,530.56 L211.16,529.95 L213.77,528.88 L216.38,527.62 L219.00,525.37 L221.61,525.01 L224.22,525.73 L226.84,526.38 L229.45,527.19 L232.07,528.92 L234.68,528.99 L237.29,529.78 L239.91,532.73 L242.52,532.25 L245.14,532.03 L247.75,531.47 L250.36,528.98 L252.98,528.32 L255.59,529.13 L258.21,527.75 L260.82,527.36 L263.43,526.27 L266.05,526.79 L268.66,528.38 L271.28,529.19 L273.89,529.49 L276.50,529.87 L279.12,531.08 L281.73,532.02 L284.35,532.05 L286.96,531.23 L289.57,532.53 L292.19,531.92 L294.80,531.13 L297.42,530.47 L300.03,531.30 L302.64,530.91 L305.26,531.52 L307.87,530.31 L310.49,530.89 L313.10,531.03 L315.71,531.28 L318.33,530.00 L320.94,530.41 L323.56,529.71 L326.17,529.19 L328.78,529.23 L331.40,529.85 L334.01,529.71 L336.63,530.34 L339.24,530.99 L341.85,530.47 L344.47,530.40 L347.08,529.44 L349.70,528.51 L352.31,528.62 L354.92,528.56 L357.54,527.80 L360.15,528.64 L362.77,528.82 L365.38,528.82 L367.99,530.23 L370.61,531.28 L373.22,531.87 L375.84,532.00 L378.45,532.89 L381.06,533.79 L383.68,533.34 L386.29,533.90 L388.91,533.73 L391.52,534.21 L394.13,534.00 L396.75,533.06 L399.36,532.97 L401.98,533.27 L404.59,531.53 L407.20,530.53 L409.82,529.54 L412.43,529.05 L415.05,529.24 L417.66,529.26 L420.27,529.01 L422.89,528.66 L425.50,528.32 L428.12,527.60 L430.73,527.35 L433.34,526.78 L435.96,525.86 L438.57,525.95 L441.19,527.47 L443.80,528.21 L446.41,529.09 L449.03,529.78 L451.64,529.86 L454.26,530.59 L456.87,531.35 L459.48,530.47 L462.10,529.80 L464.71,529.67 L467.33,529.47 L469.94,529.94 L472.55,529.58 L475.17,528.24 L477.78,527.30 L480.40,527.48 L483.01,526.80 L485.62,526.94 L488.24,526.59 L490.85,525.95 L493.47,526.80 L496.08,527.32 L498.69,527.90 L501.31,528.53 L503.92,528.47 L506.53,528.59 L509.15,529.34 L511.76,529.19 L514.38,530.23 L516.99,530.23 L519.60,529.61 L522.22,529.92 L524.83,529.80 L527.45,530.49 L530.06,530.64 L532.67,531.03 L535.29,532.23 L537.90,532.21 L540.52,531.55 L543.13,531.52 L545.74,530.88 L548.36,530.08 L550.97,529.83 L553.59,529.31 L556.20,529.61 L558.81,530.95 L561.43,531.56 L564.04,531.18 L566.66,532.21 L569.27,532.44 L571.88,530.98 L574.50,530.90 L577.11,529.68 L579.73,529.15 L582.34,529.03 L584.95,529.06 L587.57,527.96 L590.18,527.96 L592.80,528.13 L595.41,528.36 L598.02,528.46 L600.64,528.44 L603.25,527.65 L605.87,527.60 L608.48,527.75 L611.09,528.70 L613.71,528.85 L616.32,529.74 L618.94,530.89 L621.55,531.42 L624.16,531.89 L647.69,531.89 L650.30,530.54 L652.92,530.58 L655.53,529.49 L658.15,529.27 L660.76,529.93 L663.37,529.38 L665.99,529.42 L668.60,529.73 L671.22,530.11 L673.83,530.52 L676.44,529.06 L679.06,528.37 L681.67,528.82 L684.29,528.71 L686.90,528.42 L689.51,527.81 L692.13,527.65 L694.74,528.09 L697.36,528.07 L699.97,527.99 L702.58,528.40 L705.20,528.63 L707.81,528.40 L710.43,528.13 L713.04,528.87 L715.65,528.83 L718.27,529.15 L720.88,528.78 L723.50,529.43 L726.11,530.31 L728.72,531.20 L731.34,530.67 L733.95,531.18 L736.57,530.09 L739.18,529.82 L741.79,530.23 L744.41,530.19 L747.02,530.12 L749.64,530.20 L752.25,529.05 L754.86,529.80 L757.48,530.29 L760.09,529.11 L762.71,529.53 L765.32,529.08 L767.93,530.14 L770.55,531.09 L773.16,531.36 L775.78,532.10 L778.39,531.77 L781.00,530.79 L783.62,530.66 L786.23,528.81 L788.84,528.00 L791.46,527.30 L794.07,526.47 L796.69,527.16 L799.30,526.69 L801.91,526.41 L804.53,526.74 L807.14,526.44 L809.76,526.31 L812.37,526.17 L814.98,525.61 L817.60,525.85 L820.21,525.78 L822.83,526.42 L825.44,526.33 L828.05,526.90 L830.67,526.58 L833.28,526.21 L835.90,526.10 L838.51,525.90 L841.12,525.61 L843.74,525.88 L846.35,525.37 L848.97,525.16 L851.58,525.95 L854.19,525.91 L856.81,525.73 L859.42,525.84 L862.04,525.74 L864.65,525.62 L867.26,526.13 L869.88,526.16 L872.49,525.84 L875.11,526.95 L877.72,527.16 L880.33,527.93 L882.95,528.61 L885.56,528.27 L888.18,528.51 L890.79,528.91 L893.40,528.24 L896.02,528.04 L898.63,527.61 L901.25,526.40 L903.86,526.64 L906.47,526.00 L909.09,526.02 L911.70,526.53 L914.32,526.08 L916.93,525.21 L919.54,525.65 L922.16,526.18 L924.77,525.95 L927.39,526.41 L930.00,526.34 L930.00,656.00 Z" fill="#a855f7" fill-opacity="0.16" stroke="none" />
<path d="M70.00,530.40 L72.61,527.77 L75.23,529.12 L77.84,530.93 L80.46,531.80 L83.07,532.75 L85.68,533.60 L88.30,535.00 L90.91,535.94 L93.53,535.81 L96.14,537.32 L98.75,537.32 L101.37,537.99 L103.98,537.65 L106.60,536.44 L109.21,537.21 L111.82,537.49 L114.44,535.17 L117.05,534.27 L119.67,531.73 L122.28,530.40 L124.89,530.42 L127.51,528.82 L130.12,529.88 L132.74,530.53 L135.35,530.72 L137.96,531.22 L140.58,531.74 L143.19,531.87 L145.81,531.80 L148.42,531.80 L151.03,530.81 L153.65,530.22 L156.26,530.63 L158.88,530.68 L161.49,529.50 L164.10,529.58 L166.72,527.79 L169.33,528.86 L171.95,529.86 L174.56,530.07 L177.17,529.85 L179.79,530.40 L182.40,531.02 L185.02,531.72 L187.63,530.20 L190.24,529.31 L192.86,528.76 L195.47,529.40 L198.09,530.44 L200.70,531.81 L203.31,530.38 L205.93,530.44 L208.54,530.56 L211.16,529.95 L213.77,528.88 L216.38,527.62 L219.00,525.37 L221.61,525.01 L224.22,525.73 L226.84,526.38 L229.45,527.19 L232.07,528.92 L234.68,528.99 L237.29,529.78 L239.91,532.73 L242.52,532.25 L245.14,532.03 L247.75,531.47 L250.36,528.98 L252.98,528.32 L255.59,529.13 L258.21,527.75 L260.82,527.36 L263.43,526.27 L266.05,526.79 L268.66,528.38 L271.28,529.19 L273.89,529.49 L276.50,529.87 L279.12,531.08 L281.73,532.02 L284.35,532.05 L286.96,531.23 L289.57,532.53 L292.19,531.92 L294.80,531.13 L297.42,530.47 L300.03,531.30 L302.64,530.91 L305.26,531.52 L307.87,530.31 L310.49,530.89 L313.10,531.03 L315.71,531.28 L318.33,530.00 L320.94,530.41 L323.56,529.71 L326.17,529.19 L328.78,529.23 L331.40,529.85 L334.01,529.71 L336.63,530.34 L339.24,530.99 L341.85,530.47 L344.47,530.40 L347.08,529.44 L349.70,528.51 L352.31,528.62 L354.92,528.56 L357.54,527.80 L360.15,528.64 L362.77,528.82 L365.38,528.82 L367.99,530.23 L370.61,531.28 L373.22,531.87 L375.84,532.00 L378.45,532.89 L381.06,533.79 L383.68,533.34 L386.29,533.90 L388.91,533.73 L391.52,534.21 L394.13,534.00 L396.75,533.06 L399.36,532.97 L401.98,533.27 L404.59,531.53 L407.20,530.53 L409.82,529.54 L412.43,529.05 L415.05,529.24 L417.66,529.26 L420.27,529.01 L422.89,528.66 L425.50,528.32 L428.12,527.60 L430.73,527.35 L433.34,526.78 L435.96,525.86 L438.57,525.95 L441.19,527.47 L443.80,528.21 L446.41,529.09 L449.03,529.78 L451.64,529.86 L454.26,530.59 L456.87,531.35 L459.48,530.47 L462.10,529.80 L464.71,529.67 L467.33,529.47 L469.94,529.94 L472.55,529.58 L475.17,528.24 L477.78,527.30 L480.40,527.48 L483.01,526.80 L485.62,526.94 L488.24,526.59 L490.85,525.95 L493.47,526.80 L496.08,527.32 L498.69,527.90 L501.31,528.53 L503.92,528.47 L506.53,528.59 L509.15,529.34 L511.76,529.19 L514.38,530.23 L516.99,530.23 L519.60,529.61 L522.22,529.92 L524.83,529.80 L527.45,530.49 L530.06,530.64 L532.67,531.03 L535.29,532.23 L537.90,532.21 L540.52,531.55 L543.13,531.52 L545.74,530.88 L548.36,530.08 L550.97,529.83 L553.59,529.31 L556.20,529.61 L558.81,530.95 L561.43,531.56 L564.04,531.18 L566.66,532.21 L569.27,532.44 L571.88,530.98 L574.50,530.90 L577.11,529.68 L579.73,529.15 L582.34,529.03 L584.95,529.06 L587.57,527.96 L590.18,527.96 L592.80,528.13 L595.41,528.36 L598.02,528.46 L600.64,528.44 L603.25,527.65 L605.87,527.60 L608.48,527.75 L611.09,528.70 L613.71,528.85 L616.32,529.74 L618.94,530.89 L621.55,531.42 L624.16,531.89 L647.69,531.89 L650.30,530.54 L652.92,530.58 L655.53,529.49 L658.15,529.27 L660.76,529.93 L663.37,529.38 L665.99,529.42 L668.60,529.73 L671.22,530.11 L673.83,530.52 L676.44,529.06 L679.06,528.37 L681.67,528.82 L684.29,528.71 L686.90,528.42 L689.51,527.81 L692.13,527.65 L694.74,528.09 L697.36,528.07 L699.97,527.99 L702.58,528.40 L705.20,528.63 L707.81,528.40 L710.43,528.13 L713.04,528.87 L715.65,528.83 L718.27,529.15 L720.88,528.78 L723.50,529.43 L726.11,530.31 L728.72,531.20 L731.34,530.67 L733.95,531.18 L736.57,530.09 L739.18,529.82 L741.79,530.23 L744.41,530.19 L747.02,530.12 L749.64,530.20 L752.25,529.05 L754.86,529.80 L757.48,530.29 L760.09,529.11 L762.71,529.53 L765.32,529.08 L767.93,530.14 L770.55,531.09 L773.16,531.36 L775.78,532.10 L778.39,531.77 L781.00,530.79 L783.62,530.66 L786.23,528.81 L788.84,528.00 L791.46,527.30 L794.07,526.47 L796.69,527.16 L799.30,526.69 L801.91,526.41 L804.53,526.74 L807.14,526.44 L809.76,526.31 L812.37,526.17 L814.98,525.61 L817.60,525.85 L820.21,525.78 L822.83,526.42 L825.44,526.33 L828.05,526.90 L830.67,526.58 L833.28,526.21 L835.90,526.10 L838.51,525.90 L841.12,525.61 L843.74,525.88 L846.35,525.37 L848.97,525.16 L851.58,525.95 L854.19,525.91 L856.81,525.73 L859.42,525.84 L862.04,525.74 L864.65,525.62 L867.26,526.13 L869.88,526.16 L872.49,525.84 L875.11,526.95 L877.72,527.16 L880.33,527.93 L882.95,528.61 L885.56,528.27 L888.18,528.51 L890.79,528.91 L893.40,528.24 L896.02,528.04 L898.63,527.61 L901.25,526.40 L903.86,526.64 L906.47,526.00 L909.09,526.02 L911.70,526.53 L914.32,526.08 L916.93,525.21 L919.54,525.65 L922.16,526.18 L924.77,525.95 L927.39,526.41 L930.00,526.34" fill="none" stroke="#a855f7" stroke-width="2.2" stroke-linecap="round" />
</svg>
