<svg xmlns="http://www.w3.org/2000/svg" viewBox="0 0 960 640" width="960" height="640">
  <rect width="960" height="640" fill="#0f172a" />
  <line x1="40" y1="40.00" x2="920.00" y2="40.00" stroke="#94a3b8" stroke-opacity="0.18" stroke-width="1" /><line x1="40" y1="128.00" x2="920.00" y2="128.00" stroke="#94a3b8" stroke-opacity="0.18" stroke-width="1" /><line x1="40" y1="216.00" x2="920.00" y2="216.00" stroke="#94a3b8" stroke-opacity="0.18" stroke-width="1" /><line x1="40" y1="304.00" x2="920.00" y2="304.00" stroke="#94a3b8" stroke-opacity="0.18" stroke-width="1" />
  <line x1="40" y1="336.00" x2="920.00" y2="336.00" stroke="#94a3b8" stroke-opacity="0.18" stroke-width="1" /><line x1="40" y1="424.00" x2="920.00" y2="424.00" stroke="#94a3b8" stroke-opacity="0.18" stroke-width="1" /><line x1="40" y1="512.00" x2="920.00" y2="512.00" stroke="#94a3b8" stroke-opacity="0.18" stroke-width="1" /><line x1="40" y1="600.00" x2="920.00" y2="600.00" stroke="#94a3b8" stroke-opacity="0.18" stroke-width="1" />
  <line x1="40" y1="320.00" x2="920.00" y2="320.00" stroke="#1f2937" stroke-width="1" />
  <polyline points="40.00,131.15 70.34,74.72 100.69,192.48 131.03,136.28 161.38,183.06 191.72,213.61 222.07,237.72 252.41,74.72 282.76,273.06 313.10,230.56 343.45,273.06 373.79,304.00 404.14,153.23 434.48,279.90 464.83,146.37 495.17,154.38 525.52,195.09 555.86,195.09 586.21,89.05 616.55,195.09 646.90,166.31 677.24,149.95 707.59,245.70 737.93,114.32 768.28,40.00 798.62,167.32 828.97,290.60 859.31,124.88 889.66,231.73 920.00,233.10" fill="none" stroke="#60a5fa" stroke-width="2" stroke-linecap="round" stroke-linejoin="round" />
  <polyline points="40.00,445.72 42.74,392.14 45.48,419.52 48.22,456.50 50.97,474.03 53.71,493.41 56.45,510.65 59.19,539.21 61.93,558.33 64.67,555.55 67.41,586.31 70.16,586.38 72.90,600.00 75.64,593.08 78.38,568.52 81.12,584.05 83.86,589.70 86.60,542.70 89.35,524.41 92.09,472.70 94.83,445.56 97.57,446.01 100.31,413.46 103.05,435.07 105.79,448.21 108.54,452.14 111.28,462.30 114.02,472.90 116.76,475.60 119.50,474.03 122.24,474.03 124.98,454.03 127.73,441.96 130.47,450.37 133.21,451.27 135.95,427.28 138.69,429.01 141.43,392.59 144.17,414.30 146.92,434.60 149.66,438.88 152.40,434.41 155.14,445.55 157.88,458.17 160.62,472.41 163.36,441.56 166.11,423.38 168.85,412.24 171.59,425.20 174.33,446.37 177.07,474.37 179.81,445.13 182.55,446.36 185.30,448.93 188.04,436.41 190.78,414.74 193.52,389.06 196.26,343.45 199.00,336.00 201.74,350.64 204.49,363.97 207.23,380.30 209.97,415.50 212.71,416.89 215.45,433.04 218.19,492.91 220.93,483.32 223.68,478.75 226.42,467.33 229.16,416.67 231.90,403.31 234.64,419.90 237.38,391.68 240.12,383.92 242.87,361.73 245.61,372.21 248.35,404.65 251.09,421.13 253.83,427.09 256.57,434.93 259.31,459.42 262.06,478.65 264.80,479.22 267.54,462.49 270.28,488.97 273.02,476.63 275.76,460.41 278.50,447.15 281.25,464.00 283.99,456.10 286.73,468.34 289.47,443.87 292.21,455.56 294.95,458.51 297.69,463.61 300.44,437.41 303.18,445.77 305.92,431.63 308.66,421.04 311.40,421.90 314.14,434.55 316.88,431.54 319.63,444.34 322.37,457.58 325.11,447.05 327.85,445.54 330.59,426.04 333.33,407.18 336.07,409.52 338.82,408.17 341.56,392.75 344.30,409.94 347.04,413.60 349.78,413.60 352.52,442.16 355.26,463.60 358.01,475.52 360.75,478.09 363.49,496.18 366.23,514.61 368.97,505.49 371.71,516.85 374.45,513.41 377.20,523.06 379.94,518.78 382.68,499.73 385.42,497.86 388.16,504.00 390.90,468.66 393.64,448.31 396.39,428.20 399.13,418.27 401.87,422.08 404.61,422.43 407.35,417.45 410.09,410.23 412.83,403.44 415.58,388.78 418.32,383.70 421.06,372.01 423.80,353.34 426.54,355.10 429.28,385.98 432.02,401.08 434.77,418.90 437.51,433.04 440.25,434.64 442.99,449.50 445.73,464.96 448.47,447.01 451.21,433.42 453.96,430.72 456.70,426.68 459.44,436.37 462.18,428.96 464.92,401.81 467.66,382.69 470.40,386.27 473.15,372.36 475.89,375.35 478.63,368.15 481.37,355.18 484.11,372.43 486.85,382.99 489.60,394.83 492.34,407.69 495.08,406.48 497.82,408.89 500.56,424.09 503.30,421.09 506.04,442.10 508.79,442.10 511.53,429.53 514.27,435.91 517.01,433.49 519.75,447.37 522.49,450.47 525.23,458.44 527.98,482.84 530.72,482.50 533.46,469.11 536.20,468.40 538.94,455.37 541.68,439.15 544.42,434.13 547.17,423.54 549.91,429.58 552.65,456.85 555.39,469.24 558.13,461.54 560.87,482.41 563.61,487.02 566.36,457.51 569.10,455.79 571.84,430.91 574.58,420.28 577.32,417.85 580.06,418.45 582.80,396.01 585.55,396.01 588.29,399.44 591.03,404.20 593.77,406.13 596.51,405.80 599.25,389.73 601.99,388.81 604.74,391.66 607.48,411.12 610.22,414.10 612.96,432.17 615.70,455.53 618.44,466.34 621.18,476.00 623.93,476.00 626.67,448.40 629.41,449.30 632.15,427.11 634.89,422.70 637.63,436.02 640.37,424.88 643.12,425.63 645.86,432.05 648.60,439.72 651.34,448.06 654.08,418.47 656.82,404.34 659.56,413.61 662.31,411.37 665.05,405.44 667.79,392.98 670.53,389.77 673.27,398.75 676.01,398.25 678.75,396.70 681.50,405.04 684.24,409.60 686.98,404.93 689.72,399.50 692.46,414.57 695.20,413.64 697.94,420.30 700.69,412.70 703.43,425.99 706.17,443.85 708.91,461.81 711.65,451.08 714.39,461.49 717.13,439.24 719.88,433.82 722.62,442.15 725.36,441.44 728.10,439.84 730.84,441.49 733.58,418.23 736.32,433.44 739.07,443.41 741.81,419.43 744.55,428.00 747.29,418.78 750.03,440.44 752.77,459.72 755.51,465.23 758.26,480.19 761.00,473.48 763.74,453.49 766.48,450.92 769.22,413.36 771.96,396.94 774.70,382.54 777.45,365.75 780.19,379.75 782.93,370.14 785.67,364.55 788.41,371.20 791.15,365.13 793.89,362.39 796.64,359.56 799.38,348.20 802.12,353.05 804.86,351.68 807.60,364.74 810.34,362.81 813.08,374.40 815.83,367.91 818.57,360.37 821.31,358.19 824.05,354.19 826.79,348.19 829.53,353.78 832.27,343.41 835.02,339.03 837.76,355.22 840.50,354.30 843.24,350.69 845.98,352.96 848.72,350.95 851.46,348.37 854.21,358.78 856.95,359.35 859.69,352.92 862.43,375.51 865.17,379.85 867.91,395.43 870.65,409.20 873.40,402.32 876.14,407.13 878.88,415.29 881.62,401.77 884.36,397.73 887.10,388.85 889.84,364.37 892.59,369.14 895.33,356.20 898.07,356.61 900.81,367.01 903.55,357.81 906.29,340.15 909.03,349.06 911.78,359.94 914.52,355.22 917.26,364.53 920.00,363.10" fill="none" stroke="#60a5fa" stroke-width="2" stroke-linecap="round" stroke-linejoin="round" />
  
  
  </svg>