<svg xmlns="http://www.w3.org/2000/svg" viewBox="0 0 960 720" width="960" height="720">
<rect width="960" height="720" fill="#0f172a" />
<text x="480" y="28" fill="#e2e8f0" font-size="16" font-weight="700" text-anchor="middle">下楼速度均值趋势图</text>
<text x="70" y="70" fill="#e2e8f0" font-size="13" font-weight="600">本月分天指标明细</text>
<line x1="70" y1="323.00" x2="930" y2="323.00" stroke="#94a3b8" stroke-opacity="0.18" stroke-width="1" />
<text x="62" y="327.00" fill="#cbd5f5" font-size="10" text-anchor="end">0.05</text>
<line x1="70" y1="260.75" x2="930" y2="260.75" stroke="#94a3b8" stroke-opacity="0.18" stroke-width="1" />
<text x="62" y="264.75" fill="#cbd5f5" font-size="10" text-anchor="end">0.21</text>
<line x1="70" y1="198.50" x2="930" y2="198.50" stroke="#94a3b8" stroke-opacity="0.18" stroke-width="1" />
<text x="62" y="202.50" fill="#cbd5f5" font-size="10" text-anchor="end">0.36</text>
<line x1="70" y1="136.25" x2="930" y2="136.25" stroke="#94a3b8" stroke-opacity="0.18" stroke-width="1" />
<text x="62" y="140.25" fill="#cbd5f5" font-size="10" text-anchor="end">0.52</text>
<line x1="70" y1="74.00" x2="930" y2="74.00" stroke="#94a3b8" stroke-opacity="0.18" stroke-width="1" />
<text x="62" y="78.00" fill="#cbd5f5" font-size="10" text-anchor="end">0.68</text>
<line x1="70.00" y1="323" x2="70.00" y2="327" stroke="#94a3b8" stroke-opacity="0.5" stroke-width="1" />
<text x="70.00" y="341" fill="#cbd5f5" font-size="10" text-anchor="middle">11-22</text>
<line x1="242.00" y1="323" x2="242.00" y2="327" stroke="#94a3b8" stroke-opacity="0.5" stroke-width="1" />
<text x="242.00" y="341" fill="#cbd5f5" font-size="10" text-anchor="middle">11-27</text>
<line x1="414.00" y1="323" x2="414.00" y2="327" stroke="#94a3b8" stroke-opacity="0.5" stroke-width="1" />
<text x="414.00" y="341" fill="#cbd5f5" font-size="10" text-anchor="middle">12-03</text>
<line x1="586.00" y1="323" x2="586.00" y2="327" stroke="#94a3b8" stroke-opacity="0.5" stroke-width="1" />
<text x="586.00" y="341" fill="#cbd5f5" font-size="10" text-anchor="middle">12-09</text>
<line x1="758.00" y1="323" x2="758.00" y2="327" stroke="#94a3b8" stroke-opacity="0.5" stroke-width="1" />
<text x="758.00" y="341" fill="#cbd5f5" font-size="10" text-anchor="middle">12-15</text>
<line x1="930.00" y1="323" x2="930.00" y2="327" stroke="#94a3b8" stroke-opacity="0.5" stroke-width="1" />
<text x="930.00" y="341" fill="#cbd5f5" font-size="10" text-anchor="middle">12-21</text>
<line x1="70" y1="74" x2="70" y2="323" stroke="#94a3b8" stroke-width="1" />
<line x1="70" y1="323" x2="930" y2="323" stroke="#94a3b8" stroke-width="1" />
<path d="M70.00,191.27 L99.66,182.42 L129.31,243.99 L158.97,229.97 L188.62,205.05 L218.28,226.92 L247.93,200.14 L277.59,218.20 L307.24,208.88 L336.90,215.32 L366.55,236.02 L396.21,195.06 L425.86,230.29 L455.52,244.67 L485.17,174.43 L514.83,240.36 L544.48,238.70 L574.14,209.40 L603.79,225.07 L633.45,210.83 L663.10,213.72 L692.76,222.87 L722.41,219.67 L752.07,241.30 L781.72,242.92 L811.38,152.33 L841.03,189.54 L870.69,238.46 L900.34,220.26 L930.00,236.57" fill="none" stroke="#60a5fa" stroke-width="2.2" stroke-linecap="round" />
<circle cx="70.00" cy="191.27" r="3" fill="#60a5fa" stroke="#0f172a" stroke-width="1" />
<text x="70.00" y="181.27" fill="#e2e8f0" font-size="9" text-anchor="middle">0.38</text>
<circle cx="99.66" cy="182.42" r="3" fill="#60a5fa" stroke="#0f172a" stroke-width="1" />
<text x="99.66" y="162.42" fill="#e2e8f0" font-size="9" text-anchor="middle">0.41</text>
<circle cx="129.31" cy="243.99" r="3" fill="#60a5fa" stroke="#0f172a" stroke-width="1" />
<text x="129.31" y="233.99" fill="#e2e8f0" font-size="9" text-anchor="middle">0.25</text>
<circle cx="158.97" cy="229.97" r="3" fill="#60a5fa" stroke="#0f172a" stroke-width="1" />
<text x="158.97" y="209.97" fill="#e2e8f0" font-size="9" text-anchor="middle">0.28</text>
<circle cx="188.62" cy="205.05" r="3" fill="#60a5fa" stroke="#0f172a" stroke-width="1" />
<text x="188.62" y="195.05" fill="#e2e8f0" font-size="9" text-anchor="middle">0.35</text>
<circle cx="218.28" cy="226.92" r="3" fill="#60a5fa" stroke="#0f172a" stroke-width="1" />
<text x="218.28" y="206.92" fill="#e2e8f0" font-size="9" text-anchor="middle">0.29</text>
<circle cx="247.93" cy="200.14" r="3" fill="#60a5fa" stroke="#0f172a" stroke-width="1" />
<text x="247.93" y="190.14" fill="#e2e8f0" font-size="9" text-anchor="middle">0.36</text>
<circle cx="277.59" cy="218.20" r="3" fill="#60a5fa" stroke="#0f172a" stroke-width="1" />
<text x="277.59" y="198.20" fill="#e2e8f0" font-size="9" text-anchor="middle">0.31</text>
<circle cx="307.24" cy="208.88" r="3" fill="#60a5fa" stroke="#0f172a" stroke-width="1" />
<text x="307.24" y="198.88" fill="#e2e8f0" font-size="9" text-anchor="middle">0.34</text>
<circle cx="336.90" cy="215.32" r="3" fill="#60a5fa" stroke="#0f172a" stroke-width="1" />
<text x="336.90" y="195.32" fill="#e2e8f0" font-size="9" text-anchor="middle">0.32</text>
<circle cx="366.55" cy="236.02" r="3" fill="#60a5fa" stroke="#0f172a" stroke-width="1" />
<text x="366.55" y="226.02" fill="#e2e8f0" font-size="9" text-anchor="middle">0.27</text>
<circle cx="396.21" cy="195.06" r="3" fill="#60a5fa" stroke="#0f172a" stroke-width="1" />
<text x="396.21" y="175.06" fill="#e2e8f0" font-size="9" text-anchor="middle">0.37</text>
<circle cx="425.86" cy="230.29" r="3" fill="#60a5fa" stroke="#0f172a" stroke-width="1" />
<text x="425.86" y="220.29" fill="#e2e8f0" font-size="9" text-anchor="middle">0.28</text>
<circle cx="455.52" cy="244.67" r="3" fill="#60a5fa" stroke="#0f172a" stroke-width="1" />
<text x="455.52" y="224.67" fill="#e2e8f0" font-size="9" text-anchor="middle">0.25</text>
<circle cx="485.17" cy="174.43" r="3" fill="#60a5fa" stroke="#0f172a" stroke-width="1" />
<text x="485.17" y="164.43" fill="#e2e8f0" font-size="9" text-anchor="middle">0.43</text>
<circle cx="514.83" cy="240.36" r="3" fill="#60a5fa" stroke="#0f172a" stroke-width="1" />
<text x="514.83" y="220.36" fill="#e2e8f0" font-size="9" text-anchor="middle">0.26</text>
<circle cx="544.48" cy="238.70" r="3" fill="#60a5fa" stroke="#0f172a" stroke-width="1" />
<text x="544.48" y="228.70" fill="#e2e8f0" font-size="9" text-anchor="middle">0.26</text>
<circle cx="574.14" cy="209.40" r="3" fill="#60a5fa" stroke="#0f172a" stroke-width="1" />
<text x="574.14" y="189.40" fill="#e2e8f0" font-size="9" text-anchor="middle">0.34</text>
<circle cx="603.79" cy="225.07" r="3" fill="#60a5fa" stroke="#0f172a" stroke-width="1" />
<text x="603.79" y="215.07" fill="#e2e8f0" font-size="9" text-anchor="middle">0.3</text>
<circle cx="633.45" cy="210.83" r="3" fill="#60a5fa" stroke="#0f172a" stroke-width="1" />
<text x="633.45" y="190.83" fill="#e2e8f0" font-size="9" text-anchor="middle">0.33</text>
<circle cx="663.10" cy="213.72" r="3" fill="#60a5fa" stroke="#0f172a" stroke-width="1" />
<text x="663.10" y="203.72" fill="#e2e8f0" font-size="9" text-anchor="middle">0.33</text>
<circle cx="692.76" cy="222.87" r="3" fill="#60a5fa" stroke="#0f172a" stroke-width="1" />
<text x="692.76" y="202.87" fill="#e2e8f0" font-size="9" text-anchor="middle">0.3</text>
<circle cx="722.41" cy="219.67" r="3" fill="#60a5fa" stroke="#0f172a" stroke-width="1" />
<text x="722.41" y="209.67" fill="#e2e8f0" font-size="9" text-anchor="middle">0.31</text>
<circle cx="752.07" cy="241.30" r="3" fill="#60a5fa" stroke="#0f172a" stroke-width="1" />
<text x="752.07" y="221.30" fill="#e2e8f0" font-size="9" text-anchor="middle">0.25</text>
<circle cx="781.72" cy="242.92" r="3" fill="#60a5fa" stroke="#0f172a" stroke-width="1" />
<text x="781.72" y="232.92" fill="#e2e8f0" font-size="9" text-anchor="middle">0.25</text>
<circle cx="811.38" cy="152.33" r="3" fill="#60a5fa" stroke="#0f172a" stroke-width="1" />
<text x="811.38" y="132.33" fill="#e2e8f0" font-size="9" text-anchor="middle">0.48</text>
<circle cx="841.03" cy="189.54" r="3" fill="#60a5fa" stroke="#0f172a" stroke-width="1" />
<text x="841.03" y="179.54" fill="#e2e8f0" font-size="9" text-anchor="middle">0.39</text>
<circle cx="870.69" cy="238.46" r="3" fill="#60a5fa" stroke="#0f172a" stroke-width="1" />
<text x="870.69" y="218.46" fill="#e2e8f0" font-size="9" text-anchor="middle">0.26</text>
<circle cx="900.34" cy="220.26" r="3" fill="#60a5fa" stroke="#0f172a" stroke-width="1" />
<text x="900.34" y="210.26" fill="#e2e8f0" font-size="9" text-anchor="middle">0.31</text>
<circle cx="930.00" cy="236.57" r="3" fill="#60a5fa" stroke="#0f172a" stroke-width="1" />
<text x="930.00" y="216.57" fill="#e2e8f0" font-size="9" text-anchor="middle">0.27</text>
<text x="70" y="403" fill="#e2e8f0" font-size="13" font-weight="600">本年核心指标趋势（滑动7日窗口平均）</text>
<line x1="70" y1="656.00" x2="930" y2="656.00" stroke="#94a3b8" stroke-opacity="0.18" stroke-width="1" />
<text x="62" y="660.00" fill="#cbd5f5" font-size="10" text-anchor="end">0.07</text>
<line x1="70" y1="593.75" x2="930" y2="593.75" stroke="#94a3b8" stroke-opacity="0.18" stroke-width="1" />
<text x="62" y="597.75" fill="#cbd5f5" font-size="10" text-anchor="end">0.2</text>
<line x1="70" y1="531.50" x2="930" y2="531.50" stroke="#94a3b8" stroke-opacity="0.18" stroke-width="1" />
<text x="62" y="535.50" fill="#cbd5f5" font-size="10" text-anchor="end">0.34</text>
<line x1="70" y1="469.25" x2="930" y2="469.25" stroke="#94a3b8" stroke-opacity="0.18" stroke-width="1" />
<text x="62" y="473.25" fill="#cbd5f5" font-size="10" text-anchor="end">0.47</text>
<line x1="70" y1="407.00" x2="930" y2="407.00" stroke="#94a3b8" stroke-opacity="0.18" stroke-width="1" />
<text x="62" y="411.00" fill="#cbd5f5" font-size="10" text-anchor="end">0.6</text>
<line x1="70.00" y1="656" x2="70.00" y2="660" stroke="#94a3b8" stroke-opacity="0.5" stroke-width="1" />
<text x="70.00" y="674" fill="#cbd5f5" font-size="10" text-anchor="middle">2025-01</text>
<line x1="242.00" y1="656" x2="242.00" y2="660" stroke="#94a3b8" stroke-opacity="0.5" stroke-width="1" />
<text x="242.00" y="674" fill="#cbd5f5" font-size="10" text-anchor="middle">2025-03</text>
<line x1="414.00" y1="656" x2="414.00" y2="660" stroke="#94a3b8" stroke-opacity="0.5" stroke-width="1" />
<text x="414.00" y="674" fill="#cbd5f5" font-size="10" text-anchor="middle">2025-06</text>
<line x1="586.00" y1="656" x2="586.00" y2="660" stroke="#94a3b8" stroke-opacity="0.5" stroke-width="1" />
<text x="586.00" y="674" fill="#cbd5f5" font-size="10" text-anchor="middle">2025-08</text>
<line x1="758.00" y1="656" x2="758.00" y2="660" stroke="#94a3b8" stroke-opacity="0.5" stroke-width="1" />
<text x="758.00" y="674" fill="#cbd5f5" font-size="10" text-anchor="middle">2025-10</text>
<line x1="930.00" y1="656" x2="930.00" y2="660" stroke="#94a3b8" stroke-opacity="0.5" stroke-width="1" />
<text x="930.00" y="674" fill="#cbd5f5" font-size="10" text-anchor="middle">2025-12</text>
<line x1="70" y1="407" x2="70" y2="656" stroke="#94a3b8" stroke-width="1" />
<line x1="70" y1="656" x2="930" y2="656" stroke="#94a3b8" stroke-width="1" />
<path d="M70.00,656.00 L70.00,522.47 L72.60,500.20 L75.20,502.17 L80.39,506.31 L82.99,508.54 L90.79,501.19 L95.98,505.91 L98.58,507.68 L101.18,512.66 L103.78,521.52 L106.37,519.53 L108.97,525.65 L111.57,525.64 L114.17,526.77 L116.77,530.27 L119.37,532.74 L121.96,526.81 L124.56,531.56 L127.16,527.21 L129.76,533.19 L132.36,531.45 L134.95,531.49 L137.55,534.40 L140.15,539.75 L142.75,534.16 L145.35,535.53 L147.95,538.93 L150.54,524.44 L153.14,518.68 L155.74,515.20 L158.34,511.18 L160.94,514.33 L163.53,507.59 L166.13,512.08 L171.33,519.47 L173.93,521.20 L176.53,514.49 L179.12,502.35 L181.72,504.68 L184.32,508.32 L186.92,501.59 L189.52,511.24 L192.11,506.92 L194.71,518.59 L197.31,518.99 L199.91,520.63 L202.51,524.94 L205.11,519.69 L207.70,514.22 L210.30,516.92 L212.90,515.61 L215.50,531.29 L218.10,531.96 L220.69,523.36 L223.29,532.54 L225.89,536.44 L228.49,538.27 L231.09,531.45 L233.69,530.66 L236.28,527.07 L238.88,526.99 L241.48,527.00 L244.08,521.18 L246.68,516.55 L249.27,514.35 L251.87,511.72 L254.47,518.24 L257.07,521.48 L259.67,521.75 L262.27,519.13 L264.86,520.39 L267.46,523.30 L270.06,521.02 L272.66,514.48 L275.26,520.60 L277.85,522.43 L280.45,534.03 L283.05,539.70 L285.65,546.87 L288.25,553.37 L290.85,556.89 L293.44,553.09 L296.04,552.79 L298.64,546.48 L301.24,546.45 L303.84,546.62 L306.44,543.85 L309.03,540.39 L311.63,538.55 L314.23,535.73 L316.83,541.33 L319.43,541.36 L322.02,541.37 L324.62,540.05 L327.22,538.61 L329.82,540.96 L332.42,540.60 L335.02,536.23 L337.61,536.93 L340.21,539.23 L342.81,540.70 L345.41,543.28 L348.01,544.96 L350.60,541.08 L353.20,543.42 L355.80,533.53 L358.40,527.30 L361.00,516.14 L363.60,513.96 L366.19,509.52 L368.79,517.43 L371.39,518.33 L373.99,527.73 L376.59,529.59 L379.18,537.95 L381.78,541.35 L386.98,545.96 L389.58,544.10 L392.18,537.42 L394.77,535.83 L397.37,531.86 L399.97,533.12 L402.57,530.28 L407.76,528.70 L410.36,514.66 L412.96,525.25 L415.56,527.82 L418.16,519.41 L420.76,522.38 L423.35,526.98 L425.95,530.63 L428.55,541.37 L431.15,539.12 L433.75,536.01 L438.94,554.82 L441.54,545.37 L444.14,541.26 L446.74,532.77 L449.34,534.44 L451.93,535.63 L454.53,529.77 L457.13,526.96 L459.73,537.15 L462.33,534.64 L464.92,541.28 L467.52,535.15 L470.12,530.12 L472.72,539.51 L475.32,539.92 L477.92,540.78 L480.51,530.94 L483.11,532.30 L485.71,539.23 L488.31,538.33 L490.91,542.03 L493.50,541.62 L496.10,537.05 L498.70,553.58 L501.30,548.77 L503.90,551.77 L506.50,552.78 L509.09,541.67 L511.69,540.46 L514.29,536.61 L516.89,536.90 L519.49,534.84 L522.08,537.35 L524.68,532.76 L527.28,538.46 L529.88,537.28 L532.48,542.20 L535.08,535.83 L537.67,542.58 L540.27,538.29 L542.87,540.84 L545.47,534.36 L548.07,537.77 L550.66,538.81 L553.26,547.24 L555.86,548.42 L558.46,549.11 L561.06,554.54 L563.66,562.80 L566.25,552.17 L568.85,548.22 L571.45,540.96 L574.05,537.41 L576.65,539.19 L579.24,537.23 L581.84,537.61 L584.44,547.43 L587.04,542.67 L589.64,544.27 L592.24,547.13 L594.83,532.19 L597.43,538.10 L600.03,533.60 L605.23,520.44 L607.82,525.01 L610.42,522.97 L615.62,517.11 L618.22,532.39 L641.60,515.17 L644.20,512.65 L646.80,523.25 L649.40,528.04 L651.99,526.93 L654.59,532.43 L657.19,530.73 L659.79,535.17 L662.39,534.95 L664.98,537.48 L667.58,525.29 L670.18,528.08 L672.78,525.58 L675.38,520.07 L677.98,519.77 L680.57,518.56 L683.17,515.72 L685.77,526.88 L688.37,525.09 L690.97,525.32 L693.56,527.13 L696.16,536.26 L698.76,539.17 L701.36,538.65 L703.96,531.49 L706.56,538.73 L709.15,541.26 L711.75,540.44 L714.35,540.45 L716.95,537.59 L719.55,533.88 L724.74,540.05 L727.34,536.85 L729.94,535.51 L732.54,530.94 L735.14,529.66 L737.73,541.53 L740.33,547.02 L742.93,547.84 L745.53,551.23 L748.13,549.88 L750.73,559.06 L753.32,557.95 L755.92,551.38 L758.52,549.13 L761.12,554.26 L763.72,554.06 L766.31,556.76 L768.91,555.53 L771.51,558.40 L774.11,555.97 L776.71,557.24 L779.31,550.23 L781.90,548.50 L784.50,544.74 L787.10,547.85 L789.70,542.59 L792.30,543.78 L794.89,544.18 L797.49,546.98 L800.09,547.60 L802.69,550.00 L805.29,542.96 L807.89,544.52 L810.48,539.10 L813.08,532.74 L815.68,529.58 L818.28,531.91 L820.88,528.45 L823.47,532.89 L826.07,535.83 L828.67,540.68 L831.27,547.05 L833.87,551.39 L836.47,551.95 L841.66,558.16 L844.26,559.41 L846.86,550.48 L849.46,556.79 L852.05,551.86 L854.65,543.87 L857.25,531.95 L859.85,532.98 L862.45,532.06 L865.05,537.10 L867.64,534.07 L870.24,533.71 L872.84,538.29 L875.44,542.79 L878.04,537.92 L880.63,538.95 L883.23,537.25 L885.83,537.82 L888.43,545.39 L891.03,537.95 L893.63,543.30 L896.22,547.27 L898.82,542.75 L901.42,547.85 L904.02,544.54 L906.62,539.28 L909.21,547.52 L911.81,544.00 L914.41,544.44 L917.01,550.14 L919.61,537.77 L922.21,534.15 L924.80,538.36 L927.40,537.92 L930.00,540.79 L930.00,656.00 Z" fill="#60a5fa" fill-opacity="0.16" stroke="none" />
<path d="M70.00,522.47 L72.60,500.20 L75.20,502.17 L80.39,506.31 L82.99,508.54 L90.79,501.19 L95.98,505.91 L98.58,507.68 L101.18,512.66 L103.78,521.52 L106.37,519.53 L108.97,525.65 L111.57,525.64 L114.17,526.77 L116.77,530.27 L119.37,532.74 L121.96,526.81 L124.56,531.56 L127.16,527.21 L129.76,533.19 L132.36,531.45 L134.95,531.49 L137.55,534.40 L140.15,539.75 L142.75,534.16 L145.35,535.53 L147.95,538.93 L150.54,524.44 L153.14,518.68 L155.74,515.20 L158.34,511.18 L160.94,514.33 L163.53,507.59 L166.13,512.08 L171.33,519.47 L173.93,521.20 L176.53,514.49 L179.12,502.35 L181.72,504.68 L184.32,508.32 L186.92,501.59 L189.52,511.24 L192.11,506.92 L194.71,518.59 L197.31,518.99 L199.91,520.63 L202.51,524.94 L205.11,519.69 L207.70,514.22 L210.30,516.92 L212.90,515.61 L215.50,531.29 L218.10,531.96 L220.69,523.36 L223.29,532.54 L225.89,536.44 L228.49,538.27 L231.09,531.45 L233.69,530.66 L236.28,527.07 L238.88,526.99 L241.48,527.00 L244.08,521.18 L246.68,516.55 L249.27,514.35 L251.87,511.72 L254.47,518.24 L257.07,521.48 L259.67,521.75 L262.27,519.13 L264.86,520.39 L267.46,523.30 L270.06,521.02 L272.66,514.48 L275.26,520.60 L277.85,522.43 L280.45,534.03 L283.05,539.70 L285.65,546.87 L288.25,553.37 L290.85,556.89 L293.44,553.09 L296.04,552.79 L298.64,546.48 L301.24,546.45 L303.84,546.62 L306.44,543.85 L309.03,540.39 L311.63,538.55 L314.23,535.73 L316.83,541.33 L319.43,541.36 L322.02,541.37 L324.62,540.05 L327.22,538.61 L329.82,540.96 L332.42,540.60 L335.02,536.23 L337.61,536.93 L340.21,539.23 L342.81,540.70 L345.41,543.28 L348.01,544.96 L350.60,541.08 L353.20,543.42 L355.80,533.53 L358.40,527.30 L361.00,516.14 L363.60,513.96 L366.19,509.52 L368.79,517.43 L371.39,518.33 L373.99,527.73 L376.59,529.59 L379.18,537.95 L381.78,541.35 L386.98,545.96 L389.58,544.10 L392.18,537.42 L394.77,535.83 L397.37,531.86 L399.97,533.12 L402.57,530.28 L407.76,528.70 L410.36,514.66 L412.96,525.25 L415.56,527.82 L418.16,519.41 L420.76,522.38 L423.35,526.98 L425.95,530.63 L428.55,541.37 L431.15,539.12 L433.75,536.01 L438.94,554.82 L441.54,545.37 L444.14,541.26 L446.74,532.77 L449.34,534.44 L451.93,535.63 L454.53,529.77 L457.13,526.96 L459.73,537.15 L462.33,534.64 L464.92,541.28 L467.52,535.15 L470.12,530.12 L472.72,539.51 L475.32,539.92 L477.92,540.78 L480.51,530.94 L483.11,532.30 L485.71,539.23 L488.31,538.33 L490.91,542.03 L493.50,541.62 L496.10,537.05 L498.70,553.58 L501.30,548.77 L503.90,551.77 L506.50,552.78 L509.09,541.67 L511.69,540.46 L514.29,536.61 L516.89,536.90 L519.49,534.84 L522.08,537.35 L524.68,532.76 L527.28,538.46 L529.88,537.28 L532.48,542.20 L535.08,535.83 L537.67,542.58 L540.27,538.29 L542.87,540.84 L545.47,534.36 L548.07,537.77 L550.66,538.81 L553.26,547.24 L555.86,548.42 L558.46,549.11 L561.06,554.54 L563.66,562.80 L566.25,552.17 L568.85,548.22 L571.45,540.96 L574.05,537.41 L576.65,539.19 L579.24,537.23 L581.84,537.61 L584.44,547.43 L587.04,542.67 L589.64,544.27 L592.24,547.13 L594.83,532.19 L597.43,538.10 L600.03,533.60 L605.23,520.44 L607.82,525.01 L610.42,522.97 L615.62,517.11 L618.22,532.39 L641.60,515.17 L644.20,512.65 L646.80,523.25 L649.40,528.04 L651.99,526.93 L654.59,532.43 L657.19,530.73 L659.79,535.17 L662.39,534.95 L664.98,537.48 L667.58,525.29 L670.18,528.08 L672.78,525.58 L675.38,520.07 L677.98,519.77 L680.57,518.56 L683.17,515.72 L685.77,526.88 L688.37,525.09 L690.97,525.32 L693.56,527.13 L696.16,536.26 L698.76,539.17 L701.36,538.65 L703.96,531.49 L706.56,538.73 L709.15,541.26 L711.75,540.44 L714.35,540.45 L716.95,537.59 L719.55,533.88 L724.74,540.05 L727.34,536.85 L729.94,535.51 L732.54,530.94 L735.14,529.66 L737.73,541.53 L740.33,547.02 L742.93,547.84 L745.53,551.23 L748.13,549.88 L750.73,559.06 L753.32,557.95 L755.92,551.38 L758.52,549.13 L761.12,554.26 L763.72,554.06 L766.31,556.76 L768.91,555.53 L771.51,558.40 L774.11,555.97 L776.71,557.24 L779.31,550.23 L781.90,548.50 L784.50,544.74 L787.10,547.85 L789.70,542.59 L792.30,543.78 L794.89,544.18 L797.49,546.98 L800.09,547.60 L802.69,550.00 L805.29,542.96 L807.89,544.52 L810.48,539.10 L813.08,532.74 L815.68,529.58 L818.28,531.91 L820.88,528.45 L823.47,532.89 L826.07,535.83 L828.67,540.68 L831.27,547.05 L833.87,551.39 L836.47,551.95 L841.66,558.16 L844.26,559.41 L846.86,550.48 L849.46,556.79 L852.05,551.86 L854.65,543.87 L857.25,531.95 L859.85,532.98 L862.45,532.06 L865.05,537.10 L867.64,534.07 L870.24,533.71 L872.84,538.29 L875.44,542.79 L878.04,537.92 L880.63,538.95 L883.23,537.25 L885.83,537.82 L888.43,545.39 L891.03,537.95 L893.63,543.30 L896.22,547.27 L898.82,542.75 L901.42,547.85 L904.02,544.54 L906.62,539.28 L909.21,547.52 L911.81,544.00 L914.41,544.44 L917.01,550.14 L919.61,537.77 L922.21,534.15 L924.80,538.36 L927.40,537.92 L930.00,540.79" fill="none" stroke="#60a5fa" stroke-width="2.2" stroke-linecap="round" />
</svg>
