<svg xmlns="http://www.w3.org/2000/svg" viewBox="0 0 960 640" width="960" height="640">
  <rect width="960" height="640" fill="#0f172a" />
  <line x1="40" y1="40.00" x2="920.00" y2="40.00" stroke="#94a3b8" stroke-opacity="0.18" stroke-width="1" /><line x1="40" y1="128.00" x2="920.00" y2="128.00" stroke="#94a3b8" stroke-opacity="0.18" stroke-width="1" /><line x1="40" y1="216.00" x2="920.00" y2="216.00" stroke="#94a3b8" stroke-opacity="0.18" stroke-width="1" /><line x1="40" y1="304.00" x2="920.00" y2="304.00" stroke="#94a3b8" stroke-opacity="0.18" stroke-width="1" />
  <line x1="40" y1="336.00" x2="920.00" y2="336.00" stroke="#94a3b8" stroke-opacity="0.18" stroke-width="1" /><line x1="40" y1="424.00" x2="920.00" y2="424.00" stroke="#94a3b8" stroke-opacity="0.18" stroke-width="1" /><line x1="40" y1="512.00" x2="920.00" y2="512.00" stroke="#94a3b8" stroke-opacity="0.18" stroke-width="1" /><line x1="40" y1="600.00" x2="920.00" y2="600.00" stroke="#94a3b8" stroke-opacity="0.18" stroke-width="1" />
  <line x1="40" y1="320.00" x2="920.00" y2="320.00" stroke="#1f2937" stroke-width="1" />
  <polyline points="40.00,200.80 88.89,278.71 137.78,264.22 186.67,265.63 235.56,228.61 284.44,294.72 333.33,304.00 382.22,236.00 431.11,257.82 480.00,289.72 528.89,284.15 577.78,281.04 626.67,258.12 675.56,284.50 724.44,242.88 773.33,40.00 822.22,73.26 871.11,200.58 920.00,286.23" fill="none" stroke="#60a5fa" stroke-width="2" stroke-linecap="round" stroke-linejoin="round" />
  <polyline points="40.00,580.09 44.02,600.00 48.04,509.00 52.05,489.21 56.07,455.79 60.09,416.34 64.11,411.87 68.13,398.99 72.15,374.73 76.16,397.76 80.18,418.35 84.20,392.55 88.22,406.76 92.24,417.58 96.26,414.01 100.27,436.58 104.29,367.26 108.31,351.89 112.33,408.45 116.35,439.28 120.37,453.79 124.38,465.23 128.40,456.07 132.42,532.50 136.44,513.55 140.46,515.44 144.47,511.55 148.49,488.54 152.51,485.56 156.53,497.63 160.55,491.35 164.57,436.55 168.58,443.85 172.60,442.67 176.62,459.73 180.64,422.52 184.66,428.69 188.68,422.66 192.69,494.00 196.71,475.49 200.73,497.50 204.75,476.16 208.77,514.61 212.79,512.95 216.80,512.06 220.82,521.17 224.84,519.68 228.86,515.39 232.88,531.99 236.89,513.81 240.91,484.66 244.93,487.84 248.95,490.19 252.97,472.20 256.99,454.90 261.00,449.61 265.02,436.26 269.04,445.06 273.06,449.03 277.08,448.59 281.10,470.79 285.11,474.66 289.13,499.13 293.15,525.11 297.17,522.87 301.19,523.56 305.21,512.87 309.22,527.18 313.24,533.31 317.26,509.53 321.28,504.35 325.30,504.81 329.32,512.95 333.33,517.49 337.35,496.97 341.37,499.16 345.39,476.52 349.41,493.91 353.42,484.64 357.44,471.58 361.46,474.78 365.48,488.24 369.50,471.82 373.52,472.84 377.53,463.27 381.55,458.98 385.57,444.88 389.59,444.74 393.61,462.37 397.63,480.20 401.64,498.20 405.66,508.43 409.68,524.06 413.70,546.02 417.72,540.28 421.74,511.03 425.75,491.46 429.77,495.35 433.79,492.59 437.81,481.68 441.83,490.56 445.84,494.16 449.86,452.52 453.88,482.07 457.90,499.82 461.92,447.05 465.94,389.89 469.95,376.00 473.97,378.13 477.99,381.70 482.01,359.83 486.03,341.17 490.05,379.10 494.06,447.04 498.08,460.62 502.10,472.43 506.12,525.14 510.14,535.46 514.16,548.34 518.17,555.85 522.19,554.32 526.21,554.84 530.23,546.47 534.25,547.25 538.26,530.49 542.28,533.49 546.30,539.56 550.32,490.31 554.34,436.13 558.36,441.62 562.37,438.08 566.39,393.32 570.41,392.58 574.43,389.51 578.45,443.74 582.47,468.14 586.48,460.36 590.50,468.84 594.52,473.75 598.54,382.03 602.56,379.70 606.58,368.21 610.59,336.00 614.61,354.21 618.63,339.33 622.65,365.92 626.67,459.67 630.68,465.50 634.70,488.20 638.72,557.74 642.74,522.09 646.76,485.78 650.78,516.36 654.79,475.72 658.81,399.79 662.83,381.19 666.85,376.95 670.87,394.71 674.89,451.20 678.90,454.40 682.92,492.45 686.94,566.78 690.96,572.96 694.98,573.40 699.00,586.87 703.01,573.56 707.03,557.19 711.05,533.16 715.07,416.28 719.09,433.01 723.11,439.53 727.12,432.25 731.14,415.64 735.16,421.38 739.18,445.13 743.20,548.21 747.21,499.74 751.23,483.34 755.25,483.89 759.27,475.83 763.29,474.33 767.31,407.21 771.32,437.62 775.34,479.76 779.36,484.81 783.38,478.96 787.40,514.58 791.42,523.80 795.43,520.06 799.45,512.92 803.47,515.81 807.49,509.52 811.51,476.71 815.53,427.15 819.54,435.90 823.56,507.50 827.58,484.59 831.60,475.36 835.62,482.22 839.63,526.75 843.65,560.22 847.67,524.49 851.69,526.35 855.71,538.43 859.73,535.34 863.74,518.34 867.76,518.29 871.78,534.27 875.80,544.98 879.82,538.63 883.84,546.39 887.85,552.03 891.87,567.98 895.89,556.84 899.91,550.91 903.93,553.00 907.95,486.71 911.96,420.84 915.98,395.41 920.00,396.99" fill="none" stroke="#60a5fa" stroke-width="2" stroke-linecap="round" stroke-linejoin="round" />
  
  
  </svg>