<svg xmlns="http://www.w3.org/2000/svg" viewBox="0 0 960 640" width="960" height="640">
  <rect width="960" height="640" fill="#0f172a" />
  <line x1="40" y1="40.00" x2="920.00" y2="40.00" stroke="#94a3b8" stroke-opacity="0.18" stroke-width="1" /><line x1="40" y1="128.00" x2="920.00" y2="128.00" stroke="#94a3b8" stroke-opacity="0.18" stroke-width="1" /><line x1="40" y1="216.00" x2="920.00" y2="216.00" stroke="#94a3b8" stroke-opacity="0.18" stroke-width="1" /><line x1="40" y1="304.00" x2="920.00" y2="304.00" stroke="#94a3b8" stroke-opacity="0.18" stroke-width="1" />
  <line x1="40" y1="336.00" x2="920.00" y2="336.00" stroke="#94a3b8" stroke-opacity="0.18" stroke-width="1" /><line x1="40" y1="424.00" x2="920.00" y2="424.00" stroke="#94a3b8" stroke-opacity="0.18" stroke-width="1" /><line x1="40" y1="512.00" x2="920.00" y2="512.00" stroke="#94a3b8" stroke-opacity="0.18" stroke-width="1" /><line x1="40" y1="600.00" x2="920.00" y2="600.00" stroke="#94a3b8" stroke-opacity="0.18" stroke-width="1" />
  <line x1="40" y1="320.00" x2="920.00" y2="320.00" stroke="#1f2937" stroke-width="1" />
  <polyline points="40.00,106.06 70.34,304.00 100.69,182.64 131.03,151.28 161.38,125.99 191.72,301.95 222.07,261.87 252.41,190.67 282.76,253.15 313.10,176.63 343.45,228.24 373.79,201.62 404.14,220.02 434.48,279.17 464.83,162.11 495.17,262.78 525.52,303.89 555.86,103.14 586.21,291.58 616.55,286.84 646.90,203.10 677.24,247.89 707.59,207.19 737.93,215.43 768.28,241.60 798.62,232.44 828.97,294.26 859.31,298.88 889.66,40.00 920.00,146.32" fill="none" stroke="#60a5fa" stroke-width="2" stroke-linecap="round" stroke-linejoin="round" />
  <polyline points="40.00,429.91 42.86,336.00 45.71,344.30 48.57,361.76 51.43,371.16 54.29,340.16 57.14,360.09 60.00,367.56 62.86,388.54 65.71,425.89 68.57,417.51 71.43,443.31 74.29,443.27 77.14,448.04 80.00,462.83 82.86,473.23 85.71,448.22 88.57,468.24 91.43,449.89 94.29,475.13 97.14,467.77 100.00,467.96 102.86,480.24 105.71,502.78 108.57,479.23 111.43,484.98 114.29,499.34 117.14,438.20 120.00,413.92 122.86,399.25 125.71,382.31 128.57,395.59 131.43,367.18 134.29,386.08 137.14,417.27 140.00,424.58 142.86,396.24 145.71,345.06 148.57,354.89 151.43,370.26 154.29,341.85 157.14,382.56 160.00,364.34 162.86,413.53 165.71,415.23 168.57,422.14 171.43,440.33 174.29,418.19 177.14,395.10 180.00,406.51 182.86,400.96 185.71,467.10 188.57,469.94 191.43,433.68 194.29,472.38 197.14,488.82 200.00,496.53 202.86,467.78 205.71,464.47 208.57,449.32 211.43,448.99 214.29,449.00 217.14,424.46 220.00,404.95 222.86,395.69 225.71,384.56 228.57,412.07 231.43,425.73 234.29,426.86 237.14,415.82 240.00,421.14 242.86,433.41 245.71,423.80 248.57,396.23 251.43,422.05 254.29,429.73 257.14,478.68 260.00,502.58 262.86,532.83 265.71,560.23 268.57,575.07 271.43,559.08 274.29,557.78 277.14,531.18 280.00,531.05 282.86,531.78 285.71,520.11 288.57,505.51 291.43,497.74 294.29,485.85 297.14,509.46 300.00,509.58 302.86,509.64 305.71,504.04 308.57,498.00 311.43,507.88 314.29,506.37 317.14,487.95 320.00,490.90 322.86,500.60 325.71,506.79 328.57,517.68 331.43,524.79 334.29,508.39 337.14,518.26 340.00,476.54 342.86,450.27 345.71,403.23 348.57,394.01 351.43,375.30 354.29,408.66 357.14,412.46 360.00,452.08 362.86,459.94 365.71,495.22 368.57,509.55 371.43,528.99 374.29,521.15 377.14,492.99 380.00,486.25 382.86,469.51 385.71,474.85 388.57,462.85 391.43,456.20 394.29,396.96 397.14,441.63 400.00,452.49 402.86,417.00 405.71,429.54 408.57,448.92 411.43,464.31 414.29,509.64 417.14,500.16 420.00,487.03 422.86,566.35 425.71,526.50 428.57,509.16 431.43,473.37 434.29,480.39 437.14,485.41 440.00,460.70 442.86,448.84 445.71,491.84 448.57,481.25 451.43,509.25 454.29,483.39 457.14,462.18 460.00,501.77 462.86,503.53 465.71,507.13 468.57,465.64 471.43,471.36 474.29,500.60 477.14,496.79 480.00,512.41 482.86,510.70 485.71,491.41 488.57,561.14 491.43,540.82 494.29,553.49 497.14,557.74 500.00,510.88 502.86,505.81 505.71,489.56 508.57,490.78 511.43,482.07 514.29,492.66 517.14,473.33 520.00,497.34 522.86,492.38 525.71,513.15 528.57,486.28 531.43,514.71 534.29,496.63 537.14,507.39 540.00,480.06 542.86,494.44 545.71,498.84 548.57,534.38 551.43,539.36 554.29,542.25 557.14,565.16 560.00,600.00 562.86,555.18 565.71,538.53 568.57,507.91 571.43,492.91 574.29,500.41 577.14,492.18 580.00,493.75 582.86,535.17 585.71,515.12 588.57,521.86 591.43,533.92 594.29,470.93 597.14,495.84 600.00,476.87 602.86,421.35 605.71,440.64 608.57,432.03 611.43,407.31 614.29,471.76 617.14,399.14 620.00,388.49 622.86,433.20 625.71,453.41 628.57,448.72 631.43,471.91 634.29,464.77 637.14,483.47 640.00,482.57 642.86,493.21 645.71,441.81 648.57,453.58 651.43,443.03 654.29,419.77 657.14,418.54 660.00,413.43 662.86,401.45 665.71,448.53 668.57,440.97 671.43,441.95 674.29,449.59 677.14,488.08 680.00,500.37 682.86,498.17 685.71,467.94 688.57,498.48 691.43,509.18 694.29,505.72 697.14,505.74 700.00,493.70 702.86,478.02 705.71,504.04 708.57,490.55 711.43,484.92 714.29,465.64 717.14,460.25 720.00,510.30 722.86,533.46 725.71,536.90 728.57,551.23 731.43,545.50 734.29,584.23 737.14,579.54 740.00,551.85 742.86,542.36 745.71,563.99 748.57,563.14 751.43,574.55 754.29,569.35 757.14,581.45 760.00,571.20 762.86,576.56 765.71,546.99 768.57,539.70 771.43,523.82 774.29,536.97 777.14,514.76 780.00,519.78 782.86,521.49 785.71,533.29 788.57,535.90 791.43,546.04 794.29,516.31 797.14,522.92 800.00,500.07 802.86,473.23 805.71,459.91 808.57,469.71 811.43,455.12 814.29,473.88 817.14,486.27 820.00,506.73 822.86,533.60 825.71,551.90 828.57,554.25 831.43,580.43 834.29,585.72 837.14,548.04 840.00,574.67 842.86,553.89 845.71,520.17 848.57,469.89 851.43,474.25 854.29,470.38 857.14,491.60 860.00,478.85 862.86,477.34 865.71,496.65 868.57,515.62 871.43,495.07 874.29,499.41 877.14,492.24 880.00,494.66 882.86,526.58 885.71,495.20 888.57,517.77 891.43,534.53 894.29,515.44 897.14,536.96 900.00,523.02 902.86,500.83 905.71,535.56 908.57,520.72 911.43,522.59 914.29,546.61 917.14,494.46 920.00,479.20" fill="none" stroke="#60a5fa" stroke-width="2" stroke-linecap="round" stroke-linejoin="round" />
  
  
  </svg>