<svg xmlns="http://www.w3.org/2000/svg" viewBox="0 0 960 720" width="960" height="720">
<rect width="960" height="720" fill="#0f172a" />
<text x="480" y="28" fill="#e2e8f0" font-size="16" font-weight="700" text-anchor="middle">上楼速度均值趋势图</text>
<text x="70" y="70" fill="#e2e8f0" font-size="13" font-weight="600">本月分天指标明细</text>
<line x1="70" y1="323.00" x2="930" y2="323.00" stroke="#94a3b8" stroke-opacity="0.18" stroke-width="1" />
<text x="62" y="327.00" fill="#cbd5f5" font-size="10" text-anchor="end">0.02</text>
<line x1="70" y1="260.75" x2="930" y2="260.75" stroke="#94a3b8" stroke-opacity="0.18" stroke-width="1" />
<text x="62" y="264.75" fill="#cbd5f5" font-size="10" text-anchor="end">0.17</text>
<line x1="70" y1="198.50" x2="930" y2="198.50" stroke="#94a3b8" stroke-opacity="0.18" stroke-width="1" />
<text x="62" y="202.50" fill="#cbd5f5" font-size="10" text-anchor="end">0.33</text>
<line x1="70" y1="136.25" x2="930" y2="136.25" stroke="#94a3b8" stroke-opacity="0.18" stroke-width="1" />
<text x="62" y="140.25" fill="#cbd5f5" font-size="10" text-anchor="end">0.48</text>
<line x1="70" y1="74.00" x2="930" y2="74.00" stroke="#94a3b8" stroke-opacity="0.18" stroke-width="1" />
<text x="62" y="78.00" fill="#cbd5f5" font-size="10" text-anchor="end">0.64</text>
<line x1="70.00" y1="323" x2="70.00" y2="327" stroke="#94a3b8" stroke-opacity="0.5" stroke-width="1" />
<text x="70.00" y="341" fill="#cbd5f5" font-size="10" text-anchor="middle">11-22</text>
<line x1="242.00" y1="323" x2="242.00" y2="327" stroke="#94a3b8" stroke-opacity="0.5" stroke-width="1" />
<text x="242.00" y="341" fill="#cbd5f5" font-size="10" text-anchor="middle">11-27</text>
<line x1="414.00" y1="323" x2="414.00" y2="327" stroke="#94a3b8" stroke-opacity="0.5" stroke-width="1" />
<text x="414.00" y="341" fill="#cbd5f5" font-size="10" text-anchor="middle">12-03</text>
<line x1="586.00" y1="323" x2="586.00" y2="327" stroke="#94a3b8" stroke-opacity="0.5" stroke-width="1" />
<text x="586.00" y="341" fill="#cbd5f5" font-size="10" text-anchor="middle">12-08</text>
<line x1="758.00" y1="323" x2="758.00" y2="327" stroke="#94a3b8" stroke-opacity="0.5" stroke-width="1" />
<text x="758.00" y="341" fill="#cbd5f5" font-size="10" text-anchor="middle">12-14</text>
<line x1="930.00" y1="323" x2="930.00" y2="327" stroke="#94a3b8" stroke-opacity="0.5" stroke-width="1" />
<text x="930.00" y="341" fill="#cbd5f5" font-size="10" text-anchor="middle">12-20</text>
<line x1="70" y1="74" x2="70" y2="323" stroke="#94a3b8" stroke-width="1" />
<line x1="70" y1="323" x2="930" y2="323" stroke="#94a3b8" stroke-width="1" />
<path d="M70.00,229.05 L223.57,229.52 L254.29,217.26 L285.00,239.15 L315.71,242.23 L346.43,219.70 L377.14,226.93 L407.86,237.50 L469.29,235.66 L561.43,234.62 L653.57,227.03 L684.29,235.77 L715.00,221.98 L745.71,154.77 L776.43,165.79 L807.14,207.97 L868.57,236.34 L899.29,232.14 L930.00,220.08" fill="none" stroke="#60a5fa" stroke-width="2.2" stroke-linecap="round" />
<circle cx="70.00" cy="229.05" r="3" fill="#60a5fa" stroke="#0f172a" stroke-width="1" />
<text x="70.00" y="219.05" fill="#e2e8f0" font-size="9" text-anchor="middle">0.25</text>
<circle cx="223.57" cy="229.52" r="3" fill="#60a5fa" stroke="#0f172a" stroke-width="1" />
<text x="223.57" y="209.52" fill="#e2e8f0" font-size="9" text-anchor="middle">0.25</text>
<circle cx="254.29" cy="217.26" r="3" fill="#60a5fa" stroke="#0f172a" stroke-width="1" />
<text x="254.29" y="207.26" fill="#e2e8f0" font-size="9" text-anchor="middle">0.28</text>
<circle cx="285.00" cy="239.15" r="3" fill="#60a5fa" stroke="#0f172a" stroke-width="1" />
<text x="285.00" y="219.15" fill="#e2e8f0" font-size="9" text-anchor="middle">0.23</text>
<circle cx="315.71" cy="242.23" r="3" fill="#60a5fa" stroke="#0f172a" stroke-width="1" />
<text x="315.71" y="232.23" fill="#e2e8f0" font-size="9" text-anchor="middle">0.22</text>
<circle cx="346.43" cy="219.70" r="3" fill="#60a5fa" stroke="#0f172a" stroke-width="1" />
<text x="346.43" y="199.70" fill="#e2e8f0" font-size="9" text-anchor="middle">0.28</text>
<circle cx="377.14" cy="226.93" r="3" fill="#60a5fa" stroke="#0f172a" stroke-width="1" />
<text x="377.14" y="216.93" fill="#e2e8f0" font-size="9" text-anchor="middle">0.26</text>
<circle cx="407.86" cy="237.50" r="3" fill="#60a5fa" stroke="#0f172a" stroke-width="1" />
<text x="407.86" y="217.50" fill="#e2e8f0" font-size="9" text-anchor="middle">0.23</text>
<circle cx="469.29" cy="235.66" r="3" fill="#60a5fa" stroke="#0f172a" stroke-width="1" />
<text x="469.29" y="225.66" fill="#e2e8f0" font-size="9" text-anchor="middle">0.24</text>
<circle cx="561.43" cy="234.62" r="3" fill="#60a5fa" stroke="#0f172a" stroke-width="1" />
<text x="561.43" y="214.62" fill="#e2e8f0" font-size="9" text-anchor="middle">0.24</text>
<circle cx="653.57" cy="227.03" r="3" fill="#60a5fa" stroke="#0f172a" stroke-width="1" />
<text x="653.57" y="217.03" fill="#e2e8f0" font-size="9" text-anchor="middle">0.26</text>
<circle cx="684.29" cy="235.77" r="3" fill="#60a5fa" stroke="#0f172a" stroke-width="1" />
<text x="684.29" y="215.77" fill="#e2e8f0" font-size="9" text-anchor="middle">0.24</text>
<circle cx="715.00" cy="221.98" r="3" fill="#60a5fa" stroke="#0f172a" stroke-width="1" />
<text x="715.00" y="211.98" fill="#e2e8f0" font-size="9" text-anchor="middle">0.27</text>
<circle cx="745.71" cy="154.77" r="3" fill="#60a5fa" stroke="#0f172a" stroke-width="1" />
<text x="745.71" y="134.77" fill="#e2e8f0" font-size="9" text-anchor="middle">0.44</text>
<circle cx="776.43" cy="165.79" r="3" fill="#60a5fa" stroke="#0f172a" stroke-width="1" />
<text x="776.43" y="155.79" fill="#e2e8f0" font-size="9" text-anchor="middle">0.41</text>
<circle cx="807.14" cy="207.97" r="3" fill="#60a5fa" stroke="#0f172a" stroke-width="1" />
<text x="807.14" y="187.97" fill="#e2e8f0" font-size="9" text-anchor="middle">0.31</text>
<circle cx="868.57" cy="236.34" r="3" fill="#60a5fa" stroke="#0f172a" stroke-width="1" />
<text x="868.57" y="226.34" fill="#e2e8f0" font-size="9" text-anchor="middle">0.23</text>
<circle cx="899.29" cy="232.14" r="3" fill="#60a5fa" stroke="#0f172a" stroke-width="1" />
<text x="899.29" y="212.14" fill="#e2e8f0" font-size="9" text-anchor="middle">0.25</text>
<circle cx="930.00" cy="220.08" r="3" fill="#60a5fa" stroke="#0f172a" stroke-width="1" />
<text x="930.00" y="210.08" fill="#e2e8f0" font-size="9" text-anchor="middle">0.28</text>
<text x="70" y="403" fill="#e2e8f0" font-size="13" font-weight="600">本年核心指标趋势（滑动7日窗口平均）</text>
<line x1="70" y1="656.00" x2="930" y2="656.00" stroke="#94a3b8" stroke-opacity="0.18" stroke-width="1" />
<text x="62" y="660.00" fill="#cbd5f5" font-size="10" text-anchor="end">0.03</text>
<line x1="70" y1="593.75" x2="930" y2="593.75" stroke="#94a3b8" stroke-opacity="0.18" stroke-width="1" />
<text x="62" y="597.75" fill="#cbd5f5" font-size="10" text-anchor="end">0.15</text>
<line x1="70" y1="531.50" x2="930" y2="531.50" stroke="#94a3b8" stroke-opacity="0.18" stroke-width="1" />
<text x="62" y="535.50" fill="#cbd5f5" font-size="10" text-anchor="end">0.28</text>
<line x1="70" y1="469.25" x2="930" y2="469.25" stroke="#94a3b8" stroke-opacity="0.18" stroke-width="1" />
<text x="62" y="473.25" fill="#cbd5f5" font-size="10" text-anchor="end">0.41</text>
<line x1="70" y1="407.00" x2="930" y2="407.00" stroke="#94a3b8" stroke-opacity="0.18" stroke-width="1" />
<text x="62" y="411.00" fill="#cbd5f5" font-size="10" text-anchor="end">0.53</text>
<line x1="70.00" y1="656" x2="70.00" y2="660" stroke="#94a3b8" stroke-opacity="0.5" stroke-width="1" />
<text x="70.00" y="674" fill="#cbd5f5" font-size="10" text-anchor="middle">2025-01</text>
<line x1="242.00" y1="656" x2="242.00" y2="660" stroke="#94a3b8" stroke-opacity="0.5" stroke-width="1" />
<text x="242.00" y="674" fill="#cbd5f5" font-size="10" text-anchor="middle">2025-03</text>
<line x1="414.00" y1="656" x2="414.00" y2="660" stroke="#94a3b8" stroke-opacity="0.5" stroke-width="1" />
<text x="414.00" y="674" fill="#cbd5f5" font-size="10" text-anchor="middle">2025-06</text>
<line x1="586.00" y1="656" x2="586.00" y2="660" stroke="#94a3b8" stroke-opacity="0.5" stroke-width="1" />
<text x="586.00" y="674" fill="#cbd5f5" font-size="10" text-anchor="middle">2025-08</text>
<line x1="758.00" y1="656" x2="758.00" y2="660" stroke="#94a3b8" stroke-opacity="0.5" stroke-width="1" />
<text x="758.00" y="674" fill="#cbd5f5" font-size="10" text-anchor="middle">2025-10</text>
<line x1="930.00" y1="656" x2="930.00" y2="660" stroke="#94a3b8" stroke-opacity="0.5" stroke-width="1" />
<text x="930.00" y="674" fill="#cbd5f5" font-size="10" text-anchor="middle">2025-12</text>
<line x1="70" y1="407" x2="70" y2="656" stroke="#94a3b8" stroke-width="1" />
<line x1="70" y1="656" x2="930" y2="656" stroke="#94a3b8" stroke-width="1" />
<path d="M70.00,656.00 L70.00,552.93 L72.61,556.73 L75.21,539.34 L80.42,535.55 L83.03,529.17 L88.24,521.63 L96.06,520.77 L98.67,518.31 L101.27,513.67 L103.88,518.07 L106.48,522.01 L109.09,517.08 L111.70,519.80 L114.30,521.86 L124.73,521.18 L127.33,525.49 L129.94,512.24 L132.55,509.31 L137.76,520.12 L140.36,526.01 L142.97,528.78 L145.58,530.97 L153.39,529.22 L156.00,543.83 L163.82,540.21 L166.42,540.57 L171.64,539.82 L174.24,535.43 L176.85,534.86 L179.45,537.16 L182.06,535.96 L184.67,525.49 L187.27,526.88 L189.88,526.66 L192.48,529.92 L197.70,522.81 L202.91,523.99 L205.52,522.83 L210.73,536.47 L213.33,532.93 L215.94,537.14 L218.55,533.06 L221.15,540.41 L223.76,540.09 L226.36,539.92 L228.97,541.66 L231.58,541.38 L234.18,540.56 L236.79,543.73 L239.39,540.26 L242.00,534.68 L244.61,535.29 L247.21,535.74 L249.82,532.30 L252.42,529.00 L255.03,527.99 L257.64,525.43 L262.85,527.12 L265.45,527.87 L268.06,527.79 L270.67,532.03 L273.27,532.77 L275.88,537.45 L278.48,542.42 L281.09,541.99 L283.70,542.12 L286.30,540.08 L288.91,542.81 L291.52,543.98 L294.12,539.44 L296.73,538.45 L299.33,538.54 L301.94,540.09 L304.55,540.96 L307.15,537.04 L309.76,537.46 L317.58,533.13 L325.39,536.45 L328.00,534.68 L330.61,532.18 L333.21,532.80 L335.82,535.37 L341.03,532.23 L346.24,532.43 L348.85,530.60 L356.67,529.78 L359.27,527.08 L361.88,527.05 L364.48,530.42 L367.09,533.83 L369.70,537.27 L372.30,539.23 L374.91,542.22 L377.52,546.41 L382.73,545.32 L387.94,539.72 L390.55,535.98 L393.15,536.73 L395.76,536.20 L398.36,534.11 L400.97,535.81 L403.58,536.50 L408.79,528.54 L419.21,534.19 L421.82,537.58 L424.42,527.50 L427.03,516.57 L429.64,513.92 L432.24,514.32 L434.85,515.01 L437.45,510.83 L440.06,507.26 L447.88,514.51 L450.48,527.49 L453.09,530.09 L455.70,532.35 L458.30,542.42 L463.52,544.39 L466.12,546.86 L468.73,548.29 L471.33,548.00 L476.55,548.10 L481.76,546.50 L492.18,546.65 L494.79,543.44 L502.61,544.02 L505.21,545.18 L510.42,535.76 L513.03,525.41 L515.64,526.46 L518.24,525.78 L520.85,517.23 L523.45,517.08 L526.06,516.50 L528.67,526.86 L531.27,531.53 L533.88,530.04 L536.48,531.66 L539.09,532.60 L544.30,515.07 L546.91,514.62 L552.12,512.43 L554.73,506.27 L557.33,509.75 L565.15,506.91 L567.76,511.99 L570.36,529.91 L586.00,531.02 L588.61,535.36 L593.82,548.65 L596.42,541.84 L601.64,534.90 L604.24,540.74 L606.85,532.97 L612.06,518.46 L619.88,514.91 L651.15,514.10 L653.76,517.49 L656.36,528.29 L658.97,528.90 L661.58,536.17 L669.39,550.38 L674.61,551.56 L682.42,551.65 L690.24,554.22 L692.85,551.68 L700.67,548.55 L703.27,543.95 L705.88,521.61 L711.09,524.81 L716.30,526.06 L718.91,524.67 L721.52,521.49 L726.73,522.59 L729.33,527.13 L734.55,546.83 L739.76,537.57 L742.36,534.43 L747.58,534.54 L750.18,533.00 L752.79,532.71 L755.39,519.88 L765.82,525.69 L768.42,533.75 L771.03,534.71 L773.64,533.59 L776.24,540.40 L781.45,542.17 L786.67,541.45 L791.88,540.09 L794.48,540.64 L797.09,539.44 L802.30,533.16 L804.91,523.69 L810.12,525.36 L817.94,539.05 L823.15,534.67 L830.97,532.91 L833.58,534.22 L838.79,542.73 L844.00,549.13 L849.21,542.30 L851.82,542.65 L857.03,544.96 L870.06,544.37 L872.67,541.12 L875.27,541.11 L877.88,544.17 L880.48,546.21 L883.09,545.00 L885.70,546.48 L890.91,547.56 L898.73,550.61 L906.55,548.48 L909.15,547.35 L911.76,547.75 L914.36,535.08 L916.97,522.49 L919.58,517.62 L924.79,517.93 L927.39,518.82 L930.00,516.07 L930.00,656.00 Z" fill="#60a5fa" fill-opacity="0.16" stroke="none" />
<path d="M70.00,552.93 L72.61,556.73 L75.21,539.34 L80.42,535.55 L83.03,529.17 L88.24,521.63 L96.06,520.77 L98.67,518.31 L101.27,513.67 L103.88,518.07 L106.48,522.01 L109.09,517.08 L111.70,519.80 L114.30,521.86 L124.73,521.18 L127.33,525.49 L129.94,512.24 L132.55,509.31 L137.76,520.12 L140.36,526.01 L142.97,528.78 L145.58,530.97 L153.39,529.22 L156.00,543.83 L163.82,540.21 L166.42,540.57 L171.64,539.82 L174.24,535.43 L176.85,534.86 L179.45,537.16 L182.06,535.96 L184.67,525.49 L187.27,526.88 L189.88,526.66 L192.48,529.92 L197.70,522.81 L202.91,523.99 L205.52,522.83 L210.73,536.47 L213.33,532.93 L215.94,537.14 L218.55,533.06 L221.15,540.41 L223.76,540.09 L226.36,539.92 L228.97,541.66 L231.58,541.38 L234.18,540.56 L236.79,543.73 L239.39,540.26 L242.00,534.68 L244.61,535.29 L247.21,535.74 L249.82,532.30 L252.42,529.00 L255.03,527.99 L257.64,525.43 L262.85,527.12 L265.45,527.87 L268.06,527.79 L270.67,532.03 L273.27,532.77 L275.88,537.45 L278.48,542.42 L281.09,541.99 L283.70,542.12 L286.30,540.08 L288.91,542.81 L291.52,543.98 L294.12,539.44 L296.73,538.45 L299.33,538.54 L301.94,540.09 L304.55,540.96 L307.15,537.04 L309.76,537.46 L317.58,533.13 L325.39,536.45 L328.00,534.68 L330.61,532.18 L333.21,532.80 L335.82,535.37 L341.03,532.23 L346.24,532.43 L348.85,530.60 L356.67,529.78 L359.27,527.08 L361.88,527.05 L364.48,530.42 L367.09,533.83 L369.70,537.27 L372.30,539.23 L374.91,542.22 L377.52,546.41 L382.73,545.32 L387.94,539.72 L390.55,535.98 L393.15,536.73 L395.76,536.20 L398.36,534.11 L400.97,535.81 L403.58,536.50 L408.79,528.54 L419.21,534.19 L421.82,537.58 L424.42,527.50 L427.03,516.57 L429.64,513.92 L432.24,514.32 L434.85,515.01 L437.45,510.83 L440.06,507.26 L447.88,514.51 L450.48,527.49 L453.09,530.09 L455.70,532.35 L458.30,542.42 L463.52,544.39 L466.12,546.86 L468.73,548.29 L471.33,548.00 L476.55,548.10 L481.76,546.50 L492.18,546.65 L494.79,543.44 L502.61,544.02 L505.21,545.18 L510.42,535.76 L513.03,525.41 L515.64,526.46 L518.24,525.78 L520.85,517.23 L523.45,517.08 L526.06,516.50 L528.67,526.86 L531.27,531.53 L533.88,530.04 L536.48,531.66 L539.09,532.60 L544.30,515.07 L546.91,514.62 L552.12,512.43 L554.73,506.27 L557.33,509.75 L565.15,506.91 L567.76,511.99 L570.36,529.91 L586.00,531.02 L588.61,535.36 L593.82,548.65 L596.42,541.84 L601.64,534.90 L604.24,540.74 L606.85,532.97 L612.06,518.46 L619.88,514.91 L651.15,514.10 L653.76,517.49 L656.36,528.29 L658.97,528.90 L661.58,536.17 L669.39,550.38 L674.61,551.56 L682.42,551.65 L690.24,554.22 L692.85,551.68 L700.67,548.55 L703.27,543.95 L705.88,521.61 L711.09,524.81 L716.30,526.06 L718.91,524.67 L721.52,521.49 L726.73,522.59 L729.33,527.13 L734.55,546.83 L739.76,537.57 L742.36,534.43 L747.58,534.54 L750.18,533.00 L752.79,532.71 L755.39,519.88 L765.82,525.69 L768.42,533.75 L771.03,534.71 L773.64,533.59 L776.24,540.40 L781.45,542.17 L786.67,541.45 L791.88,540.09 L794.48,540.64 L797.09,539.44 L802.30,533.16 L804.91,523.69 L810.12,525.36 L817.94,539.05 L823.15,534.67 L830.97,532.91 L833.58,534.22 L838.79,542.73 L844.00,549.13 L849.21,542.30 L851.82,542.65 L857.03,544.96 L870.06,544.37 L872.67,541.12 L875.27,541.11 L877.88,544.17 L880.48,546.21 L883.09,545.00 L885.70,546.48 L890.91,547.56 L898.73,550.61 L906.55,548.48 L909.15,547.35 L911.76,547.75 L914.36,535.08 L916.97,522.49 L919.58,517.62 L924.79,517.93 L927.39,518.82 L930.00,516.07" fill="none" stroke="#60a5fa" stroke-width="2.2" stroke-linecap="round" />
</svg>
