<svg xmlns="http://www.w3.org/2000/svg" viewBox="0 0 960 720" width="960" height="720">
<rect width="960" height="720" fill="#0f172a" />
<text x="480" y="28" fill="#e2e8f0" font-size="16" font-weight="700" text-anchor="middle">上楼速度均值趋势图</text>
<text x="70" y="70" fill="#e2e8f0" font-size="13" font-weight="600">本月分天指标明细</text>
<line x1="70" y1="323.00" x2="930" y2="323.00" stroke="#94a3b8" stroke-opacity="0.18" stroke-width="1" />
<text x="62" y="327.00" fill="#cbd5f5" font-size="10" text-anchor="end">0.02</text>
<line x1="70" y1="260.75" x2="930" y2="260.75" stroke="#94a3b8" stroke-opacity="0.18" stroke-width="1" />
<text x="62" y="264.75" fill="#cbd5f5" font-size="10" text-anchor="end">0.17</text>
<line x1="70" y1="198.50" x2="930" y2="198.50" stroke="#94a3b8" stroke-opacity="0.18" stroke-width="1" />
<text x="62" y="202.50" fill="#cbd5f5" font-size="10" text-anchor="end">0.33</text>
<line x1="70" y1="136.25" x2="930" y2="136.25" stroke="#94a3b8" stroke-opacity="0.18" stroke-width="1" />
<text x="62" y="140.25" fill="#cbd5f5" font-size="10" text-anchor="end">0.48</text>
<line x1="70" y1="74.00" x2="930" y2="74.00" stroke="#94a3b8" stroke-opacity="0.18" stroke-width="1" />
<text x="62" y="78.00" fill="#cbd5f5" font-size="10" text-anchor="end">0.64</text>
<line x1="70.00" y1="323" x2="70.00" y2="327" stroke="#94a3b8" stroke-opacity="0.5" stroke-width="1" />
<text x="70.00" y="341" fill="#cbd5f5" font-size="10" text-anchor="middle">11-19</text>
<line x1="242.00" y1="323" x2="242.00" y2="327" stroke="#94a3b8" stroke-opacity="0.5" stroke-width="1" />
<text x="242.00" y="341" fill="#cbd5f5" font-size="10" text-anchor="middle">11-24</text>
<line x1="414.00" y1="323" x2="414.00" y2="327" stroke="#94a3b8" stroke-opacity="0.5" stroke-width="1" />
<text x="414.00" y="341" fill="#cbd5f5" font-size="10" text-anchor="middle">11-30</text>
<line x1="586.00" y1="323" x2="586.00" y2="327" stroke="#94a3b8" stroke-opacity="0.5" stroke-width="1" />
<text x="586.00" y="341" fill="#cbd5f5" font-size="10" text-anchor="middle">12-06</text>
<line x1="758.00" y1="323" x2="758.00" y2="327" stroke="#94a3b8" stroke-opacity="0.5" stroke-width="1" />
<text x="758.00" y="341" fill="#cbd5f5" font-size="10" text-anchor="middle">12-12</text>
<line x1="930.00" y1="323" x2="930.00" y2="327" stroke="#94a3b8" stroke-opacity="0.5" stroke-width="1" />
<text x="930.00" y="341" fill="#cbd5f5" font-size="10" text-anchor="middle">12-18</text>
<line x1="70" y1="74" x2="70" y2="323" stroke="#94a3b8" stroke-width="1" />
<line x1="70" y1="323" x2="930" y2="323" stroke="#94a3b8" stroke-width="1" />
<path d="M70.00,208.04 L99.66,233.85 L158.97,229.05 L307.24,229.52 L336.90,217.26 L366.55,239.15 L396.21,242.23 L425.86,219.70 L455.52,226.93 L485.17,237.50 L544.48,235.66 L633.45,234.62 L722.41,227.03 L752.07,235.77 L781.72,221.98 L811.38,154.77 L841.03,165.79 L870.69,207.97 L930.00,236.34" fill="none" stroke="#60a5fa" stroke-width="2.2" stroke-linecap="round" />
<circle cx="70.00" cy="208.04" r="3" fill="#60a5fa" stroke="#0f172a" stroke-width="1" />
<text x="70.00" y="198.04" fill="#e2e8f0" font-size="9" text-anchor="middle">0.3</text>
<circle cx="99.66" cy="233.85" r="3" fill="#60a5fa" stroke="#0f172a" stroke-width="1" />
<text x="99.66" y="213.85" fill="#e2e8f0" font-size="9" text-anchor="middle">0.24</text>
<circle cx="158.97" cy="229.05" r="3" fill="#60a5fa" stroke="#0f172a" stroke-width="1" />
<text x="158.97" y="219.05" fill="#e2e8f0" font-size="9" text-anchor="middle">0.25</text>
<circle cx="307.24" cy="229.52" r="3" fill="#60a5fa" stroke="#0f172a" stroke-width="1" />
<text x="307.24" y="209.52" fill="#e2e8f0" font-size="9" text-anchor="middle">0.25</text>
<circle cx="336.90" cy="217.26" r="3" fill="#60a5fa" stroke="#0f172a" stroke-width="1" />
<text x="336.90" y="207.26" fill="#e2e8f0" font-size="9" text-anchor="middle">0.28</text>
<circle cx="366.55" cy="239.15" r="3" fill="#60a5fa" stroke="#0f172a" stroke-width="1" />
<text x="366.55" y="219.15" fill="#e2e8f0" font-size="9" text-anchor="middle">0.23</text>
<circle cx="396.21" cy="242.23" r="3" fill="#60a5fa" stroke="#0f172a" stroke-width="1" />
<text x="396.21" y="232.23" fill="#e2e8f0" font-size="9" text-anchor="middle">0.22</text>
<circle cx="425.86" cy="219.70" r="3" fill="#60a5fa" stroke="#0f172a" stroke-width="1" />
<text x="425.86" y="199.70" fill="#e2e8f0" font-size="9" text-anchor="middle">0.28</text>
<circle cx="455.52" cy="226.93" r="3" fill="#60a5fa" stroke="#0f172a" stroke-width="1" />
<text x="455.52" y="216.93" fill="#e2e8f0" font-size="9" text-anchor="middle">0.26</text>
<circle cx="485.17" cy="237.50" r="3" fill="#60a5fa" stroke="#0f172a" stroke-width="1" />
<text x="485.17" y="217.50" fill="#e2e8f0" font-size="9" text-anchor="middle">0.23</text>
<circle cx="544.48" cy="235.66" r="3" fill="#60a5fa" stroke="#0f172a" stroke-width="1" />
<text x="544.48" y="225.66" fill="#e2e8f0" font-size="9" text-anchor="middle">0.24</text>
<circle cx="633.45" cy="234.62" r="3" fill="#60a5fa" stroke="#0f172a" stroke-width="1" />
<text x="633.45" y="214.62" fill="#e2e8f0" font-size="9" text-anchor="middle">0.24</text>
<circle cx="722.41" cy="227.03" r="3" fill="#60a5fa" stroke="#0f172a" stroke-width="1" />
<text x="722.41" y="217.03" fill="#e2e8f0" font-size="9" text-anchor="middle">0.26</text>
<circle cx="752.07" cy="235.77" r="3" fill="#60a5fa" stroke="#0f172a" stroke-width="1" />
<text x="752.07" y="215.77" fill="#e2e8f0" font-size="9" text-anchor="middle">0.24</text>
<circle cx="781.72" cy="221.98" r="3" fill="#60a5fa" stroke="#0f172a" stroke-width="1" />
<text x="781.72" y="211.98" fill="#e2e8f0" font-size="9" text-anchor="middle">0.27</text>
<circle cx="811.38" cy="154.77" r="3" fill="#60a5fa" stroke="#0f172a" stroke-width="1" />
<text x="811.38" y="134.77" fill="#e2e8f0" font-size="9" text-anchor="middle">0.44</text>
<circle cx="841.03" cy="165.79" r="3" fill="#60a5fa" stroke="#0f172a" stroke-width="1" />
<text x="841.03" y="155.79" fill="#e2e8f0" font-size="9" text-anchor="middle">0.41</text>
<circle cx="870.69" cy="207.97" r="3" fill="#60a5fa" stroke="#0f172a" stroke-width="1" />
<text x="870.69" y="187.97" fill="#e2e8f0" font-size="9" text-anchor="middle">0.31</text>
<circle cx="930.00" cy="236.34" r="3" fill="#60a5fa" stroke="#0f172a" stroke-width="1" />
<text x="930.00" y="226.34" fill="#e2e8f0" font-size="9" text-anchor="middle">0.23</text>
<text x="70" y="403" fill="#e2e8f0" font-size="13" font-weight="600">本年核心指标趋势（滑动7日窗口平均）</text>
<line x1="70" y1="656.00" x2="930" y2="656.00" stroke="#94a3b8" stroke-opacity="0.18" stroke-width="1" />
<text x="62" y="660.00" fill="#cbd5f5" font-size="10" text-anchor="end">0.03</text>
<line x1="70" y1="593.75" x2="930" y2="593.75" stroke="#94a3b8" stroke-opacity="0.18" stroke-width="1" />
<text x="62" y="597.75" fill="#cbd5f5" font-size="10" text-anchor="end">0.15</text>
<line x1="70" y1="531.50" x2="930" y2="531.50" stroke="#94a3b8" stroke-opacity="0.18" stroke-width="1" />
<text x="62" y="535.50" fill="#cbd5f5" font-size="10" text-anchor="end">0.28</text>
<line x1="70" y1="469.25" x2="930" y2="469.25" stroke="#94a3b8" stroke-opacity="0.18" stroke-width="1" />
<text x="62" y="473.25" fill="#cbd5f5" font-size="10" text-anchor="end">0.41</text>
<line x1="70" y1="407.00" x2="930" y2="407.00" stroke="#94a3b8" stroke-opacity="0.18" stroke-width="1" />
<text x="62" y="411.00" fill="#cbd5f5" font-size="10" text-anchor="end">0.53</text>
<line x1="70.00" y1="656" x2="70.00" y2="660" stroke="#94a3b8" stroke-opacity="0.5" stroke-width="1" />
<text x="70.00" y="674" fill="#cbd5f5" font-size="10" text-anchor="middle">2025-01</text>
<line x1="242.00" y1="656" x2="242.00" y2="660" stroke="#94a3b8" stroke-opacity="0.5" stroke-width="1" />
<text x="242.00" y="674" fill="#cbd5f5" font-size="10" text-anchor="middle">2025-03</text>
<line x1="414.00" y1="656" x2="414.00" y2="660" stroke="#94a3b8" stroke-opacity="0.5" stroke-width="1" />
<text x="414.00" y="674" fill="#cbd5f5" font-size="10" text-anchor="middle">2025-06</text>
<line x1="586.00" y1="656" x2="586.00" y2="660" stroke="#94a3b8" stroke-opacity="0.5" stroke-width="1" />
<text x="586.00" y="674" fill="#cbd5f5" font-size="10" text-anchor="middle">2025-08</text>
<line x1="758.00" y1="656" x2="758.00" y2="660" stroke="#94a3b8" stroke-opacity="0.5" stroke-width="1" />
<text x="758.00" y="674" fill="#cbd5f5" font-size="10" text-anchor="middle">2025-10</text>
<line x1="930.00" y1="656" x2="930.00" y2="660" stroke="#94a3b8" stroke-opacity="0.5" stroke-width="1" />
<text x="930.00" y="674" fill="#cbd5f5" font-size="10" text-anchor="middle">2025-12</text>
<line x1="70" y1="407" x2="70" y2="656" stroke="#94a3b8" stroke-width="1" />
<line x1="70" y1="656" x2="930" y2="656" stroke="#94a3b8" stroke-width="1" />
<path d="M70.00,656.00 L70.00,552.93 L72.62,556.73 L75.24,539.34 L80.49,535.55 L83.11,529.17 L88.35,521.63 L96.22,520.77 L98.84,518.31 L101.46,513.67 L104.09,518.07 L106.71,522.01 L109.33,517.08 L111.95,519.80 L114.57,521.86 L125.06,521.18 L127.68,525.49 L130.30,512.24 L132.93,509.31 L138.17,520.12 L140.79,526.01 L143.41,528.78 L146.04,530.97 L153.90,529.22 L156.52,543.83 L164.39,540.21 L167.01,540.57 L172.26,539.82 L174.88,535.43 L177.50,534.86 L180.12,537.16 L182.74,535.96 L185.37,525.49 L187.99,526.88 L190.61,526.66 L193.23,529.92 L198.48,522.81 L203.72,523.99 L206.34,522.83 L211.59,536.47 L214.21,532.93 L216.83,537.14 L219.45,533.06 L222.07,540.41 L224.70,540.09 L227.32,539.92 L229.94,541.66 L232.56,541.38 L235.18,540.56 L237.80,543.73 L240.43,540.26 L243.05,534.68 L245.67,535.29 L248.29,535.74 L250.91,532.30 L253.54,529.00 L256.16,527.99 L258.78,525.43 L264.02,527.12 L266.65,527.87 L269.27,527.79 L271.89,532.03 L274.51,532.77 L277.13,537.45 L279.76,542.42 L282.38,541.99 L285.00,542.12 L287.62,540.08 L290.24,542.81 L292.87,543.98 L295.49,539.44 L298.11,538.45 L300.73,538.54 L303.35,540.09 L305.98,540.96 L308.60,537.04 L311.22,537.46 L319.09,533.13 L326.95,536.45 L329.57,534.68 L332.20,532.18 L334.82,532.80 L337.44,535.37 L342.68,532.23 L347.93,532.43 L350.55,530.60 L358.41,529.78 L361.04,527.08 L363.66,527.05 L366.28,530.42 L368.90,533.83 L371.52,537.27 L374.15,539.23 L376.77,542.22 L379.39,546.41 L384.63,545.32 L389.88,539.72 L392.50,535.98 L395.12,536.73 L397.74,536.20 L400.37,534.11 L402.99,535.81 L405.61,536.50 L410.85,528.54 L421.34,534.19 L423.96,537.58 L426.59,527.50 L429.21,516.57 L431.83,513.92 L434.45,514.32 L437.07,515.01 L439.70,510.83 L442.32,507.26 L450.18,514.51 L452.80,527.49 L455.43,530.09 L458.05,532.35 L460.67,542.42 L465.91,544.39 L468.54,546.86 L471.16,548.29 L473.78,548.00 L479.02,548.10 L484.27,546.50 L494.76,546.65 L497.38,543.44 L505.24,544.02 L507.87,545.18 L513.11,535.76 L515.73,525.41 L518.35,526.46 L520.98,525.78 L523.60,517.23 L526.22,517.08 L528.84,516.50 L531.46,526.86 L534.09,531.53 L536.71,530.04 L539.33,531.66 L541.95,532.60 L547.20,515.07 L549.82,514.62 L555.06,512.43 L557.68,506.27 L560.30,509.75 L568.17,506.91 L570.79,511.99 L573.41,529.91 L589.15,531.02 L591.77,535.36 L597.01,548.65 L599.63,541.84 L604.88,534.90 L607.50,540.74 L610.12,532.97 L615.37,518.46 L623.23,514.91 L654.70,514.10 L657.32,517.49 L659.94,528.29 L662.56,528.90 L665.18,536.17 L673.05,550.38 L678.29,551.56 L686.16,551.65 L694.02,554.22 L696.65,551.68 L704.51,548.55 L707.13,543.95 L709.76,521.61 L715.00,524.81 L720.24,526.06 L722.87,524.67 L725.49,521.49 L730.73,522.59 L733.35,527.13 L738.60,546.83 L743.84,537.57 L746.46,534.43 L751.71,534.54 L754.33,533.00 L756.95,532.71 L759.57,519.88 L770.06,525.69 L772.68,533.75 L775.30,534.71 L777.93,533.59 L780.55,540.40 L785.79,542.17 L791.04,541.45 L796.28,540.09 L798.90,540.64 L801.52,539.44 L806.77,533.16 L809.39,523.69 L814.63,525.36 L822.50,539.05 L827.74,534.67 L835.61,532.91 L838.23,534.22 L843.48,542.73 L848.72,549.13 L853.96,542.30 L856.59,542.65 L861.83,544.96 L874.94,544.37 L877.56,541.12 L880.18,541.11 L882.80,544.17 L885.43,546.21 L888.05,545.00 L890.67,546.48 L895.91,547.56 L903.78,550.61 L911.65,548.48 L914.27,547.35 L916.89,547.75 L919.51,535.08 L922.13,522.49 L924.76,517.62 L930.00,517.93 L930.00,656.00 Z" fill="#60a5fa" fill-opacity="0.16" stroke="none" />
<path d="M70.00,552.93 L72.62,556.73 L75.24,539.34 L80.49,535.55 L83.11,529.17 L88.35,521.63 L96.22,520.77 L98.84,518.31 L101.46,513.67 L104.09,518.07 L106.71,522.01 L109.33,517.08 L111.95,519.80 L114.57,521.86 L125.06,521.18 L127.68,525.49 L130.30,512.24 L132.93,509.31 L138.17,520.12 L140.79,526.01 L143.41,528.78 L146.04,530.97 L153.90,529.22 L156.52,543.83 L164.39,540.21 L167.01,540.57 L172.26,539.82 L174.88,535.43 L177.50,534.86 L180.12,537.16 L182.74,535.96 L185.37,525.49 L187.99,526.88 L190.61,526.66 L193.23,529.92 L198.48,522.81 L203.72,523.99 L206.34,522.83 L211.59,536.47 L214.21,532.93 L216.83,537.14 L219.45,533.06 L222.07,540.41 L224.70,540.09 L227.32,539.92 L229.94,541.66 L232.56,541.38 L235.18,540.56 L237.80,543.73 L240.43,540.26 L243.05,534.68 L245.67,535.29 L248.29,535.74 L250.91,532.30 L253.54,529.00 L256.16,527.99 L258.78,525.43 L264.02,527.12 L266.65,527.87 L269.27,527.79 L271.89,532.03 L274.51,532.77 L277.13,537.45 L279.76,542.42 L282.38,541.99 L285.00,542.12 L287.62,540.08 L290.24,542.81 L292.87,543.98 L295.49,539.44 L298.11,538.45 L300.73,538.54 L303.35,540.09 L305.98,540.96 L308.60,537.04 L311.22,537.46 L319.09,533.13 L326.95,536.45 L329.57,534.68 L332.20,532.18 L334.82,532.80 L337.44,535.37 L342.68,532.23 L347.93,532.43 L350.55,530.60 L358.41,529.78 L361.04,527.08 L363.66,527.05 L366.28,530.42 L368.90,533.83 L371.52,537.27 L374.15,539.23 L376.77,542.22 L379.39,546.41 L384.63,545.32 L389.88,539.72 L392.50,535.98 L395.12,536.73 L397.74,536.20 L400.37,534.11 L402.99,535.81 L405.61,536.50 L410.85,528.54 L421.34,534.19 L423.96,537.58 L426.59,527.50 L429.21,516.57 L431.83,513.92 L434.45,514.32 L437.07,515.01 L439.70,510.83 L442.32,507.26 L450.18,514.51 L452.80,527.49 L455.43,530.09 L458.05,532.35 L460.67,542.42 L465.91,544.39 L468.54,546.86 L471.16,548.29 L473.78,548.00 L479.02,548.10 L484.27,546.50 L494.76,546.65 L497.38,543.44 L505.24,544.02 L507.87,545.18 L513.11,535.76 L515.73,525.41 L518.35,526.46 L520.98,525.78 L523.60,517.23 L526.22,517.08 L528.84,516.50 L531.46,526.86 L534.09,531.53 L536.71,530.04 L539.33,531.66 L541.95,532.60 L547.20,515.07 L549.82,514.62 L555.06,512.43 L557.68,506.27 L560.30,509.75 L568.17,506.91 L570.79,511.99 L573.41,529.91 L589.15,531.02 L591.77,535.36 L597.01,548.65 L599.63,541.84 L604.88,534.90 L607.50,540.74 L610.12,532.97 L615.37,518.46 L623.23,514.91 L654.70,514.10 L657.32,517.49 L659.94,528.29 L662.56,528.90 L665.18,536.17 L673.05,550.38 L678.29,551.56 L686.16,551.65 L694.02,554.22 L696.65,551.68 L704.51,548.55 L707.13,543.95 L709.76,521.61 L715.00,524.81 L720.24,526.06 L722.87,524.67 L725.49,521.49 L730.73,522.59 L733.35,527.13 L738.60,546.83 L743.84,537.57 L746.46,534.43 L751.71,534.54 L754.33,533.00 L756.95,532.71 L759.57,519.88 L770.06,525.69 L772.68,533.75 L775.30,534.71 L777.93,533.59 L780.55,540.40 L785.79,542.17 L791.04,541.45 L796.28,540.09 L798.90,540.64 L801.52,539.44 L806.77,533.16 L809.39,523.69 L814.63,525.36 L822.50,539.05 L827.74,534.67 L835.61,532.91 L838.23,534.22 L843.48,542.73 L848.72,549.13 L853.96,542.30 L856.59,542.65 L861.83,544.96 L874.94,544.37 L877.56,541.12 L880.18,541.11 L882.80,544.17 L885.43,546.21 L888.05,545.00 L890.67,546.48 L895.91,547.56 L903.78,550.61 L911.65,548.48 L914.27,547.35 L916.89,547.75 L919.51,535.08 L922.13,522.49 L924.76,517.62 L930.00,517.93" fill="none" stroke="#60a5fa" stroke-width="2.2" stroke-linecap="round" />
</svg>
