<svg xmlns="http://www.w3.org/2000/svg" viewBox="0 0 960 720" width="960" height="720">
<rect width="960" height="720" fill="#0f172a" />
<text x="480" y="28" fill="#e2e8f0" font-size="16" font-weight="700" text-anchor="middle">下楼速度均值趋势图</text>
<text x="70" y="70" fill="#e2e8f0" font-size="13" font-weight="600">本月分天指标明细</text>
<line x1="70" y1="323.00" x2="930" y2="323.00" stroke="#94a3b8" stroke-opacity="0.18" stroke-width="1" />
<text x="62" y="327.00" fill="#cbd5f5" font-size="10" text-anchor="end">0.05</text>
<line x1="70" y1="260.75" x2="930" y2="260.75" stroke="#94a3b8" stroke-opacity="0.18" stroke-width="1" />
<text x="62" y="264.75" fill="#cbd5f5" font-size="10" text-anchor="end">0.2</text>
<line x1="70" y1="198.50" x2="930" y2="198.50" stroke="#94a3b8" stroke-opacity="0.18" stroke-width="1" />
<text x="62" y="202.50" fill="#cbd5f5" font-size="10" text-anchor="end">0.36</text>
<line x1="70" y1="136.25" x2="930" y2="136.25" stroke="#94a3b8" stroke-opacity="0.18" stroke-width="1" />
<text x="62" y="140.25" fill="#cbd5f5" font-size="10" text-anchor="end">0.52</text>
<line x1="70" y1="74.00" x2="930" y2="74.00" stroke="#94a3b8" stroke-opacity="0.18" stroke-width="1" />
<text x="62" y="78.00" fill="#cbd5f5" font-size="10" text-anchor="end">0.68</text>
<line x1="70.00" y1="323" x2="70.00" y2="327" stroke="#94a3b8" stroke-opacity="0.5" stroke-width="1" />
<text x="70.00" y="341" fill="#cbd5f5" font-size="10" text-anchor="middle">11-19</text>
<line x1="242.00" y1="323" x2="242.00" y2="327" stroke="#94a3b8" stroke-opacity="0.5" stroke-width="1" />
<text x="242.00" y="341" fill="#cbd5f5" font-size="10" text-anchor="middle">11-24</text>
<line x1="414.00" y1="323" x2="414.00" y2="327" stroke="#94a3b8" stroke-opacity="0.5" stroke-width="1" />
<text x="414.00" y="341" fill="#cbd5f5" font-size="10" text-anchor="middle">11-30</text>
<line x1="586.00" y1="323" x2="586.00" y2="327" stroke="#94a3b8" stroke-opacity="0.5" stroke-width="1" />
<text x="586.00" y="341" fill="#cbd5f5" font-size="10" text-anchor="middle">12-06</text>
<line x1="758.00" y1="323" x2="758.00" y2="327" stroke="#94a3b8" stroke-opacity="0.5" stroke-width="1" />
<text x="758.00" y="341" fill="#cbd5f5" font-size="10" text-anchor="middle">12-12</text>
<line x1="930.00" y1="323" x2="930.00" y2="327" stroke="#94a3b8" stroke-opacity="0.5" stroke-width="1" />
<text x="930.00" y="341" fill="#cbd5f5" font-size="10" text-anchor="middle">12-18</text>
<line x1="70" y1="74" x2="70" y2="323" stroke="#94a3b8" stroke-width="1" />
<line x1="70" y1="323" x2="930" y2="323" stroke="#94a3b8" stroke-width="1" />
<path d="M70.00,175.43 L99.66,244.68 L129.31,202.22 L158.97,191.25 L188.62,182.40 L218.28,243.96 L247.93,229.94 L277.59,205.03 L307.24,226.89 L336.90,200.12 L366.55,218.17 L396.21,208.86 L425.86,215.30 L455.52,236.00 L485.17,195.04 L514.83,230.26 L544.48,244.64 L574.14,174.41 L603.79,240.34 L633.45,238.68 L663.10,209.38 L692.76,225.05 L722.41,210.81 L752.07,213.70 L781.72,222.85 L811.38,219.65 L841.03,241.27 L870.69,242.89 L900.34,152.32 L930.00,189.52" fill="none" stroke="#34d399" stroke-width="2.2" stroke-linecap="round" />
<circle cx="70.00" cy="175.43" r="3" fill="#34d399" stroke="#0f172a" stroke-width="1" />
<text x="70.00" y="165.43" fill="#e2e8f0" font-size="9" text-anchor="middle">0.42</text>
<circle cx="99.66" cy="244.68" r="3" fill="#34d399" stroke="#0f172a" stroke-width="1" />
<text x="99.66" y="224.68" fill="#e2e8f0" font-size="9" text-anchor="middle">0.25</text>
<circle cx="129.31" cy="202.22" r="3" fill="#34d399" stroke="#0f172a" stroke-width="1" />
<text x="129.31" y="192.22" fill="#e2e8f0" font-size="9" text-anchor="middle">0.35</text>
<circle cx="158.97" cy="191.25" r="3" fill="#34d399" stroke="#0f172a" stroke-width="1" />
<text x="158.97" y="171.25" fill="#e2e8f0" font-size="9" text-anchor="middle">0.38</text>
<circle cx="188.62" cy="182.40" r="3" fill="#34d399" stroke="#0f172a" stroke-width="1" />
<text x="188.62" y="172.40" fill="#e2e8f0" font-size="9" text-anchor="middle">0.41</text>
<circle cx="218.28" cy="243.96" r="3" fill="#34d399" stroke="#0f172a" stroke-width="1" />
<text x="218.28" y="223.96" fill="#e2e8f0" font-size="9" text-anchor="middle">0.25</text>
<circle cx="247.93" cy="229.94" r="3" fill="#34d399" stroke="#0f172a" stroke-width="1" />
<text x="247.93" y="219.94" fill="#e2e8f0" font-size="9" text-anchor="middle">0.28</text>
<circle cx="277.59" cy="205.03" r="3" fill="#34d399" stroke="#0f172a" stroke-width="1" />
<text x="277.59" y="185.03" fill="#e2e8f0" font-size="9" text-anchor="middle">0.35</text>
<circle cx="307.24" cy="226.89" r="3" fill="#34d399" stroke="#0f172a" stroke-width="1" />
<text x="307.24" y="216.89" fill="#e2e8f0" font-size="9" text-anchor="middle">0.29</text>
<circle cx="336.90" cy="200.12" r="3" fill="#34d399" stroke="#0f172a" stroke-width="1" />
<text x="336.90" y="180.12" fill="#e2e8f0" font-size="9" text-anchor="middle">0.36</text>
<circle cx="366.55" cy="218.17" r="3" fill="#34d399" stroke="#0f172a" stroke-width="1" />
<text x="366.55" y="208.17" fill="#e2e8f0" font-size="9" text-anchor="middle">0.31</text>
<circle cx="396.21" cy="208.86" r="3" fill="#34d399" stroke="#0f172a" stroke-width="1" />
<text x="396.21" y="188.86" fill="#e2e8f0" font-size="9" text-anchor="middle">0.34</text>
<circle cx="425.86" cy="215.30" r="3" fill="#34d399" stroke="#0f172a" stroke-width="1" />
<text x="425.86" y="205.30" fill="#e2e8f0" font-size="9" text-anchor="middle">0.32</text>
<circle cx="455.52" cy="236.00" r="3" fill="#34d399" stroke="#0f172a" stroke-width="1" />
<text x="455.52" y="216.00" fill="#e2e8f0" font-size="9" text-anchor="middle">0.27</text>
<circle cx="485.17" cy="195.04" r="3" fill="#34d399" stroke="#0f172a" stroke-width="1" />
<text x="485.17" y="185.04" fill="#e2e8f0" font-size="9" text-anchor="middle">0.37</text>
<circle cx="514.83" cy="230.26" r="3" fill="#34d399" stroke="#0f172a" stroke-width="1" />
<text x="514.83" y="210.26" fill="#e2e8f0" font-size="9" text-anchor="middle">0.28</text>
<circle cx="544.48" cy="244.64" r="3" fill="#34d399" stroke="#0f172a" stroke-width="1" />
<text x="544.48" y="234.64" fill="#e2e8f0" font-size="9" text-anchor="middle">0.25</text>
<circle cx="574.14" cy="174.41" r="3" fill="#34d399" stroke="#0f172a" stroke-width="1" />
<text x="574.14" y="154.41" fill="#e2e8f0" font-size="9" text-anchor="middle">0.43</text>
<circle cx="603.79" cy="240.34" r="3" fill="#34d399" stroke="#0f172a" stroke-width="1" />
<text x="603.79" y="230.34" fill="#e2e8f0" font-size="9" text-anchor="middle">0.26</text>
<circle cx="633.45" cy="238.68" r="3" fill="#34d399" stroke="#0f172a" stroke-width="1" />
<text x="633.45" y="218.68" fill="#e2e8f0" font-size="9" text-anchor="middle">0.26</text>
<circle cx="663.10" cy="209.38" r="3" fill="#34d399" stroke="#0f172a" stroke-width="1" />
<text x="663.10" y="199.38" fill="#e2e8f0" font-size="9" text-anchor="middle">0.34</text>
<circle cx="692.76" cy="225.05" r="3" fill="#34d399" stroke="#0f172a" stroke-width="1" />
<text x="692.76" y="205.05" fill="#e2e8f0" font-size="9" text-anchor="middle">0.3</text>
<circle cx="722.41" cy="210.81" r="3" fill="#34d399" stroke="#0f172a" stroke-width="1" />
<text x="722.41" y="200.81" fill="#e2e8f0" font-size="9" text-anchor="middle">0.33</text>
<circle cx="752.07" cy="213.70" r="3" fill="#34d399" stroke="#0f172a" stroke-width="1" />
<text x="752.07" y="193.70" fill="#e2e8f0" font-size="9" text-anchor="middle">0.33</text>
<circle cx="781.72" cy="222.85" r="3" fill="#34d399" stroke="#0f172a" stroke-width="1" />
<text x="781.72" y="212.85" fill="#e2e8f0" font-size="9" text-anchor="middle">0.3</text>
<circle cx="811.38" cy="219.65" r="3" fill="#34d399" stroke="#0f172a" stroke-width="1" />
<text x="811.38" y="199.65" fill="#e2e8f0" font-size="9" text-anchor="middle">0.31</text>
<circle cx="841.03" cy="241.27" r="3" fill="#34d399" stroke="#0f172a" stroke-width="1" />
<text x="841.03" y="231.27" fill="#e2e8f0" font-size="9" text-anchor="middle">0.25</text>
<circle cx="870.69" cy="242.89" r="3" fill="#34d399" stroke="#0f172a" stroke-width="1" />
<text x="870.69" y="222.89" fill="#e2e8f0" font-size="9" text-anchor="middle">0.25</text>
<circle cx="900.34" cy="152.32" r="3" fill="#34d399" stroke="#0f172a" stroke-width="1" />
<text x="900.34" y="142.32" fill="#e2e8f0" font-size="9" text-anchor="middle">0.48</text>
<circle cx="930.00" cy="189.52" r="3" fill="#34d399" stroke="#0f172a" stroke-width="1" />
<text x="930.00" y="169.52" fill="#e2e8f0" font-size="9" text-anchor="middle">0.39</text>
<text x="70" y="403" fill="#e2e8f0" font-size="13" font-weight="600">本年核心指标趋势（滑动7日窗口平均）</text>
<line x1="70" y1="656.00" x2="930" y2="656.00" stroke="#94a3b8" stroke-opacity="0.18" stroke-width="1" />
<text x="62" y="660.00" fill="#cbd5f5" font-size="10" text-anchor="end">0.07</text>
<line x1="70" y1="593.75" x2="930" y2="593.75" stroke="#94a3b8" stroke-opacity="0.18" stroke-width="1" />
<text x="62" y="597.75" fill="#cbd5f5" font-size="10" text-anchor="end">0.2</text>
<line x1="70" y1="531.50" x2="930" y2="531.50" stroke="#94a3b8" stroke-opacity="0.18" stroke-width="1" />
<text x="62" y="535.50" fill="#cbd5f5" font-size="10" text-anchor="end">0.34</text>
<line x1="70" y1="469.25" x2="930" y2="469.25" stroke="#94a3b8" stroke-opacity="0.18" stroke-width="1" />
<text x="62" y="473.25" fill="#cbd5f5" font-size="10" text-anchor="end">0.47</text>
<line x1="70" y1="407.00" x2="930" y2="407.00" stroke="#94a3b8" stroke-opacity="0.18" stroke-width="1" />
<text x="62" y="411.00" fill="#cbd5f5" font-size="10" text-anchor="end">0.6</text>
<line x1="70.00" y1="656" x2="70.00" y2="660" stroke="#94a3b8" stroke-opacity="0.5" stroke-width="1" />
<text x="70.00" y="674" fill="#cbd5f5" font-size="10" text-anchor="middle">2025-01</text>
<line x1="242.00" y1="656" x2="242.00" y2="660" stroke="#94a3b8" stroke-opacity="0.5" stroke-width="1" />
<text x="242.00" y="674" fill="#cbd5f5" font-size="10" text-anchor="middle">2025-03</text>
<line x1="414.00" y1="656" x2="414.00" y2="660" stroke="#94a3b8" stroke-opacity="0.5" stroke-width="1" />
<text x="414.00" y="674" fill="#cbd5f5" font-size="10" text-anchor="middle">2025-06</text>
<line x1="586.00" y1="656" x2="586.00" y2="660" stroke="#94a3b8" stroke-opacity="0.5" stroke-width="1" />
<text x="586.00" y="674" fill="#cbd5f5" font-size="10" text-anchor="middle">2025-08</text>
<line x1="758.00" y1="656" x2="758.00" y2="660" stroke="#94a3b8" stroke-opacity="0.5" stroke-width="1" />
<text x="758.00" y="674" fill="#cbd5f5" font-size="10" text-anchor="middle">2025-10</text>
<line x1="930.00" y1="656" x2="930.00" y2="660" stroke="#94a3b8" stroke-opacity="0.5" stroke-width="1" />
<text x="930.00" y="674" fill="#cbd5f5" font-size="10" text-anchor="middle">2025-12</text>
<line x1="70" y1="407" x2="70" y2="656" stroke="#94a3b8" stroke-width="1" />
<line x1="70" y1="656" x2="930" y2="656" stroke="#94a3b8" stroke-width="1" />
<path d="M70.00,656.00 L70.00,522.47 L72.62,500.20 L75.24,502.17 L80.49,506.31 L83.11,508.54 L90.98,501.19 L96.22,505.91 L98.84,507.68 L101.46,512.66 L104.09,521.52 L106.71,519.53 L109.33,525.65 L111.95,525.64 L114.57,526.77 L117.20,530.27 L119.82,532.74 L122.44,526.81 L125.06,531.56 L127.68,527.21 L130.30,533.19 L132.93,531.45 L135.55,531.49 L138.17,534.40 L140.79,539.75 L143.41,534.16 L146.04,535.53 L148.66,538.93 L151.28,524.44 L153.90,518.68 L156.52,515.20 L159.15,511.18 L161.77,514.33 L164.39,507.59 L167.01,512.08 L172.26,519.47 L174.88,521.20 L177.50,514.49 L180.12,502.35 L182.74,504.68 L185.37,508.32 L187.99,501.59 L190.61,511.24 L193.23,506.92 L195.85,518.59 L198.48,518.99 L201.10,520.63 L203.72,524.94 L206.34,519.69 L208.96,514.22 L211.59,516.92 L214.21,515.61 L216.83,531.29 L219.45,531.96 L222.07,523.36 L224.70,532.54 L227.32,536.44 L229.94,538.27 L232.56,531.45 L235.18,530.66 L237.80,527.07 L240.43,526.99 L243.05,527.00 L245.67,521.18 L248.29,516.55 L250.91,514.35 L253.54,511.72 L256.16,518.24 L258.78,521.48 L261.40,521.75 L264.02,519.13 L266.65,520.39 L269.27,523.30 L271.89,521.02 L274.51,514.48 L277.13,520.60 L279.76,522.43 L282.38,534.03 L285.00,539.70 L287.62,546.87 L290.24,553.37 L292.87,556.89 L295.49,553.09 L298.11,552.79 L300.73,546.48 L303.35,546.45 L305.98,546.62 L308.60,543.85 L311.22,540.39 L313.84,538.55 L316.46,535.73 L319.09,541.33 L321.71,541.36 L324.33,541.37 L326.95,540.05 L329.57,538.61 L332.20,540.96 L334.82,540.60 L337.44,536.23 L340.06,536.93 L342.68,539.23 L345.30,540.70 L347.93,543.28 L350.55,544.96 L353.17,541.08 L355.79,543.42 L358.41,533.53 L361.04,527.30 L363.66,516.14 L366.28,513.96 L368.90,509.52 L371.52,517.43 L374.15,518.33 L376.77,527.73 L379.39,529.59 L382.01,537.95 L384.63,541.35 L389.88,545.96 L392.50,544.10 L395.12,537.42 L397.74,535.83 L400.37,531.86 L402.99,533.12 L405.61,530.28 L410.85,528.70 L413.48,514.66 L416.10,525.25 L418.72,527.82 L421.34,519.41 L423.96,522.38 L426.59,526.98 L429.21,530.63 L431.83,541.37 L434.45,539.12 L437.07,536.01 L442.32,554.82 L444.94,545.37 L447.56,541.26 L450.18,532.77 L452.80,534.44 L455.43,535.63 L458.05,529.77 L460.67,526.96 L463.29,537.15 L465.91,534.64 L468.54,541.28 L471.16,535.15 L473.78,530.12 L476.40,539.51 L479.02,539.92 L481.65,540.78 L484.27,530.94 L486.89,532.30 L489.51,539.23 L492.13,538.33 L494.76,542.03 L497.38,541.62 L500.00,537.05 L502.62,553.58 L505.24,548.77 L507.87,551.77 L510.49,552.78 L513.11,541.67 L515.73,540.46 L518.35,536.61 L520.98,536.90 L523.60,534.84 L526.22,537.35 L528.84,532.76 L531.46,538.46 L534.09,537.28 L536.71,542.20 L539.33,535.83 L541.95,542.58 L544.57,538.29 L547.20,540.84 L549.82,534.36 L552.44,537.77 L555.06,538.81 L557.68,547.24 L560.30,548.42 L562.93,549.11 L565.55,554.54 L568.17,562.80 L570.79,552.17 L573.41,548.22 L576.04,540.96 L578.66,537.41 L581.28,539.19 L583.90,537.23 L586.52,537.61 L589.15,547.43 L591.77,542.67 L594.39,544.27 L597.01,547.13 L599.63,532.19 L602.26,538.10 L604.88,533.60 L610.12,520.44 L612.74,525.01 L615.37,522.97 L620.61,517.11 L623.23,532.39 L646.83,515.17 L649.45,512.65 L652.07,523.25 L654.70,528.04 L657.32,526.93 L659.94,532.43 L662.56,530.73 L665.18,535.17 L667.80,534.95 L670.43,537.48 L673.05,525.29 L675.67,528.08 L678.29,525.58 L680.91,520.07 L683.54,519.77 L686.16,518.56 L688.78,515.72 L691.40,526.88 L694.02,525.09 L696.65,525.32 L699.27,527.13 L701.89,536.26 L704.51,539.17 L707.13,538.65 L709.76,531.49 L712.38,538.73 L715.00,541.26 L717.62,540.44 L720.24,540.45 L722.87,537.59 L725.49,533.88 L730.73,540.05 L733.35,536.85 L735.98,535.51 L738.60,530.94 L741.22,529.66 L743.84,541.53 L746.46,547.02 L749.09,547.84 L751.71,551.23 L754.33,549.88 L756.95,559.06 L759.57,557.95 L762.20,551.38 L764.82,549.13 L767.44,554.26 L770.06,554.06 L772.68,556.76 L775.30,555.53 L777.93,558.40 L780.55,555.97 L783.17,557.24 L785.79,550.23 L788.41,548.50 L791.04,544.74 L793.66,547.85 L796.28,542.59 L798.90,543.78 L801.52,544.18 L804.15,546.98 L806.77,547.60 L809.39,550.00 L812.01,542.96 L814.63,544.52 L817.26,539.10 L819.88,532.74 L822.50,529.58 L825.12,531.91 L827.74,528.45 L830.37,532.89 L832.99,535.83 L835.61,540.68 L838.23,547.05 L840.85,551.39 L843.48,551.95 L848.72,558.16 L851.34,559.41 L853.96,550.48 L856.59,556.79 L859.21,551.86 L861.83,543.87 L864.45,531.95 L867.07,532.98 L869.70,532.06 L872.32,537.10 L874.94,534.07 L877.56,533.71 L880.18,538.29 L882.80,542.79 L885.43,537.92 L888.05,538.95 L890.67,537.25 L893.29,537.82 L895.91,545.39 L898.54,537.95 L901.16,543.30 L903.78,547.27 L906.40,542.75 L909.02,547.85 L911.65,544.54 L914.27,539.28 L916.89,547.52 L919.51,544.00 L922.13,544.44 L924.76,550.14 L927.38,537.77 L930.00,534.15 L930.00,656.00 Z" fill="#34d399" fill-opacity="0.16" stroke="none" />
<path d="M70.00,522.47 L72.62,500.20 L75.24,502.17 L80.49,506.31 L83.11,508.54 L90.98,501.19 L96.22,505.91 L98.84,507.68 L101.46,512.66 L104.09,521.52 L106.71,519.53 L109.33,525.65 L111.95,525.64 L114.57,526.77 L117.20,530.27 L119.82,532.74 L122.44,526.81 L125.06,531.56 L127.68,527.21 L130.30,533.19 L132.93,531.45 L135.55,531.49 L138.17,534.40 L140.79,539.75 L143.41,534.16 L146.04,535.53 L148.66,538.93 L151.28,524.44 L153.90,518.68 L156.52,515.20 L159.15,511.18 L161.77,514.33 L164.39,507.59 L167.01,512.08 L172.26,519.47 L174.88,521.20 L177.50,514.49 L180.12,502.35 L182.74,504.68 L185.37,508.32 L187.99,501.59 L190.61,511.24 L193.23,506.92 L195.85,518.59 L198.48,518.99 L201.10,520.63 L203.72,524.94 L206.34,519.69 L208.96,514.22 L211.59,516.92 L214.21,515.61 L216.83,531.29 L219.45,531.96 L222.07,523.36 L224.70,532.54 L227.32,536.44 L229.94,538.27 L232.56,531.45 L235.18,530.66 L237.80,527.07 L240.43,526.99 L243.05,527.00 L245.67,521.18 L248.29,516.55 L250.91,514.35 L253.54,511.72 L256.16,518.24 L258.78,521.48 L261.40,521.75 L264.02,519.13 L266.65,520.39 L269.27,523.30 L271.89,521.02 L274.51,514.48 L277.13,520.60 L279.76,522.43 L282.38,534.03 L285.00,539.70 L287.62,546.87 L290.24,553.37 L292.87,556.89 L295.49,553.09 L298.11,552.79 L300.73,546.48 L303.35,546.45 L305.98,546.62 L308.60,543.85 L311.22,540.39 L313.84,538.55 L316.46,535.73 L319.09,541.33 L321.71,541.36 L324.33,541.37 L326.95,540.05 L329.57,538.61 L332.20,540.96 L334.82,540.60 L337.44,536.23 L340.06,536.93 L342.68,539.23 L345.30,540.70 L347.93,543.28 L350.55,544.96 L353.17,541.08 L355.79,543.42 L358.41,533.53 L361.04,527.30 L363.66,516.14 L366.28,513.96 L368.90,509.52 L371.52,517.43 L374.15,518.33 L376.77,527.73 L379.39,529.59 L382.01,537.95 L384.63,541.35 L389.88,545.96 L392.50,544.10 L395.12,537.42 L397.74,535.83 L400.37,531.86 L402.99,533.12 L405.61,530.28 L410.85,528.70 L413.48,514.66 L416.10,525.25 L418.72,527.82 L421.34,519.41 L423.96,522.38 L426.59,526.98 L429.21,530.63 L431.83,541.37 L434.45,539.12 L437.07,536.01 L442.32,554.82 L444.94,545.37 L447.56,541.26 L450.18,532.77 L452.80,534.44 L455.43,535.63 L458.05,529.77 L460.67,526.96 L463.29,537.15 L465.91,534.64 L468.54,541.28 L471.16,535.15 L473.78,530.12 L476.40,539.51 L479.02,539.92 L481.65,540.78 L484.27,530.94 L486.89,532.30 L489.51,539.23 L492.13,538.33 L494.76,542.03 L497.38,541.62 L500.00,537.05 L502.62,553.58 L505.24,548.77 L507.87,551.77 L510.49,552.78 L513.11,541.67 L515.73,540.46 L518.35,536.61 L520.98,536.90 L523.60,534.84 L526.22,537.35 L528.84,532.76 L531.46,538.46 L534.09,537.28 L536.71,542.20 L539.33,535.83 L541.95,542.58 L544.57,538.29 L547.20,540.84 L549.82,534.36 L552.44,537.77 L555.06,538.81 L557.68,547.24 L560.30,548.42 L562.93,549.11 L565.55,554.54 L568.17,562.80 L570.79,552.17 L573.41,548.22 L576.04,540.96 L578.66,537.41 L581.28,539.19 L583.90,537.23 L586.52,537.61 L589.15,547.43 L591.77,542.67 L594.39,544.27 L597.01,547.13 L599.63,532.19 L602.26,538.10 L604.88,533.60 L610.12,520.44 L612.74,525.01 L615.37,522.97 L620.61,517.11 L623.23,532.39 L646.83,515.17 L649.45,512.65 L652.07,523.25 L654.70,528.04 L657.32,526.93 L659.94,532.43 L662.56,530.73 L665.18,535.17 L667.80,534.95 L670.43,537.48 L673.05,525.29 L675.67,528.08 L678.29,525.58 L680.91,520.07 L683.54,519.77 L686.16,518.56 L688.78,515.72 L691.40,526.88 L694.02,525.09 L696.65,525.32 L699.27,527.13 L701.89,536.26 L704.51,539.17 L707.13,538.65 L709.76,531.49 L712.38,538.73 L715.00,541.26 L717.62,540.44 L720.24,540.45 L722.87,537.59 L725.49,533.88 L730.73,540.05 L733.35,536.85 L735.98,535.51 L738.60,530.94 L741.22,529.66 L743.84,541.53 L746.46,547.02 L749.09,547.84 L751.71,551.23 L754.33,549.88 L756.95,559.06 L759.57,557.95 L762.20,551.38 L764.82,549.13 L767.44,554.26 L770.06,554.06 L772.68,556.76 L775.30,555.53 L777.93,558.40 L780.55,555.97 L783.17,557.24 L785.79,550.23 L788.41,548.50 L791.04,544.74 L793.66,547.85 L796.28,542.59 L798.90,543.78 L801.52,544.18 L804.15,546.98 L806.77,547.60 L809.39,550.00 L812.01,542.96 L814.63,544.52 L817.26,539.10 L819.88,532.74 L822.50,529.58 L825.12,531.91 L827.74,528.45 L830.37,532.89 L832.99,535.83 L835.61,540.68 L838.23,547.05 L840.85,551.39 L843.48,551.95 L848.72,558.16 L851.34,559.41 L853.96,550.48 L856.59,556.79 L859.21,551.86 L861.83,543.87 L864.45,531.95 L867.07,532.98 L869.70,532.06 L872.32,537.10 L874.94,534.07 L877.56,533.71 L880.18,538.29 L882.80,542.79 L885.43,537.92 L888.05,538.95 L890.67,537.25 L893.29,537.82 L895.91,545.39 L898.54,537.95 L901.16,543.30 L903.78,547.27 L906.40,542.75 L909.02,547.85 L911.65,544.54 L914.27,539.28 L916.89,547.52 L919.51,544.00 L922.13,544.44 L924.76,550.14 L927.38,537.77 L930.00,534.15" fill="none" stroke="#34d399" stroke-width="2.2" stroke-linecap="round" />
</svg>
