<svg xmlns="http://www.w3.org/2000/svg" viewBox="0 0 960 720" width="960" height="720">
<rect width="960" height="720" fill="#0f172a" />
<text x="480" y="28" fill="#e2e8f0" font-size="16" font-weight="700" text-anchor="middle">步数趋势图</text>
<text x="70" y="70" fill="#e2e8f0" font-size="13" font-weight="600">本月分天指标明细</text>
<line x1="70" y1="323.00" x2="930" y2="323.00" stroke="#94a3b8" stroke-opacity="0.18" stroke-width="1" />
<text x="62" y="327.00" fill="#cbd5f5" font-size="10" text-anchor="end">4588</text>
<line x1="70" y1="260.75" x2="930" y2="260.75" stroke="#94a3b8" stroke-opacity="0.18" stroke-width="1" />
<text x="62" y="264.75" fill="#cbd5f5" font-size="10" text-anchor="end">10954</text>
<line x1="70" y1="198.50" x2="930" y2="198.50" stroke="#94a3b8" stroke-opacity="0.18" stroke-width="1" />
<text x="62" y="202.50" fill="#cbd5f5" font-size="10" text-anchor="end">17321</text>
<line x1="70" y1="136.25" x2="930" y2="136.25" stroke="#94a3b8" stroke-opacity="0.18" stroke-width="1" />
<text x="62" y="140.25" fill="#cbd5f5" font-size="10" text-anchor="end">23688</text>
<line x1="70" y1="74.00" x2="930" y2="74.00" stroke="#94a3b8" stroke-opacity="0.18" stroke-width="1" />
<text x="62" y="78.00" fill="#cbd5f5" font-size="10" text-anchor="end">30054</text>
<line x1="70.00" y1="323" x2="70.00" y2="327" stroke="#94a3b8" stroke-opacity="0.5" stroke-width="1" />
<text x="70.00" y="341" fill="#cbd5f5" font-size="10" text-anchor="middle">11-19</text>
<line x1="242.00" y1="323" x2="242.00" y2="327" stroke="#94a3b8" stroke-opacity="0.5" stroke-width="1" />
<text x="242.00" y="341" fill="#cbd5f5" font-size="10" text-anchor="middle">11-24</text>
<line x1="414.00" y1="323" x2="414.00" y2="327" stroke="#94a3b8" stroke-opacity="0.5" stroke-width="1" />
<text x="414.00" y="341" fill="#cbd5f5" font-size="10" text-anchor="middle">11-30</text>
<line x1="586.00" y1="323" x2="586.00" y2="327" stroke="#94a3b8" stroke-opacity="0.5" stroke-width="1" />
<text x="586.00" y="341" fill="#cbd5f5" font-size="10" text-anchor="middle">12-06</text>
<line x1="758.00" y1="323" x2="758.00" y2="327" stroke="#94a3b8" stroke-opacity="0.5" stroke-width="1" />
<text x="758.00" y="341" fill="#cbd5f5" font-size="10" text-anchor="middle">12-12</text>
<line x1="930.00" y1="323" x2="930.00" y2="327" stroke="#94a3b8" stroke-opacity="0.5" stroke-width="1" />
<text x="930.00" y="341" fill="#cbd5f5" font-size="10" text-anchor="middle">12-18</text>
<line x1="70" y1="74" x2="70" y2="323" stroke="#94a3b8" stroke-width="1" />
<line x1="70" y1="323" x2="930" y2="323" stroke="#94a3b8" stroke-width="1" />
<path d="M70.00,181.16 L99.66,211.07 L129.31,244.58 L158.97,200.98 L188.62,251.15 L218.28,212.02 L247.93,188.04 L277.59,159.57 L307.24,122.86 L336.90,208.51 L366.55,94.75 L396.21,193.79 L425.86,202.39 L455.52,160.26 L485.17,191.19 L514.83,157.30 L544.48,249.90 L574.14,302.25 L603.79,248.00 L633.45,220.88 L663.10,181.84 L692.76,167.65 L722.41,180.30 L752.07,168.13 L781.72,235.38 L811.38,167.35 L841.03,147.52 L870.69,223.65 L900.34,151.64 L930.00,241.05" fill="none" stroke="#34d399" stroke-width="2.2" stroke-linecap="round" />
<circle cx="70.00" cy="181.16" r="3" fill="#34d399" stroke="#0f172a" stroke-width="1" />
<text x="70.00" y="171.16" fill="#e2e8f0" font-size="9" text-anchor="middle">19094</text>
<circle cx="99.66" cy="211.07" r="3" fill="#34d399" stroke="#0f172a" stroke-width="1" />
<text x="99.66" y="191.07" fill="#e2e8f0" font-size="9" text-anchor="middle">16035</text>
<circle cx="129.31" cy="244.58" r="3" fill="#34d399" stroke="#0f172a" stroke-width="1" />
<text x="129.31" y="234.58" fill="#e2e8f0" font-size="9" text-anchor="middle">12608</text>
<circle cx="158.97" cy="200.98" r="3" fill="#34d399" stroke="#0f172a" stroke-width="1" />
<text x="158.97" y="180.98" fill="#e2e8f0" font-size="9" text-anchor="middle">17067</text>
<circle cx="188.62" cy="251.15" r="3" fill="#34d399" stroke="#0f172a" stroke-width="1" />
<text x="188.62" y="241.15" fill="#e2e8f0" font-size="9" text-anchor="middle">11936</text>
<circle cx="218.28" cy="212.02" r="3" fill="#34d399" stroke="#0f172a" stroke-width="1" />
<text x="218.28" y="192.02" fill="#e2e8f0" font-size="9" text-anchor="middle">15938</text>
<circle cx="247.93" cy="188.04" r="3" fill="#34d399" stroke="#0f172a" stroke-width="1" />
<text x="247.93" y="178.04" fill="#e2e8f0" font-size="9" text-anchor="middle">18391</text>
<circle cx="277.59" cy="159.57" r="3" fill="#34d399" stroke="#0f172a" stroke-width="1" />
<text x="277.59" y="139.57" fill="#e2e8f0" font-size="9" text-anchor="middle">21303</text>
<circle cx="307.24" cy="122.86" r="3" fill="#34d399" stroke="#0f172a" stroke-width="1" />
<text x="307.24" y="112.86" fill="#e2e8f0" font-size="9" text-anchor="middle">25057</text>
<circle cx="336.90" cy="208.51" r="3" fill="#34d399" stroke="#0f172a" stroke-width="1" />
<text x="336.90" y="188.51" fill="#e2e8f0" font-size="9" text-anchor="middle">16297</text>
<circle cx="366.55" cy="94.75" r="3" fill="#34d399" stroke="#0f172a" stroke-width="1" />
<text x="366.55" y="84.75" fill="#e2e8f0" font-size="9" text-anchor="middle">27932</text>
<circle cx="396.21" cy="193.79" r="3" fill="#34d399" stroke="#0f172a" stroke-width="1" />
<text x="396.21" y="173.79" fill="#e2e8f0" font-size="9" text-anchor="middle">17803</text>
<circle cx="425.86" cy="202.39" r="3" fill="#34d399" stroke="#0f172a" stroke-width="1" />
<text x="425.86" y="192.39" fill="#e2e8f0" font-size="9" text-anchor="middle">16923</text>
<circle cx="455.52" cy="160.26" r="3" fill="#34d399" stroke="#0f172a" stroke-width="1" />
<text x="455.52" y="140.26" fill="#e2e8f0" font-size="9" text-anchor="middle">21232</text>
<circle cx="485.17" cy="191.19" r="3" fill="#34d399" stroke="#0f172a" stroke-width="1" />
<text x="485.17" y="181.19" fill="#e2e8f0" font-size="9" text-anchor="middle">18069</text>
<circle cx="514.83" cy="157.30" r="3" fill="#34d399" stroke="#0f172a" stroke-width="1" />
<text x="514.83" y="137.30" fill="#e2e8f0" font-size="9" text-anchor="middle">21535</text>
<circle cx="544.48" cy="249.90" r="3" fill="#34d399" stroke="#0f172a" stroke-width="1" />
<text x="544.48" y="239.90" fill="#e2e8f0" font-size="9" text-anchor="middle">12064</text>
<circle cx="574.14" cy="302.25" r="3" fill="#34d399" stroke="#0f172a" stroke-width="1" />
<text x="574.14" y="282.25" fill="#e2e8f0" font-size="9" text-anchor="middle">6710</text>
<circle cx="603.79" cy="248.00" r="3" fill="#34d399" stroke="#0f172a" stroke-width="1" />
<text x="603.79" y="238.00" fill="#e2e8f0" font-size="9" text-anchor="middle">12258</text>
<circle cx="633.45" cy="220.88" r="3" fill="#34d399" stroke="#0f172a" stroke-width="1" />
<text x="633.45" y="200.88" fill="#e2e8f0" font-size="9" text-anchor="middle">15032</text>
<circle cx="663.10" cy="181.84" r="3" fill="#34d399" stroke="#0f172a" stroke-width="1" />
<text x="663.10" y="171.84" fill="#e2e8f0" font-size="9" text-anchor="middle">19025</text>
<circle cx="692.76" cy="167.65" r="3" fill="#34d399" stroke="#0f172a" stroke-width="1" />
<text x="692.76" y="147.65" fill="#e2e8f0" font-size="9" text-anchor="middle">20476</text>
<circle cx="722.41" cy="180.30" r="3" fill="#34d399" stroke="#0f172a" stroke-width="1" />
<text x="722.41" y="170.30" fill="#e2e8f0" font-size="9" text-anchor="middle">19182</text>
<circle cx="752.07" cy="168.13" r="3" fill="#34d399" stroke="#0f172a" stroke-width="1" />
<text x="752.07" y="148.13" fill="#e2e8f0" font-size="9" text-anchor="middle">20427</text>
<circle cx="781.72" cy="235.38" r="3" fill="#34d399" stroke="#0f172a" stroke-width="1" />
<text x="781.72" y="225.38" fill="#e2e8f0" font-size="9" text-anchor="middle">13549</text>
<circle cx="811.38" cy="167.35" r="3" fill="#34d399" stroke="#0f172a" stroke-width="1" />
<text x="811.38" y="147.35" fill="#e2e8f0" font-size="9" text-anchor="middle">20507</text>
<circle cx="841.03" cy="147.52" r="3" fill="#34d399" stroke="#0f172a" stroke-width="1" />
<text x="841.03" y="137.52" fill="#e2e8f0" font-size="9" text-anchor="middle">22535</text>
<circle cx="870.69" cy="223.65" r="3" fill="#34d399" stroke="#0f172a" stroke-width="1" />
<text x="870.69" y="203.65" fill="#e2e8f0" font-size="9" text-anchor="middle">14749</text>
<circle cx="900.34" cy="151.64" r="3" fill="#34d399" stroke="#0f172a" stroke-width="1" />
<text x="900.34" y="141.64" fill="#e2e8f0" font-size="9" text-anchor="middle">22114</text>
<circle cx="930.00" cy="241.05" r="3" fill="#34d399" stroke="#0f172a" stroke-width="1" />
<text x="930.00" y="221.05" fill="#e2e8f0" font-size="9" text-anchor="middle">12969</text>
<text x="70" y="403" fill="#e2e8f0" font-size="13" font-weight="600">本年核心指标趋势（滑动7日窗口平均）</text>
<line x1="70" y1="656.00" x2="930" y2="656.00" stroke="#94a3b8" stroke-opacity="0.18" stroke-width="1" />
<text x="62" y="660.00" fill="#cbd5f5" font-size="10" text-anchor="end">3627</text>
<line x1="70" y1="593.75" x2="930" y2="593.75" stroke="#94a3b8" stroke-opacity="0.18" stroke-width="1" />
<text x="62" y="597.75" fill="#cbd5f5" font-size="10" text-anchor="end">11042</text>
<line x1="70" y1="531.50" x2="930" y2="531.50" stroke="#94a3b8" stroke-opacity="0.18" stroke-width="1" />
<text x="62" y="535.50" fill="#cbd5f5" font-size="10" text-anchor="end">18457</text>
<line x1="70" y1="469.25" x2="930" y2="469.25" stroke="#94a3b8" stroke-opacity="0.18" stroke-width="1" />
<text x="62" y="473.25" fill="#cbd5f5" font-size="10" text-anchor="end">25871</text>
<line x1="70" y1="407.00" x2="930" y2="407.00" stroke="#94a3b8" stroke-opacity="0.18" stroke-width="1" />
<text x="62" y="411.00" fill="#cbd5f5" font-size="10" text-anchor="end">33286</text>
<line x1="70.00" y1="656" x2="70.00" y2="660" stroke="#94a3b8" stroke-opacity="0.5" stroke-width="1" />
<text x="70.00" y="674" fill="#cbd5f5" font-size="10" text-anchor="middle">2024-12</text>
<line x1="242.00" y1="656" x2="242.00" y2="660" stroke="#94a3b8" stroke-opacity="0.5" stroke-width="1" />
<text x="242.00" y="674" fill="#cbd5f5" font-size="10" text-anchor="middle">2025-03</text>
<line x1="414.00" y1="656" x2="414.00" y2="660" stroke="#94a3b8" stroke-opacity="0.5" stroke-width="1" />
<text x="414.00" y="674" fill="#cbd5f5" font-size="10" text-anchor="middle">2025-05</text>
<line x1="586.00" y1="656" x2="586.00" y2="660" stroke="#94a3b8" stroke-opacity="0.5" stroke-width="1" />
<text x="586.00" y="674" fill="#cbd5f5" font-size="10" text-anchor="middle">2025-07</text>
<line x1="758.00" y1="656" x2="758.00" y2="660" stroke="#94a3b8" stroke-opacity="0.5" stroke-width="1" />
<text x="758.00" y="674" fill="#cbd5f5" font-size="10" text-anchor="middle">2025-10</text>
<line x1="930.00" y1="656" x2="930.00" y2="660" stroke="#94a3b8" stroke-opacity="0.5" stroke-width="1" />
<text x="930.00" y="674" fill="#cbd5f5" font-size="10" text-anchor="middle">2025-12</text>
<line x1="70" y1="407" x2="70" y2="656" stroke="#94a3b8" stroke-width="1" />
<line x1="70" y1="656" x2="930" y2="656" stroke="#94a3b8" stroke-width="1" />
<path d="M70.00,656.00 L70.00,550.15 L72.36,522.08 L74.73,427.75 L77.09,477.87 L79.45,497.90 L81.81,511.88 L84.18,523.73 L86.54,535.99 L88.90,551.78 L91.26,581.38 L93.63,571.31 L95.99,577.55 L98.35,583.27 L100.71,584.03 L103.08,575.11 L105.44,577.11 L107.80,599.54 L110.16,581.19 L112.53,574.16 L114.89,575.56 L117.25,571.95 L119.62,572.21 L121.98,561.34 L124.34,564.47 L126.70,582.63 L129.07,579.16 L131.43,569.49 L133.79,567.09 L136.15,572.19 L138.52,577.65 L140.88,575.62 L143.24,585.41 L145.60,579.38 L147.97,585.77 L150.33,590.43 L152.69,589.92 L155.05,583.78 L157.42,583.38 L159.78,579.20 L162.14,602.74 L164.51,603.21 L166.87,599.56 L169.23,607.17 L171.59,585.27 L173.96,559.96 L176.32,571.74 L178.68,557.31 L181.04,555.49 L183.41,554.24 L185.77,549.18 L188.13,582.99 L190.49,602.27 L192.86,595.07 L195.22,590.86 L197.58,590.89 L199.95,592.46 L202.31,589.63 L204.67,580.79 L207.03,589.69 L209.40,579.05 L211.76,584.45 L214.12,584.06 L216.48,582.62 L218.85,580.42 L221.21,580.56 L223.57,578.11 L225.93,580.90 L228.30,578.45 L230.66,570.68 L233.02,570.04 L235.38,565.61 L237.75,570.28 L240.11,563.71 L242.47,529.77 L244.84,530.95 L247.20,530.30 L249.56,529.54 L251.92,505.06 L254.29,488.63 L256.65,462.95 L259.01,501.93 L261.37,500.41 L263.74,496.87 L266.10,493.12 L268.46,514.34 L270.82,526.05 L273.19,558.28 L275.55,549.57 L277.91,553.80 L280.27,564.24 L282.64,561.14 L285.00,559.56 L287.36,557.97 L289.73,543.74 L292.09,533.14 L294.45,529.21 L296.81,521.40 L299.18,528.44 L301.54,509.95 L303.90,512.48 L306.26,520.52 L308.63,534.71 L310.99,527.57 L313.35,521.24 L315.71,515.16 L318.08,534.85 L320.44,512.15 L322.80,480.91 L325.16,481.75 L327.53,490.98 L329.89,494.04 L332.25,490.72 L334.62,485.81 L336.98,500.29 L339.34,539.01 L341.70,545.23 L344.07,534.81 L346.43,535.36 L348.79,538.82 L351.15,536.82 L353.52,543.13 L355.88,509.25 L358.24,505.98 L360.60,515.07 L362.97,521.90 L365.33,522.41 L367.69,524.33 L370.05,520.12 L372.42,541.58 L374.78,533.76 L377.14,532.73 L379.51,519.55 L381.87,514.10 L384.23,532.90 L386.59,534.40 L388.96,514.08 L391.32,501.47 L393.68,496.23 L396.04,512.79 L398.41,526.16 L400.77,501.38 L403.13,510.19 L405.49,528.65 L407.86,518.60 L410.22,519.90 L412.58,510.43 L414.95,506.97 L417.31,514.63 L419.67,510.20 L422.03,523.71 L424.40,555.19 L426.76,557.65 L429.12,560.60 L431.48,561.70 L433.85,568.61 L436.21,566.70 L438.57,550.70 L440.93,545.47 L443.30,539.27 L445.66,547.42 L448.02,546.53 L450.38,549.09 L452.75,551.45 L455.11,571.48 L457.47,576.76 L459.84,596.47 L462.20,594.09 L464.56,596.31 L466.92,597.18 L469.29,605.87 L471.65,605.79 L474.01,609.47 L476.37,601.64 L478.74,602.54 L481.10,599.38 L483.46,595.21 L485.82,578.25 L488.19,571.57 L490.55,562.10 L492.91,559.79 L495.27,560.70 L497.64,565.26 L500.00,562.77 L502.36,572.98 L504.73,571.06 L507.09,568.12 L509.45,573.36 L511.81,560.48 L514.18,556.49 L516.54,557.04 L518.90,562.70 L521.26,550.64 L523.63,561.94 L525.99,556.80 L528.35,553.62 L530.71,562.83 L533.08,569.63 L535.44,571.83 L537.80,588.28 L540.16,588.04 L542.53,594.24 L544.89,603.83 L547.25,596.62 L549.62,593.32 L551.98,587.93 L554.34,572.13 L556.70,559.85 L559.07,547.61 L561.43,553.46 L563.79,554.85 L566.15,546.54 L568.52,545.31 L570.88,557.21 L573.24,572.88 L575.60,576.08 L577.97,572.84 L580.33,579.88 L582.69,581.89 L585.05,581.96 L587.42,569.68 L589.78,568.81 L592.14,576.65 L594.51,581.70 L596.87,579.77 L599.23,586.72 L601.59,589.91 L603.96,592.80 L606.32,584.29 L608.68,586.92 L611.04,584.61 L613.41,578.78 L615.77,587.11 L618.13,574.98 L620.49,591.43 L622.86,594.88 L625.22,593.79 L627.58,600.01 L629.95,606.80 L632.31,596.95 L634.67,610.09 L637.03,603.93 L639.40,600.38 L641.76,593.52 L644.12,584.82 L646.48,579.17 L648.85,580.06 L651.21,573.72 L653.57,511.64 L655.93,504.68 L658.30,516.76 L660.66,525.04 L663.02,533.60 L665.38,540.75 L667.75,546.48 L670.11,619.29 L672.47,635.25 L674.84,631.36 L677.20,622.33 L679.56,613.25 L681.92,610.42 L684.29,596.24 L686.65,572.13 L689.01,569.23 L691.37,566.19 L693.74,566.65 L696.10,568.58 L698.46,566.22 L700.82,569.83 L703.19,575.42 L705.55,576.18 L707.91,568.50 L710.27,562.31 L712.64,557.67 L715.00,553.83 L717.36,551.36 L719.73,563.48 L722.09,560.61 L724.45,561.47 L726.81,563.87 L729.18,581.31 L731.54,579.70 L733.90,577.87 L736.26,577.99 L738.63,558.30 L740.99,558.58 L743.35,559.34 L745.71,552.54 L748.08,570.55 L750.44,574.84 L752.80,577.44 L755.16,604.39 L757.53,593.24 L759.89,575.53 L762.25,566.89 L764.62,551.56 L766.98,555.79 L769.34,542.62 L771.70,534.28 L774.07,540.00 L776.43,554.67 L778.79,544.10 L781.15,532.56 L783.52,536.25 L785.88,537.23 L788.24,537.62 L790.60,535.78 L792.97,537.42 L795.33,535.67 L797.69,546.41 L800.05,543.05 L802.42,531.06 L804.78,532.02 L807.14,536.61 L809.51,538.13 L811.87,548.37 L814.23,551.49 L816.59,551.02 L818.96,548.69 L821.32,522.64 L823.68,527.67 L826.04,519.01 L828.41,511.01 L830.77,507.91 L833.13,506.55 L835.49,468.59 L837.86,496.77 L840.22,491.80 L842.58,508.28 L844.95,518.88 L847.31,524.98 L849.67,533.72 L852.03,596.15 L854.40,597.58 L856.76,600.97 L859.12,598.79 L861.48,593.60 L863.85,587.21 L866.21,581.31 L868.57,569.33 L870.93,562.47 L873.30,560.53 L875.66,553.24 L878.02,550.59 L880.38,539.77 L882.75,535.35 L885.11,522.32 L887.47,515.28 L889.84,514.10 L892.20,510.69 L894.56,514.57 L896.92,518.79 L899.29,523.87 L901.65,549.32 L904.01,555.97 L906.37,558.24 L908.74,560.89 L911.10,558.00 L913.46,560.82 L915.82,550.79 L918.19,542.59 L920.55,532.70 L922.91,523.70 L925.27,528.83 L927.64,526.86 L930.00,534.31 L930.00,656.00 Z" fill="#34d399" fill-opacity="0.16" stroke="none" />
<path d="M70.00,550.15 L72.36,522.08 L74.73,427.75 L77.09,477.87 L79.45,497.90 L81.81,511.88 L84.18,523.73 L86.54,535.99 L88.90,551.78 L91.26,581.38 L93.63,571.31 L95.99,577.55 L98.35,583.27 L100.71,584.03 L103.08,575.11 L105.44,577.11 L107.80,599.54 L110.16,581.19 L112.53,574.16 L114.89,575.56 L117.25,571.95 L119.62,572.21 L121.98,561.34 L124.34,564.47 L126.70,582.63 L129.07,579.16 L131.43,569.49 L133.79,567.09 L136.15,572.19 L138.52,577.65 L140.88,575.62 L143.24,585.41 L145.60,579.38 L147.97,585.77 L150.33,590.43 L152.69,589.92 L155.05,583.78 L157.42,583.38 L159.78,579.20 L162.14,602.74 L164.51,603.21 L166.87,599.56 L169.23,607.17 L171.59,585.27 L173.96,559.96 L176.32,571.74 L178.68,557.31 L181.04,555.49 L183.41,554.24 L185.77,549.18 L188.13,582.99 L190.49,602.27 L192.86,595.07 L195.22,590.86 L197.58,590.89 L199.95,592.46 L202.31,589.63 L204.67,580.79 L207.03,589.69 L209.40,579.05 L211.76,584.45 L214.12,584.06 L216.48,582.62 L218.85,580.42 L221.21,580.56 L223.57,578.11 L225.93,580.90 L228.30,578.45 L230.66,570.68 L233.02,570.04 L235.38,565.61 L237.75,570.28 L240.11,563.71 L242.47,529.77 L244.84,530.95 L247.20,530.30 L249.56,529.54 L251.92,505.06 L254.29,488.63 L256.65,462.95 L259.01,501.93 L261.37,500.41 L263.74,496.87 L266.10,493.12 L268.46,514.34 L270.82,526.05 L273.19,558.28 L275.55,549.57 L277.91,553.80 L280.27,564.24 L282.64,561.14 L285.00,559.56 L287.36,557.97 L289.73,543.74 L292.09,533.14 L294.45,529.21 L296.81,521.40 L299.18,528.44 L301.54,509.95 L303.90,512.48 L306.26,520.52 L308.63,534.71 L310.99,527.57 L313.35,521.24 L315.71,515.16 L318.08,534.85 L320.44,512.15 L322.80,480.91 L325.16,481.75 L327.53,490.98 L329.89,494.04 L332.25,490.72 L334.62,485.81 L336.98,500.29 L339.34,539.01 L341.70,545.23 L344.07,534.81 L346.43,535.36 L348.79,538.82 L351.15,536.82 L353.52,543.13 L355.88,509.25 L358.24,505.98 L360.60,515.07 L362.97,521.90 L365.33,522.41 L367.69,524.33 L370.05,520.12 L372.42,541.58 L374.78,533.76 L377.14,532.73 L379.51,519.55 L381.87,514.10 L384.23,532.90 L386.59,534.40 L388.96,514.08 L391.32,501.47 L393.68,496.23 L396.04,512.79 L398.41,526.16 L400.77,501.38 L403.13,510.19 L405.49,528.65 L407.86,518.60 L410.22,519.90 L412.58,510.43 L414.95,506.97 L417.31,514.63 L419.67,510.20 L422.03,523.71 L424.40,555.19 L426.76,557.65 L429.12,560.60 L431.48,561.70 L433.85,568.61 L436.21,566.70 L438.57,550.70 L440.93,545.47 L443.30,539.27 L445.66,547.42 L448.02,546.53 L450.38,549.09 L452.75,551.45 L455.11,571.48 L457.47,576.76 L459.84,596.47 L462.20,594.09 L464.56,596.31 L466.92,597.18 L469.29,605.87 L471.65,605.79 L474.01,609.47 L476.37,601.64 L478.74,602.54 L481.10,599.38 L483.46,595.21 L485.82,578.25 L488.19,571.57 L490.55,562.10 L492.91,559.79 L495.27,560.70 L497.64,565.26 L500.00,562.77 L502.36,572.98 L504.73,571.06 L507.09,568.12 L509.45,573.36 L511.81,560.48 L514.18,556.49 L516.54,557.04 L518.90,562.70 L521.26,550.64 L523.63,561.94 L525.99,556.80 L528.35,553.62 L530.71,562.83 L533.08,569.63 L535.44,571.83 L537.80,588.28 L540.16,588.04 L542.53,594.24 L544.89,603.83 L547.25,596.62 L549.62,593.32 L551.98,587.93 L554.34,572.13 L556.70,559.85 L559.07,547.61 L561.43,553.46 L563.79,554.85 L566.15,546.54 L568.52,545.31 L570.88,557.21 L573.24,572.88 L575.60,576.08 L577.97,572.84 L580.33,579.88 L582.69,581.89 L585.05,581.96 L587.42,569.68 L589.78,568.81 L592.14,576.65 L594.51,581.70 L596.87,579.77 L599.23,586.72 L601.59,589.91 L603.96,592.80 L606.32,584.29 L608.68,586.92 L611.04,584.61 L613.41,578.78 L615.77,587.11 L618.13,574.98 L620.49,591.43 L622.86,594.88 L625.22,593.79 L627.58,600.01 L629.95,606.80 L632.31,596.95 L634.67,610.09 L637.03,603.93 L639.40,600.38 L641.76,593.52 L644.12,584.82 L646.48,579.17 L648.85,580.06 L651.21,573.72 L653.57,511.64 L655.93,504.68 L658.30,516.76 L660.66,525.04 L663.02,533.60 L665.38,540.75 L667.75,546.48 L670.11,619.29 L672.47,635.25 L674.84,631.36 L677.20,622.33 L679.56,613.25 L681.92,610.42 L684.29,596.24 L686.65,572.13 L689.01,569.23 L691.37,566.19 L693.74,566.65 L696.10,568.58 L698.46,566.22 L700.82,569.83 L703.19,575.42 L705.55,576.18 L707.91,568.50 L710.27,562.31 L712.64,557.67 L715.00,553.83 L717.36,551.36 L719.73,563.48 L722.09,560.61 L724.45,561.47 L726.81,563.87 L729.18,581.31 L731.54,579.70 L733.90,577.87 L736.26,577.99 L738.63,558.30 L740.99,558.58 L743.35,559.34 L745.71,552.54 L748.08,570.55 L750.44,574.84 L752.80,577.44 L755.16,604.39 L757.53,593.24 L759.89,575.53 L762.25,566.89 L764.62,551.56 L766.98,555.79 L769.34,542.62 L771.70,534.28 L774.07,540.00 L776.43,554.67 L778.79,544.10 L781.15,532.56 L783.52,536.25 L785.88,537.23 L788.24,537.62 L790.60,535.78 L792.97,537.42 L795.33,535.67 L797.69,546.41 L800.05,543.05 L802.42,531.06 L804.78,532.02 L807.14,536.61 L809.51,538.13 L811.87,548.37 L814.23,551.49 L816.59,551.02 L818.96,548.69 L821.32,522.64 L823.68,527.67 L826.04,519.01 L828.41,511.01 L830.77,507.91 L833.13,506.55 L835.49,468.59 L837.86,496.77 L840.22,491.80 L842.58,508.28 L844.95,518.88 L847.31,524.98 L849.67,533.72 L852.03,596.15 L854.40,597.58 L856.76,600.97 L859.12,598.79 L861.48,593.60 L863.85,587.21 L866.21,581.31 L868.57,569.33 L870.93,562.47 L873.30,560.53 L875.66,553.24 L878.02,550.59 L880.38,539.77 L882.75,535.35 L885.11,522.32 L887.47,515.28 L889.84,514.10 L892.20,510.69 L894.56,514.57 L896.92,518.79 L899.29,523.87 L901.65,549.32 L904.01,555.97 L906.37,558.24 L908.74,560.89 L911.10,558.00 L913.46,560.82 L915.82,550.79 L918.19,542.59 L920.55,532.70 L922.91,523.70 L925.27,528.83 L927.64,526.86 L930.00,534.31" fill="none" stroke="#34d399" stroke-width="2.2" stroke-linecap="round" />
</svg>
