<svg xmlns="http://www.w3.org/2000/svg" viewBox="0 0 960 640" width="960" height="640">
  <rect width="960" height="640" fill="#0f172a" />
  <line x1="40" y1="40.00" x2="920.00" y2="40.00" stroke="#94a3b8" stroke-opacity="0.18" stroke-width="1" /><line x1="40" y1="128.00" x2="920.00" y2="128.00" stroke="#94a3b8" stroke-opacity="0.18" stroke-width="1" /><line x1="40" y1="216.00" x2="920.00" y2="216.00" stroke="#94a3b8" stroke-opacity="0.18" stroke-width="1" /><line x1="40" y1="304.00" x2="920.00" y2="304.00" stroke="#94a3b8" stroke-opacity="0.18" stroke-width="1" />
  <line x1="40" y1="336.00" x2="920.00" y2="336.00" stroke="#94a3b8" stroke-opacity="0.18" stroke-width="1" /><line x1="40" y1="424.00" x2="920.00" y2="424.00" stroke="#94a3b8" stroke-opacity="0.18" stroke-width="1" /><line x1="40" y1="512.00" x2="920.00" y2="512.00" stroke="#94a3b8" stroke-opacity="0.18" stroke-width="1" /><line x1="40" y1="600.00" x2="920.00" y2="600.00" stroke="#94a3b8" stroke-opacity="0.18" stroke-width="1" />
  <line x1="40" y1="320.00" x2="920.00" y2="320.00" stroke="#1f2937" stroke-width="1" />
  <polyline points="40.00,149.94 70.34,188.00 100.69,230.63 131.03,175.16 161.38,238.99 191.72,189.20 222.07,158.69 252.41,122.46 282.76,75.76 313.10,184.74 343.45,40.00 373.79,166.00 404.14,176.95 434.48,123.35 464.83,162.69 495.17,119.58 525.52,237.40 555.86,304.00 586.21,234.98 616.55,200.47 646.90,150.80 677.24,132.75 707.59,148.85 737.93,133.36 768.28,218.92 798.62,132.37 828.97,107.14 859.31,204.00 889.66,112.38 920.00,226.14" fill="none" stroke="#60a5fa" stroke-width="2" stroke-linecap="round" stroke-linejoin="round" />
  <polyline points="40.00,424.65 42.42,402.21 44.84,411.56 47.25,416.56 49.67,422.22 52.09,432.29 54.51,429.13 56.92,447.92 59.34,472.11 61.76,517.46 64.18,502.03 66.59,511.59 69.01,520.35 71.43,521.52 73.85,507.85 76.26,510.92 78.68,545.29 81.10,517.17 83.52,506.39 85.93,508.55 88.35,503.01 90.77,503.42 93.19,486.76 95.60,491.55 98.02,519.37 100.44,514.06 102.86,499.25 105.27,495.56 107.69,503.37 110.11,511.75 112.53,508.64 114.95,523.63 117.36,514.40 119.78,524.19 122.20,531.33 124.62,530.54 127.03,521.14 129.45,520.53 131.87,514.12 134.29,550.18 136.70,550.91 139.12,545.32 141.54,556.98 143.96,523.43 146.37,484.64 148.79,502.69 151.21,480.58 153.63,477.79 156.04,475.88 158.46,468.12 160.88,519.93 163.30,549.47 165.71,538.44 168.13,531.98 170.55,532.03 172.97,534.44 175.38,530.11 177.80,516.55 180.22,530.20 182.64,513.89 185.05,522.17 187.47,521.57 189.89,519.37 192.31,515.99 194.73,516.21 197.14,512.45 199.56,516.73 201.98,512.97 204.40,501.07 206.81,500.09 209.23,493.29 211.65,500.46 214.07,490.39 216.48,438.39 218.90,440.20 221.32,439.20 223.74,438.03 226.15,400.52 228.57,375.35 230.99,336.00 233.41,395.74 235.82,393.39 238.24,387.97 240.66,382.23 243.08,414.74 245.49,432.69 247.91,482.07 250.33,468.72 252.75,475.20 255.16,491.20 257.58,486.45 260.00,484.03 262.42,481.59 264.84,459.78 267.25,443.55 269.67,437.53 272.09,425.57 274.51,436.34 276.92,408.02 279.34,411.89 281.76,424.21 284.18,445.96 286.59,435.01 289.01,425.32 291.43,416.00 293.85,446.18 296.26,411.38 298.68,363.52 301.10,364.80 303.52,378.95 305.93,383.64 308.35,378.56 310.77,371.02 313.19,393.22 315.60,452.54 318.02,462.07 320.44,446.11 322.86,446.95 325.27,452.25 327.69,449.18 330.11,458.85 332.53,406.94 334.95,401.94 337.36,415.86 339.78,426.33 342.20,427.10 344.62,430.05 347.03,423.60 349.45,456.48 351.87,444.50 354.29,442.91 356.70,422.73 359.12,414.37 361.54,443.18 363.96,445.47 366.37,414.35 368.79,395.02 371.21,386.99 373.63,412.37 376.04,432.85 378.46,394.89 380.88,408.38 383.30,436.68 385.71,421.27 388.13,423.27 390.55,408.76 392.97,403.45 395.38,415.19 397.80,408.39 400.22,429.11 402.64,477.33 405.05,481.10 407.47,485.62 409.89,487.30 412.31,497.90 414.73,494.97 417.14,470.45 419.56,462.44 421.98,452.95 424.40,465.43 426.81,464.06 429.23,467.98 431.65,471.60 434.07,502.30 436.48,510.38 438.90,540.58 441.32,536.94 443.74,540.34 446.15,541.66 448.57,554.99 450.99,554.86 453.41,560.49 455.82,548.50 458.24,549.88 460.66,545.04 463.08,538.65 465.49,512.66 467.91,502.43 470.33,487.92 472.75,484.38 475.16,485.77 477.58,492.76 480.00,488.95 482.42,504.60 484.84,501.66 487.25,497.15 489.67,505.18 492.09,485.44 494.51,479.33 496.92,480.17 499.34,488.84 501.76,470.35 504.18,487.68 506.59,479.80 509.01,474.93 511.43,489.05 513.85,499.46 516.26,502.83 518.68,528.03 521.10,527.67 523.52,537.16 525.93,551.85 528.35,540.81 530.77,535.76 533.19,527.50 535.60,503.29 538.02,484.48 540.44,465.72 542.86,474.69 545.27,476.81 547.69,464.09 550.11,462.20 552.53,480.43 554.95,504.44 557.36,509.33 559.78,504.37 562.20,515.16 564.62,518.24 567.03,518.35 569.45,499.54 571.87,498.20 574.29,510.21 576.70,517.95 579.12,515.00 581.54,525.64 583.96,530.53 586.37,534.96 588.79,521.93 591.21,525.95 593.63,522.40 596.04,513.48 598.46,526.24 600.88,507.66 603.30,532.86 605.71,538.15 608.13,536.48 610.55,546.00 612.97,556.40 615.38,541.32 617.80,561.44 620.22,552.01 622.64,546.57 625.05,536.07 627.47,522.74 629.89,514.07 632.31,515.44 634.73,505.72 637.14,410.61 639.56,399.95 641.98,418.45 644.40,431.14 646.81,444.25 649.23,455.21 651.65,463.98 654.07,575.54 656.48,600.00 658.90,594.03 661.32,580.21 663.74,566.29 666.15,561.96 668.57,540.23 670.99,503.28 673.41,498.85 675.82,494.19 678.24,494.89 680.66,497.85 683.08,494.23 685.49,499.76 687.91,508.32 690.33,509.50 692.75,497.73 695.16,488.24 697.58,481.14 700.00,475.25 702.42,471.46 704.84,490.04 707.25,485.64 709.67,486.96 712.09,490.63 714.51,517.35 716.92,514.89 719.34,512.08 721.76,512.27 724.18,482.10 726.59,482.53 729.01,483.69 731.43,473.27 733.85,500.87 736.26,507.45 738.68,511.42 741.10,552.72 743.52,535.64 745.93,508.50 748.35,495.25 750.77,471.77 753.19,478.26 755.60,458.08 758.02,445.30 760.44,454.06 762.86,476.53 765.27,460.35 767.69,442.65 770.11,448.32 772.53,449.81 774.95,450.41 777.36,447.59 779.78,450.10 782.20,447.43 784.62,463.89 787.03,458.73 789.45,440.37 791.87,441.83 794.29,448.86 796.70,451.20 799.12,466.88 801.54,471.67 803.96,470.95 806.37,467.38 808.79,427.46 811.21,435.17 813.63,421.90 816.04,409.63 818.46,404.90 820.88,402.81 823.30,344.65 825.71,387.83 828.13,380.21 830.55,405.45 832.97,421.71 835.38,431.04 837.80,444.44 840.22,540.09 842.64,542.28 845.05,547.48 847.47,544.14 849.89,536.18 852.31,526.39 854.73,517.36 857.14,498.99 859.56,488.49 861.98,485.52 864.40,474.35 866.81,470.29 869.23,453.71 871.65,446.93 874.07,426.97 876.48,416.18 878.90,414.37 881.32,409.15 883.74,415.10 886.15,421.57 888.57,429.35 890.99,468.34 893.41,478.53 895.82,482.01 898.24,486.06 900.66,481.64 903.08,485.97 905.49,470.60 907.91,458.03 910.33,442.87 912.75,429.08 915.16,436.94 917.58,433.93 920.00,445.35" fill="none" stroke="#60a5fa" stroke-width="2" stroke-linecap="round" stroke-linejoin="round" />
  
  
  </svg>