<svg xmlns="http://www.w3.org/2000/svg" viewBox="0 0 960 720" width="960" height="720">
<rect width="960" height="720" fill="#0f172a" />
<text x="480" y="28" fill="#e2e8f0" font-size="16" font-weight="700" text-anchor="middle">步数趋势图</text>
<text x="70" y="70" fill="#e2e8f0" font-size="13" font-weight="600">本月分天指标明细</text>
<line x1="70" y1="323.00" x2="930" y2="323.00" stroke="#94a3b8" stroke-opacity="0.18" stroke-width="1" />
<text x="62" y="327.00" fill="#cbd5f5" font-size="10" text-anchor="end">1809</text>
<line x1="70" y1="260.75" x2="930" y2="260.75" stroke="#94a3b8" stroke-opacity="0.18" stroke-width="1" />
<text x="62" y="264.75" fill="#cbd5f5" font-size="10" text-anchor="end">9969</text>
<line x1="70" y1="198.50" x2="930" y2="198.50" stroke="#94a3b8" stroke-opacity="0.18" stroke-width="1" />
<text x="62" y="202.50" fill="#cbd5f5" font-size="10" text-anchor="end">18129</text>
<line x1="70" y1="136.25" x2="930" y2="136.25" stroke="#94a3b8" stroke-opacity="0.18" stroke-width="1" />
<text x="62" y="140.25" fill="#cbd5f5" font-size="10" text-anchor="end">26289</text>
<line x1="70" y1="74.00" x2="930" y2="74.00" stroke="#94a3b8" stroke-opacity="0.18" stroke-width="1" />
<text x="62" y="78.00" fill="#cbd5f5" font-size="10" text-anchor="end">34449</text>
<line x1="70.00" y1="323" x2="70.00" y2="327" stroke="#94a3b8" stroke-opacity="0.5" stroke-width="1" />
<text x="70.00" y="341" fill="#cbd5f5" font-size="10" text-anchor="middle">11-22</text>
<line x1="242.00" y1="323" x2="242.00" y2="327" stroke="#94a3b8" stroke-opacity="0.5" stroke-width="1" />
<text x="242.00" y="341" fill="#cbd5f5" font-size="10" text-anchor="middle">11-27</text>
<line x1="414.00" y1="323" x2="414.00" y2="327" stroke="#94a3b8" stroke-opacity="0.5" stroke-width="1" />
<text x="414.00" y="341" fill="#cbd5f5" font-size="10" text-anchor="middle">12-03</text>
<line x1="586.00" y1="323" x2="586.00" y2="327" stroke="#94a3b8" stroke-opacity="0.5" stroke-width="1" />
<text x="586.00" y="341" fill="#cbd5f5" font-size="10" text-anchor="middle">12-09</text>
<line x1="758.00" y1="323" x2="758.00" y2="327" stroke="#94a3b8" stroke-opacity="0.5" stroke-width="1" />
<text x="758.00" y="341" fill="#cbd5f5" font-size="10" text-anchor="middle">12-15</text>
<line x1="930.00" y1="323" x2="930.00" y2="327" stroke="#94a3b8" stroke-opacity="0.5" stroke-width="1" />
<text x="930.00" y="341" fill="#cbd5f5" font-size="10" text-anchor="middle">12-21</text>
<line x1="70" y1="74" x2="70" y2="323" stroke="#94a3b8" stroke-width="1" />
<line x1="70" y1="323" x2="930" y2="323" stroke="#94a3b8" stroke-width="1" />
<path d="M70.00,206.60 L99.66,245.74 L129.31,215.21 L158.97,196.50 L188.62,174.29 L218.28,145.65 L247.93,212.48 L277.59,123.72 L307.24,200.99 L336.90,207.70 L366.55,174.83 L396.21,198.96 L425.86,172.52 L455.52,244.77 L485.17,285.61 L514.83,243.29 L544.48,222.13 L574.14,191.66 L603.79,180.60 L633.45,190.47 L663.10,180.97 L692.76,233.44 L722.41,180.36 L752.07,164.89 L781.72,224.28 L811.38,168.10 L841.03,237.44 L870.69,235.11 L900.34,94.75 L930.00,302.25" fill="none" stroke="#60a5fa" stroke-width="2.2" stroke-linecap="round" />
<circle cx="70.00" cy="206.60" r="3" fill="#60a5fa" stroke="#0f172a" stroke-width="1" />
<text x="70.00" y="196.60" fill="#e2e8f0" font-size="9" text-anchor="middle">17067</text>
<circle cx="99.66" cy="245.74" r="3" fill="#60a5fa" stroke="#0f172a" stroke-width="1" />
<text x="99.66" y="225.74" fill="#e2e8f0" font-size="9" text-anchor="middle">11936</text>
<circle cx="129.31" cy="215.21" r="3" fill="#60a5fa" stroke="#0f172a" stroke-width="1" />
<text x="129.31" y="205.21" fill="#e2e8f0" font-size="9" text-anchor="middle">15938</text>
<circle cx="158.97" cy="196.50" r="3" fill="#60a5fa" stroke="#0f172a" stroke-width="1" />
<text x="158.97" y="176.50" fill="#e2e8f0" font-size="9" text-anchor="middle">18391</text>
<circle cx="188.62" cy="174.29" r="3" fill="#60a5fa" stroke="#0f172a" stroke-width="1" />
<text x="188.62" y="164.29" fill="#e2e8f0" font-size="9" text-anchor="middle">21303</text>
<circle cx="218.28" cy="145.65" r="3" fill="#60a5fa" stroke="#0f172a" stroke-width="1" />
<text x="218.28" y="125.65" fill="#e2e8f0" font-size="9" text-anchor="middle">25057</text>
<circle cx="247.93" cy="212.48" r="3" fill="#60a5fa" stroke="#0f172a" stroke-width="1" />
<text x="247.93" y="202.48" fill="#e2e8f0" font-size="9" text-anchor="middle">16297</text>
<circle cx="277.59" cy="123.72" r="3" fill="#60a5fa" stroke="#0f172a" stroke-width="1" />
<text x="277.59" y="103.72" fill="#e2e8f0" font-size="9" text-anchor="middle">27932</text>
<circle cx="307.24" cy="200.99" r="3" fill="#60a5fa" stroke="#0f172a" stroke-width="1" />
<text x="307.24" y="190.99" fill="#e2e8f0" font-size="9" text-anchor="middle">17803</text>
<circle cx="336.90" cy="207.70" r="3" fill="#60a5fa" stroke="#0f172a" stroke-width="1" />
<text x="336.90" y="187.70" fill="#e2e8f0" font-size="9" text-anchor="middle">16923</text>
<circle cx="366.55" cy="174.83" r="3" fill="#60a5fa" stroke="#0f172a" stroke-width="1" />
<text x="366.55" y="164.83" fill="#e2e8f0" font-size="9" text-anchor="middle">21232</text>
<circle cx="396.21" cy="198.96" r="3" fill="#60a5fa" stroke="#0f172a" stroke-width="1" />
<text x="396.21" y="178.96" fill="#e2e8f0" font-size="9" text-anchor="middle">18069</text>
<circle cx="425.86" cy="172.52" r="3" fill="#60a5fa" stroke="#0f172a" stroke-width="1" />
<text x="425.86" y="162.52" fill="#e2e8f0" font-size="9" text-anchor="middle">21535</text>
<circle cx="455.52" cy="244.77" r="3" fill="#60a5fa" stroke="#0f172a" stroke-width="1" />
<text x="455.52" y="224.77" fill="#e2e8f0" font-size="9" text-anchor="middle">12064</text>
<circle cx="485.17" cy="285.61" r="3" fill="#60a5fa" stroke="#0f172a" stroke-width="1" />
<text x="485.17" y="275.61" fill="#e2e8f0" font-size="9" text-anchor="middle">6710</text>
<circle cx="514.83" cy="243.29" r="3" fill="#60a5fa" stroke="#0f172a" stroke-width="1" />
<text x="514.83" y="223.29" fill="#e2e8f0" font-size="9" text-anchor="middle">12258</text>
<circle cx="544.48" cy="222.13" r="3" fill="#60a5fa" stroke="#0f172a" stroke-width="1" />
<text x="544.48" y="212.13" fill="#e2e8f0" font-size="9" text-anchor="middle">15032</text>
<circle cx="574.14" cy="191.66" r="3" fill="#60a5fa" stroke="#0f172a" stroke-width="1" />
<text x="574.14" y="171.66" fill="#e2e8f0" font-size="9" text-anchor="middle">19025</text>
<circle cx="603.79" cy="180.60" r="3" fill="#60a5fa" stroke="#0f172a" stroke-width="1" />
<text x="603.79" y="170.60" fill="#e2e8f0" font-size="9" text-anchor="middle">20476</text>
<circle cx="633.45" cy="190.47" r="3" fill="#60a5fa" stroke="#0f172a" stroke-width="1" />
<text x="633.45" y="170.47" fill="#e2e8f0" font-size="9" text-anchor="middle">19182</text>
<circle cx="663.10" cy="180.97" r="3" fill="#60a5fa" stroke="#0f172a" stroke-width="1" />
<text x="663.10" y="170.97" fill="#e2e8f0" font-size="9" text-anchor="middle">20427</text>
<circle cx="692.76" cy="233.44" r="3" fill="#60a5fa" stroke="#0f172a" stroke-width="1" />
<text x="692.76" y="213.44" fill="#e2e8f0" font-size="9" text-anchor="middle">13549</text>
<circle cx="722.41" cy="180.36" r="3" fill="#60a5fa" stroke="#0f172a" stroke-width="1" />
<text x="722.41" y="170.36" fill="#e2e8f0" font-size="9" text-anchor="middle">20507</text>
<circle cx="752.07" cy="164.89" r="3" fill="#60a5fa" stroke="#0f172a" stroke-width="1" />
<text x="752.07" y="144.89" fill="#e2e8f0" font-size="9" text-anchor="middle">22535</text>
<circle cx="781.72" cy="224.28" r="3" fill="#60a5fa" stroke="#0f172a" stroke-width="1" />
<text x="781.72" y="214.28" fill="#e2e8f0" font-size="9" text-anchor="middle">14749</text>
<circle cx="811.38" cy="168.10" r="3" fill="#60a5fa" stroke="#0f172a" stroke-width="1" />
<text x="811.38" y="148.10" fill="#e2e8f0" font-size="9" text-anchor="middle">22114</text>
<circle cx="841.03" cy="237.44" r="3" fill="#60a5fa" stroke="#0f172a" stroke-width="1" />
<text x="841.03" y="227.44" fill="#e2e8f0" font-size="9" text-anchor="middle">13024</text>
<circle cx="870.69" cy="235.11" r="3" fill="#60a5fa" stroke="#0f172a" stroke-width="1" />
<text x="870.69" y="215.11" fill="#e2e8f0" font-size="9" text-anchor="middle">13330</text>
<circle cx="900.34" cy="94.75" r="3" fill="#60a5fa" stroke="#0f172a" stroke-width="1" />
<text x="900.34" y="84.75" fill="#e2e8f0" font-size="9" text-anchor="middle">31729</text>
<circle cx="930.00" cy="302.25" r="3" fill="#60a5fa" stroke="#0f172a" stroke-width="1" />
<text x="930.00" y="282.25" fill="#e2e8f0" font-size="9" text-anchor="middle">4529</text>
<text x="70" y="403" fill="#e2e8f0" font-size="13" font-weight="600">本年核心指标趋势（滑动7日窗口平均）</text>
<line x1="70" y1="656.00" x2="930" y2="656.00" stroke="#94a3b8" stroke-opacity="0.18" stroke-width="1" />
<text x="62" y="660.00" fill="#cbd5f5" font-size="10" text-anchor="end">4046</text>
<line x1="70" y1="593.75" x2="930" y2="593.75" stroke="#94a3b8" stroke-opacity="0.18" stroke-width="1" />
<text x="62" y="597.75" fill="#cbd5f5" font-size="10" text-anchor="end">10203</text>
<line x1="70" y1="531.50" x2="930" y2="531.50" stroke="#94a3b8" stroke-opacity="0.18" stroke-width="1" />
<text x="62" y="535.50" fill="#cbd5f5" font-size="10" text-anchor="end">16361</text>
<line x1="70" y1="469.25" x2="930" y2="469.25" stroke="#94a3b8" stroke-opacity="0.18" stroke-width="1" />
<text x="62" y="473.25" fill="#cbd5f5" font-size="10" text-anchor="end">22518</text>
<line x1="70" y1="407.00" x2="930" y2="407.00" stroke="#94a3b8" stroke-opacity="0.18" stroke-width="1" />
<text x="62" y="411.00" fill="#cbd5f5" font-size="10" text-anchor="end">28675</text>
<line x1="70.00" y1="656" x2="70.00" y2="660" stroke="#94a3b8" stroke-opacity="0.5" stroke-width="1" />
<text x="70.00" y="674" fill="#cbd5f5" font-size="10" text-anchor="middle">2024-12</text>
<line x1="242.00" y1="656" x2="242.00" y2="660" stroke="#94a3b8" stroke-opacity="0.5" stroke-width="1" />
<text x="242.00" y="674" fill="#cbd5f5" font-size="10" text-anchor="middle">2025-03</text>
<line x1="414.00" y1="656" x2="414.00" y2="660" stroke="#94a3b8" stroke-opacity="0.5" stroke-width="1" />
<text x="414.00" y="674" fill="#cbd5f5" font-size="10" text-anchor="middle">2025-05</text>
<line x1="586.00" y1="656" x2="586.00" y2="660" stroke="#94a3b8" stroke-opacity="0.5" stroke-width="1" />
<text x="586.00" y="674" fill="#cbd5f5" font-size="10" text-anchor="middle">2025-07</text>
<line x1="758.00" y1="656" x2="758.00" y2="660" stroke="#94a3b8" stroke-opacity="0.5" stroke-width="1" />
<text x="758.00" y="674" fill="#cbd5f5" font-size="10" text-anchor="middle">2025-10</text>
<line x1="930.00" y1="656" x2="930.00" y2="660" stroke="#94a3b8" stroke-opacity="0.5" stroke-width="1" />
<text x="930.00" y="674" fill="#cbd5f5" font-size="10" text-anchor="middle">2025-12</text>
<line x1="70" y1="407" x2="70" y2="656" stroke="#94a3b8" stroke-width="1" />
<line x1="70" y1="656" x2="930" y2="656" stroke="#94a3b8" stroke-width="1" />
<path d="M70.00,656.00 L70.00,626.79 L72.36,596.58 L74.73,587.99 L77.09,587.64 L79.45,597.34 L81.81,597.49 L84.18,570.38 L86.54,558.24 L88.90,565.76 L91.26,572.65 L93.63,573.56 L95.99,562.83 L98.35,565.23 L100.71,592.25 L103.08,570.15 L105.44,561.68 L107.80,563.37 L110.16,559.02 L112.53,559.34 L114.89,546.24 L117.25,550.01 L119.62,571.88 L121.98,567.70 L124.34,556.06 L126.70,553.16 L129.07,559.30 L131.43,565.89 L133.79,563.45 L136.15,575.22 L138.52,567.97 L140.88,575.67 L143.24,581.28 L145.60,580.66 L147.97,573.27 L150.33,572.79 L152.69,567.75 L155.05,596.09 L157.42,596.66 L159.78,592.27 L162.14,601.44 L164.51,575.07 L166.87,544.58 L169.23,558.76 L171.59,541.39 L173.96,539.19 L176.32,537.69 L178.68,531.60 L181.04,572.32 L183.41,595.54 L185.77,586.86 L188.13,581.79 L190.49,581.83 L192.86,583.72 L195.22,580.31 L197.58,569.66 L199.95,580.39 L202.31,567.57 L204.67,574.08 L207.03,573.60 L209.40,571.87 L211.76,569.22 L214.12,569.39 L216.48,566.44 L218.85,569.80 L221.21,566.84 L223.57,557.49 L225.93,556.72 L228.30,551.38 L230.66,557.01 L233.02,549.10 L235.38,508.23 L237.75,509.65 L240.11,508.87 L242.47,507.94 L244.84,478.46 L247.20,458.68 L249.56,427.75 L251.92,474.70 L254.29,472.86 L256.65,468.60 L259.01,464.09 L261.37,489.64 L263.74,503.75 L266.10,542.56 L268.46,532.06 L270.82,537.16 L273.19,549.73 L275.55,546.00 L277.91,544.10 L280.27,542.18 L282.64,525.04 L285.00,512.28 L287.36,507.55 L289.73,498.15 L292.09,506.62 L294.45,484.36 L296.81,487.40 L299.18,497.08 L301.54,514.17 L303.90,505.57 L306.26,497.95 L308.63,490.63 L310.99,514.35 L313.35,487.00 L315.71,449.38 L318.08,450.39 L320.44,461.51 L322.80,465.19 L325.16,461.20 L327.53,455.28 L329.89,472.73 L332.25,519.35 L334.62,526.84 L336.98,514.30 L339.34,514.95 L341.70,519.12 L344.07,516.71 L346.43,524.31 L348.79,483.51 L351.15,479.58 L353.52,490.52 L355.88,498.75 L358.24,499.36 L360.60,501.67 L362.97,496.60 L365.33,522.45 L367.69,513.03 L370.05,511.78 L372.42,495.92 L374.78,489.35 L377.14,512.00 L379.51,513.79 L381.87,489.33 L384.23,474.14 L386.59,467.83 L388.96,487.78 L391.32,503.87 L393.68,474.04 L396.04,484.64 L398.41,506.88 L400.77,494.77 L403.13,496.34 L405.49,484.94 L407.86,480.77 L410.22,489.99 L412.58,484.65 L414.95,500.93 L417.31,538.83 L419.67,541.80 L422.03,545.35 L424.40,546.67 L426.76,555.00 L429.12,552.70 L431.48,533.42 L433.85,527.13 L436.21,519.67 L438.57,529.48 L440.93,528.40 L443.30,531.48 L445.66,534.33 L448.02,558.46 L450.38,564.81 L452.75,588.55 L455.11,585.68 L457.47,588.36 L459.84,589.40 L462.20,599.87 L464.56,599.77 L466.92,604.20 L469.29,594.77 L471.65,595.86 L474.01,592.05 L476.37,587.03 L478.74,566.60 L481.10,558.56 L483.46,547.15 L485.82,544.38 L488.19,545.47 L490.55,550.96 L492.91,547.97 L495.27,560.26 L497.64,557.95 L500.00,554.41 L502.36,560.72 L504.73,545.21 L507.09,540.40 L509.45,541.07 L511.81,547.88 L514.18,533.35 L516.54,546.97 L518.90,540.77 L521.26,536.95 L523.63,548.04 L525.99,556.23 L528.35,558.88 L530.71,578.69 L533.08,578.40 L535.44,585.86 L537.80,597.41 L540.16,588.73 L542.53,584.76 L544.89,578.27 L547.25,559.24 L549.62,544.45 L551.98,529.71 L554.34,536.76 L556.70,538.42 L559.07,528.42 L561.43,526.94 L563.79,541.27 L566.15,560.14 L568.52,563.99 L570.88,560.09 L573.24,568.57 L575.60,570.99 L577.97,571.08 L580.33,556.29 L582.69,555.23 L585.05,564.68 L587.42,570.76 L589.78,568.44 L592.14,576.80 L594.51,580.64 L596.87,584.13 L599.23,573.88 L601.59,577.05 L603.96,574.26 L606.32,567.25 L608.68,577.27 L611.04,562.67 L613.41,582.48 L615.77,586.63 L618.13,585.33 L620.49,592.81 L622.86,600.98 L625.22,589.13 L627.58,604.95 L629.95,597.53 L632.31,593.26 L634.67,585.00 L637.03,574.52 L639.40,567.71 L641.76,568.79 L644.12,561.15 L646.48,486.39 L648.85,478.01 L651.21,492.55 L653.57,502.53 L655.93,512.83 L658.30,521.45 L660.66,528.34 L663.02,616.02 L665.38,635.25 L667.75,630.56 L670.11,619.69 L672.47,608.75 L674.84,605.35 L677.20,588.27 L679.56,559.23 L681.92,555.75 L684.29,552.09 L686.65,552.64 L689.01,554.96 L691.37,552.12 L693.74,556.46 L696.10,563.19 L698.46,564.12 L700.82,554.87 L703.19,547.41 L705.55,541.83 L707.91,537.20 L710.27,534.22 L712.64,548.82 L715.00,545.37 L717.36,546.40 L719.73,549.29 L722.09,570.29 L724.45,568.35 L726.81,566.15 L729.18,566.29 L731.54,542.58 L733.90,542.92 L736.26,543.84 L738.63,535.64 L740.99,557.34 L743.35,562.50 L745.71,565.63 L748.08,598.09 L750.44,584.66 L752.80,563.33 L755.16,552.92 L757.53,534.46 L759.89,539.56 L762.25,523.70 L764.62,513.66 L766.98,520.54 L769.34,538.20 L771.70,525.49 L774.07,511.58 L776.43,516.03 L778.79,517.20 L781.15,517.67 L783.52,515.46 L785.88,517.43 L788.24,515.33 L790.60,528.27 L792.97,524.21 L795.33,509.78 L797.69,510.93 L800.05,516.46 L802.42,518.30 L804.78,530.62 L807.14,534.39 L809.51,533.82 L811.87,531.01 L814.23,499.63 L816.59,505.69 L818.96,495.27 L821.32,485.63 L823.68,481.90 L826.04,480.26 L828.41,434.55 L830.77,468.48 L833.13,462.50 L835.49,482.34 L837.86,495.11 L840.22,502.45 L842.58,512.98 L844.95,588.16 L847.31,589.88 L849.67,593.97 L852.03,591.35 L854.40,585.09 L856.76,577.39 L859.12,570.30 L861.48,555.86 L863.85,547.61 L866.21,545.27 L868.57,536.49 L870.93,533.30 L873.30,520.27 L875.66,514.94 L878.02,499.25 L880.38,490.77 L882.75,489.35 L885.11,485.25 L887.47,489.92 L889.84,495.01 L892.20,501.12 L894.56,531.77 L896.92,539.78 L899.29,542.51 L901.65,545.70 L904.01,542.22 L906.37,545.62 L908.74,533.54 L911.10,523.66 L913.46,511.75 L915.82,500.91 L918.19,507.09 L920.55,504.72 L922.91,513.62 L925.27,523.87 L927.64,497.61 L930.00,520.69 L930.00,656.00 Z" fill="#60a5fa" fill-opacity="0.16" stroke="none" />
<path d="M70.00,626.79 L72.36,596.58 L74.73,587.99 L77.09,587.64 L79.45,597.34 L81.81,597.49 L84.18,570.38 L86.54,558.24 L88.90,565.76 L91.26,572.65 L93.63,573.56 L95.99,562.83 L98.35,565.23 L100.71,592.25 L103.08,570.15 L105.44,561.68 L107.80,563.37 L110.16,559.02 L112.53,559.34 L114.89,546.24 L117.25,550.01 L119.62,571.88 L121.98,567.70 L124.34,556.06 L126.70,553.16 L129.07,559.30 L131.43,565.89 L133.79,563.45 L136.15,575.22 L138.52,567.97 L140.88,575.67 L143.24,581.28 L145.60,580.66 L147.97,573.27 L150.33,572.79 L152.69,567.75 L155.05,596.09 L157.42,596.66 L159.78,592.27 L162.14,601.44 L164.51,575.07 L166.87,544.58 L169.23,558.76 L171.59,541.39 L173.96,539.19 L176.32,537.69 L178.68,531.60 L181.04,572.32 L183.41,595.54 L185.77,586.86 L188.13,581.79 L190.49,581.83 L192.86,583.72 L195.22,580.31 L197.58,569.66 L199.95,580.39 L202.31,567.57 L204.67,574.08 L207.03,573.60 L209.40,571.87 L211.76,569.22 L214.12,569.39 L216.48,566.44 L218.85,569.80 L221.21,566.84 L223.57,557.49 L225.93,556.72 L228.30,551.38 L230.66,557.01 L233.02,549.10 L235.38,508.23 L237.75,509.65 L240.11,508.87 L242.47,507.94 L244.84,478.46 L247.20,458.68 L249.56,427.75 L251.92,474.70 L254.29,472.86 L256.65,468.60 L259.01,464.09 L261.37,489.64 L263.74,503.75 L266.10,542.56 L268.46,532.06 L270.82,537.16 L273.19,549.73 L275.55,546.00 L277.91,544.10 L280.27,542.18 L282.64,525.04 L285.00,512.28 L287.36,507.55 L289.73,498.15 L292.09,506.62 L294.45,484.36 L296.81,487.40 L299.18,497.08 L301.54,514.17 L303.90,505.57 L306.26,497.95 L308.63,490.63 L310.99,514.35 L313.35,487.00 L315.71,449.38 L318.08,450.39 L320.44,461.51 L322.80,465.19 L325.16,461.20 L327.53,455.28 L329.89,472.73 L332.25,519.35 L334.62,526.84 L336.98,514.30 L339.34,514.95 L341.70,519.12 L344.07,516.71 L346.43,524.31 L348.79,483.51 L351.15,479.58 L353.52,490.52 L355.88,498.75 L358.24,499.36 L360.60,501.67 L362.97,496.60 L365.33,522.45 L367.69,513.03 L370.05,511.78 L372.42,495.92 L374.78,489.35 L377.14,512.00 L379.51,513.79 L381.87,489.33 L384.23,474.14 L386.59,467.83 L388.96,487.78 L391.32,503.87 L393.68,474.04 L396.04,484.64 L398.41,506.88 L400.77,494.77 L403.13,496.34 L405.49,484.94 L407.86,480.77 L410.22,489.99 L412.58,484.65 L414.95,500.93 L417.31,538.83 L419.67,541.80 L422.03,545.35 L424.40,546.67 L426.76,555.00 L429.12,552.70 L431.48,533.42 L433.85,527.13 L436.21,519.67 L438.57,529.48 L440.93,528.40 L443.30,531.48 L445.66,534.33 L448.02,558.46 L450.38,564.81 L452.75,588.55 L455.11,585.68 L457.47,588.36 L459.84,589.40 L462.20,599.87 L464.56,599.77 L466.92,604.20 L469.29,594.77 L471.65,595.86 L474.01,592.05 L476.37,587.03 L478.74,566.60 L481.10,558.56 L483.46,547.15 L485.82,544.38 L488.19,545.47 L490.55,550.96 L492.91,547.97 L495.27,560.26 L497.64,557.95 L500.00,554.41 L502.36,560.72 L504.73,545.21 L507.09,540.40 L509.45,541.07 L511.81,547.88 L514.18,533.35 L516.54,546.97 L518.90,540.77 L521.26,536.95 L523.63,548.04 L525.99,556.23 L528.35,558.88 L530.71,578.69 L533.08,578.40 L535.44,585.86 L537.80,597.41 L540.16,588.73 L542.53,584.76 L544.89,578.27 L547.25,559.24 L549.62,544.45 L551.98,529.71 L554.34,536.76 L556.70,538.42 L559.07,528.42 L561.43,526.94 L563.79,541.27 L566.15,560.14 L568.52,563.99 L570.88,560.09 L573.24,568.57 L575.60,570.99 L577.97,571.08 L580.33,556.29 L582.69,555.23 L585.05,564.68 L587.42,570.76 L589.78,568.44 L592.14,576.80 L594.51,580.64 L596.87,584.13 L599.23,573.88 L601.59,577.05 L603.96,574.26 L606.32,567.25 L608.68,577.27 L611.04,562.67 L613.41,582.48 L615.77,586.63 L618.13,585.33 L620.49,592.81 L622.86,600.98 L625.22,589.13 L627.58,604.95 L629.95,597.53 L632.31,593.26 L634.67,585.00 L637.03,574.52 L639.40,567.71 L641.76,568.79 L644.12,561.15 L646.48,486.39 L648.85,478.01 L651.21,492.55 L653.57,502.53 L655.93,512.83 L658.30,521.45 L660.66,528.34 L663.02,616.02 L665.38,635.25 L667.75,630.56 L670.11,619.69 L672.47,608.75 L674.84,605.35 L677.20,588.27 L679.56,559.23 L681.92,555.75 L684.29,552.09 L686.65,552.64 L689.01,554.96 L691.37,552.12 L693.74,556.46 L696.10,563.19 L698.46,564.12 L700.82,554.87 L703.19,547.41 L705.55,541.83 L707.91,537.20 L710.27,534.22 L712.64,548.82 L715.00,545.37 L717.36,546.40 L719.73,549.29 L722.09,570.29 L724.45,568.35 L726.81,566.15 L729.18,566.29 L731.54,542.58 L733.90,542.92 L736.26,543.84 L738.63,535.64 L740.99,557.34 L743.35,562.50 L745.71,565.63 L748.08,598.09 L750.44,584.66 L752.80,563.33 L755.16,552.92 L757.53,534.46 L759.89,539.56 L762.25,523.70 L764.62,513.66 L766.98,520.54 L769.34,538.20 L771.70,525.49 L774.07,511.58 L776.43,516.03 L778.79,517.20 L781.15,517.67 L783.52,515.46 L785.88,517.43 L788.24,515.33 L790.60,528.27 L792.97,524.21 L795.33,509.78 L797.69,510.93 L800.05,516.46 L802.42,518.30 L804.78,530.62 L807.14,534.39 L809.51,533.82 L811.87,531.01 L814.23,499.63 L816.59,505.69 L818.96,495.27 L821.32,485.63 L823.68,481.90 L826.04,480.26 L828.41,434.55 L830.77,468.48 L833.13,462.50 L835.49,482.34 L837.86,495.11 L840.22,502.45 L842.58,512.98 L844.95,588.16 L847.31,589.88 L849.67,593.97 L852.03,591.35 L854.40,585.09 L856.76,577.39 L859.12,570.30 L861.48,555.86 L863.85,547.61 L866.21,545.27 L868.57,536.49 L870.93,533.30 L873.30,520.27 L875.66,514.94 L878.02,499.25 L880.38,490.77 L882.75,489.35 L885.11,485.25 L887.47,489.92 L889.84,495.01 L892.20,501.12 L894.56,531.77 L896.92,539.78 L899.29,542.51 L901.65,545.70 L904.01,542.22 L906.37,545.62 L908.74,533.54 L911.10,523.66 L913.46,511.75 L915.82,500.91 L918.19,507.09 L920.55,504.72 L922.91,513.62 L925.27,523.87 L927.64,497.61 L930.00,520.69" fill="none" stroke="#60a5fa" stroke-width="2.2" stroke-linecap="round" />
</svg>
