<svg xmlns="http://www.w3.org/2000/svg" viewBox="0 0 960 720" width="960" height="720">
<rect width="960" height="720" fill="#0f172a" />
<text x="480" y="28" fill="#e2e8f0" font-size="16" font-weight="700" text-anchor="middle">行走速度均值趋势图</text>
<text x="70" y="70" fill="#e2e8f0" font-size="13" font-weight="600">本月分天指标明细</text>
<line x1="70" y1="323.00" x2="930" y2="323.00" stroke="#94a3b8" stroke-opacity="0.18" stroke-width="1" />
<text x="62" y="327.00" fill="#cbd5f5" font-size="10" text-anchor="end">3.4</text>
<line x1="70" y1="260.75" x2="930" y2="260.75" stroke="#94a3b8" stroke-opacity="0.18" stroke-width="1" />
<text x="62" y="264.75" fill="#cbd5f5" font-size="10" text-anchor="end">3.78</text>
<line x1="70" y1="198.50" x2="930" y2="198.50" stroke="#94a3b8" stroke-opacity="0.18" stroke-width="1" />
<text x="62" y="202.50" fill="#cbd5f5" font-size="10" text-anchor="end">4.16</text>
<line x1="70" y1="136.25" x2="930" y2="136.25" stroke="#94a3b8" stroke-opacity="0.18" stroke-width="1" />
<text x="62" y="140.25" fill="#cbd5f5" font-size="10" text-anchor="end">4.54</text>
<line x1="70" y1="74.00" x2="930" y2="74.00" stroke="#94a3b8" stroke-opacity="0.18" stroke-width="1" />
<text x="62" y="78.00" fill="#cbd5f5" font-size="10" text-anchor="end">4.92</text>
<line x1="70.00" y1="323" x2="70.00" y2="327" stroke="#94a3b8" stroke-opacity="0.5" stroke-width="1" />
<text x="70.00" y="341" fill="#cbd5f5" font-size="10" text-anchor="middle">11-22</text>
<line x1="242.00" y1="323" x2="242.00" y2="327" stroke="#94a3b8" stroke-opacity="0.5" stroke-width="1" />
<text x="242.00" y="341" fill="#cbd5f5" font-size="10" text-anchor="middle">11-27</text>
<line x1="414.00" y1="323" x2="414.00" y2="327" stroke="#94a3b8" stroke-opacity="0.5" stroke-width="1" />
<text x="414.00" y="341" fill="#cbd5f5" font-size="10" text-anchor="middle">12-03</text>
<line x1="586.00" y1="323" x2="586.00" y2="327" stroke="#94a3b8" stroke-opacity="0.5" stroke-width="1" />
<text x="586.00" y="341" fill="#cbd5f5" font-size="10" text-anchor="middle">12-09</text>
<line x1="758.00" y1="323" x2="758.00" y2="327" stroke="#94a3b8" stroke-opacity="0.5" stroke-width="1" />
<text x="758.00" y="341" fill="#cbd5f5" font-size="10" text-anchor="middle">12-15</text>
<line x1="930.00" y1="323" x2="930.00" y2="327" stroke="#94a3b8" stroke-opacity="0.5" stroke-width="1" />
<text x="930.00" y="341" fill="#cbd5f5" font-size="10" text-anchor="middle">12-21</text>
<line x1="70" y1="74" x2="70" y2="323" stroke="#94a3b8" stroke-width="1" />
<line x1="70" y1="323" x2="930" y2="323" stroke="#94a3b8" stroke-width="1" />
<path d="M70.00,231.86 L99.66,197.16 L129.31,142.02 L158.97,230.68 L188.62,206.54 L218.28,166.97 L247.93,106.74 L277.59,247.92 L307.24,262.57 L336.90,208.81 L366.55,180.98 L396.21,205.57 L425.86,198.41 L455.52,229.34 L485.17,168.94 L514.83,265.48 L544.48,169.11 L574.14,283.80 L603.79,252.29 L633.45,202.12 L663.10,188.75 L692.76,153.68 L722.41,254.68 L752.07,153.74 L781.72,203.60 L811.38,207.33 L841.03,189.73 L870.69,182.11 L900.34,238.93 L930.00,290.26" fill="none" stroke="#60a5fa" stroke-width="2.2" stroke-linecap="round" />
<circle cx="70.00" cy="231.86" r="3" fill="#60a5fa" stroke="#0f172a" stroke-width="1" />
<text x="70.00" y="221.86" fill="#e2e8f0" font-size="9" text-anchor="middle">3.95</text>
<circle cx="99.66" cy="197.16" r="3" fill="#60a5fa" stroke="#0f172a" stroke-width="1" />
<text x="99.66" y="177.16" fill="#e2e8f0" font-size="9" text-anchor="middle">4.16</text>
<circle cx="129.31" cy="142.02" r="3" fill="#60a5fa" stroke="#0f172a" stroke-width="1" />
<text x="129.31" y="132.02" fill="#e2e8f0" font-size="9" text-anchor="middle">4.5</text>
<circle cx="158.97" cy="230.68" r="3" fill="#60a5fa" stroke="#0f172a" stroke-width="1" />
<text x="158.97" y="210.68" fill="#e2e8f0" font-size="9" text-anchor="middle">3.96</text>
<circle cx="188.62" cy="206.54" r="3" fill="#60a5fa" stroke="#0f172a" stroke-width="1" />
<text x="188.62" y="196.54" fill="#e2e8f0" font-size="9" text-anchor="middle">4.11</text>
<circle cx="218.28" cy="166.97" r="3" fill="#60a5fa" stroke="#0f172a" stroke-width="1" />
<text x="218.28" y="146.97" fill="#e2e8f0" font-size="9" text-anchor="middle">4.35</text>
<circle cx="247.93" cy="106.74" r="3" fill="#60a5fa" stroke="#0f172a" stroke-width="1" />
<text x="247.93" y="96.74" fill="#e2e8f0" font-size="9" text-anchor="middle">4.72</text>
<circle cx="277.59" cy="247.92" r="3" fill="#60a5fa" stroke="#0f172a" stroke-width="1" />
<text x="277.59" y="227.92" fill="#e2e8f0" font-size="9" text-anchor="middle">3.85</text>
<circle cx="307.24" cy="262.57" r="3" fill="#60a5fa" stroke="#0f172a" stroke-width="1" />
<text x="307.24" y="252.57" fill="#e2e8f0" font-size="9" text-anchor="middle">3.77</text>
<circle cx="336.90" cy="208.81" r="3" fill="#60a5fa" stroke="#0f172a" stroke-width="1" />
<text x="336.90" y="188.81" fill="#e2e8f0" font-size="9" text-anchor="middle">4.09</text>
<circle cx="366.55" cy="180.98" r="3" fill="#60a5fa" stroke="#0f172a" stroke-width="1" />
<text x="366.55" y="170.98" fill="#e2e8f0" font-size="9" text-anchor="middle">4.26</text>
<circle cx="396.21" cy="205.57" r="3" fill="#60a5fa" stroke="#0f172a" stroke-width="1" />
<text x="396.21" y="185.57" fill="#e2e8f0" font-size="9" text-anchor="middle">4.11</text>
<circle cx="425.86" cy="198.41" r="3" fill="#60a5fa" stroke="#0f172a" stroke-width="1" />
<text x="425.86" y="188.41" fill="#e2e8f0" font-size="9" text-anchor="middle">4.16</text>
<circle cx="455.52" cy="229.34" r="3" fill="#60a5fa" stroke="#0f172a" stroke-width="1" />
<text x="455.52" y="209.34" fill="#e2e8f0" font-size="9" text-anchor="middle">3.97</text>
<circle cx="485.17" cy="168.94" r="3" fill="#60a5fa" stroke="#0f172a" stroke-width="1" />
<text x="485.17" y="158.94" fill="#e2e8f0" font-size="9" text-anchor="middle">4.34</text>
<circle cx="514.83" cy="265.48" r="3" fill="#60a5fa" stroke="#0f172a" stroke-width="1" />
<text x="514.83" y="245.48" fill="#e2e8f0" font-size="9" text-anchor="middle">3.75</text>
<circle cx="544.48" cy="169.11" r="3" fill="#60a5fa" stroke="#0f172a" stroke-width="1" />
<text x="544.48" y="159.11" fill="#e2e8f0" font-size="9" text-anchor="middle">4.34</text>
<circle cx="574.14" cy="283.80" r="3" fill="#60a5fa" stroke="#0f172a" stroke-width="1" />
<text x="574.14" y="263.80" fill="#e2e8f0" font-size="9" text-anchor="middle">3.64</text>
<circle cx="603.79" cy="252.29" r="3" fill="#60a5fa" stroke="#0f172a" stroke-width="1" />
<text x="603.79" y="242.29" fill="#e2e8f0" font-size="9" text-anchor="middle">3.83</text>
<circle cx="633.45" cy="202.12" r="3" fill="#60a5fa" stroke="#0f172a" stroke-width="1" />
<text x="633.45" y="182.12" fill="#e2e8f0" font-size="9" text-anchor="middle">4.13</text>
<circle cx="663.10" cy="188.75" r="3" fill="#60a5fa" stroke="#0f172a" stroke-width="1" />
<text x="663.10" y="178.75" fill="#e2e8f0" font-size="9" text-anchor="middle">4.22</text>
<circle cx="692.76" cy="153.68" r="3" fill="#60a5fa" stroke="#0f172a" stroke-width="1" />
<text x="692.76" y="133.68" fill="#e2e8f0" font-size="9" text-anchor="middle">4.43</text>
<circle cx="722.41" cy="254.68" r="3" fill="#60a5fa" stroke="#0f172a" stroke-width="1" />
<text x="722.41" y="244.68" fill="#e2e8f0" font-size="9" text-anchor="middle">3.81</text>
<circle cx="752.07" cy="153.74" r="3" fill="#60a5fa" stroke="#0f172a" stroke-width="1" />
<text x="752.07" y="133.74" fill="#e2e8f0" font-size="9" text-anchor="middle">4.43</text>
<circle cx="781.72" cy="203.60" r="3" fill="#60a5fa" stroke="#0f172a" stroke-width="1" />
<text x="781.72" y="193.60" fill="#e2e8f0" font-size="9" text-anchor="middle">4.13</text>
<circle cx="811.38" cy="207.33" r="3" fill="#60a5fa" stroke="#0f172a" stroke-width="1" />
<text x="811.38" y="187.33" fill="#e2e8f0" font-size="9" text-anchor="middle">4.1</text>
<circle cx="841.03" cy="189.73" r="3" fill="#60a5fa" stroke="#0f172a" stroke-width="1" />
<text x="841.03" y="179.73" fill="#e2e8f0" font-size="9" text-anchor="middle">4.21</text>
<circle cx="870.69" cy="182.11" r="3" fill="#60a5fa" stroke="#0f172a" stroke-width="1" />
<text x="870.69" y="162.11" fill="#e2e8f0" font-size="9" text-anchor="middle">4.26</text>
<circle cx="900.34" cy="238.93" r="3" fill="#60a5fa" stroke="#0f172a" stroke-width="1" />
<text x="900.34" y="228.93" fill="#e2e8f0" font-size="9" text-anchor="middle">3.91</text>
<circle cx="930.00" cy="290.26" r="3" fill="#60a5fa" stroke="#0f172a" stroke-width="1" />
<text x="930.00" y="270.26" fill="#e2e8f0" font-size="9" text-anchor="middle">3.6</text>
<text x="70" y="403" fill="#e2e8f0" font-size="13" font-weight="600">本年核心指标趋势（滑动7日窗口平均）</text>
<line x1="70" y1="656.00" x2="930" y2="656.00" stroke="#94a3b8" stroke-opacity="0.18" stroke-width="1" />
<text x="62" y="660.00" fill="#cbd5f5" font-size="10" text-anchor="end">3.63</text>
<line x1="70" y1="593.75" x2="930" y2="593.75" stroke="#94a3b8" stroke-opacity="0.18" stroke-width="1" />
<text x="62" y="597.75" fill="#cbd5f5" font-size="10" text-anchor="end">3.95</text>
<line x1="70" y1="531.50" x2="930" y2="531.50" stroke="#94a3b8" stroke-opacity="0.18" stroke-width="1" />
<text x="62" y="535.50" fill="#cbd5f5" font-size="10" text-anchor="end">4.26</text>
<line x1="70" y1="469.25" x2="930" y2="469.25" stroke="#94a3b8" stroke-opacity="0.18" stroke-width="1" />
<text x="62" y="473.25" fill="#cbd5f5" font-size="10" text-anchor="end">4.57</text>
<line x1="70" y1="407.00" x2="930" y2="407.00" stroke="#94a3b8" stroke-opacity="0.18" stroke-width="1" />
<text x="62" y="411.00" fill="#cbd5f5" font-size="10" text-anchor="end">4.88</text>
<line x1="70.00" y1="656" x2="70.00" y2="660" stroke="#94a3b8" stroke-opacity="0.5" stroke-width="1" />
<text x="70.00" y="674" fill="#cbd5f5" font-size="10" text-anchor="middle">2024-12</text>
<line x1="242.00" y1="656" x2="242.00" y2="660" stroke="#94a3b8" stroke-opacity="0.5" stroke-width="1" />
<text x="242.00" y="674" fill="#cbd5f5" font-size="10" text-anchor="middle">2025-03</text>
<line x1="414.00" y1="656" x2="414.00" y2="660" stroke="#94a3b8" stroke-opacity="0.5" stroke-width="1" />
<text x="414.00" y="674" fill="#cbd5f5" font-size="10" text-anchor="middle">2025-05</text>
<line x1="586.00" y1="656" x2="586.00" y2="660" stroke="#94a3b8" stroke-opacity="0.5" stroke-width="1" />
<text x="586.00" y="674" fill="#cbd5f5" font-size="10" text-anchor="middle">2025-07</text>
<line x1="758.00" y1="656" x2="758.00" y2="660" stroke="#94a3b8" stroke-opacity="0.5" stroke-width="1" />
<text x="758.00" y="674" fill="#cbd5f5" font-size="10" text-anchor="middle">2025-10</text>
<line x1="930.00" y1="656" x2="930.00" y2="660" stroke="#94a3b8" stroke-opacity="0.5" stroke-width="1" />
<text x="930.00" y="674" fill="#cbd5f5" font-size="10" text-anchor="middle">2025-12</text>
<line x1="70" y1="407" x2="70" y2="656" stroke="#94a3b8" stroke-width="1" />
<line x1="70" y1="656" x2="930" y2="656" stroke="#94a3b8" stroke-width="1" />
<path d="M70.00,656.00 L70.00,453.80 L72.36,446.79 L74.73,474.08 L77.09,476.81 L79.45,454.79 L81.81,461.40 L84.18,468.14 L86.54,485.69 L88.90,493.36 L91.26,487.19 L93.63,492.57 L95.99,503.96 L98.35,498.69 L100.71,494.56 L103.08,480.51 L105.44,481.24 L107.80,474.16 L110.16,467.63 L112.53,472.41 L114.89,476.76 L117.25,489.54 L119.62,499.14 L121.98,494.12 L124.34,504.69 L126.70,506.71 L129.07,505.59 L131.43,497.15 L133.79,498.21 L136.15,487.58 L138.52,487.05 L140.88,486.58 L143.24,489.43 L145.60,495.24 L147.97,502.20 L150.33,491.28 L152.69,501.67 L157.42,516.94 L159.78,537.75 L162.14,557.36 L164.51,574.05 L166.87,572.28 L171.59,569.29 L173.96,554.87 L176.32,548.57 L178.68,548.72 L181.04,532.91 L183.41,520.70 L185.77,520.31 L188.13,523.73 L190.49,533.55 L192.86,523.98 L195.22,507.02 L197.58,498.40 L199.95,497.84 L202.31,506.52 L204.67,513.37 L207.03,509.09 L209.40,510.20 L211.76,491.03 L214.12,490.17 L216.48,491.81 L218.85,487.51 L221.21,488.92 L223.57,485.56 L225.93,492.37 L228.30,506.41 L230.66,512.78 L233.02,513.10 L235.38,524.77 L237.75,514.61 L240.11,512.90 L242.47,507.62 L244.84,504.70 L247.20,496.49 L249.56,500.64 L251.92,504.23 L254.29,496.99 L256.65,504.15 L259.01,524.94 L261.37,538.68 L263.74,547.00 L266.10,534.30 L268.46,524.25 L270.82,536.76 L273.19,541.10 L275.55,519.19 L277.91,511.77 L280.27,506.56 L282.64,521.50 L285.00,521.25 L287.36,520.24 L289.73,511.43 L292.09,503.76 L294.45,504.90 L296.81,509.62 L299.18,498.17 L301.54,489.21 L303.90,485.45 L306.26,498.95 L308.63,516.90 L310.99,519.19 L313.35,520.59 L315.71,525.54 L318.08,527.93 L320.44,534.93 L322.80,529.66 L325.16,535.99 L327.53,533.35 L329.89,540.41 L332.25,530.55 L334.62,542.47 L336.98,544.02 L339.34,540.04 L341.70,532.77 L344.07,527.23 L346.43,519.08 L348.79,530.32 L351.15,523.21 L353.52,513.49 L355.88,515.47 L358.24,522.69 L360.60,525.93 L362.97,521.95 L365.33,529.95 L367.69,523.94 L370.05,531.42 L372.42,526.61 L374.78,523.54 L377.14,544.90 L379.51,559.70 L381.87,563.87 L384.23,589.06 L386.59,593.39 L388.96,601.00 L391.32,593.43 L393.68,568.09 L396.04,560.32 L398.41,548.11 L400.77,531.01 L403.13,522.03 L405.49,517.50 L407.86,514.84 L410.22,521.83 L412.58,519.55 L414.95,515.15 L417.31,521.89 L419.67,533.55 L422.03,536.72 L424.40,541.29 L426.76,546.15 L429.12,553.12 L431.48,554.67 L433.85,551.38 L436.21,536.80 L438.57,527.57 L440.93,523.23 L443.30,521.02 L445.66,509.04 L448.02,494.76 L450.38,493.88 L452.75,532.60 L455.11,533.58 L457.47,540.34 L459.84,534.06 L462.20,539.91 L464.56,555.84 L466.92,555.50 L469.29,525.09 L471.65,519.01 L474.01,511.91 L476.37,508.60 L478.74,508.36 L481.10,509.92 L483.46,514.27 L485.82,516.08 L488.19,534.77 L490.55,539.49 L492.91,549.40 L495.27,548.18 L497.64,560.51 L500.00,563.10 L502.36,560.52 L504.73,555.09 L507.09,552.83 L509.45,552.45 L511.81,561.31 L514.18,541.54 L516.54,545.54 L518.90,546.69 L521.26,548.39 L523.63,545.30 L525.99,536.82 L528.35,540.97 L530.71,556.47 L533.08,556.96 L535.44,554.63 L537.80,553.13 L540.16,560.58 L542.53,565.99 L544.89,552.62 L547.25,538.83 L549.62,513.97 L551.98,510.97 L554.34,519.03 L556.70,521.32 L559.07,517.69 L561.43,515.22 L563.79,517.09 L566.15,530.23 L568.52,538.98 L570.88,540.89 L573.24,524.31 L575.60,528.30 L577.97,532.98 L580.33,528.41 L582.69,539.74 L585.05,523.86 L587.42,512.44 L589.78,521.51 L592.14,527.52 L594.51,520.99 L596.87,519.22 L599.23,502.21 L601.59,504.21 L603.96,502.16 L606.32,503.87 L608.68,498.13 L611.04,507.03 L613.41,526.11 L615.77,533.46 L618.13,542.00 L620.49,542.31 L622.86,540.47 L625.22,541.25 L627.58,548.26 L629.95,549.79 L632.31,552.95 L634.67,543.40 L637.03,540.62 L639.40,529.63 L641.76,531.75 L644.12,511.71 L646.48,512.19 L648.85,504.28 L651.21,522.74 L653.57,533.57 L655.93,540.84 L658.30,546.32 L660.66,555.54 L663.02,542.98 L665.38,549.84 L667.75,534.47 L670.11,531.56 L672.47,531.33 L674.84,522.95 L677.20,520.18 L679.56,519.76 L681.92,518.60 L684.29,522.45 L686.65,514.84 L689.01,514.85 L691.37,510.98 L693.74,513.00 L696.10,508.23 L698.46,510.17 L700.82,516.86 L703.19,523.82 L705.55,537.70 L707.91,532.76 L710.27,542.66 L712.64,549.24 L715.00,549.25 L717.36,541.66 L719.73,531.32 L722.09,514.38 L724.45,525.88 L726.81,527.89 L729.18,529.78 L731.54,532.66 L733.90,541.78 L736.26,549.89 L738.63,560.34 L740.99,600.60 L743.35,603.84 L745.71,608.15 L748.08,589.19 L750.44,598.36 L752.80,606.72 L755.16,616.21 L757.53,572.49 L759.89,563.30 L762.25,566.34 L764.62,587.79 L766.98,578.31 L769.34,581.94 L771.70,578.53 L774.07,571.54 L776.43,576.50 L778.79,568.02 L781.15,559.95 L783.52,548.55 L785.88,541.06 L788.24,530.08 L790.60,531.31 L792.97,521.41 L795.33,520.83 L797.69,526.27 L800.05,531.41 L802.42,534.71 L804.78,544.16 L807.14,544.09 L809.51,549.33 L811.87,546.65 L814.23,538.69 L816.59,552.29 L818.96,540.01 L821.32,543.51 L823.68,558.35 L826.04,563.21 L828.41,537.15 L830.77,557.48 L833.13,547.21 L835.49,562.29 L837.86,562.42 L840.22,557.25 L842.58,550.84 L844.95,579.56 L847.31,575.72 L849.67,584.70 L852.03,586.62 L854.40,585.19 L856.76,589.87 L859.12,597.88 L861.48,601.93 L863.85,587.03 L866.21,568.73 L868.57,568.33 L870.93,567.14 L873.30,556.51 L875.66,533.23 L878.02,536.02 L880.38,547.38 L882.75,558.97 L885.11,550.34 L887.47,550.17 L889.84,555.63 L892.20,576.92 L894.56,563.21 L896.92,563.71 L899.29,556.82 L901.65,574.67 L904.01,582.78 L906.37,583.43 L908.74,576.38 L911.10,573.73 L913.46,571.86 L915.82,569.19 L918.19,555.26 L920.55,547.46 L922.91,545.31 L925.27,544.15 L927.64,558.95 L930.00,565.13 L930.00,656.00 Z" fill="#60a5fa" fill-opacity="0.16" stroke="none" />
<path d="M70.00,453.80 L72.36,446.79 L74.73,474.08 L77.09,476.81 L79.45,454.79 L81.81,461.40 L84.18,468.14 L86.54,485.69 L88.90,493.36 L91.26,487.19 L93.63,492.57 L95.99,503.96 L98.35,498.69 L100.71,494.56 L103.08,480.51 L105.44,481.24 L107.80,474.16 L110.16,467.63 L112.53,472.41 L114.89,476.76 L117.25,489.54 L119.62,499.14 L121.98,494.12 L124.34,504.69 L126.70,506.71 L129.07,505.59 L131.43,497.15 L133.79,498.21 L136.15,487.58 L138.52,487.05 L140.88,486.58 L143.24,489.43 L145.60,495.24 L147.97,502.20 L150.33,491.28 L152.69,501.67 L157.42,516.94 L159.78,537.75 L162.14,557.36 L164.51,574.05 L166.87,572.28 L171.59,569.29 L173.96,554.87 L176.32,548.57 L178.68,548.72 L181.04,532.91 L183.41,520.70 L185.77,520.31 L188.13,523.73 L190.49,533.55 L192.86,523.98 L195.22,507.02 L197.58,498.40 L199.95,497.84 L202.31,506.52 L204.67,513.37 L207.03,509.09 L209.40,510.20 L211.76,491.03 L214.12,490.17 L216.48,491.81 L218.85,487.51 L221.21,488.92 L223.57,485.56 L225.93,492.37 L228.30,506.41 L230.66,512.78 L233.02,513.10 L235.38,524.77 L237.75,514.61 L240.11,512.90 L242.47,507.62 L244.84,504.70 L247.20,496.49 L249.56,500.64 L251.92,504.23 L254.29,496.99 L256.65,504.15 L259.01,524.94 L261.37,538.68 L263.74,547.00 L266.10,534.30 L268.46,524.25 L270.82,536.76 L273.19,541.10 L275.55,519.19 L277.91,511.77 L280.27,506.56 L282.64,521.50 L285.00,521.25 L287.36,520.24 L289.73,511.43 L292.09,503.76 L294.45,504.90 L296.81,509.62 L299.18,498.17 L301.54,489.21 L303.90,485.45 L306.26,498.95 L308.63,516.90 L310.99,519.19 L313.35,520.59 L315.71,525.54 L318.08,527.93 L320.44,534.93 L322.80,529.66 L325.16,535.99 L327.53,533.35 L329.89,540.41 L332.25,530.55 L334.62,542.47 L336.98,544.02 L339.34,540.04 L341.70,532.77 L344.07,527.23 L346.43,519.08 L348.79,530.32 L351.15,523.21 L353.52,513.49 L355.88,515.47 L358.24,522.69 L360.60,525.93 L362.97,521.95 L365.33,529.95 L367.69,523.94 L370.05,531.42 L372.42,526.61 L374.78,523.54 L377.14,544.90 L379.51,559.70 L381.87,563.87 L384.23,589.06 L386.59,593.39 L388.96,601.00 L391.32,593.43 L393.68,568.09 L396.04,560.32 L398.41,548.11 L400.77,531.01 L403.13,522.03 L405.49,517.50 L407.86,514.84 L410.22,521.83 L412.58,519.55 L414.95,515.15 L417.31,521.89 L419.67,533.55 L422.03,536.72 L424.40,541.29 L426.76,546.15 L429.12,553.12 L431.48,554.67 L433.85,551.38 L436.21,536.80 L438.57,527.57 L440.93,523.23 L443.30,521.02 L445.66,509.04 L448.02,494.76 L450.38,493.88 L452.75,532.60 L455.11,533.58 L457.47,540.34 L459.84,534.06 L462.20,539.91 L464.56,555.84 L466.92,555.50 L469.29,525.09 L471.65,519.01 L474.01,511.91 L476.37,508.60 L478.74,508.36 L481.10,509.92 L483.46,514.27 L485.82,516.08 L488.19,534.77 L490.55,539.49 L492.91,549.40 L495.27,548.18 L497.64,560.51 L500.00,563.10 L502.36,560.52 L504.73,555.09 L507.09,552.83 L509.45,552.45 L511.81,561.31 L514.18,541.54 L516.54,545.54 L518.90,546.69 L521.26,548.39 L523.63,545.30 L525.99,536.82 L528.35,540.97 L530.71,556.47 L533.08,556.96 L535.44,554.63 L537.80,553.13 L540.16,560.58 L542.53,565.99 L544.89,552.62 L547.25,538.83 L549.62,513.97 L551.98,510.97 L554.34,519.03 L556.70,521.32 L559.07,517.69 L561.43,515.22 L563.79,517.09 L566.15,530.23 L568.52,538.98 L570.88,540.89 L573.24,524.31 L575.60,528.30 L577.97,532.98 L580.33,528.41 L582.69,539.74 L585.05,523.86 L587.42,512.44 L589.78,521.51 L592.14,527.52 L594.51,520.99 L596.87,519.22 L599.23,502.21 L601.59,504.21 L603.96,502.16 L606.32,503.87 L608.68,498.13 L611.04,507.03 L613.41,526.11 L615.77,533.46 L618.13,542.00 L620.49,542.31 L622.86,540.47 L625.22,541.25 L627.58,548.26 L629.95,549.79 L632.31,552.95 L634.67,543.40 L637.03,540.62 L639.40,529.63 L641.76,531.75 L644.12,511.71 L646.48,512.19 L648.85,504.28 L651.21,522.74 L653.57,533.57 L655.93,540.84 L658.30,546.32 L660.66,555.54 L663.02,542.98 L665.38,549.84 L667.75,534.47 L670.11,531.56 L672.47,531.33 L674.84,522.95 L677.20,520.18 L679.56,519.76 L681.92,518.60 L684.29,522.45 L686.65,514.84 L689.01,514.85 L691.37,510.98 L693.74,513.00 L696.10,508.23 L698.46,510.17 L700.82,516.86 L703.19,523.82 L705.55,537.70 L707.91,532.76 L710.27,542.66 L712.64,549.24 L715.00,549.25 L717.36,541.66 L719.73,531.32 L722.09,514.38 L724.45,525.88 L726.81,527.89 L729.18,529.78 L731.54,532.66 L733.90,541.78 L736.26,549.89 L738.63,560.34 L740.99,600.60 L743.35,603.84 L745.71,608.15 L748.08,589.19 L750.44,598.36 L752.80,606.72 L755.16,616.21 L757.53,572.49 L759.89,563.30 L762.25,566.34 L764.62,587.79 L766.98,578.31 L769.34,581.94 L771.70,578.53 L774.07,571.54 L776.43,576.50 L778.79,568.02 L781.15,559.95 L783.52,548.55 L785.88,541.06 L788.24,530.08 L790.60,531.31 L792.97,521.41 L795.33,520.83 L797.69,526.27 L800.05,531.41 L802.42,534.71 L804.78,544.16 L807.14,544.09 L809.51,549.33 L811.87,546.65 L814.23,538.69 L816.59,552.29 L818.96,540.01 L821.32,543.51 L823.68,558.35 L826.04,563.21 L828.41,537.15 L830.77,557.48 L833.13,547.21 L835.49,562.29 L837.86,562.42 L840.22,557.25 L842.58,550.84 L844.95,579.56 L847.31,575.72 L849.67,584.70 L852.03,586.62 L854.40,585.19 L856.76,589.87 L859.12,597.88 L861.48,601.93 L863.85,587.03 L866.21,568.73 L868.57,568.33 L870.93,567.14 L873.30,556.51 L875.66,533.23 L878.02,536.02 L880.38,547.38 L882.75,558.97 L885.11,550.34 L887.47,550.17 L889.84,555.63 L892.20,576.92 L894.56,563.21 L896.92,563.71 L899.29,556.82 L901.65,574.67 L904.01,582.78 L906.37,583.43 L908.74,576.38 L911.10,573.73 L913.46,571.86 L915.82,569.19 L918.19,555.26 L920.55,547.46 L922.91,545.31 L925.27,544.15 L927.64,558.95 L930.00,565.13" fill="none" stroke="#60a5fa" stroke-width="2.2" stroke-linecap="round" />
</svg>
