<svg xmlns="http://www.w3.org/2000/svg" viewBox="0 0 960 640" width="960" height="640">
  <rect width="960" height="640" fill="#0f172a" />
  <line x1="40" y1="40.00" x2="920.00" y2="40.00" stroke="#94a3b8" stroke-opacity="0.18" stroke-width="1" /><line x1="40" y1="128.00" x2="920.00" y2="128.00" stroke="#94a3b8" stroke-opacity="0.18" stroke-width="1" /><line x1="40" y1="216.00" x2="920.00" y2="216.00" stroke="#94a3b8" stroke-opacity="0.18" stroke-width="1" /><line x1="40" y1="304.00" x2="920.00" y2="304.00" stroke="#94a3b8" stroke-opacity="0.18" stroke-width="1" />
  <line x1="40" y1="336.00" x2="920.00" y2="336.00" stroke="#94a3b8" stroke-opacity="0.18" stroke-width="1" /><line x1="40" y1="424.00" x2="920.00" y2="424.00" stroke="#94a3b8" stroke-opacity="0.18" stroke-width="1" /><line x1="40" y1="512.00" x2="920.00" y2="512.00" stroke="#94a3b8" stroke-opacity="0.18" stroke-width="1" /><line x1="40" y1="600.00" x2="920.00" y2="600.00" stroke="#94a3b8" stroke-opacity="0.18" stroke-width="1" />
  <line x1="40" y1="320.00" x2="920.00" y2="320.00" stroke="#1f2937" stroke-width="1" />
  <polyline points="40.00,243.89 70.34,40.00 100.69,181.75 131.03,217.09 161.38,244.80 191.72,258.60 222.07,96.89 252.41,172.22 282.76,283.96 313.10,236.59 343.45,124.28 373.79,227.07 404.14,240.57 434.48,205.86 464.83,277.82 495.17,280.84 525.52,184.46 555.86,279.72 586.21,148.43 616.55,244.19 646.90,272.63 677.24,214.26 707.59,181.43 737.93,240.36 768.28,304.00 798.62,277.60 828.97,295.61 859.31,269.50 889.66,183.36 920.00,291.54" fill="none" stroke="#60a5fa" stroke-width="2" stroke-linecap="round" stroke-linejoin="round" />
  <polyline points="40.00,551.82 42.46,548.40 44.92,555.28 47.37,550.88 49.83,562.83 52.29,523.83 54.75,526.67 57.21,529.08 59.66,521.07 62.12,535.18 64.58,529.16 67.04,526.96 69.50,570.16 71.96,557.35 74.41,541.18 76.87,558.50 79.33,560.99 81.79,562.40 84.25,560.62 86.70,558.39 89.16,563.01 91.62,571.91 94.08,561.85 96.54,560.15 98.99,544.05 101.45,548.61 103.91,521.84 106.37,496.93 108.83,502.75 111.28,512.03 113.74,433.68 116.20,460.37 118.66,453.03 121.12,480.28 123.58,479.10 126.03,387.13 128.49,376.10 130.95,413.46 133.41,401.07 135.87,390.00 138.32,378.31 140.78,376.29 143.24,471.62 145.70,473.75 148.16,496.17 150.61,436.11 153.07,432.91 155.53,408.49 157.99,439.66 160.45,424.15 162.91,430.91 165.36,454.46 167.82,507.41 170.28,525.82 172.74,561.84 175.20,561.73 177.65,551.68 180.11,510.37 182.57,502.84 185.03,517.98 187.49,496.08 189.94,494.27 192.40,495.51 194.86,520.55 197.32,506.11 199.78,515.18 202.23,518.47 204.69,535.30 207.15,527.23 209.61,522.37 212.07,490.79 214.53,543.44 216.98,540.77 219.44,543.49 221.90,547.61 224.36,556.17 226.82,549.24 229.27,528.15 231.73,531.52 234.19,528.20 236.65,498.51 239.11,482.98 241.56,486.34 244.02,486.99 246.48,530.90 248.94,532.40 251.40,508.88 253.85,540.13 256.31,547.51 258.77,549.28 261.23,524.29 263.69,526.26 266.15,521.52 268.60,548.89 271.06,553.16 273.52,549.98 275.98,543.34 278.44,557.14 280.89,566.75 283.35,568.05 285.81,569.35 288.27,526.88 290.73,529.39 293.18,516.42 295.64,520.25 298.10,479.57 300.56,474.21 303.02,467.30 305.47,463.66 307.93,465.60 310.39,451.87 312.85,474.37 315.31,510.24 317.77,519.72 320.22,519.67 322.68,548.44 325.14,557.51 327.60,588.37 330.06,581.20 332.51,582.20 334.97,584.43 337.43,582.93 339.89,573.15 342.35,568.17 344.80,566.70 347.26,521.40 349.72,517.44 352.18,507.34 354.64,515.80 357.09,531.00 359.55,500.63 362.01,497.33 364.47,531.27 366.93,516.44 369.39,487.15 371.84,468.67 374.30,460.37 376.76,492.96 379.22,493.82 381.68,504.58 384.13,522.34 386.59,560.50 389.05,575.60 391.51,588.71 393.97,571.22 396.42,566.86 398.88,564.37 401.34,560.13 403.80,545.45 406.26,546.18 408.72,546.59 411.17,544.99 413.63,547.50 416.09,554.97 418.55,561.51 421.01,568.93 423.46,563.05 425.92,560.86 428.38,569.87 430.84,566.18 433.30,568.96 435.75,562.29 438.21,564.33 440.67,555.28 443.13,555.37 445.59,567.57 448.04,563.37 450.50,563.37 452.96,560.38 455.42,563.00 457.88,579.28 460.34,579.80 462.79,565.00 465.25,582.93 467.71,571.00 470.17,569.40 472.63,548.92 475.08,550.20 477.54,552.41 480.00,558.36 482.46,478.31 484.92,470.74 487.37,482.11 489.83,482.72 492.29,474.76 494.75,476.57 497.21,460.66 499.66,529.90 502.12,496.17 504.58,487.15 507.04,501.26 509.50,509.46 511.96,508.02 514.41,508.93 516.87,485.15 519.33,500.50 521.79,490.18 524.25,499.47 526.70,491.83 529.16,489.01 531.62,505.02 534.08,482.73 536.54,506.94 538.99,514.05 541.45,508.04 543.91,469.35 546.37,466.75 548.83,456.34 551.28,510.01 553.74,520.49 556.20,533.53 558.66,536.29 561.12,580.31 563.58,584.87 566.03,600.00 568.49,564.50 570.95,532.48 573.41,529.52 575.87,521.65 578.32,523.16 580.78,500.32 583.24,508.41 585.70,539.91 588.16,569.93 590.61,574.32 593.07,576.31 595.53,572.23 597.99,586.44 600.45,562.20 602.91,528.07 605.36,516.20 607.82,511.65 610.28,518.86 612.74,524.45 615.20,526.49 617.65,513.21 620.11,535.34 622.57,521.31 625.03,524.63 627.49,525.63 629.94,525.02 632.40,527.51 634.86,555.77 637.32,555.40 639.78,573.93 642.23,578.37 644.69,575.38 647.15,570.05 649.61,553.96 652.07,545.83 654.53,549.41 656.98,528.07 659.44,523.15 661.90,520.84 664.36,524.81 666.82,539.83 669.27,542.73 671.73,543.95 674.19,577.86 676.65,574.50 679.11,579.34 681.56,583.20 684.02,588.91 686.48,580.58 688.94,577.35 691.40,555.40 693.85,537.15 696.31,517.37 698.77,492.42 701.23,494.03 703.69,495.92 706.15,498.17 708.60,508.12 711.06,514.32 713.52,529.86 715.98,529.65 718.44,522.36 720.89,543.28 723.35,545.02 725.81,548.48 728.27,564.27 730.73,556.50 733.18,566.69 735.64,578.40 738.10,578.40 740.56,582.82 743.02,577.05 745.47,565.74 747.93,576.59 750.39,582.28 752.85,563.65 755.31,563.65 757.77,566.41 760.22,558.08 762.68,558.54 765.14,552.86 767.60,503.92 770.06,499.26 772.51,427.90 774.97,424.55 777.43,423.82 779.89,427.45 782.35,428.41 784.80,474.64 787.26,474.74 789.72,521.12 792.18,528.89 794.64,525.14 797.09,531.61 799.55,526.77 802.01,532.71 804.47,527.32 806.93,532.25 809.39,502.66 811.84,522.51 814.30,509.55 816.76,468.48 819.22,459.11 821.68,476.33 824.13,473.61 826.59,497.00 829.05,464.63 831.51,463.68 833.97,433.66 836.42,431.15 838.88,415.14 841.34,393.08 843.80,381.97 846.26,380.29 848.72,377.79 851.17,379.72 853.63,358.96 856.09,356.53 858.55,379.93 861.01,382.41 863.46,357.64 865.92,336.00 868.38,409.65 870.84,426.20 873.30,398.19 875.75,392.83 878.21,387.39 880.67,420.29 883.13,452.17 885.59,451.23 888.04,435.49 890.50,482.41 892.96,458.67 895.42,459.77 897.88,479.92 900.34,460.73 902.79,430.72 905.25,447.60 907.71,454.92 910.17,493.92 912.63,509.44 915.08,508.50 917.54,499.17 920.00,532.41" fill="none" stroke="#60a5fa" stroke-width="2" stroke-linecap="round" stroke-linejoin="round" />
  
  
  </svg>