<svg xmlns="http://www.w3.org/2000/svg" viewBox="0 0 960 720" width="960" height="720">
<rect width="960" height="720" fill="#0f172a" />
<text x="480" y="28" fill="#e2e8f0" font-size="16" font-weight="700" text-anchor="middle">步态不对称均值趋势图</text>
<text x="70" y="70" fill="#e2e8f0" font-size="13" font-weight="600">本月分天指标明细</text>
<line x1="70" y1="323.00" x2="930" y2="323.00" stroke="#94a3b8" stroke-opacity="0.18" stroke-width="1" />
<text x="62" y="327.00" fill="#cbd5f5" font-size="10" text-anchor="end">-0.19</text>
<line x1="70" y1="260.75" x2="930" y2="260.75" stroke="#94a3b8" stroke-opacity="0.18" stroke-width="1" />
<text x="62" y="264.75" fill="#cbd5f5" font-size="10" text-anchor="end">-0.06</text>
<line x1="70" y1="198.50" x2="930" y2="198.50" stroke="#94a3b8" stroke-opacity="0.18" stroke-width="1" />
<text x="62" y="202.50" fill="#cbd5f5" font-size="10" text-anchor="end">0.07</text>
<line x1="70" y1="136.25" x2="930" y2="136.25" stroke="#94a3b8" stroke-opacity="0.18" stroke-width="1" />
<text x="62" y="140.25" fill="#cbd5f5" font-size="10" text-anchor="end">0.2</text>
<line x1="70" y1="74.00" x2="930" y2="74.00" stroke="#94a3b8" stroke-opacity="0.18" stroke-width="1" />
<text x="62" y="78.00" fill="#cbd5f5" font-size="10" text-anchor="end">0.33</text>
<line x1="70.00" y1="323" x2="70.00" y2="327" stroke="#94a3b8" stroke-opacity="0.5" stroke-width="1" />
<text x="70.00" y="341" fill="#cbd5f5" font-size="10" text-anchor="middle">11-19</text>
<line x1="242.00" y1="323" x2="242.00" y2="327" stroke="#94a3b8" stroke-opacity="0.5" stroke-width="1" />
<text x="242.00" y="341" fill="#cbd5f5" font-size="10" text-anchor="middle">11-24</text>
<line x1="414.00" y1="323" x2="414.00" y2="327" stroke="#94a3b8" stroke-opacity="0.5" stroke-width="1" />
<text x="414.00" y="341" fill="#cbd5f5" font-size="10" text-anchor="middle">11-30</text>
<line x1="586.00" y1="323" x2="586.00" y2="327" stroke="#94a3b8" stroke-opacity="0.5" stroke-width="1" />
<text x="586.00" y="341" fill="#cbd5f5" font-size="10" text-anchor="middle">12-06</text>
<line x1="758.00" y1="323" x2="758.00" y2="327" stroke="#94a3b8" stroke-opacity="0.5" stroke-width="1" />
<text x="758.00" y="341" fill="#cbd5f5" font-size="10" text-anchor="middle">12-12</text>
<line x1="930.00" y1="323" x2="930.00" y2="327" stroke="#94a3b8" stroke-opacity="0.5" stroke-width="1" />
<text x="930.00" y="341" fill="#cbd5f5" font-size="10" text-anchor="middle">12-18</text>
<line x1="70" y1="74" x2="70" y2="323" stroke="#94a3b8" stroke-width="1" />
<line x1="70" y1="323" x2="930" y2="323" stroke="#94a3b8" stroke-width="1" />
<path d="M70.00,214.59 L99.66,168.96 L129.31,200.68 L158.97,208.59 L188.62,214.79 L218.28,217.88 L247.93,181.69 L277.59,198.55 L307.24,223.56 L336.90,212.95 L366.55,187.82 L396.21,210.83 L425.86,213.85 L455.52,206.08 L485.17,222.18 L514.83,222.86 L544.48,201.29 L574.14,222.61 L603.79,193.22 L633.45,214.66 L663.10,221.02 L692.76,207.96 L722.41,200.61 L752.07,213.80 L781.72,228.04 L811.38,222.13 L841.03,226.16 L870.69,220.32 L900.34,201.04 L930.00,225.25" fill="none" stroke="#22c55e" stroke-width="2.2" stroke-linecap="round" />
<circle cx="70.00" cy="214.59" r="3" fill="#22c55e" stroke="#0f172a" stroke-width="1" />
<text x="70.00" y="204.59" fill="#e2e8f0" font-size="9" text-anchor="middle">0.03</text>
<circle cx="99.66" cy="168.96" r="3" fill="#22c55e" stroke="#0f172a" stroke-width="1" />
<text x="99.66" y="148.96" fill="#e2e8f0" font-size="9" text-anchor="middle">0.13</text>
<circle cx="129.31" cy="200.68" r="3" fill="#22c55e" stroke="#0f172a" stroke-width="1" />
<text x="129.31" y="190.68" fill="#e2e8f0" font-size="9" text-anchor="middle">0.06</text>
<circle cx="158.97" cy="208.59" r="3" fill="#22c55e" stroke="#0f172a" stroke-width="1" />
<text x="158.97" y="188.59" fill="#e2e8f0" font-size="9" text-anchor="middle">0.05</text>
<circle cx="188.62" cy="214.79" r="3" fill="#22c55e" stroke="#0f172a" stroke-width="1" />
<text x="188.62" y="204.79" fill="#e2e8f0" font-size="9" text-anchor="middle">0.03</text>
<circle cx="218.28" cy="217.88" r="3" fill="#22c55e" stroke="#0f172a" stroke-width="1" />
<text x="218.28" y="197.88" fill="#e2e8f0" font-size="9" text-anchor="middle">0.03</text>
<circle cx="247.93" cy="181.69" r="3" fill="#22c55e" stroke="#0f172a" stroke-width="1" />
<text x="247.93" y="171.69" fill="#e2e8f0" font-size="9" text-anchor="middle">0.1</text>
<circle cx="277.59" cy="198.55" r="3" fill="#22c55e" stroke="#0f172a" stroke-width="1" />
<text x="277.59" y="178.55" fill="#e2e8f0" font-size="9" text-anchor="middle">0.07</text>
<circle cx="307.24" cy="223.56" r="3" fill="#22c55e" stroke="#0f172a" stroke-width="1" />
<text x="307.24" y="213.56" fill="#e2e8f0" font-size="9" text-anchor="middle">0.02</text>
<circle cx="336.90" cy="212.95" r="3" fill="#22c55e" stroke="#0f172a" stroke-width="1" />
<text x="336.90" y="192.95" fill="#e2e8f0" font-size="9" text-anchor="middle">0.04</text>
<circle cx="366.55" cy="187.82" r="3" fill="#22c55e" stroke="#0f172a" stroke-width="1" />
<text x="366.55" y="177.82" fill="#e2e8f0" font-size="9" text-anchor="middle">0.09</text>
<circle cx="396.21" cy="210.83" r="3" fill="#22c55e" stroke="#0f172a" stroke-width="1" />
<text x="396.21" y="190.83" fill="#e2e8f0" font-size="9" text-anchor="middle">0.04</text>
<circle cx="425.86" cy="213.85" r="3" fill="#22c55e" stroke="#0f172a" stroke-width="1" />
<text x="425.86" y="203.85" fill="#e2e8f0" font-size="9" text-anchor="middle">0.04</text>
<circle cx="455.52" cy="206.08" r="3" fill="#22c55e" stroke="#0f172a" stroke-width="1" />
<text x="455.52" y="186.08" fill="#e2e8f0" font-size="9" text-anchor="middle">0.05</text>
<circle cx="485.17" cy="222.18" r="3" fill="#22c55e" stroke="#0f172a" stroke-width="1" />
<text x="485.17" y="212.18" fill="#e2e8f0" font-size="9" text-anchor="middle">0.02</text>
<circle cx="514.83" cy="222.86" r="3" fill="#22c55e" stroke="#0f172a" stroke-width="1" />
<text x="514.83" y="202.86" fill="#e2e8f0" font-size="9" text-anchor="middle">0.02</text>
<circle cx="544.48" cy="201.29" r="3" fill="#22c55e" stroke="#0f172a" stroke-width="1" />
<text x="544.48" y="191.29" fill="#e2e8f0" font-size="9" text-anchor="middle">0.06</text>
<circle cx="574.14" cy="222.61" r="3" fill="#22c55e" stroke="#0f172a" stroke-width="1" />
<text x="574.14" y="202.61" fill="#e2e8f0" font-size="9" text-anchor="middle">0.02</text>
<circle cx="603.79" cy="193.22" r="3" fill="#22c55e" stroke="#0f172a" stroke-width="1" />
<text x="603.79" y="183.22" fill="#e2e8f0" font-size="9" text-anchor="middle">0.08</text>
<circle cx="633.45" cy="214.66" r="3" fill="#22c55e" stroke="#0f172a" stroke-width="1" />
<text x="633.45" y="194.66" fill="#e2e8f0" font-size="9" text-anchor="middle">0.03</text>
<circle cx="663.10" cy="221.02" r="3" fill="#22c55e" stroke="#0f172a" stroke-width="1" />
<text x="663.10" y="211.02" fill="#e2e8f0" font-size="9" text-anchor="middle">0.02</text>
<circle cx="692.76" cy="207.96" r="3" fill="#22c55e" stroke="#0f172a" stroke-width="1" />
<text x="692.76" y="187.96" fill="#e2e8f0" font-size="9" text-anchor="middle">0.05</text>
<circle cx="722.41" cy="200.61" r="3" fill="#22c55e" stroke="#0f172a" stroke-width="1" />
<text x="722.41" y="190.61" fill="#e2e8f0" font-size="9" text-anchor="middle">0.06</text>
<circle cx="752.07" cy="213.80" r="3" fill="#22c55e" stroke="#0f172a" stroke-width="1" />
<text x="752.07" y="193.80" fill="#e2e8f0" font-size="9" text-anchor="middle">0.04</text>
<circle cx="781.72" cy="228.04" r="3" fill="#22c55e" stroke="#0f172a" stroke-width="1" />
<text x="781.72" y="218.04" fill="#e2e8f0" font-size="9" text-anchor="middle">0.01</text>
<circle cx="811.38" cy="222.13" r="3" fill="#22c55e" stroke="#0f172a" stroke-width="1" />
<text x="811.38" y="202.13" fill="#e2e8f0" font-size="9" text-anchor="middle">0.02</text>
<circle cx="841.03" cy="226.16" r="3" fill="#22c55e" stroke="#0f172a" stroke-width="1" />
<text x="841.03" y="216.16" fill="#e2e8f0" font-size="9" text-anchor="middle">0.01</text>
<circle cx="870.69" cy="220.32" r="3" fill="#22c55e" stroke="#0f172a" stroke-width="1" />
<text x="870.69" y="200.32" fill="#e2e8f0" font-size="9" text-anchor="middle">0.02</text>
<circle cx="900.34" cy="201.04" r="3" fill="#22c55e" stroke="#0f172a" stroke-width="1" />
<text x="900.34" y="191.04" fill="#e2e8f0" font-size="9" text-anchor="middle">0.06</text>
<circle cx="930.00" cy="225.25" r="3" fill="#22c55e" stroke="#0f172a" stroke-width="1" />
<text x="930.00" y="205.25" fill="#e2e8f0" font-size="9" text-anchor="middle">0.01</text>
<text x="70" y="403" fill="#e2e8f0" font-size="13" font-weight="600">本年核心指标趋势（滑动7日窗口平均）</text>
<line x1="70" y1="656.00" x2="930" y2="656.00" stroke="#94a3b8" stroke-opacity="0.18" stroke-width="1" />
<text x="62" y="660.00" fill="#cbd5f5" font-size="10" text-anchor="end">-0.19</text>
<line x1="70" y1="593.75" x2="930" y2="593.75" stroke="#94a3b8" stroke-opacity="0.18" stroke-width="1" />
<text x="62" y="597.75" fill="#cbd5f5" font-size="10" text-anchor="end">-0.08</text>
<line x1="70" y1="531.50" x2="930" y2="531.50" stroke="#94a3b8" stroke-opacity="0.18" stroke-width="1" />
<text x="62" y="535.50" fill="#cbd5f5" font-size="10" text-anchor="end">0.04</text>
<line x1="70" y1="469.25" x2="930" y2="469.25" stroke="#94a3b8" stroke-opacity="0.18" stroke-width="1" />
<text x="62" y="473.25" fill="#cbd5f5" font-size="10" text-anchor="end">0.15</text>
<line x1="70" y1="407.00" x2="930" y2="407.00" stroke="#94a3b8" stroke-opacity="0.18" stroke-width="1" />
<text x="62" y="411.00" fill="#cbd5f5" font-size="10" text-anchor="end">0.27</text>
<line x1="70.00" y1="656" x2="70.00" y2="660" stroke="#94a3b8" stroke-opacity="0.5" stroke-width="1" />
<text x="70.00" y="674" fill="#cbd5f5" font-size="10" text-anchor="middle">2024-12</text>
<line x1="242.00" y1="656" x2="242.00" y2="660" stroke="#94a3b8" stroke-opacity="0.5" stroke-width="1" />
<text x="242.00" y="674" fill="#cbd5f5" font-size="10" text-anchor="middle">2025-03</text>
<line x1="414.00" y1="656" x2="414.00" y2="660" stroke="#94a3b8" stroke-opacity="0.5" stroke-width="1" />
<text x="414.00" y="674" fill="#cbd5f5" font-size="10" text-anchor="middle">2025-05</text>
<line x1="586.00" y1="656" x2="586.00" y2="660" stroke="#94a3b8" stroke-opacity="0.5" stroke-width="1" />
<text x="586.00" y="674" fill="#cbd5f5" font-size="10" text-anchor="middle">2025-07</text>
<line x1="758.00" y1="656" x2="758.00" y2="660" stroke="#94a3b8" stroke-opacity="0.5" stroke-width="1" />
<text x="758.00" y="674" fill="#cbd5f5" font-size="10" text-anchor="middle">2025-10</text>
<line x1="930.00" y1="656" x2="930.00" y2="660" stroke="#94a3b8" stroke-opacity="0.5" stroke-width="1" />
<text x="930.00" y="674" fill="#cbd5f5" font-size="10" text-anchor="middle">2025-12</text>
<line x1="70" y1="407" x2="70" y2="656" stroke="#94a3b8" stroke-width="1" />
<line x1="70" y1="656" x2="930" y2="656" stroke="#94a3b8" stroke-width="1" />
<path d="M70.00,656.00 L70.00,543.89 L72.36,542.54 L74.73,538.60 L77.09,539.11 L79.45,541.19 L81.81,536.36 L84.18,538.60 L86.54,538.89 L88.90,537.92 L91.26,539.63 L93.63,538.90 L95.99,538.64 L98.35,543.87 L100.71,542.32 L103.08,540.36 L105.44,542.45 L107.80,542.76 L110.16,542.93 L112.53,542.71 L114.89,542.44 L117.25,543.00 L119.62,544.08 L121.98,542.86 L124.34,542.65 L126.70,540.71 L129.07,541.26 L131.43,538.02 L133.79,535.00 L136.15,535.71 L138.52,536.83 L140.88,527.35 L143.24,530.58 L145.60,529.69 L147.97,532.99 L150.33,532.84 L152.69,521.71 L155.05,520.38 L157.42,524.90 L159.78,523.40 L164.51,522.06 L166.87,520.64 L171.59,520.40 L173.96,531.94 L178.68,532.20 L181.04,534.91 L183.41,527.64 L185.77,527.25 L188.13,524.30 L190.49,528.07 L192.86,526.19 L195.22,527.01 L197.58,529.86 L199.95,536.27 L202.31,538.50 L204.67,542.86 L207.03,542.84 L209.40,541.63 L211.76,536.63 L214.12,535.72 L216.48,537.55 L218.85,534.90 L221.21,534.68 L223.57,534.83 L225.93,537.86 L228.30,536.11 L230.66,537.21 L233.02,537.61 L235.38,539.65 L237.75,538.67 L240.11,538.08 L242.47,534.26 L244.84,540.63 L247.20,540.31 L249.56,540.64 L251.92,541.14 L254.29,542.17 L256.65,541.33 L259.01,538.78 L261.37,539.19 L263.74,538.79 L266.10,535.19 L268.46,533.31 L270.82,533.72 L273.19,533.80 L275.55,539.11 L277.91,539.29 L280.27,536.45 L282.64,540.23 L285.00,541.12 L287.36,541.34 L289.73,538.31 L292.09,538.55 L294.45,537.98 L296.81,541.29 L299.18,541.81 L301.54,541.42 L303.90,540.62 L306.26,542.29 L308.63,543.45 L310.99,543.61 L313.35,543.77 L315.71,538.63 L318.08,538.93 L320.44,537.36 L322.80,537.82 L325.16,532.90 L327.53,532.25 L329.89,531.41 L332.25,530.97 L334.62,531.21 L336.98,529.55 L339.34,532.27 L341.70,536.61 L344.07,537.76 L346.43,537.75 L348.79,541.24 L351.15,542.33 L353.52,546.07 L355.88,545.20 L358.24,545.32 L360.60,545.59 L362.97,545.41 L365.33,544.23 L367.69,543.62 L370.05,543.45 L372.42,537.96 L374.78,537.48 L377.14,536.26 L379.51,537.29 L381.87,539.13 L384.23,535.45 L386.59,535.05 L388.96,539.16 L391.32,537.36 L393.68,533.82 L396.04,531.58 L398.41,530.58 L400.77,534.52 L403.13,534.62 L405.49,535.93 L407.86,538.08 L410.22,542.70 L412.58,544.52 L414.95,546.11 L417.31,543.99 L419.67,543.47 L422.03,543.16 L424.40,542.65 L426.76,540.87 L429.12,540.96 L431.48,541.01 L433.85,540.82 L436.21,541.12 L438.57,542.03 L440.93,542.82 L443.30,543.72 L445.66,543.00 L448.02,542.74 L450.38,543.83 L452.75,543.38 L455.11,543.72 L457.47,542.91 L462.20,543.16 L464.56,542.06 L466.92,542.07 L469.29,543.55 L471.65,543.04 L474.01,543.04 L476.37,542.68 L478.74,543.00 L481.10,544.97 L483.46,545.03 L485.82,543.24 L488.19,545.41 L490.55,543.97 L492.91,543.77 L495.27,541.29 L497.64,541.45 L500.00,541.72 L502.36,542.44 L504.73,532.75 L507.09,531.83 L509.45,533.21 L511.81,533.28 L514.18,532.32 L516.54,532.54 L518.90,530.61 L521.26,538.99 L523.63,534.91 L525.99,533.82 L528.35,535.53 L530.71,536.52 L533.08,536.34 L535.44,536.45 L537.80,533.58 L540.16,535.43 L542.53,534.18 L544.89,535.31 L547.25,534.38 L549.62,534.04 L551.98,535.98 L554.34,533.28 L556.70,536.21 L559.07,537.07 L561.43,536.35 L563.79,531.66 L566.15,531.35 L568.52,530.09 L570.88,536.58 L573.24,537.85 L575.60,539.43 L577.97,539.77 L580.33,545.09 L582.69,545.65 L585.05,547.48 L587.42,543.18 L589.78,539.30 L592.14,538.95 L594.51,537.99 L596.87,538.18 L599.23,535.41 L601.59,536.39 L603.96,540.20 L606.32,543.84 L608.68,544.37 L611.04,544.61 L613.41,544.12 L615.77,545.84 L618.13,542.90 L620.49,538.77 L622.86,537.33 L625.22,536.78 L627.58,537.66 L629.95,538.33 L632.31,538.58 L634.67,536.97 L637.03,539.65 L639.40,537.95 L641.76,538.35 L644.12,538.48 L646.48,538.40 L648.85,538.70 L651.21,542.12 L653.57,542.08 L655.93,544.32 L658.30,544.86 L660.66,544.50 L663.02,543.85 L665.38,541.90 L667.75,540.92 L670.11,541.35 L672.47,538.77 L674.84,538.17 L677.20,537.90 L679.56,538.38 L681.92,540.19 L684.29,540.55 L686.65,540.69 L689.01,544.80 L691.37,544.39 L693.74,544.98 L696.10,545.44 L698.46,546.13 L700.82,545.13 L703.19,544.74 L705.55,542.08 L707.91,539.87 L710.27,537.48 L712.64,534.46 L715.00,534.65 L717.36,534.88 L719.73,535.15 L722.09,536.36 L724.45,537.11 L726.81,538.99 L731.54,538.96 L733.90,538.08 L736.26,540.61 L738.63,540.82 L740.99,541.24 L743.35,543.15 L745.71,542.21 L750.44,543.45 L752.80,544.86 L755.16,544.86 L757.53,545.40 L759.89,544.70 L762.25,543.33 L764.62,544.64 L766.98,545.33 L769.34,543.08 L771.70,543.08 L774.07,543.41 L776.43,542.40 L778.79,542.46 L781.15,541.77 L783.52,535.85 L785.88,535.28 L788.24,526.65 L790.60,526.24 L792.97,526.15 L795.33,526.59 L797.69,526.71 L800.05,532.30 L802.42,532.32 L804.78,537.93 L807.14,538.87 L809.51,538.42 L811.87,539.20 L814.23,538.61 L816.59,539.33 L818.96,538.68 L821.32,539.28 L823.68,535.70 L826.04,538.10 L828.41,536.53 L830.77,531.56 L833.13,530.42 L835.49,532.51 L837.86,532.18 L840.22,535.01 L842.58,531.09 L844.95,530.98 L847.31,527.34 L849.67,527.04 L852.03,525.10 L854.40,522.43 L856.76,521.09 L859.12,520.88 L861.48,520.58 L863.85,520.81 L866.21,518.30 L868.57,518.01 L870.93,520.84 L873.30,521.14 L875.66,518.14 L878.02,515.52 L880.38,524.44 L882.75,526.44 L885.11,523.05 L887.47,522.40 L889.84,521.74 L892.20,525.73 L894.56,529.58 L896.92,529.47 L899.29,527.57 L901.65,533.24 L904.01,530.37 L906.37,530.50 L908.74,532.94 L911.10,530.62 L913.46,526.99 L915.82,529.03 L918.19,529.92 L920.55,534.64 L922.91,536.52 L925.27,536.40 L927.64,535.27 L930.00,539.30 L930.00,656.00 Z" fill="#22c55e" fill-opacity="0.16" stroke="none" />
<path d="M70.00,543.89 L72.36,542.54 L74.73,538.60 L77.09,539.11 L79.45,541.19 L81.81,536.36 L84.18,538.60 L86.54,538.89 L88.90,537.92 L91.26,539.63 L93.63,538.90 L95.99,538.64 L98.35,543.87 L100.71,542.32 L103.08,540.36 L105.44,542.45 L107.80,542.76 L110.16,542.93 L112.53,542.71 L114.89,542.44 L117.25,543.00 L119.62,544.08 L121.98,542.86 L124.34,542.65 L126.70,540.71 L129.07,541.26 L131.43,538.02 L133.79,535.00 L136.15,535.71 L138.52,536.83 L140.88,527.35 L143.24,530.58 L145.60,529.69 L147.97,532.99 L150.33,532.84 L152.69,521.71 L155.05,520.38 L157.42,524.90 L159.78,523.40 L164.51,522.06 L166.87,520.64 L171.59,520.40 L173.96,531.94 L178.68,532.20 L181.04,534.91 L183.41,527.64 L185.77,527.25 L188.13,524.30 L190.49,528.07 L192.86,526.19 L195.22,527.01 L197.58,529.86 L199.95,536.27 L202.31,538.50 L204.67,542.86 L207.03,542.84 L209.40,541.63 L211.76,536.63 L214.12,535.72 L216.48,537.55 L218.85,534.90 L221.21,534.68 L223.57,534.83 L225.93,537.86 L228.30,536.11 L230.66,537.21 L233.02,537.61 L235.38,539.65 L237.75,538.67 L240.11,538.08 L242.47,534.26 L244.84,540.63 L247.20,540.31 L249.56,540.64 L251.92,541.14 L254.29,542.17 L256.65,541.33 L259.01,538.78 L261.37,539.19 L263.74,538.79 L266.10,535.19 L268.46,533.31 L270.82,533.72 L273.19,533.80 L275.55,539.11 L277.91,539.29 L280.27,536.45 L282.64,540.23 L285.00,541.12 L287.36,541.34 L289.73,538.31 L292.09,538.55 L294.45,537.98 L296.81,541.29 L299.18,541.81 L301.54,541.42 L303.90,540.62 L306.26,542.29 L308.63,543.45 L310.99,543.61 L313.35,543.77 L315.71,538.63 L318.08,538.93 L320.44,537.36 L322.80,537.82 L325.16,532.90 L327.53,532.25 L329.89,531.41 L332.25,530.97 L334.62,531.21 L336.98,529.55 L339.34,532.27 L341.70,536.61 L344.07,537.76 L346.43,537.75 L348.79,541.24 L351.15,542.33 L353.52,546.07 L355.88,545.20 L358.24,545.32 L360.60,545.59 L362.97,545.41 L365.33,544.23 L367.69,543.62 L370.05,543.45 L372.42,537.96 L374.78,537.48 L377.14,536.26 L379.51,537.29 L381.87,539.13 L384.23,535.45 L386.59,535.05 L388.96,539.16 L391.32,537.36 L393.68,533.82 L396.04,531.58 L398.41,530.58 L400.77,534.52 L403.13,534.62 L405.49,535.93 L407.86,538.08 L410.22,542.70 L412.58,544.52 L414.95,546.11 L417.31,543.99 L419.67,543.47 L422.03,543.16 L424.40,542.65 L426.76,540.87 L429.12,540.96 L431.48,541.01 L433.85,540.82 L436.21,541.12 L438.57,542.03 L440.93,542.82 L443.30,543.72 L445.66,543.00 L448.02,542.74 L450.38,543.83 L452.75,543.38 L455.11,543.72 L457.47,542.91 L462.20,543.16 L464.56,542.06 L466.92,542.07 L469.29,543.55 L471.65,543.04 L474.01,543.04 L476.37,542.68 L478.74,543.00 L481.10,544.97 L483.46,545.03 L485.82,543.24 L488.19,545.41 L490.55,543.97 L492.91,543.77 L495.27,541.29 L497.64,541.45 L500.00,541.72 L502.36,542.44 L504.73,532.75 L507.09,531.83 L509.45,533.21 L511.81,533.28 L514.18,532.32 L516.54,532.54 L518.90,530.61 L521.26,538.99 L523.63,534.91 L525.99,533.82 L528.35,535.53 L530.71,536.52 L533.08,536.34 L535.44,536.45 L537.80,533.58 L540.16,535.43 L542.53,534.18 L544.89,535.31 L547.25,534.38 L549.62,534.04 L551.98,535.98 L554.34,533.28 L556.70,536.21 L559.07,537.07 L561.43,536.35 L563.79,531.66 L566.15,531.35 L568.52,530.09 L570.88,536.58 L573.24,537.85 L575.60,539.43 L577.97,539.77 L580.33,545.09 L582.69,545.65 L585.05,547.48 L587.42,543.18 L589.78,539.30 L592.14,538.95 L594.51,537.99 L596.87,538.18 L599.23,535.41 L601.59,536.39 L603.96,540.20 L606.32,543.84 L608.68,544.37 L611.04,544.61 L613.41,544.12 L615.77,545.84 L618.13,542.90 L620.49,538.77 L622.86,537.33 L625.22,536.78 L627.58,537.66 L629.95,538.33 L632.31,538.58 L634.67,536.97 L637.03,539.65 L639.40,537.95 L641.76,538.35 L644.12,538.48 L646.48,538.40 L648.85,538.70 L651.21,542.12 L653.57,542.08 L655.93,544.32 L658.30,544.86 L660.66,544.50 L663.02,543.85 L665.38,541.90 L667.75,540.92 L670.11,541.35 L672.47,538.77 L674.84,538.17 L677.20,537.90 L679.56,538.38 L681.92,540.19 L684.29,540.55 L686.65,540.69 L689.01,544.80 L691.37,544.39 L693.74,544.98 L696.10,545.44 L698.46,546.13 L700.82,545.13 L703.19,544.74 L705.55,542.08 L707.91,539.87 L710.27,537.48 L712.64,534.46 L715.00,534.65 L717.36,534.88 L719.73,535.15 L722.09,536.36 L724.45,537.11 L726.81,538.99 L731.54,538.96 L733.90,538.08 L736.26,540.61 L738.63,540.82 L740.99,541.24 L743.35,543.15 L745.71,542.21 L750.44,543.45 L752.80,544.86 L755.16,544.86 L757.53,545.40 L759.89,544.70 L762.25,543.33 L764.62,544.64 L766.98,545.33 L769.34,543.08 L771.70,543.08 L774.07,543.41 L776.43,542.40 L778.79,542.46 L781.15,541.77 L783.52,535.85 L785.88,535.28 L788.24,526.65 L790.60,526.24 L792.97,526.15 L795.33,526.59 L797.69,526.71 L800.05,532.30 L802.42,532.32 L804.78,537.93 L807.14,538.87 L809.51,538.42 L811.87,539.20 L814.23,538.61 L816.59,539.33 L818.96,538.68 L821.32,539.28 L823.68,535.70 L826.04,538.10 L828.41,536.53 L830.77,531.56 L833.13,530.42 L835.49,532.51 L837.86,532.18 L840.22,535.01 L842.58,531.09 L844.95,530.98 L847.31,527.34 L849.67,527.04 L852.03,525.10 L854.40,522.43 L856.76,521.09 L859.12,520.88 L861.48,520.58 L863.85,520.81 L866.21,518.30 L868.57,518.01 L870.93,520.84 L873.30,521.14 L875.66,518.14 L878.02,515.52 L880.38,524.44 L882.75,526.44 L885.11,523.05 L887.47,522.40 L889.84,521.74 L892.20,525.73 L894.56,529.58 L896.92,529.47 L899.29,527.57 L901.65,533.24 L904.01,530.37 L906.37,530.50 L908.74,532.94 L911.10,530.62 L913.46,526.99 L915.82,529.03 L918.19,529.92 L920.55,534.64 L922.91,536.52 L925.27,536.40 L927.64,535.27 L930.00,539.30" fill="none" stroke="#22c55e" stroke-width="2.2" stroke-linecap="round" />
</svg>
