<svg xmlns="http://www.w3.org/2000/svg" viewBox="0 0 960 720" width="960" height="720">
<rect width="960" height="720" fill="#0f172a" />
<text x="480" y="28" fill="#e2e8f0" font-size="16" font-weight="700" text-anchor="middle">行走速度均值趋势图</text>
<text x="70" y="70" fill="#e2e8f0" font-size="13" font-weight="600">本月分天指标明细</text>
<line x1="70" y1="323.00" x2="930" y2="323.00" stroke="#94a3b8" stroke-opacity="0.18" stroke-width="1" />
<text x="62" y="327.00" fill="#cbd5f5" font-size="10" text-anchor="end">3.44</text>
<line x1="70" y1="260.75" x2="930" y2="260.75" stroke="#94a3b8" stroke-opacity="0.18" stroke-width="1" />
<text x="62" y="264.75" fill="#cbd5f5" font-size="10" text-anchor="end">3.81</text>
<line x1="70" y1="198.50" x2="930" y2="198.50" stroke="#94a3b8" stroke-opacity="0.18" stroke-width="1" />
<text x="62" y="202.50" fill="#cbd5f5" font-size="10" text-anchor="end">4.18</text>
<line x1="70" y1="136.25" x2="930" y2="136.25" stroke="#94a3b8" stroke-opacity="0.18" stroke-width="1" />
<text x="62" y="140.25" fill="#cbd5f5" font-size="10" text-anchor="end">4.55</text>
<line x1="70" y1="74.00" x2="930" y2="74.00" stroke="#94a3b8" stroke-opacity="0.18" stroke-width="1" />
<text x="62" y="78.00" fill="#cbd5f5" font-size="10" text-anchor="end">4.92</text>
<line x1="70.00" y1="323" x2="70.00" y2="327" stroke="#94a3b8" stroke-opacity="0.5" stroke-width="1" />
<text x="70.00" y="341" fill="#cbd5f5" font-size="10" text-anchor="middle">11-19</text>
<line x1="242.00" y1="323" x2="242.00" y2="327" stroke="#94a3b8" stroke-opacity="0.5" stroke-width="1" />
<text x="242.00" y="341" fill="#cbd5f5" font-size="10" text-anchor="middle">11-24</text>
<line x1="414.00" y1="323" x2="414.00" y2="327" stroke="#94a3b8" stroke-opacity="0.5" stroke-width="1" />
<text x="414.00" y="341" fill="#cbd5f5" font-size="10" text-anchor="middle">11-30</text>
<line x1="586.00" y1="323" x2="586.00" y2="327" stroke="#94a3b8" stroke-opacity="0.5" stroke-width="1" />
<text x="586.00" y="341" fill="#cbd5f5" font-size="10" text-anchor="middle">12-06</text>
<line x1="758.00" y1="323" x2="758.00" y2="327" stroke="#94a3b8" stroke-opacity="0.5" stroke-width="1" />
<text x="758.00" y="341" fill="#cbd5f5" font-size="10" text-anchor="middle">12-12</text>
<line x1="930.00" y1="323" x2="930.00" y2="327" stroke="#94a3b8" stroke-opacity="0.5" stroke-width="1" />
<text x="930.00" y="341" fill="#cbd5f5" font-size="10" text-anchor="middle">12-18</text>
<line x1="70" y1="74" x2="70" y2="323" stroke="#94a3b8" stroke-width="1" />
<line x1="70" y1="323" x2="930" y2="323" stroke="#94a3b8" stroke-width="1" />
<path d="M70.00,217.16 L99.66,232.28 L129.31,245.25 L158.97,236.07 L188.62,200.45 L218.28,143.84 L247.93,234.86 L277.59,210.08 L307.24,169.45 L336.90,107.61 L366.55,252.56 L396.21,267.60 L425.86,212.40 L455.52,183.84 L485.17,209.08 L514.83,201.73 L544.48,233.48 L574.14,171.47 L603.79,270.58 L633.45,171.65 L663.10,289.39 L692.76,257.04 L722.41,205.54 L752.07,191.81 L781.72,155.81 L811.38,259.50 L841.03,155.86 L870.69,207.06 L900.34,210.89 L930.00,192.81" fill="none" stroke="#38bdf8" stroke-width="2.2" stroke-linecap="round" />
<circle cx="70.00" cy="217.16" r="3" fill="#38bdf8" stroke="#0f172a" stroke-width="1" />
<text x="70.00" y="207.16" fill="#e2e8f0" font-size="9" text-anchor="middle">4.07</text>
<circle cx="99.66" cy="232.28" r="3" fill="#38bdf8" stroke="#0f172a" stroke-width="1" />
<text x="99.66" y="212.28" fill="#e2e8f0" font-size="9" text-anchor="middle">3.98</text>
<circle cx="129.31" cy="245.25" r="3" fill="#38bdf8" stroke="#0f172a" stroke-width="1" />
<text x="129.31" y="235.25" fill="#e2e8f0" font-size="9" text-anchor="middle">3.9</text>
<circle cx="158.97" cy="236.07" r="3" fill="#38bdf8" stroke="#0f172a" stroke-width="1" />
<text x="158.97" y="216.07" fill="#e2e8f0" font-size="9" text-anchor="middle">3.95</text>
<circle cx="188.62" cy="200.45" r="3" fill="#38bdf8" stroke="#0f172a" stroke-width="1" />
<text x="188.62" y="190.45" fill="#e2e8f0" font-size="9" text-anchor="middle">4.16</text>
<circle cx="218.28" cy="143.84" r="3" fill="#38bdf8" stroke="#0f172a" stroke-width="1" />
<text x="218.28" y="123.84" fill="#e2e8f0" font-size="9" text-anchor="middle">4.5</text>
<circle cx="247.93" cy="234.86" r="3" fill="#38bdf8" stroke="#0f172a" stroke-width="1" />
<text x="247.93" y="224.86" fill="#e2e8f0" font-size="9" text-anchor="middle">3.96</text>
<circle cx="277.59" cy="210.08" r="3" fill="#38bdf8" stroke="#0f172a" stroke-width="1" />
<text x="277.59" y="190.08" fill="#e2e8f0" font-size="9" text-anchor="middle">4.11</text>
<circle cx="307.24" cy="169.45" r="3" fill="#38bdf8" stroke="#0f172a" stroke-width="1" />
<text x="307.24" y="159.45" fill="#e2e8f0" font-size="9" text-anchor="middle">4.35</text>
<circle cx="336.90" cy="107.61" r="3" fill="#38bdf8" stroke="#0f172a" stroke-width="1" />
<text x="336.90" y="87.61" fill="#e2e8f0" font-size="9" text-anchor="middle">4.72</text>
<circle cx="366.55" cy="252.56" r="3" fill="#38bdf8" stroke="#0f172a" stroke-width="1" />
<text x="366.55" y="242.56" fill="#e2e8f0" font-size="9" text-anchor="middle">3.85</text>
<circle cx="396.21" cy="267.60" r="3" fill="#38bdf8" stroke="#0f172a" stroke-width="1" />
<text x="396.21" y="247.60" fill="#e2e8f0" font-size="9" text-anchor="middle">3.77</text>
<circle cx="425.86" cy="212.40" r="3" fill="#38bdf8" stroke="#0f172a" stroke-width="1" />
<text x="425.86" y="202.40" fill="#e2e8f0" font-size="9" text-anchor="middle">4.09</text>
<circle cx="455.52" cy="183.84" r="3" fill="#38bdf8" stroke="#0f172a" stroke-width="1" />
<text x="455.52" y="163.84" fill="#e2e8f0" font-size="9" text-anchor="middle">4.26</text>
<circle cx="485.17" cy="209.08" r="3" fill="#38bdf8" stroke="#0f172a" stroke-width="1" />
<text x="485.17" y="199.08" fill="#e2e8f0" font-size="9" text-anchor="middle">4.11</text>
<circle cx="514.83" cy="201.73" r="3" fill="#38bdf8" stroke="#0f172a" stroke-width="1" />
<text x="514.83" y="181.73" fill="#e2e8f0" font-size="9" text-anchor="middle">4.16</text>
<circle cx="544.48" cy="233.48" r="3" fill="#38bdf8" stroke="#0f172a" stroke-width="1" />
<text x="544.48" y="223.48" fill="#e2e8f0" font-size="9" text-anchor="middle">3.97</text>
<circle cx="574.14" cy="171.47" r="3" fill="#38bdf8" stroke="#0f172a" stroke-width="1" />
<text x="574.14" y="151.47" fill="#e2e8f0" font-size="9" text-anchor="middle">4.34</text>
<circle cx="603.79" cy="270.58" r="3" fill="#38bdf8" stroke="#0f172a" stroke-width="1" />
<text x="603.79" y="260.58" fill="#e2e8f0" font-size="9" text-anchor="middle">3.75</text>
<circle cx="633.45" cy="171.65" r="3" fill="#38bdf8" stroke="#0f172a" stroke-width="1" />
<text x="633.45" y="151.65" fill="#e2e8f0" font-size="9" text-anchor="middle">4.34</text>
<circle cx="663.10" cy="289.39" r="3" fill="#38bdf8" stroke="#0f172a" stroke-width="1" />
<text x="663.10" y="279.39" fill="#e2e8f0" font-size="9" text-anchor="middle">3.64</text>
<circle cx="692.76" cy="257.04" r="3" fill="#38bdf8" stroke="#0f172a" stroke-width="1" />
<text x="692.76" y="237.04" fill="#e2e8f0" font-size="9" text-anchor="middle">3.83</text>
<circle cx="722.41" cy="205.54" r="3" fill="#38bdf8" stroke="#0f172a" stroke-width="1" />
<text x="722.41" y="195.54" fill="#e2e8f0" font-size="9" text-anchor="middle">4.13</text>
<circle cx="752.07" cy="191.81" r="3" fill="#38bdf8" stroke="#0f172a" stroke-width="1" />
<text x="752.07" y="171.81" fill="#e2e8f0" font-size="9" text-anchor="middle">4.22</text>
<circle cx="781.72" cy="155.81" r="3" fill="#38bdf8" stroke="#0f172a" stroke-width="1" />
<text x="781.72" y="145.81" fill="#e2e8f0" font-size="9" text-anchor="middle">4.43</text>
<circle cx="811.38" cy="259.50" r="3" fill="#38bdf8" stroke="#0f172a" stroke-width="1" />
<text x="811.38" y="239.50" fill="#e2e8f0" font-size="9" text-anchor="middle">3.81</text>
<circle cx="841.03" cy="155.86" r="3" fill="#38bdf8" stroke="#0f172a" stroke-width="1" />
<text x="841.03" y="145.86" fill="#e2e8f0" font-size="9" text-anchor="middle">4.43</text>
<circle cx="870.69" cy="207.06" r="3" fill="#38bdf8" stroke="#0f172a" stroke-width="1" />
<text x="870.69" y="187.06" fill="#e2e8f0" font-size="9" text-anchor="middle">4.13</text>
<circle cx="900.34" cy="210.89" r="3" fill="#38bdf8" stroke="#0f172a" stroke-width="1" />
<text x="900.34" y="200.89" fill="#e2e8f0" font-size="9" text-anchor="middle">4.1</text>
<circle cx="930.00" cy="192.81" r="3" fill="#38bdf8" stroke="#0f172a" stroke-width="1" />
<text x="930.00" y="172.81" fill="#e2e8f0" font-size="9" text-anchor="middle">4.21</text>
<text x="70" y="403" fill="#e2e8f0" font-size="13" font-weight="600">本年核心指标趋势（滑动7日窗口平均）</text>
<line x1="70" y1="656.00" x2="930" y2="656.00" stroke="#94a3b8" stroke-opacity="0.18" stroke-width="1" />
<text x="62" y="660.00" fill="#cbd5f5" font-size="10" text-anchor="end">3.63</text>
<line x1="70" y1="593.75" x2="930" y2="593.75" stroke="#94a3b8" stroke-opacity="0.18" stroke-width="1" />
<text x="62" y="597.75" fill="#cbd5f5" font-size="10" text-anchor="end">3.94</text>
<line x1="70" y1="531.50" x2="930" y2="531.50" stroke="#94a3b8" stroke-opacity="0.18" stroke-width="1" />
<text x="62" y="535.50" fill="#cbd5f5" font-size="10" text-anchor="end">4.24</text>
<line x1="70" y1="469.25" x2="930" y2="469.25" stroke="#94a3b8" stroke-opacity="0.18" stroke-width="1" />
<text x="62" y="473.25" fill="#cbd5f5" font-size="10" text-anchor="end">4.54</text>
<line x1="70" y1="407.00" x2="930" y2="407.00" stroke="#94a3b8" stroke-opacity="0.18" stroke-width="1" />
<text x="62" y="411.00" fill="#cbd5f5" font-size="10" text-anchor="end">4.84</text>
<line x1="70.00" y1="656" x2="70.00" y2="660" stroke="#94a3b8" stroke-opacity="0.5" stroke-width="1" />
<text x="70.00" y="674" fill="#cbd5f5" font-size="10" text-anchor="middle">2024-12</text>
<line x1="242.00" y1="656" x2="242.00" y2="660" stroke="#94a3b8" stroke-opacity="0.5" stroke-width="1" />
<text x="242.00" y="674" fill="#cbd5f5" font-size="10" text-anchor="middle">2025-03</text>
<line x1="414.00" y1="656" x2="414.00" y2="660" stroke="#94a3b8" stroke-opacity="0.5" stroke-width="1" />
<text x="414.00" y="674" fill="#cbd5f5" font-size="10" text-anchor="middle">2025-05</text>
<line x1="586.00" y1="656" x2="586.00" y2="660" stroke="#94a3b8" stroke-opacity="0.5" stroke-width="1" />
<text x="586.00" y="674" fill="#cbd5f5" font-size="10" text-anchor="middle">2025-07</text>
<line x1="758.00" y1="656" x2="758.00" y2="660" stroke="#94a3b8" stroke-opacity="0.5" stroke-width="1" />
<text x="758.00" y="674" fill="#cbd5f5" font-size="10" text-anchor="middle">2025-10</text>
<line x1="930.00" y1="656" x2="930.00" y2="660" stroke="#94a3b8" stroke-opacity="0.5" stroke-width="1" />
<text x="930.00" y="674" fill="#cbd5f5" font-size="10" text-anchor="middle">2025-12</text>
<line x1="70" y1="407" x2="70" y2="656" stroke="#94a3b8" stroke-width="1" />
<line x1="70" y1="656" x2="930" y2="656" stroke="#94a3b8" stroke-width="1" />
<path d="M70.00,656.00 L70.00,448.20 L72.36,457.42 L74.73,484.79 L77.09,475.26 L79.45,466.63 L81.81,476.22 L84.18,476.62 L86.54,463.51 L88.90,466.67 L91.26,461.50 L93.63,479.68 L95.99,487.61 L98.35,481.23 L100.71,486.80 L103.08,498.59 L105.44,493.13 L107.80,488.85 L110.16,474.31 L112.53,475.06 L114.89,467.73 L117.25,460.97 L119.62,465.93 L121.98,470.43 L124.34,483.66 L126.70,493.60 L129.07,488.40 L131.43,499.35 L133.79,501.43 L136.15,500.27 L138.52,491.53 L140.88,492.63 L143.24,481.63 L145.60,481.08 L147.97,480.60 L150.33,483.54 L152.69,489.56 L155.05,496.76 L157.42,485.46 L159.78,496.22 L164.51,512.02 L166.87,533.57 L169.23,553.88 L171.59,571.16 L173.96,569.32 L178.68,566.23 L181.04,551.30 L183.41,544.78 L185.77,544.93 L188.13,528.57 L190.49,515.92 L192.86,515.52 L195.22,519.06 L197.58,529.23 L199.95,519.32 L202.31,501.76 L204.67,492.83 L207.03,492.25 L209.40,501.24 L211.76,508.33 L214.12,503.90 L216.48,505.05 L218.85,485.21 L221.21,484.31 L223.57,486.01 L225.93,481.56 L228.30,483.02 L230.66,479.54 L233.02,486.59 L235.38,501.12 L237.75,507.72 L240.11,508.05 L242.47,520.14 L244.84,509.61 L247.20,507.84 L249.56,502.38 L251.92,499.35 L254.29,490.86 L256.65,495.15 L259.01,498.87 L261.37,491.37 L263.74,498.79 L266.10,520.31 L268.46,534.54 L270.82,543.14 L273.19,530.00 L275.55,519.59 L277.91,532.55 L280.27,537.04 L282.64,514.35 L285.00,506.67 L287.36,501.28 L289.73,516.75 L292.09,516.49 L294.45,515.44 L296.81,506.32 L299.18,498.38 L301.54,499.56 L303.90,504.45 L306.26,492.59 L308.63,483.32 L310.99,479.42 L313.35,493.40 L315.71,511.99 L318.08,514.36 L320.44,515.81 L322.80,520.93 L325.16,523.41 L327.53,530.66 L329.89,525.20 L332.25,531.75 L334.62,529.01 L336.98,536.32 L339.34,526.11 L341.70,538.46 L344.07,540.07 L346.43,535.94 L348.79,528.41 L351.15,522.68 L353.52,514.24 L355.88,525.88 L358.24,518.51 L360.60,508.45 L362.97,510.51 L365.33,517.99 L367.69,521.34 L370.05,517.21 L372.42,525.50 L374.78,519.28 L377.14,527.02 L379.51,522.04 L381.87,518.86 L384.23,540.97 L386.59,556.29 L388.96,560.61 L391.32,586.69 L393.68,591.18 L396.04,599.05 L398.41,591.22 L400.77,564.99 L403.13,556.94 L405.49,544.30 L407.86,526.59 L410.22,517.30 L412.58,512.60 L414.95,509.86 L417.31,517.09 L419.67,514.73 L422.03,510.18 L424.40,517.15 L426.76,529.23 L429.12,532.51 L431.48,537.24 L433.85,542.27 L436.21,549.49 L438.57,551.09 L440.93,547.68 L443.30,532.59 L445.66,523.03 L448.02,518.54 L450.38,516.25 L452.75,503.85 L455.11,489.06 L457.47,488.15 L459.84,528.24 L462.20,529.25 L464.56,536.25 L466.92,529.75 L469.29,535.81 L471.65,552.31 L474.01,551.95 L476.37,520.47 L478.74,514.17 L481.10,506.82 L483.46,503.39 L485.82,503.14 L488.19,504.75 L490.55,509.26 L492.91,511.14 L495.27,530.48 L497.64,535.38 L500.00,545.64 L502.36,544.37 L504.73,557.13 L507.09,559.82 L509.45,557.15 L511.81,551.53 L514.18,549.19 L516.54,548.79 L518.90,557.97 L521.26,537.50 L523.63,541.64 L525.99,542.82 L528.35,544.59 L530.71,541.39 L533.08,532.61 L535.44,536.90 L537.80,552.96 L540.16,553.46 L542.53,551.05 L544.89,549.49 L547.25,557.21 L549.62,562.81 L551.98,548.97 L554.34,534.69 L556.70,508.96 L559.07,505.84 L561.43,514.19 L563.79,516.56 L566.15,512.80 L568.52,510.25 L570.88,512.18 L573.24,525.79 L575.60,534.85 L577.97,536.82 L580.33,519.66 L582.69,523.79 L585.05,528.63 L587.42,523.90 L589.78,535.63 L592.14,519.20 L594.51,507.37 L596.87,516.76 L599.23,522.99 L601.59,516.22 L603.96,514.39 L606.32,496.78 L608.68,498.85 L611.04,496.73 L613.41,498.49 L615.77,492.55 L618.13,501.77 L620.49,521.53 L622.86,529.13 L625.22,537.97 L627.58,538.29 L629.95,536.39 L632.31,537.20 L634.67,544.46 L637.03,546.04 L639.40,549.31 L641.76,539.42 L644.12,536.55 L646.48,525.16 L648.85,527.36 L651.21,506.62 L653.57,507.11 L655.93,498.92 L658.30,518.03 L660.66,529.24 L663.02,536.77 L665.38,542.45 L667.75,551.99 L670.11,538.99 L672.47,546.09 L674.84,530.17 L677.20,527.17 L679.56,526.93 L681.92,518.25 L684.29,515.39 L686.65,514.95 L689.01,513.75 L691.37,517.73 L693.74,509.85 L696.10,509.87 L698.46,505.86 L700.82,507.95 L703.19,503.01 L705.55,505.02 L707.91,511.94 L710.27,519.15 L712.64,533.52 L715.00,528.41 L717.36,538.66 L719.73,545.47 L722.09,545.48 L724.45,537.62 L726.81,526.92 L729.18,509.38 L731.54,521.28 L733.90,523.37 L736.26,525.32 L738.63,528.30 L740.99,537.74 L743.35,546.14 L745.71,556.96 L748.08,598.64 L750.44,602.00 L752.80,606.45 L755.16,586.83 L757.53,596.32 L759.89,604.98 L762.25,614.80 L764.62,569.54 L766.98,560.03 L769.34,563.17 L771.70,585.38 L774.07,575.56 L776.43,579.32 L778.79,575.79 L781.15,568.55 L783.52,573.70 L785.88,564.91 L788.24,556.56 L790.60,544.75 L792.97,537.00 L795.33,525.63 L797.69,526.90 L800.05,516.65 L802.42,516.06 L804.78,521.69 L807.14,527.00 L809.51,530.43 L811.87,540.21 L814.23,540.13 L816.59,545.56 L818.96,542.79 L821.32,534.55 L823.68,548.63 L826.04,535.92 L828.41,539.54 L830.77,554.90 L833.13,559.93 L835.49,532.95 L837.86,554.00 L840.22,543.37 L842.58,558.98 L844.95,559.12 L847.31,553.76 L849.67,547.12 L852.03,576.86 L854.40,572.88 L856.76,582.19 L859.12,584.16 L861.48,582.68 L863.85,587.53 L866.21,595.82 L868.57,600.02 L870.93,584.59 L873.30,565.65 L875.66,565.24 L878.02,564.00 L880.38,552.99 L882.75,528.89 L885.11,531.78 L887.47,543.54 L889.84,555.55 L892.20,546.61 L894.56,546.44 L896.92,552.09 L899.29,574.13 L901.65,559.93 L904.01,560.45 L906.37,553.32 L908.74,571.80 L911.10,580.20 L913.46,580.86 L915.82,573.57 L918.19,570.83 L920.55,568.89 L922.91,566.12 L925.27,551.70 L927.64,543.62 L930.00,541.40 L930.00,656.00 Z" fill="#38bdf8" fill-opacity="0.16" stroke="none" />
<path d="M70.00,448.20 L72.36,457.42 L74.73,484.79 L77.09,475.26 L79.45,466.63 L81.81,476.22 L84.18,476.62 L86.54,463.51 L88.90,466.67 L91.26,461.50 L93.63,479.68 L95.99,487.61 L98.35,481.23 L100.71,486.80 L103.08,498.59 L105.44,493.13 L107.80,488.85 L110.16,474.31 L112.53,475.06 L114.89,467.73 L117.25,460.97 L119.62,465.93 L121.98,470.43 L124.34,483.66 L126.70,493.60 L129.07,488.40 L131.43,499.35 L133.79,501.43 L136.15,500.27 L138.52,491.53 L140.88,492.63 L143.24,481.63 L145.60,481.08 L147.97,480.60 L150.33,483.54 L152.69,489.56 L155.05,496.76 L157.42,485.46 L159.78,496.22 L164.51,512.02 L166.87,533.57 L169.23,553.88 L171.59,571.16 L173.96,569.32 L178.68,566.23 L181.04,551.30 L183.41,544.78 L185.77,544.93 L188.13,528.57 L190.49,515.92 L192.86,515.52 L195.22,519.06 L197.58,529.23 L199.95,519.32 L202.31,501.76 L204.67,492.83 L207.03,492.25 L209.40,501.24 L211.76,508.33 L214.12,503.90 L216.48,505.05 L218.85,485.21 L221.21,484.31 L223.57,486.01 L225.93,481.56 L228.30,483.02 L230.66,479.54 L233.02,486.59 L235.38,501.12 L237.75,507.72 L240.11,508.05 L242.47,520.14 L244.84,509.61 L247.20,507.84 L249.56,502.38 L251.92,499.35 L254.29,490.86 L256.65,495.15 L259.01,498.87 L261.37,491.37 L263.74,498.79 L266.10,520.31 L268.46,534.54 L270.82,543.14 L273.19,530.00 L275.55,519.59 L277.91,532.55 L280.27,537.04 L282.64,514.35 L285.00,506.67 L287.36,501.28 L289.73,516.75 L292.09,516.49 L294.45,515.44 L296.81,506.32 L299.18,498.38 L301.54,499.56 L303.90,504.45 L306.26,492.59 L308.63,483.32 L310.99,479.42 L313.35,493.40 L315.71,511.99 L318.08,514.36 L320.44,515.81 L322.80,520.93 L325.16,523.41 L327.53,530.66 L329.89,525.20 L332.25,531.75 L334.62,529.01 L336.98,536.32 L339.34,526.11 L341.70,538.46 L344.07,540.07 L346.43,535.94 L348.79,528.41 L351.15,522.68 L353.52,514.24 L355.88,525.88 L358.24,518.51 L360.60,508.45 L362.97,510.51 L365.33,517.99 L367.69,521.34 L370.05,517.21 L372.42,525.50 L374.78,519.28 L377.14,527.02 L379.51,522.04 L381.87,518.86 L384.23,540.97 L386.59,556.29 L388.96,560.61 L391.32,586.69 L393.68,591.18 L396.04,599.05 L398.41,591.22 L400.77,564.99 L403.13,556.94 L405.49,544.30 L407.86,526.59 L410.22,517.30 L412.58,512.60 L414.95,509.86 L417.31,517.09 L419.67,514.73 L422.03,510.18 L424.40,517.15 L426.76,529.23 L429.12,532.51 L431.48,537.24 L433.85,542.27 L436.21,549.49 L438.57,551.09 L440.93,547.68 L443.30,532.59 L445.66,523.03 L448.02,518.54 L450.38,516.25 L452.75,503.85 L455.11,489.06 L457.47,488.15 L459.84,528.24 L462.20,529.25 L464.56,536.25 L466.92,529.75 L469.29,535.81 L471.65,552.31 L474.01,551.95 L476.37,520.47 L478.74,514.17 L481.10,506.82 L483.46,503.39 L485.82,503.14 L488.19,504.75 L490.55,509.26 L492.91,511.14 L495.27,530.48 L497.64,535.38 L500.00,545.64 L502.36,544.37 L504.73,557.13 L507.09,559.82 L509.45,557.15 L511.81,551.53 L514.18,549.19 L516.54,548.79 L518.90,557.97 L521.26,537.50 L523.63,541.64 L525.99,542.82 L528.35,544.59 L530.71,541.39 L533.08,532.61 L535.44,536.90 L537.80,552.96 L540.16,553.46 L542.53,551.05 L544.89,549.49 L547.25,557.21 L549.62,562.81 L551.98,548.97 L554.34,534.69 L556.70,508.96 L559.07,505.84 L561.43,514.19 L563.79,516.56 L566.15,512.80 L568.52,510.25 L570.88,512.18 L573.24,525.79 L575.60,534.85 L577.97,536.82 L580.33,519.66 L582.69,523.79 L585.05,528.63 L587.42,523.90 L589.78,535.63 L592.14,519.20 L594.51,507.37 L596.87,516.76 L599.23,522.99 L601.59,516.22 L603.96,514.39 L606.32,496.78 L608.68,498.85 L611.04,496.73 L613.41,498.49 L615.77,492.55 L618.13,501.77 L620.49,521.53 L622.86,529.13 L625.22,537.97 L627.58,538.29 L629.95,536.39 L632.31,537.20 L634.67,544.46 L637.03,546.04 L639.40,549.31 L641.76,539.42 L644.12,536.55 L646.48,525.16 L648.85,527.36 L651.21,506.62 L653.57,507.11 L655.93,498.92 L658.30,518.03 L660.66,529.24 L663.02,536.77 L665.38,542.45 L667.75,551.99 L670.11,538.99 L672.47,546.09 L674.84,530.17 L677.20,527.17 L679.56,526.93 L681.92,518.25 L684.29,515.39 L686.65,514.95 L689.01,513.75 L691.37,517.73 L693.74,509.85 L696.10,509.87 L698.46,505.86 L700.82,507.95 L703.19,503.01 L705.55,505.02 L707.91,511.94 L710.27,519.15 L712.64,533.52 L715.00,528.41 L717.36,538.66 L719.73,545.47 L722.09,545.48 L724.45,537.62 L726.81,526.92 L729.18,509.38 L731.54,521.28 L733.90,523.37 L736.26,525.32 L738.63,528.30 L740.99,537.74 L743.35,546.14 L745.71,556.96 L748.08,598.64 L750.44,602.00 L752.80,606.45 L755.16,586.83 L757.53,596.32 L759.89,604.98 L762.25,614.80 L764.62,569.54 L766.98,560.03 L769.34,563.17 L771.70,585.38 L774.07,575.56 L776.43,579.32 L778.79,575.79 L781.15,568.55 L783.52,573.70 L785.88,564.91 L788.24,556.56 L790.60,544.75 L792.97,537.00 L795.33,525.63 L797.69,526.90 L800.05,516.65 L802.42,516.06 L804.78,521.69 L807.14,527.00 L809.51,530.43 L811.87,540.21 L814.23,540.13 L816.59,545.56 L818.96,542.79 L821.32,534.55 L823.68,548.63 L826.04,535.92 L828.41,539.54 L830.77,554.90 L833.13,559.93 L835.49,532.95 L837.86,554.00 L840.22,543.37 L842.58,558.98 L844.95,559.12 L847.31,553.76 L849.67,547.12 L852.03,576.86 L854.40,572.88 L856.76,582.19 L859.12,584.16 L861.48,582.68 L863.85,587.53 L866.21,595.82 L868.57,600.02 L870.93,584.59 L873.30,565.65 L875.66,565.24 L878.02,564.00 L880.38,552.99 L882.75,528.89 L885.11,531.78 L887.47,543.54 L889.84,555.55 L892.20,546.61 L894.56,546.44 L896.92,552.09 L899.29,574.13 L901.65,559.93 L904.01,560.45 L906.37,553.32 L908.74,571.80 L911.10,580.20 L913.46,580.86 L915.82,573.57 L918.19,570.83 L920.55,568.89 L922.91,566.12 L925.27,551.70 L927.64,543.62 L930.00,541.40" fill="none" stroke="#38bdf8" stroke-width="2.2" stroke-linecap="round" />
</svg>
