<svg xmlns="http://www.w3.org/2000/svg" viewBox="0 0 960 640" width="960" height="640">
  <rect width="960" height="640" fill="#0f172a" />
  <line x1="40" y1="40.00" x2="920.00" y2="40.00" stroke="#94a3b8" stroke-opacity="0.18" stroke-width="1" /><line x1="40" y1="128.00" x2="920.00" y2="128.00" stroke="#94a3b8" stroke-opacity="0.18" stroke-width="1" /><line x1="40" y1="216.00" x2="920.00" y2="216.00" stroke="#94a3b8" stroke-opacity="0.18" stroke-width="1" /><line x1="40" y1="304.00" x2="920.00" y2="304.00" stroke="#94a3b8" stroke-opacity="0.18" stroke-width="1" />
  <line x1="40" y1="336.00" x2="920.00" y2="336.00" stroke="#94a3b8" stroke-opacity="0.18" stroke-width="1" /><line x1="40" y1="424.00" x2="920.00" y2="424.00" stroke="#94a3b8" stroke-opacity="0.18" stroke-width="1" /><line x1="40" y1="512.00" x2="920.00" y2="512.00" stroke="#94a3b8" stroke-opacity="0.18" stroke-width="1" /><line x1="40" y1="600.00" x2="920.00" y2="600.00" stroke="#94a3b8" stroke-opacity="0.18" stroke-width="1" />
  <line x1="40" y1="320.00" x2="920.00" y2="320.00" stroke="#1f2937" stroke-width="1" />
  <polyline points="40.00,150.83 70.34,171.05 100.69,197.26 131.03,140.86 161.38,216.08 191.72,282.76 222.07,211.75 252.41,169.42 282.76,247.64 313.10,304.00 343.45,67.40 373.79,43.05 404.14,170.03 434.48,213.70 464.83,144.87 495.17,173.25 525.52,149.33 555.86,258.39 586.21,151.14 616.55,232.58 646.90,155.34 677.24,108.71 707.59,209.48 737.93,221.28 768.28,223.68 798.62,40.00 828.97,278.99 859.31,191.00 889.66,208.06 920.00,240.76" fill="none" stroke="#60a5fa" stroke-width="2" stroke-linecap="round" stroke-linejoin="round" />
  <polyline points="40.00,475.33 42.43,486.34 44.86,501.78 47.29,533.55 49.72,563.84 52.15,575.37 54.59,580.66 57.02,598.48 59.45,597.75 61.88,600.00 64.31,558.97 66.74,542.66 69.17,564.50 71.60,558.53 74.03,540.26 76.46,546.71 78.90,557.31 81.33,581.52 83.76,584.93 86.19,575.99 88.62,584.75 91.05,580.63 93.48,575.57 95.91,562.02 98.34,557.55 100.77,565.17 103.20,556.25 105.64,556.91 108.07,556.00 110.50,562.03 112.93,560.11 115.36,564.00 117.79,553.71 120.22,551.10 122.65,544.00 125.08,546.34 127.51,535.51 129.94,548.88 132.38,529.02 134.81,500.58 137.24,442.78 139.67,394.26 142.10,342.65 144.53,342.56 146.96,336.00 149.39,352.90 151.82,359.90 154.25,369.17 156.69,402.46 159.12,429.84 161.55,430.01 163.98,426.19 166.41,418.07 168.84,444.50 171.27,488.04 173.70,503.96 176.13,510.06 178.56,505.15 180.99,503.87 183.43,515.77 185.86,508.95 188.29,528.85 190.72,528.72 193.15,521.95 195.58,520.16 198.01,517.97 200.44,519.01 202.87,510.68 205.30,495.09 207.73,487.97 210.17,493.02 212.60,475.80 215.03,487.04 217.46,488.94 219.89,493.88 222.32,499.33 224.75,507.12 227.18,489.65 229.61,484.27 232.04,489.55 234.48,483.17 236.91,456.97 239.34,429.80 241.77,426.73 244.20,458.47 246.63,479.26 249.06,474.23 251.49,467.55 253.92,503.07 256.35,516.64 258.78,527.65 261.22,505.13 263.65,513.75 266.08,514.56 268.51,530.31 270.94,547.32 273.37,552.09 275.80,551.13 278.23,576.22 280.66,574.01 283.09,579.19 285.52,566.72 287.96,537.64 290.39,532.34 292.82,513.63 295.25,500.32 297.68,510.40 300.11,505.17 302.54,509.69 304.97,500.57 307.40,506.14 309.83,511.33 312.27,536.24 314.70,518.14 317.13,517.42 319.56,519.15 321.99,527.96 324.42,537.79 326.85,544.93 329.28,520.38 331.71,528.21 334.14,539.81 336.57,540.33 339.01,537.95 341.44,531.51 343.87,543.15 346.30,534.62 348.73,550.91 351.16,541.40 353.59,544.06 356.02,546.69 358.45,520.27 360.88,494.29 363.31,482.67 365.75,442.19 368.18,433.09 370.61,428.33 373.04,430.92 375.47,467.73 377.90,487.03 380.33,504.18 382.76,524.97 385.19,537.90 387.62,539.06 390.06,544.93 392.49,535.59 394.92,527.17 397.35,539.05 399.78,530.83 402.21,515.60 404.64,507.75 407.07,504.42 409.50,498.17 411.93,489.66 414.36,480.95 416.80,478.57 419.23,496.47 421.66,515.25 424.09,521.92 426.52,522.32 428.95,540.74 431.38,555.96 433.81,565.19 436.24,519.37 438.67,513.57 441.10,498.11 443.54,501.10 445.97,492.87 448.40,481.22 450.83,474.94 453.26,507.24 455.69,520.13 458.12,530.07 460.55,535.42 462.98,537.82 465.41,529.00 467.85,525.86 470.28,524.11 472.71,495.98 475.14,488.92 477.57,475.05 480.00,471.42 482.43,456.36 484.86,453.33 487.29,457.97 489.72,466.01 492.15,468.01 494.59,466.92 497.02,460.31 499.45,489.78 501.88,488.74 504.31,486.54 506.74,487.95 509.17,495.16 511.60,508.67 514.03,505.66 516.46,483.95 518.90,481.39 521.33,481.43 523.76,475.67 526.19,464.41 528.62,453.10 531.05,467.60 533.48,493.01 535.91,535.66 538.34,541.67 540.77,537.53 543.20,543.86 545.64,557.78 548.07,558.98 550.50,549.68 552.93,516.32 555.36,500.80 557.79,498.34 560.22,515.98 562.65,508.07 565.08,501.80 567.51,518.61 569.94,509.71 572.38,534.29 574.81,552.30 577.24,536.17 579.67,528.51 582.10,543.89 584.53,536.00 586.96,558.25 589.39,556.54 591.82,550.92 594.25,546.95 596.69,562.70 599.12,546.86 601.55,525.44 603.98,519.73 606.41,510.79 608.84,511.35 611.27,514.71 613.70,506.08 616.13,489.82 618.56,488.33 620.99,487.17 623.43,501.48 625.86,508.65 628.29,525.57 630.72,519.55 633.15,550.69 635.58,544.89 638.01,550.01 640.44,541.38 642.87,520.57 645.30,507.78 647.73,498.97 650.17,489.04 652.60,504.75 655.03,491.88 657.46,494.59 659.89,501.59 662.32,500.34 664.75,521.52 667.18,521.91 669.61,520.96 672.04,525.73 674.48,516.33 676.91,529.92 679.34,530.03 681.77,530.69 684.20,531.71 686.63,539.00 689.06,536.09 691.49,533.95 693.92,527.48 696.35,515.05 698.78,518.50 701.22,503.15 703.65,493.86 706.08,492.70 708.51,494.22 710.94,502.32 713.37,519.16 715.80,510.46 718.23,500.48 720.66,496.99 723.09,488.08 725.52,479.27 727.96,470.01 730.39,458.02 732.82,437.79 735.25,433.49 737.68,419.14 740.11,448.31 742.54,426.58 744.97,407.62 747.40,387.44 749.83,399.67 752.27,414.72 754.70,419.29 757.13,409.13 759.56,423.55 761.99,424.97 764.42,431.96 766.85,448.29 769.28,438.30 771.71,450.06 774.14,441.23 776.57,463.16 779.01,466.73 781.44,477.61 783.87,470.78 786.30,483.53 788.73,488.56 791.16,476.84 793.59,467.10 796.02,468.28 798.45,467.50 800.88,466.00 803.31,455.77 805.75,454.06 808.18,466.59 810.61,445.29 813.04,457.58 815.47,448.79 817.90,430.84 820.33,427.92 822.76,463.53 825.19,450.48 827.62,468.02 830.06,447.60 832.49,440.08 834.92,454.02 837.35,460.87 839.78,424.86 842.21,421.03 844.64,406.91 847.07,397.67 849.50,400.82 851.93,389.52 854.36,393.24 856.80,382.76 859.23,403.60 861.66,434.96 864.09,455.41 866.52,458.95 868.95,473.55 871.38,493.90 873.81,479.90 876.24,446.91 878.67,425.42 881.10,425.79 883.54,421.11 885.97,406.93 888.40,377.45 890.83,413.86 893.26,434.46 895.69,446.39 898.12,435.26 900.55,428.37 902.98,435.27 905.41,448.99 907.85,442.37 910.28,421.19 912.71,430.03 915.14,436.83 917.57,455.77 920.00,461.73" fill="none" stroke="#60a5fa" stroke-width="2" stroke-linecap="round" stroke-linejoin="round" />
  
  
  </svg>