<svg xmlns="http://www.w3.org/2000/svg" viewBox="0 0 960 720" width="960" height="720">
<rect width="960" height="720" fill="#0f172a" />
<text x="480" y="28" fill="#e2e8f0" font-size="16" font-weight="700" text-anchor="middle">步行心率均值趋势图</text>
<text x="70" y="70" fill="#e2e8f0" font-size="13" font-weight="600">本月分天指标明细</text>
<line x1="70" y1="323.00" x2="930" y2="323.00" stroke="#94a3b8" stroke-opacity="0.18" stroke-width="1" />
<text x="62" y="327.00" fill="#cbd5f5" font-size="10" text-anchor="end">67.7</text>
<line x1="70" y1="260.75" x2="930" y2="260.75" stroke="#94a3b8" stroke-opacity="0.18" stroke-width="1" />
<text x="62" y="264.75" fill="#cbd5f5" font-size="10" text-anchor="end">77.7</text>
<line x1="70" y1="198.50" x2="930" y2="198.50" stroke="#94a3b8" stroke-opacity="0.18" stroke-width="1" />
<text x="62" y="202.50" fill="#cbd5f5" font-size="10" text-anchor="end">87.8</text>
<line x1="70" y1="136.25" x2="930" y2="136.25" stroke="#94a3b8" stroke-opacity="0.18" stroke-width="1" />
<text x="62" y="140.25" fill="#cbd5f5" font-size="10" text-anchor="end">97.8</text>
<line x1="70" y1="74.00" x2="930" y2="74.00" stroke="#94a3b8" stroke-opacity="0.18" stroke-width="1" />
<text x="62" y="78.00" fill="#cbd5f5" font-size="10" text-anchor="end">107.8</text>
<line x1="70.00" y1="323" x2="70.00" y2="327" stroke="#94a3b8" stroke-opacity="0.5" stroke-width="1" />
<text x="70.00" y="341" fill="#cbd5f5" font-size="10" text-anchor="middle">11-19</text>
<line x1="242.00" y1="323" x2="242.00" y2="327" stroke="#94a3b8" stroke-opacity="0.5" stroke-width="1" />
<text x="242.00" y="341" fill="#cbd5f5" font-size="10" text-anchor="middle">11-24</text>
<line x1="414.00" y1="323" x2="414.00" y2="327" stroke="#94a3b8" stroke-opacity="0.5" stroke-width="1" />
<text x="414.00" y="341" fill="#cbd5f5" font-size="10" text-anchor="middle">11-30</text>
<line x1="586.00" y1="323" x2="586.00" y2="327" stroke="#94a3b8" stroke-opacity="0.5" stroke-width="1" />
<text x="586.00" y="341" fill="#cbd5f5" font-size="10" text-anchor="middle">12-06</text>
<line x1="758.00" y1="323" x2="758.00" y2="327" stroke="#94a3b8" stroke-opacity="0.5" stroke-width="1" />
<text x="758.00" y="341" fill="#cbd5f5" font-size="10" text-anchor="middle">12-12</text>
<line x1="930.00" y1="323" x2="930.00" y2="327" stroke="#94a3b8" stroke-opacity="0.5" stroke-width="1" />
<text x="930.00" y="341" fill="#cbd5f5" font-size="10" text-anchor="middle">12-18</text>
<line x1="70" y1="74" x2="70" y2="323" stroke="#94a3b8" stroke-width="1" />
<line x1="70" y1="323" x2="930" y2="323" stroke="#94a3b8" stroke-width="1" />
<path d="M70.00,283.67 L99.66,258.89 L129.31,283.67 L158.97,302.25 L188.62,203.15 L218.28,113.33 L247.93,252.70 L277.59,231.02 L307.24,178.37 L336.90,94.75 L366.55,252.70 L396.21,258.89 L425.86,212.44 L455.52,227.92 L485.17,227.92 L514.83,227.92 L544.48,274.38 L574.14,271.28 L603.79,135.01 L633.45,212.44 L663.10,212.44 L692.76,231.02 L722.41,209.34 L752.07,283.67 L781.72,206.24 L811.38,221.73 L841.03,252.70 L870.69,141.21 L900.34,153.59 L930.00,218.63" fill="none" stroke="#60a5fa" stroke-width="2.2" stroke-linecap="round" />
<circle cx="70.00" cy="283.67" r="3" fill="#60a5fa" stroke="#0f172a" stroke-width="1" />
<text x="70.00" y="273.67" fill="#e2e8f0" font-size="9" text-anchor="middle">74</text>
<circle cx="99.66" cy="258.89" r="3" fill="#60a5fa" stroke="#0f172a" stroke-width="1" />
<text x="99.66" y="238.89" fill="#e2e8f0" font-size="9" text-anchor="middle">78</text>
<circle cx="129.31" cy="283.67" r="3" fill="#60a5fa" stroke="#0f172a" stroke-width="1" />
<text x="129.31" y="273.67" fill="#e2e8f0" font-size="9" text-anchor="middle">74</text>
<circle cx="158.97" cy="302.25" r="3" fill="#60a5fa" stroke="#0f172a" stroke-width="1" />
<text x="158.97" y="282.25" fill="#e2e8f0" font-size="9" text-anchor="middle">71</text>
<circle cx="188.62" cy="203.15" r="3" fill="#60a5fa" stroke="#0f172a" stroke-width="1" />
<text x="188.62" y="193.15" fill="#e2e8f0" font-size="9" text-anchor="middle">87</text>
<circle cx="218.28" cy="113.33" r="3" fill="#60a5fa" stroke="#0f172a" stroke-width="1" />
<text x="218.28" y="93.33" fill="#e2e8f0" font-size="9" text-anchor="middle">101.5</text>
<circle cx="247.93" cy="252.70" r="3" fill="#60a5fa" stroke="#0f172a" stroke-width="1" />
<text x="247.93" y="242.70" fill="#e2e8f0" font-size="9" text-anchor="middle">79</text>
<circle cx="277.59" cy="231.02" r="3" fill="#60a5fa" stroke="#0f172a" stroke-width="1" />
<text x="277.59" y="211.02" fill="#e2e8f0" font-size="9" text-anchor="middle">82.5</text>
<circle cx="307.24" cy="178.37" r="3" fill="#60a5fa" stroke="#0f172a" stroke-width="1" />
<text x="307.24" y="168.37" fill="#e2e8f0" font-size="9" text-anchor="middle">91</text>
<circle cx="336.90" cy="94.75" r="3" fill="#60a5fa" stroke="#0f172a" stroke-width="1" />
<text x="336.90" y="108.75" fill="#e2e8f0" font-size="9" text-anchor="middle">104.5</text>
<circle cx="366.55" cy="252.70" r="3" fill="#60a5fa" stroke="#0f172a" stroke-width="1" />
<text x="366.55" y="242.70" fill="#e2e8f0" font-size="9" text-anchor="middle">79</text>
<circle cx="396.21" cy="258.89" r="3" fill="#60a5fa" stroke="#0f172a" stroke-width="1" />
<text x="396.21" y="238.89" fill="#e2e8f0" font-size="9" text-anchor="middle">78</text>
<circle cx="425.86" cy="212.44" r="3" fill="#60a5fa" stroke="#0f172a" stroke-width="1" />
<text x="425.86" y="202.44" fill="#e2e8f0" font-size="9" text-anchor="middle">85.5</text>
<circle cx="455.52" cy="227.92" r="3" fill="#60a5fa" stroke="#0f172a" stroke-width="1" />
<text x="455.52" y="207.92" fill="#e2e8f0" font-size="9" text-anchor="middle">83</text>
<circle cx="485.17" cy="227.92" r="3" fill="#60a5fa" stroke="#0f172a" stroke-width="1" />
<text x="485.17" y="217.92" fill="#e2e8f0" font-size="9" text-anchor="middle">83</text>
<circle cx="514.83" cy="227.92" r="3" fill="#60a5fa" stroke="#0f172a" stroke-width="1" />
<text x="514.83" y="207.92" fill="#e2e8f0" font-size="9" text-anchor="middle">83</text>
<circle cx="544.48" cy="274.38" r="3" fill="#60a5fa" stroke="#0f172a" stroke-width="1" />
<text x="544.48" y="264.38" fill="#e2e8f0" font-size="9" text-anchor="middle">75.5</text>
<circle cx="574.14" cy="271.28" r="3" fill="#60a5fa" stroke="#0f172a" stroke-width="1" />
<text x="574.14" y="251.28" fill="#e2e8f0" font-size="9" text-anchor="middle">76</text>
<circle cx="603.79" cy="135.01" r="3" fill="#60a5fa" stroke="#0f172a" stroke-width="1" />
<text x="603.79" y="125.01" fill="#e2e8f0" font-size="9" text-anchor="middle">98</text>
<circle cx="633.45" cy="212.44" r="3" fill="#60a5fa" stroke="#0f172a" stroke-width="1" />
<text x="633.45" y="192.44" fill="#e2e8f0" font-size="9" text-anchor="middle">85.5</text>
<circle cx="663.10" cy="212.44" r="3" fill="#60a5fa" stroke="#0f172a" stroke-width="1" />
<text x="663.10" y="202.44" fill="#e2e8f0" font-size="9" text-anchor="middle">85.5</text>
<circle cx="692.76" cy="231.02" r="3" fill="#60a5fa" stroke="#0f172a" stroke-width="1" />
<text x="692.76" y="211.02" fill="#e2e8f0" font-size="9" text-anchor="middle">82.5</text>
<circle cx="722.41" cy="209.34" r="3" fill="#60a5fa" stroke="#0f172a" stroke-width="1" />
<text x="722.41" y="199.34" fill="#e2e8f0" font-size="9" text-anchor="middle">86</text>
<circle cx="752.07" cy="283.67" r="3" fill="#60a5fa" stroke="#0f172a" stroke-width="1" />
<text x="752.07" y="263.67" fill="#e2e8f0" font-size="9" text-anchor="middle">74</text>
<circle cx="781.72" cy="206.24" r="3" fill="#60a5fa" stroke="#0f172a" stroke-width="1" />
<text x="781.72" y="196.24" fill="#e2e8f0" font-size="9" text-anchor="middle">86.5</text>
<circle cx="811.38" cy="221.73" r="3" fill="#60a5fa" stroke="#0f172a" stroke-width="1" />
<text x="811.38" y="201.73" fill="#e2e8f0" font-size="9" text-anchor="middle">84</text>
<circle cx="841.03" cy="252.70" r="3" fill="#60a5fa" stroke="#0f172a" stroke-width="1" />
<text x="841.03" y="242.70" fill="#e2e8f0" font-size="9" text-anchor="middle">79</text>
<circle cx="870.69" cy="141.21" r="3" fill="#60a5fa" stroke="#0f172a" stroke-width="1" />
<text x="870.69" y="121.21" fill="#e2e8f0" font-size="9" text-anchor="middle">97</text>
<circle cx="900.34" cy="153.59" r="3" fill="#60a5fa" stroke="#0f172a" stroke-width="1" />
<text x="900.34" y="143.59" fill="#e2e8f0" font-size="9" text-anchor="middle">95</text>
<circle cx="930.00" cy="218.63" r="3" fill="#60a5fa" stroke="#0f172a" stroke-width="1" />
<text x="930.00" y="198.63" fill="#e2e8f0" font-size="9" text-anchor="middle">84.5</text>
<text x="70" y="403" fill="#e2e8f0" font-size="13" font-weight="600">本年核心指标趋势（滑动7日窗口平均）</text>
<line x1="70" y1="656.00" x2="930" y2="656.00" stroke="#94a3b8" stroke-opacity="0.18" stroke-width="1" />
<text x="62" y="660.00" fill="#cbd5f5" font-size="10" text-anchor="end">73.7</text>
<line x1="70" y1="593.75" x2="930" y2="593.75" stroke="#94a3b8" stroke-opacity="0.18" stroke-width="1" />
<text x="62" y="597.75" fill="#cbd5f5" font-size="10" text-anchor="end">80.9</text>
<line x1="70" y1="531.50" x2="930" y2="531.50" stroke="#94a3b8" stroke-opacity="0.18" stroke-width="1" />
<text x="62" y="535.50" fill="#cbd5f5" font-size="10" text-anchor="end">88.1</text>
<line x1="70" y1="469.25" x2="930" y2="469.25" stroke="#94a3b8" stroke-opacity="0.18" stroke-width="1" />
<text x="62" y="473.25" fill="#cbd5f5" font-size="10" text-anchor="end">95.3</text>
<line x1="70" y1="407.00" x2="930" y2="407.00" stroke="#94a3b8" stroke-opacity="0.18" stroke-width="1" />
<text x="62" y="411.00" fill="#cbd5f5" font-size="10" text-anchor="end">102.5</text>
<line x1="70.00" y1="656" x2="70.00" y2="660" stroke="#94a3b8" stroke-opacity="0.5" stroke-width="1" />
<text x="70.00" y="674" fill="#cbd5f5" font-size="10" text-anchor="middle">2025-01</text>
<line x1="242.00" y1="656" x2="242.00" y2="660" stroke="#94a3b8" stroke-opacity="0.5" stroke-width="1" />
<text x="242.00" y="674" fill="#cbd5f5" font-size="10" text-anchor="middle">2025-03</text>
<line x1="414.00" y1="656" x2="414.00" y2="660" stroke="#94a3b8" stroke-opacity="0.5" stroke-width="1" />
<text x="414.00" y="674" fill="#cbd5f5" font-size="10" text-anchor="middle">2025-06</text>
<line x1="586.00" y1="656" x2="586.00" y2="660" stroke="#94a3b8" stroke-opacity="0.5" stroke-width="1" />
<text x="586.00" y="674" fill="#cbd5f5" font-size="10" text-anchor="middle">2025-08</text>
<line x1="758.00" y1="656" x2="758.00" y2="660" stroke="#94a3b8" stroke-opacity="0.5" stroke-width="1" />
<text x="758.00" y="674" fill="#cbd5f5" font-size="10" text-anchor="middle">2025-10</text>
<line x1="930.00" y1="656" x2="930.00" y2="660" stroke="#94a3b8" stroke-opacity="0.5" stroke-width="1" />
<text x="930.00" y="674" fill="#cbd5f5" font-size="10" text-anchor="middle">2025-12</text>
<line x1="70" y1="407" x2="70" y2="656" stroke="#94a3b8" stroke-width="1" />
<line x1="70" y1="656" x2="930" y2="656" stroke="#94a3b8" stroke-width="1" />
<path d="M70.00,656.00 L70.00,515.18 L72.62,519.49 L75.24,519.49 L77.87,537.81 L80.49,541.91 L83.11,533.14 L85.73,541.66 L88.35,541.66 L90.98,531.81 L96.22,517.65 L98.84,461.00 L101.46,448.07 L104.09,452.99 L106.71,435.75 L109.33,427.75 L111.95,436.37 L114.57,442.53 L117.20,491.79 L119.82,501.64 L122.44,506.56 L125.06,521.34 L127.68,542.89 L130.30,519.49 L132.93,539.20 L135.55,536.73 L138.17,517.65 L140.79,509.03 L143.41,504.10 L146.04,493.02 L148.66,518.88 L151.28,502.25 L153.90,485.01 L156.52,499.79 L159.15,507.18 L161.77,513.34 L164.39,510.87 L167.01,504.72 L169.63,497.94 L172.26,511.49 L174.88,518.88 L177.50,533.66 L180.12,527.50 L182.74,528.73 L185.37,545.35 L187.99,562.59 L190.61,578.60 L193.23,568.75 L195.85,562.59 L198.48,568.75 L201.10,587.22 L203.72,591.53 L206.34,595.23 L208.96,595.84 L211.59,588.45 L214.21,580.45 L216.83,576.14 L219.45,565.06 L222.07,542.89 L224.70,530.58 L227.32,526.27 L229.94,529.96 L232.56,523.19 L235.18,528.73 L237.80,538.58 L243.05,560.13 L245.67,567.52 L248.29,576.14 L250.91,590.92 L253.54,593.38 L256.16,595.84 L258.78,584.76 L261.40,561.98 L264.02,563.21 L266.65,550.28 L269.27,547.82 L271.89,550.90 L274.51,549.66 L277.13,541.04 L279.76,546.59 L282.38,549.05 L285.00,550.90 L287.62,547.82 L290.24,560.13 L292.87,553.97 L295.49,556.44 L298.11,570.60 L300.73,560.75 L303.35,549.66 L305.98,549.66 L308.60,533.04 L311.22,541.66 L313.84,540.43 L316.46,541.66 L319.09,544.12 L321.71,565.06 L324.33,580.45 L326.95,571.21 L329.57,558.90 L332.20,577.37 L334.82,555.21 L337.44,566.90 L340.06,557.67 L342.68,549.05 L345.30,564.44 L347.93,569.98 L350.55,539.20 L353.17,551.51 L355.79,545.35 L358.41,541.66 L361.04,529.96 L363.66,527.50 L366.28,526.27 L368.90,541.04 L371.52,552.13 L374.15,547.82 L376.77,542.89 L379.39,561.36 L382.01,567.52 L384.63,574.29 L389.88,579.22 L392.50,561.98 L395.12,561.36 L397.74,559.52 L400.37,550.90 L402.99,538.58 L405.61,523.80 L408.23,539.81 L410.85,546.59 L413.48,554.59 L416.10,570.60 L418.72,574.29 L421.34,597.69 L423.96,589.07 L426.59,568.14 L429.21,568.75 L431.83,561.36 L434.45,557.67 L437.07,549.66 L439.70,548.43 L442.32,564.44 L447.56,565.06 L450.18,564.44 L452.80,572.45 L455.43,565.06 L458.05,573.68 L460.67,556.44 L463.29,565.06 L465.91,570.60 L468.54,568.75 L471.16,568.14 L473.78,569.37 L476.40,565.67 L479.02,586.61 L481.65,586.61 L484.27,577.99 L486.89,579.22 L489.51,573.06 L492.13,563.21 L494.76,579.22 L497.38,564.44 L500.00,558.28 L502.62,560.75 L505.24,561.98 L507.87,565.67 L510.49,576.14 L513.11,555.21 L515.73,552.74 L518.35,525.65 L520.98,537.97 L523.60,535.50 L526.22,532.42 L528.84,537.97 L531.46,524.42 L534.09,499.17 L536.71,532.42 L539.33,517.03 L541.95,514.57 L544.57,505.33 L547.20,491.79 L549.82,495.48 L552.44,525.03 L555.06,507.79 L557.68,525.65 L560.30,527.50 L562.93,531.19 L565.55,529.96 L568.17,536.12 L570.79,512.10 L573.41,520.11 L576.04,511.49 L578.66,505.95 L581.28,520.72 L583.90,530.58 L586.52,546.59 L589.15,565.67 L591.77,576.14 L594.39,574.29 L597.01,579.22 L599.63,566.90 L602.26,569.98 L604.88,555.82 L607.50,550.28 L610.12,535.50 L615.37,518.88 L617.99,506.56 L620.61,502.87 L623.23,491.79 L646.83,505.95 L649.45,512.72 L652.07,515.18 L654.70,533.66 L657.32,540.43 L659.94,544.12 L662.56,560.75 L665.18,553.36 L667.80,549.66 L670.43,552.13 L673.05,549.66 L675.67,559.52 L678.29,564.44 L680.91,552.13 L683.54,539.81 L686.16,545.35 L688.78,545.97 L691.40,537.35 L694.02,533.04 L696.65,541.04 L699.27,550.90 L701.89,555.82 L704.51,540.43 L707.13,544.74 L709.76,555.82 L712.38,559.52 L715.00,543.51 L717.62,539.20 L720.24,540.43 L722.87,544.74 L725.49,532.42 L728.11,534.89 L730.73,536.73 L733.35,545.97 L735.98,543.51 L738.60,544.74 L741.22,557.05 L743.84,558.28 L746.46,563.21 L749.09,561.98 L751.71,553.36 L754.33,556.44 L756.95,566.90 L759.57,564.44 L762.20,562.59 L764.82,544.12 L767.44,547.20 L770.06,548.43 L772.68,550.28 L775.30,534.89 L777.93,534.89 L780.55,544.12 L783.17,539.20 L785.79,534.27 L788.41,521.34 L791.04,525.65 L793.66,535.50 L796.28,541.66 L798.90,549.05 L801.52,560.13 L804.15,566.29 L806.77,596.46 L809.39,545.35 L812.01,547.20 L814.63,537.35 L817.26,531.81 L819.88,543.51 L822.50,539.81 L825.12,505.95 L827.74,534.89 L830.37,528.73 L832.99,536.12 L835.61,531.81 L838.23,528.73 L840.85,536.12 L843.48,550.28 L846.10,573.68 L848.72,585.99 L851.34,587.22 L853.96,602.00 L856.59,604.46 L859.21,609.39 L861.83,635.25 L864.45,624.17 L867.07,594.61 L869.70,595.84 L872.32,585.38 L874.94,569.37 L877.56,531.81 L880.18,521.96 L882.80,533.04 L885.43,552.74 L888.05,547.82 L890.67,547.20 L893.29,557.05 L895.91,592.76 L898.54,596.46 L901.16,571.83 L903.78,571.83 L906.40,568.75 L909.02,569.37 L911.65,565.67 L914.27,567.52 L916.89,554.59 L919.51,571.83 L922.13,579.83 L924.76,565.67 L927.38,550.28 L930.00,552.13 L930.00,656.00 Z" fill="#60a5fa" fill-opacity="0.16" stroke="none" />
<path d="M70.00,515.18 L72.62,519.49 L75.24,519.49 L77.87,537.81 L80.49,541.91 L83.11,533.14 L85.73,541.66 L88.35,541.66 L90.98,531.81 L96.22,517.65 L98.84,461.00 L101.46,448.07 L104.09,452.99 L106.71,435.75 L109.33,427.75 L111.95,436.37 L114.57,442.53 L117.20,491.79 L119.82,501.64 L122.44,506.56 L125.06,521.34 L127.68,542.89 L130.30,519.49 L132.93,539.20 L135.55,536.73 L138.17,517.65 L140.79,509.03 L143.41,504.10 L146.04,493.02 L148.66,518.88 L151.28,502.25 L153.90,485.01 L156.52,499.79 L159.15,507.18 L161.77,513.34 L164.39,510.87 L167.01,504.72 L169.63,497.94 L172.26,511.49 L174.88,518.88 L177.50,533.66 L180.12,527.50 L182.74,528.73 L185.37,545.35 L187.99,562.59 L190.61,578.60 L193.23,568.75 L195.85,562.59 L198.48,568.75 L201.10,587.22 L203.72,591.53 L206.34,595.23 L208.96,595.84 L211.59,588.45 L214.21,580.45 L216.83,576.14 L219.45,565.06 L222.07,542.89 L224.70,530.58 L227.32,526.27 L229.94,529.96 L232.56,523.19 L235.18,528.73 L237.80,538.58 L243.05,560.13 L245.67,567.52 L248.29,576.14 L250.91,590.92 L253.54,593.38 L256.16,595.84 L258.78,584.76 L261.40,561.98 L264.02,563.21 L266.65,550.28 L269.27,547.82 L271.89,550.90 L274.51,549.66 L277.13,541.04 L279.76,546.59 L282.38,549.05 L285.00,550.90 L287.62,547.82 L290.24,560.13 L292.87,553.97 L295.49,556.44 L298.11,570.60 L300.73,560.75 L303.35,549.66 L305.98,549.66 L308.60,533.04 L311.22,541.66 L313.84,540.43 L316.46,541.66 L319.09,544.12 L321.71,565.06 L324.33,580.45 L326.95,571.21 L329.57,558.90 L332.20,577.37 L334.82,555.21 L337.44,566.90 L340.06,557.67 L342.68,549.05 L345.30,564.44 L347.93,569.98 L350.55,539.20 L353.17,551.51 L355.79,545.35 L358.41,541.66 L361.04,529.96 L363.66,527.50 L366.28,526.27 L368.90,541.04 L371.52,552.13 L374.15,547.82 L376.77,542.89 L379.39,561.36 L382.01,567.52 L384.63,574.29 L389.88,579.22 L392.50,561.98 L395.12,561.36 L397.74,559.52 L400.37,550.90 L402.99,538.58 L405.61,523.80 L408.23,539.81 L410.85,546.59 L413.48,554.59 L416.10,570.60 L418.72,574.29 L421.34,597.69 L423.96,589.07 L426.59,568.14 L429.21,568.75 L431.83,561.36 L434.45,557.67 L437.07,549.66 L439.70,548.43 L442.32,564.44 L447.56,565.06 L450.18,564.44 L452.80,572.45 L455.43,565.06 L458.05,573.68 L460.67,556.44 L463.29,565.06 L465.91,570.60 L468.54,568.75 L471.16,568.14 L473.78,569.37 L476.40,565.67 L479.02,586.61 L481.65,586.61 L484.27,577.99 L486.89,579.22 L489.51,573.06 L492.13,563.21 L494.76,579.22 L497.38,564.44 L500.00,558.28 L502.62,560.75 L505.24,561.98 L507.87,565.67 L510.49,576.14 L513.11,555.21 L515.73,552.74 L518.35,525.65 L520.98,537.97 L523.60,535.50 L526.22,532.42 L528.84,537.97 L531.46,524.42 L534.09,499.17 L536.71,532.42 L539.33,517.03 L541.95,514.57 L544.57,505.33 L547.20,491.79 L549.82,495.48 L552.44,525.03 L555.06,507.79 L557.68,525.65 L560.30,527.50 L562.93,531.19 L565.55,529.96 L568.17,536.12 L570.79,512.10 L573.41,520.11 L576.04,511.49 L578.66,505.95 L581.28,520.72 L583.90,530.58 L586.52,546.59 L589.15,565.67 L591.77,576.14 L594.39,574.29 L597.01,579.22 L599.63,566.90 L602.26,569.98 L604.88,555.82 L607.50,550.28 L610.12,535.50 L615.37,518.88 L617.99,506.56 L620.61,502.87 L623.23,491.79 L646.83,505.95 L649.45,512.72 L652.07,515.18 L654.70,533.66 L657.32,540.43 L659.94,544.12 L662.56,560.75 L665.18,553.36 L667.80,549.66 L670.43,552.13 L673.05,549.66 L675.67,559.52 L678.29,564.44 L680.91,552.13 L683.54,539.81 L686.16,545.35 L688.78,545.97 L691.40,537.35 L694.02,533.04 L696.65,541.04 L699.27,550.90 L701.89,555.82 L704.51,540.43 L707.13,544.74 L709.76,555.82 L712.38,559.52 L715.00,543.51 L717.62,539.20 L720.24,540.43 L722.87,544.74 L725.49,532.42 L728.11,534.89 L730.73,536.73 L733.35,545.97 L735.98,543.51 L738.60,544.74 L741.22,557.05 L743.84,558.28 L746.46,563.21 L749.09,561.98 L751.71,553.36 L754.33,556.44 L756.95,566.90 L759.57,564.44 L762.20,562.59 L764.82,544.12 L767.44,547.20 L770.06,548.43 L772.68,550.28 L775.30,534.89 L777.93,534.89 L780.55,544.12 L783.17,539.20 L785.79,534.27 L788.41,521.34 L791.04,525.65 L793.66,535.50 L796.28,541.66 L798.90,549.05 L801.52,560.13 L804.15,566.29 L806.77,596.46 L809.39,545.35 L812.01,547.20 L814.63,537.35 L817.26,531.81 L819.88,543.51 L822.50,539.81 L825.12,505.95 L827.74,534.89 L830.37,528.73 L832.99,536.12 L835.61,531.81 L838.23,528.73 L840.85,536.12 L843.48,550.28 L846.10,573.68 L848.72,585.99 L851.34,587.22 L853.96,602.00 L856.59,604.46 L859.21,609.39 L861.83,635.25 L864.45,624.17 L867.07,594.61 L869.70,595.84 L872.32,585.38 L874.94,569.37 L877.56,531.81 L880.18,521.96 L882.80,533.04 L885.43,552.74 L888.05,547.82 L890.67,547.20 L893.29,557.05 L895.91,592.76 L898.54,596.46 L901.16,571.83 L903.78,571.83 L906.40,568.75 L909.02,569.37 L911.65,565.67 L914.27,567.52 L916.89,554.59 L919.51,571.83 L922.13,579.83 L924.76,565.67 L927.38,550.28 L930.00,552.13" fill="none" stroke="#60a5fa" stroke-width="2.2" stroke-linecap="round" />
</svg>
