<svg xmlns="http://www.w3.org/2000/svg" viewBox="0 0 960 720" width="960" height="720">
<rect width="960" height="720" fill="#0f172a" />
<text x="480" y="28" fill="#e2e8f0" font-size="16" font-weight="700" text-anchor="middle">双支撑占比均值趋势图</text>
<text x="70" y="70" fill="#e2e8f0" font-size="13" font-weight="600">本月分天指标明细</text>
<line x1="70" y1="323.00" x2="930" y2="323.00" stroke="#94a3b8" stroke-opacity="0.18" stroke-width="1" />
<text x="62" y="327.00" fill="#cbd5f5" font-size="10" text-anchor="end">0.08</text>
<line x1="70" y1="260.75" x2="930" y2="260.75" stroke="#94a3b8" stroke-opacity="0.18" stroke-width="1" />
<text x="62" y="264.75" fill="#cbd5f5" font-size="10" text-anchor="end">0.19</text>
<line x1="70" y1="198.50" x2="930" y2="198.50" stroke="#94a3b8" stroke-opacity="0.18" stroke-width="1" />
<text x="62" y="202.50" fill="#cbd5f5" font-size="10" text-anchor="end">0.29</text>
<line x1="70" y1="136.25" x2="930" y2="136.25" stroke="#94a3b8" stroke-opacity="0.18" stroke-width="1" />
<text x="62" y="140.25" fill="#cbd5f5" font-size="10" text-anchor="end">0.4</text>
<line x1="70" y1="74.00" x2="930" y2="74.00" stroke="#94a3b8" stroke-opacity="0.18" stroke-width="1" />
<text x="62" y="78.00" fill="#cbd5f5" font-size="10" text-anchor="end">0.51</text>
<line x1="70.00" y1="323" x2="70.00" y2="327" stroke="#94a3b8" stroke-opacity="0.5" stroke-width="1" />
<text x="70.00" y="341" fill="#cbd5f5" font-size="10" text-anchor="middle">11-19</text>
<line x1="242.00" y1="323" x2="242.00" y2="327" stroke="#94a3b8" stroke-opacity="0.5" stroke-width="1" />
<text x="242.00" y="341" fill="#cbd5f5" font-size="10" text-anchor="middle">11-24</text>
<line x1="414.00" y1="323" x2="414.00" y2="327" stroke="#94a3b8" stroke-opacity="0.5" stroke-width="1" />
<text x="414.00" y="341" fill="#cbd5f5" font-size="10" text-anchor="middle">11-30</text>
<line x1="586.00" y1="323" x2="586.00" y2="327" stroke="#94a3b8" stroke-opacity="0.5" stroke-width="1" />
<text x="586.00" y="341" fill="#cbd5f5" font-size="10" text-anchor="middle">12-06</text>
<line x1="758.00" y1="323" x2="758.00" y2="327" stroke="#94a3b8" stroke-opacity="0.5" stroke-width="1" />
<text x="758.00" y="341" fill="#cbd5f5" font-size="10" text-anchor="middle">12-12</text>
<line x1="930.00" y1="323" x2="930.00" y2="327" stroke="#94a3b8" stroke-opacity="0.5" stroke-width="1" />
<text x="930.00" y="341" fill="#cbd5f5" font-size="10" text-anchor="middle">12-18</text>
<line x1="70" y1="74" x2="70" y2="323" stroke="#94a3b8" stroke-width="1" />
<line x1="70" y1="323" x2="930" y2="323" stroke="#94a3b8" stroke-width="1" />
<path d="M70.00,197.27 L99.66,198.44 L129.31,199.97 L158.97,196.69 L188.62,201.07 L218.28,204.95 L247.93,200.81 L277.59,198.35 L307.24,202.90 L336.90,206.18 L366.55,192.41 L396.21,191.00 L425.86,198.39 L455.52,200.93 L485.17,196.92 L514.83,198.57 L544.48,197.18 L574.14,203.53 L603.79,197.29 L633.45,202.03 L663.10,197.53 L692.76,194.82 L722.41,200.68 L752.07,201.37 L781.72,201.51 L811.38,190.82 L841.03,204.73 L870.69,199.61 L900.34,200.60 L930.00,202.50" fill="none" stroke="#fb7185" stroke-width="2.2" stroke-linecap="round" />
<circle cx="70.00" cy="197.27" r="3" fill="#fb7185" stroke="#0f172a" stroke-width="1" />
<text x="70.00" y="187.27" fill="#e2e8f0" font-size="9" text-anchor="middle">0.3</text>
<circle cx="99.66" cy="198.44" r="3" fill="#fb7185" stroke="#0f172a" stroke-width="1" />
<text x="99.66" y="178.44" fill="#e2e8f0" font-size="9" text-anchor="middle">0.29</text>
<circle cx="129.31" cy="199.97" r="3" fill="#fb7185" stroke="#0f172a" stroke-width="1" />
<text x="129.31" y="189.97" fill="#e2e8f0" font-size="9" text-anchor="middle">0.29</text>
<circle cx="158.97" cy="196.69" r="3" fill="#fb7185" stroke="#0f172a" stroke-width="1" />
<text x="158.97" y="176.69" fill="#e2e8f0" font-size="9" text-anchor="middle">0.3</text>
<circle cx="188.62" cy="201.07" r="3" fill="#fb7185" stroke="#0f172a" stroke-width="1" />
<text x="188.62" y="191.07" fill="#e2e8f0" font-size="9" text-anchor="middle">0.29</text>
<circle cx="218.28" cy="204.95" r="3" fill="#fb7185" stroke="#0f172a" stroke-width="1" />
<text x="218.28" y="184.95" fill="#e2e8f0" font-size="9" text-anchor="middle">0.28</text>
<circle cx="247.93" cy="200.81" r="3" fill="#fb7185" stroke="#0f172a" stroke-width="1" />
<text x="247.93" y="190.81" fill="#e2e8f0" font-size="9" text-anchor="middle">0.29</text>
<circle cx="277.59" cy="198.35" r="3" fill="#fb7185" stroke="#0f172a" stroke-width="1" />
<text x="277.59" y="178.35" fill="#e2e8f0" font-size="9" text-anchor="middle">0.29</text>
<circle cx="307.24" cy="202.90" r="3" fill="#fb7185" stroke="#0f172a" stroke-width="1" />
<text x="307.24" y="192.90" fill="#e2e8f0" font-size="9" text-anchor="middle">0.29</text>
<circle cx="336.90" cy="206.18" r="3" fill="#fb7185" stroke="#0f172a" stroke-width="1" />
<text x="336.90" y="186.18" fill="#e2e8f0" font-size="9" text-anchor="middle">0.28</text>
<circle cx="366.55" cy="192.41" r="3" fill="#fb7185" stroke="#0f172a" stroke-width="1" />
<text x="366.55" y="182.41" fill="#e2e8f0" font-size="9" text-anchor="middle">0.3</text>
<circle cx="396.21" cy="191.00" r="3" fill="#fb7185" stroke="#0f172a" stroke-width="1" />
<text x="396.21" y="171.00" fill="#e2e8f0" font-size="9" text-anchor="middle">0.31</text>
<circle cx="425.86" cy="198.39" r="3" fill="#fb7185" stroke="#0f172a" stroke-width="1" />
<text x="425.86" y="188.39" fill="#e2e8f0" font-size="9" text-anchor="middle">0.29</text>
<circle cx="455.52" cy="200.93" r="3" fill="#fb7185" stroke="#0f172a" stroke-width="1" />
<text x="455.52" y="180.93" fill="#e2e8f0" font-size="9" text-anchor="middle">0.29</text>
<circle cx="485.17" cy="196.92" r="3" fill="#fb7185" stroke="#0f172a" stroke-width="1" />
<text x="485.17" y="186.92" fill="#e2e8f0" font-size="9" text-anchor="middle">0.3</text>
<circle cx="514.83" cy="198.57" r="3" fill="#fb7185" stroke="#0f172a" stroke-width="1" />
<text x="514.83" y="178.57" fill="#e2e8f0" font-size="9" text-anchor="middle">0.29</text>
<circle cx="544.48" cy="197.18" r="3" fill="#fb7185" stroke="#0f172a" stroke-width="1" />
<text x="544.48" y="187.18" fill="#e2e8f0" font-size="9" text-anchor="middle">0.3</text>
<circle cx="574.14" cy="203.53" r="3" fill="#fb7185" stroke="#0f172a" stroke-width="1" />
<text x="574.14" y="183.53" fill="#e2e8f0" font-size="9" text-anchor="middle">0.29</text>
<circle cx="603.79" cy="197.29" r="3" fill="#fb7185" stroke="#0f172a" stroke-width="1" />
<text x="603.79" y="187.29" fill="#e2e8f0" font-size="9" text-anchor="middle">0.3</text>
<circle cx="633.45" cy="202.03" r="3" fill="#fb7185" stroke="#0f172a" stroke-width="1" />
<text x="633.45" y="182.03" fill="#e2e8f0" font-size="9" text-anchor="middle">0.29</text>
<circle cx="663.10" cy="197.53" r="3" fill="#fb7185" stroke="#0f172a" stroke-width="1" />
<text x="663.10" y="187.53" fill="#e2e8f0" font-size="9" text-anchor="middle">0.3</text>
<circle cx="692.76" cy="194.82" r="3" fill="#fb7185" stroke="#0f172a" stroke-width="1" />
<text x="692.76" y="174.82" fill="#e2e8f0" font-size="9" text-anchor="middle">0.3</text>
<circle cx="722.41" cy="200.68" r="3" fill="#fb7185" stroke="#0f172a" stroke-width="1" />
<text x="722.41" y="190.68" fill="#e2e8f0" font-size="9" text-anchor="middle">0.29</text>
<circle cx="752.07" cy="201.37" r="3" fill="#fb7185" stroke="#0f172a" stroke-width="1" />
<text x="752.07" y="181.37" fill="#e2e8f0" font-size="9" text-anchor="middle">0.29</text>
<circle cx="781.72" cy="201.51" r="3" fill="#fb7185" stroke="#0f172a" stroke-width="1" />
<text x="781.72" y="191.51" fill="#e2e8f0" font-size="9" text-anchor="middle">0.29</text>
<circle cx="811.38" cy="190.82" r="3" fill="#fb7185" stroke="#0f172a" stroke-width="1" />
<text x="811.38" y="170.82" fill="#e2e8f0" font-size="9" text-anchor="middle">0.31</text>
<circle cx="841.03" cy="204.73" r="3" fill="#fb7185" stroke="#0f172a" stroke-width="1" />
<text x="841.03" y="194.73" fill="#e2e8f0" font-size="9" text-anchor="middle">0.28</text>
<circle cx="870.69" cy="199.61" r="3" fill="#fb7185" stroke="#0f172a" stroke-width="1" />
<text x="870.69" y="179.61" fill="#e2e8f0" font-size="9" text-anchor="middle">0.29</text>
<circle cx="900.34" cy="200.60" r="3" fill="#fb7185" stroke="#0f172a" stroke-width="1" />
<text x="900.34" y="190.60" fill="#e2e8f0" font-size="9" text-anchor="middle">0.29</text>
<circle cx="930.00" cy="202.50" r="3" fill="#fb7185" stroke="#0f172a" stroke-width="1" />
<text x="930.00" y="182.50" fill="#e2e8f0" font-size="9" text-anchor="middle">0.29</text>
<text x="70" y="403" fill="#e2e8f0" font-size="13" font-weight="600">本年核心指标趋势（滑动7日窗口平均）</text>
<line x1="70" y1="656.00" x2="930" y2="656.00" stroke="#94a3b8" stroke-opacity="0.18" stroke-width="1" />
<text x="62" y="660.00" fill="#cbd5f5" font-size="10" text-anchor="end">0.08</text>
<line x1="70" y1="593.75" x2="930" y2="593.75" stroke="#94a3b8" stroke-opacity="0.18" stroke-width="1" />
<text x="62" y="597.75" fill="#cbd5f5" font-size="10" text-anchor="end">0.19</text>
<line x1="70" y1="531.50" x2="930" y2="531.50" stroke="#94a3b8" stroke-opacity="0.18" stroke-width="1" />
<text x="62" y="535.50" fill="#cbd5f5" font-size="10" text-anchor="end">0.29</text>
<line x1="70" y1="469.25" x2="930" y2="469.25" stroke="#94a3b8" stroke-opacity="0.18" stroke-width="1" />
<text x="62" y="473.25" fill="#cbd5f5" font-size="10" text-anchor="end">0.4</text>
<line x1="70" y1="407.00" x2="930" y2="407.00" stroke="#94a3b8" stroke-opacity="0.18" stroke-width="1" />
<text x="62" y="411.00" fill="#cbd5f5" font-size="10" text-anchor="end">0.5</text>
<line x1="70.00" y1="656" x2="70.00" y2="660" stroke="#94a3b8" stroke-opacity="0.5" stroke-width="1" />
<text x="70.00" y="674" fill="#cbd5f5" font-size="10" text-anchor="middle">2024-12</text>
<line x1="242.00" y1="656" x2="242.00" y2="660" stroke="#94a3b8" stroke-opacity="0.5" stroke-width="1" />
<text x="242.00" y="674" fill="#cbd5f5" font-size="10" text-anchor="middle">2025-03</text>
<line x1="414.00" y1="656" x2="414.00" y2="660" stroke="#94a3b8" stroke-opacity="0.5" stroke-width="1" />
<text x="414.00" y="674" fill="#cbd5f5" font-size="10" text-anchor="middle">2025-05</text>
<line x1="586.00" y1="656" x2="586.00" y2="660" stroke="#94a3b8" stroke-opacity="0.5" stroke-width="1" />
<text x="586.00" y="674" fill="#cbd5f5" font-size="10" text-anchor="middle">2025-07</text>
<line x1="758.00" y1="656" x2="758.00" y2="660" stroke="#94a3b8" stroke-opacity="0.5" stroke-width="1" />
<text x="758.00" y="674" fill="#cbd5f5" font-size="10" text-anchor="middle">2025-10</text>
<line x1="930.00" y1="656" x2="930.00" y2="660" stroke="#94a3b8" stroke-opacity="0.5" stroke-width="1" />
<text x="930.00" y="674" fill="#cbd5f5" font-size="10" text-anchor="middle">2025-12</text>
<line x1="70" y1="407" x2="70" y2="656" stroke="#94a3b8" stroke-width="1" />
<line x1="70" y1="656" x2="930" y2="656" stroke="#94a3b8" stroke-width="1" />
<path d="M70.00,656.00 L70.00,537.40 L72.36,536.67 L74.73,534.74 L77.09,536.19 L79.45,537.08 L81.81,536.65 L84.18,536.44 L86.54,537.23 L88.90,537.19 L91.26,537.29 L93.63,535.48 L95.99,534.75 L98.35,535.72 L100.71,535.46 L103.08,534.65 L105.44,534.93 L107.80,535.40 L110.16,536.48 L112.53,536.63 L114.89,536.23 L117.25,536.62 L119.62,536.44 L121.98,536.21 L124.34,535.61 L126.70,535.41 L129.07,535.75 L131.43,535.36 L133.79,535.39 L136.15,535.35 L138.52,535.61 L140.88,535.53 L143.24,535.70 L145.60,535.24 L147.97,535.13 L150.33,534.81 L152.69,534.92 L155.05,534.44 L157.42,535.03 L159.78,534.15 L164.51,532.89 L166.87,530.33 L169.23,528.18 L171.59,525.90 L173.96,525.89 L178.68,525.60 L181.04,526.35 L183.41,526.66 L185.77,527.07 L188.13,528.55 L190.49,529.76 L192.86,529.77 L195.22,529.60 L197.58,529.24 L199.95,530.41 L202.31,532.34 L204.67,533.04 L207.03,533.31 L209.40,533.09 L211.76,533.04 L214.12,533.56 L216.48,533.26 L218.85,534.14 L221.21,534.14 L223.57,533.84 L225.93,533.76 L228.30,533.66 L230.66,533.71 L233.02,533.34 L235.38,532.65 L237.75,532.33 L240.11,532.56 L242.47,531.79 L244.84,532.29 L247.20,532.38 L249.56,532.60 L251.92,532.84 L254.29,533.18 L256.65,532.41 L259.01,532.17 L261.37,532.40 L263.74,532.12 L266.10,530.96 L268.46,529.76 L270.82,529.62 L273.19,531.03 L275.55,531.95 L277.91,531.73 L280.27,531.43 L282.64,533.00 L285.00,533.60 L287.36,534.09 L289.73,533.09 L292.09,533.48 L294.45,533.51 L296.81,534.21 L299.18,534.96 L301.54,535.17 L303.90,535.13 L306.26,536.24 L308.63,536.14 L310.99,536.37 L313.35,535.82 L315.71,534.53 L318.08,534.30 L320.44,533.47 L322.80,532.88 L325.16,533.33 L327.53,533.10 L329.89,533.30 L332.25,532.89 L334.62,533.14 L336.98,533.37 L339.34,534.47 L341.70,533.67 L344.07,533.64 L346.43,533.71 L348.79,534.10 L351.15,534.54 L353.52,534.86 L355.88,533.77 L358.24,534.12 L360.60,534.63 L362.97,534.65 L365.33,534.55 L367.69,534.26 L370.05,534.78 L372.42,534.40 L374.78,535.12 L377.14,534.70 L379.51,534.82 L381.87,534.93 L384.23,533.76 L386.59,532.61 L388.96,532.10 L391.32,530.31 L393.68,529.90 L396.04,529.69 L398.41,529.81 L400.77,531.44 L403.13,532.29 L405.49,533.05 L407.86,533.97 L410.22,534.54 L412.58,534.60 L414.95,534.86 L417.31,534.44 L419.67,534.07 L422.03,534.60 L424.40,534.23 L426.76,533.56 L429.12,533.21 L431.48,533.06 L433.85,532.79 L436.21,532.41 L438.57,532.02 L440.93,531.92 L443.30,532.71 L445.66,533.54 L448.02,533.84 L450.38,533.85 L452.75,534.67 L455.11,535.34 L457.47,535.75 L459.84,533.72 L462.20,533.47 L464.56,532.78 L466.92,532.91 L469.29,532.55 L471.65,532.03 L474.01,531.76 L476.37,533.19 L478.74,533.76 L481.10,534.20 L483.46,534.43 L485.82,534.54 L488.19,534.15 L490.55,534.01 L492.91,533.93 L495.27,532.69 L497.64,532.38 L500.00,531.76 L502.36,531.60 L504.73,530.93 L507.09,530.80 L509.45,531.01 L511.81,531.36 L514.18,531.45 L516.54,531.40 L518.90,531.11 L521.26,532.41 L523.63,532.37 L525.99,532.27 L528.35,532.33 L530.71,532.65 L533.08,533.25 L535.44,533.12 L537.80,532.16 L540.16,532.04 L542.53,532.04 L544.89,531.79 L547.25,531.29 L549.62,530.79 L551.98,531.43 L554.34,532.56 L556.70,534.45 L559.07,534.71 L561.43,534.53 L563.79,534.81 L566.15,535.42 L568.52,535.48 L570.88,535.07 L573.24,533.59 L575.60,532.90 L577.97,532.79 L580.33,533.57 L582.69,533.22 L585.05,532.95 L587.42,533.69 L589.78,533.30 L592.14,534.38 L594.51,535.18 L596.87,534.47 L599.23,534.13 L601.59,534.81 L603.96,534.46 L606.32,535.45 L608.68,535.37 L611.04,535.12 L613.41,534.95 L615.77,535.64 L618.13,534.94 L620.49,533.99 L622.86,533.74 L625.22,533.34 L627.58,533.37 L629.95,533.52 L632.31,533.14 L634.67,532.42 L637.03,532.35 L639.40,532.30 L641.76,532.93 L644.12,533.25 L646.48,534.00 L648.85,533.73 L651.21,535.11 L653.57,534.85 L655.93,535.08 L658.30,534.70 L660.66,533.78 L663.02,533.21 L665.38,532.82 L667.75,532.38 L670.11,533.08 L672.47,532.51 L674.84,532.63 L677.20,532.94 L679.56,532.88 L681.92,533.82 L684.29,533.84 L686.65,533.79 L689.01,534.01 L691.37,533.59 L693.74,534.19 L696.10,534.20 L698.46,534.23 L700.82,534.27 L703.19,534.59 L705.55,534.46 L707.91,534.37 L710.27,534.08 L712.64,533.53 L715.00,533.69 L717.36,533.01 L719.73,532.59 L722.09,532.54 L724.45,532.61 L726.81,532.97 L729.18,533.71 L731.54,533.33 L733.90,532.89 L736.26,532.73 L738.63,532.34 L740.99,531.95 L743.35,531.54 L745.71,531.01 L748.08,530.11 L750.44,529.92 L752.80,529.29 L755.16,530.58 L757.53,529.61 L759.89,528.78 L762.25,527.88 L764.62,528.42 L766.98,529.09 L769.34,529.29 L771.70,528.84 L774.07,529.48 L776.43,529.54 L778.79,529.85 L781.15,530.58 L783.52,530.13 L785.88,530.65 L788.24,530.26 L790.60,531.23 L792.97,531.39 L795.33,531.87 L797.69,531.57 L800.05,532.14 L802.42,532.36 L804.78,531.84 L807.14,531.41 L809.51,531.46 L811.87,531.43 L814.23,531.36 L816.59,530.91 L818.96,530.83 L821.32,531.39 L823.68,530.44 L826.04,530.99 L828.41,530.60 L830.77,529.80 L833.13,529.67 L835.49,531.25 L837.86,530.67 L840.22,531.45 L842.58,530.55 L844.95,530.21 L847.31,530.83 L849.67,531.13 L852.03,529.54 L854.40,529.37 L856.76,528.74 L859.12,528.33 L861.48,528.47 L863.85,527.97 L866.21,528.14 L868.57,527.67 L870.93,528.60 L873.30,529.99 L875.66,530.89 L878.02,531.05 L880.38,531.70 L882.75,532.60 L885.11,531.98 L887.47,530.52 L889.84,529.56 L892.20,529.58 L894.56,529.37 L896.92,528.75 L899.29,527.44 L901.65,529.05 L904.01,529.96 L906.37,530.49 L908.74,530.00 L911.10,529.69 L913.46,530.00 L915.82,530.61 L918.19,530.31 L920.55,529.38 L922.91,529.77 L925.27,530.07 L927.64,530.91 L930.00,531.17 L930.00,656.00 Z" fill="#fb7185" fill-opacity="0.16" stroke="none" />
<path d="M70.00,537.40 L72.36,536.67 L74.73,534.74 L77.09,536.19 L79.45,537.08 L81.81,536.65 L84.18,536.44 L86.54,537.23 L88.90,537.19 L91.26,537.29 L93.63,535.48 L95.99,534.75 L98.35,535.72 L100.71,535.46 L103.08,534.65 L105.44,534.93 L107.80,535.40 L110.16,536.48 L112.53,536.63 L114.89,536.23 L117.25,536.62 L119.62,536.44 L121.98,536.21 L124.34,535.61 L126.70,535.41 L129.07,535.75 L131.43,535.36 L133.79,535.39 L136.15,535.35 L138.52,535.61 L140.88,535.53 L143.24,535.70 L145.60,535.24 L147.97,535.13 L150.33,534.81 L152.69,534.92 L155.05,534.44 L157.42,535.03 L159.78,534.15 L164.51,532.89 L166.87,530.33 L169.23,528.18 L171.59,525.90 L173.96,525.89 L178.68,525.60 L181.04,526.35 L183.41,526.66 L185.77,527.07 L188.13,528.55 L190.49,529.76 L192.86,529.77 L195.22,529.60 L197.58,529.24 L199.95,530.41 L202.31,532.34 L204.67,533.04 L207.03,533.31 L209.40,533.09 L211.76,533.04 L214.12,533.56 L216.48,533.26 L218.85,534.14 L221.21,534.14 L223.57,533.84 L225.93,533.76 L228.30,533.66 L230.66,533.71 L233.02,533.34 L235.38,532.65 L237.75,532.33 L240.11,532.56 L242.47,531.79 L244.84,532.29 L247.20,532.38 L249.56,532.60 L251.92,532.84 L254.29,533.18 L256.65,532.41 L259.01,532.17 L261.37,532.40 L263.74,532.12 L266.10,530.96 L268.46,529.76 L270.82,529.62 L273.19,531.03 L275.55,531.95 L277.91,531.73 L280.27,531.43 L282.64,533.00 L285.00,533.60 L287.36,534.09 L289.73,533.09 L292.09,533.48 L294.45,533.51 L296.81,534.21 L299.18,534.96 L301.54,535.17 L303.90,535.13 L306.26,536.24 L308.63,536.14 L310.99,536.37 L313.35,535.82 L315.71,534.53 L318.08,534.30 L320.44,533.47 L322.80,532.88 L325.16,533.33 L327.53,533.10 L329.89,533.30 L332.25,532.89 L334.62,533.14 L336.98,533.37 L339.34,534.47 L341.70,533.67 L344.07,533.64 L346.43,533.71 L348.79,534.10 L351.15,534.54 L353.52,534.86 L355.88,533.77 L358.24,534.12 L360.60,534.63 L362.97,534.65 L365.33,534.55 L367.69,534.26 L370.05,534.78 L372.42,534.40 L374.78,535.12 L377.14,534.70 L379.51,534.82 L381.87,534.93 L384.23,533.76 L386.59,532.61 L388.96,532.10 L391.32,530.31 L393.68,529.90 L396.04,529.69 L398.41,529.81 L400.77,531.44 L403.13,532.29 L405.49,533.05 L407.86,533.97 L410.22,534.54 L412.58,534.60 L414.95,534.86 L417.31,534.44 L419.67,534.07 L422.03,534.60 L424.40,534.23 L426.76,533.56 L429.12,533.21 L431.48,533.06 L433.85,532.79 L436.21,532.41 L438.57,532.02 L440.93,531.92 L443.30,532.71 L445.66,533.54 L448.02,533.84 L450.38,533.85 L452.75,534.67 L455.11,535.34 L457.47,535.75 L459.84,533.72 L462.20,533.47 L464.56,532.78 L466.92,532.91 L469.29,532.55 L471.65,532.03 L474.01,531.76 L476.37,533.19 L478.74,533.76 L481.10,534.20 L483.46,534.43 L485.82,534.54 L488.19,534.15 L490.55,534.01 L492.91,533.93 L495.27,532.69 L497.64,532.38 L500.00,531.76 L502.36,531.60 L504.73,530.93 L507.09,530.80 L509.45,531.01 L511.81,531.36 L514.18,531.45 L516.54,531.40 L518.90,531.11 L521.26,532.41 L523.63,532.37 L525.99,532.27 L528.35,532.33 L530.71,532.65 L533.08,533.25 L535.44,533.12 L537.80,532.16 L540.16,532.04 L542.53,532.04 L544.89,531.79 L547.25,531.29 L549.62,530.79 L551.98,531.43 L554.34,532.56 L556.70,534.45 L559.07,534.71 L561.43,534.53 L563.79,534.81 L566.15,535.42 L568.52,535.48 L570.88,535.07 L573.24,533.59 L575.60,532.90 L577.97,532.79 L580.33,533.57 L582.69,533.22 L585.05,532.95 L587.42,533.69 L589.78,533.30 L592.14,534.38 L594.51,535.18 L596.87,534.47 L599.23,534.13 L601.59,534.81 L603.96,534.46 L606.32,535.45 L608.68,535.37 L611.04,535.12 L613.41,534.95 L615.77,535.64 L618.13,534.94 L620.49,533.99 L622.86,533.74 L625.22,533.34 L627.58,533.37 L629.95,533.52 L632.31,533.14 L634.67,532.42 L637.03,532.35 L639.40,532.30 L641.76,532.93 L644.12,533.25 L646.48,534.00 L648.85,533.73 L651.21,535.11 L653.57,534.85 L655.93,535.08 L658.30,534.70 L660.66,533.78 L663.02,533.21 L665.38,532.82 L667.75,532.38 L670.11,533.08 L672.47,532.51 L674.84,532.63 L677.20,532.94 L679.56,532.88 L681.92,533.82 L684.29,533.84 L686.65,533.79 L689.01,534.01 L691.37,533.59 L693.74,534.19 L696.10,534.20 L698.46,534.23 L700.82,534.27 L703.19,534.59 L705.55,534.46 L707.91,534.37 L710.27,534.08 L712.64,533.53 L715.00,533.69 L717.36,533.01 L719.73,532.59 L722.09,532.54 L724.45,532.61 L726.81,532.97 L729.18,533.71 L731.54,533.33 L733.90,532.89 L736.26,532.73 L738.63,532.34 L740.99,531.95 L743.35,531.54 L745.71,531.01 L748.08,530.11 L750.44,529.92 L752.80,529.29 L755.16,530.58 L757.53,529.61 L759.89,528.78 L762.25,527.88 L764.62,528.42 L766.98,529.09 L769.34,529.29 L771.70,528.84 L774.07,529.48 L776.43,529.54 L778.79,529.85 L781.15,530.58 L783.52,530.13 L785.88,530.65 L788.24,530.26 L790.60,531.23 L792.97,531.39 L795.33,531.87 L797.69,531.57 L800.05,532.14 L802.42,532.36 L804.78,531.84 L807.14,531.41 L809.51,531.46 L811.87,531.43 L814.23,531.36 L816.59,530.91 L818.96,530.83 L821.32,531.39 L823.68,530.44 L826.04,530.99 L828.41,530.60 L830.77,529.80 L833.13,529.67 L835.49,531.25 L837.86,530.67 L840.22,531.45 L842.58,530.55 L844.95,530.21 L847.31,530.83 L849.67,531.13 L852.03,529.54 L854.40,529.37 L856.76,528.74 L859.12,528.33 L861.48,528.47 L863.85,527.97 L866.21,528.14 L868.57,527.67 L870.93,528.60 L873.30,529.99 L875.66,530.89 L878.02,531.05 L880.38,531.70 L882.75,532.60 L885.11,531.98 L887.47,530.52 L889.84,529.56 L892.20,529.58 L894.56,529.37 L896.92,528.75 L899.29,527.44 L901.65,529.05 L904.01,529.96 L906.37,530.49 L908.74,530.00 L911.10,529.69 L913.46,530.00 L915.82,530.61 L918.19,530.31 L920.55,529.38 L922.91,529.77 L925.27,530.07 L927.64,530.91 L930.00,531.17" fill="none" stroke="#fb7185" stroke-width="2.2" stroke-linecap="round" />
</svg>
