<svg xmlns="http://www.w3.org/2000/svg" viewBox="0 0 960 720" width="960" height="720">
<rect width="960" height="720" fill="#0f172a" />
<text x="480" y="28" fill="#e2e8f0" font-size="16" font-weight="700" text-anchor="middle">双支撑占比均值趋势图</text>
<text x="70" y="70" fill="#e2e8f0" font-size="13" font-weight="600">本月分天指标明细</text>
<line x1="70" y1="323.00" x2="930" y2="323.00" stroke="#94a3b8" stroke-opacity="0.18" stroke-width="1" />
<text x="62" y="327.00" fill="#cbd5f5" font-size="10" text-anchor="end">0.08</text>
<line x1="70" y1="260.75" x2="930" y2="260.75" stroke="#94a3b8" stroke-opacity="0.18" stroke-width="1" />
<text x="62" y="264.75" fill="#cbd5f5" font-size="10" text-anchor="end">0.19</text>
<line x1="70" y1="198.50" x2="930" y2="198.50" stroke="#94a3b8" stroke-opacity="0.18" stroke-width="1" />
<text x="62" y="202.50" fill="#cbd5f5" font-size="10" text-anchor="end">0.29</text>
<line x1="70" y1="136.25" x2="930" y2="136.25" stroke="#94a3b8" stroke-opacity="0.18" stroke-width="1" />
<text x="62" y="140.25" fill="#cbd5f5" font-size="10" text-anchor="end">0.4</text>
<line x1="70" y1="74.00" x2="930" y2="74.00" stroke="#94a3b8" stroke-opacity="0.18" stroke-width="1" />
<text x="62" y="78.00" fill="#cbd5f5" font-size="10" text-anchor="end">0.51</text>
<line x1="70.00" y1="323" x2="70.00" y2="327" stroke="#94a3b8" stroke-opacity="0.5" stroke-width="1" />
<text x="70.00" y="341" fill="#cbd5f5" font-size="10" text-anchor="middle">11-22</text>
<line x1="242.00" y1="323" x2="242.00" y2="327" stroke="#94a3b8" stroke-opacity="0.5" stroke-width="1" />
<text x="242.00" y="341" fill="#cbd5f5" font-size="10" text-anchor="middle">11-27</text>
<line x1="414.00" y1="323" x2="414.00" y2="327" stroke="#94a3b8" stroke-opacity="0.5" stroke-width="1" />
<text x="414.00" y="341" fill="#cbd5f5" font-size="10" text-anchor="middle">12-03</text>
<line x1="586.00" y1="323" x2="586.00" y2="327" stroke="#94a3b8" stroke-opacity="0.5" stroke-width="1" />
<text x="586.00" y="341" fill="#cbd5f5" font-size="10" text-anchor="middle">12-09</text>
<line x1="758.00" y1="323" x2="758.00" y2="327" stroke="#94a3b8" stroke-opacity="0.5" stroke-width="1" />
<text x="758.00" y="341" fill="#cbd5f5" font-size="10" text-anchor="middle">12-15</text>
<line x1="930.00" y1="323" x2="930.00" y2="327" stroke="#94a3b8" stroke-opacity="0.5" stroke-width="1" />
<text x="930.00" y="341" fill="#cbd5f5" font-size="10" text-anchor="middle">12-21</text>
<line x1="70" y1="74" x2="70" y2="323" stroke="#94a3b8" stroke-width="1" />
<line x1="70" y1="323" x2="930" y2="323" stroke="#94a3b8" stroke-width="1" />
<path d="M70.00,196.69 L99.66,201.07 L129.31,204.95 L158.97,200.81 L188.62,198.35 L218.28,202.90 L247.93,206.18 L277.59,192.41 L307.24,191.00 L336.90,198.39 L366.55,200.93 L396.21,196.92 L425.86,198.57 L455.52,197.18 L485.17,203.53 L514.83,197.29 L544.48,202.03 L574.14,197.53 L603.79,194.82 L633.45,200.68 L663.10,201.37 L692.76,201.51 L722.41,190.82 L752.07,204.73 L781.72,199.61 L811.38,200.60 L841.03,202.50 L870.69,201.48 L900.34,198.92 L930.00,196.60" fill="none" stroke="#60a5fa" stroke-width="2.2" stroke-linecap="round" />
<circle cx="70.00" cy="196.69" r="3" fill="#60a5fa" stroke="#0f172a" stroke-width="1" />
<text x="70.00" y="186.69" fill="#e2e8f0" font-size="9" text-anchor="middle">0.3</text>
<circle cx="99.66" cy="201.07" r="3" fill="#60a5fa" stroke="#0f172a" stroke-width="1" />
<text x="99.66" y="181.07" fill="#e2e8f0" font-size="9" text-anchor="middle">0.29</text>
<circle cx="129.31" cy="204.95" r="3" fill="#60a5fa" stroke="#0f172a" stroke-width="1" />
<text x="129.31" y="194.95" fill="#e2e8f0" font-size="9" text-anchor="middle">0.28</text>
<circle cx="158.97" cy="200.81" r="3" fill="#60a5fa" stroke="#0f172a" stroke-width="1" />
<text x="158.97" y="180.81" fill="#e2e8f0" font-size="9" text-anchor="middle">0.29</text>
<circle cx="188.62" cy="198.35" r="3" fill="#60a5fa" stroke="#0f172a" stroke-width="1" />
<text x="188.62" y="188.35" fill="#e2e8f0" font-size="9" text-anchor="middle">0.29</text>
<circle cx="218.28" cy="202.90" r="3" fill="#60a5fa" stroke="#0f172a" stroke-width="1" />
<text x="218.28" y="182.90" fill="#e2e8f0" font-size="9" text-anchor="middle">0.29</text>
<circle cx="247.93" cy="206.18" r="3" fill="#60a5fa" stroke="#0f172a" stroke-width="1" />
<text x="247.93" y="196.18" fill="#e2e8f0" font-size="9" text-anchor="middle">0.28</text>
<circle cx="277.59" cy="192.41" r="3" fill="#60a5fa" stroke="#0f172a" stroke-width="1" />
<text x="277.59" y="172.41" fill="#e2e8f0" font-size="9" text-anchor="middle">0.3</text>
<circle cx="307.24" cy="191.00" r="3" fill="#60a5fa" stroke="#0f172a" stroke-width="1" />
<text x="307.24" y="181.00" fill="#e2e8f0" font-size="9" text-anchor="middle">0.31</text>
<circle cx="336.90" cy="198.39" r="3" fill="#60a5fa" stroke="#0f172a" stroke-width="1" />
<text x="336.90" y="178.39" fill="#e2e8f0" font-size="9" text-anchor="middle">0.29</text>
<circle cx="366.55" cy="200.93" r="3" fill="#60a5fa" stroke="#0f172a" stroke-width="1" />
<text x="366.55" y="190.93" fill="#e2e8f0" font-size="9" text-anchor="middle">0.29</text>
<circle cx="396.21" cy="196.92" r="3" fill="#60a5fa" stroke="#0f172a" stroke-width="1" />
<text x="396.21" y="176.92" fill="#e2e8f0" font-size="9" text-anchor="middle">0.3</text>
<circle cx="425.86" cy="198.57" r="3" fill="#60a5fa" stroke="#0f172a" stroke-width="1" />
<text x="425.86" y="188.57" fill="#e2e8f0" font-size="9" text-anchor="middle">0.29</text>
<circle cx="455.52" cy="197.18" r="3" fill="#60a5fa" stroke="#0f172a" stroke-width="1" />
<text x="455.52" y="177.18" fill="#e2e8f0" font-size="9" text-anchor="middle">0.3</text>
<circle cx="485.17" cy="203.53" r="3" fill="#60a5fa" stroke="#0f172a" stroke-width="1" />
<text x="485.17" y="193.53" fill="#e2e8f0" font-size="9" text-anchor="middle">0.29</text>
<circle cx="514.83" cy="197.29" r="3" fill="#60a5fa" stroke="#0f172a" stroke-width="1" />
<text x="514.83" y="177.29" fill="#e2e8f0" font-size="9" text-anchor="middle">0.3</text>
<circle cx="544.48" cy="202.03" r="3" fill="#60a5fa" stroke="#0f172a" stroke-width="1" />
<text x="544.48" y="192.03" fill="#e2e8f0" font-size="9" text-anchor="middle">0.29</text>
<circle cx="574.14" cy="197.53" r="3" fill="#60a5fa" stroke="#0f172a" stroke-width="1" />
<text x="574.14" y="177.53" fill="#e2e8f0" font-size="9" text-anchor="middle">0.3</text>
<circle cx="603.79" cy="194.82" r="3" fill="#60a5fa" stroke="#0f172a" stroke-width="1" />
<text x="603.79" y="184.82" fill="#e2e8f0" font-size="9" text-anchor="middle">0.3</text>
<circle cx="633.45" cy="200.68" r="3" fill="#60a5fa" stroke="#0f172a" stroke-width="1" />
<text x="633.45" y="180.68" fill="#e2e8f0" font-size="9" text-anchor="middle">0.29</text>
<circle cx="663.10" cy="201.37" r="3" fill="#60a5fa" stroke="#0f172a" stroke-width="1" />
<text x="663.10" y="191.37" fill="#e2e8f0" font-size="9" text-anchor="middle">0.29</text>
<circle cx="692.76" cy="201.51" r="3" fill="#60a5fa" stroke="#0f172a" stroke-width="1" />
<text x="692.76" y="181.51" fill="#e2e8f0" font-size="9" text-anchor="middle">0.29</text>
<circle cx="722.41" cy="190.82" r="3" fill="#60a5fa" stroke="#0f172a" stroke-width="1" />
<text x="722.41" y="180.82" fill="#e2e8f0" font-size="9" text-anchor="middle">0.31</text>
<circle cx="752.07" cy="204.73" r="3" fill="#60a5fa" stroke="#0f172a" stroke-width="1" />
<text x="752.07" y="184.73" fill="#e2e8f0" font-size="9" text-anchor="middle">0.28</text>
<circle cx="781.72" cy="199.61" r="3" fill="#60a5fa" stroke="#0f172a" stroke-width="1" />
<text x="781.72" y="189.61" fill="#e2e8f0" font-size="9" text-anchor="middle">0.29</text>
<circle cx="811.38" cy="200.60" r="3" fill="#60a5fa" stroke="#0f172a" stroke-width="1" />
<text x="811.38" y="180.60" fill="#e2e8f0" font-size="9" text-anchor="middle">0.29</text>
<circle cx="841.03" cy="202.50" r="3" fill="#60a5fa" stroke="#0f172a" stroke-width="1" />
<text x="841.03" y="192.50" fill="#e2e8f0" font-size="9" text-anchor="middle">0.29</text>
<circle cx="870.69" cy="201.48" r="3" fill="#60a5fa" stroke="#0f172a" stroke-width="1" />
<text x="870.69" y="181.48" fill="#e2e8f0" font-size="9" text-anchor="middle">0.29</text>
<circle cx="900.34" cy="198.92" r="3" fill="#60a5fa" stroke="#0f172a" stroke-width="1" />
<text x="900.34" y="188.92" fill="#e2e8f0" font-size="9" text-anchor="middle">0.29</text>
<circle cx="930.00" cy="196.60" r="3" fill="#60a5fa" stroke="#0f172a" stroke-width="1" />
<text x="930.00" y="176.60" fill="#e2e8f0" font-size="9" text-anchor="middle">0.3</text>
<text x="70" y="403" fill="#e2e8f0" font-size="13" font-weight="600">本年核心指标趋势（滑动7日窗口平均）</text>
<line x1="70" y1="656.00" x2="930" y2="656.00" stroke="#94a3b8" stroke-opacity="0.18" stroke-width="1" />
<text x="62" y="660.00" fill="#cbd5f5" font-size="10" text-anchor="end">0.08</text>
<line x1="70" y1="593.75" x2="930" y2="593.75" stroke="#94a3b8" stroke-opacity="0.18" stroke-width="1" />
<text x="62" y="597.75" fill="#cbd5f5" font-size="10" text-anchor="end">0.18</text>
<line x1="70" y1="531.50" x2="930" y2="531.50" stroke="#94a3b8" stroke-opacity="0.18" stroke-width="1" />
<text x="62" y="535.50" fill="#cbd5f5" font-size="10" text-anchor="end">0.29</text>
<line x1="70" y1="469.25" x2="930" y2="469.25" stroke="#94a3b8" stroke-opacity="0.18" stroke-width="1" />
<text x="62" y="473.25" fill="#cbd5f5" font-size="10" text-anchor="end">0.39</text>
<line x1="70" y1="407.00" x2="930" y2="407.00" stroke="#94a3b8" stroke-opacity="0.18" stroke-width="1" />
<text x="62" y="411.00" fill="#cbd5f5" font-size="10" text-anchor="end">0.5</text>
<line x1="70.00" y1="656" x2="70.00" y2="660" stroke="#94a3b8" stroke-opacity="0.5" stroke-width="1" />
<text x="70.00" y="674" fill="#cbd5f5" font-size="10" text-anchor="middle">2024-12</text>
<line x1="242.00" y1="656" x2="242.00" y2="660" stroke="#94a3b8" stroke-opacity="0.5" stroke-width="1" />
<text x="242.00" y="674" fill="#cbd5f5" font-size="10" text-anchor="middle">2025-03</text>
<line x1="414.00" y1="656" x2="414.00" y2="660" stroke="#94a3b8" stroke-opacity="0.5" stroke-width="1" />
<text x="414.00" y="674" fill="#cbd5f5" font-size="10" text-anchor="middle">2025-05</text>
<line x1="586.00" y1="656" x2="586.00" y2="660" stroke="#94a3b8" stroke-opacity="0.5" stroke-width="1" />
<text x="586.00" y="674" fill="#cbd5f5" font-size="10" text-anchor="middle">2025-07</text>
<line x1="758.00" y1="656" x2="758.00" y2="660" stroke="#94a3b8" stroke-opacity="0.5" stroke-width="1" />
<text x="758.00" y="674" fill="#cbd5f5" font-size="10" text-anchor="middle">2025-10</text>
<line x1="930.00" y1="656" x2="930.00" y2="660" stroke="#94a3b8" stroke-opacity="0.5" stroke-width="1" />
<text x="930.00" y="674" fill="#cbd5f5" font-size="10" text-anchor="middle">2025-12</text>
<line x1="70" y1="407" x2="70" y2="656" stroke="#94a3b8" stroke-width="1" />
<line x1="70" y1="656" x2="930" y2="656" stroke="#94a3b8" stroke-width="1" />
<path d="M70.00,656.00 L70.00,538.84 L72.36,538.90 L74.73,536.89 L77.09,536.05 L79.45,537.08 L81.81,536.58 L84.18,535.64 L86.54,533.85 L88.90,533.14 L91.26,534.09 L93.63,533.83 L95.99,533.03 L98.35,533.31 L100.71,533.78 L103.08,534.83 L105.44,534.98 L107.80,534.59 L110.16,534.98 L112.53,534.80 L114.89,534.57 L117.25,533.98 L119.62,533.79 L121.98,534.12 L124.34,533.73 L126.70,533.76 L129.07,533.72 L131.43,533.98 L133.79,533.90 L136.15,534.07 L138.52,533.62 L140.88,533.51 L143.24,533.19 L145.60,533.30 L147.97,532.82 L150.33,533.41 L152.69,532.54 L157.42,531.30 L159.78,528.77 L162.14,526.65 L164.51,524.39 L166.87,524.39 L171.59,524.10 L173.96,524.84 L176.32,525.15 L178.68,525.55 L181.04,527.01 L183.41,528.20 L185.77,528.21 L188.13,528.04 L190.49,527.69 L192.86,528.84 L195.22,530.75 L197.58,531.44 L199.95,531.71 L202.31,531.50 L204.67,531.44 L207.03,531.96 L209.40,531.66 L211.76,532.53 L214.12,532.53 L216.48,532.23 L218.85,532.15 L221.21,532.06 L223.57,532.10 L225.93,531.74 L228.30,531.06 L230.66,530.75 L233.02,530.97 L235.38,530.21 L237.75,530.70 L240.11,530.79 L242.47,531.00 L244.84,531.24 L247.20,531.58 L249.56,530.82 L251.92,530.58 L254.29,530.81 L256.65,530.54 L259.01,529.39 L261.37,528.20 L263.74,528.07 L266.10,529.46 L268.46,530.36 L270.82,530.14 L273.19,529.85 L275.55,531.41 L277.91,532.00 L280.27,532.48 L282.64,531.50 L285.00,531.87 L287.36,531.91 L289.73,532.60 L292.09,533.34 L294.45,533.55 L296.81,533.51 L299.18,534.60 L301.54,534.51 L303.90,534.73 L306.26,534.19 L308.63,532.92 L310.99,532.68 L313.35,531.87 L315.71,531.29 L318.08,531.73 L320.44,531.50 L322.80,531.69 L325.16,531.30 L327.53,531.54 L329.89,531.77 L332.25,532.86 L334.62,532.06 L336.98,532.03 L339.34,532.11 L341.70,532.49 L344.07,532.92 L346.43,533.24 L348.79,532.16 L351.15,532.50 L353.52,533.01 L355.88,533.03 L358.24,532.93 L360.60,532.65 L362.97,533.16 L365.33,532.78 L367.69,533.50 L370.05,533.08 L372.42,533.20 L374.78,533.31 L377.14,532.16 L379.51,531.02 L381.87,530.51 L384.23,528.74 L386.59,528.35 L388.96,528.14 L391.32,528.25 L393.68,529.86 L396.04,530.70 L398.41,531.45 L400.77,532.36 L403.13,532.93 L405.49,532.98 L407.86,533.24 L410.22,532.83 L412.58,532.46 L414.95,532.98 L417.31,532.62 L419.67,531.95 L422.03,531.61 L424.40,531.46 L426.76,531.19 L429.12,530.82 L431.48,530.44 L433.85,530.33 L436.21,531.12 L438.57,531.94 L440.93,532.23 L443.30,532.25 L445.66,533.05 L448.02,533.72 L450.38,534.12 L452.75,532.12 L455.11,531.86 L457.47,531.19 L459.84,531.32 L462.20,530.96 L464.56,530.45 L466.92,530.18 L469.29,531.59 L471.65,532.15 L474.01,532.59 L476.37,532.82 L478.74,532.92 L481.10,532.54 L483.46,532.40 L485.82,532.33 L488.19,531.10 L490.55,530.79 L492.91,530.18 L495.27,530.02 L497.64,529.36 L500.00,529.23 L502.36,529.43 L504.73,529.79 L507.09,529.87 L509.45,529.82 L511.81,529.54 L514.18,530.82 L516.54,530.78 L518.90,530.68 L521.26,530.74 L523.63,531.06 L525.99,531.65 L528.35,531.52 L530.71,530.57 L533.08,530.46 L535.44,530.46 L537.80,530.21 L540.16,529.72 L542.53,529.22 L544.89,529.85 L547.25,530.97 L549.62,532.83 L551.98,533.09 L554.34,532.91 L556.70,533.19 L559.07,533.80 L561.43,533.85 L563.79,533.44 L566.15,531.98 L568.52,531.31 L570.88,531.20 L573.24,531.97 L575.60,531.62 L577.97,531.35 L580.33,532.08 L582.69,531.70 L585.05,532.77 L587.42,533.56 L589.78,532.85 L592.14,532.52 L594.51,533.19 L596.87,532.84 L599.23,533.82 L601.59,533.74 L603.96,533.50 L606.32,533.32 L608.68,534.01 L611.04,533.32 L613.41,532.38 L615.77,532.13 L618.13,531.74 L620.49,531.77 L622.86,531.91 L625.22,531.54 L627.58,530.83 L629.95,530.76 L632.31,530.71 L634.67,531.34 L637.03,531.65 L639.40,532.39 L641.76,532.13 L644.12,533.49 L646.48,533.23 L648.85,533.46 L651.21,533.08 L653.57,532.17 L655.93,531.61 L658.30,531.23 L660.66,530.79 L663.02,531.48 L665.38,530.92 L667.75,531.03 L670.11,531.34 L672.47,531.29 L674.84,532.21 L677.20,532.23 L679.56,532.19 L681.92,532.40 L684.29,531.99 L686.65,532.58 L689.01,532.58 L691.37,532.61 L693.74,532.66 L696.10,532.98 L698.46,532.85 L700.82,532.76 L703.19,532.47 L705.55,531.93 L707.91,532.08 L710.27,531.41 L712.64,531.00 L715.00,530.95 L717.36,531.02 L719.73,531.37 L722.09,532.11 L724.45,531.73 L726.81,531.29 L729.18,531.14 L731.54,530.75 L733.90,530.36 L736.26,529.96 L738.63,529.44 L740.99,528.55 L743.35,528.36 L745.71,527.74 L748.08,529.01 L750.44,528.06 L752.80,527.23 L755.16,526.35 L757.53,526.89 L759.89,527.54 L762.25,527.74 L764.62,527.30 L766.98,527.93 L769.34,527.99 L771.70,528.30 L774.07,529.01 L776.43,528.57 L778.79,529.09 L781.15,528.70 L783.52,529.66 L785.88,529.82 L788.24,530.29 L790.60,529.99 L792.97,530.55 L795.33,530.77 L797.69,530.26 L800.05,529.83 L802.42,529.88 L804.78,529.85 L807.14,529.78 L809.51,529.34 L811.87,529.26 L814.23,529.81 L816.59,528.88 L818.96,529.42 L821.32,529.03 L823.68,528.25 L826.04,528.12 L828.41,529.68 L830.77,529.11 L833.13,529.87 L835.49,528.98 L837.86,528.65 L840.22,529.26 L842.58,529.56 L844.95,527.99 L847.31,527.82 L849.67,527.20 L852.03,526.80 L854.40,526.93 L856.76,526.44 L859.12,526.60 L861.48,526.15 L863.85,527.06 L866.21,528.43 L868.57,529.32 L870.93,529.48 L873.30,530.11 L875.66,531.00 L878.02,530.39 L880.38,528.95 L882.75,528.01 L885.11,528.03 L887.47,527.82 L889.84,527.20 L892.20,525.91 L894.56,527.51 L896.92,528.41 L899.29,528.93 L901.65,528.44 L904.01,528.14 L906.37,528.44 L908.74,529.04 L911.10,528.75 L913.46,527.83 L915.82,528.21 L918.19,528.51 L920.55,529.34 L922.91,529.60 L925.27,529.61 L927.64,529.24 L930.00,530.07 L930.00,656.00 Z" fill="#60a5fa" fill-opacity="0.16" stroke="none" />
<path d="M70.00,538.84 L72.36,538.90 L74.73,536.89 L77.09,536.05 L79.45,537.08 L81.81,536.58 L84.18,535.64 L86.54,533.85 L88.90,533.14 L91.26,534.09 L93.63,533.83 L95.99,533.03 L98.35,533.31 L100.71,533.78 L103.08,534.83 L105.44,534.98 L107.80,534.59 L110.16,534.98 L112.53,534.80 L114.89,534.57 L117.25,533.98 L119.62,533.79 L121.98,534.12 L124.34,533.73 L126.70,533.76 L129.07,533.72 L131.43,533.98 L133.79,533.90 L136.15,534.07 L138.52,533.62 L140.88,533.51 L143.24,533.19 L145.60,533.30 L147.97,532.82 L150.33,533.41 L152.69,532.54 L157.42,531.30 L159.78,528.77 L162.14,526.65 L164.51,524.39 L166.87,524.39 L171.59,524.10 L173.96,524.84 L176.32,525.15 L178.68,525.55 L181.04,527.01 L183.41,528.20 L185.77,528.21 L188.13,528.04 L190.49,527.69 L192.86,528.84 L195.22,530.75 L197.58,531.44 L199.95,531.71 L202.31,531.50 L204.67,531.44 L207.03,531.96 L209.40,531.66 L211.76,532.53 L214.12,532.53 L216.48,532.23 L218.85,532.15 L221.21,532.06 L223.57,532.10 L225.93,531.74 L228.30,531.06 L230.66,530.75 L233.02,530.97 L235.38,530.21 L237.75,530.70 L240.11,530.79 L242.47,531.00 L244.84,531.24 L247.20,531.58 L249.56,530.82 L251.92,530.58 L254.29,530.81 L256.65,530.54 L259.01,529.39 L261.37,528.20 L263.74,528.07 L266.10,529.46 L268.46,530.36 L270.82,530.14 L273.19,529.85 L275.55,531.41 L277.91,532.00 L280.27,532.48 L282.64,531.50 L285.00,531.87 L287.36,531.91 L289.73,532.60 L292.09,533.34 L294.45,533.55 L296.81,533.51 L299.18,534.60 L301.54,534.51 L303.90,534.73 L306.26,534.19 L308.63,532.92 L310.99,532.68 L313.35,531.87 L315.71,531.29 L318.08,531.73 L320.44,531.50 L322.80,531.69 L325.16,531.30 L327.53,531.54 L329.89,531.77 L332.25,532.86 L334.62,532.06 L336.98,532.03 L339.34,532.11 L341.70,532.49 L344.07,532.92 L346.43,533.24 L348.79,532.16 L351.15,532.50 L353.52,533.01 L355.88,533.03 L358.24,532.93 L360.60,532.65 L362.97,533.16 L365.33,532.78 L367.69,533.50 L370.05,533.08 L372.42,533.20 L374.78,533.31 L377.14,532.16 L379.51,531.02 L381.87,530.51 L384.23,528.74 L386.59,528.35 L388.96,528.14 L391.32,528.25 L393.68,529.86 L396.04,530.70 L398.41,531.45 L400.77,532.36 L403.13,532.93 L405.49,532.98 L407.86,533.24 L410.22,532.83 L412.58,532.46 L414.95,532.98 L417.31,532.62 L419.67,531.95 L422.03,531.61 L424.40,531.46 L426.76,531.19 L429.12,530.82 L431.48,530.44 L433.85,530.33 L436.21,531.12 L438.57,531.94 L440.93,532.23 L443.30,532.25 L445.66,533.05 L448.02,533.72 L450.38,534.12 L452.75,532.12 L455.11,531.86 L457.47,531.19 L459.84,531.32 L462.20,530.96 L464.56,530.45 L466.92,530.18 L469.29,531.59 L471.65,532.15 L474.01,532.59 L476.37,532.82 L478.74,532.92 L481.10,532.54 L483.46,532.40 L485.82,532.33 L488.19,531.10 L490.55,530.79 L492.91,530.18 L495.27,530.02 L497.64,529.36 L500.00,529.23 L502.36,529.43 L504.73,529.79 L507.09,529.87 L509.45,529.82 L511.81,529.54 L514.18,530.82 L516.54,530.78 L518.90,530.68 L521.26,530.74 L523.63,531.06 L525.99,531.65 L528.35,531.52 L530.71,530.57 L533.08,530.46 L535.44,530.46 L537.80,530.21 L540.16,529.72 L542.53,529.22 L544.89,529.85 L547.25,530.97 L549.62,532.83 L551.98,533.09 L554.34,532.91 L556.70,533.19 L559.07,533.80 L561.43,533.85 L563.79,533.44 L566.15,531.98 L568.52,531.31 L570.88,531.20 L573.24,531.97 L575.60,531.62 L577.97,531.35 L580.33,532.08 L582.69,531.70 L585.05,532.77 L587.42,533.56 L589.78,532.85 L592.14,532.52 L594.51,533.19 L596.87,532.84 L599.23,533.82 L601.59,533.74 L603.96,533.50 L606.32,533.32 L608.68,534.01 L611.04,533.32 L613.41,532.38 L615.77,532.13 L618.13,531.74 L620.49,531.77 L622.86,531.91 L625.22,531.54 L627.58,530.83 L629.95,530.76 L632.31,530.71 L634.67,531.34 L637.03,531.65 L639.40,532.39 L641.76,532.13 L644.12,533.49 L646.48,533.23 L648.85,533.46 L651.21,533.08 L653.57,532.17 L655.93,531.61 L658.30,531.23 L660.66,530.79 L663.02,531.48 L665.38,530.92 L667.75,531.03 L670.11,531.34 L672.47,531.29 L674.84,532.21 L677.20,532.23 L679.56,532.19 L681.92,532.40 L684.29,531.99 L686.65,532.58 L689.01,532.58 L691.37,532.61 L693.74,532.66 L696.10,532.98 L698.46,532.85 L700.82,532.76 L703.19,532.47 L705.55,531.93 L707.91,532.08 L710.27,531.41 L712.64,531.00 L715.00,530.95 L717.36,531.02 L719.73,531.37 L722.09,532.11 L724.45,531.73 L726.81,531.29 L729.18,531.14 L731.54,530.75 L733.90,530.36 L736.26,529.96 L738.63,529.44 L740.99,528.55 L743.35,528.36 L745.71,527.74 L748.08,529.01 L750.44,528.06 L752.80,527.23 L755.16,526.35 L757.53,526.89 L759.89,527.54 L762.25,527.74 L764.62,527.30 L766.98,527.93 L769.34,527.99 L771.70,528.30 L774.07,529.01 L776.43,528.57 L778.79,529.09 L781.15,528.70 L783.52,529.66 L785.88,529.82 L788.24,530.29 L790.60,529.99 L792.97,530.55 L795.33,530.77 L797.69,530.26 L800.05,529.83 L802.42,529.88 L804.78,529.85 L807.14,529.78 L809.51,529.34 L811.87,529.26 L814.23,529.81 L816.59,528.88 L818.96,529.42 L821.32,529.03 L823.68,528.25 L826.04,528.12 L828.41,529.68 L830.77,529.11 L833.13,529.87 L835.49,528.98 L837.86,528.65 L840.22,529.26 L842.58,529.56 L844.95,527.99 L847.31,527.82 L849.67,527.20 L852.03,526.80 L854.40,526.93 L856.76,526.44 L859.12,526.60 L861.48,526.15 L863.85,527.06 L866.21,528.43 L868.57,529.32 L870.93,529.48 L873.30,530.11 L875.66,531.00 L878.02,530.39 L880.38,528.95 L882.75,528.01 L885.11,528.03 L887.47,527.82 L889.84,527.20 L892.20,525.91 L894.56,527.51 L896.92,528.41 L899.29,528.93 L901.65,528.44 L904.01,528.14 L906.37,528.44 L908.74,529.04 L911.10,528.75 L913.46,527.83 L915.82,528.21 L918.19,528.51 L920.55,529.34 L922.91,529.60 L925.27,529.61 L927.64,529.24 L930.00,530.07" fill="none" stroke="#60a5fa" stroke-width="2.2" stroke-linecap="round" />
</svg>
