<svg xmlns="http://www.w3.org/2000/svg" viewBox="0 0 960 640" width="960" height="640">
  <rect width="960" height="640" fill="#0f172a" />
  <line x1="40" y1="40.00" x2="920.00" y2="40.00" stroke="#94a3b8" stroke-opacity="0.18" stroke-width="1" /><line x1="40" y1="128.00" x2="920.00" y2="128.00" stroke="#94a3b8" stroke-opacity="0.18" stroke-width="1" /><line x1="40" y1="216.00" x2="920.00" y2="216.00" stroke="#94a3b8" stroke-opacity="0.18" stroke-width="1" /><line x1="40" y1="304.00" x2="920.00" y2="304.00" stroke="#94a3b8" stroke-opacity="0.18" stroke-width="1" />
  <line x1="40" y1="336.00" x2="920.00" y2="336.00" stroke="#94a3b8" stroke-opacity="0.18" stroke-width="1" /><line x1="40" y1="424.00" x2="920.00" y2="424.00" stroke="#94a3b8" stroke-opacity="0.18" stroke-width="1" /><line x1="40" y1="512.00" x2="920.00" y2="512.00" stroke="#94a3b8" stroke-opacity="0.18" stroke-width="1" /><line x1="40" y1="600.00" x2="920.00" y2="600.00" stroke="#94a3b8" stroke-opacity="0.18" stroke-width="1" />
  <line x1="40" y1="320.00" x2="920.00" y2="320.00" stroke="#1f2937" stroke-width="1" />
  <polyline points="40.00,280.36 70.34,248.84 100.69,280.36 131.03,304.00 161.38,177.91 191.72,63.64 222.07,240.96 252.41,213.37 282.76,146.39 313.10,40.00 343.45,240.96 373.79,248.84 404.14,189.73 434.48,209.43 464.83,209.43 495.17,209.43 525.52,268.54 555.86,264.60 586.21,91.22 616.55,189.73 646.90,189.73 677.24,213.37 707.59,185.79 737.93,280.36 768.28,181.85 798.62,201.55 828.97,240.96 859.31,99.10 889.66,114.87 920.00,197.61" fill="none" stroke="#60a5fa" stroke-width="2" stroke-linecap="round" stroke-linejoin="round" />
  <polyline points="40.00,447.24 42.79,452.72 45.59,452.72 48.38,476.03 51.17,481.24 53.97,470.09 56.76,480.93 59.56,480.93 62.35,468.39 65.14,450.37 67.94,378.30 70.73,361.85 73.52,368.12 76.32,346.18 79.11,336.00 81.90,346.97 84.70,354.80 87.49,417.47 90.29,430.01 93.08,436.27 95.87,455.07 98.67,482.49 101.46,452.72 104.25,477.79 107.05,474.66 109.84,450.37 112.63,439.41 115.43,433.14 118.22,419.04 121.02,451.94 123.81,430.79 126.60,408.85 129.40,427.66 132.19,437.06 134.98,444.89 137.78,441.76 140.57,433.92 143.37,425.31 146.16,442.54 148.95,451.94 151.75,470.74 154.54,462.91 157.33,464.47 160.13,485.63 162.92,507.56 165.71,527.93 168.51,515.39 171.30,507.56 174.10,515.39 176.89,538.90 179.68,544.38 182.48,549.08 185.27,549.86 188.06,540.46 190.86,530.28 193.65,524.80 196.44,510.69 199.24,482.49 202.03,466.82 204.83,461.34 207.62,466.04 210.41,457.42 213.21,464.47 216.00,477.01 218.79,504.43 221.59,513.83 224.38,524.80 227.17,543.60 229.97,546.73 232.76,549.86 235.56,535.76 238.35,506.78 241.14,508.34 243.94,491.89 246.73,488.76 249.52,492.68 252.32,491.11 255.11,480.14 257.90,487.19 260.70,490.33 263.49,492.68 266.29,488.76 269.08,504.43 271.87,496.59 274.67,499.73 277.46,517.74 280.25,505.21 283.05,491.11 285.84,491.11 288.63,469.96 291.43,480.93 294.22,479.36 297.02,480.93 299.81,484.06 302.60,510.69 305.40,530.28 308.19,518.53 310.98,502.86 313.78,526.36 316.57,498.16 319.37,513.04 322.16,501.29 324.95,490.33 327.75,509.91 330.54,516.96 333.33,477.79 336.13,493.46 338.92,485.63 341.71,480.93 344.51,466.04 347.30,462.91 350.10,461.34 352.89,480.14 355.68,494.24 358.48,488.76 361.27,482.49 364.06,505.99 366.86,513.83 369.65,522.45 372.44,528.71 375.24,506.78 378.03,505.99 380.83,503.64 383.62,492.68 386.41,477.01 389.21,458.21 392.00,478.58 394.79,487.19 397.59,497.38 400.38,517.74 403.17,522.45 405.97,552.21 408.76,541.25 411.56,514.61 414.35,515.39 417.14,505.99 419.94,501.29 422.73,491.11 425.52,489.54 428.32,509.91 431.11,510.69 433.90,509.91 436.70,520.09 439.49,510.69 442.29,521.66 445.08,499.73 447.87,510.69 450.67,517.74 453.46,515.39 456.25,514.61 459.05,516.18 461.84,511.48 464.63,538.11 467.43,538.11 470.22,527.15 473.02,528.71 475.81,520.88 478.60,508.34 481.40,528.71 484.19,509.91 486.98,502.08 489.78,505.21 492.57,506.78 495.37,511.48 498.16,524.80 500.95,498.16 503.75,495.03 506.54,460.56 509.33,476.23 512.13,473.09 514.92,469.18 517.71,476.23 520.51,458.99 523.30,426.87 526.10,469.18 528.89,449.59 531.68,446.46 534.48,434.71 537.27,417.47 540.06,422.17 542.86,459.77 545.65,437.84 548.44,460.56 551.24,462.91 554.03,467.61 556.83,466.04 559.62,473.88 562.41,443.32 565.21,453.51 568.00,442.54 570.79,435.49 573.59,454.29 576.38,466.82 579.17,487.19 581.97,511.48 584.76,524.80 587.56,522.45 590.35,528.71 593.14,513.04 595.94,516.96 598.73,498.94 601.52,491.89 604.32,473.09 607.11,451.94 609.90,436.27 612.70,431.57 615.49,417.47 618.29,435.49 621.08,444.11 623.87,447.24 626.67,470.74 629.46,479.36 632.25,484.06 635.05,505.21 637.84,495.81 640.63,491.11 643.43,494.24 646.22,491.11 649.02,503.64 651.81,509.91 654.60,494.24 657.40,478.58 660.19,485.63 662.98,486.41 665.78,475.44 668.57,469.96 671.37,480.14 674.16,492.68 676.95,498.94 679.75,479.36 682.54,484.84 685.33,498.94 688.13,503.64 690.92,483.28 693.71,477.79 696.51,479.36 699.30,484.84 702.10,469.18 704.89,472.31 707.68,474.66 710.48,486.41 713.27,483.28 716.06,484.84 718.86,500.51 721.65,502.08 724.44,508.34 727.24,506.78 730.03,495.81 732.83,499.73 735.62,513.04 738.41,509.91 741.21,507.56 744.00,484.06 746.79,487.98 749.59,489.54 752.38,491.89 755.17,472.31 757.97,472.31 760.76,484.06 763.56,477.79 766.35,471.53 769.14,455.07 771.94,460.56 774.73,473.09 777.52,480.93 780.32,490.33 783.11,504.43 785.90,512.26 788.70,550.65 791.49,485.63 794.29,487.98 797.08,475.44 799.87,468.39 802.67,483.28 805.46,478.58 808.25,435.49 811.05,472.31 813.84,464.47 816.63,473.88 819.43,468.39 822.22,464.47 825.02,473.88 827.81,491.89 830.60,521.66 833.40,537.33 836.19,538.90 838.98,557.70 841.78,560.83 844.57,567.10 847.37,600.00 850.16,585.90 852.95,548.30 855.75,549.86 858.54,536.55 861.33,516.18 864.13,468.39 866.92,455.86 869.71,469.96 872.51,495.03 875.30,488.76 878.10,487.98 880.89,500.51 883.68,545.95 886.48,550.65 889.27,519.31 892.06,519.31 894.86,515.39 897.65,516.18 900.44,511.48 903.24,513.83 906.03,497.38 908.83,519.31 911.62,529.50 914.41,511.48 917.21,491.89 920.00,494.24" fill="none" stroke="#60a5fa" stroke-width="2" stroke-linecap="round" stroke-linejoin="round" />
  
  
  </svg>