<svg xmlns="http://www.w3.org/2000/svg" viewBox="0 0 960 720" width="960" height="720">
<rect width="960" height="720" fill="#0f172a" />
<text x="480" y="28" fill="#e2e8f0" font-size="16" font-weight="700" text-anchor="middle">步长均值趋势图</text>
<text x="70" y="70" fill="#e2e8f0" font-size="13" font-weight="600">本月分天指标明细</text>
<line x1="70" y1="323.00" x2="930" y2="323.00" stroke="#94a3b8" stroke-opacity="0.18" stroke-width="1" />
<text x="62" y="327.00" fill="#cbd5f5" font-size="10" text-anchor="end">56.4</text>
<line x1="70" y1="260.75" x2="930" y2="260.75" stroke="#94a3b8" stroke-opacity="0.18" stroke-width="1" />
<text x="62" y="264.75" fill="#cbd5f5" font-size="10" text-anchor="end">61.8</text>
<line x1="70" y1="198.50" x2="930" y2="198.50" stroke="#94a3b8" stroke-opacity="0.18" stroke-width="1" />
<text x="62" y="202.50" fill="#cbd5f5" font-size="10" text-anchor="end">67.2</text>
<line x1="70" y1="136.25" x2="930" y2="136.25" stroke="#94a3b8" stroke-opacity="0.18" stroke-width="1" />
<text x="62" y="140.25" fill="#cbd5f5" font-size="10" text-anchor="end">72.7</text>
<line x1="70" y1="74.00" x2="930" y2="74.00" stroke="#94a3b8" stroke-opacity="0.18" stroke-width="1" />
<text x="62" y="78.00" fill="#cbd5f5" font-size="10" text-anchor="end">78.1</text>
<line x1="70.00" y1="323" x2="70.00" y2="327" stroke="#94a3b8" stroke-opacity="0.5" stroke-width="1" />
<text x="70.00" y="341" fill="#cbd5f5" font-size="10" text-anchor="middle">11-22</text>
<line x1="242.00" y1="323" x2="242.00" y2="327" stroke="#94a3b8" stroke-opacity="0.5" stroke-width="1" />
<text x="242.00" y="341" fill="#cbd5f5" font-size="10" text-anchor="middle">11-27</text>
<line x1="414.00" y1="323" x2="414.00" y2="327" stroke="#94a3b8" stroke-opacity="0.5" stroke-width="1" />
<text x="414.00" y="341" fill="#cbd5f5" font-size="10" text-anchor="middle">12-03</text>
<line x1="586.00" y1="323" x2="586.00" y2="327" stroke="#94a3b8" stroke-opacity="0.5" stroke-width="1" />
<text x="586.00" y="341" fill="#cbd5f5" font-size="10" text-anchor="middle">12-09</text>
<line x1="758.00" y1="323" x2="758.00" y2="327" stroke="#94a3b8" stroke-opacity="0.5" stroke-width="1" />
<text x="758.00" y="341" fill="#cbd5f5" font-size="10" text-anchor="middle">12-15</text>
<line x1="930.00" y1="323" x2="930.00" y2="327" stroke="#94a3b8" stroke-opacity="0.5" stroke-width="1" />
<text x="930.00" y="341" fill="#cbd5f5" font-size="10" text-anchor="middle">12-21</text>
<line x1="70" y1="74" x2="70" y2="323" stroke="#94a3b8" stroke-width="1" />
<line x1="70" y1="323" x2="930" y2="323" stroke="#94a3b8" stroke-width="1" />
<path d="M70.00,200.35 L99.66,141.78 L129.31,108.84 L158.97,160.74 L188.62,163.88 L218.28,143.85 L247.93,94.75 L277.59,202.19 L307.24,214.86 L336.90,162.56 L366.55,132.36 L396.21,154.80 L425.86,169.40 L455.52,154.36 L485.17,104.87 L514.83,216.66 L544.48,140.29 L574.14,241.42 L603.79,202.91 L633.45,188.40 L663.10,133.68 L692.76,187.92 L722.41,229.10 L752.07,140.85 L781.72,183.97 L811.38,186.37 L841.03,180.64 L870.69,158.83 L900.34,194.30 L930.00,302.25" fill="none" stroke="#60a5fa" stroke-width="2.2" stroke-linecap="round" />
<circle cx="70.00" cy="200.35" r="3" fill="#60a5fa" stroke="#0f172a" stroke-width="1" />
<text x="70.00" y="190.35" fill="#e2e8f0" font-size="9" text-anchor="middle">67.1</text>
<circle cx="99.66" cy="141.78" r="3" fill="#60a5fa" stroke="#0f172a" stroke-width="1" />
<text x="99.66" y="121.78" fill="#e2e8f0" font-size="9" text-anchor="middle">72.2</text>
<circle cx="129.31" cy="108.84" r="3" fill="#60a5fa" stroke="#0f172a" stroke-width="1" />
<text x="129.31" y="98.84" fill="#e2e8f0" font-size="9" text-anchor="middle">75</text>
<circle cx="158.97" cy="160.74" r="3" fill="#60a5fa" stroke="#0f172a" stroke-width="1" />
<text x="158.97" y="140.74" fill="#e2e8f0" font-size="9" text-anchor="middle">70.5</text>
<circle cx="188.62" cy="163.88" r="3" fill="#60a5fa" stroke="#0f172a" stroke-width="1" />
<text x="188.62" y="153.88" fill="#e2e8f0" font-size="9" text-anchor="middle">70.3</text>
<circle cx="218.28" cy="143.85" r="3" fill="#60a5fa" stroke="#0f172a" stroke-width="1" />
<text x="218.28" y="123.85" fill="#e2e8f0" font-size="9" text-anchor="middle">72</text>
<circle cx="247.93" cy="94.75" r="3" fill="#60a5fa" stroke="#0f172a" stroke-width="1" />
<text x="247.93" y="84.75" fill="#e2e8f0" font-size="9" text-anchor="middle">76.3</text>
<circle cx="277.59" cy="202.19" r="3" fill="#60a5fa" stroke="#0f172a" stroke-width="1" />
<text x="277.59" y="182.19" fill="#e2e8f0" font-size="9" text-anchor="middle">66.9</text>
<circle cx="307.24" cy="214.86" r="3" fill="#60a5fa" stroke="#0f172a" stroke-width="1" />
<text x="307.24" y="204.86" fill="#e2e8f0" font-size="9" text-anchor="middle">65.8</text>
<circle cx="336.90" cy="162.56" r="3" fill="#60a5fa" stroke="#0f172a" stroke-width="1" />
<text x="336.90" y="142.56" fill="#e2e8f0" font-size="9" text-anchor="middle">70.4</text>
<circle cx="366.55" cy="132.36" r="3" fill="#60a5fa" stroke="#0f172a" stroke-width="1" />
<text x="366.55" y="122.36" fill="#e2e8f0" font-size="9" text-anchor="middle">73</text>
<circle cx="396.21" cy="154.80" r="3" fill="#60a5fa" stroke="#0f172a" stroke-width="1" />
<text x="396.21" y="134.80" fill="#e2e8f0" font-size="9" text-anchor="middle">71</text>
<circle cx="425.86" cy="169.40" r="3" fill="#60a5fa" stroke="#0f172a" stroke-width="1" />
<text x="425.86" y="159.40" fill="#e2e8f0" font-size="9" text-anchor="middle">69.8</text>
<circle cx="455.52" cy="154.36" r="3" fill="#60a5fa" stroke="#0f172a" stroke-width="1" />
<text x="455.52" y="134.36" fill="#e2e8f0" font-size="9" text-anchor="middle">71.1</text>
<circle cx="485.17" cy="104.87" r="3" fill="#60a5fa" stroke="#0f172a" stroke-width="1" />
<text x="485.17" y="94.87" fill="#e2e8f0" font-size="9" text-anchor="middle">75.4</text>
<circle cx="514.83" cy="216.66" r="3" fill="#60a5fa" stroke="#0f172a" stroke-width="1" />
<text x="514.83" y="196.66" fill="#e2e8f0" font-size="9" text-anchor="middle">65.7</text>
<circle cx="544.48" cy="140.29" r="3" fill="#60a5fa" stroke="#0f172a" stroke-width="1" />
<text x="544.48" y="130.29" fill="#e2e8f0" font-size="9" text-anchor="middle">72.3</text>
<circle cx="574.14" cy="241.42" r="3" fill="#60a5fa" stroke="#0f172a" stroke-width="1" />
<text x="574.14" y="221.42" fill="#e2e8f0" font-size="9" text-anchor="middle">63.5</text>
<circle cx="603.79" cy="202.91" r="3" fill="#60a5fa" stroke="#0f172a" stroke-width="1" />
<text x="603.79" y="192.91" fill="#e2e8f0" font-size="9" text-anchor="middle">66.9</text>
<circle cx="633.45" cy="188.40" r="3" fill="#60a5fa" stroke="#0f172a" stroke-width="1" />
<text x="633.45" y="168.40" fill="#e2e8f0" font-size="9" text-anchor="middle">68.1</text>
<circle cx="663.10" cy="133.68" r="3" fill="#60a5fa" stroke="#0f172a" stroke-width="1" />
<text x="663.10" y="123.68" fill="#e2e8f0" font-size="9" text-anchor="middle">72.9</text>
<circle cx="692.76" cy="187.92" r="3" fill="#60a5fa" stroke="#0f172a" stroke-width="1" />
<text x="692.76" y="167.92" fill="#e2e8f0" font-size="9" text-anchor="middle">68.2</text>
<circle cx="722.41" cy="229.10" r="3" fill="#60a5fa" stroke="#0f172a" stroke-width="1" />
<text x="722.41" y="219.10" fill="#e2e8f0" font-size="9" text-anchor="middle">64.6</text>
<circle cx="752.07" cy="140.85" r="3" fill="#60a5fa" stroke="#0f172a" stroke-width="1" />
<text x="752.07" y="120.85" fill="#e2e8f0" font-size="9" text-anchor="middle">72.3</text>
<circle cx="781.72" cy="183.97" r="3" fill="#60a5fa" stroke="#0f172a" stroke-width="1" />
<text x="781.72" y="173.97" fill="#e2e8f0" font-size="9" text-anchor="middle">68.5</text>
<circle cx="811.38" cy="186.37" r="3" fill="#60a5fa" stroke="#0f172a" stroke-width="1" />
<text x="811.38" y="166.37" fill="#e2e8f0" font-size="9" text-anchor="middle">68.3</text>
<circle cx="841.03" cy="180.64" r="3" fill="#60a5fa" stroke="#0f172a" stroke-width="1" />
<text x="841.03" y="170.64" fill="#e2e8f0" font-size="9" text-anchor="middle">68.8</text>
<circle cx="870.69" cy="158.83" r="3" fill="#60a5fa" stroke="#0f172a" stroke-width="1" />
<text x="870.69" y="138.83" fill="#e2e8f0" font-size="9" text-anchor="middle">70.7</text>
<circle cx="900.34" cy="194.30" r="3" fill="#60a5fa" stroke="#0f172a" stroke-width="1" />
<text x="900.34" y="184.30" fill="#e2e8f0" font-size="9" text-anchor="middle">67.6</text>
<circle cx="930.00" cy="302.25" r="3" fill="#60a5fa" stroke="#0f172a" stroke-width="1" />
<text x="930.00" y="282.25" fill="#e2e8f0" font-size="9" text-anchor="middle">58.2</text>
<text x="70" y="403" fill="#e2e8f0" font-size="13" font-weight="600">本年核心指标趋势（滑动7日窗口平均）</text>
<line x1="70" y1="656.00" x2="930" y2="656.00" stroke="#94a3b8" stroke-opacity="0.18" stroke-width="1" />
<text x="62" y="660.00" fill="#cbd5f5" font-size="10" text-anchor="end">65.8</text>
<line x1="70" y1="593.75" x2="930" y2="593.75" stroke="#94a3b8" stroke-opacity="0.18" stroke-width="1" />
<text x="62" y="597.75" fill="#cbd5f5" font-size="10" text-anchor="end">68.1</text>
<line x1="70" y1="531.50" x2="930" y2="531.50" stroke="#94a3b8" stroke-opacity="0.18" stroke-width="1" />
<text x="62" y="535.50" fill="#cbd5f5" font-size="10" text-anchor="end">70.4</text>
<line x1="70" y1="469.25" x2="930" y2="469.25" stroke="#94a3b8" stroke-opacity="0.18" stroke-width="1" />
<text x="62" y="473.25" fill="#cbd5f5" font-size="10" text-anchor="end">72.8</text>
<line x1="70" y1="407.00" x2="930" y2="407.00" stroke="#94a3b8" stroke-opacity="0.18" stroke-width="1" />
<text x="62" y="411.00" fill="#cbd5f5" font-size="10" text-anchor="end">75.1</text>
<line x1="70.00" y1="656" x2="70.00" y2="660" stroke="#94a3b8" stroke-opacity="0.5" stroke-width="1" />
<text x="70.00" y="674" fill="#cbd5f5" font-size="10" text-anchor="middle">2024-12</text>
<line x1="242.00" y1="656" x2="242.00" y2="660" stroke="#94a3b8" stroke-opacity="0.5" stroke-width="1" />
<text x="242.00" y="674" fill="#cbd5f5" font-size="10" text-anchor="middle">2025-03</text>
<line x1="414.00" y1="656" x2="414.00" y2="660" stroke="#94a3b8" stroke-opacity="0.5" stroke-width="1" />
<text x="414.00" y="674" fill="#cbd5f5" font-size="10" text-anchor="middle">2025-05</text>
<line x1="586.00" y1="656" x2="586.00" y2="660" stroke="#94a3b8" stroke-opacity="0.5" stroke-width="1" />
<text x="586.00" y="674" fill="#cbd5f5" font-size="10" text-anchor="middle">2025-07</text>
<line x1="758.00" y1="656" x2="758.00" y2="660" stroke="#94a3b8" stroke-opacity="0.5" stroke-width="1" />
<text x="758.00" y="674" fill="#cbd5f5" font-size="10" text-anchor="middle">2025-10</text>
<line x1="930.00" y1="656" x2="930.00" y2="660" stroke="#94a3b8" stroke-opacity="0.5" stroke-width="1" />
<text x="930.00" y="674" fill="#cbd5f5" font-size="10" text-anchor="middle">2025-12</text>
<line x1="70" y1="407" x2="70" y2="656" stroke="#94a3b8" stroke-width="1" />
<line x1="70" y1="656" x2="930" y2="656" stroke="#94a3b8" stroke-width="1" />
<path d="M70.00,656.00 L70.00,443.93 L72.36,442.59 L74.73,459.47 L77.09,462.14 L79.45,427.75 L81.81,441.43 L84.18,460.71 L86.54,497.91 L88.90,506.50 L91.26,511.12 L93.63,520.29 L95.99,534.85 L98.35,524.61 L100.71,496.71 L103.08,457.55 L105.44,455.17 L107.80,438.42 L110.16,432.19 L112.53,445.44 L114.89,455.45 L117.25,477.72 L119.62,493.59 L121.98,490.96 L124.34,505.52 L126.70,507.87 L129.07,502.64 L131.43,489.22 L133.79,487.11 L136.15,464.11 L138.52,459.18 L140.88,458.75 L143.24,451.27 L145.60,463.16 L147.97,459.89 L150.33,450.19 L152.69,469.54 L157.42,491.41 L159.78,522.33 L162.14,591.92 L164.51,616.29 L166.87,619.37 L171.59,616.06 L173.96,609.51 L176.32,603.43 L178.68,608.06 L181.04,542.92 L183.41,529.34 L185.77,533.72 L188.13,538.85 L190.49,539.65 L192.86,519.61 L195.22,487.96 L197.58,480.71 L199.95,468.20 L202.31,476.36 L204.67,479.27 L207.03,475.90 L209.40,472.00 L211.76,439.67 L214.12,442.31 L216.48,446.61 L218.85,449.07 L221.21,452.39 L223.57,457.57 L225.93,471.85 L228.30,496.76 L230.66,499.57 L233.02,492.40 L235.38,490.48 L237.75,482.17 L240.11,462.58 L242.47,466.70 L244.84,468.80 L247.20,468.25 L249.56,484.59 L251.92,503.30 L254.29,497.09 L256.65,516.31 L259.01,535.59 L261.37,545.84 L263.74,558.95 L266.10,531.96 L268.46,507.39 L270.82,522.06 L273.19,525.87 L275.55,506.19 L277.91,497.99 L280.27,483.17 L282.64,503.62 L285.00,517.66 L287.36,519.28 L289.73,505.87 L292.09,483.12 L294.45,475.65 L296.81,480.61 L299.18,465.46 L301.54,445.90 L303.90,446.52 L306.26,466.31 L308.63,483.07 L310.99,492.34 L313.35,495.57 L315.71,515.79 L318.08,518.11 L320.44,516.77 L322.80,505.21 L325.16,515.35 L327.53,511.11 L329.89,514.23 L332.25,488.10 L334.62,503.10 L336.98,517.54 L339.34,512.72 L341.70,507.10 L344.07,502.97 L346.43,496.18 L348.79,515.89 L351.15,508.43 L353.52,485.19 L355.88,488.73 L358.24,495.75 L360.60,503.00 L362.97,501.69 L365.33,506.47 L367.69,494.83 L370.05,509.93 L372.42,502.94 L374.78,505.01 L377.14,535.15 L379.51,552.85 L381.87,575.17 L384.23,616.15 L386.59,618.85 L388.96,635.25 L391.32,630.62 L393.68,595.30 L396.04,589.17 L398.41,568.95 L400.77,539.78 L403.13,534.47 L405.49,532.92 L407.86,528.47 L410.22,539.68 L412.58,539.15 L414.95,527.39 L417.31,545.51 L419.67,564.96 L422.03,563.78 L424.40,567.08 L426.76,567.74 L429.12,565.34 L431.48,569.94 L433.85,566.89 L436.21,538.81 L438.57,530.49 L440.93,525.55 L443.30,527.64 L445.66,512.20 L448.02,489.97 L450.38,479.21 L452.75,575.12 L455.11,567.97 L457.47,572.08 L459.84,555.21 L462.20,566.02 L464.56,594.28 L466.92,591.28 L469.29,501.61 L471.65,496.23 L474.01,494.25 L476.37,493.74 L478.74,490.60 L481.10,495.90 L483.46,506.76 L485.82,514.40 L488.19,544.56 L490.55,552.15 L492.91,577.65 L495.27,583.28 L497.64,579.77 L500.00,581.55 L502.36,572.63 L504.73,554.03 L507.09,545.06 L509.45,534.13 L511.81,533.52 L514.18,518.68 L516.54,519.35 L518.90,517.89 L521.26,529.06 L523.63,519.74 L525.99,502.90 L528.35,515.96 L530.71,526.53 L533.08,532.44 L535.44,531.91 L537.80,537.39 L540.16,552.81 L542.53,566.54 L544.89,548.76 L547.25,535.30 L549.62,490.86 L551.98,483.90 L554.34,486.31 L556.70,486.60 L559.07,473.58 L561.43,471.84 L563.79,471.12 L566.15,479.88 L568.52,499.44 L570.88,501.47 L573.24,480.80 L575.60,499.77 L577.97,508.16 L580.33,511.63 L582.69,541.45 L585.05,516.18 L587.42,497.69 L589.78,507.50 L592.14,510.25 L594.51,503.81 L596.87,498.23 L599.23,485.72 L601.59,490.89 L603.96,488.36 L606.32,498.39 L608.68,490.19 L611.04,490.89 L613.41,514.37 L615.77,526.56 L618.13,538.74 L620.49,549.67 L622.86,545.34 L625.22,549.32 L627.58,572.55 L629.95,575.96 L632.31,571.53 L634.67,560.61 L637.03,549.26 L639.40,539.38 L641.76,544.83 L644.12,517.00 L646.48,501.09 L648.85,494.56 L651.21,539.02 L653.57,561.59 L655.93,566.01 L658.30,566.22 L660.66,578.24 L663.02,578.15 L665.38,589.32 L667.75,546.98 L670.11,544.97 L672.47,545.16 L674.84,541.79 L677.20,538.41 L679.56,541.79 L681.92,536.23 L684.29,538.36 L686.65,526.15 L689.01,522.40 L691.37,518.12 L693.74,518.10 L696.10,508.25 L698.46,512.31 L700.82,520.84 L703.19,523.17 L705.55,545.92 L707.91,534.51 L710.27,544.26 L712.64,559.41 L715.00,553.54 L717.36,543.37 L719.73,524.81 L722.09,513.51 L724.45,528.29 L726.81,533.53 L729.18,534.47 L731.54,544.75 L733.90,563.68 L736.26,585.67 L738.63,590.42 L740.99,601.72 L743.35,601.97 L745.71,612.42 L748.08,572.53 L750.44,591.11 L752.80,596.90 L755.16,607.97 L757.53,595.86 L759.89,589.69 L762.25,582.27 L764.62,633.70 L766.98,608.71 L769.34,616.35 L771.70,607.90 L774.07,594.43 L776.43,596.04 L778.79,583.96 L781.15,556.13 L783.52,546.27 L785.88,530.99 L788.24,518.02 L790.60,523.38 L792.97,509.93 L795.33,513.95 L797.69,528.71 L800.05,529.38 L802.42,532.97 L804.78,541.05 L807.14,525.37 L809.51,536.06 L811.87,524.39 L814.23,508.74 L816.59,529.00 L818.96,512.80 L821.32,522.74 L823.68,550.90 L826.04,552.88 L828.41,527.35 L830.77,567.50 L833.13,551.25 L835.49,568.74 L837.86,567.39 L840.22,560.58 L842.58,553.71 L844.95,580.23 L847.31,566.29 L849.67,583.07 L852.03,589.26 L854.40,580.64 L856.76,583.53 L859.12,586.83 L861.48,603.98 L863.85,576.09 L866.21,542.05 L868.57,530.50 L870.93,531.84 L873.30,519.74 L875.66,492.48 L878.02,493.09 L880.38,517.23 L882.75,534.98 L885.11,525.60 L887.47,522.60 L889.84,531.04 L892.20,550.74 L894.56,518.59 L896.92,519.18 L899.29,511.82 L901.65,547.85 L904.01,563.74 L906.37,570.02 L908.74,563.19 L911.10,590.63 L913.46,594.73 L915.82,594.92 L918.19,575.94 L920.55,570.48 L922.91,567.91 L925.27,576.22 L927.64,578.33 L930.00,602.50 L930.00,656.00 Z" fill="#60a5fa" fill-opacity="0.16" stroke="none" />
<path d="M70.00,443.93 L72.36,442.59 L74.73,459.47 L77.09,462.14 L79.45,427.75 L81.81,441.43 L84.18,460.71 L86.54,497.91 L88.90,506.50 L91.26,511.12 L93.63,520.29 L95.99,534.85 L98.35,524.61 L100.71,496.71 L103.08,457.55 L105.44,455.17 L107.80,438.42 L110.16,432.19 L112.53,445.44 L114.89,455.45 L117.25,477.72 L119.62,493.59 L121.98,490.96 L124.34,505.52 L126.70,507.87 L129.07,502.64 L131.43,489.22 L133.79,487.11 L136.15,464.11 L138.52,459.18 L140.88,458.75 L143.24,451.27 L145.60,463.16 L147.97,459.89 L150.33,450.19 L152.69,469.54 L157.42,491.41 L159.78,522.33 L162.14,591.92 L164.51,616.29 L166.87,619.37 L171.59,616.06 L173.96,609.51 L176.32,603.43 L178.68,608.06 L181.04,542.92 L183.41,529.34 L185.77,533.72 L188.13,538.85 L190.49,539.65 L192.86,519.61 L195.22,487.96 L197.58,480.71 L199.95,468.20 L202.31,476.36 L204.67,479.27 L207.03,475.90 L209.40,472.00 L211.76,439.67 L214.12,442.31 L216.48,446.61 L218.85,449.07 L221.21,452.39 L223.57,457.57 L225.93,471.85 L228.30,496.76 L230.66,499.57 L233.02,492.40 L235.38,490.48 L237.75,482.17 L240.11,462.58 L242.47,466.70 L244.84,468.80 L247.20,468.25 L249.56,484.59 L251.92,503.30 L254.29,497.09 L256.65,516.31 L259.01,535.59 L261.37,545.84 L263.74,558.95 L266.10,531.96 L268.46,507.39 L270.82,522.06 L273.19,525.87 L275.55,506.19 L277.91,497.99 L280.27,483.17 L282.64,503.62 L285.00,517.66 L287.36,519.28 L289.73,505.87 L292.09,483.12 L294.45,475.65 L296.81,480.61 L299.18,465.46 L301.54,445.90 L303.90,446.52 L306.26,466.31 L308.63,483.07 L310.99,492.34 L313.35,495.57 L315.71,515.79 L318.08,518.11 L320.44,516.77 L322.80,505.21 L325.16,515.35 L327.53,511.11 L329.89,514.23 L332.25,488.10 L334.62,503.10 L336.98,517.54 L339.34,512.72 L341.70,507.10 L344.07,502.97 L346.43,496.18 L348.79,515.89 L351.15,508.43 L353.52,485.19 L355.88,488.73 L358.24,495.75 L360.60,503.00 L362.97,501.69 L365.33,506.47 L367.69,494.83 L370.05,509.93 L372.42,502.94 L374.78,505.01 L377.14,535.15 L379.51,552.85 L381.87,575.17 L384.23,616.15 L386.59,618.85 L388.96,635.25 L391.32,630.62 L393.68,595.30 L396.04,589.17 L398.41,568.95 L400.77,539.78 L403.13,534.47 L405.49,532.92 L407.86,528.47 L410.22,539.68 L412.58,539.15 L414.95,527.39 L417.31,545.51 L419.67,564.96 L422.03,563.78 L424.40,567.08 L426.76,567.74 L429.12,565.34 L431.48,569.94 L433.85,566.89 L436.21,538.81 L438.57,530.49 L440.93,525.55 L443.30,527.64 L445.66,512.20 L448.02,489.97 L450.38,479.21 L452.75,575.12 L455.11,567.97 L457.47,572.08 L459.84,555.21 L462.20,566.02 L464.56,594.28 L466.92,591.28 L469.29,501.61 L471.65,496.23 L474.01,494.25 L476.37,493.74 L478.74,490.60 L481.10,495.90 L483.46,506.76 L485.82,514.40 L488.19,544.56 L490.55,552.15 L492.91,577.65 L495.27,583.28 L497.64,579.77 L500.00,581.55 L502.36,572.63 L504.73,554.03 L507.09,545.06 L509.45,534.13 L511.81,533.52 L514.18,518.68 L516.54,519.35 L518.90,517.89 L521.26,529.06 L523.63,519.74 L525.99,502.90 L528.35,515.96 L530.71,526.53 L533.08,532.44 L535.44,531.91 L537.80,537.39 L540.16,552.81 L542.53,566.54 L544.89,548.76 L547.25,535.30 L549.62,490.86 L551.98,483.90 L554.34,486.31 L556.70,486.60 L559.07,473.58 L561.43,471.84 L563.79,471.12 L566.15,479.88 L568.52,499.44 L570.88,501.47 L573.24,480.80 L575.60,499.77 L577.97,508.16 L580.33,511.63 L582.69,541.45 L585.05,516.18 L587.42,497.69 L589.78,507.50 L592.14,510.25 L594.51,503.81 L596.87,498.23 L599.23,485.72 L601.59,490.89 L603.96,488.36 L606.32,498.39 L608.68,490.19 L611.04,490.89 L613.41,514.37 L615.77,526.56 L618.13,538.74 L620.49,549.67 L622.86,545.34 L625.22,549.32 L627.58,572.55 L629.95,575.96 L632.31,571.53 L634.67,560.61 L637.03,549.26 L639.40,539.38 L641.76,544.83 L644.12,517.00 L646.48,501.09 L648.85,494.56 L651.21,539.02 L653.57,561.59 L655.93,566.01 L658.30,566.22 L660.66,578.24 L663.02,578.15 L665.38,589.32 L667.75,546.98 L670.11,544.97 L672.47,545.16 L674.84,541.79 L677.20,538.41 L679.56,541.79 L681.92,536.23 L684.29,538.36 L686.65,526.15 L689.01,522.40 L691.37,518.12 L693.74,518.10 L696.10,508.25 L698.46,512.31 L700.82,520.84 L703.19,523.17 L705.55,545.92 L707.91,534.51 L710.27,544.26 L712.64,559.41 L715.00,553.54 L717.36,543.37 L719.73,524.81 L722.09,513.51 L724.45,528.29 L726.81,533.53 L729.18,534.47 L731.54,544.75 L733.90,563.68 L736.26,585.67 L738.63,590.42 L740.99,601.72 L743.35,601.97 L745.71,612.42 L748.08,572.53 L750.44,591.11 L752.80,596.90 L755.16,607.97 L757.53,595.86 L759.89,589.69 L762.25,582.27 L764.62,633.70 L766.98,608.71 L769.34,616.35 L771.70,607.90 L774.07,594.43 L776.43,596.04 L778.79,583.96 L781.15,556.13 L783.52,546.27 L785.88,530.99 L788.24,518.02 L790.60,523.38 L792.97,509.93 L795.33,513.95 L797.69,528.71 L800.05,529.38 L802.42,532.97 L804.78,541.05 L807.14,525.37 L809.51,536.06 L811.87,524.39 L814.23,508.74 L816.59,529.00 L818.96,512.80 L821.32,522.74 L823.68,550.90 L826.04,552.88 L828.41,527.35 L830.77,567.50 L833.13,551.25 L835.49,568.74 L837.86,567.39 L840.22,560.58 L842.58,553.71 L844.95,580.23 L847.31,566.29 L849.67,583.07 L852.03,589.26 L854.40,580.64 L856.76,583.53 L859.12,586.83 L861.48,603.98 L863.85,576.09 L866.21,542.05 L868.57,530.50 L870.93,531.84 L873.30,519.74 L875.66,492.48 L878.02,493.09 L880.38,517.23 L882.75,534.98 L885.11,525.60 L887.47,522.60 L889.84,531.04 L892.20,550.74 L894.56,518.59 L896.92,519.18 L899.29,511.82 L901.65,547.85 L904.01,563.74 L906.37,570.02 L908.74,563.19 L911.10,590.63 L913.46,594.73 L915.82,594.92 L918.19,575.94 L920.55,570.48 L922.91,567.91 L925.27,576.22 L927.64,578.33 L930.00,602.50" fill="none" stroke="#60a5fa" stroke-width="2.2" stroke-linecap="round" />
</svg>
