<svg xmlns="http://www.w3.org/2000/svg" viewBox="0 0 960 720" width="960" height="720">
<rect width="960" height="720" fill="#0f172a" />
<text x="480" y="28" fill="#e2e8f0" font-size="16" font-weight="700" text-anchor="middle">步长均值趋势图</text>
<text x="70" y="70" fill="#e2e8f0" font-size="13" font-weight="600">本月分天指标明细</text>
<line x1="70" y1="323.00" x2="930" y2="323.00" stroke="#94a3b8" stroke-opacity="0.18" stroke-width="1" />
<text x="62" y="327.00" fill="#cbd5f5" font-size="10" text-anchor="end">62.2</text>
<line x1="70" y1="260.75" x2="930" y2="260.75" stroke="#94a3b8" stroke-opacity="0.18" stroke-width="1" />
<text x="62" y="264.75" fill="#cbd5f5" font-size="10" text-anchor="end">66.1</text>
<line x1="70" y1="198.50" x2="930" y2="198.50" stroke="#94a3b8" stroke-opacity="0.18" stroke-width="1" />
<text x="62" y="202.50" fill="#cbd5f5" font-size="10" text-anchor="end">69.9</text>
<line x1="70" y1="136.25" x2="930" y2="136.25" stroke="#94a3b8" stroke-opacity="0.18" stroke-width="1" />
<text x="62" y="140.25" fill="#cbd5f5" font-size="10" text-anchor="end">73.7</text>
<line x1="70" y1="74.00" x2="930" y2="74.00" stroke="#94a3b8" stroke-opacity="0.18" stroke-width="1" />
<text x="62" y="78.00" fill="#cbd5f5" font-size="10" text-anchor="end">77.5</text>
<line x1="70.00" y1="323" x2="70.00" y2="327" stroke="#94a3b8" stroke-opacity="0.5" stroke-width="1" />
<text x="70.00" y="341" fill="#cbd5f5" font-size="10" text-anchor="middle">11-19</text>
<line x1="242.00" y1="323" x2="242.00" y2="327" stroke="#94a3b8" stroke-opacity="0.5" stroke-width="1" />
<text x="242.00" y="341" fill="#cbd5f5" font-size="10" text-anchor="middle">11-24</text>
<line x1="414.00" y1="323" x2="414.00" y2="327" stroke="#94a3b8" stroke-opacity="0.5" stroke-width="1" />
<text x="414.00" y="341" fill="#cbd5f5" font-size="10" text-anchor="middle">11-30</text>
<line x1="586.00" y1="323" x2="586.00" y2="327" stroke="#94a3b8" stroke-opacity="0.5" stroke-width="1" />
<text x="586.00" y="341" fill="#cbd5f5" font-size="10" text-anchor="middle">12-06</text>
<line x1="758.00" y1="323" x2="758.00" y2="327" stroke="#94a3b8" stroke-opacity="0.5" stroke-width="1" />
<text x="758.00" y="341" fill="#cbd5f5" font-size="10" text-anchor="middle">12-12</text>
<line x1="930.00" y1="323" x2="930.00" y2="327" stroke="#94a3b8" stroke-opacity="0.5" stroke-width="1" />
<text x="930.00" y="341" fill="#cbd5f5" font-size="10" text-anchor="middle">12-18</text>
<line x1="70" y1="74" x2="70" y2="323" stroke="#94a3b8" stroke-width="1" />
<line x1="70" y1="323" x2="930" y2="323" stroke="#94a3b8" stroke-width="1" />
<path d="M70.00,186.81 L99.66,216.03 L129.31,211.48 L158.97,244.15 L188.62,161.29 L218.28,114.69 L247.93,188.11 L277.59,192.55 L307.24,164.22 L336.90,94.75 L366.55,246.75 L396.21,264.68 L425.86,190.68 L455.52,147.95 L485.17,179.71 L514.83,200.36 L544.48,179.09 L574.14,109.06 L603.79,267.23 L633.45,159.17 L663.10,302.25 L692.76,247.78 L722.41,227.25 L752.07,149.83 L781.72,226.57 L811.38,284.82 L841.03,159.98 L870.69,220.97 L900.34,224.37 L930.00,216.27" fill="none" stroke="#38bdf8" stroke-width="2.2" stroke-linecap="round" />
<circle cx="70.00" cy="186.81" r="3" fill="#38bdf8" stroke="#0f172a" stroke-width="1" />
<text x="70.00" y="176.81" fill="#e2e8f0" font-size="9" text-anchor="middle">70.6</text>
<circle cx="99.66" cy="216.03" r="3" fill="#38bdf8" stroke="#0f172a" stroke-width="1" />
<text x="99.66" y="196.03" fill="#e2e8f0" font-size="9" text-anchor="middle">68.8</text>
<circle cx="129.31" cy="211.48" r="3" fill="#38bdf8" stroke="#0f172a" stroke-width="1" />
<text x="129.31" y="201.48" fill="#e2e8f0" font-size="9" text-anchor="middle">69.1</text>
<circle cx="158.97" cy="244.15" r="3" fill="#38bdf8" stroke="#0f172a" stroke-width="1" />
<text x="158.97" y="224.15" fill="#e2e8f0" font-size="9" text-anchor="middle">67.1</text>
<circle cx="188.62" cy="161.29" r="3" fill="#38bdf8" stroke="#0f172a" stroke-width="1" />
<text x="188.62" y="151.29" fill="#e2e8f0" font-size="9" text-anchor="middle">72.2</text>
<circle cx="218.28" cy="114.69" r="3" fill="#38bdf8" stroke="#0f172a" stroke-width="1" />
<text x="218.28" y="94.69" fill="#e2e8f0" font-size="9" text-anchor="middle">75</text>
<circle cx="247.93" cy="188.11" r="3" fill="#38bdf8" stroke="#0f172a" stroke-width="1" />
<text x="247.93" y="178.11" fill="#e2e8f0" font-size="9" text-anchor="middle">70.5</text>
<circle cx="277.59" cy="192.55" r="3" fill="#38bdf8" stroke="#0f172a" stroke-width="1" />
<text x="277.59" y="172.55" fill="#e2e8f0" font-size="9" text-anchor="middle">70.3</text>
<circle cx="307.24" cy="164.22" r="3" fill="#38bdf8" stroke="#0f172a" stroke-width="1" />
<text x="307.24" y="154.22" fill="#e2e8f0" font-size="9" text-anchor="middle">72</text>
<circle cx="336.90" cy="94.75" r="3" fill="#38bdf8" stroke="#0f172a" stroke-width="1" />
<text x="336.90" y="108.75" fill="#e2e8f0" font-size="9" text-anchor="middle">76.3</text>
<circle cx="366.55" cy="246.75" r="3" fill="#38bdf8" stroke="#0f172a" stroke-width="1" />
<text x="366.55" y="236.75" fill="#e2e8f0" font-size="9" text-anchor="middle">66.9</text>
<circle cx="396.21" cy="264.68" r="3" fill="#38bdf8" stroke="#0f172a" stroke-width="1" />
<text x="396.21" y="244.68" fill="#e2e8f0" font-size="9" text-anchor="middle">65.8</text>
<circle cx="425.86" cy="190.68" r="3" fill="#38bdf8" stroke="#0f172a" stroke-width="1" />
<text x="425.86" y="180.68" fill="#e2e8f0" font-size="9" text-anchor="middle">70.4</text>
<circle cx="455.52" cy="147.95" r="3" fill="#38bdf8" stroke="#0f172a" stroke-width="1" />
<text x="455.52" y="127.95" fill="#e2e8f0" font-size="9" text-anchor="middle">73</text>
<circle cx="485.17" cy="179.71" r="3" fill="#38bdf8" stroke="#0f172a" stroke-width="1" />
<text x="485.17" y="169.71" fill="#e2e8f0" font-size="9" text-anchor="middle">71</text>
<circle cx="514.83" cy="200.36" r="3" fill="#38bdf8" stroke="#0f172a" stroke-width="1" />
<text x="514.83" y="180.36" fill="#e2e8f0" font-size="9" text-anchor="middle">69.8</text>
<circle cx="544.48" cy="179.09" r="3" fill="#38bdf8" stroke="#0f172a" stroke-width="1" />
<text x="544.48" y="169.09" fill="#e2e8f0" font-size="9" text-anchor="middle">71.1</text>
<circle cx="574.14" cy="109.06" r="3" fill="#38bdf8" stroke="#0f172a" stroke-width="1" />
<text x="574.14" y="89.06" fill="#e2e8f0" font-size="9" text-anchor="middle">75.4</text>
<circle cx="603.79" cy="267.23" r="3" fill="#38bdf8" stroke="#0f172a" stroke-width="1" />
<text x="603.79" y="257.23" fill="#e2e8f0" font-size="9" text-anchor="middle">65.7</text>
<circle cx="633.45" cy="159.17" r="3" fill="#38bdf8" stroke="#0f172a" stroke-width="1" />
<text x="633.45" y="139.17" fill="#e2e8f0" font-size="9" text-anchor="middle">72.3</text>
<circle cx="663.10" cy="302.25" r="3" fill="#38bdf8" stroke="#0f172a" stroke-width="1" />
<text x="663.10" y="292.25" fill="#e2e8f0" font-size="9" text-anchor="middle">63.5</text>
<circle cx="692.76" cy="247.78" r="3" fill="#38bdf8" stroke="#0f172a" stroke-width="1" />
<text x="692.76" y="227.78" fill="#e2e8f0" font-size="9" text-anchor="middle">66.9</text>
<circle cx="722.41" cy="227.25" r="3" fill="#38bdf8" stroke="#0f172a" stroke-width="1" />
<text x="722.41" y="217.25" fill="#e2e8f0" font-size="9" text-anchor="middle">68.1</text>
<circle cx="752.07" cy="149.83" r="3" fill="#38bdf8" stroke="#0f172a" stroke-width="1" />
<text x="752.07" y="129.83" fill="#e2e8f0" font-size="9" text-anchor="middle">72.9</text>
<circle cx="781.72" cy="226.57" r="3" fill="#38bdf8" stroke="#0f172a" stroke-width="1" />
<text x="781.72" y="216.57" fill="#e2e8f0" font-size="9" text-anchor="middle">68.2</text>
<circle cx="811.38" cy="284.82" r="3" fill="#38bdf8" stroke="#0f172a" stroke-width="1" />
<text x="811.38" y="264.82" fill="#e2e8f0" font-size="9" text-anchor="middle">64.6</text>
<circle cx="841.03" cy="159.98" r="3" fill="#38bdf8" stroke="#0f172a" stroke-width="1" />
<text x="841.03" y="149.98" fill="#e2e8f0" font-size="9" text-anchor="middle">72.3</text>
<circle cx="870.69" cy="220.97" r="3" fill="#38bdf8" stroke="#0f172a" stroke-width="1" />
<text x="870.69" y="200.97" fill="#e2e8f0" font-size="9" text-anchor="middle">68.5</text>
<circle cx="900.34" cy="224.37" r="3" fill="#38bdf8" stroke="#0f172a" stroke-width="1" />
<text x="900.34" y="214.37" fill="#e2e8f0" font-size="9" text-anchor="middle">68.3</text>
<circle cx="930.00" cy="216.27" r="3" fill="#38bdf8" stroke="#0f172a" stroke-width="1" />
<text x="930.00" y="196.27" fill="#e2e8f0" font-size="9" text-anchor="middle">68.8</text>
<text x="70" y="403" fill="#e2e8f0" font-size="13" font-weight="600">本年核心指标趋势（滑动7日窗口平均）</text>
<line x1="70" y1="656.00" x2="930" y2="656.00" stroke="#94a3b8" stroke-opacity="0.18" stroke-width="1" />
<text x="62" y="660.00" fill="#cbd5f5" font-size="10" text-anchor="end">65.6</text>
<line x1="70" y1="593.75" x2="930" y2="593.75" stroke="#94a3b8" stroke-opacity="0.18" stroke-width="1" />
<text x="62" y="597.75" fill="#cbd5f5" font-size="10" text-anchor="end">68.4</text>
<line x1="70" y1="531.50" x2="930" y2="531.50" stroke="#94a3b8" stroke-opacity="0.18" stroke-width="1" />
<text x="62" y="535.50" fill="#cbd5f5" font-size="10" text-anchor="end">71.1</text>
<line x1="70" y1="469.25" x2="930" y2="469.25" stroke="#94a3b8" stroke-opacity="0.18" stroke-width="1" />
<text x="62" y="473.25" fill="#cbd5f5" font-size="10" text-anchor="end">73.8</text>
<line x1="70" y1="407.00" x2="930" y2="407.00" stroke="#94a3b8" stroke-opacity="0.18" stroke-width="1" />
<text x="62" y="411.00" fill="#cbd5f5" font-size="10" text-anchor="end">76.5</text>
<line x1="70.00" y1="656" x2="70.00" y2="660" stroke="#94a3b8" stroke-opacity="0.5" stroke-width="1" />
<text x="70.00" y="674" fill="#cbd5f5" font-size="10" text-anchor="middle">2024-12</text>
<line x1="242.00" y1="656" x2="242.00" y2="660" stroke="#94a3b8" stroke-opacity="0.5" stroke-width="1" />
<text x="242.00" y="674" fill="#cbd5f5" font-size="10" text-anchor="middle">2025-03</text>
<line x1="414.00" y1="656" x2="414.00" y2="660" stroke="#94a3b8" stroke-opacity="0.5" stroke-width="1" />
<text x="414.00" y="674" fill="#cbd5f5" font-size="10" text-anchor="middle">2025-05</text>
<line x1="586.00" y1="656" x2="586.00" y2="660" stroke="#94a3b8" stroke-opacity="0.5" stroke-width="1" />
<text x="586.00" y="674" fill="#cbd5f5" font-size="10" text-anchor="middle">2025-07</text>
<line x1="758.00" y1="656" x2="758.00" y2="660" stroke="#94a3b8" stroke-opacity="0.5" stroke-width="1" />
<text x="758.00" y="674" fill="#cbd5f5" font-size="10" text-anchor="middle">2025-10</text>
<line x1="930.00" y1="656" x2="930.00" y2="660" stroke="#94a3b8" stroke-opacity="0.5" stroke-width="1" />
<text x="930.00" y="674" fill="#cbd5f5" font-size="10" text-anchor="middle">2025-12</text>
<line x1="70" y1="407" x2="70" y2="656" stroke="#94a3b8" stroke-width="1" />
<line x1="70" y1="656" x2="930" y2="656" stroke="#94a3b8" stroke-width="1" />
<path d="M70.00,656.00 L70.00,427.75 L72.36,457.58 L74.73,494.79 L77.09,488.73 L79.45,484.63 L81.81,489.35 L84.18,489.89 L86.54,477.10 L88.90,482.80 L91.26,484.99 L93.63,517.01 L95.99,524.41 L98.35,528.39 L100.71,536.29 L103.08,548.82 L105.44,540.00 L107.80,515.99 L110.16,482.27 L112.53,480.22 L114.89,465.81 L117.25,460.44 L119.62,471.84 L121.98,480.46 L124.34,499.64 L126.70,513.29 L129.07,511.03 L131.43,523.56 L133.79,525.59 L136.15,521.09 L138.52,509.53 L140.88,507.71 L143.24,487.91 L145.60,483.68 L147.97,483.30 L150.33,476.86 L152.69,487.10 L155.05,484.29 L157.42,475.94 L159.78,492.59 L164.51,511.42 L166.87,538.04 L169.23,597.95 L171.59,618.93 L173.96,621.58 L178.68,618.73 L181.04,613.09 L183.41,607.86 L185.77,611.84 L188.13,555.77 L190.49,544.08 L192.86,547.84 L195.22,552.26 L197.58,552.95 L199.95,535.70 L202.31,508.45 L204.67,502.21 L207.03,491.44 L209.40,498.47 L211.76,500.97 L214.12,498.07 L216.48,494.71 L218.85,466.88 L221.21,469.15 L223.57,472.85 L225.93,474.97 L228.30,477.83 L230.66,482.29 L233.02,494.58 L235.38,516.03 L237.75,518.44 L240.11,512.27 L242.47,510.62 L244.84,503.47 L247.20,486.60 L249.56,490.15 L251.92,491.95 L254.29,491.49 L256.65,505.55 L259.01,521.65 L261.37,516.31 L263.74,532.86 L266.10,549.45 L268.46,558.28 L270.82,569.56 L273.19,546.33 L275.55,525.18 L277.91,537.81 L280.27,541.09 L282.64,524.14 L285.00,517.08 L287.36,504.33 L289.73,521.93 L292.09,534.01 L294.45,535.41 L296.81,523.87 L299.18,504.29 L301.54,497.86 L303.90,502.13 L306.26,489.08 L308.63,472.24 L310.99,472.77 L313.35,489.81 L315.71,504.24 L318.08,512.22 L320.44,515.00 L322.80,532.40 L325.16,534.40 L327.53,533.25 L329.89,523.30 L332.25,532.03 L334.62,528.38 L336.98,531.07 L339.34,508.57 L341.70,521.49 L344.07,533.91 L346.43,529.77 L348.79,524.93 L351.15,521.37 L353.52,515.53 L355.88,532.49 L358.24,526.08 L360.60,506.06 L362.97,509.12 L365.33,515.16 L367.69,521.39 L370.05,520.27 L372.42,524.38 L374.78,514.36 L377.14,527.36 L379.51,521.34 L381.87,523.13 L384.23,549.08 L386.59,564.31 L388.96,583.53 L391.32,618.81 L393.68,621.13 L396.04,635.25 L398.41,631.26 L400.77,600.86 L403.13,595.58 L405.49,578.17 L407.86,553.06 L410.22,548.49 L412.58,547.16 L414.95,543.32 L417.31,552.97 L419.67,552.52 L422.03,542.39 L424.40,558.00 L426.76,574.74 L429.12,573.72 L431.48,576.56 L433.85,577.13 L436.21,575.07 L438.57,579.03 L440.93,576.40 L443.30,552.23 L445.66,545.07 L448.02,540.81 L450.38,542.61 L452.75,529.32 L455.11,510.18 L457.47,500.91 L459.84,583.48 L462.20,577.33 L464.56,580.87 L466.92,566.34 L469.29,575.65 L471.65,599.98 L474.01,597.40 L476.37,520.20 L478.74,515.57 L481.10,513.87 L483.46,513.42 L485.82,510.72 L488.19,515.29 L490.55,524.64 L492.91,531.21 L495.27,557.18 L497.64,563.71 L500.00,585.66 L502.36,590.51 L504.73,587.49 L507.09,589.02 L509.45,581.34 L511.81,565.33 L514.18,557.60 L516.54,548.19 L518.90,547.67 L521.26,534.89 L523.63,535.47 L525.99,534.22 L528.35,543.84 L530.71,535.81 L533.08,521.31 L535.44,532.56 L537.80,541.65 L540.16,546.74 L542.53,546.28 L544.89,551.00 L547.25,564.28 L549.62,576.10 L551.98,560.79 L554.34,549.20 L556.70,510.95 L559.07,504.96 L561.43,507.03 L563.79,507.28 L566.15,496.07 L568.52,494.58 L570.88,493.96 L573.24,501.50 L575.60,518.34 L577.97,520.08 L580.33,502.28 L582.69,518.62 L585.05,525.84 L587.42,528.83 L589.78,554.50 L592.14,532.74 L594.51,516.82 L596.87,525.27 L599.23,527.64 L601.59,522.10 L603.96,517.29 L606.32,506.52 L608.68,510.97 L611.04,508.79 L613.41,517.43 L615.77,510.37 L618.13,510.97 L620.49,531.18 L622.86,541.68 L625.22,552.16 L627.58,561.58 L629.95,557.85 L632.31,561.28 L634.67,581.28 L637.03,584.21 L639.40,580.40 L641.76,570.99 L644.12,561.23 L646.48,552.71 L648.85,557.41 L651.21,533.45 L653.57,519.75 L655.93,514.13 L658.30,552.40 L660.66,571.83 L663.02,575.64 L665.38,575.83 L667.75,586.17 L670.11,586.10 L672.47,595.71 L674.84,559.26 L677.20,557.53 L679.56,557.70 L681.92,554.79 L684.29,551.88 L686.65,554.79 L689.01,550.01 L691.37,551.84 L693.74,541.33 L696.10,538.10 L698.46,534.41 L700.82,534.40 L703.19,525.92 L705.55,529.41 L707.91,536.75 L710.27,538.77 L712.64,558.35 L715.00,548.53 L717.36,556.92 L719.73,569.96 L722.09,564.91 L724.45,556.16 L726.81,540.17 L729.18,530.44 L731.54,543.17 L733.90,547.68 L736.26,548.49 L738.63,557.34 L740.99,573.64 L743.35,592.57 L745.71,596.66 L748.08,606.38 L750.44,606.60 L752.80,615.60 L755.16,581.26 L757.53,597.25 L759.89,602.24 L762.25,611.76 L764.62,601.34 L766.98,596.03 L769.34,589.64 L771.70,633.92 L774.07,612.40 L776.43,618.98 L778.79,611.71 L781.15,600.11 L783.52,601.50 L785.88,591.09 L788.24,567.14 L790.60,558.65 L792.97,545.50 L795.33,534.32 L797.69,538.95 L800.05,527.37 L802.42,530.83 L804.78,543.53 L807.14,544.11 L809.51,547.20 L811.87,554.16 L814.23,540.65 L816.59,549.86 L818.96,539.82 L821.32,526.34 L823.68,543.78 L826.04,529.84 L828.41,538.39 L830.77,562.63 L833.13,564.34 L835.49,542.36 L837.86,576.92 L840.22,562.94 L842.58,577.99 L844.95,576.83 L847.31,570.97 L849.67,565.05 L852.03,587.88 L854.40,575.88 L856.76,590.33 L859.12,595.66 L861.48,588.23 L863.85,590.73 L866.21,593.57 L868.57,608.33 L870.93,584.32 L873.30,555.01 L875.66,545.07 L878.02,546.22 L880.38,535.81 L882.75,512.34 L885.11,512.87 L887.47,533.65 L889.84,548.93 L892.20,540.85 L894.56,538.27 L896.92,545.54 L899.29,562.49 L901.65,534.82 L904.01,535.33 L906.37,528.99 L908.74,560.01 L911.10,573.69 L913.46,579.10 L915.82,573.21 L918.19,596.83 L920.55,600.37 L922.91,600.53 L925.27,584.19 L927.64,579.49 L930.00,577.28 L930.00,656.00 Z" fill="#38bdf8" fill-opacity="0.16" stroke="none" />
<path d="M70.00,427.75 L72.36,457.58 L74.73,494.79 L77.09,488.73 L79.45,484.63 L81.81,489.35 L84.18,489.89 L86.54,477.10 L88.90,482.80 L91.26,484.99 L93.63,517.01 L95.99,524.41 L98.35,528.39 L100.71,536.29 L103.08,548.82 L105.44,540.00 L107.80,515.99 L110.16,482.27 L112.53,480.22 L114.89,465.81 L117.25,460.44 L119.62,471.84 L121.98,480.46 L124.34,499.64 L126.70,513.29 L129.07,511.03 L131.43,523.56 L133.79,525.59 L136.15,521.09 L138.52,509.53 L140.88,507.71 L143.24,487.91 L145.60,483.68 L147.97,483.30 L150.33,476.86 L152.69,487.10 L155.05,484.29 L157.42,475.94 L159.78,492.59 L164.51,511.42 L166.87,538.04 L169.23,597.95 L171.59,618.93 L173.96,621.58 L178.68,618.73 L181.04,613.09 L183.41,607.86 L185.77,611.84 L188.13,555.77 L190.49,544.08 L192.86,547.84 L195.22,552.26 L197.58,552.95 L199.95,535.70 L202.31,508.45 L204.67,502.21 L207.03,491.44 L209.40,498.47 L211.76,500.97 L214.12,498.07 L216.48,494.71 L218.85,466.88 L221.21,469.15 L223.57,472.85 L225.93,474.97 L228.30,477.83 L230.66,482.29 L233.02,494.58 L235.38,516.03 L237.75,518.44 L240.11,512.27 L242.47,510.62 L244.84,503.47 L247.20,486.60 L249.56,490.15 L251.92,491.95 L254.29,491.49 L256.65,505.55 L259.01,521.65 L261.37,516.31 L263.74,532.86 L266.10,549.45 L268.46,558.28 L270.82,569.56 L273.19,546.33 L275.55,525.18 L277.91,537.81 L280.27,541.09 L282.64,524.14 L285.00,517.08 L287.36,504.33 L289.73,521.93 L292.09,534.01 L294.45,535.41 L296.81,523.87 L299.18,504.29 L301.54,497.86 L303.90,502.13 L306.26,489.08 L308.63,472.24 L310.99,472.77 L313.35,489.81 L315.71,504.24 L318.08,512.22 L320.44,515.00 L322.80,532.40 L325.16,534.40 L327.53,533.25 L329.89,523.30 L332.25,532.03 L334.62,528.38 L336.98,531.07 L339.34,508.57 L341.70,521.49 L344.07,533.91 L346.43,529.77 L348.79,524.93 L351.15,521.37 L353.52,515.53 L355.88,532.49 L358.24,526.08 L360.60,506.06 L362.97,509.12 L365.33,515.16 L367.69,521.39 L370.05,520.27 L372.42,524.38 L374.78,514.36 L377.14,527.36 L379.51,521.34 L381.87,523.13 L384.23,549.08 L386.59,564.31 L388.96,583.53 L391.32,618.81 L393.68,621.13 L396.04,635.25 L398.41,631.26 L400.77,600.86 L403.13,595.58 L405.49,578.17 L407.86,553.06 L410.22,548.49 L412.58,547.16 L414.95,543.32 L417.31,552.97 L419.67,552.52 L422.03,542.39 L424.40,558.00 L426.76,574.74 L429.12,573.72 L431.48,576.56 L433.85,577.13 L436.21,575.07 L438.57,579.03 L440.93,576.40 L443.30,552.23 L445.66,545.07 L448.02,540.81 L450.38,542.61 L452.75,529.32 L455.11,510.18 L457.47,500.91 L459.84,583.48 L462.20,577.33 L464.56,580.87 L466.92,566.34 L469.29,575.65 L471.65,599.98 L474.01,597.40 L476.37,520.20 L478.74,515.57 L481.10,513.87 L483.46,513.42 L485.82,510.72 L488.19,515.29 L490.55,524.64 L492.91,531.21 L495.27,557.18 L497.64,563.71 L500.00,585.66 L502.36,590.51 L504.73,587.49 L507.09,589.02 L509.45,581.34 L511.81,565.33 L514.18,557.60 L516.54,548.19 L518.90,547.67 L521.26,534.89 L523.63,535.47 L525.99,534.22 L528.35,543.84 L530.71,535.81 L533.08,521.31 L535.44,532.56 L537.80,541.65 L540.16,546.74 L542.53,546.28 L544.89,551.00 L547.25,564.28 L549.62,576.10 L551.98,560.79 L554.34,549.20 L556.70,510.95 L559.07,504.96 L561.43,507.03 L563.79,507.28 L566.15,496.07 L568.52,494.58 L570.88,493.96 L573.24,501.50 L575.60,518.34 L577.97,520.08 L580.33,502.28 L582.69,518.62 L585.05,525.84 L587.42,528.83 L589.78,554.50 L592.14,532.74 L594.51,516.82 L596.87,525.27 L599.23,527.64 L601.59,522.10 L603.96,517.29 L606.32,506.52 L608.68,510.97 L611.04,508.79 L613.41,517.43 L615.77,510.37 L618.13,510.97 L620.49,531.18 L622.86,541.68 L625.22,552.16 L627.58,561.58 L629.95,557.85 L632.31,561.28 L634.67,581.28 L637.03,584.21 L639.40,580.40 L641.76,570.99 L644.12,561.23 L646.48,552.71 L648.85,557.41 L651.21,533.45 L653.57,519.75 L655.93,514.13 L658.30,552.40 L660.66,571.83 L663.02,575.64 L665.38,575.83 L667.75,586.17 L670.11,586.10 L672.47,595.71 L674.84,559.26 L677.20,557.53 L679.56,557.70 L681.92,554.79 L684.29,551.88 L686.65,554.79 L689.01,550.01 L691.37,551.84 L693.74,541.33 L696.10,538.10 L698.46,534.41 L700.82,534.40 L703.19,525.92 L705.55,529.41 L707.91,536.75 L710.27,538.77 L712.64,558.35 L715.00,548.53 L717.36,556.92 L719.73,569.96 L722.09,564.91 L724.45,556.16 L726.81,540.17 L729.18,530.44 L731.54,543.17 L733.90,547.68 L736.26,548.49 L738.63,557.34 L740.99,573.64 L743.35,592.57 L745.71,596.66 L748.08,606.38 L750.44,606.60 L752.80,615.60 L755.16,581.26 L757.53,597.25 L759.89,602.24 L762.25,611.76 L764.62,601.34 L766.98,596.03 L769.34,589.64 L771.70,633.92 L774.07,612.40 L776.43,618.98 L778.79,611.71 L781.15,600.11 L783.52,601.50 L785.88,591.09 L788.24,567.14 L790.60,558.65 L792.97,545.50 L795.33,534.32 L797.69,538.95 L800.05,527.37 L802.42,530.83 L804.78,543.53 L807.14,544.11 L809.51,547.20 L811.87,554.16 L814.23,540.65 L816.59,549.86 L818.96,539.82 L821.32,526.34 L823.68,543.78 L826.04,529.84 L828.41,538.39 L830.77,562.63 L833.13,564.34 L835.49,542.36 L837.86,576.92 L840.22,562.94 L842.58,577.99 L844.95,576.83 L847.31,570.97 L849.67,565.05 L852.03,587.88 L854.40,575.88 L856.76,590.33 L859.12,595.66 L861.48,588.23 L863.85,590.73 L866.21,593.57 L868.57,608.33 L870.93,584.32 L873.30,555.01 L875.66,545.07 L878.02,546.22 L880.38,535.81 L882.75,512.34 L885.11,512.87 L887.47,533.65 L889.84,548.93 L892.20,540.85 L894.56,538.27 L896.92,545.54 L899.29,562.49 L901.65,534.82 L904.01,535.33 L906.37,528.99 L908.74,560.01 L911.10,573.69 L913.46,579.10 L915.82,573.21 L918.19,596.83 L920.55,600.37 L922.91,600.53 L925.27,584.19 L927.64,579.49 L930.00,577.28" fill="none" stroke="#38bdf8" stroke-width="2.2" stroke-linecap="round" />
</svg>
