<svg xmlns="http://www.w3.org/2000/svg" viewBox="0 0 960 640" width="960" height="640">
  <rect width="960" height="640" fill="#0f172a" />
  <line x1="40" y1="40.00" x2="920.00" y2="40.00" stroke="#94a3b8" stroke-opacity="0.18" stroke-width="1" /><line x1="40" y1="128.00" x2="920.00" y2="128.00" stroke="#94a3b8" stroke-opacity="0.18" stroke-width="1" /><line x1="40" y1="216.00" x2="920.00" y2="216.00" stroke="#94a3b8" stroke-opacity="0.18" stroke-width="1" /><line x1="40" y1="304.00" x2="920.00" y2="304.00" stroke="#94a3b8" stroke-opacity="0.18" stroke-width="1" />
  <line x1="40" y1="336.00" x2="920.00" y2="336.00" stroke="#94a3b8" stroke-opacity="0.18" stroke-width="1" /><line x1="40" y1="424.00" x2="920.00" y2="424.00" stroke="#94a3b8" stroke-opacity="0.18" stroke-width="1" /><line x1="40" y1="512.00" x2="920.00" y2="512.00" stroke="#94a3b8" stroke-opacity="0.18" stroke-width="1" /><line x1="40" y1="600.00" x2="920.00" y2="600.00" stroke="#94a3b8" stroke-opacity="0.18" stroke-width="1" />
  <line x1="40" y1="320.00" x2="920.00" y2="320.00" stroke="#1f2937" stroke-width="1" />
  <polyline points="40.00,53.53 260.00,304.00 480.00,40.00 700.00,93.16 920.00,233.45" fill="none" stroke="#60a5fa" stroke-width="2" stroke-linecap="round" stroke-linejoin="round" />
  <polyline points="40.00,600.00 56.92,582.03 73.85,508.32 90.77,488.74 107.69,374.47 124.62,393.42 141.54,377.38 158.46,360.64 175.38,346.88 192.31,351.14 209.23,336.00 226.15,376.93 243.08,372.69 260.00,444.13 276.92,464.76 293.85,439.40 310.77,495.81 327.69,560.86 344.62,554.60 361.54,545.68 378.46,540.18 395.38,533.07 412.31,543.57 429.23,489.80 446.15,447.10 463.08,412.43 480.00,437.24 496.92,412.89 513.85,444.77 530.77,505.22 547.69,543.84 564.62,580.77 581.54,580.77 598.46,550.18 615.38,523.99 632.31,507.73 649.23,475.00 666.15,490.34 683.08,459.01 700.00,507.73 716.92,537.71 733.85,532.85 750.77,538.61 767.69,553.87 784.62,546.11 801.54,545.36 818.46,546.06 835.38,516.07 852.31,523.93 869.23,563.65 886.15,525.55 903.08,493.29 920.00,524.89" fill="none" stroke="#60a5fa" stroke-width="2" stroke-linecap="round" stroke-linejoin="round" />
  
  
  </svg>