<svg xmlns="http://www.w3.org/2000/svg" viewBox="0 0 960 640" width="960" height="640">
  <rect width="960" height="640" fill="#0f172a" />
  <line x1="40" y1="40.00" x2="920.00" y2="40.00" stroke="#94a3b8" stroke-opacity="0.18" stroke-width="1" /><line x1="40" y1="128.00" x2="920.00" y2="128.00" stroke="#94a3b8" stroke-opacity="0.18" stroke-width="1" /><line x1="40" y1="216.00" x2="920.00" y2="216.00" stroke="#94a3b8" stroke-opacity="0.18" stroke-width="1" /><line x1="40" y1="304.00" x2="920.00" y2="304.00" stroke="#94a3b8" stroke-opacity="0.18" stroke-width="1" />
  <line x1="40" y1="336.00" x2="920.00" y2="336.00" stroke="#94a3b8" stroke-opacity="0.18" stroke-width="1" /><line x1="40" y1="424.00" x2="920.00" y2="424.00" stroke="#94a3b8" stroke-opacity="0.18" stroke-width="1" /><line x1="40" y1="512.00" x2="920.00" y2="512.00" stroke="#94a3b8" stroke-opacity="0.18" stroke-width="1" /><line x1="40" y1="600.00" x2="920.00" y2="600.00" stroke="#94a3b8" stroke-opacity="0.18" stroke-width="1" />
  <line x1="40" y1="320.00" x2="920.00" y2="320.00" stroke="#1f2937" stroke-width="1" />
  <polyline points="40.00,199.10 70.34,221.06 100.69,239.89 131.03,226.56 161.38,174.83 191.72,92.62 222.07,224.81 252.41,188.81 282.76,129.81 313.10,40.00 343.45,250.51 373.79,272.35 404.14,192.19 434.48,150.70 464.83,187.36 495.17,176.69 525.52,222.80 555.86,132.74 586.21,276.69 616.55,133.01 646.90,304.00 677.24,257.02 707.59,182.22 737.93,162.29 768.28,110.00 798.62,260.59 828.97,110.08 859.31,184.43 889.66,189.99 920.00,163.74" fill="none" stroke="#60a5fa" stroke-width="2" stroke-linecap="round" stroke-linejoin="round" />
  <polyline points="40.00,457.86 42.43,443.12 44.86,432.88 47.29,402.29 49.72,376.28 52.15,371.78 54.59,362.85 57.02,340.36 59.45,345.77 61.88,336.91 64.31,368.10 66.74,381.72 69.17,370.76 71.60,380.32 74.03,400.56 76.46,391.19 78.90,383.85 81.33,358.89 83.76,360.18 86.19,347.60 88.62,336.00 91.05,344.50 93.48,352.23 95.91,374.94 98.34,392.00 100.77,383.07 103.20,401.86 105.64,405.44 108.07,403.44 110.50,388.45 112.93,390.33 115.36,371.45 117.79,370.51 120.22,369.68 122.65,374.73 125.08,385.06 127.51,397.42 129.94,378.03 132.38,396.50 134.81,423.61 137.24,460.59 139.67,495.45 142.10,525.09 144.53,521.94 146.96,516.63 149.39,491.02 151.82,479.82 154.25,480.09 156.69,452.00 159.12,430.31 161.55,429.61 163.98,435.69 166.41,453.14 168.84,436.13 171.27,406.00 173.70,390.67 176.13,389.68 178.56,405.10 180.99,417.27 183.43,409.67 185.86,411.65 188.29,377.59 190.72,376.05 193.15,378.96 195.58,371.33 198.01,373.84 200.44,367.87 202.87,379.97 205.30,404.90 207.73,416.22 210.17,416.79 212.60,437.53 215.03,419.48 217.46,416.43 219.89,407.06 222.32,401.86 224.75,387.29 227.18,394.66 229.61,401.04 232.04,388.17 234.48,400.90 236.91,437.84 239.34,462.25 241.77,477.02 244.20,454.47 246.63,436.60 249.06,458.84 251.49,466.55 253.92,427.61 256.35,414.43 258.78,405.18 261.22,431.72 263.65,431.28 266.08,429.48 268.51,413.83 270.94,400.20 273.37,402.23 275.80,410.61 278.23,390.27 280.66,374.34 283.09,367.66 285.52,391.66 287.96,423.56 290.39,427.62 292.82,430.10 295.25,438.89 297.68,443.15 300.11,455.59 302.54,446.22 304.97,457.47 307.40,452.77 309.83,465.32 312.27,447.80 314.70,468.98 317.13,471.74 319.56,464.66 321.99,451.74 324.42,441.91 326.85,427.42 329.28,447.40 331.71,434.75 334.14,417.49 336.57,421.01 339.01,433.84 341.44,439.60 343.87,432.52 346.30,446.74 348.73,436.06 351.16,449.34 353.59,440.80 356.02,435.35 358.45,473.30 360.88,499.59 363.31,507.00 365.75,551.75 368.18,559.45 370.61,572.97 373.04,559.52 375.47,514.51 377.90,500.69 380.33,479.00 382.76,448.62 385.19,432.67 387.62,424.61 390.06,419.90 392.49,432.31 394.92,428.26 397.35,420.44 399.78,432.41 402.21,453.14 404.64,458.76 407.07,466.88 409.50,475.53 411.93,487.91 414.36,490.66 416.80,484.81 419.23,458.91 421.66,442.51 424.09,434.80 426.52,430.86 428.95,409.59 431.38,384.21 433.81,382.64 436.24,451.45 438.67,453.18 441.10,465.19 443.54,454.03 445.97,464.43 448.40,492.74 450.83,492.14 453.26,438.10 455.69,427.30 458.12,414.68 460.55,408.80 462.98,408.37 465.41,411.14 467.85,418.87 470.28,422.10 472.71,455.29 475.14,463.69 477.57,481.30 480.00,479.13 482.43,501.03 484.86,505.64 487.29,501.05 489.72,491.40 492.15,487.39 494.59,486.71 497.02,502.46 499.45,467.33 501.88,474.44 504.31,476.47 506.74,479.50 509.17,474.00 511.60,458.94 514.03,466.31 516.46,493.86 518.90,494.72 521.33,490.58 523.76,487.91 526.19,501.17 528.62,510.77 531.05,487.02 533.48,462.51 535.91,418.35 538.34,413.01 540.77,427.33 543.20,431.41 545.64,424.95 548.07,420.56 550.50,423.89 552.93,447.24 555.36,462.78 557.79,466.17 560.22,436.72 562.65,443.81 565.08,452.12 567.51,444.00 569.94,464.13 572.38,435.92 574.81,415.63 577.24,431.74 579.67,442.42 582.10,430.81 584.53,427.68 586.96,397.45 589.39,401.01 591.82,397.36 594.25,400.39 596.69,390.19 599.12,406.01 601.55,439.92 603.98,452.98 606.41,468.15 608.84,468.70 611.27,465.43 613.70,466.82 616.13,479.27 618.56,481.98 620.99,487.60 623.43,470.64 625.86,465.70 628.29,446.16 630.72,449.93 633.15,414.33 635.58,415.18 638.01,401.12 640.44,433.92 642.87,453.16 645.30,466.08 647.73,475.82 650.17,492.21 652.60,469.89 655.03,482.08 657.46,454.76 659.89,449.60 662.32,449.20 664.75,434.29 667.18,429.38 669.61,428.63 672.04,426.57 674.48,433.41 676.91,419.89 679.34,419.91 681.77,413.03 684.20,416.63 686.63,408.15 689.06,411.59 691.49,423.47 693.92,435.84 696.35,460.51 698.78,451.73 701.22,469.32 703.65,481.01 706.08,481.02 708.51,467.54 710.94,449.17 713.37,419.08 715.80,439.50 718.23,443.08 720.66,446.44 723.09,451.55 725.52,467.75 727.96,482.16 730.39,500.73 732.82,572.26 735.25,578.02 737.68,585.67 740.11,551.99 742.54,568.28 744.97,583.14 747.40,600.00 749.83,522.32 752.27,506.00 754.70,511.39 757.13,549.50 759.56,532.66 761.99,539.11 764.42,533.05 766.85,520.62 769.28,529.45 771.71,514.37 774.14,500.05 776.57,479.78 779.01,466.47 781.44,446.97 783.87,449.14 786.30,431.56 788.73,430.54 791.16,440.20 793.59,449.32 796.02,455.19 798.45,471.98 800.88,471.85 803.31,481.17 805.75,476.42 808.18,462.27 810.61,486.43 813.04,464.61 815.47,470.84 817.90,497.19 820.33,505.83 822.76,459.52 825.19,495.64 827.62,477.40 830.06,504.19 832.49,504.43 834.92,495.24 837.35,483.85 839.78,534.88 842.21,528.06 844.64,544.02 847.07,547.42 849.50,544.88 851.93,553.19 854.36,567.42 856.80,574.62 859.23,548.15 861.66,515.64 864.09,514.93 866.52,512.81 868.95,493.92 871.38,452.56 873.81,457.52 876.24,477.70 878.67,498.30 881.10,482.97 883.54,482.67 885.97,492.37 888.40,530.19 890.83,505.83 893.26,506.72 895.69,494.48 898.12,526.19 900.55,540.61 902.98,541.75 905.41,529.23 907.85,524.53 910.28,521.20 912.71,516.45 915.14,491.71 917.57,477.84 920.00,474.02" fill="none" stroke="#60a5fa" stroke-width="2" stroke-linecap="round" stroke-linejoin="round" />
  
  
  </svg>