<svg xmlns="http://www.w3.org/2000/svg" viewBox="0 0 960 720" width="960" height="720">
<rect width="960" height="720" fill="#0f172a" />
<text x="480" y="28" fill="#e2e8f0" font-size="16" font-weight="700" text-anchor="middle">步态稳定度均值趋势图</text>
<text x="70" y="70" fill="#e2e8f0" font-size="13" font-weight="600">本月分天指标明细</text>
<line x1="70" y1="323.00" x2="930" y2="323.00" stroke="#94a3b8" stroke-opacity="0.18" stroke-width="1" />
<text x="62" y="327.00" fill="#cbd5f5" font-size="10" text-anchor="end">0.75</text>
<line x1="70" y1="260.75" x2="930" y2="260.75" stroke="#94a3b8" stroke-opacity="0.18" stroke-width="1" />
<text x="62" y="264.75" fill="#cbd5f5" font-size="10" text-anchor="end">0.86</text>
<line x1="70" y1="198.50" x2="930" y2="198.50" stroke="#94a3b8" stroke-opacity="0.18" stroke-width="1" />
<text x="62" y="202.50" fill="#cbd5f5" font-size="10" text-anchor="end">0.97</text>
<line x1="70" y1="136.25" x2="930" y2="136.25" stroke="#94a3b8" stroke-opacity="0.18" stroke-width="1" />
<text x="62" y="140.25" fill="#cbd5f5" font-size="10" text-anchor="end">1.08</text>
<line x1="70" y1="74.00" x2="930" y2="74.00" stroke="#94a3b8" stroke-opacity="0.18" stroke-width="1" />
<text x="62" y="78.00" fill="#cbd5f5" font-size="10" text-anchor="end">1.19</text>
<line x1="70.00" y1="323" x2="70.00" y2="327" stroke="#94a3b8" stroke-opacity="0.5" stroke-width="1" />
<text x="70.00" y="341" fill="#cbd5f5" font-size="10" text-anchor="middle">11-11</text>
<line x1="242.00" y1="323" x2="242.00" y2="327" stroke="#94a3b8" stroke-opacity="0.5" stroke-width="1" />
<text x="242.00" y="341" fill="#cbd5f5" font-size="10" text-anchor="middle">11-16</text>
<line x1="414.00" y1="323" x2="414.00" y2="327" stroke="#94a3b8" stroke-opacity="0.5" stroke-width="1" />
<text x="414.00" y="341" fill="#cbd5f5" font-size="10" text-anchor="middle">11-22</text>
<line x1="586.00" y1="323" x2="586.00" y2="327" stroke="#94a3b8" stroke-opacity="0.5" stroke-width="1" />
<text x="586.00" y="341" fill="#cbd5f5" font-size="10" text-anchor="middle">11-27</text>
<line x1="758.00" y1="323" x2="758.00" y2="327" stroke="#94a3b8" stroke-opacity="0.5" stroke-width="1" />
<text x="758.00" y="341" fill="#cbd5f5" font-size="10" text-anchor="middle">12-03</text>
<line x1="930.00" y1="323" x2="930.00" y2="327" stroke="#94a3b8" stroke-opacity="0.5" stroke-width="1" />
<text x="930.00" y="341" fill="#cbd5f5" font-size="10" text-anchor="middle">12-09</text>
<line x1="70" y1="74" x2="70" y2="323" stroke="#94a3b8" stroke-width="1" />
<line x1="70" y1="323" x2="930" y2="323" stroke="#94a3b8" stroke-width="1" />
<path d="M70.00,188.58 L285.00,209.55 L500.00,187.45 L715.00,191.90 L930.00,203.64" fill="none" stroke="#facc15" stroke-width="2.2" stroke-linecap="round" />
<circle cx="70.00" cy="188.58" r="3" fill="#facc15" stroke="#0f172a" stroke-width="1" />
<text x="70.00" y="178.58" fill="#e2e8f0" font-size="9" text-anchor="middle">0.99</text>
<circle cx="285.00" cy="209.55" r="3" fill="#facc15" stroke="#0f172a" stroke-width="1" />
<text x="285.00" y="189.55" fill="#e2e8f0" font-size="9" text-anchor="middle">0.95</text>
<circle cx="500.00" cy="187.45" r="3" fill="#facc15" stroke="#0f172a" stroke-width="1" />
<text x="500.00" y="177.45" fill="#e2e8f0" font-size="9" text-anchor="middle">0.99</text>
<circle cx="715.00" cy="191.90" r="3" fill="#facc15" stroke="#0f172a" stroke-width="1" />
<text x="715.00" y="171.90" fill="#e2e8f0" font-size="9" text-anchor="middle">0.98</text>
<circle cx="930.00" cy="203.64" r="3" fill="#facc15" stroke="#0f172a" stroke-width="1" />
<text x="930.00" y="193.64" fill="#e2e8f0" font-size="9" text-anchor="middle">0.96</text>
<text x="70" y="403" fill="#e2e8f0" font-size="13" font-weight="600">本年核心指标趋势（滑动7日窗口平均）</text>
<line x1="70" y1="656.00" x2="930" y2="656.00" stroke="#94a3b8" stroke-opacity="0.18" stroke-width="1" />
<text x="62" y="660.00" fill="#cbd5f5" font-size="10" text-anchor="end">0.77</text>
<line x1="70" y1="593.75" x2="930" y2="593.75" stroke="#94a3b8" stroke-opacity="0.18" stroke-width="1" />
<text x="62" y="597.75" fill="#cbd5f5" font-size="10" text-anchor="end">0.88</text>
<line x1="70" y1="531.50" x2="930" y2="531.50" stroke="#94a3b8" stroke-opacity="0.18" stroke-width="1" />
<text x="62" y="535.50" fill="#cbd5f5" font-size="10" text-anchor="end">0.98</text>
<line x1="70" y1="469.25" x2="930" y2="469.25" stroke="#94a3b8" stroke-opacity="0.18" stroke-width="1" />
<text x="62" y="473.25" fill="#cbd5f5" font-size="10" text-anchor="end">1.09</text>
<line x1="70" y1="407.00" x2="930" y2="407.00" stroke="#94a3b8" stroke-opacity="0.18" stroke-width="1" />
<text x="62" y="411.00" fill="#cbd5f5" font-size="10" text-anchor="end">1.19</text>
<line x1="70.00" y1="656" x2="70.00" y2="660" stroke="#94a3b8" stroke-opacity="0.5" stroke-width="1" />
<text x="70.00" y="674" fill="#cbd5f5" font-size="10" text-anchor="middle">2024-12</text>
<line x1="242.00" y1="656" x2="242.00" y2="660" stroke="#94a3b8" stroke-opacity="0.5" stroke-width="1" />
<text x="242.00" y="674" fill="#cbd5f5" font-size="10" text-anchor="middle">2025-02</text>
<line x1="414.00" y1="656" x2="414.00" y2="660" stroke="#94a3b8" stroke-opacity="0.5" stroke-width="1" />
<text x="414.00" y="674" fill="#cbd5f5" font-size="10" text-anchor="middle">2025-05</text>
<line x1="586.00" y1="656" x2="586.00" y2="660" stroke="#94a3b8" stroke-opacity="0.5" stroke-width="1" />
<text x="586.00" y="674" fill="#cbd5f5" font-size="10" text-anchor="middle">2025-07</text>
<line x1="758.00" y1="656" x2="758.00" y2="660" stroke="#94a3b8" stroke-opacity="0.5" stroke-width="1" />
<text x="758.00" y="674" fill="#cbd5f5" font-size="10" text-anchor="middle">2025-09</text>
<line x1="930.00" y1="656" x2="930.00" y2="660" stroke="#94a3b8" stroke-opacity="0.5" stroke-width="1" />
<text x="930.00" y="674" fill="#cbd5f5" font-size="10" text-anchor="middle">2025-12</text>
<line x1="70" y1="407" x2="70" y2="656" stroke="#94a3b8" stroke-width="1" />
<line x1="70" y1="656" x2="930" y2="656" stroke="#94a3b8" stroke-width="1" />
<path d="M70.00,656.00 L70.00,528.17 L86.54,532.50 L103.08,529.73 L119.62,529.19 L136.15,527.69 L152.69,527.91 L169.23,527.02 L185.77,526.10 L202.31,525.34 L218.85,525.57 L235.38,524.73 L251.92,527.00 L268.46,526.76 L285.00,530.71 L301.54,531.85 L318.08,530.45 L334.62,533.57 L351.15,537.16 L367.69,536.82 L384.23,536.33 L400.77,536.02 L417.31,535.63 L433.85,536.21 L450.38,533.24 L466.92,530.88 L483.46,528.96 L500.00,530.33 L516.54,528.98 L533.08,530.75 L549.62,534.09 L566.15,536.22 L582.69,538.27 L599.23,538.27 L615.77,536.57 L632.31,535.13 L648.85,534.23 L665.38,532.42 L681.92,533.27 L698.46,531.53 L715.00,534.23 L731.54,535.89 L748.08,535.62 L764.62,535.93 L781.15,536.78 L797.69,536.35 L814.23,536.31 L830.77,536.35 L847.31,534.69 L863.85,535.12 L880.38,537.32 L896.92,535.21 L913.46,533.43 L930.00,535.18 L930.00,656.00 Z" fill="#facc15" fill-opacity="0.16" stroke="none" />
<path d="M70.00,528.17 L86.54,532.50 L103.08,529.73 L119.62,529.19 L136.15,527.69 L152.69,527.91 L169.23,527.02 L185.77,526.10 L202.31,525.34 L218.85,525.57 L235.38,524.73 L251.92,527.00 L268.46,526.76 L285.00,530.71 L301.54,531.85 L318.08,530.45 L334.62,533.57 L351.15,537.16 L367.69,536.82 L384.23,536.33 L400.77,536.02 L417.31,535.63 L433.85,536.21 L450.38,533.24 L466.92,530.88 L483.46,528.96 L500.00,530.33 L516.54,528.98 L533.08,530.75 L549.62,534.09 L566.15,536.22 L582.69,538.27 L599.23,538.27 L615.77,536.57 L632.31,535.13 L648.85,534.23 L665.38,532.42 L681.92,533.27 L698.46,531.53 L715.00,534.23 L731.54,535.89 L748.08,535.62 L764.62,535.93 L781.15,536.78 L797.69,536.35 L814.23,536.31 L830.77,536.35 L847.31,534.69 L863.85,535.12 L880.38,537.32 L896.92,535.21 L913.46,533.43 L930.00,535.18" fill="none" stroke="#facc15" stroke-width="2.2" stroke-linecap="round" />
</svg>
