<svg xmlns="http://www.w3.org/2000/svg" viewBox="0 0 960 640" width="960" height="640">
  <rect width="960" height="640" fill="#0f172a" />
  <line x1="40" y1="40.00" x2="920.00" y2="40.00" stroke="#94a3b8" stroke-opacity="0.18" stroke-width="1" /><line x1="40" y1="128.00" x2="920.00" y2="128.00" stroke="#94a3b8" stroke-opacity="0.18" stroke-width="1" /><line x1="40" y1="216.00" x2="920.00" y2="216.00" stroke="#94a3b8" stroke-opacity="0.18" stroke-width="1" /><line x1="40" y1="304.00" x2="920.00" y2="304.00" stroke="#94a3b8" stroke-opacity="0.18" stroke-width="1" />
  <line x1="40" y1="336.00" x2="920.00" y2="336.00" stroke="#94a3b8" stroke-opacity="0.18" stroke-width="1" /><line x1="40" y1="424.00" x2="920.00" y2="424.00" stroke="#94a3b8" stroke-opacity="0.18" stroke-width="1" /><line x1="40" y1="512.00" x2="920.00" y2="512.00" stroke="#94a3b8" stroke-opacity="0.18" stroke-width="1" /><line x1="40" y1="600.00" x2="920.00" y2="600.00" stroke="#94a3b8" stroke-opacity="0.18" stroke-width="1" />
  <line x1="40" y1="320.00" x2="920.00" y2="320.00" stroke="#1f2937" stroke-width="1" />
  <polyline points="40.00,157.13 70.34,194.30 100.69,188.51 131.03,230.08 161.38,124.65 191.72,65.36 222.07,158.78 252.41,164.43 282.76,128.39 313.10,40.00 343.45,233.39 373.79,256.20 404.14,162.06 434.48,107.69 464.83,148.09 495.17,174.37 525.52,147.31 555.86,58.21 586.21,259.44 616.55,121.96 646.90,304.00 677.24,234.69 707.59,208.57 737.93,110.08 768.28,207.71 798.62,281.82 828.97,122.99 859.31,200.59 889.66,204.91 920.00,194.60" fill="none" stroke="#60a5fa" stroke-width="2" stroke-linecap="round" stroke-linejoin="round" />
  <polyline points="40.00,471.57 42.43,460.77 44.86,459.48 47.29,425.12 49.72,396.68 52.15,385.28 54.59,380.48 57.02,361.16 59.45,369.76 61.88,373.07 64.31,421.44 66.74,432.61 69.17,438.61 71.60,450.54 74.03,469.47 76.46,456.15 78.90,419.88 81.33,368.96 83.76,365.88 86.19,344.10 88.62,336.00 91.05,353.22 93.48,366.24 95.91,395.19 98.34,415.82 100.77,412.41 103.20,431.33 105.64,434.39 108.07,427.59 110.50,410.14 112.93,407.39 115.36,377.49 117.79,371.09 120.22,370.53 122.65,360.80 125.08,376.26 127.51,372.01 129.94,359.40 132.38,384.56 134.81,412.99 137.24,453.19 139.67,543.67 142.10,575.35 144.53,579.36 146.96,575.05 149.39,566.54 151.82,558.63 154.25,564.65 156.69,479.97 159.12,462.31 161.55,468.00 163.98,474.67 166.41,475.71 168.84,449.65 171.27,408.51 173.70,399.08 176.13,382.81 178.56,393.43 180.99,397.21 183.43,392.83 185.86,387.76 188.29,345.72 190.72,349.16 193.15,354.74 195.58,357.94 198.01,362.26 200.44,369.00 202.87,387.55 205.30,419.95 207.73,423.59 210.17,414.28 212.60,411.79 215.03,400.98 217.46,375.51 219.89,380.87 222.32,383.59 224.75,382.89 227.18,404.12 229.61,428.44 232.04,420.37 234.48,445.37 236.91,470.43 239.34,483.76 241.77,500.80 244.20,465.71 246.63,433.77 249.06,452.84 251.49,457.79 253.92,432.21 256.35,421.54 258.78,402.28 261.22,428.87 263.65,447.11 266.08,449.22 268.51,431.79 270.94,402.22 273.37,392.51 275.80,398.96 278.23,379.26 280.66,353.82 283.09,354.63 285.52,380.35 287.96,402.15 290.39,414.20 292.82,418.39 295.25,444.68 297.68,447.70 300.11,445.96 302.54,430.93 304.97,444.11 307.40,438.60 309.83,442.66 312.27,408.68 314.70,428.19 317.13,446.96 319.56,440.70 321.99,433.39 324.42,428.02 326.85,419.19 329.28,444.81 331.71,435.12 334.14,404.90 336.57,409.51 339.01,418.64 341.44,428.05 343.87,426.36 346.30,432.57 348.73,417.44 351.16,437.06 353.59,427.98 356.02,430.68 358.45,469.86 360.88,492.87 363.31,521.89 365.75,575.17 368.18,578.68 370.61,600.00 373.04,593.97 375.47,548.06 377.90,540.09 380.33,513.80 382.76,475.88 385.19,468.97 387.62,466.96 390.06,461.17 392.49,475.74 394.92,475.06 397.35,459.77 399.78,483.33 402.21,508.61 404.64,507.07 407.07,511.37 409.50,512.23 411.93,509.11 414.36,515.09 416.80,511.13 419.23,474.62 421.66,463.80 424.09,457.38 426.52,460.09 428.95,440.02 431.38,411.12 433.81,397.12 436.24,521.82 438.67,512.52 441.10,517.87 443.54,495.94 445.97,510.00 448.40,546.74 450.83,542.84 453.26,426.25 455.69,419.26 458.12,416.69 460.55,416.02 462.98,411.94 465.41,418.83 467.85,432.95 470.28,442.88 472.71,482.09 475.14,491.96 477.57,525.11 480.00,532.43 482.43,527.88 484.86,530.19 487.29,518.58 489.72,494.41 492.15,482.74 494.59,468.53 497.02,467.74 499.45,448.44 501.88,449.32 504.31,447.42 506.74,461.94 509.17,449.82 511.60,427.93 514.03,444.91 516.46,458.65 518.90,466.33 521.33,465.64 523.76,472.77 526.19,492.82 528.62,510.67 531.05,487.55 533.48,470.05 535.91,412.28 538.34,403.23 540.77,406.36 543.20,406.73 545.64,389.81 548.07,387.55 550.50,386.61 552.93,398.00 555.36,423.43 557.79,426.07 560.22,399.19 562.65,423.86 565.08,434.77 567.51,439.28 569.94,478.05 572.38,445.19 574.81,421.15 577.24,433.91 579.67,437.48 582.10,429.11 584.53,421.86 586.96,405.59 589.39,412.32 591.82,409.02 594.25,422.07 596.69,411.41 599.12,412.31 601.55,442.84 603.98,458.69 606.41,474.52 608.84,488.74 611.27,483.11 613.70,488.29 616.13,518.49 618.56,522.91 620.99,517.16 623.43,502.96 625.86,488.21 628.29,475.35 630.72,482.45 633.15,446.26 635.58,425.57 638.01,417.08 640.44,474.89 642.87,504.23 645.30,509.98 647.73,510.26 650.17,525.88 652.60,525.77 655.03,540.28 657.46,485.24 659.89,482.63 662.32,482.88 664.75,478.49 667.18,474.10 669.61,478.49 672.04,471.26 674.48,474.03 676.91,458.16 679.34,453.28 681.77,447.71 684.20,447.69 686.63,434.88 689.06,440.16 691.49,451.25 693.92,454.29 696.35,483.87 698.78,469.03 701.22,481.70 703.65,501.40 706.08,493.77 708.51,480.55 710.94,456.41 713.37,441.72 715.80,460.93 718.23,467.75 720.66,468.98 723.09,482.34 725.52,506.95 727.96,535.55 730.39,541.72 732.82,556.40 735.25,556.73 737.68,570.32 740.11,518.46 742.54,542.61 744.97,550.15 747.40,564.53 749.83,548.79 752.27,540.76 754.70,531.12 757.13,597.99 759.56,565.49 761.99,575.42 764.42,564.44 766.85,546.93 769.28,549.02 771.71,533.31 774.14,497.13 776.57,484.31 779.01,464.45 781.44,447.58 783.87,454.56 786.30,437.07 788.73,442.30 791.16,461.48 793.59,462.36 796.02,467.03 798.45,477.53 800.88,457.14 803.31,471.04 805.75,455.87 808.18,435.52 810.61,461.86 813.04,440.80 815.47,453.72 817.90,490.33 820.33,492.91 822.76,459.72 825.19,511.91 827.62,490.79 830.06,513.53 832.49,511.78 834.92,502.92 837.35,493.98 839.78,528.47 842.21,510.34 844.64,532.16 847.07,540.21 849.50,529.00 851.93,532.76 854.36,537.05 856.80,559.34 859.23,523.09 861.66,478.82 864.09,463.81 866.52,465.55 868.95,449.82 871.38,414.39 873.81,415.17 876.24,446.56 878.67,469.63 881.10,457.44 883.54,453.54 885.97,464.52 888.40,490.12 890.83,448.32 893.26,449.10 895.69,439.53 898.12,486.37 900.55,507.03 902.98,515.19 905.41,506.31 907.85,541.98 910.28,547.32 912.71,547.57 915.14,522.89 917.57,515.79 920.00,512.46" fill="none" stroke="#60a5fa" stroke-width="2" stroke-linecap="round" stroke-linejoin="round" />
  
  
  </svg>