<svg xmlns="http://www.w3.org/2000/svg" viewBox="0 0 960 720" width="960" height="720">
<rect width="960" height="720" fill="#0f172a" />
<text x="480" y="28" fill="#e2e8f0" font-size="16" font-weight="700" text-anchor="middle">步行心率均值趋势图</text>
<text x="70" y="70" fill="#e2e8f0" font-size="13" font-weight="600">本月分天指标明细</text>
<line x1="70" y1="323.00" x2="930" y2="323.00" stroke="#94a3b8" stroke-opacity="0.18" stroke-width="1" />
<text x="62" y="327.00" fill="#cbd5f5" font-size="10" text-anchor="end">67.7</text>
<line x1="70" y1="260.75" x2="930" y2="260.75" stroke="#94a3b8" stroke-opacity="0.18" stroke-width="1" />
<text x="62" y="264.75" fill="#cbd5f5" font-size="10" text-anchor="end">77.7</text>
<line x1="70" y1="198.50" x2="930" y2="198.50" stroke="#94a3b8" stroke-opacity="0.18" stroke-width="1" />
<text x="62" y="202.50" fill="#cbd5f5" font-size="10" text-anchor="end">87.8</text>
<line x1="70" y1="136.25" x2="930" y2="136.25" stroke="#94a3b8" stroke-opacity="0.18" stroke-width="1" />
<text x="62" y="140.25" fill="#cbd5f5" font-size="10" text-anchor="end">97.8</text>
<line x1="70" y1="74.00" x2="930" y2="74.00" stroke="#94a3b8" stroke-opacity="0.18" stroke-width="1" />
<text x="62" y="78.00" fill="#cbd5f5" font-size="10" text-anchor="end">107.8</text>
<line x1="70.00" y1="323" x2="70.00" y2="327" stroke="#94a3b8" stroke-opacity="0.5" stroke-width="1" />
<text x="70.00" y="341" fill="#cbd5f5" font-size="10" text-anchor="middle">11-22</text>
<line x1="242.00" y1="323" x2="242.00" y2="327" stroke="#94a3b8" stroke-opacity="0.5" stroke-width="1" />
<text x="242.00" y="341" fill="#cbd5f5" font-size="10" text-anchor="middle">11-27</text>
<line x1="414.00" y1="323" x2="414.00" y2="327" stroke="#94a3b8" stroke-opacity="0.5" stroke-width="1" />
<text x="414.00" y="341" fill="#cbd5f5" font-size="10" text-anchor="middle">12-03</text>
<line x1="586.00" y1="323" x2="586.00" y2="327" stroke="#94a3b8" stroke-opacity="0.5" stroke-width="1" />
<text x="586.00" y="341" fill="#cbd5f5" font-size="10" text-anchor="middle">12-09</text>
<line x1="758.00" y1="323" x2="758.00" y2="327" stroke="#94a3b8" stroke-opacity="0.5" stroke-width="1" />
<text x="758.00" y="341" fill="#cbd5f5" font-size="10" text-anchor="middle">12-15</text>
<line x1="930.00" y1="323" x2="930.00" y2="327" stroke="#94a3b8" stroke-opacity="0.5" stroke-width="1" />
<text x="930.00" y="341" fill="#cbd5f5" font-size="10" text-anchor="middle">12-21</text>
<line x1="70" y1="74" x2="70" y2="323" stroke="#94a3b8" stroke-width="1" />
<line x1="70" y1="323" x2="930" y2="323" stroke="#94a3b8" stroke-width="1" />
<path d="M70.00,302.25 L99.66,203.15 L129.31,113.33 L158.97,252.70 L188.62,231.02 L218.28,178.37 L247.93,94.75 L277.59,252.70 L307.24,258.89 L336.90,212.44 L366.55,227.92 L396.21,227.92 L425.86,227.92 L455.52,274.38 L485.17,271.28 L514.83,135.01 L544.48,212.44 L574.14,212.44 L603.79,231.02 L633.45,209.34 L663.10,283.67 L692.76,206.24 L722.41,221.73 L752.07,252.70 L781.72,141.21 L811.38,153.59 L841.03,218.63 L870.69,196.95 L900.34,153.59 L930.00,237.21" fill="none" stroke="#60a5fa" stroke-width="2.2" stroke-linecap="round" />
<circle cx="70.00" cy="302.25" r="3" fill="#60a5fa" stroke="#0f172a" stroke-width="1" />
<text x="70.00" y="292.25" fill="#e2e8f0" font-size="9" text-anchor="middle">71</text>
<circle cx="99.66" cy="203.15" r="3" fill="#60a5fa" stroke="#0f172a" stroke-width="1" />
<text x="99.66" y="183.15" fill="#e2e8f0" font-size="9" text-anchor="middle">87</text>
<circle cx="129.31" cy="113.33" r="3" fill="#60a5fa" stroke="#0f172a" stroke-width="1" />
<text x="129.31" y="103.33" fill="#e2e8f0" font-size="9" text-anchor="middle">101.5</text>
<circle cx="158.97" cy="252.70" r="3" fill="#60a5fa" stroke="#0f172a" stroke-width="1" />
<text x="158.97" y="232.70" fill="#e2e8f0" font-size="9" text-anchor="middle">79</text>
<circle cx="188.62" cy="231.02" r="3" fill="#60a5fa" stroke="#0f172a" stroke-width="1" />
<text x="188.62" y="221.02" fill="#e2e8f0" font-size="9" text-anchor="middle">82.5</text>
<circle cx="218.28" cy="178.37" r="3" fill="#60a5fa" stroke="#0f172a" stroke-width="1" />
<text x="218.28" y="158.37" fill="#e2e8f0" font-size="9" text-anchor="middle">91</text>
<circle cx="247.93" cy="94.75" r="3" fill="#60a5fa" stroke="#0f172a" stroke-width="1" />
<text x="247.93" y="84.75" fill="#e2e8f0" font-size="9" text-anchor="middle">104.5</text>
<circle cx="277.59" cy="252.70" r="3" fill="#60a5fa" stroke="#0f172a" stroke-width="1" />
<text x="277.59" y="232.70" fill="#e2e8f0" font-size="9" text-anchor="middle">79</text>
<circle cx="307.24" cy="258.89" r="3" fill="#60a5fa" stroke="#0f172a" stroke-width="1" />
<text x="307.24" y="248.89" fill="#e2e8f0" font-size="9" text-anchor="middle">78</text>
<circle cx="336.90" cy="212.44" r="3" fill="#60a5fa" stroke="#0f172a" stroke-width="1" />
<text x="336.90" y="192.44" fill="#e2e8f0" font-size="9" text-anchor="middle">85.5</text>
<circle cx="366.55" cy="227.92" r="3" fill="#60a5fa" stroke="#0f172a" stroke-width="1" />
<text x="366.55" y="217.92" fill="#e2e8f0" font-size="9" text-anchor="middle">83</text>
<circle cx="396.21" cy="227.92" r="3" fill="#60a5fa" stroke="#0f172a" stroke-width="1" />
<text x="396.21" y="207.92" fill="#e2e8f0" font-size="9" text-anchor="middle">83</text>
<circle cx="425.86" cy="227.92" r="3" fill="#60a5fa" stroke="#0f172a" stroke-width="1" />
<text x="425.86" y="217.92" fill="#e2e8f0" font-size="9" text-anchor="middle">83</text>
<circle cx="455.52" cy="274.38" r="3" fill="#60a5fa" stroke="#0f172a" stroke-width="1" />
<text x="455.52" y="254.38" fill="#e2e8f0" font-size="9" text-anchor="middle">75.5</text>
<circle cx="485.17" cy="271.28" r="3" fill="#60a5fa" stroke="#0f172a" stroke-width="1" />
<text x="485.17" y="261.28" fill="#e2e8f0" font-size="9" text-anchor="middle">76</text>
<circle cx="514.83" cy="135.01" r="3" fill="#60a5fa" stroke="#0f172a" stroke-width="1" />
<text x="514.83" y="115.01" fill="#e2e8f0" font-size="9" text-anchor="middle">98</text>
<circle cx="544.48" cy="212.44" r="3" fill="#60a5fa" stroke="#0f172a" stroke-width="1" />
<text x="544.48" y="202.44" fill="#e2e8f0" font-size="9" text-anchor="middle">85.5</text>
<circle cx="574.14" cy="212.44" r="3" fill="#60a5fa" stroke="#0f172a" stroke-width="1" />
<text x="574.14" y="192.44" fill="#e2e8f0" font-size="9" text-anchor="middle">85.5</text>
<circle cx="603.79" cy="231.02" r="3" fill="#60a5fa" stroke="#0f172a" stroke-width="1" />
<text x="603.79" y="221.02" fill="#e2e8f0" font-size="9" text-anchor="middle">82.5</text>
<circle cx="633.45" cy="209.34" r="3" fill="#60a5fa" stroke="#0f172a" stroke-width="1" />
<text x="633.45" y="189.34" fill="#e2e8f0" font-size="9" text-anchor="middle">86</text>
<circle cx="663.10" cy="283.67" r="3" fill="#60a5fa" stroke="#0f172a" stroke-width="1" />
<text x="663.10" y="273.67" fill="#e2e8f0" font-size="9" text-anchor="middle">74</text>
<circle cx="692.76" cy="206.24" r="3" fill="#60a5fa" stroke="#0f172a" stroke-width="1" />
<text x="692.76" y="186.24" fill="#e2e8f0" font-size="9" text-anchor="middle">86.5</text>
<circle cx="722.41" cy="221.73" r="3" fill="#60a5fa" stroke="#0f172a" stroke-width="1" />
<text x="722.41" y="211.73" fill="#e2e8f0" font-size="9" text-anchor="middle">84</text>
<circle cx="752.07" cy="252.70" r="3" fill="#60a5fa" stroke="#0f172a" stroke-width="1" />
<text x="752.07" y="232.70" fill="#e2e8f0" font-size="9" text-anchor="middle">79</text>
<circle cx="781.72" cy="141.21" r="3" fill="#60a5fa" stroke="#0f172a" stroke-width="1" />
<text x="781.72" y="131.21" fill="#e2e8f0" font-size="9" text-anchor="middle">97</text>
<circle cx="811.38" cy="153.59" r="3" fill="#60a5fa" stroke="#0f172a" stroke-width="1" />
<text x="811.38" y="133.59" fill="#e2e8f0" font-size="9" text-anchor="middle">95</text>
<circle cx="841.03" cy="218.63" r="3" fill="#60a5fa" stroke="#0f172a" stroke-width="1" />
<text x="841.03" y="208.63" fill="#e2e8f0" font-size="9" text-anchor="middle">84.5</text>
<circle cx="870.69" cy="196.95" r="3" fill="#60a5fa" stroke="#0f172a" stroke-width="1" />
<text x="870.69" y="176.95" fill="#e2e8f0" font-size="9" text-anchor="middle">88</text>
<circle cx="900.34" cy="153.59" r="3" fill="#60a5fa" stroke="#0f172a" stroke-width="1" />
<text x="900.34" y="143.59" fill="#e2e8f0" font-size="9" text-anchor="middle">95</text>
<circle cx="930.00" cy="237.21" r="3" fill="#60a5fa" stroke="#0f172a" stroke-width="1" />
<text x="930.00" y="217.21" fill="#e2e8f0" font-size="9" text-anchor="middle">81.5</text>
<text x="70" y="403" fill="#e2e8f0" font-size="13" font-weight="600">本年核心指标趋势（滑动7日窗口平均）</text>
<line x1="70" y1="656.00" x2="930" y2="656.00" stroke="#94a3b8" stroke-opacity="0.18" stroke-width="1" />
<text x="62" y="660.00" fill="#cbd5f5" font-size="10" text-anchor="end">73.7</text>
<line x1="70" y1="593.75" x2="930" y2="593.75" stroke="#94a3b8" stroke-opacity="0.18" stroke-width="1" />
<text x="62" y="597.75" fill="#cbd5f5" font-size="10" text-anchor="end">80.9</text>
<line x1="70" y1="531.50" x2="930" y2="531.50" stroke="#94a3b8" stroke-opacity="0.18" stroke-width="1" />
<text x="62" y="535.50" fill="#cbd5f5" font-size="10" text-anchor="end">88.1</text>
<line x1="70" y1="469.25" x2="930" y2="469.25" stroke="#94a3b8" stroke-opacity="0.18" stroke-width="1" />
<text x="62" y="473.25" fill="#cbd5f5" font-size="10" text-anchor="end">95.3</text>
<line x1="70" y1="407.00" x2="930" y2="407.00" stroke="#94a3b8" stroke-opacity="0.18" stroke-width="1" />
<text x="62" y="411.00" fill="#cbd5f5" font-size="10" text-anchor="end">102.5</text>
<line x1="70.00" y1="656" x2="70.00" y2="660" stroke="#94a3b8" stroke-opacity="0.5" stroke-width="1" />
<text x="70.00" y="674" fill="#cbd5f5" font-size="10" text-anchor="middle">2025-01</text>
<line x1="242.00" y1="656" x2="242.00" y2="660" stroke="#94a3b8" stroke-opacity="0.5" stroke-width="1" />
<text x="242.00" y="674" fill="#cbd5f5" font-size="10" text-anchor="middle">2025-03</text>
<line x1="414.00" y1="656" x2="414.00" y2="660" stroke="#94a3b8" stroke-opacity="0.5" stroke-width="1" />
<text x="414.00" y="674" fill="#cbd5f5" font-size="10" text-anchor="middle">2025-06</text>
<line x1="586.00" y1="656" x2="586.00" y2="660" stroke="#94a3b8" stroke-opacity="0.5" stroke-width="1" />
<text x="586.00" y="674" fill="#cbd5f5" font-size="10" text-anchor="middle">2025-08</text>
<line x1="758.00" y1="656" x2="758.00" y2="660" stroke="#94a3b8" stroke-opacity="0.5" stroke-width="1" />
<text x="758.00" y="674" fill="#cbd5f5" font-size="10" text-anchor="middle">2025-10</text>
<line x1="930.00" y1="656" x2="930.00" y2="660" stroke="#94a3b8" stroke-opacity="0.5" stroke-width="1" />
<text x="930.00" y="674" fill="#cbd5f5" font-size="10" text-anchor="middle">2025-12</text>
<line x1="70" y1="407" x2="70" y2="656" stroke="#94a3b8" stroke-width="1" />
<line x1="70" y1="656" x2="930" y2="656" stroke="#94a3b8" stroke-width="1" />
<path d="M70.00,656.00 L70.00,515.18 L72.60,519.49 L75.20,519.49 L77.79,537.81 L80.39,541.91 L82.99,533.14 L85.59,541.66 L88.19,541.66 L90.79,531.81 L95.98,517.65 L98.58,461.00 L101.18,448.07 L103.78,452.99 L106.37,435.75 L108.97,427.75 L111.57,436.37 L114.17,442.53 L116.77,491.79 L119.37,501.64 L121.96,506.56 L124.56,521.34 L127.16,542.89 L129.76,519.49 L132.36,539.20 L134.95,536.73 L137.55,517.65 L140.15,509.03 L142.75,504.10 L145.35,493.02 L147.95,518.88 L150.54,502.25 L153.14,485.01 L155.74,499.79 L158.34,507.18 L160.94,513.34 L163.53,510.87 L166.13,504.72 L168.73,497.94 L171.33,511.49 L173.93,518.88 L176.53,533.66 L179.12,527.50 L181.72,528.73 L184.32,545.35 L186.92,562.59 L189.52,578.60 L192.11,568.75 L194.71,562.59 L197.31,568.75 L199.91,587.22 L202.51,591.53 L205.11,595.23 L207.70,595.84 L210.30,588.45 L212.90,580.45 L215.50,576.14 L218.10,565.06 L220.69,542.89 L223.29,530.58 L225.89,526.27 L228.49,529.96 L231.09,523.19 L233.69,528.73 L236.28,538.58 L241.48,560.13 L244.08,567.52 L246.68,576.14 L249.27,590.92 L251.87,593.38 L254.47,595.84 L257.07,584.76 L259.67,561.98 L262.27,563.21 L264.86,550.28 L267.46,547.82 L270.06,550.90 L272.66,549.66 L275.26,541.04 L277.85,546.59 L280.45,549.05 L283.05,550.90 L285.65,547.82 L288.25,560.13 L290.85,553.97 L293.44,556.44 L296.04,570.60 L298.64,560.75 L301.24,549.66 L303.84,549.66 L306.44,533.04 L309.03,541.66 L311.63,540.43 L314.23,541.66 L316.83,544.12 L319.43,565.06 L322.02,580.45 L324.62,571.21 L327.22,558.90 L329.82,577.37 L332.42,555.21 L335.02,566.90 L337.61,557.67 L340.21,549.05 L342.81,564.44 L345.41,569.98 L348.01,539.20 L350.60,551.51 L353.20,545.35 L355.80,541.66 L358.40,529.96 L361.00,527.50 L363.60,526.27 L366.19,541.04 L368.79,552.13 L371.39,547.82 L373.99,542.89 L376.59,561.36 L379.18,567.52 L381.78,574.29 L386.98,579.22 L389.58,561.98 L392.18,561.36 L394.77,559.52 L397.37,550.90 L399.97,538.58 L402.57,523.80 L405.17,539.81 L407.76,546.59 L410.36,554.59 L412.96,570.60 L415.56,574.29 L418.16,597.69 L420.76,589.07 L423.35,568.14 L425.95,568.75 L428.55,561.36 L431.15,557.67 L433.75,549.66 L436.34,548.43 L438.94,564.44 L444.14,565.06 L446.74,564.44 L449.34,572.45 L451.93,565.06 L454.53,573.68 L457.13,556.44 L459.73,565.06 L462.33,570.60 L464.92,568.75 L467.52,568.14 L470.12,569.37 L472.72,565.67 L475.32,586.61 L477.92,586.61 L480.51,577.99 L483.11,579.22 L485.71,573.06 L488.31,563.21 L490.91,579.22 L493.50,564.44 L496.10,558.28 L498.70,560.75 L501.30,561.98 L503.90,565.67 L506.50,576.14 L509.09,555.21 L511.69,552.74 L514.29,525.65 L516.89,537.97 L519.49,535.50 L522.08,532.42 L524.68,537.97 L527.28,524.42 L529.88,499.17 L532.48,532.42 L535.08,517.03 L537.67,514.57 L540.27,505.33 L542.87,491.79 L545.47,495.48 L548.07,525.03 L550.66,507.79 L553.26,525.65 L555.86,527.50 L558.46,531.19 L561.06,529.96 L563.66,536.12 L566.25,512.10 L568.85,520.11 L571.45,511.49 L574.05,505.95 L576.65,520.72 L579.24,530.58 L581.84,546.59 L584.44,565.67 L587.04,576.14 L589.64,574.29 L592.24,579.22 L594.83,566.90 L597.43,569.98 L600.03,555.82 L602.63,550.28 L605.23,535.50 L610.42,518.88 L613.02,506.56 L615.62,502.87 L618.22,491.79 L641.60,505.95 L644.20,512.72 L646.80,515.18 L649.40,533.66 L651.99,540.43 L654.59,544.12 L657.19,560.75 L659.79,553.36 L662.39,549.66 L664.98,552.13 L667.58,549.66 L670.18,559.52 L672.78,564.44 L675.38,552.13 L677.98,539.81 L680.57,545.35 L683.17,545.97 L685.77,537.35 L688.37,533.04 L690.97,541.04 L693.56,550.90 L696.16,555.82 L698.76,540.43 L701.36,544.74 L703.96,555.82 L706.56,559.52 L709.15,543.51 L711.75,539.20 L714.35,540.43 L716.95,544.74 L719.55,532.42 L722.15,534.89 L724.74,536.73 L727.34,545.97 L729.94,543.51 L732.54,544.74 L735.14,557.05 L737.73,558.28 L740.33,563.21 L742.93,561.98 L745.53,553.36 L748.13,556.44 L750.73,566.90 L753.32,564.44 L755.92,562.59 L758.52,544.12 L761.12,547.20 L763.72,548.43 L766.31,550.28 L768.91,534.89 L771.51,534.89 L774.11,544.12 L776.71,539.20 L779.31,534.27 L781.90,521.34 L784.50,525.65 L787.10,535.50 L789.70,541.66 L792.30,549.05 L794.89,560.13 L797.49,566.29 L800.09,596.46 L802.69,545.35 L805.29,547.20 L807.89,537.35 L810.48,531.81 L813.08,543.51 L815.68,539.81 L818.28,505.95 L820.88,534.89 L823.47,528.73 L826.07,536.12 L828.67,531.81 L831.27,528.73 L833.87,536.12 L836.47,550.28 L839.06,573.68 L841.66,585.99 L844.26,587.22 L846.86,602.00 L849.46,604.46 L852.05,609.39 L854.65,635.25 L857.25,624.17 L859.85,594.61 L862.45,595.84 L865.05,585.38 L867.64,569.37 L870.24,531.81 L872.84,521.96 L875.44,533.04 L878.04,552.74 L880.63,547.82 L883.23,547.20 L885.83,557.05 L888.43,592.76 L891.03,596.46 L893.63,571.83 L896.22,571.83 L898.82,568.75 L901.42,569.37 L904.02,565.67 L906.62,567.52 L909.21,554.59 L911.81,571.83 L914.41,579.83 L917.01,565.67 L919.61,550.28 L922.21,552.13 L924.80,534.89 L927.40,524.42 L930.00,527.50 L930.00,656.00 Z" fill="#60a5fa" fill-opacity="0.16" stroke="none" />
<path d="M70.00,515.18 L72.60,519.49 L75.20,519.49 L77.79,537.81 L80.39,541.91 L82.99,533.14 L85.59,541.66 L88.19,541.66 L90.79,531.81 L95.98,517.65 L98.58,461.00 L101.18,448.07 L103.78,452.99 L106.37,435.75 L108.97,427.75 L111.57,436.37 L114.17,442.53 L116.77,491.79 L119.37,501.64 L121.96,506.56 L124.56,521.34 L127.16,542.89 L129.76,519.49 L132.36,539.20 L134.95,536.73 L137.55,517.65 L140.15,509.03 L142.75,504.10 L145.35,493.02 L147.95,518.88 L150.54,502.25 L153.14,485.01 L155.74,499.79 L158.34,507.18 L160.94,513.34 L163.53,510.87 L166.13,504.72 L168.73,497.94 L171.33,511.49 L173.93,518.88 L176.53,533.66 L179.12,527.50 L181.72,528.73 L184.32,545.35 L186.92,562.59 L189.52,578.60 L192.11,568.75 L194.71,562.59 L197.31,568.75 L199.91,587.22 L202.51,591.53 L205.11,595.23 L207.70,595.84 L210.30,588.45 L212.90,580.45 L215.50,576.14 L218.10,565.06 L220.69,542.89 L223.29,530.58 L225.89,526.27 L228.49,529.96 L231.09,523.19 L233.69,528.73 L236.28,538.58 L241.48,560.13 L244.08,567.52 L246.68,576.14 L249.27,590.92 L251.87,593.38 L254.47,595.84 L257.07,584.76 L259.67,561.98 L262.27,563.21 L264.86,550.28 L267.46,547.82 L270.06,550.90 L272.66,549.66 L275.26,541.04 L277.85,546.59 L280.45,549.05 L283.05,550.90 L285.65,547.82 L288.25,560.13 L290.85,553.97 L293.44,556.44 L296.04,570.60 L298.64,560.75 L301.24,549.66 L303.84,549.66 L306.44,533.04 L309.03,541.66 L311.63,540.43 L314.23,541.66 L316.83,544.12 L319.43,565.06 L322.02,580.45 L324.62,571.21 L327.22,558.90 L329.82,577.37 L332.42,555.21 L335.02,566.90 L337.61,557.67 L340.21,549.05 L342.81,564.44 L345.41,569.98 L348.01,539.20 L350.60,551.51 L353.20,545.35 L355.80,541.66 L358.40,529.96 L361.00,527.50 L363.60,526.27 L366.19,541.04 L368.79,552.13 L371.39,547.82 L373.99,542.89 L376.59,561.36 L379.18,567.52 L381.78,574.29 L386.98,579.22 L389.58,561.98 L392.18,561.36 L394.77,559.52 L397.37,550.90 L399.97,538.58 L402.57,523.80 L405.17,539.81 L407.76,546.59 L410.36,554.59 L412.96,570.60 L415.56,574.29 L418.16,597.69 L420.76,589.07 L423.35,568.14 L425.95,568.75 L428.55,561.36 L431.15,557.67 L433.75,549.66 L436.34,548.43 L438.94,564.44 L444.14,565.06 L446.74,564.44 L449.34,572.45 L451.93,565.06 L454.53,573.68 L457.13,556.44 L459.73,565.06 L462.33,570.60 L464.92,568.75 L467.52,568.14 L470.12,569.37 L472.72,565.67 L475.32,586.61 L477.92,586.61 L480.51,577.99 L483.11,579.22 L485.71,573.06 L488.31,563.21 L490.91,579.22 L493.50,564.44 L496.10,558.28 L498.70,560.75 L501.30,561.98 L503.90,565.67 L506.50,576.14 L509.09,555.21 L511.69,552.74 L514.29,525.65 L516.89,537.97 L519.49,535.50 L522.08,532.42 L524.68,537.97 L527.28,524.42 L529.88,499.17 L532.48,532.42 L535.08,517.03 L537.67,514.57 L540.27,505.33 L542.87,491.79 L545.47,495.48 L548.07,525.03 L550.66,507.79 L553.26,525.65 L555.86,527.50 L558.46,531.19 L561.06,529.96 L563.66,536.12 L566.25,512.10 L568.85,520.11 L571.45,511.49 L574.05,505.95 L576.65,520.72 L579.24,530.58 L581.84,546.59 L584.44,565.67 L587.04,576.14 L589.64,574.29 L592.24,579.22 L594.83,566.90 L597.43,569.98 L600.03,555.82 L602.63,550.28 L605.23,535.50 L610.42,518.88 L613.02,506.56 L615.62,502.87 L618.22,491.79 L641.60,505.95 L644.20,512.72 L646.80,515.18 L649.40,533.66 L651.99,540.43 L654.59,544.12 L657.19,560.75 L659.79,553.36 L662.39,549.66 L664.98,552.13 L667.58,549.66 L670.18,559.52 L672.78,564.44 L675.38,552.13 L677.98,539.81 L680.57,545.35 L683.17,545.97 L685.77,537.35 L688.37,533.04 L690.97,541.04 L693.56,550.90 L696.16,555.82 L698.76,540.43 L701.36,544.74 L703.96,555.82 L706.56,559.52 L709.15,543.51 L711.75,539.20 L714.35,540.43 L716.95,544.74 L719.55,532.42 L722.15,534.89 L724.74,536.73 L727.34,545.97 L729.94,543.51 L732.54,544.74 L735.14,557.05 L737.73,558.28 L740.33,563.21 L742.93,561.98 L745.53,553.36 L748.13,556.44 L750.73,566.90 L753.32,564.44 L755.92,562.59 L758.52,544.12 L761.12,547.20 L763.72,548.43 L766.31,550.28 L768.91,534.89 L771.51,534.89 L774.11,544.12 L776.71,539.20 L779.31,534.27 L781.90,521.34 L784.50,525.65 L787.10,535.50 L789.70,541.66 L792.30,549.05 L794.89,560.13 L797.49,566.29 L800.09,596.46 L802.69,545.35 L805.29,547.20 L807.89,537.35 L810.48,531.81 L813.08,543.51 L815.68,539.81 L818.28,505.95 L820.88,534.89 L823.47,528.73 L826.07,536.12 L828.67,531.81 L831.27,528.73 L833.87,536.12 L836.47,550.28 L839.06,573.68 L841.66,585.99 L844.26,587.22 L846.86,602.00 L849.46,604.46 L852.05,609.39 L854.65,635.25 L857.25,624.17 L859.85,594.61 L862.45,595.84 L865.05,585.38 L867.64,569.37 L870.24,531.81 L872.84,521.96 L875.44,533.04 L878.04,552.74 L880.63,547.82 L883.23,547.20 L885.83,557.05 L888.43,592.76 L891.03,596.46 L893.63,571.83 L896.22,571.83 L898.82,568.75 L901.42,569.37 L904.02,565.67 L906.62,567.52 L909.21,554.59 L911.81,571.83 L914.41,579.83 L917.01,565.67 L919.61,550.28 L922.21,552.13 L924.80,534.89 L927.40,524.42 L930.00,527.50" fill="none" stroke="#60a5fa" stroke-width="2.2" stroke-linecap="round" />
</svg>
