<svg xmlns="http://www.w3.org/2000/svg" viewBox="0 0 960 720" width="960" height="720">
<rect width="960" height="720" fill="#0f172a" />
<text x="480" y="28" fill="#e2e8f0" font-size="16" font-weight="700" text-anchor="middle">步态不对称均值趋势图</text>
<text x="70" y="70" fill="#e2e8f0" font-size="13" font-weight="600">本月分天指标明细</text>
<line x1="70" y1="323.00" x2="930" y2="323.00" stroke="#94a3b8" stroke-opacity="0.18" stroke-width="1" />
<text x="62" y="327.00" fill="#cbd5f5" font-size="10" text-anchor="end">-0.19</text>
<line x1="70" y1="260.75" x2="930" y2="260.75" stroke="#94a3b8" stroke-opacity="0.18" stroke-width="1" />
<text x="62" y="264.75" fill="#cbd5f5" font-size="10" text-anchor="end">-0.07</text>
<line x1="70" y1="198.50" x2="930" y2="198.50" stroke="#94a3b8" stroke-opacity="0.18" stroke-width="1" />
<text x="62" y="202.50" fill="#cbd5f5" font-size="10" text-anchor="end">0.05</text>
<line x1="70" y1="136.25" x2="930" y2="136.25" stroke="#94a3b8" stroke-opacity="0.18" stroke-width="1" />
<text x="62" y="140.25" fill="#cbd5f5" font-size="10" text-anchor="end">0.18</text>
<line x1="70" y1="74.00" x2="930" y2="74.00" stroke="#94a3b8" stroke-opacity="0.18" stroke-width="1" />
<text x="62" y="78.00" fill="#cbd5f5" font-size="10" text-anchor="end">0.3</text>
<line x1="70.00" y1="323" x2="70.00" y2="327" stroke="#94a3b8" stroke-opacity="0.5" stroke-width="1" />
<text x="70.00" y="341" fill="#cbd5f5" font-size="10" text-anchor="middle">11-22</text>
<line x1="242.00" y1="323" x2="242.00" y2="327" stroke="#94a3b8" stroke-opacity="0.5" stroke-width="1" />
<text x="242.00" y="341" fill="#cbd5f5" font-size="10" text-anchor="middle">11-27</text>
<line x1="414.00" y1="323" x2="414.00" y2="327" stroke="#94a3b8" stroke-opacity="0.5" stroke-width="1" />
<text x="414.00" y="341" fill="#cbd5f5" font-size="10" text-anchor="middle">12-03</text>
<line x1="586.00" y1="323" x2="586.00" y2="327" stroke="#94a3b8" stroke-opacity="0.5" stroke-width="1" />
<text x="586.00" y="341" fill="#cbd5f5" font-size="10" text-anchor="middle">12-09</text>
<line x1="758.00" y1="323" x2="758.00" y2="327" stroke="#94a3b8" stroke-opacity="0.5" stroke-width="1" />
<text x="758.00" y="341" fill="#cbd5f5" font-size="10" text-anchor="middle">12-15</text>
<line x1="930.00" y1="323" x2="930.00" y2="327" stroke="#94a3b8" stroke-opacity="0.5" stroke-width="1" />
<text x="930.00" y="341" fill="#cbd5f5" font-size="10" text-anchor="middle">12-21</text>
<line x1="70" y1="74" x2="70" y2="323" stroke="#94a3b8" stroke-width="1" />
<line x1="70" y1="323" x2="930" y2="323" stroke="#94a3b8" stroke-width="1" />
<path d="M70.00,202.43 L99.66,208.96 L129.31,212.22 L158.97,174.08 L188.62,191.84 L218.28,218.20 L247.93,207.02 L277.59,180.54 L307.24,204.78 L336.90,207.96 L366.55,199.78 L396.21,216.75 L425.86,217.46 L455.52,194.73 L485.17,217.20 L514.83,186.23 L544.48,208.82 L574.14,215.52 L603.79,201.76 L633.45,194.01 L663.10,207.91 L692.76,222.92 L722.41,216.70 L752.07,220.95 L781.72,214.79 L811.38,194.47 L841.03,219.99 L870.69,221.53 L900.34,218.54 L930.00,213.70" fill="none" stroke="#60a5fa" stroke-width="2.2" stroke-linecap="round" />
<circle cx="70.00" cy="202.43" r="3" fill="#60a5fa" stroke="#0f172a" stroke-width="1" />
<text x="70.00" y="192.43" fill="#e2e8f0" font-size="9" text-anchor="middle">0.05</text>
<circle cx="99.66" cy="208.96" r="3" fill="#60a5fa" stroke="#0f172a" stroke-width="1" />
<text x="99.66" y="188.96" fill="#e2e8f0" font-size="9" text-anchor="middle">0.03</text>
<circle cx="129.31" cy="212.22" r="3" fill="#60a5fa" stroke="#0f172a" stroke-width="1" />
<text x="129.31" y="202.22" fill="#e2e8f0" font-size="9" text-anchor="middle">0.03</text>
<circle cx="158.97" cy="174.08" r="3" fill="#60a5fa" stroke="#0f172a" stroke-width="1" />
<text x="158.97" y="154.08" fill="#e2e8f0" font-size="9" text-anchor="middle">0.1</text>
<circle cx="188.62" cy="191.84" r="3" fill="#60a5fa" stroke="#0f172a" stroke-width="1" />
<text x="188.62" y="181.84" fill="#e2e8f0" font-size="9" text-anchor="middle">0.07</text>
<circle cx="218.28" cy="218.20" r="3" fill="#60a5fa" stroke="#0f172a" stroke-width="1" />
<text x="218.28" y="198.20" fill="#e2e8f0" font-size="9" text-anchor="middle">0.02</text>
<circle cx="247.93" cy="207.02" r="3" fill="#60a5fa" stroke="#0f172a" stroke-width="1" />
<text x="247.93" y="197.02" fill="#e2e8f0" font-size="9" text-anchor="middle">0.04</text>
<circle cx="277.59" cy="180.54" r="3" fill="#60a5fa" stroke="#0f172a" stroke-width="1" />
<text x="277.59" y="160.54" fill="#e2e8f0" font-size="9" text-anchor="middle">0.09</text>
<circle cx="307.24" cy="204.78" r="3" fill="#60a5fa" stroke="#0f172a" stroke-width="1" />
<text x="307.24" y="194.78" fill="#e2e8f0" font-size="9" text-anchor="middle">0.04</text>
<circle cx="336.90" cy="207.96" r="3" fill="#60a5fa" stroke="#0f172a" stroke-width="1" />
<text x="336.90" y="187.96" fill="#e2e8f0" font-size="9" text-anchor="middle">0.04</text>
<circle cx="366.55" cy="199.78" r="3" fill="#60a5fa" stroke="#0f172a" stroke-width="1" />
<text x="366.55" y="189.78" fill="#e2e8f0" font-size="9" text-anchor="middle">0.05</text>
<circle cx="396.21" cy="216.75" r="3" fill="#60a5fa" stroke="#0f172a" stroke-width="1" />
<text x="396.21" y="196.75" fill="#e2e8f0" font-size="9" text-anchor="middle">0.02</text>
<circle cx="425.86" cy="217.46" r="3" fill="#60a5fa" stroke="#0f172a" stroke-width="1" />
<text x="425.86" y="207.46" fill="#e2e8f0" font-size="9" text-anchor="middle">0.02</text>
<circle cx="455.52" cy="194.73" r="3" fill="#60a5fa" stroke="#0f172a" stroke-width="1" />
<text x="455.52" y="174.73" fill="#e2e8f0" font-size="9" text-anchor="middle">0.06</text>
<circle cx="485.17" cy="217.20" r="3" fill="#60a5fa" stroke="#0f172a" stroke-width="1" />
<text x="485.17" y="207.20" fill="#e2e8f0" font-size="9" text-anchor="middle">0.02</text>
<circle cx="514.83" cy="186.23" r="3" fill="#60a5fa" stroke="#0f172a" stroke-width="1" />
<text x="514.83" y="166.23" fill="#e2e8f0" font-size="9" text-anchor="middle">0.08</text>
<circle cx="544.48" cy="208.82" r="3" fill="#60a5fa" stroke="#0f172a" stroke-width="1" />
<text x="544.48" y="198.82" fill="#e2e8f0" font-size="9" text-anchor="middle">0.03</text>
<circle cx="574.14" cy="215.52" r="3" fill="#60a5fa" stroke="#0f172a" stroke-width="1" />
<text x="574.14" y="195.52" fill="#e2e8f0" font-size="9" text-anchor="middle">0.02</text>
<circle cx="603.79" cy="201.76" r="3" fill="#60a5fa" stroke="#0f172a" stroke-width="1" />
<text x="603.79" y="191.76" fill="#e2e8f0" font-size="9" text-anchor="middle">0.05</text>
<circle cx="633.45" cy="194.01" r="3" fill="#60a5fa" stroke="#0f172a" stroke-width="1" />
<text x="633.45" y="174.01" fill="#e2e8f0" font-size="9" text-anchor="middle">0.06</text>
<circle cx="663.10" cy="207.91" r="3" fill="#60a5fa" stroke="#0f172a" stroke-width="1" />
<text x="663.10" y="197.91" fill="#e2e8f0" font-size="9" text-anchor="middle">0.04</text>
<circle cx="692.76" cy="222.92" r="3" fill="#60a5fa" stroke="#0f172a" stroke-width="1" />
<text x="692.76" y="202.92" fill="#e2e8f0" font-size="9" text-anchor="middle">0.01</text>
<circle cx="722.41" cy="216.70" r="3" fill="#60a5fa" stroke="#0f172a" stroke-width="1" />
<text x="722.41" y="206.70" fill="#e2e8f0" font-size="9" text-anchor="middle">0.02</text>
<circle cx="752.07" cy="220.95" r="3" fill="#60a5fa" stroke="#0f172a" stroke-width="1" />
<text x="752.07" y="200.95" fill="#e2e8f0" font-size="9" text-anchor="middle">0.01</text>
<circle cx="781.72" cy="214.79" r="3" fill="#60a5fa" stroke="#0f172a" stroke-width="1" />
<text x="781.72" y="204.79" fill="#e2e8f0" font-size="9" text-anchor="middle">0.02</text>
<circle cx="811.38" cy="194.47" r="3" fill="#60a5fa" stroke="#0f172a" stroke-width="1" />
<text x="811.38" y="174.47" fill="#e2e8f0" font-size="9" text-anchor="middle">0.06</text>
<circle cx="841.03" cy="219.99" r="3" fill="#60a5fa" stroke="#0f172a" stroke-width="1" />
<text x="841.03" y="209.99" fill="#e2e8f0" font-size="9" text-anchor="middle">0.01</text>
<circle cx="870.69" cy="221.53" r="3" fill="#60a5fa" stroke="#0f172a" stroke-width="1" />
<text x="870.69" y="201.53" fill="#e2e8f0" font-size="9" text-anchor="middle">0.01</text>
<circle cx="900.34" cy="218.54" r="3" fill="#60a5fa" stroke="#0f172a" stroke-width="1" />
<text x="900.34" y="208.54" fill="#e2e8f0" font-size="9" text-anchor="middle">0.01</text>
<circle cx="930.00" cy="213.70" r="3" fill="#60a5fa" stroke="#0f172a" stroke-width="1" />
<text x="930.00" y="193.70" fill="#e2e8f0" font-size="9" text-anchor="middle">0.02</text>
<text x="70" y="403" fill="#e2e8f0" font-size="13" font-weight="600">本年核心指标趋势（滑动7日窗口平均）</text>
<line x1="70" y1="656.00" x2="930" y2="656.00" stroke="#94a3b8" stroke-opacity="0.18" stroke-width="1" />
<text x="62" y="660.00" fill="#cbd5f5" font-size="10" text-anchor="end">-0.19</text>
<line x1="70" y1="593.75" x2="930" y2="593.75" stroke="#94a3b8" stroke-opacity="0.18" stroke-width="1" />
<text x="62" y="597.75" fill="#cbd5f5" font-size="10" text-anchor="end">-0.08</text>
<line x1="70" y1="531.50" x2="930" y2="531.50" stroke="#94a3b8" stroke-opacity="0.18" stroke-width="1" />
<text x="62" y="535.50" fill="#cbd5f5" font-size="10" text-anchor="end">0.04</text>
<line x1="70" y1="469.25" x2="930" y2="469.25" stroke="#94a3b8" stroke-opacity="0.18" stroke-width="1" />
<text x="62" y="473.25" fill="#cbd5f5" font-size="10" text-anchor="end">0.15</text>
<line x1="70" y1="407.00" x2="930" y2="407.00" stroke="#94a3b8" stroke-opacity="0.18" stroke-width="1" />
<text x="62" y="411.00" fill="#cbd5f5" font-size="10" text-anchor="end">0.27</text>
<line x1="70.00" y1="656" x2="70.00" y2="660" stroke="#94a3b8" stroke-opacity="0.5" stroke-width="1" />
<text x="70.00" y="674" fill="#cbd5f5" font-size="10" text-anchor="middle">2024-12</text>
<line x1="242.00" y1="656" x2="242.00" y2="660" stroke="#94a3b8" stroke-opacity="0.5" stroke-width="1" />
<text x="242.00" y="674" fill="#cbd5f5" font-size="10" text-anchor="middle">2025-03</text>
<line x1="414.00" y1="656" x2="414.00" y2="660" stroke="#94a3b8" stroke-opacity="0.5" stroke-width="1" />
<text x="414.00" y="674" fill="#cbd5f5" font-size="10" text-anchor="middle">2025-05</text>
<line x1="586.00" y1="656" x2="586.00" y2="660" stroke="#94a3b8" stroke-opacity="0.5" stroke-width="1" />
<text x="586.00" y="674" fill="#cbd5f5" font-size="10" text-anchor="middle">2025-07</text>
<line x1="758.00" y1="656" x2="758.00" y2="660" stroke="#94a3b8" stroke-opacity="0.5" stroke-width="1" />
<text x="758.00" y="674" fill="#cbd5f5" font-size="10" text-anchor="middle">2025-10</text>
<line x1="930.00" y1="656" x2="930.00" y2="660" stroke="#94a3b8" stroke-opacity="0.5" stroke-width="1" />
<text x="930.00" y="674" fill="#cbd5f5" font-size="10" text-anchor="middle">2025-12</text>
<line x1="70" y1="407" x2="70" y2="656" stroke="#94a3b8" stroke-width="1" />
<line x1="70" y1="656" x2="930" y2="656" stroke="#94a3b8" stroke-width="1" />
<path d="M70.00,656.00 L70.00,540.64 L72.36,545.07 L74.73,534.13 L77.09,538.60 L79.45,540.07 L81.81,539.12 L84.18,539.63 L86.54,538.90 L88.90,538.64 L91.26,543.87 L93.63,542.32 L95.99,540.36 L98.35,542.45 L100.71,542.76 L103.08,542.93 L105.44,542.71 L107.80,542.44 L110.16,543.00 L112.53,544.08 L114.89,542.86 L117.25,542.65 L119.62,540.71 L121.98,541.26 L124.34,538.02 L126.70,535.00 L129.07,535.71 L131.43,536.83 L133.79,527.35 L136.15,530.58 L138.52,529.69 L140.88,532.99 L143.24,532.84 L145.60,521.71 L147.97,520.38 L150.33,524.90 L152.69,523.40 L157.42,522.06 L159.78,520.64 L164.51,520.40 L166.87,531.94 L171.59,532.20 L173.96,534.91 L176.32,527.64 L178.68,527.25 L181.04,524.30 L183.41,528.07 L185.77,526.19 L188.13,527.01 L190.49,529.86 L192.86,536.27 L195.22,538.50 L197.58,542.86 L199.95,542.84 L202.31,541.63 L204.67,536.63 L207.03,535.72 L209.40,537.55 L211.76,534.90 L214.12,534.68 L216.48,534.83 L218.85,537.86 L221.21,536.11 L223.57,537.21 L225.93,537.61 L228.30,539.65 L230.66,538.67 L233.02,538.08 L235.38,534.26 L237.75,540.63 L240.11,540.31 L242.47,540.64 L244.84,541.14 L247.20,542.17 L249.56,541.33 L251.92,538.78 L254.29,539.19 L256.65,538.79 L259.01,535.19 L261.37,533.31 L263.74,533.72 L266.10,533.80 L268.46,539.11 L270.82,539.29 L273.19,536.45 L275.55,540.23 L277.91,541.12 L280.27,541.34 L282.64,538.31 L285.00,538.55 L287.36,537.98 L289.73,541.29 L292.09,541.81 L294.45,541.42 L296.81,540.62 L299.18,542.29 L301.54,543.45 L303.90,543.61 L306.26,543.77 L308.63,538.63 L310.99,538.93 L313.35,537.36 L315.71,537.82 L318.08,532.90 L320.44,532.25 L322.80,531.41 L325.16,530.97 L327.53,531.21 L329.89,529.55 L332.25,532.27 L334.62,536.61 L336.98,537.76 L339.34,537.75 L341.70,541.24 L344.07,542.33 L346.43,546.07 L348.79,545.20 L351.15,545.32 L353.52,545.59 L355.88,545.41 L358.24,544.23 L360.60,543.62 L362.97,543.45 L365.33,537.96 L367.69,537.48 L370.05,536.26 L372.42,537.29 L374.78,539.13 L377.14,535.45 L379.51,535.05 L381.87,539.16 L384.23,537.36 L386.59,533.82 L388.96,531.58 L391.32,530.58 L393.68,534.52 L396.04,534.62 L398.41,535.93 L400.77,538.08 L403.13,542.70 L405.49,544.52 L407.86,546.11 L410.22,543.99 L412.58,543.47 L414.95,543.16 L417.31,542.65 L419.67,540.87 L422.03,540.96 L424.40,541.01 L426.76,540.82 L429.12,541.12 L431.48,542.03 L433.85,542.82 L436.21,543.72 L438.57,543.00 L440.93,542.74 L443.30,543.83 L445.66,543.38 L448.02,543.72 L450.38,542.91 L455.11,543.16 L457.47,542.06 L459.84,542.07 L462.20,543.55 L464.56,543.04 L466.92,543.04 L469.29,542.68 L471.65,543.00 L474.01,544.97 L476.37,545.03 L478.74,543.24 L481.10,545.41 L483.46,543.97 L485.82,543.77 L488.19,541.29 L490.55,541.45 L492.91,541.72 L495.27,542.44 L497.64,532.75 L500.00,531.83 L502.36,533.21 L504.73,533.28 L507.09,532.32 L509.45,532.54 L511.81,530.61 L514.18,538.99 L516.54,534.91 L518.90,533.82 L521.26,535.53 L523.63,536.52 L525.99,536.34 L528.35,536.45 L530.71,533.58 L533.08,535.43 L535.44,534.18 L537.80,535.31 L540.16,534.38 L542.53,534.04 L544.89,535.98 L547.25,533.28 L549.62,536.21 L551.98,537.07 L554.34,536.35 L556.70,531.66 L559.07,531.35 L561.43,530.09 L563.79,536.58 L566.15,537.85 L568.52,539.43 L570.88,539.77 L573.24,545.09 L575.60,545.65 L577.97,547.48 L580.33,543.18 L582.69,539.30 L585.05,538.95 L587.42,537.99 L589.78,538.18 L592.14,535.41 L594.51,536.39 L596.87,540.20 L599.23,543.84 L601.59,544.37 L603.96,544.61 L606.32,544.12 L608.68,545.84 L611.04,542.90 L613.41,538.77 L615.77,537.33 L618.13,536.78 L620.49,537.66 L622.86,538.33 L625.22,538.58 L627.58,536.97 L629.95,539.65 L632.31,537.95 L634.67,538.35 L637.03,538.48 L639.40,538.40 L641.76,538.70 L644.12,542.12 L646.48,542.08 L648.85,544.32 L651.21,544.86 L653.57,544.50 L655.93,543.85 L658.30,541.90 L660.66,540.92 L663.02,541.35 L665.38,538.77 L667.75,538.17 L670.11,537.90 L672.47,538.38 L674.84,540.19 L677.20,540.55 L679.56,540.69 L681.92,544.80 L684.29,544.39 L686.65,544.98 L689.01,545.44 L691.37,546.13 L693.74,545.13 L696.10,544.74 L698.46,542.08 L700.82,539.87 L703.19,537.48 L705.55,534.46 L707.91,534.65 L710.27,534.88 L712.64,535.15 L715.00,536.36 L717.36,537.11 L719.73,538.99 L724.45,538.96 L726.81,538.08 L729.18,540.61 L731.54,540.82 L733.90,541.24 L736.26,543.15 L738.63,542.21 L743.35,543.45 L745.71,544.86 L748.08,544.86 L750.44,545.40 L752.80,544.70 L755.16,543.33 L757.53,544.64 L759.89,545.33 L762.25,543.08 L764.62,543.08 L766.98,543.41 L769.34,542.40 L771.70,542.46 L774.07,541.77 L776.43,535.85 L778.79,535.28 L781.15,526.65 L783.52,526.24 L785.88,526.15 L788.24,526.59 L790.60,526.71 L792.97,532.30 L795.33,532.32 L797.69,537.93 L800.05,538.87 L802.42,538.42 L804.78,539.20 L807.14,538.61 L809.51,539.33 L811.87,538.68 L814.23,539.28 L816.59,535.70 L818.96,538.10 L821.32,536.53 L823.68,531.56 L826.04,530.42 L828.41,532.51 L830.77,532.18 L833.13,535.01 L835.49,531.09 L837.86,530.98 L840.22,527.34 L842.58,527.04 L844.95,525.10 L847.31,522.43 L849.67,521.09 L852.03,520.88 L854.40,520.58 L856.76,520.81 L859.12,518.30 L861.48,518.01 L863.85,520.84 L866.21,521.14 L868.57,518.14 L870.93,515.52 L873.30,524.44 L875.66,526.44 L878.02,523.05 L880.38,522.40 L882.75,521.74 L885.11,525.73 L887.47,529.58 L889.84,529.47 L892.20,527.57 L894.56,533.24 L896.92,530.37 L899.29,530.50 L901.65,532.94 L904.01,530.62 L906.37,526.99 L908.74,529.03 L911.10,529.92 L913.46,534.64 L915.82,536.52 L918.19,536.40 L920.55,535.27 L922.91,539.30 L925.27,541.41 L927.64,540.73 L930.00,540.26 L930.00,656.00 Z" fill="#60a5fa" fill-opacity="0.16" stroke="none" />
<path d="M70.00,540.64 L72.36,545.07 L74.73,534.13 L77.09,538.60 L79.45,540.07 L81.81,539.12 L84.18,539.63 L86.54,538.90 L88.90,538.64 L91.26,543.87 L93.63,542.32 L95.99,540.36 L98.35,542.45 L100.71,542.76 L103.08,542.93 L105.44,542.71 L107.80,542.44 L110.16,543.00 L112.53,544.08 L114.89,542.86 L117.25,542.65 L119.62,540.71 L121.98,541.26 L124.34,538.02 L126.70,535.00 L129.07,535.71 L131.43,536.83 L133.79,527.35 L136.15,530.58 L138.52,529.69 L140.88,532.99 L143.24,532.84 L145.60,521.71 L147.97,520.38 L150.33,524.90 L152.69,523.40 L157.42,522.06 L159.78,520.64 L164.51,520.40 L166.87,531.94 L171.59,532.20 L173.96,534.91 L176.32,527.64 L178.68,527.25 L181.04,524.30 L183.41,528.07 L185.77,526.19 L188.13,527.01 L190.49,529.86 L192.86,536.27 L195.22,538.50 L197.58,542.86 L199.95,542.84 L202.31,541.63 L204.67,536.63 L207.03,535.72 L209.40,537.55 L211.76,534.90 L214.12,534.68 L216.48,534.83 L218.85,537.86 L221.21,536.11 L223.57,537.21 L225.93,537.61 L228.30,539.65 L230.66,538.67 L233.02,538.08 L235.38,534.26 L237.75,540.63 L240.11,540.31 L242.47,540.64 L244.84,541.14 L247.20,542.17 L249.56,541.33 L251.92,538.78 L254.29,539.19 L256.65,538.79 L259.01,535.19 L261.37,533.31 L263.74,533.72 L266.10,533.80 L268.46,539.11 L270.82,539.29 L273.19,536.45 L275.55,540.23 L277.91,541.12 L280.27,541.34 L282.64,538.31 L285.00,538.55 L287.36,537.98 L289.73,541.29 L292.09,541.81 L294.45,541.42 L296.81,540.62 L299.18,542.29 L301.54,543.45 L303.90,543.61 L306.26,543.77 L308.63,538.63 L310.99,538.93 L313.35,537.36 L315.71,537.82 L318.08,532.90 L320.44,532.25 L322.80,531.41 L325.16,530.97 L327.53,531.21 L329.89,529.55 L332.25,532.27 L334.62,536.61 L336.98,537.76 L339.34,537.75 L341.70,541.24 L344.07,542.33 L346.43,546.07 L348.79,545.20 L351.15,545.32 L353.52,545.59 L355.88,545.41 L358.24,544.23 L360.60,543.62 L362.97,543.45 L365.33,537.96 L367.69,537.48 L370.05,536.26 L372.42,537.29 L374.78,539.13 L377.14,535.45 L379.51,535.05 L381.87,539.16 L384.23,537.36 L386.59,533.82 L388.96,531.58 L391.32,530.58 L393.68,534.52 L396.04,534.62 L398.41,535.93 L400.77,538.08 L403.13,542.70 L405.49,544.52 L407.86,546.11 L410.22,543.99 L412.58,543.47 L414.95,543.16 L417.31,542.65 L419.67,540.87 L422.03,540.96 L424.40,541.01 L426.76,540.82 L429.12,541.12 L431.48,542.03 L433.85,542.82 L436.21,543.72 L438.57,543.00 L440.93,542.74 L443.30,543.83 L445.66,543.38 L448.02,543.72 L450.38,542.91 L455.11,543.16 L457.47,542.06 L459.84,542.07 L462.20,543.55 L464.56,543.04 L466.92,543.04 L469.29,542.68 L471.65,543.00 L474.01,544.97 L476.37,545.03 L478.74,543.24 L481.10,545.41 L483.46,543.97 L485.82,543.77 L488.19,541.29 L490.55,541.45 L492.91,541.72 L495.27,542.44 L497.64,532.75 L500.00,531.83 L502.36,533.21 L504.73,533.28 L507.09,532.32 L509.45,532.54 L511.81,530.61 L514.18,538.99 L516.54,534.91 L518.90,533.82 L521.26,535.53 L523.63,536.52 L525.99,536.34 L528.35,536.45 L530.71,533.58 L533.08,535.43 L535.44,534.18 L537.80,535.31 L540.16,534.38 L542.53,534.04 L544.89,535.98 L547.25,533.28 L549.62,536.21 L551.98,537.07 L554.34,536.35 L556.70,531.66 L559.07,531.35 L561.43,530.09 L563.79,536.58 L566.15,537.85 L568.52,539.43 L570.88,539.77 L573.24,545.09 L575.60,545.65 L577.97,547.48 L580.33,543.18 L582.69,539.30 L585.05,538.95 L587.42,537.99 L589.78,538.18 L592.14,535.41 L594.51,536.39 L596.87,540.20 L599.23,543.84 L601.59,544.37 L603.96,544.61 L606.32,544.12 L608.68,545.84 L611.04,542.90 L613.41,538.77 L615.77,537.33 L618.13,536.78 L620.49,537.66 L622.86,538.33 L625.22,538.58 L627.58,536.97 L629.95,539.65 L632.31,537.95 L634.67,538.35 L637.03,538.48 L639.40,538.40 L641.76,538.70 L644.12,542.12 L646.48,542.08 L648.85,544.32 L651.21,544.86 L653.57,544.50 L655.93,543.85 L658.30,541.90 L660.66,540.92 L663.02,541.35 L665.38,538.77 L667.75,538.17 L670.11,537.90 L672.47,538.38 L674.84,540.19 L677.20,540.55 L679.56,540.69 L681.92,544.80 L684.29,544.39 L686.65,544.98 L689.01,545.44 L691.37,546.13 L693.74,545.13 L696.10,544.74 L698.46,542.08 L700.82,539.87 L703.19,537.48 L705.55,534.46 L707.91,534.65 L710.27,534.88 L712.64,535.15 L715.00,536.36 L717.36,537.11 L719.73,538.99 L724.45,538.96 L726.81,538.08 L729.18,540.61 L731.54,540.82 L733.90,541.24 L736.26,543.15 L738.63,542.21 L743.35,543.45 L745.71,544.86 L748.08,544.86 L750.44,545.40 L752.80,544.70 L755.16,543.33 L757.53,544.64 L759.89,545.33 L762.25,543.08 L764.62,543.08 L766.98,543.41 L769.34,542.40 L771.70,542.46 L774.07,541.77 L776.43,535.85 L778.79,535.28 L781.15,526.65 L783.52,526.24 L785.88,526.15 L788.24,526.59 L790.60,526.71 L792.97,532.30 L795.33,532.32 L797.69,537.93 L800.05,538.87 L802.42,538.42 L804.78,539.20 L807.14,538.61 L809.51,539.33 L811.87,538.68 L814.23,539.28 L816.59,535.70 L818.96,538.10 L821.32,536.53 L823.68,531.56 L826.04,530.42 L828.41,532.51 L830.77,532.18 L833.13,535.01 L835.49,531.09 L837.86,530.98 L840.22,527.34 L842.58,527.04 L844.95,525.10 L847.31,522.43 L849.67,521.09 L852.03,520.88 L854.40,520.58 L856.76,520.81 L859.12,518.30 L861.48,518.01 L863.85,520.84 L866.21,521.14 L868.57,518.14 L870.93,515.52 L873.30,524.44 L875.66,526.44 L878.02,523.05 L880.38,522.40 L882.75,521.74 L885.11,525.73 L887.47,529.58 L889.84,529.47 L892.20,527.57 L894.56,533.24 L896.92,530.37 L899.29,530.50 L901.65,532.94 L904.01,530.62 L906.37,526.99 L908.74,529.03 L911.10,529.92 L913.46,534.64 L915.82,536.52 L918.19,536.40 L920.55,535.27 L922.91,539.30 L925.27,541.41 L927.64,540.73 L930.00,540.26" fill="none" stroke="#60a5fa" stroke-width="2.2" stroke-linecap="round" />
</svg>
