<svg xmlns="http://www.w3.org/2000/svg" viewBox="0 0 960 640" width="960" height="640">
  <rect width="960" height="640" fill="#0f172a" />
  <line x1="40" y1="40.00" x2="920.00" y2="40.00" stroke="#94a3b8" stroke-opacity="0.18" stroke-width="1" /><line x1="40" y1="128.00" x2="920.00" y2="128.00" stroke="#94a3b8" stroke-opacity="0.18" stroke-width="1" /><line x1="40" y1="216.00" x2="920.00" y2="216.00" stroke="#94a3b8" stroke-opacity="0.18" stroke-width="1" /><line x1="40" y1="304.00" x2="920.00" y2="304.00" stroke="#94a3b8" stroke-opacity="0.18" stroke-width="1" />
  <line x1="40" y1="336.00" x2="920.00" y2="336.00" stroke="#94a3b8" stroke-opacity="0.18" stroke-width="1" /><line x1="40" y1="424.00" x2="920.00" y2="424.00" stroke="#94a3b8" stroke-opacity="0.18" stroke-width="1" /><line x1="40" y1="512.00" x2="920.00" y2="512.00" stroke="#94a3b8" stroke-opacity="0.18" stroke-width="1" /><line x1="40" y1="600.00" x2="920.00" y2="600.00" stroke="#94a3b8" stroke-opacity="0.18" stroke-width="1" />
  <line x1="40" y1="320.00" x2="920.00" y2="320.00" stroke="#1f2937" stroke-width="1" />
  <polyline points="40.00,121.23 98.67,270.15 157.33,283.69 216.00,209.23 274.67,40.00 333.33,155.08 392.00,270.15 450.67,134.77 509.33,188.92 568.00,229.54 626.67,188.92 685.33,304.00 744.00,263.38 802.67,168.62 861.33,202.46 920.00,283.69" fill="none" stroke="#60a5fa" stroke-width="2" stroke-linecap="round" stroke-linejoin="round" />
  <polyline points="40.00,406.59 46.03,411.32 52.05,422.24 58.08,424.42 64.11,417.51 70.14,401.14 76.16,393.49 82.19,376.76 88.22,360.38 94.25,353.47 100.27,336.00 106.30,347.64 112.33,357.11 118.36,373.12 124.38,392.95 130.41,411.14 136.44,429.70 142.47,460.63 148.49,470.82 154.52,484.28 160.55,497.02 166.58,503.75 172.60,499.75 178.63,495.02 184.66,489.92 190.68,492.71 196.71,498.90 202.74,500.36 208.77,506.18 214.79,523.64 220.82,540.38 226.85,549.48 232.88,544.87 238.90,542.69 244.93,548.51 250.96,552.51 256.99,554.33 263.01,551.78 269.04,549.24 275.07,552.88 281.10,549.97 287.12,545.96 293.15,545.60 299.18,554.70 305.21,544.87 311.23,545.60 317.26,548.51 323.29,560.88 329.32,571.80 335.34,575.80 341.37,571.80 347.40,584.90 353.42,583.08 359.45,584.17 365.48,574.35 371.51,564.16 377.53,559.79 383.56,550.69 389.59,547.60 395.62,546.87 401.64,545.78 407.67,542.87 413.70,547.96 419.73,543.96 425.75,553.79 431.78,561.97 437.81,559.79 443.84,563.43 449.86,565.98 455.89,561.97 461.92,566.34 467.95,558.70 473.97,553.60 480.00,568.52 486.03,575.80 492.05,588.17 498.08,594.72 504.11,599.09 510.14,600.00 516.16,596.73 522.19,594.54 528.22,589.08 534.25,577.08 540.27,571.80 546.30,568.52 552.33,566.89 558.36,563.61 564.38,549.78 570.41,548.69 576.44,558.15 582.47,548.87 588.49,544.87 594.52,543.78 600.55,546.33 606.58,544.51 612.60,529.95 618.63,512.12 624.66,504.84 630.68,503.02 636.71,489.92 642.74,479.37 648.77,476.82 654.79,479.74 660.82,483.37 666.85,487.38 672.88,480.10 678.90,464.45 684.93,454.26 690.96,437.89 696.99,415.69 703.01,397.13 709.04,384.40 715.07,378.21 721.10,380.39 727.12,379.30 733.15,374.57 739.18,374.21 745.21,374.94 751.23,376.39 757.26,371.30 763.29,369.48 769.32,356.38 775.34,357.83 781.37,364.75 787.40,365.11 793.42,363.29 799.45,352.37 805.48,354.92 811.51,364.75 817.53,372.02 823.56,369.84 829.59,372.39 835.62,381.49 841.64,400.41 847.67,408.78 853.70,406.23 859.73,407.69 865.75,418.60 871.78,419.33 877.81,414.96 883.84,412.05 889.86,410.96 895.89,425.15 901.92,430.97 907.95,425.52 913.97,429.16 920.00,434.25" fill="none" stroke="#60a5fa" stroke-width="2" stroke-linecap="round" stroke-linejoin="round" />
  
  
  </svg>